# Blender 4.0.2
# www.blender.org
mtllib A_regular.mtl
o Text
v 0.153846 0.600000 -1.303846
v 1.169231 0.600000 1.350000
v 0.869231 0.600000 1.350000
v 0.600000 0.600000 0.626923
v -0.600000 0.600000 0.626923
v -0.869231 0.600000 1.350000
v -1.169231 0.600000 1.350000
v -0.153846 0.600000 -1.303846
v 0.503846 0.600000 0.361538
v 0.000000 0.600000 -0.992308
v -0.503846 0.600000 0.361538
v 0.153846 0.000000 -1.303846
v 1.169231 0.000000 1.350000
v 0.869231 0.000000 1.350000
v 0.600000 0.000000 0.626923
v -0.600000 0.000000 0.626923
v -0.869231 0.000000 1.350000
v -1.169231 0.000000 1.350000
v -0.153846 0.000000 -1.303846
v 0.503846 0.000000 0.361538
v 0.000000 0.000000 -0.992308
v -0.503846 0.000000 0.361538
v 0.153846 0.000000 -1.303846
v 0.153846 0.600000 -1.303846
v 1.169231 0.000000 1.350000
v 1.169231 0.600000 1.350000
v 0.869231 0.000000 1.350000
v 0.869231 0.600000 1.350000
v 0.600000 0.000000 0.626923
v 0.600000 0.600000 0.626923
v -0.600000 0.000000 0.626923
v -0.600000 0.600000 0.626923
v -0.869231 0.000000 1.350000
v -0.869231 0.600000 1.350000
v -1.169231 0.000000 1.350000
v -1.169231 0.600000 1.350000
v -0.153846 0.000000 -1.303846
v -0.153846 0.600000 -1.303846
v 0.503846 0.000000 0.361538
v 0.503846 0.600000 0.361538
v 0.000000 0.000000 -0.992308
v 0.000000 0.600000 -0.992308
v -0.503846 0.000000 0.361538
v -0.503846 0.600000 0.361538
vn -0.0000 1.0000 -0.0000
vn -0.0000 -1.0000 -0.0000
vn 0.5669 -0.0000 -0.8238
vn 0.8238 -0.0000 0.5669
vn -0.5706 -0.0000 0.8213
vn 0.5706 -0.0000 0.8213
vn -0.8238 -0.0000 0.5669
vn -0.5669 -0.0000 -0.8238
vn -0.8212 -0.0000 -0.5706
vn -0.0000 -0.0000 1.0000
vn 0.8212 -0.0000 -0.5706
vt 0.600000 0.000000
vt 0.000000 0.000000
vt 0.700000 0.000000
vt 0.900000 0.000000
vt 0.100000 0.000000
vt 1.000000 0.000000
vt 0.800000 0.000000
vt 0.400000 0.000000
vt 0.300000 0.000000
vt 0.500000 0.000000
vt 0.200000 0.000000
vt 0.000000 1.000000
vt 0.125000 1.000000
vt 0.125000 0.000000
vt 0.250000 1.000000
vt 0.250000 0.000000
vt 0.375000 1.000000
vt 0.375000 0.000000
vt 0.500000 1.000000
vt 0.625000 1.000000
vt 0.625000 0.000000
vt 0.750000 1.000000
vt 0.750000 0.000000
vt 0.875000 1.000000
vt 0.875000 0.000000
vt 1.000000 1.000000
vt 0.333333 1.000000
vt 0.333333 0.000000
vt 0.666667 1.000000
vt 0.666667 0.000000
s 0
usemtl Material.001
f 7/1/1 1/2/1 8/3/1
f 7/1/1 10/4/1 1/2/1
f 10/4/1 2/5/1 1/2/1
f 7/1/1 11/6/1 10/4/1
f 9/7/1 2/5/1 10/4/1
f 7/1/1 5/8/1 11/6/1
f 5/8/1 9/7/1 11/6/1
f 5/8/1 4/9/1 9/7/1
f 4/9/1 2/5/1 9/7/1
f 7/1/1 6/10/1 5/8/1
f 3/11/1 2/5/1 4/9/1
f 18/1/2 19/3/2 12/2/2
f 18/1/2 12/2/2 21/4/2
f 21/4/2 12/2/2 13/5/2
f 18/1/2 21/4/2 22/6/2
f 20/7/2 21/4/2 13/5/2
f 18/1/2 22/6/2 16/8/2
f 16/8/2 22/6/2 20/7/2
f 16/8/2 20/7/2 15/9/2
f 15/9/2 20/7/2 13/5/2
f 18/1/2 16/8/2 17/10/2
f 14/11/2 15/9/2 13/5/2
s 1
f 24/12/3 26/13/4 25/14/4 23/2/3
f 26/13/4 28/15/5 27/16/5 25/14/4
f 28/15/5 30/17/5 29/18/5 27/16/5
f 30/17/5 32/19/6 31/10/6 29/18/5
f 32/19/6 34/20/6 33/21/6 31/10/6
f 34/20/6 36/22/7 35/23/7 33/21/6
f 36/22/7 38/24/8 37/25/8 35/23/7
f 38/24/8 24/26/3 23/6/3 37/25/8
f 40/12/9 42/27/10 41/28/10 39/2/9
f 42/27/10 44/29/11 43/30/11 41/28/10
f 44/29/11 40/26/9 39/6/9 43/30/11
