# Blender 4.0.2
# www.blender.org
mtllib B_regular.mtl
o Text
v 0.153846 0.600000 1.350000
v -0.850000 0.600000 1.350000
v -0.850000 0.600000 -1.303846
v 0.184615 0.600000 -1.303846
v 0.235657 0.600000 -1.302564
v 0.284936 0.600000 -1.298718
v 0.332452 0.600000 -1.292308
v 0.378205 0.600000 -1.283333
v 0.422195 0.600000 -1.271795
v 0.464423 0.600000 -1.257692
v 0.504888 0.600000 -1.241026
v 0.543590 0.600000 -1.221795
v 0.580529 0.600000 -1.200000
v 0.615705 0.600000 -1.175641
v 0.649118 0.600000 -1.148718
v 0.680769 0.600000 -1.119231
v 0.710256 0.600000 -1.087634
v 0.737179 0.600000 -1.054380
v 0.761538 0.600000 -1.019471
v 0.783333 0.600000 -0.982906
v 0.802564 0.600000 -0.944685
v 0.819231 0.600000 -0.904808
v 0.833333 0.600000 -0.863275
v 0.844872 0.600000 -0.820085
v 0.853846 0.600000 -0.775240
v 0.860256 0.600000 -0.728739
v 0.864103 0.600000 -0.680582
v 0.865385 0.600000 -0.630769
v 0.864663 0.600000 -0.592895
v 0.862500 0.600000 -0.556197
v 0.858894 0.600000 -0.520673
v 0.853846 0.600000 -0.486325
v 0.847356 0.600000 -0.453152
v 0.839423 0.600000 -0.421154
v 0.830048 0.600000 -0.390331
v 0.819231 0.600000 -0.360684
v 0.806971 0.600000 -0.332212
v 0.793269 0.600000 -0.304915
v 0.778125 0.600000 -0.278793
v 0.761538 0.600000 -0.253846
v 0.743884 0.600000 -0.230021
v 0.725534 0.600000 -0.207265
v 0.706490 0.600000 -0.185577
v 0.686752 0.600000 -0.164957
v 0.666319 0.600000 -0.145406
v 0.645192 0.600000 -0.126923
v 0.623371 0.600000 -0.109509
v 0.600855 0.600000 -0.093163
v 0.577644 0.600000 -0.077885
v 0.553739 0.600000 -0.063675
v 0.529140 0.600000 -0.050534
v 0.503846 0.600000 -0.038462
v 0.580636 0.600000 -0.013942
v 0.650748 0.600000 0.016026
v 0.714183 0.600000 0.051442
v 0.770940 0.600000 0.092308
v 0.821020 0.600000 0.138622
v 0.864423 0.600000 0.190385
v 0.901149 0.600000 0.247596
v 0.931197 0.600000 0.310256
v 0.954567 0.600000 0.378365
v 0.971261 0.600000 0.451923
v 0.981277 0.600000 0.530929
v 0.984615 0.600000 0.615385
v 0.983120 0.600000 0.676830
v 0.978633 0.600000 0.735523
v 0.971154 0.600000 0.791466
v 0.960684 0.600000 0.844658
v 0.947222 0.600000 0.895099
v 0.930769 0.600000 0.942788
v 0.911325 0.600000 0.987727
v 0.888889 0.600000 1.029914
v 0.863462 0.600000 1.069351
v 0.835043 0.600000 1.106036
v 0.803632 0.600000 1.139971
v 0.769231 0.600000 1.171154
v 0.732051 0.600000 1.199719
v 0.692308 0.600000 1.225801
v 0.650000 0.600000 1.249399
v 0.605128 0.600000 1.270513
v 0.557692 0.600000 1.289142
v 0.507692 0.600000 1.305288
v 0.455128 0.600000 1.318950
v 0.400000 0.600000 1.330128
v 0.342308 0.600000 1.338822
v 0.282051 0.600000 1.345032
v 0.219231 0.600000 1.348758
v -0.573077 0.600000 -0.142308
v 0.100000 0.600000 -0.142308
v 0.137754 0.600000 -0.143096
v 0.174092 0.600000 -0.145459
v 0.209014 0.600000 -0.149399
v 0.242521 0.600000 -0.154915
v 0.274613 0.600000 -0.162006
v 0.305288 0.600000 -0.170673
v 0.334549 0.600000 -0.180916
v 0.362393 0.600000 -0.192735
v 0.388822 0.600000 -0.206130
v 0.413835 0.600000 -0.221100
v 0.437433 0.600000 -0.237647
v 0.459615 0.600000 -0.255769
v 0.480195 0.600000 -0.275468
v 0.498985 0.600000 -0.296742
v 0.515986 0.600000 -0.319591
v 0.531197 0.600000 -0.344017
v 0.544618 0.600000 -0.370019
v 0.556250 0.600000 -0.397596
v 0.566092 0.600000 -0.426750
v 0.574145 0.600000 -0.457479
v 0.580409 0.600000 -0.489784
v 0.584883 0.600000 -0.523665
v 0.587567 0.600000 -0.559121
v 0.588462 0.600000 -0.596154
v 0.587567 0.600000 -0.633187
v 0.584883 0.600000 -0.668643
v 0.580409 0.600000 -0.702524
v 0.574145 0.600000 -0.734829
v 0.566092 0.600000 -0.765558
v 0.556250 0.600000 -0.794712
v 0.544618 0.600000 -0.822289
v 0.531197 0.600000 -0.848291
v 0.515986 0.600000 -0.872716
v 0.498985 0.600000 -0.895566
v 0.480195 0.600000 -0.916840
v 0.459615 0.600000 -0.936539
v 0.437433 0.600000 -0.954661
v 0.413836 0.600000 -0.971207
v 0.388822 0.600000 -0.986178
v 0.362393 0.600000 -0.999573
v 0.334549 0.600000 -1.011392
v 0.305288 0.600000 -1.021635
v 0.274613 0.600000 -1.030302
v 0.242521 0.600000 -1.037393
v 0.209014 0.600000 -1.042909
v 0.174092 0.600000 -1.046848
v 0.137754 0.600000 -1.049212
v 0.100000 0.600000 -1.050000
v -0.573077 0.600000 -1.050000
v -0.573077 0.600000 1.096154
v 0.203846 0.600000 1.096154
v 0.243456 0.600000 1.095286
v 0.281517 0.600000 1.092682
v 0.318029 0.600000 1.088341
v 0.352991 0.600000 1.082265
v 0.386405 0.600000 1.074452
v 0.418269 0.600000 1.064904
v 0.448584 0.600000 1.053619
v 0.477350 0.600000 1.040598
v 0.504567 0.600000 1.025841
v 0.530235 0.600000 1.009348
v 0.554354 0.600000 0.991119
v 0.576923 0.600000 0.971154
v 0.597810 0.600000 0.949506
v 0.616880 0.600000 0.926229
v 0.634135 0.600000 0.901322
v 0.649573 0.600000 0.874786
v 0.663195 0.600000 0.846621
v 0.675000 0.600000 0.816827
v 0.684989 0.600000 0.785403
v 0.693162 0.600000 0.752350
v 0.699519 0.600000 0.717668
v 0.704060 0.600000 0.681357
v 0.706784 0.600000 0.643416
v 0.707692 0.600000 0.603846
v 0.706771 0.600000 0.564276
v 0.704006 0.600000 0.526335
v 0.699399 0.600000 0.490024
v 0.692949 0.600000 0.455342
v 0.684656 0.600000 0.422289
v 0.674519 0.600000 0.390865
v 0.662540 0.600000 0.361071
v 0.648718 0.600000 0.332906
v 0.633053 0.600000 0.306370
v 0.615545 0.600000 0.281464
v 0.596194 0.600000 0.258186
v 0.575000 0.600000 0.236538
v 0.552150 0.600000 0.216573
v 0.527831 0.600000 0.198344
v 0.502043 0.600000 0.181851
v 0.474786 0.600000 0.167094
v 0.446060 0.600000 0.154073
v 0.415865 0.600000 0.142788
v 0.384201 0.600000 0.133240
v 0.351068 0.600000 0.125427
v 0.316466 0.600000 0.119351
v 0.280395 0.600000 0.115011
v 0.242855 0.600000 0.112406
v 0.203846 0.600000 0.111538
v -0.573077 0.600000 0.111538
v 0.153846 0.000000 1.350000
v -0.850000 0.000000 1.350000
v -0.850000 0.000000 -1.303846
v 0.184615 0.000000 -1.303846
v 0.235657 0.000000 -1.302564
v 0.284936 0.000000 -1.298718
v 0.332452 0.000000 -1.292308
v 0.378205 0.000000 -1.283333
v 0.422195 0.000000 -1.271795
v 0.464423 0.000000 -1.257692
v 0.504888 0.000000 -1.241026
v 0.543590 0.000000 -1.221795
v 0.580529 0.000000 -1.200000
v 0.615705 0.000000 -1.175641
v 0.649118 0.000000 -1.148718
v 0.680769 0.000000 -1.119231
v 0.710256 0.000000 -1.087634
v 0.737179 0.000000 -1.054380
v 0.761538 0.000000 -1.019471
v 0.783333 0.000000 -0.982906
v 0.802564 0.000000 -0.944685
v 0.819231 0.000000 -0.904808
v 0.833333 0.000000 -0.863275
v 0.844872 0.000000 -0.820085
v 0.853846 0.000000 -0.775240
v 0.860256 0.000000 -0.728739
v 0.864103 0.000000 -0.680582
v 0.865385 0.000000 -0.630769
v 0.864663 0.000000 -0.592895
v 0.862500 0.000000 -0.556197
v 0.858894 0.000000 -0.520673
v 0.853846 0.000000 -0.486325
v 0.847356 0.000000 -0.453152
v 0.839423 0.000000 -0.421154
v 0.830048 0.000000 -0.390331
v 0.819231 0.000000 -0.360684
v 0.806971 0.000000 -0.332212
v 0.793269 0.000000 -0.304915
v 0.778125 0.000000 -0.278793
v 0.761538 0.000000 -0.253846
v 0.743884 0.000000 -0.230021
v 0.725534 0.000000 -0.207265
v 0.706490 0.000000 -0.185577
v 0.686752 0.000000 -0.164957
v 0.666319 0.000000 -0.145406
v 0.645192 0.000000 -0.126923
v 0.623371 0.000000 -0.109509
v 0.600855 0.000000 -0.093163
v 0.577644 0.000000 -0.077885
v 0.553739 0.000000 -0.063675
v 0.529140 0.000000 -0.050534
v 0.503846 0.000000 -0.038462
v 0.580636 0.000000 -0.013942
v 0.650748 0.000000 0.016026
v 0.714183 0.000000 0.051442
v 0.770940 0.000000 0.092308
v 0.821020 0.000000 0.138622
v 0.864423 0.000000 0.190385
v 0.901149 0.000000 0.247596
v 0.931197 0.000000 0.310256
v 0.954567 0.000000 0.378365
v 0.971261 0.000000 0.451923
v 0.981277 0.000000 0.530929
v 0.984615 0.000000 0.615385
v 0.983120 0.000000 0.676830
v 0.978633 0.000000 0.735523
v 0.971154 0.000000 0.791466
v 0.960684 0.000000 0.844658
v 0.947222 0.000000 0.895099
v 0.930769 0.000000 0.942788
v 0.911325 0.000000 0.987727
v 0.888889 0.000000 1.029914
v 0.863462 0.000000 1.069351
v 0.835043 0.000000 1.106036
v 0.803632 0.000000 1.139971
v 0.769231 0.000000 1.171154
v 0.732051 0.000000 1.199719
v 0.692308 0.000000 1.225801
v 0.650000 0.000000 1.249399
v 0.605128 0.000000 1.270513
v 0.557692 0.000000 1.289142
v 0.507692 0.000000 1.305288
v 0.455128 0.000000 1.318950
v 0.400000 0.000000 1.330128
v 0.342308 0.000000 1.338822
v 0.282051 0.000000 1.345032
v 0.219231 0.000000 1.348758
v -0.573077 0.000000 -0.142308
v 0.100000 0.000000 -0.142308
v 0.137754 0.000000 -0.143096
v 0.174092 0.000000 -0.145459
v 0.209014 0.000000 -0.149399
v 0.242521 0.000000 -0.154915
v 0.274613 0.000000 -0.162006
v 0.305288 0.000000 -0.170673
v 0.334549 0.000000 -0.180916
v 0.362393 0.000000 -0.192735
v 0.388822 0.000000 -0.206130
v 0.413835 0.000000 -0.221100
v 0.437433 0.000000 -0.237647
v 0.459615 0.000000 -0.255769
v 0.480195 0.000000 -0.275468
v 0.498985 0.000000 -0.296742
v 0.515986 0.000000 -0.319591
v 0.531197 0.000000 -0.344017
v 0.544618 0.000000 -0.370019
v 0.556250 0.000000 -0.397596
v 0.566092 0.000000 -0.426750
v 0.574145 0.000000 -0.457479
v 0.580409 0.000000 -0.489784
v 0.584883 0.000000 -0.523665
v 0.587567 0.000000 -0.559121
v 0.588462 0.000000 -0.596154
v 0.587567 0.000000 -0.633187
v 0.584883 0.000000 -0.668643
v 0.580409 0.000000 -0.702524
v 0.574145 0.000000 -0.734829
v 0.566092 0.000000 -0.765558
v 0.556250 0.000000 -0.794712
v 0.544618 0.000000 -0.822289
v 0.531197 0.000000 -0.848291
v 0.515986 0.000000 -0.872716
v 0.498985 0.000000 -0.895566
v 0.480195 0.000000 -0.916840
v 0.459615 0.000000 -0.936539
v 0.437433 0.000000 -0.954661
v 0.413836 0.000000 -0.971207
v 0.388822 0.000000 -0.986178
v 0.362393 0.000000 -0.999573
v 0.334549 0.000000 -1.011392
v 0.305288 0.000000 -1.021635
v 0.274613 0.000000 -1.030302
v 0.242521 0.000000 -1.037393
v 0.209014 0.000000 -1.042909
v 0.174092 0.000000 -1.046848
v 0.137754 0.000000 -1.049212
v 0.100000 0.000000 -1.050000
v -0.573077 0.000000 -1.050000
v -0.573077 0.000000 1.096154
v 0.203846 0.000000 1.096154
v 0.243456 0.000000 1.095286
v 0.281517 0.000000 1.092682
v 0.318029 0.000000 1.088341
v 0.352991 0.000000 1.082265
v 0.386405 0.000000 1.074452
v 0.418269 0.000000 1.064904
v 0.448584 0.000000 1.053619
v 0.477350 0.000000 1.040598
v 0.504567 0.000000 1.025841
v 0.530235 0.000000 1.009348
v 0.554354 0.000000 0.991119
v 0.576923 0.000000 0.971154
v 0.597810 0.000000 0.949506
v 0.616880 0.000000 0.926229
v 0.634135 0.000000 0.901322
v 0.649573 0.000000 0.874786
v 0.663195 0.000000 0.846621
v 0.675000 0.000000 0.816827
v 0.684989 0.000000 0.785403
v 0.693162 0.000000 0.752350
v 0.699519 0.000000 0.717668
v 0.704060 0.000000 0.681357
v 0.706784 0.000000 0.643416
v 0.707692 0.000000 0.603846
v 0.706771 0.000000 0.564276
v 0.704006 0.000000 0.526335
v 0.699399 0.000000 0.490024
v 0.692949 0.000000 0.455342
v 0.684656 0.000000 0.422289
v 0.674519 0.000000 0.390865
v 0.662540 0.000000 0.361071
v 0.648718 0.000000 0.332906
v 0.633053 0.000000 0.306370
v 0.615545 0.000000 0.281464
v 0.596194 0.000000 0.258186
v 0.575000 0.000000 0.236538
v 0.552150 0.000000 0.216573
v 0.527831 0.000000 0.198344
v 0.502043 0.000000 0.181851
v 0.474786 0.000000 0.167094
v 0.446060 0.000000 0.154073
v 0.415865 0.000000 0.142788
v 0.384201 0.000000 0.133240
v 0.351068 0.000000 0.125427
v 0.316466 0.000000 0.119351
v 0.280395 0.000000 0.115011
v 0.242855 0.000000 0.112406
v 0.203846 0.000000 0.111538
v -0.573077 0.000000 0.111538
v 0.153846 0.000000 1.350000
v 0.153846 0.600000 1.350000
v -0.850000 0.000000 1.350000
v -0.850000 0.600000 1.350000
v -0.850000 0.000000 -1.303846
v -0.850000 0.600000 -1.303846
v 0.184615 0.000000 -1.303846
v 0.184615 0.600000 -1.303846
v 0.235657 0.000000 -1.302564
v 0.235657 0.600000 -1.302564
v 0.284936 0.000000 -1.298718
v 0.284936 0.600000 -1.298718
v 0.332452 0.000000 -1.292308
v 0.332452 0.600000 -1.292308
v 0.378205 0.000000 -1.283333
v 0.378205 0.600000 -1.283333
v 0.422195 0.000000 -1.271795
v 0.422195 0.600000 -1.271795
v 0.464423 0.000000 -1.257692
v 0.464423 0.600000 -1.257692
v 0.504888 0.000000 -1.241026
v 0.504888 0.600000 -1.241026
v 0.543590 0.000000 -1.221795
v 0.543590 0.600000 -1.221795
v 0.580529 0.000000 -1.200000
v 0.580529 0.600000 -1.200000
v 0.615705 0.000000 -1.175641
v 0.615705 0.600000 -1.175641
v 0.649118 0.000000 -1.148718
v 0.649118 0.600000 -1.148718
v 0.680769 0.000000 -1.119231
v 0.680769 0.600000 -1.119231
v 0.710256 0.000000 -1.087634
v 0.710256 0.600000 -1.087634
v 0.737179 0.000000 -1.054380
v 0.737179 0.600000 -1.054380
v 0.761538 0.000000 -1.019471
v 0.761538 0.600000 -1.019471
v 0.783333 0.000000 -0.982906
v 0.783333 0.600000 -0.982906
v 0.802564 0.000000 -0.944685
v 0.802564 0.600000 -0.944685
v 0.819231 0.000000 -0.904808
v 0.819231 0.600000 -0.904808
v 0.833333 0.000000 -0.863275
v 0.833333 0.600000 -0.863275
v 0.844872 0.000000 -0.820085
v 0.844872 0.600000 -0.820085
v 0.853846 0.000000 -0.775240
v 0.853846 0.600000 -0.775240
v 0.860256 0.000000 -0.728739
v 0.860256 0.600000 -0.728739
v 0.864103 0.000000 -0.680582
v 0.864103 0.600000 -0.680582
v 0.865385 0.000000 -0.630769
v 0.865385 0.600000 -0.630769
v 0.864663 0.000000 -0.592895
v 0.864663 0.600000 -0.592895
v 0.862500 0.000000 -0.556197
v 0.862500 0.600000 -0.556197
v 0.858894 0.000000 -0.520673
v 0.858894 0.600000 -0.520673
v 0.853846 0.000000 -0.486325
v 0.853846 0.600000 -0.486325
v 0.847356 0.000000 -0.453152
v 0.847356 0.600000 -0.453152
v 0.839423 0.000000 -0.421154
v 0.839423 0.600000 -0.421154
v 0.830048 0.000000 -0.390331
v 0.830048 0.600000 -0.390331
v 0.819231 0.000000 -0.360684
v 0.819231 0.600000 -0.360684
v 0.806971 0.000000 -0.332212
v 0.806971 0.600000 -0.332212
v 0.793269 0.000000 -0.304915
v 0.793269 0.600000 -0.304915
v 0.778125 0.000000 -0.278793
v 0.778125 0.600000 -0.278793
v 0.761538 0.000000 -0.253846
v 0.761538 0.600000 -0.253846
v 0.743884 0.000000 -0.230021
v 0.743884 0.600000 -0.230021
v 0.725534 0.000000 -0.207265
v 0.725534 0.600000 -0.207265
v 0.706490 0.000000 -0.185577
v 0.706490 0.600000 -0.185577
v 0.686752 0.000000 -0.164957
v 0.686752 0.600000 -0.164957
v 0.666319 0.000000 -0.145406
v 0.666319 0.600000 -0.145406
v 0.645192 0.000000 -0.126923
v 0.645192 0.600000 -0.126923
v 0.623371 0.000000 -0.109509
v 0.623371 0.600000 -0.109509
v 0.600855 0.000000 -0.093163
v 0.600855 0.600000 -0.093163
v 0.577644 0.000000 -0.077885
v 0.577644 0.600000 -0.077885
v 0.553739 0.000000 -0.063675
v 0.553739 0.600000 -0.063675
v 0.529140 0.000000 -0.050534
v 0.529140 0.600000 -0.050534
v 0.503846 0.000000 -0.038462
v 0.503846 0.600000 -0.038462
v 0.580636 0.000000 -0.013942
v 0.580636 0.600000 -0.013942
v 0.650748 0.000000 0.016026
v 0.650748 0.600000 0.016026
v 0.714183 0.000000 0.051442
v 0.714183 0.600000 0.051442
v 0.770940 0.000000 0.092308
v 0.770940 0.600000 0.092308
v 0.821020 0.000000 0.138622
v 0.821020 0.600000 0.138622
v 0.864423 0.000000 0.190385
v 0.864423 0.600000 0.190385
v 0.901149 0.000000 0.247596
v 0.901149 0.600000 0.247596
v 0.931197 0.000000 0.310256
v 0.931197 0.600000 0.310256
v 0.954567 0.000000 0.378365
v 0.954567 0.600000 0.378365
v 0.971261 0.000000 0.451923
v 0.971261 0.600000 0.451923
v 0.981277 0.000000 0.530929
v 0.981277 0.600000 0.530929
v 0.984615 0.000000 0.615385
v 0.984615 0.600000 0.615385
v 0.983120 0.000000 0.676830
v 0.983120 0.600000 0.676830
v 0.978633 0.000000 0.735523
v 0.978633 0.600000 0.735523
v 0.971154 0.000000 0.791466
v 0.971154 0.600000 0.791466
v 0.960684 0.000000 0.844658
v 0.960684 0.600000 0.844658
v 0.947222 0.000000 0.895099
v 0.947222 0.600000 0.895099
v 0.930769 0.000000 0.942788
v 0.930769 0.600000 0.942788
v 0.911325 0.000000 0.987727
v 0.911325 0.600000 0.987727
v 0.888889 0.000000 1.029914
v 0.888889 0.600000 1.029914
v 0.863462 0.000000 1.069351
v 0.863462 0.600000 1.069351
v 0.835043 0.000000 1.106036
v 0.835043 0.600000 1.106036
v 0.803632 0.000000 1.139971
v 0.803632 0.600000 1.139971
v 0.769231 0.000000 1.171154
v 0.769231 0.600000 1.171154
v 0.732051 0.000000 1.199719
v 0.732051 0.600000 1.199719
v 0.692308 0.000000 1.225801
v 0.692308 0.600000 1.225801
v 0.650000 0.000000 1.249399
v 0.650000 0.600000 1.249399
v 0.605128 0.000000 1.270513
v 0.605128 0.600000 1.270513
v 0.557692 0.000000 1.289142
v 0.557692 0.600000 1.289142
v 0.507692 0.000000 1.305288
v 0.507692 0.600000 1.305288
v 0.455128 0.000000 1.318950
v 0.455128 0.600000 1.318950
v 0.400000 0.000000 1.330128
v 0.400000 0.600000 1.330128
v 0.342308 0.000000 1.338822
v 0.342308 0.600000 1.338822
v 0.282051 0.000000 1.345032
v 0.282051 0.600000 1.345032
v 0.219231 0.000000 1.348758
v 0.219231 0.600000 1.348758
v -0.573077 0.000000 -0.142308
v -0.573077 0.600000 -0.142308
v 0.100000 0.000000 -0.142308
v 0.100000 0.600000 -0.142308
v 0.137754 0.000000 -0.143096
v 0.137754 0.600000 -0.143096
v 0.174092 0.000000 -0.145459
v 0.174092 0.600000 -0.145459
v 0.209014 0.000000 -0.149399
v 0.209014 0.600000 -0.149399
v 0.242521 0.000000 -0.154915
v 0.242521 0.600000 -0.154915
v 0.274613 0.000000 -0.162006
v 0.274613 0.600000 -0.162006
v 0.305288 0.000000 -0.170673
v 0.305288 0.600000 -0.170673
v 0.334549 0.000000 -0.180916
v 0.334549 0.600000 -0.180916
v 0.362393 0.000000 -0.192735
v 0.362393 0.600000 -0.192735
v 0.388822 0.000000 -0.206130
v 0.388822 0.600000 -0.206130
v 0.413835 0.000000 -0.221100
v 0.413835 0.600000 -0.221100
v 0.437433 0.000000 -0.237647
v 0.437433 0.600000 -0.237647
v 0.459615 0.000000 -0.255769
v 0.459615 0.600000 -0.255769
v 0.480195 0.000000 -0.275468
v 0.480195 0.600000 -0.275468
v 0.498985 0.000000 -0.296742
v 0.498985 0.600000 -0.296742
v 0.515986 0.000000 -0.319591
v 0.515986 0.600000 -0.319591
v 0.531197 0.000000 -0.344017
v 0.531197 0.600000 -0.344017
v 0.544618 0.000000 -0.370019
v 0.544618 0.600000 -0.370019
v 0.556250 0.000000 -0.397596
v 0.556250 0.600000 -0.397596
v 0.566092 0.000000 -0.426750
v 0.566092 0.600000 -0.426750
v 0.574145 0.000000 -0.457479
v 0.574145 0.600000 -0.457479
v 0.580409 0.000000 -0.489784
v 0.580409 0.600000 -0.489784
v 0.584883 0.000000 -0.523665
v 0.584883 0.600000 -0.523665
v 0.587567 0.000000 -0.559121
v 0.587567 0.600000 -0.559121
v 0.588462 0.000000 -0.596154
v 0.588462 0.600000 -0.596154
v 0.587567 0.000000 -0.633187
v 0.587567 0.600000 -0.633187
v 0.584883 0.000000 -0.668643
v 0.584883 0.600000 -0.668643
v 0.580409 0.000000 -0.702524
v 0.580409 0.600000 -0.702524
v 0.574145 0.000000 -0.734829
v 0.574145 0.600000 -0.734829
v 0.566092 0.000000 -0.765558
v 0.566092 0.600000 -0.765558
v 0.556250 0.000000 -0.794712
v 0.556250 0.600000 -0.794712
v 0.544618 0.000000 -0.822289
v 0.544618 0.600000 -0.822289
v 0.531197 0.000000 -0.848291
v 0.531197 0.600000 -0.848291
v 0.515986 0.000000 -0.872716
v 0.515986 0.600000 -0.872716
v 0.498985 0.000000 -0.895566
v 0.498985 0.600000 -0.895566
v 0.480195 0.000000 -0.916840
v 0.480195 0.600000 -0.916840
v 0.459615 0.000000 -0.936539
v 0.459615 0.600000 -0.936539
v 0.437433 0.000000 -0.954661
v 0.437433 0.600000 -0.954661
v 0.413836 0.000000 -0.971207
v 0.413836 0.600000 -0.971207
v 0.388822 0.000000 -0.986178
v 0.388822 0.600000 -0.986178
v 0.362393 0.000000 -0.999573
v 0.362393 0.600000 -0.999573
v 0.334549 0.000000 -1.011392
v 0.334549 0.600000 -1.011392
v 0.305288 0.000000 -1.021635
v 0.305288 0.600000 -1.021635
v 0.274613 0.000000 -1.030302
v 0.274613 0.600000 -1.030302
v 0.242521 0.000000 -1.037393
v 0.242521 0.600000 -1.037393
v 0.209014 0.000000 -1.042909
v 0.209014 0.600000 -1.042909
v 0.174092 0.000000 -1.046848
v 0.174092 0.600000 -1.046848
v 0.137754 0.000000 -1.049212
v 0.137754 0.600000 -1.049212
v 0.100000 0.000000 -1.050000
v 0.100000 0.600000 -1.050000
v -0.573077 0.000000 -1.050000
v -0.573077 0.600000 -1.050000
v -0.573077 0.000000 1.096154
v -0.573077 0.600000 1.096154
v 0.203846 0.000000 1.096154
v 0.203846 0.600000 1.096154
v 0.243456 0.000000 1.095286
v 0.243456 0.600000 1.095286
v 0.281517 0.000000 1.092682
v 0.281517 0.600000 1.092682
v 0.318029 0.000000 1.088341
v 0.318029 0.600000 1.088341
v 0.352991 0.000000 1.082265
v 0.352991 0.600000 1.082265
v 0.386405 0.000000 1.074452
v 0.386405 0.600000 1.074452
v 0.418269 0.000000 1.064904
v 0.418269 0.600000 1.064904
v 0.448584 0.000000 1.053619
v 0.448584 0.600000 1.053619
v 0.477350 0.000000 1.040598
v 0.477350 0.600000 1.040598
v 0.504567 0.000000 1.025841
v 0.504567 0.600000 1.025841
v 0.530235 0.000000 1.009348
v 0.530235 0.600000 1.009348
v 0.554354 0.000000 0.991119
v 0.554354 0.600000 0.991119
v 0.576923 0.000000 0.971154
v 0.576923 0.600000 0.971154
v 0.597810 0.000000 0.949506
v 0.597810 0.600000 0.949506
v 0.616880 0.000000 0.926229
v 0.616880 0.600000 0.926229
v 0.634135 0.000000 0.901322
v 0.634135 0.600000 0.901322
v 0.649573 0.000000 0.874786
v 0.649573 0.600000 0.874786
v 0.663195 0.000000 0.846621
v 0.663195 0.600000 0.846621
v 0.675000 0.000000 0.816827
v 0.675000 0.600000 0.816827
v 0.684989 0.000000 0.785403
v 0.684989 0.600000 0.785403
v 0.693162 0.000000 0.752350
v 0.693162 0.600000 0.752350
v 0.699519 0.000000 0.717668
v 0.699519 0.600000 0.717668
v 0.704060 0.000000 0.681357
v 0.704060 0.600000 0.681357
v 0.706784 0.000000 0.643416
v 0.706784 0.600000 0.643416
v 0.707692 0.000000 0.603846
v 0.707692 0.600000 0.603846
v 0.706771 0.000000 0.564276
v 0.706771 0.600000 0.564276
v 0.704006 0.000000 0.526335
v 0.704006 0.600000 0.526335
v 0.699399 0.000000 0.490024
v 0.699399 0.600000 0.490024
v 0.692949 0.000000 0.455342
v 0.692949 0.600000 0.455342
v 0.684656 0.000000 0.422289
v 0.684656 0.600000 0.422289
v 0.674519 0.000000 0.390865
v 0.674519 0.600000 0.390865
v 0.662540 0.000000 0.361071
v 0.662540 0.600000 0.361071
v 0.648718 0.000000 0.332906
v 0.648718 0.600000 0.332906
v 0.633053 0.000000 0.306370
v 0.633053 0.600000 0.306370
v 0.615545 0.000000 0.281464
v 0.615545 0.600000 0.281464
v 0.596194 0.000000 0.258186
v 0.596194 0.600000 0.258186
v 0.575000 0.000000 0.236538
v 0.575000 0.600000 0.236538
v 0.552150 0.000000 0.216573
v 0.552150 0.600000 0.216573
v 0.527831 0.000000 0.198344
v 0.527831 0.600000 0.198344
v 0.502043 0.000000 0.181851
v 0.502043 0.600000 0.181851
v 0.474786 0.000000 0.167094
v 0.474786 0.600000 0.167094
v 0.446060 0.000000 0.154073
v 0.446060 0.600000 0.154073
v 0.415865 0.000000 0.142788
v 0.415865 0.600000 0.142788
v 0.384201 0.000000 0.133240
v 0.384201 0.600000 0.133240
v 0.351068 0.000000 0.125427
v 0.351068 0.600000 0.125427
v 0.316466 0.000000 0.119351
v 0.316466 0.600000 0.119351
v 0.280395 0.000000 0.115011
v 0.280395 0.600000 0.115011
v 0.242855 0.000000 0.112406
v 0.242855 0.600000 0.112406
v 0.203846 0.000000 0.111538
v 0.203846 0.600000 0.111538
v -0.573077 0.000000 0.111538
v -0.573077 0.600000 0.111538
vn -0.0000 1.0000 -0.0000
vn -0.0000 -1.0000 -0.0000
vn 0.0095 -0.0000 1.0000
vn -0.7071 -0.0000 0.7071
vn -0.7071 -0.0000 -0.7071
vn 0.0126 -0.0000 -0.9999
vn 0.0515 -0.0000 -0.9987
vn 0.1058 -0.0000 -0.9944
vn 0.1632 -0.0000 -0.9866
vn 0.2232 -0.0000 -0.9748
vn 0.2854 -0.0000 -0.9584
vn 0.3490 -0.0000 -0.9371
vn 0.4132 -0.0000 -0.9107
vn 0.4769 -0.0000 -0.8790
vn 0.5391 -0.0000 -0.8422
vn 0.5988 -0.0000 -0.8009
vn 0.6550 -0.0000 -0.7557
vn 0.7068 -0.0000 -0.7074
vn 0.7546 -0.0000 -0.6562
vn 0.7992 -0.0000 -0.6011
vn 0.8401 -0.0000 -0.5425
vn 0.8767 -0.0000 -0.4810
vn 0.9085 -0.0000 -0.4178
vn 0.9353 -0.0000 -0.3538
vn 0.9570 -0.0000 -0.2900
vn 0.9738 -0.0000 -0.2273
vn 0.9860 -0.0000 -0.1665
vn 0.9941 -0.0000 -0.1081
vn 0.9986 -0.0000 -0.0527
vn 1.0000 -0.0000 -0.0033
vn 0.9992 -0.0000 0.0390
vn 0.9968 -0.0000 0.0799
vn 0.9924 -0.0000 0.1232
vn 0.9857 -0.0000 0.1688
vn 0.9763 -0.0000 0.2164
vn 0.9640 -0.0000 0.2659
vn 0.9484 -0.0000 0.3170
vn 0.9293 -0.0000 0.3693
vn 0.9065 -0.0000 0.4222
vn 0.8798 -0.0000 0.4753
vn 0.8493 -0.0000 0.5279
vn 0.8184 -0.0000 0.5747
vn 0.7911 -0.0000 0.6117
vn 0.7651 -0.0000 0.6439
vn 0.7371 -0.0000 0.6758
vn 0.7070 -0.0000 0.7072
vn 0.6751 -0.0000 0.7378
vn 0.6413 -0.0000 0.7673
vn 0.6058 -0.0000 0.7956
vn 0.5688 -0.0000 0.8225
vn 0.5305 -0.0000 0.8477
vn 0.4912 -0.0000 0.8710
vn 0.4511 -0.0000 0.8925
vn 0.9977 -0.0000 -0.0681
vn 0.4409 -0.0000 -0.8976
vn 0.5368 -0.0000 -0.8437
vn 0.6328 -0.0000 -0.7743
vn 0.7241 -0.0000 -0.6897
vn 0.8055 -0.0000 -0.5926
vn 0.8733 -0.0000 -0.4872
vn 0.9253 -0.0000 -0.3791
vn 0.9619 -0.0000 -0.2733
vn 0.9848 -0.0000 -0.1737
vn 0.9966 -0.0000 -0.0827
vn 1.0000 -0.0000 -0.0076
vn 0.9987 -0.0000 0.0503
vn 0.9945 -0.0000 0.1044
vn 0.9866 -0.0000 0.1629
vn 0.9742 -0.0000 0.2256
vn 0.9564 -0.0000 0.2922
vn 0.9322 -0.0000 0.3619
vn 0.9011 -0.0000 0.4337
vn 0.8624 -0.0000 0.5062
vn 0.8163 -0.0000 0.5777
vn 0.7629 -0.0000 0.6465
vn 0.7034 -0.0000 0.7108
vn 0.6410 -0.0000 0.7676
vn 0.5794 -0.0000 0.8151
vn 0.5182 -0.0000 0.8552
vn 0.4567 -0.0000 0.8896
vn 0.3959 -0.0000 0.9183
vn 0.3366 -0.0000 0.9417
vn 0.2795 -0.0000 0.9601
vn 0.2252 -0.0000 0.9743
vn 0.1739 -0.0000 0.9848
vn 0.1258 -0.0000 0.9921
vn 0.0809 -0.0000 0.9967
vn 0.0391 -0.0000 0.9992
vn 0.7071 -0.0000 -0.7071
vn -0.0104 -0.0000 -0.9999
vn -0.0429 -0.0000 -0.9991
vn -0.0885 -0.0000 -0.9961
vn -0.1373 -0.0000 -0.9905
vn -0.1892 -0.0000 -0.9819
vn -0.2439 -0.0000 -0.9698
vn -0.3013 -0.0000 -0.9535
vn -0.3608 -0.0000 -0.9327
vn -0.4216 -0.0000 -0.9068
vn -0.4831 -0.0000 -0.8756
vn -0.5442 -0.0000 -0.8390
vn -0.6038 -0.0000 -0.7971
vn -0.6626 -0.0000 -0.7490
vn -0.7211 -0.0000 -0.6928
vn -0.7766 -0.0000 -0.6300
vn -0.8263 -0.0000 -0.5633
vn -0.8694 -0.0000 -0.4940
vn -0.9057 -0.0000 -0.4240
vn -0.9351 -0.0000 -0.3545
vn -0.9580 -0.0000 -0.2869
vn -0.9750 -0.0000 -0.2220
vn -0.9870 -0.0000 -0.1607
vn -0.9947 -0.0000 -0.1032
vn -0.9988 -0.0000 -0.0498
vn -1.0000 -0.0000 -0.0000
vn -0.9988 -0.0000 0.0498
vn -0.9947 -0.0000 0.1032
vn -0.9870 -0.0000 0.1607
vn -0.9750 -0.0000 0.2220
vn -0.9580 -0.0000 0.2869
vn -0.9351 -0.0000 0.3545
vn -0.9057 -0.0000 0.4240
vn -0.8694 -0.0000 0.4940
vn -0.8263 -0.0000 0.5633
vn -0.7766 -0.0000 0.6300
vn -0.7211 -0.0000 0.6928
vn -0.6626 -0.0000 0.7490
vn -0.6038 -0.0000 0.7971
vn -0.5442 -0.0000 0.8390
vn -0.4831 -0.0000 0.8756
vn -0.4216 -0.0000 0.9068
vn -0.3608 -0.0000 0.9327
vn -0.3013 -0.0000 0.9535
vn -0.2439 -0.0000 0.9698
vn -0.1892 -0.0000 0.9819
vn -0.1373 -0.0000 0.9905
vn -0.0885 -0.0000 0.9961
vn -0.0429 -0.0000 0.9991
vn -0.0104 -0.0000 0.9999
vn 0.7071 -0.0000 0.7071
vn -0.0110 -0.0000 -0.9999
vn -0.0451 -0.0000 -0.9990
vn -0.0932 -0.0000 -0.9956
vn -0.1447 -0.0000 -0.9895
vn -0.1995 -0.0000 -0.9799
vn -0.2575 -0.0000 -0.9663
vn -0.3181 -0.0000 -0.9480
vn -0.3808 -0.0000 -0.9246
vn -0.4448 -0.0000 -0.8956
vn -0.5090 -0.0000 -0.8608
vn -0.5722 -0.0000 -0.8201
vn -0.6332 -0.0000 -0.7740
vn -0.6916 -0.0000 -0.7222
vn -0.7472 -0.0000 -0.6646
vn -0.7984 -0.0000 -0.6021
vn -0.8438 -0.0000 -0.5366
vn -0.8829 -0.0000 -0.4695
vn -0.9156 -0.0000 -0.4022
vn -0.9419 -0.0000 -0.3359
vn -0.9624 -0.0000 -0.2716
vn -0.9776 -0.0000 -0.2103
vn -0.9883 -0.0000 -0.1522
vn -0.9952 -0.0000 -0.0979
vn -0.9989 -0.0000 -0.0473
vn -1.0000 -0.0000 0.0002
vn -0.9988 -0.0000 0.0480
vn -0.9951 -0.0000 0.0993
vn -0.9880 -0.0000 0.1544
vn -0.9770 -0.0000 0.2132
vn -0.9614 -0.0000 0.2753
vn -0.9403 -0.0000 0.3402
vn -0.9134 -0.0000 0.4071
vn -0.8801 -0.0000 0.4748
vn -0.8403 -0.0000 0.5422
vn -0.7942 -0.0000 0.6077
vn -0.7424 -0.0000 0.6700
vn -0.6868 -0.0000 0.7269
vn -0.6293 -0.0000 0.7771
vn -0.5697 -0.0000 0.8219
vn -0.5078 -0.0000 0.8615
vn -0.4448 -0.0000 0.8957
vn -0.3817 -0.0000 0.9243
vn -0.3196 -0.0000 0.9476
vn -0.2592 -0.0000 0.9658
vn -0.2013 -0.0000 0.9795
vn -0.1463 -0.0000 0.9892
vn -0.0944 -0.0000 0.9955
vn -0.0457 -0.0000 0.9990
vn -0.0111 -0.0000 0.9999
vt 0.005319 0.000000
vt 0.728723 0.000000
vt 0.010638 0.000000
vt 0.015957 0.000000
vt 0.021277 0.000000
vt 0.026596 0.000000
vt 0.031915 0.000000
vt 0.037234 0.000000
vt 0.042553 0.000000
vt 0.047872 0.000000
vt 0.053191 0.000000
vt 0.058511 0.000000
vt 0.063830 0.000000
vt 0.069149 0.000000
vt 0.074468 0.000000
vt 0.079787 0.000000
vt 0.085106 0.000000
vt 0.090426 0.000000
vt 0.723404 0.000000
vt 0.718085 0.000000
vt 0.095745 0.000000
vt 0.462766 0.000000
vt 0.712766 0.000000
vt 0.707447 0.000000
vt 0.702128 0.000000
vt 0.696809 0.000000
vt 0.691489 0.000000
vt 0.686170 0.000000
vt 0.101064 0.000000
vt 0.680851 0.000000
vt 0.675532 0.000000
vt 0.670213 0.000000
vt 0.106383 0.000000
vt 0.664894 0.000000
vt 0.659574 0.000000
vt 0.111702 0.000000
vt 0.654255 0.000000
vt 0.648936 0.000000
vt 0.117021 0.000000
vt 0.643617 0.000000
vt 0.638298 0.000000
vt 0.122340 0.000000
vt 0.632979 0.000000
vt 0.627660 0.000000
vt 0.127660 0.000000
vt 0.622340 0.000000
vt 0.132979 0.000000
vt 0.617021 0.000000
vt 0.611702 0.000000
vt 0.138298 0.000000
vt 0.606383 0.000000
vt 0.143617 0.000000
vt 0.601064 0.000000
vt 0.595745 0.000000
vt 0.148936 0.000000
vt 0.590426 0.000000
vt 0.154255 0.000000
vt 0.585106 0.000000
vt 0.159574 0.000000
vt 0.579787 0.000000
vt 0.164894 0.000000
vt 0.574468 0.000000
vt 0.170213 0.000000
vt 0.569149 0.000000
vt 0.175532 0.000000
vt 0.563830 0.000000
vt 0.180851 0.000000
vt 0.558511 0.000000
vt 0.186170 0.000000
vt 0.553191 0.000000
vt 0.191489 0.000000
vt 0.547872 0.000000
vt 0.196809 0.000000
vt 0.542553 0.000000
vt 0.202128 0.000000
vt 0.537234 0.000000
vt 0.207447 0.000000
vt 0.531915 0.000000
vt 0.526596 0.000000
vt 0.212766 0.000000
vt 0.521277 0.000000
vt 0.218085 0.000000
vt 0.515957 0.000000
vt 0.223404 0.000000
vt 0.510638 0.000000
vt 0.505319 0.000000
vt 0.228723 0.000000
vt 0.500000 0.000000
vt 0.494681 0.000000
vt 0.234043 0.000000
vt 0.489362 0.000000
vt 0.484043 0.000000
vt 0.478723 0.000000
vt 0.473404 0.000000
vt 0.239362 0.000000
vt 0.468085 0.000000
vt 1.000000 0.000000
vt 0.244681 0.000000
vt 0.250000 0.000000
vt 0.255319 0.000000
vt 0.260638 0.000000
vt 0.265957 0.000000
vt 0.271277 0.000000
vt 0.276596 0.000000
vt 0.281915 0.000000
vt 0.287234 0.000000
vt 0.292553 0.000000
vt 0.994681 0.000000
vt 0.989362 0.000000
vt 0.297872 0.000000
vt 0.734043 0.000000
vt 0.984043 0.000000
vt 0.978723 0.000000
vt 0.973404 0.000000
vt 0.968085 0.000000
vt 0.962766 0.000000
vt 0.303191 0.000000
vt 0.957447 0.000000
vt 0.952128 0.000000
vt 0.946809 0.000000
vt 0.941489 0.000000
vt 0.308511 0.000000
vt 0.936170 0.000000
vt 0.930851 0.000000
vt 0.925532 0.000000
vt 0.313830 0.000000
vt 0.920213 0.000000
vt 0.914894 0.000000
vt 0.909574 0.000000
vt 0.319149 0.000000
vt 0.904255 0.000000
vt 0.898936 0.000000
vt 0.324468 0.000000
vt 0.893617 0.000000
vt 0.888298 0.000000
vt 0.329787 0.000000
vt 0.882979 0.000000
vt 0.877660 0.000000
vt 0.872340 0.000000
vt 0.335106 0.000000
vt 0.867021 0.000000
vt 0.861702 0.000000
vt 0.340426 0.000000
vt 0.856383 0.000000
vt 0.345745 0.000000
vt 0.851064 0.000000
vt 0.845745 0.000000
vt 0.351064 0.000000
vt 0.840426 0.000000
vt 0.835106 0.000000
vt 0.356383 0.000000
vt 0.829787 0.000000
vt 0.361702 0.000000
vt 0.824468 0.000000
vt 0.819149 0.000000
vt 0.367021 0.000000
vt 0.813830 0.000000
vt 0.808511 0.000000
vt 0.372340 0.000000
vt 0.803191 0.000000
vt 0.797872 0.000000
vt 0.377660 0.000000
vt 0.792553 0.000000
vt 0.787234 0.000000
vt 0.781915 0.000000
vt 0.382979 0.000000
vt 0.776596 0.000000
vt 0.771277 0.000000
vt 0.765957 0.000000
vt 0.388298 0.000000
vt 0.760638 0.000000
vt 0.755319 0.000000
vt 0.750000 0.000000
vt 0.744681 0.000000
vt 0.739362 0.000000
vt 0.393617 0.000000
vt 0.398936 0.000000
vt 0.404255 0.000000
vt 0.409574 0.000000
vt 0.414894 0.000000
vt 0.420213 0.000000
vt 0.425532 0.000000
vt 0.430851 0.000000
vt 0.436170 0.000000
vt 0.441489 0.000000
vt 0.446809 0.000000
vt 0.452128 0.000000
vt 0.457447 0.000000
vt 0.000000 0.000000
vt 0.000000 1.000000
vt 0.011494 1.000000
vt 0.011494 0.000000
vt 0.022989 1.000000
vt 0.022989 0.000000
vt 0.034483 1.000000
vt 0.034483 0.000000
vt 0.045977 1.000000
vt 0.045977 0.000000
vt 0.057471 1.000000
vt 0.057471 0.000000
vt 0.068966 1.000000
vt 0.068966 0.000000
vt 0.080460 1.000000
vt 0.080460 0.000000
vt 0.091954 1.000000
vt 0.091954 0.000000
vt 0.103448 1.000000
vt 0.103448 0.000000
vt 0.114943 1.000000
vt 0.114943 0.000000
vt 0.126437 1.000000
vt 0.126437 0.000000
vt 0.137931 1.000000
vt 0.137931 0.000000
vt 0.149425 1.000000
vt 0.149425 0.000000
vt 0.160920 1.000000
vt 0.160920 0.000000
vt 0.172414 1.000000
vt 0.172414 0.000000
vt 0.183908 1.000000
vt 0.183908 0.000000
vt 0.195402 1.000000
vt 0.195402 0.000000
vt 0.206897 1.000000
vt 0.206897 0.000000
vt 0.218391 1.000000
vt 0.218391 0.000000
vt 0.229885 1.000000
vt 0.229885 0.000000
vt 0.241379 1.000000
vt 0.241379 0.000000
vt 0.252874 1.000000
vt 0.252874 0.000000
vt 0.264368 1.000000
vt 0.264368 0.000000
vt 0.275862 1.000000
vt 0.275862 0.000000
vt 0.287356 1.000000
vt 0.287356 0.000000
vt 0.298851 1.000000
vt 0.298851 0.000000
vt 0.310345 1.000000
vt 0.310345 0.000000
vt 0.321839 1.000000
vt 0.321839 0.000000
vt 0.333333 1.000000
vt 0.333333 0.000000
vt 0.344828 1.000000
vt 0.344828 0.000000
vt 0.356322 1.000000
vt 0.356322 0.000000
vt 0.367816 1.000000
vt 0.367816 0.000000
vt 0.379310 1.000000
vt 0.379310 0.000000
vt 0.390805 1.000000
vt 0.390805 0.000000
vt 0.402299 1.000000
vt 0.402299 0.000000
vt 0.413793 1.000000
vt 0.413793 0.000000
vt 0.425287 1.000000
vt 0.425287 0.000000
vt 0.436782 1.000000
vt 0.436782 0.000000
vt 0.448276 1.000000
vt 0.448276 0.000000
vt 0.459770 1.000000
vt 0.459770 0.000000
vt 0.471264 1.000000
vt 0.471264 0.000000
vt 0.482759 1.000000
vt 0.482759 0.000000
vt 0.494253 1.000000
vt 0.494253 0.000000
vt 0.505747 1.000000
vt 0.505747 0.000000
vt 0.517241 1.000000
vt 0.517241 0.000000
vt 0.528736 1.000000
vt 0.528736 0.000000
vt 0.540230 1.000000
vt 0.540230 0.000000
vt 0.551724 1.000000
vt 0.551724 0.000000
vt 0.563218 1.000000
vt 0.563218 0.000000
vt 0.574713 1.000000
vt 0.574713 0.000000
vt 0.586207 1.000000
vt 0.586207 0.000000
vt 0.597701 1.000000
vt 0.597701 0.000000
vt 0.609195 1.000000
vt 0.609195 0.000000
vt 0.620690 1.000000
vt 0.620690 0.000000
vt 0.632184 1.000000
vt 0.632184 0.000000
vt 0.643678 1.000000
vt 0.643678 0.000000
vt 0.655172 1.000000
vt 0.655172 0.000000
vt 0.666667 1.000000
vt 0.666667 0.000000
vt 0.678161 1.000000
vt 0.678161 0.000000
vt 0.689655 1.000000
vt 0.689655 0.000000
vt 0.701149 1.000000
vt 0.701149 0.000000
vt 0.712644 1.000000
vt 0.712644 0.000000
vt 0.724138 1.000000
vt 0.724138 0.000000
vt 0.735632 1.000000
vt 0.735632 0.000000
vt 0.747126 1.000000
vt 0.747126 0.000000
vt 0.758621 1.000000
vt 0.758621 0.000000
vt 0.770115 1.000000
vt 0.770115 0.000000
vt 0.781609 1.000000
vt 0.781609 0.000000
vt 0.793103 1.000000
vt 0.793103 0.000000
vt 0.804598 1.000000
vt 0.804598 0.000000
vt 0.816092 1.000000
vt 0.816092 0.000000
vt 0.827586 1.000000
vt 0.827586 0.000000
vt 0.839080 1.000000
vt 0.839080 0.000000
vt 0.850575 1.000000
vt 0.850575 0.000000
vt 0.862069 1.000000
vt 0.862069 0.000000
vt 0.873563 1.000000
vt 0.873563 0.000000
vt 0.885057 1.000000
vt 0.885057 0.000000
vt 0.896552 1.000000
vt 0.896552 0.000000
vt 0.908046 1.000000
vt 0.908046 0.000000
vt 0.919540 1.000000
vt 0.919540 0.000000
vt 0.931035 1.000000
vt 0.931035 0.000000
vt 0.942529 1.000000
vt 0.942529 0.000000
vt 0.954023 1.000000
vt 0.954023 0.000000
vt 0.965517 1.000000
vt 0.965517 0.000000
vt 0.977012 1.000000
vt 0.977012 0.000000
vt 0.988506 1.000000
vt 0.988506 0.000000
vt 1.000000 1.000000
vt 0.019608 1.000000
vt 0.019608 0.000000
vt 0.039216 1.000000
vt 0.039216 0.000000
vt 0.058824 1.000000
vt 0.058824 0.000000
vt 0.078431 1.000000
vt 0.078431 0.000000
vt 0.098039 1.000000
vt 0.098039 0.000000
vt 0.117647 1.000000
vt 0.117647 0.000000
vt 0.137255 1.000000
vt 0.137255 0.000000
vt 0.156863 1.000000
vt 0.156863 0.000000
vt 0.176471 1.000000
vt 0.176471 0.000000
vt 0.196078 1.000000
vt 0.196078 0.000000
vt 0.215686 1.000000
vt 0.215686 0.000000
vt 0.235294 1.000000
vt 0.235294 0.000000
vt 0.254902 1.000000
vt 0.254902 0.000000
vt 0.274510 1.000000
vt 0.274510 0.000000
vt 0.294118 1.000000
vt 0.294118 0.000000
vt 0.313726 1.000000
vt 0.313726 0.000000
vt 0.352941 1.000000
vt 0.352941 0.000000
vt 0.372549 1.000000
vt 0.372549 0.000000
vt 0.392157 1.000000
vt 0.392157 0.000000
vt 0.411765 1.000000
vt 0.411765 0.000000
vt 0.431373 1.000000
vt 0.431373 0.000000
vt 0.450980 1.000000
vt 0.450980 0.000000
vt 0.470588 1.000000
vt 0.470588 0.000000
vt 0.490196 1.000000
vt 0.490196 0.000000
vt 0.509804 1.000000
vt 0.509804 0.000000
vt 0.529412 1.000000
vt 0.529412 0.000000
vt 0.549020 1.000000
vt 0.549020 0.000000
vt 0.568627 1.000000
vt 0.568627 0.000000
vt 0.588235 1.000000
vt 0.588235 0.000000
vt 0.607843 1.000000
vt 0.607843 0.000000
vt 0.627451 1.000000
vt 0.627451 0.000000
vt 0.647059 1.000000
vt 0.647059 0.000000
vt 0.686275 1.000000
vt 0.686275 0.000000
vt 0.705882 1.000000
vt 0.705882 0.000000
vt 0.725490 1.000000
vt 0.725490 0.000000
vt 0.745098 1.000000
vt 0.745098 0.000000
vt 0.764706 1.000000
vt 0.764706 0.000000
vt 0.784314 1.000000
vt 0.784314 0.000000
vt 0.803922 1.000000
vt 0.803922 0.000000
vt 0.823529 1.000000
vt 0.823529 0.000000
vt 0.843137 1.000000
vt 0.843137 0.000000
vt 0.862745 1.000000
vt 0.862745 0.000000
vt 0.882353 1.000000
vt 0.882353 0.000000
vt 0.901961 1.000000
vt 0.901961 0.000000
vt 0.921569 1.000000
vt 0.921569 0.000000
vt 0.941176 1.000000
vt 0.941176 0.000000
vt 0.960784 1.000000
vt 0.960784 0.000000
vt 0.980392 1.000000
vt 0.980392 0.000000
s 0
usemtl Material.001
f 2/1/1 138/2/1 3/3/1
f 138/2/1 4/4/1 3/3/1
f 138/2/1 5/5/1 4/4/1
f 138/2/1 6/6/1 5/5/1
f 138/2/1 7/7/1 6/6/1
f 138/2/1 8/8/1 7/7/1
f 138/2/1 9/9/1 8/8/1
f 138/2/1 10/10/1 9/9/1
f 138/2/1 11/11/1 10/10/1
f 138/2/1 12/12/1 11/11/1
f 138/2/1 13/13/1 12/12/1
f 138/2/1 14/14/1 13/13/1
f 138/2/1 15/15/1 14/14/1
f 138/2/1 16/16/1 15/15/1
f 138/2/1 17/17/1 16/16/1
f 138/2/1 18/18/1 17/17/1
f 138/2/1 137/19/1 18/18/1
f 137/19/1 136/20/1 18/18/1
f 136/20/1 19/21/1 18/18/1
f 2/1/1 88/22/1 138/2/1
f 135/23/1 19/21/1 136/20/1
f 134/24/1 19/21/1 135/23/1
f 133/25/1 19/21/1 134/24/1
f 132/26/1 19/21/1 133/25/1
f 131/27/1 19/21/1 132/26/1
f 130/28/1 19/21/1 131/27/1
f 130/28/1 20/29/1 19/21/1
f 129/30/1 20/29/1 130/28/1
f 128/31/1 20/29/1 129/30/1
f 127/32/1 20/29/1 128/31/1
f 127/32/1 21/33/1 20/29/1
f 126/34/1 21/33/1 127/32/1
f 125/35/1 21/33/1 126/34/1
f 125/35/1 22/36/1 21/33/1
f 124/37/1 22/36/1 125/35/1
f 123/38/1 22/36/1 124/37/1
f 123/38/1 23/39/1 22/36/1
f 122/40/1 23/39/1 123/38/1
f 121/41/1 23/39/1 122/40/1
f 121/41/1 24/42/1 23/39/1
f 120/43/1 24/42/1 121/41/1
f 119/44/1 24/42/1 120/43/1
f 119/44/1 25/45/1 24/42/1
f 118/46/1 25/45/1 119/44/1
f 118/46/1 26/47/1 25/45/1
f 117/48/1 26/47/1 118/46/1
f 116/49/1 26/47/1 117/48/1
f 116/49/1 27/50/1 26/47/1
f 115/51/1 27/50/1 116/49/1
f 115/51/1 28/52/1 27/50/1
f 114/53/1 28/52/1 115/51/1
f 113/54/1 28/52/1 114/53/1
f 113/54/1 29/55/1 28/52/1
f 112/56/1 29/55/1 113/54/1
f 112/56/1 30/57/1 29/55/1
f 111/58/1 30/57/1 112/56/1
f 111/58/1 31/59/1 30/57/1
f 110/60/1 31/59/1 111/58/1
f 110/60/1 32/61/1 31/59/1
f 109/62/1 32/61/1 110/60/1
f 109/62/1 33/63/1 32/61/1
f 108/64/1 33/63/1 109/62/1
f 108/64/1 34/65/1 33/63/1
f 107/66/1 34/65/1 108/64/1
f 107/66/1 35/67/1 34/65/1
f 106/68/1 35/67/1 107/66/1
f 106/68/1 36/69/1 35/67/1
f 105/70/1 36/69/1 106/68/1
f 105/70/1 37/71/1 36/69/1
f 104/72/1 37/71/1 105/70/1
f 104/72/1 38/73/1 37/71/1
f 103/74/1 38/73/1 104/72/1
f 103/74/1 39/75/1 38/73/1
f 102/76/1 39/75/1 103/74/1
f 102/76/1 40/77/1 39/75/1
f 101/78/1 40/77/1 102/76/1
f 100/79/1 40/77/1 101/78/1
f 100/79/1 41/80/1 40/77/1
f 99/81/1 41/80/1 100/79/1
f 99/81/1 42/82/1 41/80/1
f 98/83/1 42/82/1 99/81/1
f 98/83/1 43/84/1 42/82/1
f 97/85/1 43/84/1 98/83/1
f 96/86/1 43/84/1 97/85/1
f 96/86/1 44/87/1 43/84/1
f 95/88/1 44/87/1 96/86/1
f 94/89/1 44/87/1 95/88/1
f 94/89/1 45/90/1 44/87/1
f 93/91/1 45/90/1 94/89/1
f 92/92/1 45/90/1 93/91/1
f 91/93/1 45/90/1 92/92/1
f 90/94/1 45/90/1 91/93/1
f 90/94/1 46/95/1 45/90/1
f 89/96/1 46/95/1 90/94/1
f 2/1/1 189/97/1 88/22/1
f 189/97/1 89/96/1 88/22/1
f 189/97/1 46/95/1 89/96/1
f 189/97/1 47/98/1 46/95/1
f 189/97/1 48/99/1 47/98/1
f 189/97/1 49/100/1 48/99/1
f 189/97/1 50/101/1 49/100/1
f 189/97/1 51/102/1 50/101/1
f 189/97/1 52/103/1 51/102/1
f 189/97/1 53/104/1 52/103/1
f 189/97/1 54/105/1 53/104/1
f 189/97/1 55/106/1 54/105/1
f 189/97/1 56/107/1 55/106/1
f 189/97/1 188/108/1 56/107/1
f 188/108/1 187/109/1 56/107/1
f 187/109/1 57/110/1 56/107/1
f 2/1/1 139/111/1 189/97/1
f 186/112/1 57/110/1 187/109/1
f 185/113/1 57/110/1 186/112/1
f 184/114/1 57/110/1 185/113/1
f 183/115/1 57/110/1 184/114/1
f 182/116/1 57/110/1 183/115/1
f 182/116/1 58/117/1 57/110/1
f 181/118/1 58/117/1 182/116/1
f 180/119/1 58/117/1 181/118/1
f 179/120/1 58/117/1 180/119/1
f 178/121/1 58/117/1 179/120/1
f 178/121/1 59/122/1 58/117/1
f 177/123/1 59/122/1 178/121/1
f 176/124/1 59/122/1 177/123/1
f 175/125/1 59/122/1 176/124/1
f 175/125/1 60/126/1 59/122/1
f 174/127/1 60/126/1 175/125/1
f 173/128/1 60/126/1 174/127/1
f 172/129/1 60/126/1 173/128/1
f 172/129/1 61/130/1 60/126/1
f 171/131/1 61/130/1 172/129/1
f 170/132/1 61/130/1 171/131/1
f 170/132/1 62/133/1 61/130/1
f 169/134/1 62/133/1 170/132/1
f 168/135/1 62/133/1 169/134/1
f 168/135/1 63/136/1 62/133/1
f 167/137/1 63/136/1 168/135/1
f 166/138/1 63/136/1 167/137/1
f 165/139/1 63/136/1 166/138/1
f 165/139/1 64/140/1 63/136/1
f 164/141/1 64/140/1 165/139/1
f 163/142/1 64/140/1 164/141/1
f 163/142/1 65/143/1 64/140/1
f 162/144/1 65/143/1 163/142/1
f 162/144/1 66/145/1 65/143/1
f 161/146/1 66/145/1 162/144/1
f 160/147/1 66/145/1 161/146/1
f 160/147/1 67/148/1 66/145/1
f 159/149/1 67/148/1 160/147/1
f 158/150/1 67/148/1 159/149/1
f 158/150/1 68/151/1 67/148/1
f 157/152/1 68/151/1 158/150/1
f 157/152/1 69/153/1 68/151/1
f 156/154/1 69/153/1 157/152/1
f 155/155/1 69/153/1 156/154/1
f 155/155/1 70/156/1 69/153/1
f 154/157/1 70/156/1 155/155/1
f 153/158/1 70/156/1 154/157/1
f 153/158/1 71/159/1 70/156/1
f 152/160/1 71/159/1 153/158/1
f 151/161/1 71/159/1 152/160/1
f 151/161/1 72/162/1 71/159/1
f 150/163/1 72/162/1 151/161/1
f 149/164/1 72/162/1 150/163/1
f 148/165/1 72/162/1 149/164/1
f 148/165/1 73/166/1 72/162/1
f 147/167/1 73/166/1 148/165/1
f 146/168/1 73/166/1 147/167/1
f 145/169/1 73/166/1 146/168/1
f 145/169/1 74/170/1 73/166/1
f 144/171/1 74/170/1 145/169/1
f 143/172/1 74/170/1 144/171/1
f 142/173/1 74/170/1 143/172/1
f 141/174/1 74/170/1 142/173/1
f 140/175/1 74/170/1 141/174/1
f 2/1/1 140/175/1 139/111/1
f 2/1/1 74/170/1 140/175/1
f 2/1/1 75/176/1 74/170/1
f 2/1/1 76/177/1 75/176/1
f 2/1/1 77/178/1 76/177/1
f 2/1/1 78/179/1 77/178/1
f 2/1/1 79/180/1 78/179/1
f 2/1/1 80/181/1 79/180/1
f 2/1/1 81/182/1 80/181/1
f 2/1/1 82/183/1 81/182/1
f 2/1/1 83/184/1 82/183/1
f 2/1/1 84/185/1 83/184/1
f 2/1/1 85/186/1 84/185/1
f 2/1/1 86/187/1 85/186/1
f 2/1/1 87/188/1 86/187/1
f 2/1/1 1/189/1 87/188/1
f 191/1/2 192/3/2 327/2/2
f 327/2/2 192/3/2 193/4/2
f 327/2/2 193/4/2 194/5/2
f 327/2/2 194/5/2 195/6/2
f 327/2/2 195/6/2 196/7/2
f 327/2/2 196/7/2 197/8/2
f 327/2/2 197/8/2 198/9/2
f 327/2/2 198/9/2 199/10/2
f 327/2/2 199/10/2 200/11/2
f 327/2/2 200/11/2 201/12/2
f 327/2/2 201/12/2 202/13/2
f 327/2/2 202/13/2 203/14/2
f 327/2/2 203/14/2 204/15/2
f 327/2/2 204/15/2 205/16/2
f 327/2/2 205/16/2 206/17/2
f 327/2/2 206/17/2 207/18/2
f 327/2/2 207/18/2 326/19/2
f 326/19/2 207/18/2 325/20/2
f 325/20/2 207/18/2 208/21/2
f 191/1/2 327/2/2 277/22/2
f 324/23/2 325/20/2 208/21/2
f 323/24/2 324/23/2 208/21/2
f 322/25/2 323/24/2 208/21/2
f 321/26/2 322/25/2 208/21/2
f 320/27/2 321/26/2 208/21/2
f 319/28/2 320/27/2 208/21/2
f 319/28/2 208/21/2 209/29/2
f 318/30/2 319/28/2 209/29/2
f 317/31/2 318/30/2 209/29/2
f 316/32/2 317/31/2 209/29/2
f 316/32/2 209/29/2 210/33/2
f 315/34/2 316/32/2 210/33/2
f 314/35/2 315/34/2 210/33/2
f 314/35/2 210/33/2 211/36/2
f 313/37/2 314/35/2 211/36/2
f 312/38/2 313/37/2 211/36/2
f 312/38/2 211/36/2 212/39/2
f 311/40/2 312/38/2 212/39/2
f 310/41/2 311/40/2 212/39/2
f 310/41/2 212/39/2 213/42/2
f 309/43/2 310/41/2 213/42/2
f 308/44/2 309/43/2 213/42/2
f 308/44/2 213/42/2 214/45/2
f 307/46/2 308/44/2 214/45/2
f 307/46/2 214/45/2 215/47/2
f 306/48/2 307/46/2 215/47/2
f 305/49/2 306/48/2 215/47/2
f 305/49/2 215/47/2 216/50/2
f 304/51/2 305/49/2 216/50/2
f 304/51/2 216/50/2 217/52/2
f 303/53/2 304/51/2 217/52/2
f 302/54/2 303/53/2 217/52/2
f 302/54/2 217/52/2 218/55/2
f 301/56/2 302/54/2 218/55/2
f 301/56/2 218/55/2 219/57/2
f 300/58/2 301/56/2 219/57/2
f 300/58/2 219/57/2 220/59/2
f 299/60/2 300/58/2 220/59/2
f 299/60/2 220/59/2 221/61/2
f 298/62/2 299/60/2 221/61/2
f 298/62/2 221/61/2 222/63/2
f 297/64/2 298/62/2 222/63/2
f 297/64/2 222/63/2 223/65/2
f 296/66/2 297/64/2 223/65/2
f 296/66/2 223/65/2 224/67/2
f 295/68/2 296/66/2 224/67/2
f 295/68/2 224/67/2 225/69/2
f 294/70/2 295/68/2 225/69/2
f 294/70/2 225/69/2 226/71/2
f 293/72/2 294/70/2 226/71/2
f 293/72/2 226/71/2 227/73/2
f 292/74/2 293/72/2 227/73/2
f 292/74/2 227/73/2 228/75/2
f 291/76/2 292/74/2 228/75/2
f 291/76/2 228/75/2 229/77/2
f 290/78/2 291/76/2 229/77/2
f 289/79/2 290/78/2 229/77/2
f 289/79/2 229/77/2 230/80/2
f 288/81/2 289/79/2 230/80/2
f 288/81/2 230/80/2 231/82/2
f 287/83/2 288/81/2 231/82/2
f 287/83/2 231/82/2 232/84/2
f 286/85/2 287/83/2 232/84/2
f 285/86/2 286/85/2 232/84/2
f 285/86/2 232/84/2 233/87/2
f 284/88/2 285/86/2 233/87/2
f 283/89/2 284/88/2 233/87/2
f 283/89/2 233/87/2 234/90/2
f 282/91/2 283/89/2 234/90/2
f 281/92/2 282/91/2 234/90/2
f 280/93/2 281/92/2 234/90/2
f 279/94/2 280/93/2 234/90/2
f 279/94/2 234/90/2 235/95/2
f 278/96/2 279/94/2 235/95/2
f 191/1/2 277/22/2 378/97/2
f 378/97/2 277/22/2 278/96/2
f 378/97/2 278/96/2 235/95/2
f 378/97/2 235/95/2 236/98/2
f 378/97/2 236/98/2 237/99/2
f 378/97/2 237/99/2 238/100/2
f 378/97/2 238/100/2 239/101/2
f 378/97/2 239/101/2 240/102/2
f 378/97/2 240/102/2 241/103/2
f 378/97/2 241/103/2 242/104/2
f 378/97/2 242/104/2 243/105/2
f 378/97/2 243/105/2 244/106/2
f 378/97/2 244/106/2 245/107/2
f 378/97/2 245/107/2 377/108/2
f 377/108/2 245/107/2 376/109/2
f 376/109/2 245/107/2 246/110/2
f 191/1/2 378/97/2 328/111/2
f 375/112/2 376/109/2 246/110/2
f 374/113/2 375/112/2 246/110/2
f 373/114/2 374/113/2 246/110/2
f 372/115/2 373/114/2 246/110/2
f 371/116/2 372/115/2 246/110/2
f 371/116/2 246/110/2 247/117/2
f 370/118/2 371/116/2 247/117/2
f 369/119/2 370/118/2 247/117/2
f 368/120/2 369/119/2 247/117/2
f 367/121/2 368/120/2 247/117/2
f 367/121/2 247/117/2 248/122/2
f 366/123/2 367/121/2 248/122/2
f 365/124/2 366/123/2 248/122/2
f 364/125/2 365/124/2 248/122/2
f 364/125/2 248/122/2 249/126/2
f 363/127/2 364/125/2 249/126/2
f 362/128/2 363/127/2 249/126/2
f 361/129/2 362/128/2 249/126/2
f 361/129/2 249/126/2 250/130/2
f 360/131/2 361/129/2 250/130/2
f 359/132/2 360/131/2 250/130/2
f 359/132/2 250/130/2 251/133/2
f 358/134/2 359/132/2 251/133/2
f 357/135/2 358/134/2 251/133/2
f 357/135/2 251/133/2 252/136/2
f 356/137/2 357/135/2 252/136/2
f 355/138/2 356/137/2 252/136/2
f 354/139/2 355/138/2 252/136/2
f 354/139/2 252/136/2 253/140/2
f 353/141/2 354/139/2 253/140/2
f 352/142/2 353/141/2 253/140/2
f 352/142/2 253/140/2 254/143/2
f 351/144/2 352/142/2 254/143/2
f 351/144/2 254/143/2 255/145/2
f 350/146/2 351/144/2 255/145/2
f 349/147/2 350/146/2 255/145/2
f 349/147/2 255/145/2 256/148/2
f 348/149/2 349/147/2 256/148/2
f 347/150/2 348/149/2 256/148/2
f 347/150/2 256/148/2 257/151/2
f 346/152/2 347/150/2 257/151/2
f 346/152/2 257/151/2 258/153/2
f 345/154/2 346/152/2 258/153/2
f 344/155/2 345/154/2 258/153/2
f 344/155/2 258/153/2 259/156/2
f 343/157/2 344/155/2 259/156/2
f 342/158/2 343/157/2 259/156/2
f 342/158/2 259/156/2 260/159/2
f 341/160/2 342/158/2 260/159/2
f 340/161/2 341/160/2 260/159/2
f 340/161/2 260/159/2 261/162/2
f 339/163/2 340/161/2 261/162/2
f 338/164/2 339/163/2 261/162/2
f 337/165/2 338/164/2 261/162/2
f 337/165/2 261/162/2 262/166/2
f 336/167/2 337/165/2 262/166/2
f 335/168/2 336/167/2 262/166/2
f 334/169/2 335/168/2 262/166/2
f 334/169/2 262/166/2 263/170/2
f 333/171/2 334/169/2 263/170/2
f 332/172/2 333/171/2 263/170/2
f 331/173/2 332/172/2 263/170/2
f 330/174/2 331/173/2 263/170/2
f 329/175/2 330/174/2 263/170/2
f 191/1/2 328/111/2 329/175/2
f 191/1/2 329/175/2 263/170/2
f 191/1/2 263/170/2 264/176/2
f 191/1/2 264/176/2 265/177/2
f 191/1/2 265/177/2 266/178/2
f 191/1/2 266/178/2 267/179/2
f 191/1/2 267/179/2 268/180/2
f 191/1/2 268/180/2 269/181/2
f 191/1/2 269/181/2 270/182/2
f 191/1/2 270/182/2 271/183/2
f 191/1/2 271/183/2 272/184/2
f 191/1/2 272/184/2 273/185/2
f 191/1/2 273/185/2 274/186/2
f 191/1/2 274/186/2 275/187/2
f 191/1/2 275/187/2 276/188/2
f 191/1/2 276/188/2 190/189/2
s 1
f 380/190/3 382/191/4 381/192/4 379/189/3
f 382/191/4 384/193/5 383/194/5 381/192/4
f 384/193/5 386/195/6 385/196/6 383/194/5
f 386/195/6 388/197/7 387/198/7 385/196/6
f 388/197/7 390/199/8 389/200/8 387/198/7
f 390/199/8 392/201/9 391/202/9 389/200/8
f 392/201/9 394/203/10 393/204/10 391/202/9
f 394/203/10 396/205/11 395/206/11 393/204/10
f 396/205/11 398/207/12 397/208/12 395/206/11
f 398/207/12 400/209/13 399/210/13 397/208/12
f 400/209/13 402/211/14 401/212/14 399/210/13
f 402/211/14 404/213/15 403/214/15 401/212/14
f 404/213/15 406/215/16 405/216/16 403/214/15
f 406/215/16 408/217/17 407/218/17 405/216/16
f 408/217/17 410/219/18 409/220/18 407/218/17
f 410/219/18 412/221/19 411/222/19 409/220/18
f 412/221/19 414/223/20 413/224/20 411/222/19
f 414/223/20 416/225/21 415/226/21 413/224/20
f 416/225/21 418/227/22 417/228/22 415/226/21
f 418/227/22 420/229/23 419/230/23 417/228/22
f 420/229/23 422/231/24 421/232/24 419/230/23
f 422/231/24 424/233/25 423/234/25 421/232/24
f 424/233/25 426/235/26 425/236/26 423/234/25
f 426/235/26 428/237/27 427/238/27 425/236/26
f 428/237/27 430/239/28 429/240/28 427/238/27
f 430/239/28 432/241/29 431/242/29 429/240/28
f 432/241/29 434/243/30 433/244/30 431/242/29
f 434/243/30 436/245/31 435/246/31 433/244/30
f 436/245/31 438/247/32 437/248/32 435/246/31
f 438/247/32 440/249/33 439/250/33 437/248/32
f 440/249/33 442/251/34 441/252/34 439/250/33
f 442/251/34 444/253/35 443/254/35 441/252/34
f 444/253/35 446/255/36 445/256/36 443/254/35
f 446/255/36 448/257/37 447/258/37 445/256/36
f 448/257/37 450/259/38 449/260/38 447/258/37
f 450/259/38 452/261/39 451/262/39 449/260/38
f 452/261/39 454/263/40 453/264/40 451/262/39
f 454/263/40 456/265/41 455/266/41 453/264/40
f 456/265/41 458/267/42 457/268/42 455/266/41
f 458/267/42 460/269/43 459/270/43 457/268/42
f 460/269/43 462/271/44 461/272/44 459/270/43
f 462/271/44 464/273/45 463/274/45 461/272/44
f 464/273/45 466/275/46 465/276/46 463/274/45
f 466/275/46 468/277/47 467/278/47 465/276/46
f 468/277/47 470/279/48 469/280/48 467/278/47
f 470/279/48 472/281/49 471/282/49 469/280/48
f 472/281/49 474/283/50 473/284/50 471/282/49
f 474/283/50 476/285/51 475/286/51 473/284/50
f 476/285/51 478/287/52 477/288/52 475/286/51
f 478/287/52 480/289/53 479/290/53 477/288/52
f 480/289/53 482/291/54 481/292/54 479/290/53
f 482/291/54 484/293/12 483/294/12 481/292/54
f 484/293/12 486/295/55 485/296/55 483/294/12
f 486/295/55 488/297/56 487/298/56 485/296/55
f 488/297/56 490/299/57 489/300/57 487/298/56
f 490/299/57 492/301/58 491/302/58 489/300/57
f 492/301/58 494/303/59 493/304/59 491/302/58
f 494/303/59 496/305/60 495/306/60 493/304/59
f 496/305/60 498/307/61 497/308/61 495/306/60
f 498/307/61 500/309/62 499/310/62 497/308/61
f 500/309/62 502/311/63 501/312/63 499/310/62
f 502/311/63 504/313/64 503/314/64 501/312/63
f 504/313/64 506/315/65 505/316/65 503/314/64
f 506/315/65 508/317/66 507/318/66 505/316/65
f 508/317/66 510/319/67 509/320/67 507/318/66
f 510/319/67 512/321/68 511/322/68 509/320/67
f 512/321/68 514/323/69 513/324/69 511/322/68
f 514/323/69 516/325/70 515/326/70 513/324/69
f 516/325/70 518/327/71 517/328/71 515/326/70
f 518/327/71 520/329/72 519/330/72 517/328/71
f 520/329/72 522/331/73 521/332/73 519/330/72
f 522/331/73 524/333/74 523/334/74 521/332/73
f 524/333/74 526/335/75 525/336/75 523/334/74
f 526/335/75 528/337/76 527/338/76 525/336/75
f 528/337/76 530/339/77 529/340/77 527/338/76
f 530/339/77 532/341/78 531/342/78 529/340/77
f 532/341/78 534/343/79 533/344/79 531/342/78
f 534/343/79 536/345/80 535/346/80 533/344/79
f 536/345/80 538/347/81 537/348/81 535/346/80
f 538/347/81 540/349/82 539/350/82 537/348/81
f 540/349/82 542/351/83 541/352/83 539/350/82
f 542/351/83 544/353/84 543/354/84 541/352/83
f 544/353/84 546/355/85 545/356/85 543/354/84
f 546/355/85 548/357/86 547/358/86 545/356/85
f 548/357/86 550/359/87 549/360/87 547/358/86
f 550/359/87 552/361/88 551/362/88 549/360/87
f 552/361/88 380/363/3 379/97/3 551/362/88
f 554/190/89 556/364/90 555/365/90 553/189/89
f 556/364/90 558/366/91 557/367/91 555/365/90
f 558/366/91 560/368/92 559/369/92 557/367/91
f 560/368/92 562/370/93 561/371/93 559/369/92
f 562/370/93 564/372/94 563/373/94 561/371/93
f 564/372/94 566/374/95 565/375/95 563/373/94
f 566/374/95 568/376/96 567/377/96 565/375/95
f 568/376/96 570/378/97 569/379/97 567/377/96
f 570/378/97 572/380/98 571/381/98 569/379/97
f 572/380/98 574/382/99 573/383/99 571/381/98
f 574/382/99 576/384/100 575/385/100 573/383/99
f 576/384/100 578/386/101 577/387/101 575/385/100
f 578/386/101 580/388/102 579/389/102 577/387/101
f 580/388/102 582/390/103 581/391/103 579/389/102
f 582/390/103 584/392/104 583/393/104 581/391/103
f 584/392/104 586/394/105 585/395/105 583/393/104
f 586/394/105 588/247/106 587/248/106 585/395/105
f 588/247/106 590/396/107 589/397/107 587/248/106
f 590/396/107 592/398/108 591/399/108 589/397/107
f 592/398/108 594/400/109 593/401/109 591/399/108
f 594/400/109 596/402/110 595/403/110 593/401/109
f 596/402/110 598/404/111 597/405/111 595/403/110
f 598/404/111 600/406/112 599/407/112 597/405/111
f 600/406/112 602/408/113 601/409/113 599/407/112
f 602/408/113 604/410/114 603/411/114 601/409/113
f 604/410/114 606/412/115 605/413/115 603/411/114
f 606/412/115 608/414/116 607/415/116 605/413/115
f 608/414/116 610/416/117 609/417/117 607/415/116
f 610/416/117 612/418/118 611/419/118 609/417/117
f 612/418/118 614/420/119 613/421/119 611/419/118
f 614/420/119 616/422/120 615/423/120 613/421/119
f 616/422/120 618/424/121 617/425/121 615/423/120
f 618/424/121 620/426/122 619/427/122 617/425/121
f 620/426/122 622/305/123 621/306/123 619/427/122
f 622/305/123 624/428/124 623/429/124 621/306/123
f 624/428/124 626/430/125 625/431/125 623/429/124
f 626/430/125 628/432/126 627/433/126 625/431/125
f 628/432/126 630/434/127 629/435/127 627/433/126
f 630/434/127 632/436/128 631/437/128 629/435/127
f 632/436/128 634/438/129 633/439/129 631/437/128
f 634/438/129 636/440/130 635/441/130 633/439/129
f 636/440/130 638/442/131 637/443/131 635/441/130
f 638/442/131 640/444/132 639/445/132 637/443/131
f 640/444/132 642/446/133 641/447/133 639/445/132
f 642/446/133 644/448/134 643/449/134 641/447/133
f 644/448/134 646/450/135 645/451/135 643/449/134
f 646/450/135 648/452/136 647/453/136 645/451/135
f 648/452/136 650/454/137 649/455/137 647/453/136
f 650/454/137 652/456/138 651/457/138 649/455/137
f 652/456/138 654/458/139 653/459/139 651/457/138
f 654/458/139 554/363/89 553/97/89 653/459/139
f 656/190/89 658/364/140 657/365/140 655/189/89
f 658/364/140 660/366/141 659/367/141 657/365/140
f 660/366/141 662/368/142 661/369/142 659/367/141
f 662/368/142 664/370/143 663/371/143 661/369/142
f 664/370/143 666/372/144 665/373/144 663/371/143
f 666/372/144 668/374/145 667/375/145 665/373/144
f 668/374/145 670/376/146 669/377/146 667/375/145
f 670/376/146 672/378/147 671/379/147 669/377/146
f 672/378/147 674/380/148 673/381/148 671/379/147
f 674/380/148 676/382/149 675/383/149 673/381/148
f 676/382/149 678/384/150 677/385/150 675/383/149
f 678/384/150 680/386/151 679/387/151 677/385/150
f 680/386/151 682/388/152 681/389/152 679/387/151
f 682/388/152 684/390/153 683/391/153 681/389/152
f 684/390/153 686/392/154 685/393/154 683/391/153
f 686/392/154 688/394/155 687/395/155 685/393/154
f 688/394/155 690/247/156 689/248/156 687/395/155
f 690/247/156 692/396/157 691/397/157 689/248/156
f 692/396/157 694/398/158 693/399/158 691/397/157
f 694/398/158 696/400/159 695/401/159 693/399/158
f 696/400/159 698/402/160 697/403/160 695/401/159
f 698/402/160 700/404/161 699/405/161 697/403/160
f 700/404/161 702/406/162 701/407/162 699/405/161
f 702/406/162 704/408/163 703/409/163 701/407/162
f 704/408/163 706/410/164 705/411/164 703/409/163
f 706/410/164 708/412/165 707/413/165 705/411/164
f 708/412/165 710/414/166 709/415/166 707/413/165
f 710/414/166 712/416/167 711/417/167 709/415/166
f 712/416/167 714/418/168 713/419/168 711/417/167
f 714/418/168 716/420/169 715/421/169 713/419/168
f 716/420/169 718/422/170 717/423/170 715/421/169
f 718/422/170 720/424/171 719/425/171 717/423/170
f 720/424/171 722/426/172 721/427/172 719/425/171
f 722/426/172 724/305/173 723/306/173 721/427/172
f 724/305/173 726/428/174 725/429/174 723/306/173
f 726/428/174 728/430/175 727/431/175 725/429/174
f 728/430/175 730/432/176 729/433/176 727/431/175
f 730/432/176 732/434/177 731/435/177 729/433/176
f 732/434/177 734/436/178 733/437/178 731/435/177
f 734/436/178 736/438/179 735/439/179 733/437/178
f 736/438/179 738/440/180 737/441/180 735/439/179
f 738/440/180 740/442/181 739/443/181 737/441/180
f 740/442/181 742/444/182 741/445/182 739/443/181
f 742/444/182 744/446/183 743/447/183 741/445/182
f 744/446/183 746/448/184 745/449/184 743/447/183
f 746/448/184 748/450/185 747/451/185 745/449/184
f 748/450/185 750/452/186 749/453/186 747/451/185
f 750/452/186 752/454/187 751/455/187 749/453/186
f 752/454/187 754/456/188 753/457/188 751/455/187
f 754/456/188 756/458/139 755/459/139 753/457/188
f 756/458/139 656/363/89 655/97/89 755/459/139
