# Blender 4.0.2
# www.blender.org
mtllib C_regular.mtl
o Text
v 0.107692 0.600000 1.403846
v 0.055502 0.600000 1.402791
v 0.004060 0.600000 1.399626
v -0.046635 0.600000 1.394351
v -0.096581 0.600000 1.386966
v -0.145780 0.600000 1.377471
v -0.194231 0.600000 1.365865
v -0.241934 0.600000 1.352150
v -0.288889 0.600000 1.336325
v -0.335096 0.600000 1.318389
v -0.380555 0.600000 1.298344
v -0.425267 0.600000 1.276189
v -0.469231 0.600000 1.251923
v -0.512099 0.600000 1.225494
v -0.553526 0.600000 1.196848
v -0.593510 0.600000 1.165985
v -0.632051 0.600000 1.132906
v -0.669151 0.600000 1.097609
v -0.704808 0.600000 1.060096
v -0.739022 0.600000 1.020366
v -0.771795 0.600000 0.978419
v -0.803125 0.600000 0.934255
v -0.833013 0.600000 0.887874
v -0.861458 0.600000 0.839276
v -0.888462 0.600000 0.788461
v -0.913649 0.600000 0.735550
v -0.936645 0.600000 0.680662
v -0.957452 0.600000 0.623798
v -0.976068 0.600000 0.564957
v -0.992495 0.600000 0.504140
v -1.006731 0.600000 0.441346
v -1.018777 0.600000 0.376576
v -1.028633 0.600000 0.309829
v -1.036298 0.600000 0.241106
v -1.041774 0.600000 0.170406
v -1.045059 0.600000 0.097730
v -1.046154 0.600000 0.023077
v -1.045072 0.600000 -0.048504
v -1.041827 0.600000 -0.118376
v -1.036418 0.600000 -0.186539
v -1.028846 0.600000 -0.252992
v -1.019111 0.600000 -0.317735
v -1.007212 0.600000 -0.380769
v -0.993149 0.600000 -0.442094
v -0.976923 0.600000 -0.501709
v -0.958534 0.600000 -0.559615
v -0.937981 0.600000 -0.615812
v -0.915264 0.600000 -0.670299
v -0.890385 0.600000 -0.723077
v -0.863675 0.600000 -0.773959
v -0.835470 0.600000 -0.822757
v -0.805769 0.600000 -0.869471
v -0.774573 0.600000 -0.914103
v -0.741880 0.600000 -0.956651
v -0.707692 0.600000 -0.997116
v -0.672009 0.600000 -1.035497
v -0.634829 0.600000 -1.071795
v -0.596154 0.600000 -1.106010
v -0.555983 0.600000 -1.138141
v -0.514316 0.600000 -1.168189
v -0.471154 0.600000 -1.196154
v -0.426856 0.600000 -1.221955
v -0.381784 0.600000 -1.245513
v -0.335938 0.600000 -1.266827
v -0.289316 0.600000 -1.285898
v -0.241920 0.600000 -1.302725
v -0.193750 0.600000 -1.317308
v -0.144805 0.600000 -1.329648
v -0.095086 0.600000 -1.339744
v -0.044592 0.600000 -1.347596
v 0.006677 0.600000 -1.353205
v 0.058720 0.600000 -1.356571
v 0.111538 0.600000 -1.357692
v 0.167308 0.600000 -1.356611
v 0.221795 0.600000 -1.353366
v 0.275000 0.600000 -1.347957
v 0.326923 0.600000 -1.340385
v 0.377564 0.600000 -1.330649
v 0.426923 0.600000 -1.318750
v 0.475000 0.600000 -1.304688
v 0.521795 0.600000 -1.288462
v 0.567308 0.600000 -1.270072
v 0.611539 0.600000 -1.249519
v 0.654487 0.600000 -1.226803
v 0.696154 0.600000 -1.201923
v 0.736458 0.600000 -1.174933
v 0.775321 0.600000 -1.145887
v 0.812740 0.600000 -1.114784
v 0.848718 0.600000 -1.081624
v 0.883253 0.600000 -1.046407
v 0.916346 0.600000 -1.009135
v 0.947997 0.600000 -0.969805
v 0.978205 0.600000 -0.928419
v 1.006971 0.600000 -0.884976
v 1.034295 0.600000 -0.839476
v 1.060176 0.600000 -0.791920
v 1.084615 0.600000 -0.742308
v 0.857692 0.600000 -0.584615
v 0.838502 0.600000 -0.626656
v 0.818109 0.600000 -0.666880
v 0.796514 0.600000 -0.705289
v 0.773718 0.600000 -0.741880
v 0.749719 0.600000 -0.776656
v 0.724519 0.600000 -0.809616
v 0.698117 0.600000 -0.840759
v 0.670513 0.600000 -0.870086
v 0.641707 0.600000 -0.897596
v 0.611699 0.600000 -0.923291
v 0.580489 0.600000 -0.947169
v 0.548077 0.600000 -0.969231
v 0.514784 0.600000 -0.989503
v 0.480929 0.600000 -1.008013
v 0.446514 0.600000 -1.024760
v 0.411538 0.600000 -1.039744
v 0.376002 0.600000 -1.052965
v 0.339904 0.600000 -1.064423
v 0.303245 0.600000 -1.074119
v 0.266026 0.600000 -1.082052
v 0.228245 0.600000 -1.088221
v 0.189904 0.600000 -1.092628
v 0.151001 0.600000 -1.095273
v 0.111538 0.600000 -1.096154
v 0.069605 0.600000 -1.095232
v 0.028419 0.600000 -1.092468
v -0.012019 0.600000 -1.087861
v -0.051709 0.600000 -1.081410
v -0.090652 0.600000 -1.073117
v -0.128846 0.600000 -1.062981
v -0.166293 0.600000 -1.051002
v -0.202992 0.600000 -1.037180
v -0.238942 0.600000 -1.021515
v -0.274145 0.600000 -1.004007
v -0.308601 0.600000 -0.984656
v -0.342308 0.600000 -0.963462
v -0.375040 0.600000 -0.940505
v -0.406570 0.600000 -0.915866
v -0.436899 0.600000 -0.889543
v -0.466026 0.600000 -0.861539
v -0.493950 0.600000 -0.831851
v -0.520673 0.600000 -0.800481
v -0.546194 0.600000 -0.767428
v -0.570513 0.600000 -0.732692
v -0.593630 0.600000 -0.696274
v -0.615545 0.600000 -0.658173
v -0.636258 0.600000 -0.618389
v -0.655769 0.600000 -0.576923
v -0.673892 0.600000 -0.533974
v -0.690438 0.600000 -0.489744
v -0.705409 0.600000 -0.444231
v -0.718803 0.600000 -0.397436
v -0.730622 0.600000 -0.349359
v -0.740865 0.600000 -0.300000
v -0.749533 0.600000 -0.249359
v -0.756624 0.600000 -0.197436
v -0.762139 0.600000 -0.144231
v -0.766079 0.600000 -0.089744
v -0.768443 0.600000 -0.033974
v -0.769231 0.600000 0.023077
v -0.768483 0.600000 0.074613
v -0.766239 0.600000 0.125374
v -0.762500 0.600000 0.175360
v -0.757265 0.600000 0.224573
v -0.750534 0.600000 0.273010
v -0.742308 0.600000 0.320673
v -0.732585 0.600000 0.367561
v -0.721368 0.600000 0.413675
v -0.708654 0.600000 0.459014
v -0.694444 0.600000 0.503579
v -0.678739 0.600000 0.547369
v -0.661539 0.600000 0.590385
v -0.642962 0.600000 0.632265
v -0.623130 0.600000 0.672650
v -0.602043 0.600000 0.711538
v -0.579701 0.600000 0.748932
v -0.556103 0.600000 0.784829
v -0.531250 0.600000 0.819231
v -0.505142 0.600000 0.852137
v -0.477778 0.600000 0.883547
v -0.449159 0.600000 0.913461
v -0.419284 0.600000 0.941880
v -0.388154 0.600000 0.968803
v -0.355769 0.600000 0.994231
v -0.322289 0.600000 1.017882
v -0.287874 0.600000 1.039476
v -0.252524 0.600000 1.059014
v -0.216239 0.600000 1.076496
v -0.179020 0.600000 1.091920
v -0.140865 0.600000 1.105288
v -0.101776 0.600000 1.116600
v -0.061752 0.600000 1.125855
v -0.020793 0.600000 1.133053
v 0.021100 0.600000 1.138194
v 0.063929 0.600000 1.141279
v 0.107692 0.600000 1.142308
v 0.190465 0.600000 1.138755
v 0.269551 0.600000 1.128098
v 0.344952 0.600000 1.110337
v 0.416667 0.600000 1.085470
v 0.484696 0.600000 1.053499
v 0.549039 0.600000 1.014423
v 0.609696 0.600000 0.968242
v 0.666667 0.600000 0.914957
v 0.719952 0.600000 0.854567
v 0.769551 0.600000 0.787073
v 0.815465 0.600000 0.712473
v 0.857692 0.600000 0.630769
v 1.084615 0.600000 0.788461
v 1.060150 0.600000 0.837473
v 1.034188 0.600000 0.884508
v 1.006731 0.600000 0.929567
v 0.977778 0.600000 0.972650
v 0.947329 0.600000 1.013755
v 0.915385 0.600000 1.052885
v 0.881944 0.600000 1.090037
v 0.847009 0.600000 1.125214
v 0.810577 0.600000 1.158413
v 0.772650 0.600000 1.189637
v 0.733227 0.600000 1.218884
v 0.692308 0.600000 1.246154
v 0.650053 0.600000 1.271341
v 0.606624 0.600000 1.294338
v 0.562019 0.600000 1.315144
v 0.516239 0.600000 1.333761
v 0.469284 0.600000 1.350187
v 0.421154 0.600000 1.364423
v 0.371848 0.600000 1.376469
v 0.321367 0.600000 1.386325
v 0.269711 0.600000 1.393990
v 0.216880 0.600000 1.399466
v 0.162874 0.600000 1.402751
v 0.107692 0.000000 1.403846
v 0.055502 0.000000 1.402791
v 0.004060 0.000000 1.399626
v -0.046635 0.000000 1.394351
v -0.096581 0.000000 1.386966
v -0.145780 0.000000 1.377471
v -0.194231 0.000000 1.365865
v -0.241934 0.000000 1.352150
v -0.288889 0.000000 1.336325
v -0.335096 0.000000 1.318389
v -0.380555 0.000000 1.298344
v -0.425267 0.000000 1.276189
v -0.469231 0.000000 1.251923
v -0.512099 0.000000 1.225494
v -0.553526 0.000000 1.196848
v -0.593510 0.000000 1.165985
v -0.632051 0.000000 1.132906
v -0.669151 0.000000 1.097609
v -0.704808 0.000000 1.060096
v -0.739022 0.000000 1.020366
v -0.771795 0.000000 0.978419
v -0.803125 0.000000 0.934255
v -0.833013 0.000000 0.887874
v -0.861458 0.000000 0.839276
v -0.888462 0.000000 0.788461
v -0.913649 0.000000 0.735550
v -0.936645 0.000000 0.680662
v -0.957452 0.000000 0.623798
v -0.976068 0.000000 0.564957
v -0.992495 0.000000 0.504140
v -1.006731 0.000000 0.441346
v -1.018777 0.000000 0.376576
v -1.028633 0.000000 0.309829
v -1.036298 0.000000 0.241106
v -1.041774 0.000000 0.170406
v -1.045059 0.000000 0.097730
v -1.046154 0.000000 0.023077
v -1.045072 0.000000 -0.048504
v -1.041827 0.000000 -0.118376
v -1.036418 0.000000 -0.186539
v -1.028846 0.000000 -0.252992
v -1.019111 0.000000 -0.317735
v -1.007212 0.000000 -0.380769
v -0.993149 0.000000 -0.442094
v -0.976923 0.000000 -0.501709
v -0.958534 0.000000 -0.559615
v -0.937981 0.000000 -0.615812
v -0.915264 0.000000 -0.670299
v -0.890385 0.000000 -0.723077
v -0.863675 0.000000 -0.773959
v -0.835470 0.000000 -0.822757
v -0.805769 0.000000 -0.869471
v -0.774573 0.000000 -0.914103
v -0.741880 0.000000 -0.956651
v -0.707692 0.000000 -0.997116
v -0.672009 0.000000 -1.035497
v -0.634829 0.000000 -1.071795
v -0.596154 0.000000 -1.106010
v -0.555983 0.000000 -1.138141
v -0.514316 0.000000 -1.168189
v -0.471154 0.000000 -1.196154
v -0.426856 0.000000 -1.221955
v -0.381784 0.000000 -1.245513
v -0.335938 0.000000 -1.266827
v -0.289316 0.000000 -1.285898
v -0.241920 0.000000 -1.302725
v -0.193750 0.000000 -1.317308
v -0.144805 0.000000 -1.329648
v -0.095086 0.000000 -1.339744
v -0.044592 0.000000 -1.347596
v 0.006677 0.000000 -1.353205
v 0.058720 0.000000 -1.356571
v 0.111538 0.000000 -1.357692
v 0.167308 0.000000 -1.356611
v 0.221795 0.000000 -1.353366
v 0.275000 0.000000 -1.347957
v 0.326923 0.000000 -1.340385
v 0.377564 0.000000 -1.330649
v 0.426923 0.000000 -1.318750
v 0.475000 0.000000 -1.304688
v 0.521795 0.000000 -1.288462
v 0.567308 0.000000 -1.270072
v 0.611539 0.000000 -1.249519
v 0.654487 0.000000 -1.226803
v 0.696154 0.000000 -1.201923
v 0.736458 0.000000 -1.174933
v 0.775321 0.000000 -1.145887
v 0.812740 0.000000 -1.114784
v 0.848718 0.000000 -1.081624
v 0.883253 0.000000 -1.046407
v 0.916346 0.000000 -1.009135
v 0.947997 0.000000 -0.969805
v 0.978205 0.000000 -0.928419
v 1.006971 0.000000 -0.884976
v 1.034295 0.000000 -0.839476
v 1.060176 0.000000 -0.791920
v 1.084615 0.000000 -0.742308
v 0.857692 0.000000 -0.584615
v 0.838502 0.000000 -0.626656
v 0.818109 0.000000 -0.666880
v 0.796514 0.000000 -0.705289
v 0.773718 0.000000 -0.741880
v 0.749719 0.000000 -0.776656
v 0.724519 0.000000 -0.809616
v 0.698117 0.000000 -0.840759
v 0.670513 0.000000 -0.870086
v 0.641707 0.000000 -0.897596
v 0.611699 0.000000 -0.923291
v 0.580489 0.000000 -0.947169
v 0.548077 0.000000 -0.969231
v 0.514784 0.000000 -0.989503
v 0.480929 0.000000 -1.008013
v 0.446514 0.000000 -1.024760
v 0.411538 0.000000 -1.039744
v 0.376002 0.000000 -1.052965
v 0.339904 0.000000 -1.064423
v 0.303245 0.000000 -1.074119
v 0.266026 0.000000 -1.082052
v 0.228245 0.000000 -1.088221
v 0.189904 0.000000 -1.092628
v 0.151001 0.000000 -1.095273
v 0.111538 0.000000 -1.096154
v 0.069605 0.000000 -1.095232
v 0.028419 0.000000 -1.092468
v -0.012019 0.000000 -1.087861
v -0.051709 0.000000 -1.081410
v -0.090652 0.000000 -1.073117
v -0.128846 0.000000 -1.062981
v -0.166293 0.000000 -1.051002
v -0.202992 0.000000 -1.037180
v -0.238942 0.000000 -1.021515
v -0.274145 0.000000 -1.004007
v -0.308601 0.000000 -0.984656
v -0.342308 0.000000 -0.963462
v -0.375040 0.000000 -0.940505
v -0.406570 0.000000 -0.915866
v -0.436899 0.000000 -0.889543
v -0.466026 0.000000 -0.861539
v -0.493950 0.000000 -0.831851
v -0.520673 0.000000 -0.800481
v -0.546194 0.000000 -0.767428
v -0.570513 0.000000 -0.732692
v -0.593630 0.000000 -0.696274
v -0.615545 0.000000 -0.658173
v -0.636258 0.000000 -0.618389
v -0.655769 0.000000 -0.576923
v -0.673892 0.000000 -0.533974
v -0.690438 0.000000 -0.489744
v -0.705409 0.000000 -0.444231
v -0.718803 0.000000 -0.397436
v -0.730622 0.000000 -0.349359
v -0.740865 0.000000 -0.300000
v -0.749533 0.000000 -0.249359
v -0.756624 0.000000 -0.197436
v -0.762139 0.000000 -0.144231
v -0.766079 0.000000 -0.089744
v -0.768443 0.000000 -0.033974
v -0.769231 0.000000 0.023077
v -0.768483 0.000000 0.074613
v -0.766239 0.000000 0.125374
v -0.762500 0.000000 0.175360
v -0.757265 0.000000 0.224573
v -0.750534 0.000000 0.273010
v -0.742308 0.000000 0.320673
v -0.732585 0.000000 0.367561
v -0.721368 0.000000 0.413675
v -0.708654 0.000000 0.459014
v -0.694444 0.000000 0.503579
v -0.678739 0.000000 0.547369
v -0.661539 0.000000 0.590385
v -0.642962 0.000000 0.632265
v -0.623130 0.000000 0.672650
v -0.602043 0.000000 0.711538
v -0.579701 0.000000 0.748932
v -0.556103 0.000000 0.784829
v -0.531250 0.000000 0.819231
v -0.505142 0.000000 0.852137
v -0.477778 0.000000 0.883547
v -0.449159 0.000000 0.913461
v -0.419284 0.000000 0.941880
v -0.388154 0.000000 0.968803
v -0.355769 0.000000 0.994231
v -0.322289 0.000000 1.017882
v -0.287874 0.000000 1.039476
v -0.252524 0.000000 1.059014
v -0.216239 0.000000 1.076496
v -0.179020 0.000000 1.091920
v -0.140865 0.000000 1.105288
v -0.101776 0.000000 1.116600
v -0.061752 0.000000 1.125855
v -0.020793 0.000000 1.133053
v 0.021100 0.000000 1.138194
v 0.063929 0.000000 1.141279
v 0.107692 0.000000 1.142308
v 0.190465 0.000000 1.138755
v 0.269551 0.000000 1.128098
v 0.344952 0.000000 1.110337
v 0.416667 0.000000 1.085470
v 0.484696 0.000000 1.053499
v 0.549039 0.000000 1.014423
v 0.609696 0.000000 0.968242
v 0.666667 0.000000 0.914957
v 0.719952 0.000000 0.854567
v 0.769551 0.000000 0.787073
v 0.815465 0.000000 0.712473
v 0.857692 0.000000 0.630769
v 1.084615 0.000000 0.788461
v 1.060150 0.000000 0.837473
v 1.034188 0.000000 0.884508
v 1.006731 0.000000 0.929567
v 0.977778 0.000000 0.972650
v 0.947329 0.000000 1.013755
v 0.915385 0.000000 1.052885
v 0.881944 0.000000 1.090037
v 0.847009 0.000000 1.125214
v 0.810577 0.000000 1.158413
v 0.772650 0.000000 1.189637
v 0.733227 0.000000 1.218884
v 0.692308 0.000000 1.246154
v 0.650053 0.000000 1.271341
v 0.606624 0.000000 1.294338
v 0.562019 0.000000 1.315144
v 0.516239 0.000000 1.333761
v 0.469284 0.000000 1.350187
v 0.421154 0.000000 1.364423
v 0.371848 0.000000 1.376469
v 0.321367 0.000000 1.386325
v 0.269711 0.000000 1.393990
v 0.216880 0.000000 1.399466
v 0.162874 0.000000 1.402751
v 0.107692 0.000000 1.403846
v 0.107692 0.600000 1.403846
v 0.055502 0.000000 1.402791
v 0.055502 0.600000 1.402791
v 0.004060 0.000000 1.399626
v 0.004060 0.600000 1.399626
v -0.046635 0.000000 1.394351
v -0.046635 0.600000 1.394351
v -0.096581 0.000000 1.386966
v -0.096581 0.600000 1.386966
v -0.145780 0.000000 1.377471
v -0.145780 0.600000 1.377471
v -0.194231 0.000000 1.365865
v -0.194231 0.600000 1.365865
v -0.241934 0.000000 1.352150
v -0.241934 0.600000 1.352150
v -0.288889 0.000000 1.336325
v -0.288889 0.600000 1.336325
v -0.335096 0.000000 1.318389
v -0.335096 0.600000 1.318389
v -0.380555 0.000000 1.298344
v -0.380555 0.600000 1.298344
v -0.425267 0.000000 1.276189
v -0.425267 0.600000 1.276189
v -0.469231 0.000000 1.251923
v -0.469231 0.600000 1.251923
v -0.512099 0.000000 1.225494
v -0.512099 0.600000 1.225494
v -0.553526 0.000000 1.196848
v -0.553526 0.600000 1.196848
v -0.593510 0.000000 1.165985
v -0.593510 0.600000 1.165985
v -0.632051 0.000000 1.132906
v -0.632051 0.600000 1.132906
v -0.669151 0.000000 1.097609
v -0.669151 0.600000 1.097609
v -0.704808 0.000000 1.060096
v -0.704808 0.600000 1.060096
v -0.739022 0.000000 1.020366
v -0.739022 0.600000 1.020366
v -0.771795 0.000000 0.978419
v -0.771795 0.600000 0.978419
v -0.803125 0.000000 0.934255
v -0.803125 0.600000 0.934255
v -0.833013 0.000000 0.887874
v -0.833013 0.600000 0.887874
v -0.861458 0.000000 0.839276
v -0.861458 0.600000 0.839276
v -0.888462 0.000000 0.788461
v -0.888462 0.600000 0.788461
v -0.913649 0.000000 0.735550
v -0.913649 0.600000 0.735550
v -0.936645 0.000000 0.680662
v -0.936645 0.600000 0.680662
v -0.957452 0.000000 0.623798
v -0.957452 0.600000 0.623798
v -0.976068 0.000000 0.564957
v -0.976068 0.600000 0.564957
v -0.992495 0.000000 0.504140
v -0.992495 0.600000 0.504140
v -1.006731 0.000000 0.441346
v -1.006731 0.600000 0.441346
v -1.018777 0.000000 0.376576
v -1.018777 0.600000 0.376576
v -1.028633 0.000000 0.309829
v -1.028633 0.600000 0.309829
v -1.036298 0.000000 0.241106
v -1.036298 0.600000 0.241106
v -1.041774 0.000000 0.170406
v -1.041774 0.600000 0.170406
v -1.045059 0.000000 0.097730
v -1.045059 0.600000 0.097730
v -1.046154 0.000000 0.023077
v -1.046154 0.600000 0.023077
v -1.045072 0.000000 -0.048504
v -1.045072 0.600000 -0.048504
v -1.041827 0.000000 -0.118376
v -1.041827 0.600000 -0.118376
v -1.036418 0.000000 -0.186539
v -1.036418 0.600000 -0.186539
v -1.028846 0.000000 -0.252992
v -1.028846 0.600000 -0.252992
v -1.019111 0.000000 -0.317735
v -1.019111 0.600000 -0.317735
v -1.007212 0.000000 -0.380769
v -1.007212 0.600000 -0.380769
v -0.993149 0.000000 -0.442094
v -0.993149 0.600000 -0.442094
v -0.976923 0.000000 -0.501709
v -0.976923 0.600000 -0.501709
v -0.958534 0.000000 -0.559615
v -0.958534 0.600000 -0.559615
v -0.937981 0.000000 -0.615812
v -0.937981 0.600000 -0.615812
v -0.915264 0.000000 -0.670299
v -0.915264 0.600000 -0.670299
v -0.890385 0.000000 -0.723077
v -0.890385 0.600000 -0.723077
v -0.863675 0.000000 -0.773959
v -0.863675 0.600000 -0.773959
v -0.835470 0.000000 -0.822757
v -0.835470 0.600000 -0.822757
v -0.805769 0.000000 -0.869471
v -0.805769 0.600000 -0.869471
v -0.774573 0.000000 -0.914103
v -0.774573 0.600000 -0.914103
v -0.741880 0.000000 -0.956651
v -0.741880 0.600000 -0.956651
v -0.707692 0.000000 -0.997116
v -0.707692 0.600000 -0.997116
v -0.672009 0.000000 -1.035497
v -0.672009 0.600000 -1.035497
v -0.634829 0.000000 -1.071795
v -0.634829 0.600000 -1.071795
v -0.596154 0.000000 -1.106010
v -0.596154 0.600000 -1.106010
v -0.555983 0.000000 -1.138141
v -0.555983 0.600000 -1.138141
v -0.514316 0.000000 -1.168189
v -0.514316 0.600000 -1.168189
v -0.471154 0.000000 -1.196154
v -0.471154 0.600000 -1.196154
v -0.426856 0.000000 -1.221955
v -0.426856 0.600000 -1.221955
v -0.381784 0.000000 -1.245513
v -0.381784 0.600000 -1.245513
v -0.335938 0.000000 -1.266827
v -0.335938 0.600000 -1.266827
v -0.289316 0.000000 -1.285898
v -0.289316 0.600000 -1.285898
v -0.241920 0.000000 -1.302725
v -0.241920 0.600000 -1.302725
v -0.193750 0.000000 -1.317308
v -0.193750 0.600000 -1.317308
v -0.144805 0.000000 -1.329648
v -0.144805 0.600000 -1.329648
v -0.095086 0.000000 -1.339744
v -0.095086 0.600000 -1.339744
v -0.044592 0.000000 -1.347596
v -0.044592 0.600000 -1.347596
v 0.006677 0.000000 -1.353205
v 0.006677 0.600000 -1.353205
v 0.058720 0.000000 -1.356571
v 0.058720 0.600000 -1.356571
v 0.111538 0.000000 -1.357692
v 0.111538 0.600000 -1.357692
v 0.167308 0.000000 -1.356611
v 0.167308 0.600000 -1.356611
v 0.221795 0.000000 -1.353366
v 0.221795 0.600000 -1.353366
v 0.275000 0.000000 -1.347957
v 0.275000 0.600000 -1.347957
v 0.326923 0.000000 -1.340385
v 0.326923 0.600000 -1.340385
v 0.377564 0.000000 -1.330649
v 0.377564 0.600000 -1.330649
v 0.426923 0.000000 -1.318750
v 0.426923 0.600000 -1.318750
v 0.475000 0.000000 -1.304688
v 0.475000 0.600000 -1.304688
v 0.521795 0.000000 -1.288462
v 0.521795 0.600000 -1.288462
v 0.567308 0.000000 -1.270072
v 0.567308 0.600000 -1.270072
v 0.611539 0.000000 -1.249519
v 0.611539 0.600000 -1.249519
v 0.654487 0.000000 -1.226803
v 0.654487 0.600000 -1.226803
v 0.696154 0.000000 -1.201923
v 0.696154 0.600000 -1.201923
v 0.736458 0.000000 -1.174933
v 0.736458 0.600000 -1.174933
v 0.775321 0.000000 -1.145887
v 0.775321 0.600000 -1.145887
v 0.812740 0.000000 -1.114784
v 0.812740 0.600000 -1.114784
v 0.848718 0.000000 -1.081624
v 0.848718 0.600000 -1.081624
v 0.883253 0.000000 -1.046407
v 0.883253 0.600000 -1.046407
v 0.916346 0.000000 -1.009135
v 0.916346 0.600000 -1.009135
v 0.947997 0.000000 -0.969805
v 0.947997 0.600000 -0.969805
v 0.978205 0.000000 -0.928419
v 0.978205 0.600000 -0.928419
v 1.006971 0.000000 -0.884976
v 1.006971 0.600000 -0.884976
v 1.034295 0.000000 -0.839476
v 1.034295 0.600000 -0.839476
v 1.060176 0.000000 -0.791920
v 1.060176 0.600000 -0.791920
v 1.084615 0.000000 -0.742308
v 1.084615 0.600000 -0.742308
v 0.857692 0.000000 -0.584615
v 0.857692 0.600000 -0.584615
v 0.838502 0.000000 -0.626656
v 0.838502 0.600000 -0.626656
v 0.818109 0.000000 -0.666880
v 0.818109 0.600000 -0.666880
v 0.796514 0.000000 -0.705289
v 0.796514 0.600000 -0.705289
v 0.773718 0.000000 -0.741880
v 0.773718 0.600000 -0.741880
v 0.749719 0.000000 -0.776656
v 0.749719 0.600000 -0.776656
v 0.724519 0.000000 -0.809616
v 0.724519 0.600000 -0.809616
v 0.698117 0.000000 -0.840759
v 0.698117 0.600000 -0.840759
v 0.670513 0.000000 -0.870086
v 0.670513 0.600000 -0.870086
v 0.641707 0.000000 -0.897596
v 0.641707 0.600000 -0.897596
v 0.611699 0.000000 -0.923291
v 0.611699 0.600000 -0.923291
v 0.580489 0.000000 -0.947169
v 0.580489 0.600000 -0.947169
v 0.548077 0.000000 -0.969231
v 0.548077 0.600000 -0.969231
v 0.514784 0.000000 -0.989503
v 0.514784 0.600000 -0.989503
v 0.480929 0.000000 -1.008013
v 0.480929 0.600000 -1.008013
v 0.446514 0.000000 -1.024760
v 0.446514 0.600000 -1.024760
v 0.411538 0.000000 -1.039744
v 0.411538 0.600000 -1.039744
v 0.376002 0.000000 -1.052965
v 0.376002 0.600000 -1.052965
v 0.339904 0.000000 -1.064423
v 0.339904 0.600000 -1.064423
v 0.303245 0.000000 -1.074119
v 0.303245 0.600000 -1.074119
v 0.266026 0.000000 -1.082052
v 0.266026 0.600000 -1.082052
v 0.228245 0.000000 -1.088221
v 0.228245 0.600000 -1.088221
v 0.189904 0.000000 -1.092628
v 0.189904 0.600000 -1.092628
v 0.151001 0.000000 -1.095273
v 0.151001 0.600000 -1.095273
v 0.111538 0.000000 -1.096154
v 0.111538 0.600000 -1.096154
v 0.069605 0.000000 -1.095232
v 0.069605 0.600000 -1.095232
v 0.028419 0.000000 -1.092468
v 0.028419 0.600000 -1.092468
v -0.012019 0.000000 -1.087861
v -0.012019 0.600000 -1.087861
v -0.051709 0.000000 -1.081410
v -0.051709 0.600000 -1.081410
v -0.090652 0.000000 -1.073117
v -0.090652 0.600000 -1.073117
v -0.128846 0.000000 -1.062981
v -0.128846 0.600000 -1.062981
v -0.166293 0.000000 -1.051002
v -0.166293 0.600000 -1.051002
v -0.202992 0.000000 -1.037180
v -0.202992 0.600000 -1.037180
v -0.238942 0.000000 -1.021515
v -0.238942 0.600000 -1.021515
v -0.274145 0.000000 -1.004007
v -0.274145 0.600000 -1.004007
v -0.308601 0.000000 -0.984656
v -0.308601 0.600000 -0.984656
v -0.342308 0.000000 -0.963462
v -0.342308 0.600000 -0.963462
v -0.375040 0.000000 -0.940505
v -0.375040 0.600000 -0.940505
v -0.406570 0.000000 -0.915866
v -0.406570 0.600000 -0.915866
v -0.436899 0.000000 -0.889543
v -0.436899 0.600000 -0.889543
v -0.466026 0.000000 -0.861539
v -0.466026 0.600000 -0.861539
v -0.493950 0.000000 -0.831851
v -0.493950 0.600000 -0.831851
v -0.520673 0.000000 -0.800481
v -0.520673 0.600000 -0.800481
v -0.546194 0.000000 -0.767428
v -0.546194 0.600000 -0.767428
v -0.570513 0.000000 -0.732692
v -0.570513 0.600000 -0.732692
v -0.593630 0.000000 -0.696274
v -0.593630 0.600000 -0.696274
v -0.615545 0.000000 -0.658173
v -0.615545 0.600000 -0.658173
v -0.636258 0.000000 -0.618389
v -0.636258 0.600000 -0.618389
v -0.655769 0.000000 -0.576923
v -0.655769 0.600000 -0.576923
v -0.673892 0.000000 -0.533974
v -0.673892 0.600000 -0.533974
v -0.690438 0.000000 -0.489744
v -0.690438 0.600000 -0.489744
v -0.705409 0.000000 -0.444231
v -0.705409 0.600000 -0.444231
v -0.718803 0.000000 -0.397436
v -0.718803 0.600000 -0.397436
v -0.730622 0.000000 -0.349359
v -0.730622 0.600000 -0.349359
v -0.740865 0.000000 -0.300000
v -0.740865 0.600000 -0.300000
v -0.749533 0.000000 -0.249359
v -0.749533 0.600000 -0.249359
v -0.756624 0.000000 -0.197436
v -0.756624 0.600000 -0.197436
v -0.762139 0.000000 -0.144231
v -0.762139 0.600000 -0.144231
v -0.766079 0.000000 -0.089744
v -0.766079 0.600000 -0.089744
v -0.768443 0.000000 -0.033974
v -0.768443 0.600000 -0.033974
v -0.769231 0.000000 0.023077
v -0.769231 0.600000 0.023077
v -0.768483 0.000000 0.074613
v -0.768483 0.600000 0.074613
v -0.766239 0.000000 0.125374
v -0.766239 0.600000 0.125374
v -0.762500 0.000000 0.175360
v -0.762500 0.600000 0.175360
v -0.757265 0.000000 0.224573
v -0.757265 0.600000 0.224573
v -0.750534 0.000000 0.273010
v -0.750534 0.600000 0.273010
v -0.742308 0.000000 0.320673
v -0.742308 0.600000 0.320673
v -0.732585 0.000000 0.367561
v -0.732585 0.600000 0.367561
v -0.721368 0.000000 0.413675
v -0.721368 0.600000 0.413675
v -0.708654 0.000000 0.459014
v -0.708654 0.600000 0.459014
v -0.694444 0.000000 0.503579
v -0.694444 0.600000 0.503579
v -0.678739 0.000000 0.547369
v -0.678739 0.600000 0.547369
v -0.661539 0.000000 0.590385
v -0.661539 0.600000 0.590385
v -0.642962 0.000000 0.632265
v -0.642962 0.600000 0.632265
v -0.623130 0.000000 0.672650
v -0.623130 0.600000 0.672650
v -0.602043 0.000000 0.711538
v -0.602043 0.600000 0.711538
v -0.579701 0.000000 0.748932
v -0.579701 0.600000 0.748932
v -0.556103 0.000000 0.784829
v -0.556103 0.600000 0.784829
v -0.531250 0.000000 0.819231
v -0.531250 0.600000 0.819231
v -0.505142 0.000000 0.852137
v -0.505142 0.600000 0.852137
v -0.477778 0.000000 0.883547
v -0.477778 0.600000 0.883547
v -0.449159 0.000000 0.913461
v -0.449159 0.600000 0.913461
v -0.419284 0.000000 0.941880
v -0.419284 0.600000 0.941880
v -0.388154 0.000000 0.968803
v -0.388154 0.600000 0.968803
v -0.355769 0.000000 0.994231
v -0.355769 0.600000 0.994231
v -0.322289 0.000000 1.017882
v -0.322289 0.600000 1.017882
v -0.287874 0.000000 1.039476
v -0.287874 0.600000 1.039476
v -0.252524 0.000000 1.059014
v -0.252524 0.600000 1.059014
v -0.216239 0.000000 1.076496
v -0.216239 0.600000 1.076496
v -0.179020 0.000000 1.091920
v -0.179020 0.600000 1.091920
v -0.140865 0.000000 1.105288
v -0.140865 0.600000 1.105288
v -0.101776 0.000000 1.116600
v -0.101776 0.600000 1.116600
v -0.061752 0.000000 1.125855
v -0.061752 0.600000 1.125855
v -0.020793 0.000000 1.133053
v -0.020793 0.600000 1.133053
v 0.021100 0.000000 1.138194
v 0.021100 0.600000 1.138194
v 0.063929 0.000000 1.141279
v 0.063929 0.600000 1.141279
v 0.107692 0.000000 1.142308
v 0.107692 0.600000 1.142308
v 0.190465 0.000000 1.138755
v 0.190465 0.600000 1.138755
v 0.269551 0.000000 1.128098
v 0.269551 0.600000 1.128098
v 0.344952 0.000000 1.110337
v 0.344952 0.600000 1.110337
v 0.416667 0.000000 1.085470
v 0.416667 0.600000 1.085470
v 0.484696 0.000000 1.053499
v 0.484696 0.600000 1.053499
v 0.549039 0.000000 1.014423
v 0.549039 0.600000 1.014423
v 0.609696 0.000000 0.968242
v 0.609696 0.600000 0.968242
v 0.666667 0.000000 0.914957
v 0.666667 0.600000 0.914957
v 0.719952 0.000000 0.854567
v 0.719952 0.600000 0.854567
v 0.769551 0.000000 0.787073
v 0.769551 0.600000 0.787073
v 0.815465 0.000000 0.712473
v 0.815465 0.600000 0.712473
v 0.857692 0.000000 0.630769
v 0.857692 0.600000 0.630769
v 1.084615 0.000000 0.788461
v 1.084615 0.600000 0.788461
v 1.060150 0.000000 0.837473
v 1.060150 0.600000 0.837473
v 1.034188 0.000000 0.884508
v 1.034188 0.600000 0.884508
v 1.006731 0.000000 0.929567
v 1.006731 0.600000 0.929567
v 0.977778 0.000000 0.972650
v 0.977778 0.600000 0.972650
v 0.947329 0.000000 1.013755
v 0.947329 0.600000 1.013755
v 0.915385 0.000000 1.052885
v 0.915385 0.600000 1.052885
v 0.881944 0.000000 1.090037
v 0.881944 0.600000 1.090037
v 0.847009 0.000000 1.125214
v 0.847009 0.600000 1.125214
v 0.810577 0.000000 1.158413
v 0.810577 0.600000 1.158413
v 0.772650 0.000000 1.189637
v 0.772650 0.600000 1.189637
v 0.733227 0.000000 1.218884
v 0.733227 0.600000 1.218884
v 0.692308 0.000000 1.246154
v 0.692308 0.600000 1.246154
v 0.650053 0.000000 1.271341
v 0.650053 0.600000 1.271341
v 0.606624 0.000000 1.294338
v 0.606624 0.600000 1.294338
v 0.562019 0.000000 1.315144
v 0.562019 0.600000 1.315144
v 0.516239 0.000000 1.333761
v 0.516239 0.600000 1.333761
v 0.469284 0.000000 1.350187
v 0.469284 0.600000 1.350187
v 0.421154 0.000000 1.364423
v 0.421154 0.600000 1.364423
v 0.371848 0.000000 1.376469
v 0.371848 0.600000 1.376469
v 0.321367 0.000000 1.386325
v 0.321367 0.600000 1.386325
v 0.269711 0.000000 1.393990
v 0.269711 0.600000 1.393990
v 0.216880 0.000000 1.399466
v 0.216880 0.600000 1.399466
v 0.162874 0.000000 1.402751
v 0.162874 0.600000 1.402751
vn -0.0000 1.0000 -0.0000
vn -0.0000 -1.0000 -0.0000
vn -0.0002 -0.0000 1.0000
vn -0.0408 -0.0000 0.9992
vn -0.0825 -0.0000 0.9966
vn -0.1249 -0.0000 0.9922
vn -0.1679 -0.0000 0.9858
vn -0.2113 -0.0000 0.9774
vn -0.2547 -0.0000 0.9670
vn -0.2979 -0.0000 0.9546
vn -0.3407 -0.0000 0.9402
vn -0.3828 -0.0000 0.9238
vn -0.4238 -0.0000 0.9057
vn -0.4637 -0.0000 0.8860
vn -0.5042 -0.0000 0.8636
vn -0.5470 -0.0000 0.8372
vn -0.5901 -0.0000 0.8073
vn -0.6314 -0.0000 0.7755
vn -0.6705 -0.0000 0.7419
vn -0.7073 -0.0000 0.7069
vn -0.7415 -0.0000 0.6710
vn -0.7731 -0.0000 0.6343
vn -0.8020 -0.0000 0.5973
vn -0.8283 -0.0000 0.5603
vn -0.8520 -0.0000 0.5235
vn -0.8732 -0.0000 0.4873
vn -0.8932 -0.0000 0.4496
vn -0.9129 -0.0000 0.4082
vn -0.9310 -0.0000 0.3651
vn -0.9465 -0.0000 0.3227
vn -0.9596 -0.0000 0.2813
vn -0.9705 -0.0000 0.2410
vn -0.9794 -0.0000 0.2020
vn -0.9864 -0.0000 0.1645
vn -0.9917 -0.0000 0.1285
vn -0.9956 -0.0000 0.0940
vn -0.9981 -0.0000 0.0612
vn -0.9996 -0.0000 0.0299
vn -1.0000 -0.0000 -0.0002
vn -0.9995 -0.0000 -0.0308
vn -0.9980 -0.0000 -0.0628
vn -0.9954 -0.0000 -0.0962
vn -0.9914 -0.0000 -0.1310
vn -0.9859 -0.0000 -0.1671
vn -0.9789 -0.0000 -0.2045
vn -0.9700 -0.0000 -0.2431
vn -0.9592 -0.0000 -0.2827
vn -0.9463 -0.0000 -0.3232
vn -0.9313 -0.0000 -0.3642
vn -0.9140 -0.0000 -0.4057
vn -0.8952 -0.0000 -0.4457
vn -0.8758 -0.0000 -0.4827
vn -0.8550 -0.0000 -0.5186
vn -0.8320 -0.0000 -0.5548
vn -0.8065 -0.0000 -0.5912
vn -0.7786 -0.0000 -0.6275
vn -0.7483 -0.0000 -0.6633
vn -0.7157 -0.0000 -0.6984
vn -0.6808 -0.0000 -0.7325
vn -0.6438 -0.0000 -0.7652
vn -0.6050 -0.0000 -0.7963
vn -0.5645 -0.0000 -0.8254
vn -0.5237 -0.0000 -0.8519
vn -0.4834 -0.0000 -0.8754
vn -0.4425 -0.0000 -0.8968
vn -0.4002 -0.0000 -0.9164
vn -0.3567 -0.0000 -0.9342
vn -0.3122 -0.0000 -0.9500
vn -0.2672 -0.0000 -0.9636
vn -0.2218 -0.0000 -0.9751
vn -0.1764 -0.0000 -0.9843
vn -0.1312 -0.0000 -0.9914
vn -0.0867 -0.0000 -0.9962
vn -0.0429 -0.0000 -0.9991
vn -0.0009 -0.0000 -1.0000
vn 0.0394 -0.0000 -0.9992
vn 0.0803 -0.0000 -0.9968
vn 0.1228 -0.0000 -0.9924
vn 0.1666 -0.0000 -0.9860
vn 0.2116 -0.0000 -0.9773
vn 0.2576 -0.0000 -0.9662
vn 0.3043 -0.0000 -0.9526
vn 0.3512 -0.0000 -0.9363
vn 0.3981 -0.0000 -0.9173
vn 0.4446 -0.0000 -0.8957
vn 0.4903 -0.0000 -0.8716
vn 0.5347 -0.0000 -0.8450
vn 0.5777 -0.0000 -0.8162
vn 0.6192 -0.0000 -0.7853
vn 0.6587 -0.0000 -0.7524
vn 0.6961 -0.0000 -0.7180
vn 0.7311 -0.0000 -0.6823
vn 0.7636 -0.0000 -0.6456
vn 0.7936 -0.0000 -0.6084
vn 0.8210 -0.0000 -0.5710
vn 0.8457 -0.0000 -0.5336
vn 0.8680 -0.0000 -0.4965
vn 0.8879 -0.0000 -0.4601
vn 0.9682 -0.0000 0.2502
vn -0.2644 -0.0000 0.9644
vn -0.9010 -0.0000 0.4338
vn -0.8820 -0.0000 0.4712
vn -0.8604 -0.0000 0.5096
vn -0.8361 -0.0000 0.5485
vn -0.8090 -0.0000 0.5879
vn -0.7788 -0.0000 0.6272
vn -0.7457 -0.0000 0.6663
vn -0.7097 -0.0000 0.7045
vn -0.6708 -0.0000 0.7417
vn -0.6293 -0.0000 0.7772
vn -0.5854 -0.0000 0.8108
vn -0.5416 -0.0000 0.8407
vn -0.5000 -0.0000 0.8660
vn -0.4588 -0.0000 0.8886
vn -0.4158 -0.0000 0.9095
vn -0.3714 -0.0000 0.9285
vn -0.3257 -0.0000 0.9455
vn -0.2792 -0.0000 0.9602
vn -0.2321 -0.0000 0.9727
vn -0.1849 -0.0000 0.9828
vn -0.1377 -0.0000 0.9905
vn -0.0910 -0.0000 0.9958
vn -0.0451 -0.0000 0.9990
vn 0.0445 -0.0000 0.9990
vn 0.0901 -0.0000 0.9959
vn 0.1368 -0.0000 0.9906
vn 0.1844 -0.0000 0.9829
vn 0.2325 -0.0000 0.9726
vn 0.2807 -0.0000 0.9598
vn 0.3287 -0.0000 0.9444
vn 0.3761 -0.0000 0.9266
vn 0.4225 -0.0000 0.9064
vn 0.4676 -0.0000 0.8839
vn 0.5111 -0.0000 0.8595
vn 0.5534 -0.0000 0.8329
vn 0.5952 -0.0000 0.8036
vn 0.6358 -0.0000 0.7718
vn 0.6745 -0.0000 0.7383
vn 0.7110 -0.0000 0.7032
vn 0.7450 -0.0000 0.6670
vn 0.7766 -0.0000 0.6300
vn 0.8056 -0.0000 0.5925
vn 0.8319 -0.0000 0.5549
vn 0.8558 -0.0000 0.5174
vn 0.8771 -0.0000 0.4803
vn 0.8961 -0.0000 0.4439
vn 0.9133 -0.0000 0.4073
vn 0.9292 -0.0000 0.3696
vn 0.9435 -0.0000 0.3315
vn 0.9558 -0.0000 0.2939
vn 0.9664 -0.0000 0.2570
vn 0.9753 -0.0000 0.2210
vn 0.9826 -0.0000 0.1860
vn 0.9884 -0.0000 0.1520
vn 0.9929 -0.0000 0.1192
vn 0.9962 -0.0000 0.0876
vn 0.9984 -0.0000 0.0572
vn 0.9996 -0.0000 0.0281
vn 1.0000 -0.0000 -0.0004
vn 0.9996 -0.0000 -0.0293
vn 0.9982 -0.0000 -0.0594
vn 0.9959 -0.0000 -0.0902
vn 0.9926 -0.0000 -0.1217
vn 0.9881 -0.0000 -0.1539
vn 0.9824 -0.0000 -0.1866
vn 0.9756 -0.0000 -0.2197
vn 0.9674 -0.0000 -0.2532
vn 0.9580 -0.0000 -0.2869
vn 0.9472 -0.0000 -0.3207
vn 0.9351 -0.0000 -0.3545
vn 0.9215 -0.0000 -0.3884
vn 0.9060 -0.0000 -0.4232
vn 0.8885 -0.0000 -0.4588
vn 0.8689 -0.0000 -0.4949
vn 0.8472 -0.0000 -0.5312
vn 0.8233 -0.0000 -0.5676
vn 0.7972 -0.0000 -0.6037
vn 0.7689 -0.0000 -0.6394
vn 0.7385 -0.0000 -0.6743
vn 0.7061 -0.0000 -0.7081
vn 0.6719 -0.0000 -0.7407
vn 0.6360 -0.0000 -0.7717
vn 0.5975 -0.0000 -0.8019
vn 0.5544 -0.0000 -0.8322
vn 0.5078 -0.0000 -0.8615
vn 0.4591 -0.0000 -0.8884
vn 0.4086 -0.0000 -0.9127
vn 0.3569 -0.0000 -0.9341
vn 0.3044 -0.0000 -0.9525
vn 0.2517 -0.0000 -0.9678
vn 0.1993 -0.0000 -0.9799
vn 0.1475 -0.0000 -0.9891
vn 0.0969 -0.0000 -0.9953
vn 0.0477 -0.0000 -0.9989
vn -0.0097 -0.0000 -1.0000
vn -0.0883 -0.0000 -0.9961
vn -0.1816 -0.0000 -0.9834
vn -0.2788 -0.0000 -0.9603
vn -0.3770 -0.0000 -0.9262
vn -0.4729 -0.0000 -0.8811
vn -0.5632 -0.0000 -0.8263
vn -0.6452 -0.0000 -0.7640
vn -0.7173 -0.0000 -0.6968
vn -0.8294 -0.0000 -0.5586
vn -0.8706 -0.0000 -0.4920
vn -0.2408 -0.0000 -0.9706
vn 0.9689 -0.0000 -0.2476
vn 0.8853 -0.0000 0.4650
vn 0.8649 -0.0000 0.5019
vn 0.8422 -0.0000 0.5392
vn 0.8170 -0.0000 0.5767
vn 0.7893 -0.0000 0.6140
vn 0.7592 -0.0000 0.6509
vn 0.7266 -0.0000 0.6870
vn 0.6918 -0.0000 0.7221
vn 0.6548 -0.0000 0.7558
vn 0.6159 -0.0000 0.7878
vn 0.5754 -0.0000 0.8179
vn 0.5335 -0.0000 0.8458
vn 0.4901 -0.0000 0.8716
vn 0.4455 -0.0000 0.8953
vn 0.3998 -0.0000 0.9166
vn 0.3536 -0.0000 0.9354
vn 0.3070 -0.0000 0.9517
vn 0.2606 -0.0000 0.9655
vn 0.2145 -0.0000 0.9767
vn 0.1692 -0.0000 0.9856
vn 0.1250 -0.0000 0.9922
vn 0.0819 -0.0000 0.9966
vn 0.0403 -0.0000 0.9992
vt 0.310044 0.000000
vt 0.318777 0.000000
vt 0.314410 0.000000
vt 0.323144 0.000000
vt 0.305677 0.000000
vt 0.327511 0.000000
vt 0.301310 0.000000
vt 0.331878 0.000000
vt 0.296943 0.000000
vt 0.336245 0.000000
vt 0.292576 0.000000
vt 0.340611 0.000000
vt 0.288210 0.000000
vt 0.344978 0.000000
vt 0.283843 0.000000
vt 0.349345 0.000000
vt 0.279476 0.000000
vt 0.353712 0.000000
vt 0.275109 0.000000
vt 0.358079 0.000000
vt 0.270742 0.000000
vt 0.362445 0.000000
vt 0.266376 0.000000
vt 0.366812 0.000000
vt 0.262009 0.000000
vt 0.371179 0.000000
vt 0.257642 0.000000
vt 0.375546 0.000000
vt 0.253275 0.000000
vt 0.379913 0.000000
vt 0.248908 0.000000
vt 0.528384 0.000000
vt 0.384279 0.000000
vt 0.244541 0.000000
vt 0.532751 0.000000
vt 0.524017 0.000000
vt 0.519651 0.000000
vt 0.537118 0.000000
vt 0.515284 0.000000
vt 0.541485 0.000000
vt 0.510917 0.000000
vt 0.545852 0.000000
vt 0.506550 0.000000
vt 0.388646 0.000000
vt 0.550218 0.000000
vt 0.502183 0.000000
vt 0.554585 0.000000
vt 0.240175 0.000000
vt 0.497817 0.000000
vt 0.558952 0.000000
vt 0.493450 0.000000
vt 0.563319 0.000000
vt 0.393013 0.000000
vt 0.489083 0.000000
vt 0.567686 0.000000
vt 0.235808 0.000000
vt 0.484716 0.000000
vt 0.572052 0.000000
vt 0.397380 0.000000
vt 0.480349 0.000000
vt 0.576419 0.000000
vt 0.231441 0.000000
vt 0.475983 0.000000
vt 0.580786 0.000000
vt 0.401747 0.000000
vt 0.471616 0.000000
vt 0.585153 0.000000
vt 0.227074 0.000000
vt 0.467249 0.000000
vt 0.589520 0.000000
vt 0.406114 0.000000
vt 0.462882 0.000000
vt 0.593886 0.000000
vt 0.222707 0.000000
vt 0.458515 0.000000
vt 0.598253 0.000000
vt 0.410480 0.000000
vt 0.454148 0.000000
vt 0.218341 0.000000
vt 0.602620 0.000000
vt 0.449782 0.000000
vt 0.414847 0.000000
vt 0.606987 0.000000
vt 0.213974 0.000000
vt 0.445415 0.000000
vt 0.611354 0.000000
vt 0.419214 0.000000
vt 0.441048 0.000000
vt 0.209607 0.000000
vt 0.615721 0.000000
vt 0.436681 0.000000
vt 0.432314 0.000000
vt 0.427948 0.000000
vt 0.423581 0.000000
vt 0.620087 0.000000
vt 0.205240 0.000000
vt 0.624454 0.000000
vt 0.200873 0.000000
vt 0.628821 0.000000
vt 0.633188 0.000000
vt 0.196507 0.000000
vt 0.637555 0.000000
vt 0.192140 0.000000
vt 0.641921 0.000000
vt 0.187773 0.000000
vt 0.646288 0.000000
vt 0.650655 0.000000
vt 0.183406 0.000000
vt 0.655022 0.000000
vt 0.179039 0.000000
vt 0.659389 0.000000
vt 0.174672 0.000000
vt 0.663755 0.000000
vt 0.170306 0.000000
vt 0.668122 0.000000
vt 0.672489 0.000000
vt 0.165939 0.000000
vt 0.676856 0.000000
vt 0.161572 0.000000
vt 0.681223 0.000000
vt 0.157205 0.000000
vt 0.685589 0.000000
vt 0.152838 0.000000
vt 0.689956 0.000000
vt 0.694323 0.000000
vt 0.148472 0.000000
vt 0.698690 0.000000
vt 0.144105 0.000000
vt 0.703057 0.000000
vt 0.707424 0.000000
vt 0.139738 0.000000
vt 0.711790 0.000000
vt 0.135371 0.000000
vt 0.716157 0.000000
vt 0.720524 0.000000
vt 0.131004 0.000000
vt 0.724891 0.000000
vt 0.126638 0.000000
vt 0.729258 0.000000
vt 0.733624 0.000000
vt 0.122271 0.000000
vt 0.737991 0.000000
vt 0.117904 0.000000
vt 0.742358 0.000000
vt 0.113537 0.000000
vt 0.890830 0.000000
vt 0.899563 0.000000
vt 0.895196 0.000000
vt 0.746725 0.000000
vt 0.751092 0.000000
vt 0.109170 0.000000
vt 0.755459 0.000000
vt 0.886463 0.000000
vt 0.104803 0.000000
vt 0.759825 0.000000
vt 0.764192 0.000000
vt 0.882096 0.000000
vt 0.100437 0.000000
vt 0.903930 0.000000
vt 0.768559 0.000000
vt 0.908297 0.000000
vt 0.096070 0.000000
vt 0.772926 0.000000
vt 0.877729 0.000000
vt 0.777293 0.000000
vt 0.912664 0.000000
vt 0.091703 0.000000
vt 0.781659 0.000000
vt 0.873362 0.000000
vt 0.917031 0.000000
vt 0.087336 0.000000
vt 0.786026 0.000000
vt 0.868996 0.000000
vt 0.790393 0.000000
vt 0.921397 0.000000
vt 0.082969 0.000000
vt 0.794760 0.000000
vt 0.925764 0.000000
vt 0.864629 0.000000
vt 0.799127 0.000000
vt 0.078603 0.000000
vt 0.803493 0.000000
vt 0.930131 0.000000
vt 0.860262 0.000000
vt 0.807860 0.000000
vt 0.074236 0.000000
vt 0.812227 0.000000
vt 0.855895 0.000000
vt 0.934498 0.000000
vt 0.816594 0.000000
vt 0.069869 0.000000
vt 0.820961 0.000000
vt 0.851528 0.000000
vt 0.825328 0.000000
vt 0.938865 0.000000
vt 0.829694 0.000000
vt 0.847162 0.000000
vt 0.065502 0.000000
vt 0.834061 0.000000
vt 0.838428 0.000000
vt 0.842795 0.000000
vt 0.943231 0.000000
vt 0.061135 0.000000
vt 0.947598 0.000000
vt 0.056769 0.000000
vt 0.951965 0.000000
vt 0.052402 0.000000
vt 0.956332 0.000000
vt 0.048035 0.000000
vt 0.960699 0.000000
vt 0.043668 0.000000
vt 0.965065 0.000000
vt 0.039301 0.000000
vt 0.969432 0.000000
vt 0.034934 0.000000
vt 0.973799 0.000000
vt 0.030568 0.000000
vt 0.978166 0.000000
vt 0.026201 0.000000
vt 0.982533 0.000000
vt 0.021834 0.000000
vt 0.986900 0.000000
vt 0.017467 0.000000
vt 0.991266 0.000000
vt 0.013100 0.000000
vt 0.995633 0.000000
vt 0.008734 0.000000
vt 1.000000 0.000000
vt 0.004367 0.000000
vt 0.000000 0.000000
vt 0.000000 1.000000
vt 0.004348 1.000000
vt 0.004348 0.000000
vt 0.008696 1.000000
vt 0.008696 0.000000
vt 0.013043 1.000000
vt 0.013043 0.000000
vt 0.017391 1.000000
vt 0.017391 0.000000
vt 0.021739 1.000000
vt 0.021739 0.000000
vt 0.026087 1.000000
vt 0.026087 0.000000
vt 0.030435 1.000000
vt 0.030435 0.000000
vt 0.034783 1.000000
vt 0.034783 0.000000
vt 0.039130 1.000000
vt 0.039130 0.000000
vt 0.043478 1.000000
vt 0.043478 0.000000
vt 0.047826 1.000000
vt 0.047826 0.000000
vt 0.052174 1.000000
vt 0.052174 0.000000
vt 0.056522 1.000000
vt 0.056522 0.000000
vt 0.060870 1.000000
vt 0.060870 0.000000
vt 0.065217 1.000000
vt 0.065217 0.000000
vt 0.069565 1.000000
vt 0.069565 0.000000
vt 0.073913 1.000000
vt 0.073913 0.000000
vt 0.078261 1.000000
vt 0.078261 0.000000
vt 0.082609 1.000000
vt 0.082609 0.000000
vt 0.086957 1.000000
vt 0.086957 0.000000
vt 0.091304 1.000000
vt 0.091304 0.000000
vt 0.095652 1.000000
vt 0.095652 0.000000
vt 0.100000 1.000000
vt 0.100000 0.000000
vt 0.104348 1.000000
vt 0.104348 0.000000
vt 0.108696 1.000000
vt 0.108696 0.000000
vt 0.113043 1.000000
vt 0.113043 0.000000
vt 0.117391 1.000000
vt 0.117391 0.000000
vt 0.121739 1.000000
vt 0.121739 0.000000
vt 0.126087 1.000000
vt 0.126087 0.000000
vt 0.130435 1.000000
vt 0.130435 0.000000
vt 0.134783 1.000000
vt 0.134783 0.000000
vt 0.139130 1.000000
vt 0.139130 0.000000
vt 0.143478 1.000000
vt 0.143478 0.000000
vt 0.147826 1.000000
vt 0.147826 0.000000
vt 0.152174 1.000000
vt 0.152174 0.000000
vt 0.156522 1.000000
vt 0.156522 0.000000
vt 0.160870 1.000000
vt 0.160870 0.000000
vt 0.165217 1.000000
vt 0.165217 0.000000
vt 0.169565 1.000000
vt 0.169565 0.000000
vt 0.173913 1.000000
vt 0.173913 0.000000
vt 0.178261 1.000000
vt 0.178261 0.000000
vt 0.182609 1.000000
vt 0.182609 0.000000
vt 0.186957 1.000000
vt 0.186957 0.000000
vt 0.191304 1.000000
vt 0.191304 0.000000
vt 0.195652 1.000000
vt 0.195652 0.000000
vt 0.200000 1.000000
vt 0.200000 0.000000
vt 0.204348 1.000000
vt 0.204348 0.000000
vt 0.208696 1.000000
vt 0.208696 0.000000
vt 0.213043 1.000000
vt 0.213043 0.000000
vt 0.217391 1.000000
vt 0.217391 0.000000
vt 0.221739 1.000000
vt 0.221739 0.000000
vt 0.226087 1.000000
vt 0.226087 0.000000
vt 0.230435 1.000000
vt 0.230435 0.000000
vt 0.234783 1.000000
vt 0.234783 0.000000
vt 0.239130 1.000000
vt 0.239130 0.000000
vt 0.243478 1.000000
vt 0.243478 0.000000
vt 0.247826 1.000000
vt 0.247826 0.000000
vt 0.252174 1.000000
vt 0.252174 0.000000
vt 0.256522 1.000000
vt 0.256522 0.000000
vt 0.260870 1.000000
vt 0.260870 0.000000
vt 0.265217 1.000000
vt 0.265217 0.000000
vt 0.269565 1.000000
vt 0.269565 0.000000
vt 0.273913 1.000000
vt 0.273913 0.000000
vt 0.278261 1.000000
vt 0.278261 0.000000
vt 0.282609 1.000000
vt 0.282609 0.000000
vt 0.286957 1.000000
vt 0.286957 0.000000
vt 0.291304 1.000000
vt 0.291304 0.000000
vt 0.295652 1.000000
vt 0.295652 0.000000
vt 0.300000 1.000000
vt 0.300000 0.000000
vt 0.304348 1.000000
vt 0.304348 0.000000
vt 0.308696 1.000000
vt 0.308696 0.000000
vt 0.313043 1.000000
vt 0.313043 0.000000
vt 0.317391 1.000000
vt 0.317391 0.000000
vt 0.321739 1.000000
vt 0.321739 0.000000
vt 0.326087 1.000000
vt 0.326087 0.000000
vt 0.330435 1.000000
vt 0.330435 0.000000
vt 0.334783 1.000000
vt 0.334783 0.000000
vt 0.339130 1.000000
vt 0.339130 0.000000
vt 0.343478 1.000000
vt 0.343478 0.000000
vt 0.347826 1.000000
vt 0.347826 0.000000
vt 0.352174 1.000000
vt 0.352174 0.000000
vt 0.356522 1.000000
vt 0.356522 0.000000
vt 0.360870 1.000000
vt 0.360870 0.000000
vt 0.365217 1.000000
vt 0.365217 0.000000
vt 0.369565 1.000000
vt 0.369565 0.000000
vt 0.373913 1.000000
vt 0.373913 0.000000
vt 0.378261 1.000000
vt 0.378261 0.000000
vt 0.382609 1.000000
vt 0.382609 0.000000
vt 0.386957 1.000000
vt 0.386957 0.000000
vt 0.391304 1.000000
vt 0.391304 0.000000
vt 0.395652 1.000000
vt 0.395652 0.000000
vt 0.400000 1.000000
vt 0.400000 0.000000
vt 0.404348 1.000000
vt 0.404348 0.000000
vt 0.408696 1.000000
vt 0.408696 0.000000
vt 0.413043 1.000000
vt 0.413043 0.000000
vt 0.417391 1.000000
vt 0.417391 0.000000
vt 0.421739 1.000000
vt 0.421739 0.000000
vt 0.426087 1.000000
vt 0.426087 0.000000
vt 0.430435 1.000000
vt 0.430435 0.000000
vt 0.434783 1.000000
vt 0.434783 0.000000
vt 0.439130 1.000000
vt 0.439130 0.000000
vt 0.443478 1.000000
vt 0.443478 0.000000
vt 0.447826 1.000000
vt 0.447826 0.000000
vt 0.452174 1.000000
vt 0.452174 0.000000
vt 0.456522 1.000000
vt 0.456522 0.000000
vt 0.460870 1.000000
vt 0.460870 0.000000
vt 0.465217 1.000000
vt 0.465217 0.000000
vt 0.469565 1.000000
vt 0.469565 0.000000
vt 0.473913 1.000000
vt 0.473913 0.000000
vt 0.478261 1.000000
vt 0.478261 0.000000
vt 0.482609 1.000000
vt 0.482609 0.000000
vt 0.486957 1.000000
vt 0.486957 0.000000
vt 0.491304 1.000000
vt 0.491304 0.000000
vt 0.495652 1.000000
vt 0.495652 0.000000
vt 0.500000 1.000000
vt 0.500000 0.000000
vt 0.504348 1.000000
vt 0.504348 0.000000
vt 0.508696 1.000000
vt 0.508696 0.000000
vt 0.513043 1.000000
vt 0.513043 0.000000
vt 0.517391 1.000000
vt 0.517391 0.000000
vt 0.521739 1.000000
vt 0.521739 0.000000
vt 0.526087 1.000000
vt 0.526087 0.000000
vt 0.530435 1.000000
vt 0.530435 0.000000
vt 0.534783 1.000000
vt 0.534783 0.000000
vt 0.539130 1.000000
vt 0.539130 0.000000
vt 0.543478 1.000000
vt 0.543478 0.000000
vt 0.547826 1.000000
vt 0.547826 0.000000
vt 0.552174 1.000000
vt 0.552174 0.000000
vt 0.556522 1.000000
vt 0.556522 0.000000
vt 0.560870 1.000000
vt 0.560870 0.000000
vt 0.565217 1.000000
vt 0.565217 0.000000
vt 0.569565 1.000000
vt 0.569565 0.000000
vt 0.573913 1.000000
vt 0.573913 0.000000
vt 0.578261 1.000000
vt 0.578261 0.000000
vt 0.582609 1.000000
vt 0.582609 0.000000
vt 0.586957 1.000000
vt 0.586957 0.000000
vt 0.591304 1.000000
vt 0.591304 0.000000
vt 0.595652 1.000000
vt 0.595652 0.000000
vt 0.600000 1.000000
vt 0.600000 0.000000
vt 0.604348 1.000000
vt 0.604348 0.000000
vt 0.608696 1.000000
vt 0.608696 0.000000
vt 0.613043 1.000000
vt 0.613043 0.000000
vt 0.617391 1.000000
vt 0.617391 0.000000
vt 0.621739 1.000000
vt 0.621739 0.000000
vt 0.626087 1.000000
vt 0.626087 0.000000
vt 0.630435 1.000000
vt 0.630435 0.000000
vt 0.634783 1.000000
vt 0.634783 0.000000
vt 0.639130 1.000000
vt 0.639130 0.000000
vt 0.643478 1.000000
vt 0.643478 0.000000
vt 0.647826 1.000000
vt 0.647826 0.000000
vt 0.652174 1.000000
vt 0.652174 0.000000
vt 0.656522 1.000000
vt 0.656522 0.000000
vt 0.660870 1.000000
vt 0.660870 0.000000
vt 0.665217 1.000000
vt 0.665217 0.000000
vt 0.669565 1.000000
vt 0.669565 0.000000
vt 0.673913 1.000000
vt 0.673913 0.000000
vt 0.678261 1.000000
vt 0.678261 0.000000
vt 0.682609 1.000000
vt 0.682609 0.000000
vt 0.686957 1.000000
vt 0.686957 0.000000
vt 0.691304 1.000000
vt 0.691304 0.000000
vt 0.695652 1.000000
vt 0.695652 0.000000
vt 0.700000 1.000000
vt 0.700000 0.000000
vt 0.704348 1.000000
vt 0.704348 0.000000
vt 0.708696 1.000000
vt 0.708696 0.000000
vt 0.713043 1.000000
vt 0.713043 0.000000
vt 0.717391 1.000000
vt 0.717391 0.000000
vt 0.721739 1.000000
vt 0.721739 0.000000
vt 0.726087 1.000000
vt 0.726087 0.000000
vt 0.730435 1.000000
vt 0.730435 0.000000
vt 0.734783 1.000000
vt 0.734783 0.000000
vt 0.739130 1.000000
vt 0.739130 0.000000
vt 0.743478 1.000000
vt 0.743478 0.000000
vt 0.747826 1.000000
vt 0.747826 0.000000
vt 0.752174 1.000000
vt 0.752174 0.000000
vt 0.756522 1.000000
vt 0.756522 0.000000
vt 0.760870 1.000000
vt 0.760870 0.000000
vt 0.765217 1.000000
vt 0.765217 0.000000
vt 0.769565 1.000000
vt 0.769565 0.000000
vt 0.773913 1.000000
vt 0.773913 0.000000
vt 0.778261 1.000000
vt 0.778261 0.000000
vt 0.782609 1.000000
vt 0.782609 0.000000
vt 0.786957 1.000000
vt 0.786957 0.000000
vt 0.791304 1.000000
vt 0.791304 0.000000
vt 0.795652 1.000000
vt 0.795652 0.000000
vt 0.800000 1.000000
vt 0.800000 0.000000
vt 0.804348 1.000000
vt 0.804348 0.000000
vt 0.808696 1.000000
vt 0.808696 0.000000
vt 0.813043 1.000000
vt 0.813043 0.000000
vt 0.817391 1.000000
vt 0.817391 0.000000
vt 0.821739 1.000000
vt 0.821739 0.000000
vt 0.826087 1.000000
vt 0.826087 0.000000
vt 0.830435 1.000000
vt 0.830435 0.000000
vt 0.834783 1.000000
vt 0.834783 0.000000
vt 0.839130 1.000000
vt 0.839130 0.000000
vt 0.843478 1.000000
vt 0.843478 0.000000
vt 0.847826 1.000000
vt 0.847826 0.000000
vt 0.852174 1.000000
vt 0.852174 0.000000
vt 0.856522 1.000000
vt 0.856522 0.000000
vt 0.860870 1.000000
vt 0.860870 0.000000
vt 0.865217 1.000000
vt 0.865217 0.000000
vt 0.869565 1.000000
vt 0.869565 0.000000
vt 0.873913 1.000000
vt 0.873913 0.000000
vt 0.878261 1.000000
vt 0.878261 0.000000
vt 0.882609 1.000000
vt 0.882609 0.000000
vt 0.886957 1.000000
vt 0.886957 0.000000
vt 0.891304 1.000000
vt 0.891304 0.000000
vt 0.895652 1.000000
vt 0.895652 0.000000
vt 0.900000 1.000000
vt 0.900000 0.000000
vt 0.904348 1.000000
vt 0.904348 0.000000
vt 0.908696 1.000000
vt 0.908696 0.000000
vt 0.913043 1.000000
vt 0.913043 0.000000
vt 0.917391 1.000000
vt 0.917391 0.000000
vt 0.921739 1.000000
vt 0.921739 0.000000
vt 0.926087 1.000000
vt 0.926087 0.000000
vt 0.930435 1.000000
vt 0.930435 0.000000
vt 0.934783 1.000000
vt 0.934783 0.000000
vt 0.939130 1.000000
vt 0.939130 0.000000
vt 0.943478 1.000000
vt 0.943478 0.000000
vt 0.947826 1.000000
vt 0.947826 0.000000
vt 0.952174 1.000000
vt 0.952174 0.000000
vt 0.956522 1.000000
vt 0.956522 0.000000
vt 0.960870 1.000000
vt 0.960870 0.000000
vt 0.965217 1.000000
vt 0.965217 0.000000
vt 0.969565 1.000000
vt 0.969565 0.000000
vt 0.973913 1.000000
vt 0.973913 0.000000
vt 0.978261 1.000000
vt 0.978261 0.000000
vt 0.982609 1.000000
vt 0.982609 0.000000
vt 0.986957 1.000000
vt 0.986957 0.000000
vt 0.991304 1.000000
vt 0.991304 0.000000
vt 0.995652 1.000000
vt 0.995652 0.000000
vt 1.000000 1.000000
s 0
usemtl Material.001
f 72/1/1 74/2/1 73/3/1
f 72/1/1 75/4/1 74/2/1
f 71/5/1 75/4/1 72/1/1
f 71/5/1 76/6/1 75/4/1
f 70/7/1 76/6/1 71/5/1
f 70/7/1 77/8/1 76/6/1
f 69/9/1 77/8/1 70/7/1
f 69/9/1 78/10/1 77/8/1
f 68/11/1 78/10/1 69/9/1
f 68/11/1 79/12/1 78/10/1
f 67/13/1 79/12/1 68/11/1
f 67/13/1 80/14/1 79/12/1
f 66/15/1 80/14/1 67/13/1
f 66/15/1 81/16/1 80/14/1
f 65/17/1 81/16/1 66/15/1
f 65/17/1 82/18/1 81/16/1
f 64/19/1 82/18/1 65/17/1
f 64/19/1 83/20/1 82/18/1
f 63/21/1 83/20/1 64/19/1
f 63/21/1 84/22/1 83/20/1
f 62/23/1 84/22/1 63/21/1
f 62/23/1 85/24/1 84/22/1
f 61/25/1 85/24/1 62/23/1
f 61/25/1 86/26/1 85/24/1
f 60/27/1 86/26/1 61/25/1
f 60/27/1 87/28/1 86/26/1
f 59/29/1 87/28/1 60/27/1
f 59/29/1 88/30/1 87/28/1
f 58/31/1 88/30/1 59/29/1
f 58/31/1 122/32/1 88/30/1
f 122/32/1 89/33/1 88/30/1
f 57/34/1 123/35/1 58/31/1
f 123/35/1 122/32/1 58/31/1
f 121/36/1 89/33/1 122/32/1
f 120/37/1 89/33/1 121/36/1
f 57/34/1 124/38/1 123/35/1
f 119/39/1 89/33/1 120/37/1
f 57/34/1 125/40/1 124/38/1
f 118/41/1 89/33/1 119/39/1
f 57/34/1 126/42/1 125/40/1
f 117/43/1 89/33/1 118/41/1
f 117/43/1 90/44/1 89/33/1
f 57/34/1 127/45/1 126/42/1
f 116/46/1 90/44/1 117/43/1
f 57/34/1 128/47/1 127/45/1
f 56/48/1 128/47/1 57/34/1
f 115/49/1 90/44/1 116/46/1
f 56/48/1 129/50/1 128/47/1
f 114/51/1 90/44/1 115/49/1
f 56/48/1 130/52/1 129/50/1
f 114/51/1 91/53/1 90/44/1
f 113/54/1 91/53/1 114/51/1
f 56/48/1 131/55/1 130/52/1
f 55/56/1 131/55/1 56/48/1
f 112/57/1 91/53/1 113/54/1
f 55/56/1 132/58/1 131/55/1
f 112/57/1 92/59/1 91/53/1
f 111/60/1 92/59/1 112/57/1
f 55/56/1 133/61/1 132/58/1
f 54/62/1 133/61/1 55/56/1
f 110/63/1 92/59/1 111/60/1
f 54/62/1 134/64/1 133/61/1
f 110/63/1 93/65/1 92/59/1
f 109/66/1 93/65/1 110/63/1
f 54/62/1 135/67/1 134/64/1
f 53/68/1 135/67/1 54/62/1
f 108/69/1 93/65/1 109/66/1
f 53/68/1 136/70/1 135/67/1
f 108/69/1 94/71/1 93/65/1
f 107/72/1 94/71/1 108/69/1
f 53/68/1 137/73/1 136/70/1
f 52/74/1 137/73/1 53/68/1
f 106/75/1 94/71/1 107/72/1
f 52/74/1 138/76/1 137/73/1
f 106/75/1 95/77/1 94/71/1
f 105/78/1 95/77/1 106/75/1
f 51/79/1 138/76/1 52/74/1
f 51/79/1 139/80/1 138/76/1
f 104/81/1 95/77/1 105/78/1
f 104/81/1 96/82/1 95/77/1
f 51/79/1 140/83/1 139/80/1
f 50/84/1 140/83/1 51/79/1
f 103/85/1 96/82/1 104/81/1
f 50/84/1 141/86/1 140/83/1
f 103/85/1 97/87/1 96/82/1
f 102/88/1 97/87/1 103/85/1
f 49/89/1 141/86/1 50/84/1
f 49/89/1 142/90/1 141/86/1
f 102/88/1 101/91/1 97/87/1
f 101/91/1 100/92/1 97/87/1
f 100/92/1 99/93/1 97/87/1
f 99/93/1 98/94/1 97/87/1
f 49/89/1 143/95/1 142/90/1
f 48/96/1 143/95/1 49/89/1
f 48/96/1 144/97/1 143/95/1
f 47/98/1 144/97/1 48/96/1
f 47/98/1 145/99/1 144/97/1
f 47/98/1 146/100/1 145/99/1
f 46/101/1 146/100/1 47/98/1
f 46/101/1 147/102/1 146/100/1
f 45/103/1 147/102/1 46/101/1
f 45/103/1 148/104/1 147/102/1
f 44/105/1 148/104/1 45/103/1
f 44/105/1 149/106/1 148/104/1
f 44/105/1 150/107/1 149/106/1
f 43/108/1 150/107/1 44/105/1
f 43/108/1 151/109/1 150/107/1
f 42/110/1 151/109/1 43/108/1
f 42/110/1 152/111/1 151/109/1
f 41/112/1 152/111/1 42/110/1
f 41/112/1 153/113/1 152/111/1
f 40/114/1 153/113/1 41/112/1
f 40/114/1 154/115/1 153/113/1
f 40/114/1 155/116/1 154/115/1
f 39/117/1 155/116/1 40/114/1
f 39/117/1 156/118/1 155/116/1
f 38/119/1 156/118/1 39/117/1
f 38/119/1 157/120/1 156/118/1
f 37/121/1 157/120/1 38/119/1
f 37/121/1 158/122/1 157/120/1
f 36/123/1 158/122/1 37/121/1
f 36/123/1 159/124/1 158/122/1
f 36/123/1 160/125/1 159/124/1
f 35/126/1 160/125/1 36/123/1
f 35/126/1 161/127/1 160/125/1
f 34/128/1 161/127/1 35/126/1
f 34/128/1 162/129/1 161/127/1
f 34/128/1 163/130/1 162/129/1
f 33/131/1 163/130/1 34/128/1
f 33/131/1 164/132/1 163/130/1
f 32/133/1 164/132/1 33/131/1
f 32/133/1 165/134/1 164/132/1
f 32/133/1 166/135/1 165/134/1
f 31/136/1 166/135/1 32/133/1
f 31/136/1 167/137/1 166/135/1
f 30/138/1 167/137/1 31/136/1
f 30/138/1 168/139/1 167/137/1
f 30/138/1 169/140/1 168/139/1
f 29/141/1 169/140/1 30/138/1
f 29/141/1 170/142/1 169/140/1
f 28/143/1 170/142/1 29/141/1
f 28/143/1 171/144/1 170/142/1
f 27/145/1 171/144/1 28/143/1
f 205/146/1 207/147/1 206/148/1
f 27/145/1 172/149/1 171/144/1
f 27/145/1 173/150/1 172/149/1
f 26/151/1 173/150/1 27/145/1
f 26/151/1 174/152/1 173/150/1
f 204/153/1 207/147/1 205/146/1
f 25/154/1 174/152/1 26/151/1
f 25/154/1 175/155/1 174/152/1
f 25/154/1 176/156/1 175/155/1
f 203/157/1 207/147/1 204/153/1
f 24/158/1 176/156/1 25/154/1
f 203/157/1 208/159/1 207/147/1
f 24/158/1 177/160/1 176/156/1
f 203/157/1 209/161/1 208/159/1
f 23/162/1 177/160/1 24/158/1
f 23/162/1 178/163/1 177/160/1
f 202/164/1 209/161/1 203/157/1
f 23/162/1 179/165/1 178/163/1
f 202/164/1 210/166/1 209/161/1
f 22/167/1 179/165/1 23/162/1
f 22/167/1 180/168/1 179/165/1
f 201/169/1 210/166/1 202/164/1
f 201/169/1 211/170/1 210/166/1
f 21/171/1 180/168/1 22/167/1
f 21/171/1 181/172/1 180/168/1
f 200/173/1 211/170/1 201/169/1
f 21/171/1 182/174/1 181/172/1
f 200/173/1 212/175/1 211/170/1
f 20/176/1 182/174/1 21/171/1
f 20/176/1 183/177/1 182/174/1
f 200/173/1 213/178/1 212/175/1
f 199/179/1 213/178/1 200/173/1
f 20/176/1 184/180/1 183/177/1
f 19/181/1 184/180/1 20/176/1
f 19/181/1 185/182/1 184/180/1
f 199/179/1 214/183/1 213/178/1
f 198/184/1 214/183/1 199/179/1
f 19/181/1 186/185/1 185/182/1
f 18/186/1 186/185/1 19/181/1
f 18/186/1 187/187/1 186/185/1
f 197/188/1 214/183/1 198/184/1
f 197/188/1 215/189/1 214/183/1
f 18/186/1 188/190/1 187/187/1
f 17/191/1 188/190/1 18/186/1
f 17/191/1 189/192/1 188/190/1
f 196/193/1 215/189/1 197/188/1
f 17/191/1 190/194/1 189/192/1
f 196/193/1 216/195/1 215/189/1
f 17/191/1 191/196/1 190/194/1
f 195/197/1 216/195/1 196/193/1
f 16/198/1 191/196/1 17/191/1
f 16/198/1 192/199/1 191/196/1
f 16/198/1 193/200/1 192/199/1
f 194/201/1 216/195/1 195/197/1
f 16/198/1 194/201/1 193/200/1
f 16/198/1 216/195/1 194/201/1
f 16/198/1 217/202/1 216/195/1
f 15/203/1 217/202/1 16/198/1
f 15/203/1 218/204/1 217/202/1
f 14/205/1 218/204/1 15/203/1
f 14/205/1 219/206/1 218/204/1
f 13/207/1 219/206/1 14/205/1
f 13/207/1 220/208/1 219/206/1
f 12/209/1 220/208/1 13/207/1
f 12/209/1 221/210/1 220/208/1
f 11/211/1 221/210/1 12/209/1
f 11/211/1 222/212/1 221/210/1
f 10/213/1 222/212/1 11/211/1
f 10/213/1 223/214/1 222/212/1
f 9/215/1 223/214/1 10/213/1
f 9/215/1 224/216/1 223/214/1
f 8/217/1 224/216/1 9/215/1
f 8/217/1 225/218/1 224/216/1
f 7/219/1 225/218/1 8/217/1
f 7/219/1 226/220/1 225/218/1
f 6/221/1 226/220/1 7/219/1
f 6/221/1 227/222/1 226/220/1
f 5/223/1 227/222/1 6/221/1
f 5/223/1 228/224/1 227/222/1
f 4/225/1 228/224/1 5/223/1
f 4/225/1 229/226/1 228/224/1
f 3/227/1 229/226/1 4/225/1
f 3/227/1 230/228/1 229/226/1
f 2/229/1 230/228/1 3/227/1
f 2/229/1 1/230/1 230/228/1
f 302/1/2 303/3/2 304/2/2
f 302/1/2 304/2/2 305/4/2
f 301/5/2 302/1/2 305/4/2
f 301/5/2 305/4/2 306/6/2
f 300/7/2 301/5/2 306/6/2
f 300/7/2 306/6/2 307/8/2
f 299/9/2 300/7/2 307/8/2
f 299/9/2 307/8/2 308/10/2
f 298/11/2 299/9/2 308/10/2
f 298/11/2 308/10/2 309/12/2
f 297/13/2 298/11/2 309/12/2
f 297/13/2 309/12/2 310/14/2
f 296/15/2 297/13/2 310/14/2
f 296/15/2 310/14/2 311/16/2
f 295/17/2 296/15/2 311/16/2
f 295/17/2 311/16/2 312/18/2
f 294/19/2 295/17/2 312/18/2
f 294/19/2 312/18/2 313/20/2
f 293/21/2 294/19/2 313/20/2
f 293/21/2 313/20/2 314/22/2
f 292/23/2 293/21/2 314/22/2
f 292/23/2 314/22/2 315/24/2
f 291/25/2 292/23/2 315/24/2
f 291/25/2 315/24/2 316/26/2
f 290/27/2 291/25/2 316/26/2
f 290/27/2 316/26/2 317/28/2
f 289/29/2 290/27/2 317/28/2
f 289/29/2 317/28/2 318/30/2
f 288/31/2 289/29/2 318/30/2
f 288/31/2 318/30/2 352/32/2
f 352/32/2 318/30/2 319/33/2
f 287/34/2 288/31/2 353/35/2
f 353/35/2 288/31/2 352/32/2
f 351/36/2 352/32/2 319/33/2
f 350/37/2 351/36/2 319/33/2
f 287/34/2 353/35/2 354/38/2
f 349/39/2 350/37/2 319/33/2
f 287/34/2 354/38/2 355/40/2
f 348/41/2 349/39/2 319/33/2
f 287/34/2 355/40/2 356/42/2
f 347/43/2 348/41/2 319/33/2
f 347/43/2 319/33/2 320/44/2
f 287/34/2 356/42/2 357/45/2
f 346/46/2 347/43/2 320/44/2
f 287/34/2 357/45/2 358/47/2
f 286/48/2 287/34/2 358/47/2
f 345/49/2 346/46/2 320/44/2
f 286/48/2 358/47/2 359/50/2
f 344/51/2 345/49/2 320/44/2
f 286/48/2 359/50/2 360/52/2
f 344/51/2 320/44/2 321/53/2
f 343/54/2 344/51/2 321/53/2
f 286/48/2 360/52/2 361/55/2
f 285/56/2 286/48/2 361/55/2
f 342/57/2 343/54/2 321/53/2
f 285/56/2 361/55/2 362/58/2
f 342/57/2 321/53/2 322/59/2
f 341/60/2 342/57/2 322/59/2
f 285/56/2 362/58/2 363/61/2
f 284/62/2 285/56/2 363/61/2
f 340/63/2 341/60/2 322/59/2
f 284/62/2 363/61/2 364/64/2
f 340/63/2 322/59/2 323/65/2
f 339/66/2 340/63/2 323/65/2
f 284/62/2 364/64/2 365/67/2
f 283/68/2 284/62/2 365/67/2
f 338/69/2 339/66/2 323/65/2
f 283/68/2 365/67/2 366/70/2
f 338/69/2 323/65/2 324/71/2
f 337/72/2 338/69/2 324/71/2
f 283/68/2 366/70/2 367/73/2
f 282/74/2 283/68/2 367/73/2
f 336/75/2 337/72/2 324/71/2
f 282/74/2 367/73/2 368/76/2
f 336/75/2 324/71/2 325/77/2
f 335/78/2 336/75/2 325/77/2
f 281/79/2 282/74/2 368/76/2
f 281/79/2 368/76/2 369/80/2
f 334/81/2 335/78/2 325/77/2
f 334/81/2 325/77/2 326/82/2
f 281/79/2 369/80/2 370/83/2
f 280/84/2 281/79/2 370/83/2
f 333/85/2 334/81/2 326/82/2
f 280/84/2 370/83/2 371/86/2
f 333/85/2 326/82/2 327/87/2
f 332/88/2 333/85/2 327/87/2
f 279/89/2 280/84/2 371/86/2
f 279/89/2 371/86/2 372/90/2
f 332/88/2 327/87/2 331/91/2
f 331/91/2 327/87/2 330/92/2
f 330/92/2 327/87/2 329/93/2
f 329/93/2 327/87/2 328/94/2
f 279/89/2 372/90/2 373/95/2
f 278/96/2 279/89/2 373/95/2
f 278/96/2 373/95/2 374/97/2
f 277/98/2 278/96/2 374/97/2
f 277/98/2 374/97/2 375/99/2
f 277/98/2 375/99/2 376/100/2
f 276/101/2 277/98/2 376/100/2
f 276/101/2 376/100/2 377/102/2
f 275/103/2 276/101/2 377/102/2
f 275/103/2 377/102/2 378/104/2
f 274/105/2 275/103/2 378/104/2
f 274/105/2 378/104/2 379/106/2
f 274/105/2 379/106/2 380/107/2
f 273/108/2 274/105/2 380/107/2
f 273/108/2 380/107/2 381/109/2
f 272/110/2 273/108/2 381/109/2
f 272/110/2 381/109/2 382/111/2
f 271/112/2 272/110/2 382/111/2
f 271/112/2 382/111/2 383/113/2
f 270/114/2 271/112/2 383/113/2
f 270/114/2 383/113/2 384/115/2
f 270/114/2 384/115/2 385/116/2
f 269/117/2 270/114/2 385/116/2
f 269/117/2 385/116/2 386/118/2
f 268/119/2 269/117/2 386/118/2
f 268/119/2 386/118/2 387/120/2
f 267/121/2 268/119/2 387/120/2
f 267/121/2 387/120/2 388/122/2
f 266/123/2 267/121/2 388/122/2
f 266/123/2 388/122/2 389/124/2
f 266/123/2 389/124/2 390/125/2
f 265/126/2 266/123/2 390/125/2
f 265/126/2 390/125/2 391/127/2
f 264/128/2 265/126/2 391/127/2
f 264/128/2 391/127/2 392/129/2
f 264/128/2 392/129/2 393/130/2
f 263/131/2 264/128/2 393/130/2
f 263/131/2 393/130/2 394/132/2
f 262/133/2 263/131/2 394/132/2
f 262/133/2 394/132/2 395/134/2
f 262/133/2 395/134/2 396/135/2
f 261/136/2 262/133/2 396/135/2
f 261/136/2 396/135/2 397/137/2
f 260/138/2 261/136/2 397/137/2
f 260/138/2 397/137/2 398/139/2
f 260/138/2 398/139/2 399/140/2
f 259/141/2 260/138/2 399/140/2
f 259/141/2 399/140/2 400/142/2
f 258/143/2 259/141/2 400/142/2
f 258/143/2 400/142/2 401/144/2
f 257/145/2 258/143/2 401/144/2
f 435/146/2 436/148/2 437/147/2
f 257/145/2 401/144/2 402/149/2
f 257/145/2 402/149/2 403/150/2
f 256/151/2 257/145/2 403/150/2
f 256/151/2 403/150/2 404/152/2
f 434/153/2 435/146/2 437/147/2
f 255/154/2 256/151/2 404/152/2
f 255/154/2 404/152/2 405/155/2
f 255/154/2 405/155/2 406/156/2
f 433/157/2 434/153/2 437/147/2
f 254/158/2 255/154/2 406/156/2
f 433/157/2 437/147/2 438/159/2
f 254/158/2 406/156/2 407/160/2
f 433/157/2 438/159/2 439/161/2
f 253/162/2 254/158/2 407/160/2
f 253/162/2 407/160/2 408/163/2
f 432/164/2 433/157/2 439/161/2
f 253/162/2 408/163/2 409/165/2
f 432/164/2 439/161/2 440/166/2
f 252/167/2 253/162/2 409/165/2
f 252/167/2 409/165/2 410/168/2
f 431/169/2 432/164/2 440/166/2
f 431/169/2 440/166/2 441/170/2
f 251/171/2 252/167/2 410/168/2
f 251/171/2 410/168/2 411/172/2
f 430/173/2 431/169/2 441/170/2
f 251/171/2 411/172/2 412/174/2
f 430/173/2 441/170/2 442/175/2
f 250/176/2 251/171/2 412/174/2
f 250/176/2 412/174/2 413/177/2
f 430/173/2 442/175/2 443/178/2
f 429/179/2 430/173/2 443/178/2
f 250/176/2 413/177/2 414/180/2
f 249/181/2 250/176/2 414/180/2
f 249/181/2 414/180/2 415/182/2
f 429/179/2 443/178/2 444/183/2
f 428/184/2 429/179/2 444/183/2
f 249/181/2 415/182/2 416/185/2
f 248/186/2 249/181/2 416/185/2
f 248/186/2 416/185/2 417/187/2
f 427/188/2 428/184/2 444/183/2
f 427/188/2 444/183/2 445/189/2
f 248/186/2 417/187/2 418/190/2
f 247/191/2 248/186/2 418/190/2
f 247/191/2 418/190/2 419/192/2
f 426/193/2 427/188/2 445/189/2
f 247/191/2 419/192/2 420/194/2
f 426/193/2 445/189/2 446/195/2
f 247/191/2 420/194/2 421/196/2
f 425/197/2 426/193/2 446/195/2
f 246/198/2 247/191/2 421/196/2
f 246/198/2 421/196/2 422/199/2
f 246/198/2 422/199/2 423/200/2
f 424/201/2 425/197/2 446/195/2
f 246/198/2 423/200/2 424/201/2
f 246/198/2 424/201/2 446/195/2
f 246/198/2 446/195/2 447/202/2
f 245/203/2 246/198/2 447/202/2
f 245/203/2 447/202/2 448/204/2
f 244/205/2 245/203/2 448/204/2
f 244/205/2 448/204/2 449/206/2
f 243/207/2 244/205/2 449/206/2
f 243/207/2 449/206/2 450/208/2
f 242/209/2 243/207/2 450/208/2
f 242/209/2 450/208/2 451/210/2
f 241/211/2 242/209/2 451/210/2
f 241/211/2 451/210/2 452/212/2
f 240/213/2 241/211/2 452/212/2
f 240/213/2 452/212/2 453/214/2
f 239/215/2 240/213/2 453/214/2
f 239/215/2 453/214/2 454/216/2
f 238/217/2 239/215/2 454/216/2
f 238/217/2 454/216/2 455/218/2
f 237/219/2 238/217/2 455/218/2
f 237/219/2 455/218/2 456/220/2
f 236/221/2 237/219/2 456/220/2
f 236/221/2 456/220/2 457/222/2
f 235/223/2 236/221/2 457/222/2
f 235/223/2 457/222/2 458/224/2
f 234/225/2 235/223/2 458/224/2
f 234/225/2 458/224/2 459/226/2
f 233/227/2 234/225/2 459/226/2
f 233/227/2 459/226/2 460/228/2
f 232/229/2 233/227/2 460/228/2
f 232/229/2 460/228/2 231/230/2
s 1
f 462/231/3 464/232/4 463/233/4 461/230/3
f 464/232/4 466/234/5 465/235/5 463/233/4
f 466/234/5 468/236/6 467/237/6 465/235/5
f 468/236/6 470/238/7 469/239/7 467/237/6
f 470/238/7 472/240/8 471/241/8 469/239/7
f 472/240/8 474/242/9 473/243/9 471/241/8
f 474/242/9 476/244/10 475/245/10 473/243/9
f 476/244/10 478/246/11 477/247/11 475/245/10
f 478/246/11 480/248/12 479/249/12 477/247/11
f 480/248/12 482/250/13 481/251/13 479/249/12
f 482/250/13 484/252/14 483/253/14 481/251/13
f 484/252/14 486/254/15 485/255/15 483/253/14
f 486/254/15 488/256/16 487/257/16 485/255/15
f 488/256/16 490/258/17 489/259/17 487/257/16
f 490/258/17 492/260/18 491/261/18 489/259/17
f 492/260/18 494/262/19 493/263/19 491/261/18
f 494/262/19 496/264/20 495/265/20 493/263/19
f 496/264/20 498/266/21 497/267/21 495/265/20
f 498/266/21 500/268/22 499/269/22 497/267/21
f 500/268/22 502/270/23 501/271/23 499/269/22
f 502/270/23 504/272/24 503/273/24 501/271/23
f 504/272/24 506/274/25 505/275/25 503/273/24
f 506/274/25 508/276/26 507/277/26 505/275/25
f 508/276/26 510/278/27 509/279/27 507/277/26
f 510/278/27 512/280/28 511/281/28 509/279/27
f 512/280/28 514/282/29 513/283/29 511/281/28
f 514/282/29 516/284/30 515/285/30 513/283/29
f 516/284/30 518/286/31 517/287/31 515/285/30
f 518/286/31 520/288/32 519/289/32 517/287/31
f 520/288/32 522/290/33 521/291/33 519/289/32
f 522/290/33 524/292/34 523/293/34 521/291/33
f 524/292/34 526/294/35 525/295/35 523/293/34
f 526/294/35 528/296/36 527/297/36 525/295/35
f 528/296/36 530/298/37 529/299/37 527/297/36
f 530/298/37 532/300/38 531/301/38 529/299/37
f 532/300/38 534/302/39 533/303/39 531/301/38
f 534/302/39 536/304/40 535/305/40 533/303/39
f 536/304/40 538/306/41 537/307/41 535/305/40
f 538/306/41 540/308/42 539/309/42 537/307/41
f 540/308/42 542/310/43 541/311/43 539/309/42
f 542/310/43 544/312/44 543/313/44 541/311/43
f 544/312/44 546/314/45 545/315/45 543/313/44
f 546/314/45 548/316/46 547/317/46 545/315/45
f 548/316/46 550/318/47 549/319/47 547/317/46
f 550/318/47 552/320/48 551/321/48 549/319/47
f 552/320/48 554/322/49 553/323/49 551/321/48
f 554/322/49 556/324/50 555/325/50 553/323/49
f 556/324/50 558/326/51 557/327/51 555/325/50
f 558/326/51 560/328/52 559/329/52 557/327/51
f 560/328/52 562/330/53 561/331/53 559/329/52
f 562/330/53 564/332/54 563/333/54 561/331/53
f 564/332/54 566/334/55 565/335/55 563/333/54
f 566/334/55 568/336/56 567/337/56 565/335/55
f 568/336/56 570/338/57 569/339/57 567/337/56
f 570/338/57 572/340/58 571/341/58 569/339/57
f 572/340/58 574/342/59 573/343/59 571/341/58
f 574/342/59 576/344/60 575/345/60 573/343/59
f 576/344/60 578/346/61 577/347/61 575/345/60
f 578/346/61 580/348/62 579/349/62 577/347/61
f 580/348/62 582/350/63 581/351/63 579/349/62
f 582/350/63 584/352/64 583/353/64 581/351/63
f 584/352/64 586/354/65 585/355/65 583/353/64
f 586/354/65 588/356/66 587/357/66 585/355/65
f 588/356/66 590/358/67 589/359/67 587/357/66
f 590/358/67 592/360/68 591/361/68 589/359/67
f 592/360/68 594/362/69 593/363/69 591/361/68
f 594/362/69 596/364/70 595/365/70 593/363/69
f 596/364/70 598/366/71 597/367/71 595/365/70
f 598/366/71 600/368/72 599/369/72 597/367/71
f 600/368/72 602/370/73 601/371/73 599/369/72
f 602/370/73 604/372/74 603/373/74 601/371/73
f 604/372/74 606/374/75 605/375/75 603/373/74
f 606/374/75 608/376/76 607/377/76 605/375/75
f 608/376/76 610/378/77 609/379/77 607/377/76
f 610/378/77 612/380/78 611/381/78 609/379/77
f 612/380/78 614/382/79 613/383/79 611/381/78
f 614/382/79 616/384/80 615/385/80 613/383/79
f 616/384/80 618/386/81 617/387/81 615/385/80
f 618/386/81 620/388/82 619/389/82 617/387/81
f 620/388/82 622/390/83 621/391/83 619/389/82
f 622/390/83 624/392/84 623/393/84 621/391/83
f 624/392/84 626/394/85 625/395/85 623/393/84
f 626/394/85 628/396/86 627/397/86 625/395/85
f 628/396/86 630/398/87 629/399/87 627/397/86
f 630/398/87 632/400/88 631/401/88 629/399/87
f 632/400/88 634/402/89 633/403/89 631/401/88
f 634/402/89 636/404/90 635/405/90 633/403/89
f 636/404/90 638/406/91 637/407/91 635/405/90
f 638/406/91 640/408/92 639/409/92 637/407/91
f 640/408/92 642/410/93 641/411/93 639/409/92
f 642/410/93 644/412/94 643/413/94 641/411/93
f 644/412/94 646/414/95 645/415/95 643/413/94
f 646/414/95 648/416/96 647/417/96 645/415/95
f 648/416/96 650/418/97 649/419/97 647/417/96
f 650/418/97 652/420/98 651/421/98 649/419/97
f 652/420/98 654/422/99 653/423/99 651/421/98
f 654/422/99 656/424/100 655/425/100 653/423/99
f 656/424/100 658/426/101 657/427/101 655/425/100
f 658/426/101 660/428/102 659/429/102 657/427/101
f 660/428/102 662/430/103 661/431/103 659/429/102
f 662/430/103 664/432/104 663/433/104 661/431/103
f 664/432/104 666/434/105 665/435/105 663/433/104
f 666/434/105 668/436/106 667/437/106 665/435/105
f 668/436/106 670/438/107 669/439/107 667/437/106
f 670/438/107 672/440/108 671/441/108 669/439/107
f 672/440/108 674/442/109 673/443/109 671/441/108
f 674/442/109 676/444/110 675/445/110 673/443/109
f 676/444/110 678/446/111 677/447/111 675/445/110
f 678/446/111 680/448/112 679/449/112 677/447/111
f 680/448/112 682/450/113 681/451/113 679/449/112
f 682/450/113 684/452/114 683/453/114 681/451/113
f 684/452/114 686/454/115 685/455/115 683/453/114
f 686/454/115 688/456/116 687/457/116 685/455/115
f 688/456/116 690/458/117 689/459/117 687/457/116
f 690/458/117 692/460/118 691/461/118 689/459/117
f 692/460/118 694/462/119 693/463/119 691/461/118
f 694/462/119 696/464/120 695/465/120 693/463/119
f 696/464/120 698/466/121 697/467/121 695/465/120
f 698/466/121 700/468/122 699/469/122 697/467/121
f 700/468/122 702/470/123 701/471/123 699/469/122
f 702/470/123 704/472/3 703/473/3 701/471/123
f 704/472/3 706/474/124 705/475/124 703/473/3
f 706/474/124 708/476/125 707/477/125 705/475/124
f 708/476/125 710/478/126 709/479/126 707/477/125
f 710/478/126 712/480/127 711/481/127 709/479/126
f 712/480/127 714/482/128 713/483/128 711/481/127
f 714/482/128 716/484/129 715/485/129 713/483/128
f 716/484/129 718/486/130 717/487/130 715/485/129
f 718/486/130 720/488/131 719/489/131 717/487/130
f 720/488/131 722/490/132 721/491/132 719/489/131
f 722/490/132 724/492/133 723/493/133 721/491/132
f 724/492/133 726/494/134 725/495/134 723/493/133
f 726/494/134 728/496/135 727/497/135 725/495/134
f 728/496/135 730/498/136 729/499/136 727/497/135
f 730/498/136 732/500/137 731/501/137 729/499/136
f 732/500/137 734/502/138 733/503/138 731/501/137
f 734/502/138 736/504/139 735/505/139 733/503/138
f 736/504/139 738/506/140 737/507/140 735/505/139
f 738/506/140 740/508/141 739/509/141 737/507/140
f 740/508/141 742/510/142 741/511/142 739/509/141
f 742/510/142 744/512/143 743/513/143 741/511/142
f 744/512/143 746/514/144 745/515/144 743/513/143
f 746/514/144 748/516/145 747/517/145 745/515/144
f 748/516/145 750/518/146 749/519/146 747/517/145
f 750/518/146 752/520/147 751/521/147 749/519/146
f 752/520/147 754/522/148 753/523/148 751/521/147
f 754/522/148 756/524/149 755/525/149 753/523/148
f 756/524/149 758/526/150 757/527/150 755/525/149
f 758/526/150 760/528/151 759/529/151 757/527/150
f 760/528/151 762/530/152 761/531/152 759/529/151
f 762/530/152 764/532/153 763/533/153 761/531/152
f 764/532/153 766/534/154 765/535/154 763/533/153
f 766/534/154 768/536/155 767/537/155 765/535/154
f 768/536/155 770/538/156 769/539/156 767/537/155
f 770/538/156 772/540/157 771/541/157 769/539/156
f 772/540/157 774/542/158 773/543/158 771/541/157
f 774/542/158 776/544/159 775/545/159 773/543/158
f 776/544/159 778/546/160 777/547/160 775/545/159
f 778/546/160 780/548/161 779/549/161 777/547/160
f 780/548/161 782/550/162 781/551/162 779/549/161
f 782/550/162 784/552/163 783/553/163 781/551/162
f 784/552/163 786/554/164 785/555/164 783/553/163
f 786/554/164 788/556/165 787/557/165 785/555/164
f 788/556/165 790/558/166 789/559/166 787/557/165
f 790/558/166 792/560/167 791/561/167 789/559/166
f 792/560/167 794/562/168 793/563/168 791/561/167
f 794/562/168 796/564/169 795/565/169 793/563/168
f 796/564/169 798/566/170 797/567/170 795/565/169
f 798/566/170 800/568/171 799/569/171 797/567/170
f 800/568/171 802/570/172 801/571/172 799/569/171
f 802/570/172 804/572/173 803/573/173 801/571/172
f 804/572/173 806/574/174 805/575/174 803/573/173
f 806/574/174 808/576/175 807/577/175 805/575/174
f 808/576/175 810/578/176 809/579/176 807/577/175
f 810/578/176 812/580/177 811/581/177 809/579/176
f 812/580/177 814/582/178 813/583/178 811/581/177
f 814/582/178 816/584/179 815/585/179 813/583/178
f 816/584/179 818/586/180 817/587/180 815/585/179
f 818/586/180 820/588/181 819/589/181 817/587/180
f 820/588/181 822/590/182 821/591/182 819/589/181
f 822/590/182 824/592/183 823/593/183 821/591/182
f 824/592/183 826/594/184 825/595/184 823/593/183
f 826/594/184 828/596/185 827/597/185 825/595/184
f 828/596/185 830/598/186 829/599/186 827/597/185
f 830/598/186 832/600/187 831/601/187 829/599/186
f 832/600/187 834/602/188 833/603/188 831/601/187
f 834/602/188 836/604/189 835/605/189 833/603/188
f 836/604/189 838/606/190 837/607/190 835/605/189
f 838/606/190 840/608/191 839/609/191 837/607/190
f 840/608/191 842/610/192 841/611/192 839/609/191
f 842/610/192 844/612/193 843/613/193 841/611/192
f 844/612/193 846/614/194 845/615/194 843/613/193
f 846/614/194 848/616/195 847/617/195 845/615/194
f 848/616/195 850/618/196 849/619/196 847/617/195
f 850/618/196 852/620/197 851/621/197 849/619/196
f 852/620/197 854/622/198 853/623/198 851/621/197
f 854/622/198 856/624/199 855/625/199 853/623/198
f 856/624/199 858/626/200 857/627/200 855/625/199
f 858/626/200 860/628/201 859/629/201 857/627/200
f 860/628/201 862/630/202 861/631/202 859/629/201
f 862/630/202 864/632/203 863/633/203 861/631/202
f 864/632/203 866/634/56 865/635/56 863/633/203
f 866/634/56 868/636/204 867/637/204 865/635/56
f 868/636/204 870/638/205 869/639/205 867/637/204
f 870/638/205 872/640/206 871/641/206 869/639/205
f 872/640/206 874/642/207 873/643/207 871/641/206
f 874/642/207 876/644/208 875/645/208 873/643/207
f 876/644/208 878/646/209 877/647/209 875/645/208
f 878/646/209 880/648/210 879/649/210 877/647/209
f 880/648/210 882/650/211 881/651/211 879/649/210
f 882/650/211 884/652/212 883/653/212 881/651/211
f 884/652/212 886/654/213 885/655/213 883/653/212
f 886/654/213 888/656/214 887/657/214 885/655/213
f 888/656/214 890/658/215 889/659/215 887/657/214
f 890/658/215 892/660/216 891/661/216 889/659/215
f 892/660/216 894/662/217 893/663/217 891/661/216
f 894/662/217 896/664/218 895/665/218 893/663/217
f 896/664/218 898/666/219 897/667/219 895/665/218
f 898/666/219 900/668/220 899/669/220 897/667/219
f 900/668/220 902/670/221 901/671/221 899/669/220
f 902/670/221 904/672/222 903/673/222 901/671/221
f 904/672/222 906/674/223 905/675/223 903/673/222
f 906/674/223 908/676/224 907/677/224 905/675/223
f 908/676/224 910/678/225 909/679/225 907/677/224
f 910/678/225 912/680/226 911/681/226 909/679/225
f 912/680/226 914/682/227 913/683/227 911/681/226
f 914/682/227 916/684/228 915/685/228 913/683/227
f 916/684/228 918/686/229 917/687/229 915/685/228
f 918/686/229 920/688/230 919/689/230 917/687/229
f 920/688/230 462/690/3 461/228/3 919/689/230
