# Blender 4.0.2
# www.blender.org
mtllib D_regular.mtl
o Text
v -0.126923 0.600000 1.350000
v -0.938461 0.600000 1.350000
v -0.938461 0.600000 -1.303846
v -0.126923 0.600000 -1.303846
v -0.066052 0.600000 -1.302805
v -0.006517 0.600000 -1.299680
v 0.051683 0.600000 -1.294471
v 0.108547 0.600000 -1.287180
v 0.164076 0.600000 -1.277805
v 0.218269 0.600000 -1.266346
v 0.271127 0.600000 -1.252805
v 0.322650 0.600000 -1.237180
v 0.372837 0.600000 -1.219471
v 0.421688 0.600000 -1.199680
v 0.469204 0.600000 -1.177805
v 0.515385 0.600000 -1.153846
v 0.560043 0.600000 -1.127818
v 0.602992 0.600000 -1.099733
v 0.644231 0.600000 -1.069592
v 0.683761 0.600000 -1.037393
v 0.721581 0.600000 -1.003139
v 0.757692 0.600000 -0.966827
v 0.792094 0.600000 -0.928459
v 0.824786 0.600000 -0.888034
v 0.855769 0.600000 -0.845553
v 0.885043 0.600000 -0.801015
v 0.912607 0.600000 -0.754421
v 0.938462 0.600000 -0.705769
v 0.962420 0.600000 -0.655168
v 0.984295 0.600000 -0.602724
v 1.004087 0.600000 -0.548438
v 1.021795 0.600000 -0.492308
v 1.037420 0.600000 -0.434335
v 1.050962 0.600000 -0.374519
v 1.062420 0.600000 -0.312861
v 1.071795 0.600000 -0.249359
v 1.079087 0.600000 -0.184015
v 1.084295 0.600000 -0.116827
v 1.087420 0.600000 -0.047797
v 1.088462 0.600000 0.023077
v 1.087420 0.600000 0.093336
v 1.084295 0.600000 0.161805
v 1.079087 0.600000 0.228485
v 1.071795 0.600000 0.293376
v 1.062420 0.600000 0.356477
v 1.050962 0.600000 0.417788
v 1.037420 0.600000 0.477310
v 1.021795 0.600000 0.535043
v 1.004087 0.600000 0.590985
v 0.984295 0.600000 0.645139
v 0.962420 0.600000 0.697503
v 0.938462 0.600000 0.748077
v 0.912593 0.600000 0.796741
v 0.884989 0.600000 0.843376
v 0.855649 0.600000 0.887981
v 0.824573 0.600000 0.930555
v 0.791760 0.600000 0.971100
v 0.757212 0.600000 1.009615
v 0.720927 0.600000 1.046100
v 0.682906 0.600000 1.080555
v 0.643149 0.600000 1.112981
v 0.601656 0.600000 1.143376
v 0.558427 0.600000 1.171741
v 0.513462 0.600000 1.198077
v 0.467001 0.600000 1.222342
v 0.419284 0.600000 1.244498
v 0.370313 0.600000 1.264543
v 0.320085 0.600000 1.282479
v 0.268603 0.600000 1.298304
v 0.215865 0.600000 1.312019
v 0.161872 0.600000 1.323624
v 0.106624 0.600000 1.333120
v 0.050120 0.600000 1.340505
v -0.007639 0.600000 1.345780
v -0.066653 0.600000 1.348945
v -0.661538 0.600000 1.088461
v -0.126923 0.600000 1.088461
v -0.053352 0.600000 1.086578
v 0.017361 0.600000 1.080929
v 0.085216 0.600000 1.071514
v 0.150214 0.600000 1.058333
v 0.212353 0.600000 1.041386
v 0.271635 0.600000 1.020673
v 0.328058 0.600000 0.996194
v 0.381624 0.600000 0.967949
v 0.432332 0.600000 0.935937
v 0.480182 0.600000 0.900160
v 0.525174 0.600000 0.860617
v 0.567308 0.600000 0.817308
v 0.606317 0.600000 0.770366
v 0.641934 0.600000 0.719925
v 0.674159 0.600000 0.665985
v 0.702992 0.600000 0.608547
v 0.728432 0.600000 0.547609
v 0.750481 0.600000 0.483173
v 0.769137 0.600000 0.415238
v 0.784402 0.600000 0.343803
v 0.796274 0.600000 0.268870
v 0.804754 0.600000 0.190438
v 0.809843 0.600000 0.108507
v 0.811539 0.600000 0.023077
v 0.809843 0.600000 -0.062954
v 0.804754 0.600000 -0.145406
v 0.796274 0.600000 -0.224279
v 0.784402 0.600000 -0.299573
v 0.769137 0.600000 -0.371287
v 0.750481 0.600000 -0.439423
v 0.728432 0.600000 -0.503980
v 0.702991 0.600000 -0.564957
v 0.674159 0.600000 -0.622356
v 0.641934 0.600000 -0.676175
v 0.606317 0.600000 -0.726416
v 0.567308 0.600000 -0.773077
v 0.525174 0.600000 -0.816079
v 0.480182 0.600000 -0.855342
v 0.432332 0.600000 -0.890865
v 0.381624 0.600000 -0.922650
v 0.328058 0.600000 -0.950694
v 0.271635 0.600000 -0.975000
v 0.212353 0.600000 -0.995566
v 0.150214 0.600000 -1.012393
v 0.085216 0.600000 -1.025481
v 0.017361 0.600000 -1.034829
v -0.053352 0.600000 -1.040438
v -0.126923 0.600000 -1.042308
v -0.661538 0.600000 -1.042308
v -0.126923 0.000000 1.350000
v -0.938461 0.000000 1.350000
v -0.938461 0.000000 -1.303846
v -0.126923 0.000000 -1.303846
v -0.066052 0.000000 -1.302805
v -0.006517 0.000000 -1.299680
v 0.051683 0.000000 -1.294471
v 0.108547 0.000000 -1.287180
v 0.164076 0.000000 -1.277805
v 0.218269 0.000000 -1.266346
v 0.271127 0.000000 -1.252805
v 0.322650 0.000000 -1.237180
v 0.372837 0.000000 -1.219471
v 0.421688 0.000000 -1.199680
v 0.469204 0.000000 -1.177805
v 0.515385 0.000000 -1.153846
v 0.560043 0.000000 -1.127818
v 0.602992 0.000000 -1.099733
v 0.644231 0.000000 -1.069592
v 0.683761 0.000000 -1.037393
v 0.721581 0.000000 -1.003139
v 0.757692 0.000000 -0.966827
v 0.792094 0.000000 -0.928459
v 0.824786 0.000000 -0.888034
v 0.855769 0.000000 -0.845553
v 0.885043 0.000000 -0.801015
v 0.912607 0.000000 -0.754421
v 0.938462 0.000000 -0.705769
v 0.962420 0.000000 -0.655168
v 0.984295 0.000000 -0.602724
v 1.004087 0.000000 -0.548438
v 1.021795 0.000000 -0.492308
v 1.037420 0.000000 -0.434335
v 1.050962 0.000000 -0.374519
v 1.062420 0.000000 -0.312861
v 1.071795 0.000000 -0.249359
v 1.079087 0.000000 -0.184015
v 1.084295 0.000000 -0.116827
v 1.087420 0.000000 -0.047797
v 1.088462 0.000000 0.023077
v 1.087420 0.000000 0.093336
v 1.084295 0.000000 0.161805
v 1.079087 0.000000 0.228485
v 1.071795 0.000000 0.293376
v 1.062420 0.000000 0.356477
v 1.050962 0.000000 0.417788
v 1.037420 0.000000 0.477310
v 1.021795 0.000000 0.535043
v 1.004087 0.000000 0.590985
v 0.984295 0.000000 0.645139
v 0.962420 0.000000 0.697503
v 0.938462 0.000000 0.748077
v 0.912593 0.000000 0.796741
v 0.884989 0.000000 0.843376
v 0.855649 0.000000 0.887981
v 0.824573 0.000000 0.930555
v 0.791760 0.000000 0.971100
v 0.757212 0.000000 1.009615
v 0.720927 0.000000 1.046100
v 0.682906 0.000000 1.080555
v 0.643149 0.000000 1.112981
v 0.601656 0.000000 1.143376
v 0.558427 0.000000 1.171741
v 0.513462 0.000000 1.198077
v 0.467001 0.000000 1.222342
v 0.419284 0.000000 1.244498
v 0.370313 0.000000 1.264543
v 0.320085 0.000000 1.282479
v 0.268603 0.000000 1.298304
v 0.215865 0.000000 1.312019
v 0.161872 0.000000 1.323624
v 0.106624 0.000000 1.333120
v 0.050120 0.000000 1.340505
v -0.007639 0.000000 1.345780
v -0.066653 0.000000 1.348945
v -0.661538 0.000000 1.088461
v -0.126923 0.000000 1.088461
v -0.053352 0.000000 1.086578
v 0.017361 0.000000 1.080929
v 0.085216 0.000000 1.071514
v 0.150214 0.000000 1.058333
v 0.212353 0.000000 1.041386
v 0.271635 0.000000 1.020673
v 0.328058 0.000000 0.996194
v 0.381624 0.000000 0.967949
v 0.432332 0.000000 0.935937
v 0.480182 0.000000 0.900160
v 0.525174 0.000000 0.860617
v 0.567308 0.000000 0.817308
v 0.606317 0.000000 0.770366
v 0.641934 0.000000 0.719925
v 0.674159 0.000000 0.665985
v 0.702992 0.000000 0.608547
v 0.728432 0.000000 0.547609
v 0.750481 0.000000 0.483173
v 0.769137 0.000000 0.415238
v 0.784402 0.000000 0.343803
v 0.796274 0.000000 0.268870
v 0.804754 0.000000 0.190438
v 0.809843 0.000000 0.108507
v 0.811539 0.000000 0.023077
v 0.809843 0.000000 -0.062954
v 0.804754 0.000000 -0.145406
v 0.796274 0.000000 -0.224279
v 0.784402 0.000000 -0.299573
v 0.769137 0.000000 -0.371287
v 0.750481 0.000000 -0.439423
v 0.728432 0.000000 -0.503980
v 0.702991 0.000000 -0.564957
v 0.674159 0.000000 -0.622356
v 0.641934 0.000000 -0.676175
v 0.606317 0.000000 -0.726416
v 0.567308 0.000000 -0.773077
v 0.525174 0.000000 -0.816079
v 0.480182 0.000000 -0.855342
v 0.432332 0.000000 -0.890865
v 0.381624 0.000000 -0.922650
v 0.328058 0.000000 -0.950694
v 0.271635 0.000000 -0.975000
v 0.212353 0.000000 -0.995566
v 0.150214 0.000000 -1.012393
v 0.085216 0.000000 -1.025481
v 0.017361 0.000000 -1.034829
v -0.053352 0.000000 -1.040438
v -0.126923 0.000000 -1.042308
v -0.661538 0.000000 -1.042308
v -0.126923 0.000000 1.350000
v -0.126923 0.600000 1.350000
v -0.938461 0.000000 1.350000
v -0.938461 0.600000 1.350000
v -0.938461 0.000000 -1.303846
v -0.938461 0.600000 -1.303846
v -0.126923 0.000000 -1.303846
v -0.126923 0.600000 -1.303846
v -0.066052 0.000000 -1.302805
v -0.066052 0.600000 -1.302805
v -0.006517 0.000000 -1.299680
v -0.006517 0.600000 -1.299680
v 0.051683 0.000000 -1.294471
v 0.051683 0.600000 -1.294471
v 0.108547 0.000000 -1.287180
v 0.108547 0.600000 -1.287180
v 0.164076 0.000000 -1.277805
v 0.164076 0.600000 -1.277805
v 0.218269 0.000000 -1.266346
v 0.218269 0.600000 -1.266346
v 0.271127 0.000000 -1.252805
v 0.271127 0.600000 -1.252805
v 0.322650 0.000000 -1.237180
v 0.322650 0.600000 -1.237180
v 0.372837 0.000000 -1.219471
v 0.372837 0.600000 -1.219471
v 0.421688 0.000000 -1.199680
v 0.421688 0.600000 -1.199680
v 0.469204 0.000000 -1.177805
v 0.469204 0.600000 -1.177805
v 0.515385 0.000000 -1.153846
v 0.515385 0.600000 -1.153846
v 0.560043 0.000000 -1.127818
v 0.560043 0.600000 -1.127818
v 0.602992 0.000000 -1.099733
v 0.602992 0.600000 -1.099733
v 0.644231 0.000000 -1.069592
v 0.644231 0.600000 -1.069592
v 0.683761 0.000000 -1.037393
v 0.683761 0.600000 -1.037393
v 0.721581 0.000000 -1.003139
v 0.721581 0.600000 -1.003139
v 0.757692 0.000000 -0.966827
v 0.757692 0.600000 -0.966827
v 0.792094 0.000000 -0.928459
v 0.792094 0.600000 -0.928459
v 0.824786 0.000000 -0.888034
v 0.824786 0.600000 -0.888034
v 0.855769 0.000000 -0.845553
v 0.855769 0.600000 -0.845553
v 0.885043 0.000000 -0.801015
v 0.885043 0.600000 -0.801015
v 0.912607 0.000000 -0.754421
v 0.912607 0.600000 -0.754421
v 0.938462 0.000000 -0.705769
v 0.938462 0.600000 -0.705769
v 0.962420 0.000000 -0.655168
v 0.962420 0.600000 -0.655168
v 0.984295 0.000000 -0.602724
v 0.984295 0.600000 -0.602724
v 1.004087 0.000000 -0.548438
v 1.004087 0.600000 -0.548438
v 1.021795 0.000000 -0.492308
v 1.021795 0.600000 -0.492308
v 1.037420 0.000000 -0.434335
v 1.037420 0.600000 -0.434335
v 1.050962 0.000000 -0.374519
v 1.050962 0.600000 -0.374519
v 1.062420 0.000000 -0.312861
v 1.062420 0.600000 -0.312861
v 1.071795 0.000000 -0.249359
v 1.071795 0.600000 -0.249359
v 1.079087 0.000000 -0.184015
v 1.079087 0.600000 -0.184015
v 1.084295 0.000000 -0.116827
v 1.084295 0.600000 -0.116827
v 1.087420 0.000000 -0.047797
v 1.087420 0.600000 -0.047797
v 1.088462 0.000000 0.023077
v 1.088462 0.600000 0.023077
v 1.087420 0.000000 0.093336
v 1.087420 0.600000 0.093336
v 1.084295 0.000000 0.161805
v 1.084295 0.600000 0.161805
v 1.079087 0.000000 0.228485
v 1.079087 0.600000 0.228485
v 1.071795 0.000000 0.293376
v 1.071795 0.600000 0.293376
v 1.062420 0.000000 0.356477
v 1.062420 0.600000 0.356477
v 1.050962 0.000000 0.417788
v 1.050962 0.600000 0.417788
v 1.037420 0.000000 0.477310
v 1.037420 0.600000 0.477310
v 1.021795 0.000000 0.535043
v 1.021795 0.600000 0.535043
v 1.004087 0.000000 0.590985
v 1.004087 0.600000 0.590985
v 0.984295 0.000000 0.645139
v 0.984295 0.600000 0.645139
v 0.962420 0.000000 0.697503
v 0.962420 0.600000 0.697503
v 0.938462 0.000000 0.748077
v 0.938462 0.600000 0.748077
v 0.912593 0.000000 0.796741
v 0.912593 0.600000 0.796741
v 0.884989 0.000000 0.843376
v 0.884989 0.600000 0.843376
v 0.855649 0.000000 0.887981
v 0.855649 0.600000 0.887981
v 0.824573 0.000000 0.930555
v 0.824573 0.600000 0.930555
v 0.791760 0.000000 0.971100
v 0.791760 0.600000 0.971100
v 0.757212 0.000000 1.009615
v 0.757212 0.600000 1.009615
v 0.720927 0.000000 1.046100
v 0.720927 0.600000 1.046100
v 0.682906 0.000000 1.080555
v 0.682906 0.600000 1.080555
v 0.643149 0.000000 1.112981
v 0.643149 0.600000 1.112981
v 0.601656 0.000000 1.143376
v 0.601656 0.600000 1.143376
v 0.558427 0.000000 1.171741
v 0.558427 0.600000 1.171741
v 0.513462 0.000000 1.198077
v 0.513462 0.600000 1.198077
v 0.467001 0.000000 1.222342
v 0.467001 0.600000 1.222342
v 0.419284 0.000000 1.244498
v 0.419284 0.600000 1.244498
v 0.370313 0.000000 1.264543
v 0.370313 0.600000 1.264543
v 0.320085 0.000000 1.282479
v 0.320085 0.600000 1.282479
v 0.268603 0.000000 1.298304
v 0.268603 0.600000 1.298304
v 0.215865 0.000000 1.312019
v 0.215865 0.600000 1.312019
v 0.161872 0.000000 1.323624
v 0.161872 0.600000 1.323624
v 0.106624 0.000000 1.333120
v 0.106624 0.600000 1.333120
v 0.050120 0.000000 1.340505
v 0.050120 0.600000 1.340505
v -0.007639 0.000000 1.345780
v -0.007639 0.600000 1.345780
v -0.066653 0.000000 1.348945
v -0.066653 0.600000 1.348945
v -0.661538 0.000000 1.088461
v -0.661538 0.600000 1.088461
v -0.126923 0.000000 1.088461
v -0.126923 0.600000 1.088461
v -0.053352 0.000000 1.086578
v -0.053352 0.600000 1.086578
v 0.017361 0.000000 1.080929
v 0.017361 0.600000 1.080929
v 0.085216 0.000000 1.071514
v 0.085216 0.600000 1.071514
v 0.150214 0.000000 1.058333
v 0.150214 0.600000 1.058333
v 0.212353 0.000000 1.041386
v 0.212353 0.600000 1.041386
v 0.271635 0.000000 1.020673
v 0.271635 0.600000 1.020673
v 0.328058 0.000000 0.996194
v 0.328058 0.600000 0.996194
v 0.381624 0.000000 0.967949
v 0.381624 0.600000 0.967949
v 0.432332 0.000000 0.935937
v 0.432332 0.600000 0.935937
v 0.480182 0.000000 0.900160
v 0.480182 0.600000 0.900160
v 0.525174 0.000000 0.860617
v 0.525174 0.600000 0.860617
v 0.567308 0.000000 0.817308
v 0.567308 0.600000 0.817308
v 0.606317 0.000000 0.770366
v 0.606317 0.600000 0.770366
v 0.641934 0.000000 0.719925
v 0.641934 0.600000 0.719925
v 0.674159 0.000000 0.665985
v 0.674159 0.600000 0.665985
v 0.702992 0.000000 0.608547
v 0.702992 0.600000 0.608547
v 0.728432 0.000000 0.547609
v 0.728432 0.600000 0.547609
v 0.750481 0.000000 0.483173
v 0.750481 0.600000 0.483173
v 0.769137 0.000000 0.415238
v 0.769137 0.600000 0.415238
v 0.784402 0.000000 0.343803
v 0.784402 0.600000 0.343803
v 0.796274 0.000000 0.268870
v 0.796274 0.600000 0.268870
v 0.804754 0.000000 0.190438
v 0.804754 0.600000 0.190438
v 0.809843 0.000000 0.108507
v 0.809843 0.600000 0.108507
v 0.811539 0.000000 0.023077
v 0.811539 0.600000 0.023077
v 0.809843 0.000000 -0.062954
v 0.809843 0.600000 -0.062954
v 0.804754 0.000000 -0.145406
v 0.804754 0.600000 -0.145406
v 0.796274 0.000000 -0.224279
v 0.796274 0.600000 -0.224279
v 0.784402 0.000000 -0.299573
v 0.784402 0.600000 -0.299573
v 0.769137 0.000000 -0.371287
v 0.769137 0.600000 -0.371287
v 0.750481 0.000000 -0.439423
v 0.750481 0.600000 -0.439423
v 0.728432 0.000000 -0.503980
v 0.728432 0.600000 -0.503980
v 0.702991 0.000000 -0.564957
v 0.702991 0.600000 -0.564957
v 0.674159 0.000000 -0.622356
v 0.674159 0.600000 -0.622356
v 0.641934 0.000000 -0.676175
v 0.641934 0.600000 -0.676175
v 0.606317 0.000000 -0.726416
v 0.606317 0.600000 -0.726416
v 0.567308 0.000000 -0.773077
v 0.567308 0.600000 -0.773077
v 0.525174 0.000000 -0.816079
v 0.525174 0.600000 -0.816079
v 0.480182 0.000000 -0.855342
v 0.480182 0.600000 -0.855342
v 0.432332 0.000000 -0.890865
v 0.432332 0.600000 -0.890865
v 0.381624 0.000000 -0.922650
v 0.381624 0.600000 -0.922650
v 0.328058 0.000000 -0.950694
v 0.328058 0.600000 -0.950694
v 0.271635 0.000000 -0.975000
v 0.271635 0.600000 -0.975000
v 0.212353 0.000000 -0.995566
v 0.212353 0.600000 -0.995566
v 0.150214 0.000000 -1.012393
v 0.150214 0.600000 -1.012393
v 0.085216 0.000000 -1.025481
v 0.085216 0.600000 -1.025481
v 0.017361 0.000000 -1.034829
v 0.017361 0.600000 -1.034829
v -0.053352 0.000000 -1.040438
v -0.053352 0.600000 -1.040438
v -0.126923 0.000000 -1.042308
v -0.126923 0.600000 -1.042308
v -0.661538 0.000000 -1.042308
v -0.661538 0.600000 -1.042308
vn -0.0000 1.0000 -0.0000
vn -0.0000 -1.0000 -0.0000
vn 0.0088 -0.0000 1.0000
vn -0.7071 -0.0000 0.7071
vn -0.7071 -0.0000 -0.7071
vn 0.0086 -0.0000 -1.0000
vn 0.0348 -0.0000 -0.9994
vn 0.0708 -0.0000 -0.9975
vn 0.1082 -0.0000 -0.9941
vn 0.1469 -0.0000 -0.9892
vn 0.1867 -0.0000 -0.9824
vn 0.2276 -0.0000 -0.9738
vn 0.2693 -0.0000 -0.9631
vn 0.3116 -0.0000 -0.9502
vn 0.3542 -0.0000 -0.9352
vn 0.3969 -0.0000 -0.9178
vn 0.4395 -0.0000 -0.8983
vn 0.4822 -0.0000 -0.8761
vn 0.5256 -0.0000 -0.8507
vn 0.5689 -0.0000 -0.8224
vn 0.6110 -0.0000 -0.7916
vn 0.6516 -0.0000 -0.7585
vn 0.6904 -0.0000 -0.7234
vn 0.7270 -0.0000 -0.6866
vn 0.7613 -0.0000 -0.6484
vn 0.7930 -0.0000 -0.6092
vn 0.8220 -0.0000 -0.5694
vn 0.8484 -0.0000 -0.5294
vn 0.8721 -0.0000 -0.4893
vn 0.8937 -0.0000 -0.4487
vn 0.9136 -0.0000 -0.4066
vn 0.9315 -0.0000 -0.3638
vn 0.9468 -0.0000 -0.3218
vn 0.9598 -0.0000 -0.2806
vn 0.9706 -0.0000 -0.2406
vn 0.9794 -0.0000 -0.2018
vn 0.9864 -0.0000 -0.1644
vn 0.9917 -0.0000 -0.1285
vn 0.9956 -0.0000 -0.0941
vn 0.9981 -0.0000 -0.0613
vn 0.9996 -0.0000 -0.0300
vn 1.0000 -0.0000 0.0001
vn 0.9995 -0.0000 0.0302
vn 0.9981 -0.0000 0.0617
vn 0.9955 -0.0000 0.0948
vn 0.9916 -0.0000 0.1293
vn 0.9862 -0.0000 0.1654
vn 0.9792 -0.0000 0.2028
vn 0.9704 -0.0000 0.2416
vn 0.9595 -0.0000 0.2816
vn 0.9465 -0.0000 0.3226
vn 0.9312 -0.0000 0.3645
vn 0.9135 -0.0000 0.4069
vn 0.8936 -0.0000 0.4489
vn 0.8720 -0.0000 0.4895
vn 0.8482 -0.0000 0.5296
vn 0.8218 -0.0000 0.5697
vn 0.7928 -0.0000 0.6095
vn 0.7611 -0.0000 0.6486
vn 0.7270 -0.0000 0.6867
vn 0.6905 -0.0000 0.7233
vn 0.6520 -0.0000 0.7582
vn 0.6117 -0.0000 0.7911
vn 0.5700 -0.0000 0.8217
vn 0.5272 -0.0000 0.8498
vn 0.4843 -0.0000 0.8749
vn 0.4422 -0.0000 0.8969
vn 0.4001 -0.0000 0.9165
vn 0.3576 -0.0000 0.9339
vn 0.3151 -0.0000 0.9490
vn 0.2728 -0.0000 0.9621
vn 0.2310 -0.0000 0.9730
vn 0.1898 -0.0000 0.9818
vn 0.1495 -0.0000 0.9888
vn 0.1103 -0.0000 0.9939
vn 0.0723 -0.0000 0.9974
vn 0.0355 -0.0000 0.9994
vn 0.7071 -0.0000 -0.7071
vn -0.0128 -0.0000 -0.9999
vn -0.0526 -0.0000 -0.9986
vn -0.1086 -0.0000 -0.9941
vn -0.1682 -0.0000 -0.9858
vn -0.2311 -0.0000 -0.9729
vn -0.2967 -0.0000 -0.9550
vn -0.3642 -0.0000 -0.9313
vn -0.4325 -0.0000 -0.9016
vn -0.5005 -0.0000 -0.8657
vn -0.5668 -0.0000 -0.8239
vn -0.6300 -0.0000 -0.7766
vn -0.6890 -0.0000 -0.7248
vn -0.7435 -0.0000 -0.6687
vn -0.7936 -0.0000 -0.6084
vn -0.8383 -0.0000 -0.5452
vn -0.8767 -0.0000 -0.4811
vn -0.9088 -0.0000 -0.4172
vn -0.9350 -0.0000 -0.3547
vn -0.9557 -0.0000 -0.2944
vn -0.9715 -0.0000 -0.2370
vn -0.9832 -0.0000 -0.1828
vn -0.9912 -0.0000 -0.1320
vn -0.9964 -0.0000 -0.0848
vn -0.9992 -0.0000 -0.0409
vn -1.0000 -0.0000 -0.0001
vn -0.9992 -0.0000 0.0407
vn -0.9964 -0.0000 0.0843
vn -0.9913 -0.0000 0.1314
vn -0.9833 -0.0000 0.1820
vn -0.9717 -0.0000 0.2362
vn -0.9559 -0.0000 0.2938
vn -0.9351 -0.0000 0.3543
vn -0.9088 -0.0000 0.4172
vn -0.8764 -0.0000 0.4816
vn -0.8375 -0.0000 0.5464
vn -0.7921 -0.0000 0.6104
vn -0.7413 -0.0000 0.6711
vn -0.6864 -0.0000 0.7272
vn -0.6273 -0.0000 0.7788
vn -0.5640 -0.0000 0.8258
vn -0.4978 -0.0000 0.8673
vn -0.4300 -0.0000 0.9028
vn -0.3619 -0.0000 0.9322
vn -0.2947 -0.0000 0.9556
vn -0.2295 -0.0000 0.9733
vn -0.1670 -0.0000 0.9860
vn -0.1078 -0.0000 0.9942
vn -0.0523 -0.0000 0.9986
vn -0.0127 -0.0000 0.9999
vn 0.7071 -0.0000 0.7071
vt 0.008000 0.000000
vt 1.000000 0.000000
vt 0.016000 0.000000
vt 0.024000 0.000000
vt 0.032000 0.000000
vt 0.040000 0.000000
vt 0.048000 0.000000
vt 0.056000 0.000000
vt 0.064000 0.000000
vt 0.072000 0.000000
vt 0.080000 0.000000
vt 0.088000 0.000000
vt 0.096000 0.000000
vt 0.104000 0.000000
vt 0.112000 0.000000
vt 0.120000 0.000000
vt 0.128000 0.000000
vt 0.136000 0.000000
vt 0.144000 0.000000
vt 0.992000 0.000000
vt 0.152000 0.000000
vt 0.600000 0.000000
vt 0.984000 0.000000
vt 0.976000 0.000000
vt 0.160000 0.000000
vt 0.968000 0.000000
vt 0.960000 0.000000
vt 0.952000 0.000000
vt 0.168000 0.000000
vt 0.944000 0.000000
vt 0.936000 0.000000
vt 0.176000 0.000000
vt 0.928000 0.000000
vt 0.184000 0.000000
vt 0.920000 0.000000
vt 0.912000 0.000000
vt 0.192000 0.000000
vt 0.904000 0.000000
vt 0.200000 0.000000
vt 0.896000 0.000000
vt 0.208000 0.000000
vt 0.888000 0.000000
vt 0.216000 0.000000
vt 0.880000 0.000000
vt 0.224000 0.000000
vt 0.872000 0.000000
vt 0.232000 0.000000
vt 0.864000 0.000000
vt 0.240000 0.000000
vt 0.856000 0.000000
vt 0.248000 0.000000
vt 0.848000 0.000000
vt 0.256000 0.000000
vt 0.840000 0.000000
vt 0.264000 0.000000
vt 0.272000 0.000000
vt 0.832000 0.000000
vt 0.280000 0.000000
vt 0.824000 0.000000
vt 0.288000 0.000000
vt 0.816000 0.000000
vt 0.296000 0.000000
vt 0.808000 0.000000
vt 0.304000 0.000000
vt 0.800000 0.000000
vt 0.312000 0.000000
vt 0.792000 0.000000
vt 0.320000 0.000000
vt 0.328000 0.000000
vt 0.784000 0.000000
vt 0.336000 0.000000
vt 0.776000 0.000000
vt 0.344000 0.000000
vt 0.768000 0.000000
vt 0.352000 0.000000
vt 0.760000 0.000000
vt 0.360000 0.000000
vt 0.752000 0.000000
vt 0.368000 0.000000
vt 0.376000 0.000000
vt 0.744000 0.000000
vt 0.384000 0.000000
vt 0.736000 0.000000
vt 0.392000 0.000000
vt 0.728000 0.000000
vt 0.400000 0.000000
vt 0.720000 0.000000
vt 0.408000 0.000000
vt 0.712000 0.000000
vt 0.416000 0.000000
vt 0.704000 0.000000
vt 0.424000 0.000000
vt 0.696000 0.000000
vt 0.432000 0.000000
vt 0.688000 0.000000
vt 0.440000 0.000000
vt 0.680000 0.000000
vt 0.448000 0.000000
vt 0.672000 0.000000
vt 0.664000 0.000000
vt 0.456000 0.000000
vt 0.656000 0.000000
vt 0.464000 0.000000
vt 0.648000 0.000000
vt 0.640000 0.000000
vt 0.472000 0.000000
vt 0.632000 0.000000
vt 0.624000 0.000000
vt 0.480000 0.000000
vt 0.616000 0.000000
vt 0.608000 0.000000
vt 0.488000 0.000000
vt 0.496000 0.000000
vt 0.504000 0.000000
vt 0.512000 0.000000
vt 0.520000 0.000000
vt 0.528000 0.000000
vt 0.536000 0.000000
vt 0.544000 0.000000
vt 0.552000 0.000000
vt 0.560000 0.000000
vt 0.568000 0.000000
vt 0.576000 0.000000
vt 0.584000 0.000000
vt 0.592000 0.000000
vt 0.000000 0.000000
vt 0.000000 1.000000
vt 0.013333 1.000000
vt 0.013333 0.000000
vt 0.026667 1.000000
vt 0.026667 0.000000
vt 0.040000 1.000000
vt 0.053333 1.000000
vt 0.053333 0.000000
vt 0.066667 1.000000
vt 0.066667 0.000000
vt 0.080000 1.000000
vt 0.093333 1.000000
vt 0.093333 0.000000
vt 0.106667 1.000000
vt 0.106667 0.000000
vt 0.120000 1.000000
vt 0.133333 1.000000
vt 0.133333 0.000000
vt 0.146667 1.000000
vt 0.146667 0.000000
vt 0.160000 1.000000
vt 0.173333 1.000000
vt 0.173333 0.000000
vt 0.186667 1.000000
vt 0.186667 0.000000
vt 0.200000 1.000000
vt 0.213333 1.000000
vt 0.213333 0.000000
vt 0.226667 1.000000
vt 0.226667 0.000000
vt 0.240000 1.000000
vt 0.253333 1.000000
vt 0.253333 0.000000
vt 0.266667 1.000000
vt 0.266667 0.000000
vt 0.280000 1.000000
vt 0.293333 1.000000
vt 0.293333 0.000000
vt 0.306667 1.000000
vt 0.306667 0.000000
vt 0.320000 1.000000
vt 0.333333 1.000000
vt 0.333333 0.000000
vt 0.346667 1.000000
vt 0.346667 0.000000
vt 0.360000 1.000000
vt 0.373333 1.000000
vt 0.373333 0.000000
vt 0.386667 1.000000
vt 0.386667 0.000000
vt 0.400000 1.000000
vt 0.413333 1.000000
vt 0.413333 0.000000
vt 0.426667 1.000000
vt 0.426667 0.000000
vt 0.440000 1.000000
vt 0.453333 1.000000
vt 0.453333 0.000000
vt 0.466667 1.000000
vt 0.466667 0.000000
vt 0.480000 1.000000
vt 0.493333 1.000000
vt 0.493333 0.000000
vt 0.506667 1.000000
vt 0.506667 0.000000
vt 0.520000 1.000000
vt 0.533333 1.000000
vt 0.533333 0.000000
vt 0.546667 1.000000
vt 0.546667 0.000000
vt 0.560000 1.000000
vt 0.573333 1.000000
vt 0.573333 0.000000
vt 0.586667 1.000000
vt 0.586667 0.000000
vt 0.600000 1.000000
vt 0.613333 1.000000
vt 0.613333 0.000000
vt 0.626667 1.000000
vt 0.626667 0.000000
vt 0.640000 1.000000
vt 0.653333 1.000000
vt 0.653333 0.000000
vt 0.666667 1.000000
vt 0.666667 0.000000
vt 0.680000 1.000000
vt 0.693333 1.000000
vt 0.693333 0.000000
vt 0.706667 1.000000
vt 0.706667 0.000000
vt 0.720000 1.000000
vt 0.733333 1.000000
vt 0.733333 0.000000
vt 0.746667 1.000000
vt 0.746667 0.000000
vt 0.760000 1.000000
vt 0.773333 1.000000
vt 0.773333 0.000000
vt 0.786667 1.000000
vt 0.786667 0.000000
vt 0.800000 1.000000
vt 0.813333 1.000000
vt 0.813333 0.000000
vt 0.826667 1.000000
vt 0.826667 0.000000
vt 0.840000 1.000000
vt 0.853333 1.000000
vt 0.853333 0.000000
vt 0.866667 1.000000
vt 0.866667 0.000000
vt 0.880000 1.000000
vt 0.893333 1.000000
vt 0.893333 0.000000
vt 0.906667 1.000000
vt 0.906667 0.000000
vt 0.920000 1.000000
vt 0.933333 1.000000
vt 0.933333 0.000000
vt 0.946667 1.000000
vt 0.946667 0.000000
vt 0.960000 1.000000
vt 0.973333 1.000000
vt 0.973333 0.000000
vt 0.986667 1.000000
vt 0.986667 0.000000
vt 1.000000 1.000000
vt 0.019608 1.000000
vt 0.019608 0.000000
vt 0.039216 1.000000
vt 0.039216 0.000000
vt 0.058824 1.000000
vt 0.058824 0.000000
vt 0.078431 1.000000
vt 0.078431 0.000000
vt 0.098039 1.000000
vt 0.098039 0.000000
vt 0.117647 1.000000
vt 0.117647 0.000000
vt 0.137255 1.000000
vt 0.137255 0.000000
vt 0.156863 1.000000
vt 0.156863 0.000000
vt 0.176471 1.000000
vt 0.176471 0.000000
vt 0.196078 1.000000
vt 0.196078 0.000000
vt 0.215686 1.000000
vt 0.215686 0.000000
vt 0.235294 1.000000
vt 0.235294 0.000000
vt 0.254902 1.000000
vt 0.254902 0.000000
vt 0.274510 1.000000
vt 0.274510 0.000000
vt 0.294118 1.000000
vt 0.294118 0.000000
vt 0.313726 1.000000
vt 0.313726 0.000000
vt 0.352941 1.000000
vt 0.352941 0.000000
vt 0.372549 1.000000
vt 0.372549 0.000000
vt 0.392157 1.000000
vt 0.392157 0.000000
vt 0.411765 1.000000
vt 0.411765 0.000000
vt 0.431373 1.000000
vt 0.431373 0.000000
vt 0.450980 1.000000
vt 0.450980 0.000000
vt 0.470588 1.000000
vt 0.470588 0.000000
vt 0.490196 1.000000
vt 0.490196 0.000000
vt 0.509804 1.000000
vt 0.509804 0.000000
vt 0.529412 1.000000
vt 0.529412 0.000000
vt 0.549020 1.000000
vt 0.549020 0.000000
vt 0.568627 1.000000
vt 0.568627 0.000000
vt 0.588235 1.000000
vt 0.588235 0.000000
vt 0.607843 1.000000
vt 0.607843 0.000000
vt 0.627451 1.000000
vt 0.627451 0.000000
vt 0.647059 1.000000
vt 0.647059 0.000000
vt 0.686275 1.000000
vt 0.686275 0.000000
vt 0.705882 1.000000
vt 0.705882 0.000000
vt 0.725490 1.000000
vt 0.725490 0.000000
vt 0.745098 1.000000
vt 0.745098 0.000000
vt 0.764706 1.000000
vt 0.764706 0.000000
vt 0.784314 1.000000
vt 0.784314 0.000000
vt 0.803922 1.000000
vt 0.803922 0.000000
vt 0.823529 1.000000
vt 0.823529 0.000000
vt 0.843137 1.000000
vt 0.843137 0.000000
vt 0.862745 1.000000
vt 0.862745 0.000000
vt 0.882353 1.000000
vt 0.882353 0.000000
vt 0.901961 1.000000
vt 0.901961 0.000000
vt 0.921569 1.000000
vt 0.921569 0.000000
vt 0.941176 1.000000
vt 0.941176 0.000000
vt 0.960784 1.000000
vt 0.960784 0.000000
vt 0.980392 1.000000
vt 0.980392 0.000000
s 0
usemtl Material.001
f 2/1/1 126/2/1 3/3/1
f 126/2/1 4/4/1 3/3/1
f 126/2/1 5/5/1 4/4/1
f 126/2/1 6/6/1 5/5/1
f 126/2/1 7/7/1 6/6/1
f 126/2/1 8/8/1 7/7/1
f 126/2/1 9/9/1 8/8/1
f 126/2/1 10/10/1 9/9/1
f 126/2/1 11/11/1 10/10/1
f 126/2/1 12/12/1 11/11/1
f 126/2/1 13/13/1 12/12/1
f 126/2/1 14/14/1 13/13/1
f 126/2/1 15/15/1 14/14/1
f 126/2/1 16/16/1 15/15/1
f 126/2/1 17/17/1 16/16/1
f 126/2/1 18/18/1 17/17/1
f 126/2/1 19/19/1 18/18/1
f 126/2/1 125/20/1 19/19/1
f 125/20/1 20/21/1 19/19/1
f 2/1/1 76/22/1 126/2/1
f 124/23/1 20/21/1 125/20/1
f 123/24/1 20/21/1 124/23/1
f 123/24/1 21/25/1 20/21/1
f 122/26/1 21/25/1 123/24/1
f 121/27/1 21/25/1 122/26/1
f 120/28/1 21/25/1 121/27/1
f 120/28/1 22/29/1 21/25/1
f 119/30/1 22/29/1 120/28/1
f 118/31/1 22/29/1 119/30/1
f 118/31/1 23/32/1 22/29/1
f 117/33/1 23/32/1 118/31/1
f 117/33/1 24/34/1 23/32/1
f 116/35/1 24/34/1 117/33/1
f 115/36/1 24/34/1 116/35/1
f 115/36/1 25/37/1 24/34/1
f 114/38/1 25/37/1 115/36/1
f 114/38/1 26/39/1 25/37/1
f 113/40/1 26/39/1 114/38/1
f 113/40/1 27/41/1 26/39/1
f 112/42/1 27/41/1 113/40/1
f 112/42/1 28/43/1 27/41/1
f 111/44/1 28/43/1 112/42/1
f 111/44/1 29/45/1 28/43/1
f 110/46/1 29/45/1 111/44/1
f 110/46/1 30/47/1 29/45/1
f 109/48/1 30/47/1 110/46/1
f 109/48/1 31/49/1 30/47/1
f 108/50/1 31/49/1 109/48/1
f 108/50/1 32/51/1 31/49/1
f 107/52/1 32/51/1 108/50/1
f 107/52/1 33/53/1 32/51/1
f 106/54/1 33/53/1 107/52/1
f 106/54/1 34/55/1 33/53/1
f 106/54/1 35/56/1 34/55/1
f 105/57/1 35/56/1 106/54/1
f 105/57/1 36/58/1 35/56/1
f 104/59/1 36/58/1 105/57/1
f 104/59/1 37/60/1 36/58/1
f 103/61/1 37/60/1 104/59/1
f 103/61/1 38/62/1 37/60/1
f 102/63/1 38/62/1 103/61/1
f 102/63/1 39/64/1 38/62/1
f 101/65/1 39/64/1 102/63/1
f 101/65/1 40/66/1 39/64/1
f 100/67/1 40/66/1 101/65/1
f 100/67/1 41/68/1 40/66/1
f 100/67/1 42/69/1 41/68/1
f 99/70/1 42/69/1 100/67/1
f 99/70/1 43/71/1 42/69/1
f 98/72/1 43/71/1 99/70/1
f 98/72/1 44/73/1 43/71/1
f 97/74/1 44/73/1 98/72/1
f 97/74/1 45/75/1 44/73/1
f 96/76/1 45/75/1 97/74/1
f 96/76/1 46/77/1 45/75/1
f 95/78/1 46/77/1 96/76/1
f 95/78/1 47/79/1 46/77/1
f 95/78/1 48/80/1 47/79/1
f 94/81/1 48/80/1 95/78/1
f 94/81/1 49/82/1 48/80/1
f 93/83/1 49/82/1 94/81/1
f 93/83/1 50/84/1 49/82/1
f 92/85/1 50/84/1 93/83/1
f 92/85/1 51/86/1 50/84/1
f 91/87/1 51/86/1 92/85/1
f 91/87/1 52/88/1 51/86/1
f 90/89/1 52/88/1 91/87/1
f 90/89/1 53/90/1 52/88/1
f 89/91/1 53/90/1 90/89/1
f 89/91/1 54/92/1 53/90/1
f 88/93/1 54/92/1 89/91/1
f 88/93/1 55/94/1 54/92/1
f 87/95/1 55/94/1 88/93/1
f 87/95/1 56/96/1 55/94/1
f 86/97/1 56/96/1 87/95/1
f 86/97/1 57/98/1 56/96/1
f 85/99/1 57/98/1 86/97/1
f 84/100/1 57/98/1 85/99/1
f 84/100/1 58/101/1 57/98/1
f 83/102/1 58/101/1 84/100/1
f 83/102/1 59/103/1 58/101/1
f 82/104/1 59/103/1 83/102/1
f 81/105/1 59/103/1 82/104/1
f 81/105/1 60/106/1 59/103/1
f 80/107/1 60/106/1 81/105/1
f 79/108/1 60/106/1 80/107/1
f 79/108/1 61/109/1 60/106/1
f 78/110/1 61/109/1 79/108/1
f 77/111/1 61/109/1 78/110/1
f 2/1/1 77/111/1 76/22/1
f 2/1/1 61/109/1 77/111/1
f 2/1/1 62/112/1 61/109/1
f 2/1/1 63/113/1 62/112/1
f 2/1/1 64/114/1 63/113/1
f 2/1/1 65/115/1 64/114/1
f 2/1/1 66/116/1 65/115/1
f 2/1/1 67/117/1 66/116/1
f 2/1/1 68/118/1 67/117/1
f 2/1/1 69/119/1 68/118/1
f 2/1/1 70/120/1 69/119/1
f 2/1/1 71/121/1 70/120/1
f 2/1/1 72/122/1 71/121/1
f 2/1/1 73/123/1 72/122/1
f 2/1/1 74/124/1 73/123/1
f 2/1/1 75/125/1 74/124/1
f 2/1/1 1/126/1 75/125/1
f 128/1/2 129/3/2 252/2/2
f 252/2/2 129/3/2 130/4/2
f 252/2/2 130/4/2 131/5/2
f 252/2/2 131/5/2 132/6/2
f 252/2/2 132/6/2 133/7/2
f 252/2/2 133/7/2 134/8/2
f 252/2/2 134/8/2 135/9/2
f 252/2/2 135/9/2 136/10/2
f 252/2/2 136/10/2 137/11/2
f 252/2/2 137/11/2 138/12/2
f 252/2/2 138/12/2 139/13/2
f 252/2/2 139/13/2 140/14/2
f 252/2/2 140/14/2 141/15/2
f 252/2/2 141/15/2 142/16/2
f 252/2/2 142/16/2 143/17/2
f 252/2/2 143/17/2 144/18/2
f 252/2/2 144/18/2 145/19/2
f 252/2/2 145/19/2 251/20/2
f 251/20/2 145/19/2 146/21/2
f 128/1/2 252/2/2 202/22/2
f 250/23/2 251/20/2 146/21/2
f 249/24/2 250/23/2 146/21/2
f 249/24/2 146/21/2 147/25/2
f 248/26/2 249/24/2 147/25/2
f 247/27/2 248/26/2 147/25/2
f 246/28/2 247/27/2 147/25/2
f 246/28/2 147/25/2 148/29/2
f 245/30/2 246/28/2 148/29/2
f 244/31/2 245/30/2 148/29/2
f 244/31/2 148/29/2 149/32/2
f 243/33/2 244/31/2 149/32/2
f 243/33/2 149/32/2 150/34/2
f 242/35/2 243/33/2 150/34/2
f 241/36/2 242/35/2 150/34/2
f 241/36/2 150/34/2 151/37/2
f 240/38/2 241/36/2 151/37/2
f 240/38/2 151/37/2 152/39/2
f 239/40/2 240/38/2 152/39/2
f 239/40/2 152/39/2 153/41/2
f 238/42/2 239/40/2 153/41/2
f 238/42/2 153/41/2 154/43/2
f 237/44/2 238/42/2 154/43/2
f 237/44/2 154/43/2 155/45/2
f 236/46/2 237/44/2 155/45/2
f 236/46/2 155/45/2 156/47/2
f 235/48/2 236/46/2 156/47/2
f 235/48/2 156/47/2 157/49/2
f 234/50/2 235/48/2 157/49/2
f 234/50/2 157/49/2 158/51/2
f 233/52/2 234/50/2 158/51/2
f 233/52/2 158/51/2 159/53/2
f 232/54/2 233/52/2 159/53/2
f 232/54/2 159/53/2 160/55/2
f 232/54/2 160/55/2 161/56/2
f 231/57/2 232/54/2 161/56/2
f 231/57/2 161/56/2 162/58/2
f 230/59/2 231/57/2 162/58/2
f 230/59/2 162/58/2 163/60/2
f 229/61/2 230/59/2 163/60/2
f 229/61/2 163/60/2 164/62/2
f 228/63/2 229/61/2 164/62/2
f 228/63/2 164/62/2 165/64/2
f 227/65/2 228/63/2 165/64/2
f 227/65/2 165/64/2 166/66/2
f 226/67/2 227/65/2 166/66/2
f 226/67/2 166/66/2 167/68/2
f 226/67/2 167/68/2 168/69/2
f 225/70/2 226/67/2 168/69/2
f 225/70/2 168/69/2 169/71/2
f 224/72/2 225/70/2 169/71/2
f 224/72/2 169/71/2 170/73/2
f 223/74/2 224/72/2 170/73/2
f 223/74/2 170/73/2 171/75/2
f 222/76/2 223/74/2 171/75/2
f 222/76/2 171/75/2 172/77/2
f 221/78/2 222/76/2 172/77/2
f 221/78/2 172/77/2 173/79/2
f 221/78/2 173/79/2 174/80/2
f 220/81/2 221/78/2 174/80/2
f 220/81/2 174/80/2 175/82/2
f 219/83/2 220/81/2 175/82/2
f 219/83/2 175/82/2 176/84/2
f 218/85/2 219/83/2 176/84/2
f 218/85/2 176/84/2 177/86/2
f 217/87/2 218/85/2 177/86/2
f 217/87/2 177/86/2 178/88/2
f 216/89/2 217/87/2 178/88/2
f 216/89/2 178/88/2 179/90/2
f 215/91/2 216/89/2 179/90/2
f 215/91/2 179/90/2 180/92/2
f 214/93/2 215/91/2 180/92/2
f 214/93/2 180/92/2 181/94/2
f 213/95/2 214/93/2 181/94/2
f 213/95/2 181/94/2 182/96/2
f 212/97/2 213/95/2 182/96/2
f 212/97/2 182/96/2 183/98/2
f 211/99/2 212/97/2 183/98/2
f 210/100/2 211/99/2 183/98/2
f 210/100/2 183/98/2 184/101/2
f 209/102/2 210/100/2 184/101/2
f 209/102/2 184/101/2 185/103/2
f 208/104/2 209/102/2 185/103/2
f 207/105/2 208/104/2 185/103/2
f 207/105/2 185/103/2 186/106/2
f 206/107/2 207/105/2 186/106/2
f 205/108/2 206/107/2 186/106/2
f 205/108/2 186/106/2 187/109/2
f 204/110/2 205/108/2 187/109/2
f 203/111/2 204/110/2 187/109/2
f 128/1/2 202/22/2 203/111/2
f 128/1/2 203/111/2 187/109/2
f 128/1/2 187/109/2 188/112/2
f 128/1/2 188/112/2 189/113/2
f 128/1/2 189/113/2 190/114/2
f 128/1/2 190/114/2 191/115/2
f 128/1/2 191/115/2 192/116/2
f 128/1/2 192/116/2 193/117/2
f 128/1/2 193/117/2 194/118/2
f 128/1/2 194/118/2 195/119/2
f 128/1/2 195/119/2 196/120/2
f 128/1/2 196/120/2 197/121/2
f 128/1/2 197/121/2 198/122/2
f 128/1/2 198/122/2 199/123/2
f 128/1/2 199/123/2 200/124/2
f 128/1/2 200/124/2 201/125/2
f 128/1/2 201/125/2 127/126/2
s 1
f 254/127/3 256/128/4 255/129/4 253/126/3
f 256/128/4 258/130/5 257/131/5 255/129/4
f 258/130/5 260/132/6 259/6/6 257/131/5
f 260/132/6 262/133/7 261/134/7 259/6/6
f 262/133/7 264/135/8 263/136/8 261/134/7
f 264/135/8 266/137/9 265/11/9 263/136/8
f 266/137/9 268/138/10 267/139/10 265/11/9
f 268/138/10 270/140/11 269/141/11 267/139/10
f 270/140/11 272/142/12 271/16/12 269/141/11
f 272/142/12 274/143/13 273/144/13 271/16/12
f 274/143/13 276/145/14 275/146/14 273/144/13
f 276/145/14 278/147/15 277/25/15 275/146/14
f 278/147/15 280/148/16 279/149/16 277/25/15
f 280/148/16 282/150/17 281/151/17 279/149/16
f 282/150/17 284/152/18 283/39/18 281/151/17
f 284/152/18 286/153/19 285/154/19 283/39/18
f 286/153/19 288/155/20 287/156/20 285/154/19
f 288/155/20 290/157/21 289/49/21 287/156/20
f 290/157/21 292/158/22 291/159/22 289/49/21
f 292/158/22 294/160/23 293/161/23 291/159/22
f 294/160/23 296/162/24 295/58/24 293/161/23
f 296/162/24 298/163/25 297/164/25 295/58/24
f 298/163/25 300/165/26 299/166/26 297/164/25
f 300/165/26 302/167/27 301/68/27 299/166/26
f 302/167/27 304/168/28 303/169/28 301/68/27
f 304/168/28 306/170/29 305/171/29 303/169/28
f 306/170/29 308/172/30 307/77/30 305/171/29
f 308/172/30 310/173/31 309/174/31 307/77/30
f 310/173/31 312/175/32 311/176/32 309/174/31
f 312/175/32 314/177/33 313/86/33 311/176/32
f 314/177/33 316/178/34 315/179/34 313/86/33
f 316/178/34 318/180/35 317/181/35 315/179/34
f 318/180/35 320/182/36 319/96/36 317/181/35
f 320/182/36 322/183/37 321/184/37 319/96/36
f 322/183/37 324/185/38 323/186/38 321/184/37
f 324/185/38 326/187/39 325/109/39 323/186/38
f 326/187/39 328/188/40 327/189/40 325/109/39
f 328/188/40 330/190/41 329/191/41 327/189/40
f 330/190/41 332/192/42 331/116/42 329/191/41
f 332/192/42 334/193/43 333/194/43 331/116/42
f 334/193/43 336/195/44 335/196/44 333/194/43
f 336/195/44 338/197/45 337/121/45 335/196/44
f 338/197/45 340/198/46 339/199/46 337/121/45
f 340/198/46 342/200/47 341/201/47 339/199/46
f 342/200/47 344/202/48 343/22/48 341/201/47
f 344/202/48 346/203/49 345/204/49 343/22/48
f 346/203/49 348/205/50 347/206/50 345/204/49
f 348/205/50 350/207/51 349/105/51 347/206/50
f 350/207/51 352/208/52 351/209/52 349/105/51
f 352/208/52 354/210/53 353/211/53 351/209/52
f 354/210/53 356/212/54 355/97/54 353/211/53
f 356/212/54 358/213/55 357/214/55 355/97/54
f 358/213/55 360/215/56 359/216/56 357/214/55
f 360/215/56 362/217/57 361/87/57 359/216/56
f 362/217/57 364/218/58 363/219/58 361/87/57
f 364/218/58 366/220/59 365/221/59 363/219/58
f 366/220/59 368/222/60 367/76/60 365/221/59
f 368/222/60 370/223/61 369/224/61 367/76/60
f 370/223/61 372/225/62 371/226/62 369/224/61
f 372/225/62 374/227/63 373/65/63 371/226/62
f 374/227/63 376/228/64 375/229/64 373/65/63
f 376/228/64 378/230/65 377/231/65 375/229/64
f 378/230/65 380/232/66 379/54/66 377/231/65
f 380/232/66 382/233/67 381/234/67 379/54/66
f 382/233/67 384/235/68 383/236/68 381/234/67
f 384/235/68 386/237/69 385/44/69 383/236/68
f 386/237/69 388/238/70 387/239/70 385/44/69
f 388/238/70 390/240/71 389/241/71 387/239/70
f 390/240/71 392/242/72 391/35/72 389/241/71
f 392/242/72 394/243/73 393/244/73 391/35/72
f 394/243/73 396/245/74 395/246/74 393/244/73
f 396/245/74 398/247/75 397/27/75 395/246/74
f 398/247/75 400/248/76 399/249/76 397/27/75
f 400/248/76 402/250/77 401/251/77 399/249/76
f 402/250/77 254/252/3 253/2/3 401/251/77
f 404/127/78 406/253/79 405/254/79 403/126/78
f 406/253/79 408/255/80 407/256/80 405/254/79
f 408/255/80 410/257/81 409/258/81 407/256/80
f 410/257/81 412/259/82 411/260/82 409/258/81
f 412/259/82 414/261/83 413/262/83 411/260/82
f 414/261/83 416/263/84 415/264/84 413/262/83
f 416/263/84 418/265/85 417/266/85 415/264/84
f 418/265/85 420/267/86 419/268/86 417/266/85
f 420/267/86 422/269/87 421/270/87 419/268/86
f 422/269/87 424/271/88 423/272/88 421/270/87
f 424/271/88 426/273/89 425/274/89 423/272/88
f 426/273/89 428/275/90 427/276/90 425/274/89
f 428/275/90 430/277/91 429/278/91 427/276/90
f 430/277/91 432/279/92 431/280/92 429/278/91
f 432/279/92 434/281/93 433/282/93 431/280/92
f 434/281/93 436/283/94 435/284/94 433/282/93
f 436/283/94 438/168/95 437/169/95 435/284/94
f 438/168/95 440/285/96 439/286/96 437/169/95
f 440/285/96 442/287/97 441/288/97 439/286/96
f 442/287/97 444/289/98 443/290/98 441/288/97
f 444/289/98 446/291/99 445/292/99 443/290/98
f 446/291/99 448/293/100 447/294/100 445/292/99
f 448/293/100 450/295/101 449/296/101 447/294/100
f 450/295/101 452/297/102 451/298/102 449/296/101
f 452/297/102 454/299/103 453/300/103 451/298/102
f 454/299/103 456/301/104 455/302/104 453/300/103
f 456/301/104 458/303/105 457/304/105 455/302/104
f 458/303/105 460/305/106 459/306/106 457/304/105
f 460/305/106 462/307/107 461/308/107 459/306/106
f 462/307/107 464/309/108 463/310/108 461/308/107
f 464/309/108 466/311/109 465/312/109 463/310/108
f 466/311/109 468/313/110 467/314/110 465/312/109
f 468/313/110 470/315/111 469/316/111 467/314/110
f 470/315/111 472/210/112 471/211/112 469/316/111
f 472/210/112 474/317/113 473/318/113 471/211/112
f 474/317/113 476/319/114 475/320/114 473/318/113
f 476/319/114 478/321/115 477/322/115 475/320/114
f 478/321/115 480/323/116 479/324/116 477/322/115
f 480/323/116 482/325/117 481/326/117 479/324/116
f 482/325/117 484/327/118 483/328/118 481/326/117
f 484/327/118 486/329/119 485/330/119 483/328/118
f 486/329/119 488/331/120 487/332/120 485/330/119
f 488/331/120 490/333/121 489/334/121 487/332/120
f 490/333/121 492/335/122 491/336/122 489/334/121
f 492/335/122 494/337/123 493/338/123 491/336/122
f 494/337/123 496/339/124 495/340/124 493/338/123
f 496/339/124 498/341/125 497/342/125 495/340/124
f 498/341/125 500/343/126 499/344/126 497/342/125
f 500/343/126 502/345/127 501/346/127 499/344/126
f 502/345/127 504/347/128 503/348/128 501/346/127
f 504/347/128 404/252/78 403/2/78 503/348/128
