# Blender 4.0.2
# www.blender.org
mtllib E_regular.mtl
o Text
v 0.880769 0.600000 1.088461
v 0.880769 0.600000 1.350000
v -0.750000 0.600000 1.350000
v -0.750000 0.600000 -1.303846
v 0.842308 0.600000 -1.303846
v 0.842308 0.600000 -1.042308
v -0.473077 0.600000 -1.042308
v -0.473077 0.600000 -0.134615
v 0.634615 0.600000 -0.134615
v 0.634615 0.600000 0.126923
v -0.473077 0.600000 0.126923
v -0.473077 0.600000 1.088461
v 0.880769 0.000000 1.088461
v 0.880769 0.000000 1.350000
v -0.750000 0.000000 1.350000
v -0.750000 0.000000 -1.303846
v 0.842308 0.000000 -1.303846
v 0.842308 0.000000 -1.042308
v -0.473077 0.000000 -1.042308
v -0.473077 0.000000 -0.134615
v 0.634615 0.000000 -0.134615
v 0.634615 0.000000 0.126923
v -0.473077 0.000000 0.126923
v -0.473077 0.000000 1.088461
v 0.880769 0.000000 1.088461
v 0.880769 0.600000 1.088461
v 0.880769 0.000000 1.350000
v 0.880769 0.600000 1.350000
v -0.750000 0.000000 1.350000
v -0.750000 0.600000 1.350000
v -0.750000 0.000000 -1.303846
v -0.750000 0.600000 -1.303846
v 0.842308 0.000000 -1.303846
v 0.842308 0.600000 -1.303846
v 0.842308 0.000000 -1.042308
v 0.842308 0.600000 -1.042308
v -0.473077 0.000000 -1.042308
v -0.473077 0.600000 -1.042308
v -0.473077 0.000000 -0.134615
v -0.473077 0.600000 -0.134615
v 0.634615 0.000000 -0.134615
v 0.634615 0.600000 -0.134615
v 0.634615 0.000000 0.126923
v 0.634615 0.600000 0.126923
v -0.473077 0.000000 0.126923
v -0.473077 0.600000 0.126923
v -0.473077 0.000000 1.088461
v -0.473077 0.600000 1.088461
vn -0.0000 1.0000 -0.0000
vn -0.0000 -1.0000 -0.0000
vn 0.7071 -0.0000 -0.7071
vn 0.7071 -0.0000 0.7071
vn -0.7071 -0.0000 0.7071
vn -0.7071 -0.0000 -0.7071
vt 0.181818 0.000000
vt 0.545455 0.000000
vt 0.272727 0.000000
vt 0.363636 0.000000
vt 0.454545 0.000000
vt 0.636364 0.000000
vt 0.909091 0.000000
vt 0.727273 0.000000
vt 0.818182 0.000000
vt 1.000000 0.000000
vt 0.000000 0.000000
vt 0.090909 0.000000
vt 0.000000 1.000000
vt 0.083333 1.000000
vt 0.083333 0.000000
vt 0.166667 1.000000
vt 0.166667 0.000000
vt 0.250000 1.000000
vt 0.250000 0.000000
vt 0.333333 1.000000
vt 0.333333 0.000000
vt 0.416667 1.000000
vt 0.416667 0.000000
vt 0.500000 1.000000
vt 0.500000 0.000000
vt 0.583333 1.000000
vt 0.583333 0.000000
vt 0.666667 1.000000
vt 0.666667 0.000000
vt 0.750000 1.000000
vt 0.750000 0.000000
vt 0.833333 1.000000
vt 0.833333 0.000000
vt 0.916667 1.000000
vt 0.916667 0.000000
vt 1.000000 1.000000
s 0
usemtl Material.001
f 3/1/1 7/2/1 4/3/1
f 7/2/1 5/4/1 4/3/1
f 7/2/1 6/5/1 5/4/1
f 3/1/1 8/6/1 7/2/1
f 3/1/1 11/7/1 8/6/1
f 11/7/1 9/8/1 8/6/1
f 11/7/1 10/9/1 9/8/1
f 3/1/1 12/10/1 11/7/1
f 3/1/1 1/11/1 12/10/1
f 3/1/1 2/12/1 1/11/1
f 15/1/2 16/3/2 19/2/2
f 19/2/2 16/3/2 17/4/2
f 19/2/2 17/4/2 18/5/2
f 15/1/2 19/2/2 20/6/2
f 15/1/2 20/6/2 23/7/2
f 23/7/2 20/6/2 21/8/2
f 23/7/2 21/8/2 22/9/2
f 15/1/2 23/7/2 24/10/2
f 15/1/2 24/10/2 13/11/2
f 15/1/2 13/11/2 14/12/2
s 1
f 26/13/3 28/14/4 27/15/4 25/11/3
f 28/14/4 30/16/5 29/17/5 27/15/4
f 30/16/5 32/18/6 31/19/6 29/17/5
f 32/18/6 34/20/3 33/21/3 31/19/6
f 34/20/3 36/22/4 35/23/4 33/21/3
f 36/22/4 38/24/4 37/25/4 35/23/4
f 38/24/4 40/26/3 39/27/3 37/25/4
f 40/26/3 42/28/3 41/29/3 39/27/3
f 42/28/3 44/30/4 43/31/4 41/29/3
f 44/30/4 46/32/4 45/33/4 43/31/4
f 46/32/4 48/34/3 47/35/3 45/33/4
f 48/34/3 26/36/3 25/10/3 47/35/3
