# Blender 4.0.2
# www.blender.org
mtllib F_regular.mtl
o Text
v -0.444231 0.600000 0.246154
v -0.444231 0.600000 1.350000
v -0.721154 0.600000 1.350000
v -0.721154 0.600000 -1.303846
v 0.878846 0.600000 -1.303846
v 0.878846 0.600000 -1.042308
v -0.444231 0.600000 -1.042308
v -0.444231 0.600000 -0.015385
v 0.690385 0.600000 -0.015385
v 0.690385 0.600000 0.246154
v -0.444231 0.000000 0.246154
v -0.444231 0.000000 1.350000
v -0.721154 0.000000 1.350000
v -0.721154 0.000000 -1.303846
v 0.878846 0.000000 -1.303846
v 0.878846 0.000000 -1.042308
v -0.444231 0.000000 -1.042308
v -0.444231 0.000000 -0.015385
v 0.690385 0.000000 -0.015385
v 0.690385 0.000000 0.246154
v -0.444231 0.000000 0.246154
v -0.444231 0.600000 0.246154
v -0.444231 0.000000 1.350000
v -0.444231 0.600000 1.350000
v -0.721154 0.000000 1.350000
v -0.721154 0.600000 1.350000
v -0.721154 0.000000 -1.303846
v -0.721154 0.600000 -1.303846
v 0.878846 0.000000 -1.303846
v 0.878846 0.600000 -1.303846
v 0.878846 0.000000 -1.042308
v 0.878846 0.600000 -1.042308
v -0.444231 0.000000 -1.042308
v -0.444231 0.600000 -1.042308
v -0.444231 0.000000 -0.015385
v -0.444231 0.600000 -0.015385
v 0.690385 0.000000 -0.015385
v 0.690385 0.600000 -0.015385
v 0.690385 0.000000 0.246154
v 0.690385 0.600000 0.246154
vn -0.0000 1.0000 -0.0000
vn -0.0000 -1.0000 -0.0000
vn 0.7071 -0.0000 0.7071
vn -0.7071 -0.0000 0.7071
vn -0.7071 -0.0000 -0.7071
vn 0.7071 -0.0000 -0.7071
vt 0.222222 0.000000
vt 0.666667 0.000000
vt 0.333333 0.000000
vt 0.444444 0.000000
vt 0.555556 0.000000
vt 0.777778 0.000000
vt 0.000000 0.000000
vt 0.888889 0.000000
vt 1.000000 0.000000
vt 0.111111 0.000000
vt 0.000000 1.000000
vt 0.100000 1.000000
vt 0.100000 0.000000
vt 0.200000 1.000000
vt 0.200000 0.000000
vt 0.300000 1.000000
vt 0.300000 0.000000
vt 0.400000 1.000000
vt 0.400000 0.000000
vt 0.500000 1.000000
vt 0.500000 0.000000
vt 0.600000 1.000000
vt 0.600000 0.000000
vt 0.700000 1.000000
vt 0.700000 0.000000
vt 0.800000 1.000000
vt 0.800000 0.000000
vt 0.900000 1.000000
vt 0.900000 0.000000
vt 1.000000 1.000000
s 0
usemtl Material.001
f 3/1/1 7/2/1 4/3/1
f 7/2/1 5/4/1 4/3/1
f 7/2/1 6/5/1 5/4/1
f 3/1/1 8/6/1 7/2/1
f 3/1/1 1/7/1 8/6/1
f 1/7/1 9/8/1 8/6/1
f 1/7/1 10/9/1 9/8/1
f 3/1/1 2/10/1 1/7/1
f 13/1/2 14/3/2 17/2/2
f 17/2/2 14/3/2 15/4/2
f 17/2/2 15/4/2 16/5/2
f 13/1/2 17/2/2 18/6/2
f 13/1/2 18/6/2 11/7/2
f 11/7/2 18/6/2 19/8/2
f 11/7/2 19/8/2 20/9/2
f 13/1/2 11/7/2 12/10/2
s 1
f 22/11/3 24/12/3 23/13/3 21/7/3
f 24/12/3 26/14/4 25/15/4 23/13/3
f 26/14/4 28/16/5 27/17/5 25/15/4
f 28/16/5 30/18/6 29/19/6 27/17/5
f 30/18/6 32/20/3 31/21/3 29/19/6
f 32/20/3 34/22/3 33/23/3 31/21/3
f 34/22/3 36/24/6 35/25/6 33/23/3
f 36/24/6 38/26/6 37/27/6 35/25/6
f 38/26/6 40/28/3 39/29/3 37/27/6
f 40/28/3 22/30/3 21/9/3 39/29/3
