# Blender 4.0.2
# www.blender.org
mtllib G_regular.mtl
o Text
v 0.026923 0.600000 1.403846
v -0.025868 0.600000 1.402711
v -0.077831 0.600000 1.399305
v -0.128966 0.600000 1.393630
v -0.179274 0.600000 1.385684
v -0.228753 0.600000 1.375467
v -0.277404 0.600000 1.362981
v -0.325227 0.600000 1.348224
v -0.372222 0.600000 1.331196
v -0.418389 0.600000 1.311899
v -0.463729 0.600000 1.290331
v -0.508240 0.600000 1.266493
v -0.551923 0.600000 1.240384
v -0.594431 0.600000 1.212099
v -0.635417 0.600000 1.181731
v -0.674880 0.600000 1.149279
v -0.712821 0.600000 1.114743
v -0.749239 0.600000 1.078125
v -0.784135 0.600000 1.039423
v -0.817508 0.600000 0.998638
v -0.849359 0.600000 0.955769
v -0.879687 0.600000 0.910817
v -0.908494 0.600000 0.863782
v -0.935777 0.600000 0.814663
v -0.961538 0.600000 0.763461
v -0.985497 0.600000 0.710430
v -1.007372 0.600000 0.655823
v -1.027164 0.600000 0.599639
v -1.044872 0.600000 0.541880
v -1.060497 0.600000 0.482545
v -1.074039 0.600000 0.421635
v -1.085497 0.600000 0.359148
v -1.094872 0.600000 0.295085
v -1.102164 0.600000 0.229447
v -1.107372 0.600000 0.162233
v -1.110497 0.600000 0.093443
v -1.111539 0.600000 0.023077
v -1.110417 0.600000 -0.050948
v -1.107051 0.600000 -0.123024
v -1.101442 0.600000 -0.193149
v -1.093590 0.600000 -0.261325
v -1.083494 0.600000 -0.327551
v -1.071154 0.600000 -0.391827
v -1.056571 0.600000 -0.454153
v -1.039744 0.600000 -0.514530
v -1.020673 0.600000 -0.572957
v -0.999359 0.600000 -0.629434
v -0.975801 0.600000 -0.683961
v -0.950000 0.600000 -0.736539
v -0.922302 0.600000 -0.787073
v -0.893056 0.600000 -0.835470
v -0.862260 0.600000 -0.881731
v -0.829915 0.600000 -0.925855
v -0.796020 0.600000 -0.967842
v -0.760577 0.600000 -1.007692
v -0.723584 0.600000 -1.045406
v -0.685043 0.600000 -1.080983
v -0.644952 0.600000 -1.114423
v -0.603312 0.600000 -1.145726
v -0.560123 0.600000 -1.174893
v -0.515385 0.600000 -1.201923
v -0.469418 0.600000 -1.226803
v -0.422543 0.600000 -1.249519
v -0.374760 0.600000 -1.270072
v -0.326068 0.600000 -1.288462
v -0.276469 0.600000 -1.304688
v -0.225962 0.600000 -1.318750
v -0.174546 0.600000 -1.330649
v -0.122222 0.600000 -1.340385
v -0.068990 0.600000 -1.347957
v -0.014850 0.600000 -1.353366
v 0.040198 0.600000 -1.356611
v 0.096154 0.600000 -1.357692
v 0.148104 0.600000 -1.356744
v 0.198825 0.600000 -1.353900
v 0.248317 0.600000 -1.349159
v 0.296581 0.600000 -1.342521
v 0.343616 0.600000 -1.333988
v 0.389423 0.600000 -1.323558
v 0.434001 0.600000 -1.311231
v 0.477350 0.600000 -1.297009
v 0.519471 0.600000 -1.280890
v 0.560363 0.600000 -1.262874
v 0.600027 0.600000 -1.242962
v 0.638462 0.600000 -1.221154
v 0.675881 0.600000 -1.197369
v 0.712500 0.600000 -1.171528
v 0.748317 0.600000 -1.143630
v 0.783333 0.600000 -1.113675
v 0.817548 0.600000 -1.081664
v 0.850962 0.600000 -1.047596
v 0.883574 0.600000 -1.011472
v 0.915385 0.600000 -0.973291
v 0.946394 0.600000 -0.933053
v 0.976602 0.600000 -0.890759
v 1.006010 0.600000 -0.846408
v 1.034615 0.600000 -0.800000
v 0.807692 0.600000 -0.642308
v 0.787954 0.600000 -0.676937
v 0.767201 0.600000 -0.710310
v 0.745433 0.600000 -0.742428
v 0.722650 0.600000 -0.773291
v 0.698852 0.600000 -0.802898
v 0.674038 0.600000 -0.831250
v 0.648210 0.600000 -0.858347
v 0.621368 0.600000 -0.884188
v 0.593510 0.600000 -0.908774
v 0.564637 0.600000 -0.932105
v 0.534749 0.600000 -0.954180
v 0.503846 0.600000 -0.975000
v 0.472035 0.600000 -0.994351
v 0.439423 0.600000 -1.012019
v 0.406010 0.600000 -1.028005
v 0.371795 0.600000 -1.042308
v 0.336779 0.600000 -1.054928
v 0.300962 0.600000 -1.065866
v 0.264343 0.600000 -1.075120
v 0.226923 0.600000 -1.082693
v 0.188702 0.600000 -1.088582
v 0.149680 0.600000 -1.092789
v 0.109856 0.600000 -1.095313
v 0.069231 0.600000 -1.096154
v 0.029100 0.600000 -1.095246
v -0.010523 0.600000 -1.092521
v -0.049639 0.600000 -1.087981
v -0.088248 0.600000 -1.081624
v -0.126349 0.600000 -1.073451
v -0.163942 0.600000 -1.063462
v -0.201028 0.600000 -1.051656
v -0.237607 0.600000 -1.038034
v -0.273678 0.600000 -1.022596
v -0.309241 0.600000 -1.005342
v -0.344297 0.600000 -0.986272
v -0.378846 0.600000 -0.965385
v -0.412580 0.600000 -0.942735
v -0.445192 0.600000 -0.918376
v -0.476683 0.600000 -0.892308
v -0.507051 0.600000 -0.864530
v -0.536298 0.600000 -0.835043
v -0.564423 0.600000 -0.803846
v -0.591426 0.600000 -0.770940
v -0.617308 0.600000 -0.736325
v -0.642067 0.600000 -0.700000
v -0.665705 0.600000 -0.661966
v -0.688221 0.600000 -0.622222
v -0.709615 0.600000 -0.580769
v -0.729581 0.600000 -0.537794
v -0.747810 0.600000 -0.493483
v -0.764303 0.600000 -0.447837
v -0.779060 0.600000 -0.400855
v -0.792081 0.600000 -0.352537
v -0.803365 0.600000 -0.302885
v -0.812914 0.600000 -0.251896
v -0.820726 0.600000 -0.199573
v -0.826803 0.600000 -0.145914
v -0.831143 0.600000 -0.090919
v -0.833747 0.600000 -0.034589
v -0.834615 0.600000 0.023077
v -0.833867 0.600000 0.075841
v -0.831624 0.600000 0.127724
v -0.827885 0.600000 0.178726
v -0.822650 0.600000 0.228846
v -0.815919 0.600000 0.278085
v -0.807692 0.600000 0.326442
v -0.797970 0.600000 0.373918
v -0.786752 0.600000 0.420513
v -0.774038 0.600000 0.466226
v -0.759829 0.600000 0.511058
v -0.744124 0.600000 0.555008
v -0.726923 0.600000 0.598077
v -0.708333 0.600000 0.639930
v -0.688462 0.600000 0.680235
v -0.667308 0.600000 0.718990
v -0.644872 0.600000 0.756196
v -0.621154 0.600000 0.791854
v -0.596154 0.600000 0.825961
v -0.569872 0.600000 0.858520
v -0.542308 0.600000 0.889530
v -0.513462 0.600000 0.918990
v -0.483333 0.600000 0.946902
v -0.451923 0.600000 0.973264
v -0.419231 0.600000 0.998077
v -0.385443 0.600000 1.021114
v -0.350748 0.600000 1.042147
v -0.315144 0.600000 1.061178
v -0.278633 0.600000 1.078205
v -0.241213 0.600000 1.093229
v -0.202885 0.600000 1.106250
v -0.163649 0.600000 1.117268
v -0.123504 0.600000 1.126282
v -0.082452 0.600000 1.133293
v -0.040491 0.600000 1.138301
v 0.002377 0.600000 1.141306
v 0.046154 0.600000 1.142308
v 0.085630 0.600000 1.141587
v 0.124573 0.600000 1.139423
v 0.162981 0.600000 1.135817
v 0.200855 0.600000 1.130769
v 0.238194 0.600000 1.124279
v 0.275000 0.600000 1.116346
v 0.311271 0.600000 1.106971
v 0.347009 0.600000 1.096154
v 0.382212 0.600000 1.083894
v 0.416880 0.600000 1.070193
v 0.451015 0.600000 1.055048
v 0.484615 0.600000 1.038461
v 0.517361 0.600000 1.020780
v 0.548932 0.600000 1.002350
v 0.579327 0.600000 0.983173
v 0.608547 0.600000 0.963248
v 0.636592 0.600000 0.942575
v 0.663462 0.600000 0.921154
v 0.689156 0.600000 0.898985
v 0.713675 0.600000 0.876068
v 0.737019 0.600000 0.852404
v 0.759188 0.600000 0.827991
v 0.780182 0.600000 0.802831
v 0.800000 0.600000 0.776923
v 0.800000 0.600000 0.246154
v 0.003846 0.600000 0.246154
v 0.003846 0.600000 -0.015385
v 1.057692 0.600000 -0.015385
v 1.057692 0.600000 1.350000
v 0.830769 0.600000 1.350000
v 0.800000 0.600000 1.053846
v 0.778325 0.600000 1.081504
v 0.755609 0.600000 1.108066
v 0.731851 0.600000 1.133534
v 0.707051 0.600000 1.157906
v 0.681210 0.600000 1.181183
v 0.654327 0.600000 1.203365
v 0.626402 0.600000 1.224452
v 0.597436 0.600000 1.244444
v 0.567428 0.600000 1.263341
v 0.536378 0.600000 1.281143
v 0.504287 0.600000 1.297850
v 0.471154 0.600000 1.313462
v 0.437220 0.600000 1.327898
v 0.402724 0.600000 1.341079
v 0.367668 0.600000 1.353005
v 0.332051 0.600000 1.363675
v 0.295873 0.600000 1.373090
v 0.259135 0.600000 1.381250
v 0.221835 0.600000 1.388154
v 0.183974 0.600000 1.393803
v 0.145553 0.600000 1.398197
v 0.106571 0.600000 1.401335
v 0.067027 0.600000 1.403218
v 0.026923 0.000000 1.403846
v -0.025868 0.000000 1.402711
v -0.077831 0.000000 1.399305
v -0.128966 0.000000 1.393630
v -0.179274 0.000000 1.385684
v -0.228753 0.000000 1.375467
v -0.277404 0.000000 1.362981
v -0.325227 0.000000 1.348224
v -0.372222 0.000000 1.331196
v -0.418389 0.000000 1.311899
v -0.463729 0.000000 1.290331
v -0.508240 0.000000 1.266493
v -0.551923 0.000000 1.240384
v -0.594431 0.000000 1.212099
v -0.635417 0.000000 1.181731
v -0.674880 0.000000 1.149279
v -0.712821 0.000000 1.114743
v -0.749239 0.000000 1.078125
v -0.784135 0.000000 1.039423
v -0.817508 0.000000 0.998638
v -0.849359 0.000000 0.955769
v -0.879687 0.000000 0.910817
v -0.908494 0.000000 0.863782
v -0.935777 0.000000 0.814663
v -0.961538 0.000000 0.763461
v -0.985497 0.000000 0.710430
v -1.007372 0.000000 0.655823
v -1.027164 0.000000 0.599639
v -1.044872 0.000000 0.541880
v -1.060497 0.000000 0.482545
v -1.074039 0.000000 0.421635
v -1.085497 0.000000 0.359148
v -1.094872 0.000000 0.295085
v -1.102164 0.000000 0.229447
v -1.107372 0.000000 0.162233
v -1.110497 0.000000 0.093443
v -1.111539 0.000000 0.023077
v -1.110417 0.000000 -0.050948
v -1.107051 0.000000 -0.123024
v -1.101442 0.000000 -0.193149
v -1.093590 0.000000 -0.261325
v -1.083494 0.000000 -0.327551
v -1.071154 0.000000 -0.391827
v -1.056571 0.000000 -0.454153
v -1.039744 0.000000 -0.514530
v -1.020673 0.000000 -0.572957
v -0.999359 0.000000 -0.629434
v -0.975801 0.000000 -0.683961
v -0.950000 0.000000 -0.736539
v -0.922302 0.000000 -0.787073
v -0.893056 0.000000 -0.835470
v -0.862260 0.000000 -0.881731
v -0.829915 0.000000 -0.925855
v -0.796020 0.000000 -0.967842
v -0.760577 0.000000 -1.007692
v -0.723584 0.000000 -1.045406
v -0.685043 0.000000 -1.080983
v -0.644952 0.000000 -1.114423
v -0.603312 0.000000 -1.145726
v -0.560123 0.000000 -1.174893
v -0.515385 0.000000 -1.201923
v -0.469418 0.000000 -1.226803
v -0.422543 0.000000 -1.249519
v -0.374760 0.000000 -1.270072
v -0.326068 0.000000 -1.288462
v -0.276469 0.000000 -1.304688
v -0.225962 0.000000 -1.318750
v -0.174546 0.000000 -1.330649
v -0.122222 0.000000 -1.340385
v -0.068990 0.000000 -1.347957
v -0.014850 0.000000 -1.353366
v 0.040198 0.000000 -1.356611
v 0.096154 0.000000 -1.357692
v 0.148104 0.000000 -1.356744
v 0.198825 0.000000 -1.353900
v 0.248317 0.000000 -1.349159
v 0.296581 0.000000 -1.342521
v 0.343616 0.000000 -1.333988
v 0.389423 0.000000 -1.323558
v 0.434001 0.000000 -1.311231
v 0.477350 0.000000 -1.297009
v 0.519471 0.000000 -1.280890
v 0.560363 0.000000 -1.262874
v 0.600027 0.000000 -1.242962
v 0.638462 0.000000 -1.221154
v 0.675881 0.000000 -1.197369
v 0.712500 0.000000 -1.171528
v 0.748317 0.000000 -1.143630
v 0.783333 0.000000 -1.113675
v 0.817548 0.000000 -1.081664
v 0.850962 0.000000 -1.047596
v 0.883574 0.000000 -1.011472
v 0.915385 0.000000 -0.973291
v 0.946394 0.000000 -0.933053
v 0.976602 0.000000 -0.890759
v 1.006010 0.000000 -0.846408
v 1.034615 0.000000 -0.800000
v 0.807692 0.000000 -0.642308
v 0.787954 0.000000 -0.676937
v 0.767201 0.000000 -0.710310
v 0.745433 0.000000 -0.742428
v 0.722650 0.000000 -0.773291
v 0.698852 0.000000 -0.802898
v 0.674038 0.000000 -0.831250
v 0.648210 0.000000 -0.858347
v 0.621368 0.000000 -0.884188
v 0.593510 0.000000 -0.908774
v 0.564637 0.000000 -0.932105
v 0.534749 0.000000 -0.954180
v 0.503846 0.000000 -0.975000
v 0.472035 0.000000 -0.994351
v 0.439423 0.000000 -1.012019
v 0.406010 0.000000 -1.028005
v 0.371795 0.000000 -1.042308
v 0.336779 0.000000 -1.054928
v 0.300962 0.000000 -1.065866
v 0.264343 0.000000 -1.075120
v 0.226923 0.000000 -1.082693
v 0.188702 0.000000 -1.088582
v 0.149680 0.000000 -1.092789
v 0.109856 0.000000 -1.095313
v 0.069231 0.000000 -1.096154
v 0.029100 0.000000 -1.095246
v -0.010523 0.000000 -1.092521
v -0.049639 0.000000 -1.087981
v -0.088248 0.000000 -1.081624
v -0.126349 0.000000 -1.073451
v -0.163942 0.000000 -1.063462
v -0.201028 0.000000 -1.051656
v -0.237607 0.000000 -1.038034
v -0.273678 0.000000 -1.022596
v -0.309241 0.000000 -1.005342
v -0.344297 0.000000 -0.986272
v -0.378846 0.000000 -0.965385
v -0.412580 0.000000 -0.942735
v -0.445192 0.000000 -0.918376
v -0.476683 0.000000 -0.892308
v -0.507051 0.000000 -0.864530
v -0.536298 0.000000 -0.835043
v -0.564423 0.000000 -0.803846
v -0.591426 0.000000 -0.770940
v -0.617308 0.000000 -0.736325
v -0.642067 0.000000 -0.700000
v -0.665705 0.000000 -0.661966
v -0.688221 0.000000 -0.622222
v -0.709615 0.000000 -0.580769
v -0.729581 0.000000 -0.537794
v -0.747810 0.000000 -0.493483
v -0.764303 0.000000 -0.447837
v -0.779060 0.000000 -0.400855
v -0.792081 0.000000 -0.352537
v -0.803365 0.000000 -0.302885
v -0.812914 0.000000 -0.251896
v -0.820726 0.000000 -0.199573
v -0.826803 0.000000 -0.145914
v -0.831143 0.000000 -0.090919
v -0.833747 0.000000 -0.034589
v -0.834615 0.000000 0.023077
v -0.833867 0.000000 0.075841
v -0.831624 0.000000 0.127724
v -0.827885 0.000000 0.178726
v -0.822650 0.000000 0.228846
v -0.815919 0.000000 0.278085
v -0.807692 0.000000 0.326442
v -0.797970 0.000000 0.373918
v -0.786752 0.000000 0.420513
v -0.774038 0.000000 0.466226
v -0.759829 0.000000 0.511058
v -0.744124 0.000000 0.555008
v -0.726923 0.000000 0.598077
v -0.708333 0.000000 0.639930
v -0.688462 0.000000 0.680235
v -0.667308 0.000000 0.718990
v -0.644872 0.000000 0.756196
v -0.621154 0.000000 0.791854
v -0.596154 0.000000 0.825961
v -0.569872 0.000000 0.858520
v -0.542308 0.000000 0.889530
v -0.513462 0.000000 0.918990
v -0.483333 0.000000 0.946902
v -0.451923 0.000000 0.973264
v -0.419231 0.000000 0.998077
v -0.385443 0.000000 1.021114
v -0.350748 0.000000 1.042147
v -0.315144 0.000000 1.061178
v -0.278633 0.000000 1.078205
v -0.241213 0.000000 1.093229
v -0.202885 0.000000 1.106250
v -0.163649 0.000000 1.117268
v -0.123504 0.000000 1.126282
v -0.082452 0.000000 1.133293
v -0.040491 0.000000 1.138301
v 0.002377 0.000000 1.141306
v 0.046154 0.000000 1.142308
v 0.085630 0.000000 1.141587
v 0.124573 0.000000 1.139423
v 0.162981 0.000000 1.135817
v 0.200855 0.000000 1.130769
v 0.238194 0.000000 1.124279
v 0.275000 0.000000 1.116346
v 0.311271 0.000000 1.106971
v 0.347009 0.000000 1.096154
v 0.382212 0.000000 1.083894
v 0.416880 0.000000 1.070193
v 0.451015 0.000000 1.055048
v 0.484615 0.000000 1.038461
v 0.517361 0.000000 1.020780
v 0.548932 0.000000 1.002350
v 0.579327 0.000000 0.983173
v 0.608547 0.000000 0.963248
v 0.636592 0.000000 0.942575
v 0.663462 0.000000 0.921154
v 0.689156 0.000000 0.898985
v 0.713675 0.000000 0.876068
v 0.737019 0.000000 0.852404
v 0.759188 0.000000 0.827991
v 0.780182 0.000000 0.802831
v 0.800000 0.000000 0.776923
v 0.800000 0.000000 0.246154
v 0.003846 0.000000 0.246154
v 0.003846 0.000000 -0.015385
v 1.057692 0.000000 -0.015385
v 1.057692 0.000000 1.350000
v 0.830769 0.000000 1.350000
v 0.800000 0.000000 1.053846
v 0.778325 0.000000 1.081504
v 0.755609 0.000000 1.108066
v 0.731851 0.000000 1.133534
v 0.707051 0.000000 1.157906
v 0.681210 0.000000 1.181183
v 0.654327 0.000000 1.203365
v 0.626402 0.000000 1.224452
v 0.597436 0.000000 1.244444
v 0.567428 0.000000 1.263341
v 0.536378 0.000000 1.281143
v 0.504287 0.000000 1.297850
v 0.471154 0.000000 1.313462
v 0.437220 0.000000 1.327898
v 0.402724 0.000000 1.341079
v 0.367668 0.000000 1.353005
v 0.332051 0.000000 1.363675
v 0.295873 0.000000 1.373090
v 0.259135 0.000000 1.381250
v 0.221835 0.000000 1.388154
v 0.183974 0.000000 1.393803
v 0.145553 0.000000 1.398197
v 0.106571 0.000000 1.401335
v 0.067027 0.000000 1.403218
v 0.026923 0.000000 1.403846
v 0.026923 0.600000 1.403846
v -0.025868 0.000000 1.402711
v -0.025868 0.600000 1.402711
v -0.077831 0.000000 1.399305
v -0.077831 0.600000 1.399305
v -0.128966 0.000000 1.393630
v -0.128966 0.600000 1.393630
v -0.179274 0.000000 1.385684
v -0.179274 0.600000 1.385684
v -0.228753 0.000000 1.375467
v -0.228753 0.600000 1.375467
v -0.277404 0.000000 1.362981
v -0.277404 0.600000 1.362981
v -0.325227 0.000000 1.348224
v -0.325227 0.600000 1.348224
v -0.372222 0.000000 1.331196
v -0.372222 0.600000 1.331196
v -0.418389 0.000000 1.311899
v -0.418389 0.600000 1.311899
v -0.463729 0.000000 1.290331
v -0.463729 0.600000 1.290331
v -0.508240 0.000000 1.266493
v -0.508240 0.600000 1.266493
v -0.551923 0.000000 1.240384
v -0.551923 0.600000 1.240384
v -0.594431 0.000000 1.212099
v -0.594431 0.600000 1.212099
v -0.635417 0.000000 1.181731
v -0.635417 0.600000 1.181731
v -0.674880 0.000000 1.149279
v -0.674880 0.600000 1.149279
v -0.712821 0.000000 1.114743
v -0.712821 0.600000 1.114743
v -0.749239 0.000000 1.078125
v -0.749239 0.600000 1.078125
v -0.784135 0.000000 1.039423
v -0.784135 0.600000 1.039423
v -0.817508 0.000000 0.998638
v -0.817508 0.600000 0.998638
v -0.849359 0.000000 0.955769
v -0.849359 0.600000 0.955769
v -0.879687 0.000000 0.910817
v -0.879687 0.600000 0.910817
v -0.908494 0.000000 0.863782
v -0.908494 0.600000 0.863782
v -0.935777 0.000000 0.814663
v -0.935777 0.600000 0.814663
v -0.961538 0.000000 0.763461
v -0.961538 0.600000 0.763461
v -0.985497 0.000000 0.710430
v -0.985497 0.600000 0.710430
v -1.007372 0.000000 0.655823
v -1.007372 0.600000 0.655823
v -1.027164 0.000000 0.599639
v -1.027164 0.600000 0.599639
v -1.044872 0.000000 0.541880
v -1.044872 0.600000 0.541880
v -1.060497 0.000000 0.482545
v -1.060497 0.600000 0.482545
v -1.074039 0.000000 0.421635
v -1.074039 0.600000 0.421635
v -1.085497 0.000000 0.359148
v -1.085497 0.600000 0.359148
v -1.094872 0.000000 0.295085
v -1.094872 0.600000 0.295085
v -1.102164 0.000000 0.229447
v -1.102164 0.600000 0.229447
v -1.107372 0.000000 0.162233
v -1.107372 0.600000 0.162233
v -1.110497 0.000000 0.093443
v -1.110497 0.600000 0.093443
v -1.111539 0.000000 0.023077
v -1.111539 0.600000 0.023077
v -1.110417 0.000000 -0.050948
v -1.110417 0.600000 -0.050948
v -1.107051 0.000000 -0.123024
v -1.107051 0.600000 -0.123024
v -1.101442 0.000000 -0.193149
v -1.101442 0.600000 -0.193149
v -1.093590 0.000000 -0.261325
v -1.093590 0.600000 -0.261325
v -1.083494 0.000000 -0.327551
v -1.083494 0.600000 -0.327551
v -1.071154 0.000000 -0.391827
v -1.071154 0.600000 -0.391827
v -1.056571 0.000000 -0.454153
v -1.056571 0.600000 -0.454153
v -1.039744 0.000000 -0.514530
v -1.039744 0.600000 -0.514530
v -1.020673 0.000000 -0.572957
v -1.020673 0.600000 -0.572957
v -0.999359 0.000000 -0.629434
v -0.999359 0.600000 -0.629434
v -0.975801 0.000000 -0.683961
v -0.975801 0.600000 -0.683961
v -0.950000 0.000000 -0.736539
v -0.950000 0.600000 -0.736539
v -0.922302 0.000000 -0.787073
v -0.922302 0.600000 -0.787073
v -0.893056 0.000000 -0.835470
v -0.893056 0.600000 -0.835470
v -0.862260 0.000000 -0.881731
v -0.862260 0.600000 -0.881731
v -0.829915 0.000000 -0.925855
v -0.829915 0.600000 -0.925855
v -0.796020 0.000000 -0.967842
v -0.796020 0.600000 -0.967842
v -0.760577 0.000000 -1.007692
v -0.760577 0.600000 -1.007692
v -0.723584 0.000000 -1.045406
v -0.723584 0.600000 -1.045406
v -0.685043 0.000000 -1.080983
v -0.685043 0.600000 -1.080983
v -0.644952 0.000000 -1.114423
v -0.644952 0.600000 -1.114423
v -0.603312 0.000000 -1.145726
v -0.603312 0.600000 -1.145726
v -0.560123 0.000000 -1.174893
v -0.560123 0.600000 -1.174893
v -0.515385 0.000000 -1.201923
v -0.515385 0.600000 -1.201923
v -0.469418 0.000000 -1.226803
v -0.469418 0.600000 -1.226803
v -0.422543 0.000000 -1.249519
v -0.422543 0.600000 -1.249519
v -0.374760 0.000000 -1.270072
v -0.374760 0.600000 -1.270072
v -0.326068 0.000000 -1.288462
v -0.326068 0.600000 -1.288462
v -0.276469 0.000000 -1.304688
v -0.276469 0.600000 -1.304688
v -0.225962 0.000000 -1.318750
v -0.225962 0.600000 -1.318750
v -0.174546 0.000000 -1.330649
v -0.174546 0.600000 -1.330649
v -0.122222 0.000000 -1.340385
v -0.122222 0.600000 -1.340385
v -0.068990 0.000000 -1.347957
v -0.068990 0.600000 -1.347957
v -0.014850 0.000000 -1.353366
v -0.014850 0.600000 -1.353366
v 0.040198 0.000000 -1.356611
v 0.040198 0.600000 -1.356611
v 0.096154 0.000000 -1.357692
v 0.096154 0.600000 -1.357692
v 0.148104 0.000000 -1.356744
v 0.148104 0.600000 -1.356744
v 0.198825 0.000000 -1.353900
v 0.198825 0.600000 -1.353900
v 0.248317 0.000000 -1.349159
v 0.248317 0.600000 -1.349159
v 0.296581 0.000000 -1.342521
v 0.296581 0.600000 -1.342521
v 0.343616 0.000000 -1.333988
v 0.343616 0.600000 -1.333988
v 0.389423 0.000000 -1.323558
v 0.389423 0.600000 -1.323558
v 0.434001 0.000000 -1.311231
v 0.434001 0.600000 -1.311231
v 0.477350 0.000000 -1.297009
v 0.477350 0.600000 -1.297009
v 0.519471 0.000000 -1.280890
v 0.519471 0.600000 -1.280890
v 0.560363 0.000000 -1.262874
v 0.560363 0.600000 -1.262874
v 0.600027 0.000000 -1.242962
v 0.600027 0.600000 -1.242962
v 0.638462 0.000000 -1.221154
v 0.638462 0.600000 -1.221154
v 0.675881 0.000000 -1.197369
v 0.675881 0.600000 -1.197369
v 0.712500 0.000000 -1.171528
v 0.712500 0.600000 -1.171528
v 0.748317 0.000000 -1.143630
v 0.748317 0.600000 -1.143630
v 0.783333 0.000000 -1.113675
v 0.783333 0.600000 -1.113675
v 0.817548 0.000000 -1.081664
v 0.817548 0.600000 -1.081664
v 0.850962 0.000000 -1.047596
v 0.850962 0.600000 -1.047596
v 0.883574 0.000000 -1.011472
v 0.883574 0.600000 -1.011472
v 0.915385 0.000000 -0.973291
v 0.915385 0.600000 -0.973291
v 0.946394 0.000000 -0.933053
v 0.946394 0.600000 -0.933053
v 0.976602 0.000000 -0.890759
v 0.976602 0.600000 -0.890759
v 1.006010 0.000000 -0.846408
v 1.006010 0.600000 -0.846408
v 1.034615 0.000000 -0.800000
v 1.034615 0.600000 -0.800000
v 0.807692 0.000000 -0.642308
v 0.807692 0.600000 -0.642308
v 0.787954 0.000000 -0.676937
v 0.787954 0.600000 -0.676937
v 0.767201 0.000000 -0.710310
v 0.767201 0.600000 -0.710310
v 0.745433 0.000000 -0.742428
v 0.745433 0.600000 -0.742428
v 0.722650 0.000000 -0.773291
v 0.722650 0.600000 -0.773291
v 0.698852 0.000000 -0.802898
v 0.698852 0.600000 -0.802898
v 0.674038 0.000000 -0.831250
v 0.674038 0.600000 -0.831250
v 0.648210 0.000000 -0.858347
v 0.648210 0.600000 -0.858347
v 0.621368 0.000000 -0.884188
v 0.621368 0.600000 -0.884188
v 0.593510 0.000000 -0.908774
v 0.593510 0.600000 -0.908774
v 0.564637 0.000000 -0.932105
v 0.564637 0.600000 -0.932105
v 0.534749 0.000000 -0.954180
v 0.534749 0.600000 -0.954180
v 0.503846 0.000000 -0.975000
v 0.503846 0.600000 -0.975000
v 0.472035 0.000000 -0.994351
v 0.472035 0.600000 -0.994351
v 0.439423 0.000000 -1.012019
v 0.439423 0.600000 -1.012019
v 0.406010 0.000000 -1.028005
v 0.406010 0.600000 -1.028005
v 0.371795 0.000000 -1.042308
v 0.371795 0.600000 -1.042308
v 0.336779 0.000000 -1.054928
v 0.336779 0.600000 -1.054928
v 0.300962 0.000000 -1.065866
v 0.300962 0.600000 -1.065866
v 0.264343 0.000000 -1.075120
v 0.264343 0.600000 -1.075120
v 0.226923 0.000000 -1.082693
v 0.226923 0.600000 -1.082693
v 0.188702 0.000000 -1.088582
v 0.188702 0.600000 -1.088582
v 0.149680 0.000000 -1.092789
v 0.149680 0.600000 -1.092789
v 0.109856 0.000000 -1.095313
v 0.109856 0.600000 -1.095313
v 0.069231 0.000000 -1.096154
v 0.069231 0.600000 -1.096154
v 0.029100 0.000000 -1.095246
v 0.029100 0.600000 -1.095246
v -0.010523 0.000000 -1.092521
v -0.010523 0.600000 -1.092521
v -0.049639 0.000000 -1.087981
v -0.049639 0.600000 -1.087981
v -0.088248 0.000000 -1.081624
v -0.088248 0.600000 -1.081624
v -0.126349 0.000000 -1.073451
v -0.126349 0.600000 -1.073451
v -0.163942 0.000000 -1.063462
v -0.163942 0.600000 -1.063462
v -0.201028 0.000000 -1.051656
v -0.201028 0.600000 -1.051656
v -0.237607 0.000000 -1.038034
v -0.237607 0.600000 -1.038034
v -0.273678 0.000000 -1.022596
v -0.273678 0.600000 -1.022596
v -0.309241 0.000000 -1.005342
v -0.309241 0.600000 -1.005342
v -0.344297 0.000000 -0.986272
v -0.344297 0.600000 -0.986272
v -0.378846 0.000000 -0.965385
v -0.378846 0.600000 -0.965385
v -0.412580 0.000000 -0.942735
v -0.412580 0.600000 -0.942735
v -0.445192 0.000000 -0.918376
v -0.445192 0.600000 -0.918376
v -0.476683 0.000000 -0.892308
v -0.476683 0.600000 -0.892308
v -0.507051 0.000000 -0.864530
v -0.507051 0.600000 -0.864530
v -0.536298 0.000000 -0.835043
v -0.536298 0.600000 -0.835043
v -0.564423 0.000000 -0.803846
v -0.564423 0.600000 -0.803846
v -0.591426 0.000000 -0.770940
v -0.591426 0.600000 -0.770940
v -0.617308 0.000000 -0.736325
v -0.617308 0.600000 -0.736325
v -0.642067 0.000000 -0.700000
v -0.642067 0.600000 -0.700000
v -0.665705 0.000000 -0.661966
v -0.665705 0.600000 -0.661966
v -0.688221 0.000000 -0.622222
v -0.688221 0.600000 -0.622222
v -0.709615 0.000000 -0.580769
v -0.709615 0.600000 -0.580769
v -0.729581 0.000000 -0.537794
v -0.729581 0.600000 -0.537794
v -0.747810 0.000000 -0.493483
v -0.747810 0.600000 -0.493483
v -0.764303 0.000000 -0.447837
v -0.764303 0.600000 -0.447837
v -0.779060 0.000000 -0.400855
v -0.779060 0.600000 -0.400855
v -0.792081 0.000000 -0.352537
v -0.792081 0.600000 -0.352537
v -0.803365 0.000000 -0.302885
v -0.803365 0.600000 -0.302885
v -0.812914 0.000000 -0.251896
v -0.812914 0.600000 -0.251896
v -0.820726 0.000000 -0.199573
v -0.820726 0.600000 -0.199573
v -0.826803 0.000000 -0.145914
v -0.826803 0.600000 -0.145914
v -0.831143 0.000000 -0.090919
v -0.831143 0.600000 -0.090919
v -0.833747 0.000000 -0.034589
v -0.833747 0.600000 -0.034589
v -0.834615 0.000000 0.023077
v -0.834615 0.600000 0.023077
v -0.833867 0.000000 0.075841
v -0.833867 0.600000 0.075841
v -0.831624 0.000000 0.127724
v -0.831624 0.600000 0.127724
v -0.827885 0.000000 0.178726
v -0.827885 0.600000 0.178726
v -0.822650 0.000000 0.228846
v -0.822650 0.600000 0.228846
v -0.815919 0.000000 0.278085
v -0.815919 0.600000 0.278085
v -0.807692 0.000000 0.326442
v -0.807692 0.600000 0.326442
v -0.797970 0.000000 0.373918
v -0.797970 0.600000 0.373918
v -0.786752 0.000000 0.420513
v -0.786752 0.600000 0.420513
v -0.774038 0.000000 0.466226
v -0.774038 0.600000 0.466226
v -0.759829 0.000000 0.511058
v -0.759829 0.600000 0.511058
v -0.744124 0.000000 0.555008
v -0.744124 0.600000 0.555008
v -0.726923 0.000000 0.598077
v -0.726923 0.600000 0.598077
v -0.708333 0.000000 0.639930
v -0.708333 0.600000 0.639930
v -0.688462 0.000000 0.680235
v -0.688462 0.600000 0.680235
v -0.667308 0.000000 0.718990
v -0.667308 0.600000 0.718990
v -0.644872 0.000000 0.756196
v -0.644872 0.600000 0.756196
v -0.621154 0.000000 0.791854
v -0.621154 0.600000 0.791854
v -0.596154 0.000000 0.825961
v -0.596154 0.600000 0.825961
v -0.569872 0.000000 0.858520
v -0.569872 0.600000 0.858520
v -0.542308 0.000000 0.889530
v -0.542308 0.600000 0.889530
v -0.513462 0.000000 0.918990
v -0.513462 0.600000 0.918990
v -0.483333 0.000000 0.946902
v -0.483333 0.600000 0.946902
v -0.451923 0.000000 0.973264
v -0.451923 0.600000 0.973264
v -0.419231 0.000000 0.998077
v -0.419231 0.600000 0.998077
v -0.385443 0.000000 1.021114
v -0.385443 0.600000 1.021114
v -0.350748 0.000000 1.042147
v -0.350748 0.600000 1.042147
v -0.315144 0.000000 1.061178
v -0.315144 0.600000 1.061178
v -0.278633 0.000000 1.078205
v -0.278633 0.600000 1.078205
v -0.241213 0.000000 1.093229
v -0.241213 0.600000 1.093229
v -0.202885 0.000000 1.106250
v -0.202885 0.600000 1.106250
v -0.163649 0.000000 1.117268
v -0.163649 0.600000 1.117268
v -0.123504 0.000000 1.126282
v -0.123504 0.600000 1.126282
v -0.082452 0.000000 1.133293
v -0.082452 0.600000 1.133293
v -0.040491 0.000000 1.138301
v -0.040491 0.600000 1.138301
v 0.002377 0.000000 1.141306
v 0.002377 0.600000 1.141306
v 0.046154 0.000000 1.142308
v 0.046154 0.600000 1.142308
v 0.085630 0.000000 1.141587
v 0.085630 0.600000 1.141587
v 0.124573 0.000000 1.139423
v 0.124573 0.600000 1.139423
v 0.162981 0.000000 1.135817
v 0.162981 0.600000 1.135817
v 0.200855 0.000000 1.130769
v 0.200855 0.600000 1.130769
v 0.238194 0.000000 1.124279
v 0.238194 0.600000 1.124279
v 0.275000 0.000000 1.116346
v 0.275000 0.600000 1.116346
v 0.311271 0.000000 1.106971
v 0.311271 0.600000 1.106971
v 0.347009 0.000000 1.096154
v 0.347009 0.600000 1.096154
v 0.382212 0.000000 1.083894
v 0.382212 0.600000 1.083894
v 0.416880 0.000000 1.070193
v 0.416880 0.600000 1.070193
v 0.451015 0.000000 1.055048
v 0.451015 0.600000 1.055048
v 0.484615 0.000000 1.038461
v 0.484615 0.600000 1.038461
v 0.517361 0.000000 1.020780
v 0.517361 0.600000 1.020780
v 0.548932 0.000000 1.002350
v 0.548932 0.600000 1.002350
v 0.579327 0.000000 0.983173
v 0.579327 0.600000 0.983173
v 0.608547 0.000000 0.963248
v 0.608547 0.600000 0.963248
v 0.636592 0.000000 0.942575
v 0.636592 0.600000 0.942575
v 0.663462 0.000000 0.921154
v 0.663462 0.600000 0.921154
v 0.689156 0.000000 0.898985
v 0.689156 0.600000 0.898985
v 0.713675 0.000000 0.876068
v 0.713675 0.600000 0.876068
v 0.737019 0.000000 0.852404
v 0.737019 0.600000 0.852404
v 0.759188 0.000000 0.827991
v 0.759188 0.600000 0.827991
v 0.780182 0.000000 0.802831
v 0.780182 0.600000 0.802831
v 0.800000 0.000000 0.776923
v 0.800000 0.600000 0.776923
v 0.800000 0.000000 0.246154
v 0.800000 0.600000 0.246154
v 0.003846 0.000000 0.246154
v 0.003846 0.600000 0.246154
v 0.003846 0.000000 -0.015385
v 0.003846 0.600000 -0.015385
v 1.057692 0.000000 -0.015385
v 1.057692 0.600000 -0.015385
v 1.057692 0.000000 1.350000
v 1.057692 0.600000 1.350000
v 0.830769 0.000000 1.350000
v 0.830769 0.600000 1.350000
v 0.800000 0.000000 1.053846
v 0.800000 0.600000 1.053846
v 0.778325 0.000000 1.081504
v 0.778325 0.600000 1.081504
v 0.755609 0.000000 1.108066
v 0.755609 0.600000 1.108066
v 0.731851 0.000000 1.133534
v 0.731851 0.600000 1.133534
v 0.707051 0.000000 1.157906
v 0.707051 0.600000 1.157906
v 0.681210 0.000000 1.181183
v 0.681210 0.600000 1.181183
v 0.654327 0.000000 1.203365
v 0.654327 0.600000 1.203365
v 0.626402 0.000000 1.224452
v 0.626402 0.600000 1.224452
v 0.597436 0.000000 1.244444
v 0.597436 0.600000 1.244444
v 0.567428 0.000000 1.263341
v 0.567428 0.600000 1.263341
v 0.536378 0.000000 1.281143
v 0.536378 0.600000 1.281143
v 0.504287 0.000000 1.297850
v 0.504287 0.600000 1.297850
v 0.471154 0.000000 1.313462
v 0.471154 0.600000 1.313462
v 0.437220 0.000000 1.327898
v 0.437220 0.600000 1.327898
v 0.402724 0.000000 1.341079
v 0.402724 0.600000 1.341079
v 0.367668 0.000000 1.353005
v 0.367668 0.600000 1.353005
v 0.332051 0.000000 1.363675
v 0.332051 0.600000 1.363675
v 0.295873 0.000000 1.373090
v 0.295873 0.600000 1.373090
v 0.259135 0.000000 1.381250
v 0.259135 0.600000 1.381250
v 0.221835 0.000000 1.388154
v 0.221835 0.600000 1.388154
v 0.183974 0.000000 1.393803
v 0.183974 0.600000 1.393803
v 0.145553 0.000000 1.398197
v 0.145553 0.600000 1.398197
v 0.106571 0.000000 1.401335
v 0.106571 0.600000 1.401335
v 0.067027 0.000000 1.403218
v 0.067027 0.600000 1.403218
vn -0.0000 1.0000 -0.0000
vn -0.0000 -1.0000 -0.0000
vn -0.0029 -0.0000 1.0000
vn -0.0435 -0.0000 0.9991
vn -0.0879 -0.0000 0.9961
vn -0.1332 -0.0000 0.9911
vn -0.1792 -0.0000 0.9838
vn -0.2255 -0.0000 0.9743
vn -0.2718 -0.0000 0.9624
vn -0.3178 -0.0000 0.9481
vn -0.3633 -0.0000 0.9317
vn -0.4077 -0.0000 0.9131
vn -0.4510 -0.0000 0.8925
vn -0.4927 -0.0000 0.8702
vn -0.5337 -0.0000 0.8457
vn -0.5748 -0.0000 0.8183
vn -0.6154 -0.0000 0.7882
vn -0.6544 -0.0000 0.7562
vn -0.6913 -0.0000 0.7226
vn -0.7261 -0.0000 0.6876
vn -0.7585 -0.0000 0.6516
vn -0.7885 -0.0000 0.6150
vn -0.8160 -0.0000 0.5780
vn -0.8411 -0.0000 0.5409
vn -0.8637 -0.0000 0.5040
vn -0.8839 -0.0000 0.4676
vn -0.9025 -0.0000 0.4307
vn -0.9200 -0.0000 0.3919
vn -0.9359 -0.0000 0.3521
vn -0.9498 -0.0000 0.3128
vn -0.9617 -0.0000 0.2739
vn -0.9718 -0.0000 0.2359
vn -0.9801 -0.0000 0.1987
vn -0.9867 -0.0000 0.1626
vn -0.9918 -0.0000 0.1276
vn -0.9956 -0.0000 0.0938
vn -0.9981 -0.0000 0.0613
vn -0.9995 -0.0000 0.0301
vn -1.0000 -0.0000 -0.0002
vn -0.9995 -0.0000 -0.0309
vn -0.9980 -0.0000 -0.0632
vn -0.9953 -0.0000 -0.0971
vn -0.9912 -0.0000 -0.1326
vn -0.9855 -0.0000 -0.1697
vn -0.9781 -0.0000 -0.2082
vn -0.9687 -0.0000 -0.2482
vn -0.9572 -0.0000 -0.2894
vn -0.9434 -0.0000 -0.3318
vn -0.9270 -0.0000 -0.3749
vn -0.9081 -0.0000 -0.4187
vn -0.8876 -0.0000 -0.4607
vn -0.8666 -0.0000 -0.4990
vn -0.8443 -0.0000 -0.5358
vn -0.8197 -0.0000 -0.5728
vn -0.7925 -0.0000 -0.6098
vn -0.7629 -0.0000 -0.6465
vn -0.7308 -0.0000 -0.6826
vn -0.6963 -0.0000 -0.7177
vn -0.6596 -0.0000 -0.7516
vn -0.6209 -0.0000 -0.7839
vn -0.5805 -0.0000 -0.8143
vn -0.5386 -0.0000 -0.8426
vn -0.4967 -0.0000 -0.8679
vn -0.4562 -0.0000 -0.8899
vn -0.4157 -0.0000 -0.9095
vn -0.3743 -0.0000 -0.9273
vn -0.3322 -0.0000 -0.9432
vn -0.2896 -0.0000 -0.9571
vn -0.2469 -0.0000 -0.9690
vn -0.2042 -0.0000 -0.9789
vn -0.1619 -0.0000 -0.9868
vn -0.1201 -0.0000 -0.9928
vn -0.0791 -0.0000 -0.9969
vn -0.0391 -0.0000 -0.9992
vn -0.0005 -0.0000 -1.0000
vn 0.0371 -0.0000 -0.9993
vn 0.0757 -0.0000 -0.9971
vn 0.1158 -0.0000 -0.9933
vn 0.1574 -0.0000 -0.9875
vn 0.2003 -0.0000 -0.9797
vn 0.2443 -0.0000 -0.9697
vn 0.2892 -0.0000 -0.9573
vn 0.3347 -0.0000 -0.9423
vn 0.3804 -0.0000 -0.9248
vn 0.4260 -0.0000 -0.9047
vn 0.4712 -0.0000 -0.8820
vn 0.5151 -0.0000 -0.8571
vn 0.5567 -0.0000 -0.8307
vn 0.5957 -0.0000 -0.8032
vn 0.6324 -0.0000 -0.7746
vn 0.6668 -0.0000 -0.7452
vn 0.6987 -0.0000 -0.7154
vn 0.7283 -0.0000 -0.6853
vn 0.7554 -0.0000 -0.6552
vn 0.7803 -0.0000 -0.6254
vn 0.8030 -0.0000 -0.5959
vn 0.8237 -0.0000 -0.5670
vn 0.8425 -0.0000 -0.5387
vn 0.9789 -0.0000 0.2041
vn -0.2209 -0.0000 0.9753
vn -0.8591 -0.0000 0.5117
vn -0.8387 -0.0000 0.5447
vn -0.8163 -0.0000 0.5776
vn -0.7921 -0.0000 0.6103
vn -0.7661 -0.0000 0.6427
vn -0.7383 -0.0000 0.6744
vn -0.7089 -0.0000 0.7054
vn -0.6778 -0.0000 0.7353
vn -0.6453 -0.0000 0.7640
vn -0.6115 -0.0000 0.7913
vn -0.5766 -0.0000 0.8170
vn -0.5394 -0.0000 0.8421
vn -0.4982 -0.0000 0.8671
vn -0.4541 -0.0000 0.8909
vn -0.4088 -0.0000 0.9126
vn -0.3625 -0.0000 0.9320
vn -0.3157 -0.0000 0.9489
vn -0.2686 -0.0000 0.9632
vn -0.2217 -0.0000 0.9751
vn -0.1754 -0.0000 0.9845
vn -0.1298 -0.0000 0.9915
vn -0.0852 -0.0000 0.9964
vn -0.0420 -0.0000 0.9991
vn 0.0010 -0.0000 1.0000
vn 0.0456 -0.0000 0.9990
vn 0.0920 -0.0000 0.9958
vn 0.1389 -0.0000 0.9903
vn 0.1862 -0.0000 0.9825
vn 0.2333 -0.0000 0.9724
vn 0.2802 -0.0000 0.9600
vn 0.3263 -0.0000 0.9453
vn 0.3713 -0.0000 0.9285
vn 0.4151 -0.0000 0.9098
vn 0.4573 -0.0000 0.8893
vn 0.4977 -0.0000 0.8673
vn 0.5375 -0.0000 0.8432
vn 0.5781 -0.0000 0.8160
vn 0.6182 -0.0000 0.7860
vn 0.6565 -0.0000 0.7543
vn 0.6927 -0.0000 0.7213
vn 0.7266 -0.0000 0.6871
vn 0.7581 -0.0000 0.6522
vn 0.7872 -0.0000 0.6167
vn 0.8138 -0.0000 0.5812
vn 0.8380 -0.0000 0.5457
vn 0.8599 -0.0000 0.5105
vn 0.8795 -0.0000 0.4759
vn 0.8980 -0.0000 0.4401
vn 0.9161 -0.0000 0.4010
vn 0.9329 -0.0000 0.3602
vn 0.9475 -0.0000 0.3198
vn 0.9600 -0.0000 0.2800
vn 0.9705 -0.0000 0.2410
vn 0.9792 -0.0000 0.2029
vn 0.9861 -0.0000 0.1659
vn 0.9915 -0.0000 0.1301
vn 0.9954 -0.0000 0.0956
vn 0.9980 -0.0000 0.0624
vn 0.9995 -0.0000 0.0306
vn 1.0000 -0.0000 0.0004
vn 0.9996 -0.0000 -0.0287
vn 0.9983 -0.0000 -0.0582
vn 0.9961 -0.0000 -0.0885
vn 0.9928 -0.0000 -0.1197
vn 0.9884 -0.0000 -0.1516
vn 0.9829 -0.0000 -0.1842
vn 0.9761 -0.0000 -0.2174
vn 0.9680 -0.0000 -0.2510
vn 0.9585 -0.0000 -0.2851
vn 0.9476 -0.0000 -0.3194
vn 0.9353 -0.0000 -0.3538
vn 0.9215 -0.0000 -0.3885
vn 0.9056 -0.0000 -0.4242
vn 0.8875 -0.0000 -0.4608
vn 0.8673 -0.0000 -0.4979
vn 0.8447 -0.0000 -0.5352
vn 0.8198 -0.0000 -0.5727
vn 0.7925 -0.0000 -0.6098
vn 0.7630 -0.0000 -0.6464
vn 0.7312 -0.0000 -0.6822
vn 0.6973 -0.0000 -0.7168
vn 0.6614 -0.0000 -0.7500
vn 0.6239 -0.0000 -0.7815
vn 0.5841 -0.0000 -0.8117
vn 0.5411 -0.0000 -0.8410
vn 0.4951 -0.0000 -0.8688
vn 0.4472 -0.0000 -0.8944
vn 0.3978 -0.0000 -0.9175
vn 0.3473 -0.0000 -0.9378
vn 0.2961 -0.0000 -0.9552
vn 0.2448 -0.0000 -0.9696
vn 0.1938 -0.0000 -0.9810
vn 0.1435 -0.0000 -0.9897
vn 0.0942 -0.0000 -0.9955
vn 0.0464 -0.0000 -0.9989
vn 0.0023 -0.0000 -1.0000
vn -0.0369 -0.0000 -0.9993
vn -0.0745 -0.0000 -0.9972
vn -0.1128 -0.0000 -0.9936
vn -0.1517 -0.0000 -0.9884
vn -0.1910 -0.0000 -0.9816
vn -0.2305 -0.0000 -0.9731
vn -0.2700 -0.0000 -0.9629
vn -0.3094 -0.0000 -0.9509
vn -0.3483 -0.0000 -0.9374
vn -0.3866 -0.0000 -0.9222
vn -0.4242 -0.0000 -0.9056
vn -0.4590 -0.0000 -0.8885
vn -0.4897 -0.0000 -0.8719
vn -0.5189 -0.0000 -0.8548
vn -0.5486 -0.0000 -0.8361
vn -0.5785 -0.0000 -0.8157
vn -0.6085 -0.0000 -0.7936
vn -0.6384 -0.0000 -0.7697
vn -0.6682 -0.0000 -0.7440
vn -0.6975 -0.0000 -0.7166
vn -0.7263 -0.0000 -0.6874
vn -0.7542 -0.0000 -0.6566
vn -0.7812 -0.0000 -0.6243
vn -0.9472 -0.0000 -0.3207
vn -0.7071 -0.0000 0.7071
vn -0.7071 -0.0000 -0.7071
vn 0.7071 -0.0000 -0.7071
vn 0.7071 -0.0000 0.7071
vn -0.6696 -0.0000 0.7427
vn -0.2769 -0.0000 0.9609
vn 0.7737 -0.0000 0.6335
vn 0.7458 -0.0000 0.6662
vn 0.7162 -0.0000 0.6978
vn 0.6853 -0.0000 0.7283
vn 0.6530 -0.0000 0.7573
vn 0.6197 -0.0000 0.7849
vn 0.5855 -0.0000 0.8107
vn 0.5506 -0.0000 0.8348
vn 0.5152 -0.0000 0.8570
vn 0.4797 -0.0000 0.8774
vn 0.4441 -0.0000 0.8960
vn 0.4089 -0.0000 0.9126
vn 0.3743 -0.0000 0.9273
vn 0.3396 -0.0000 0.9406
vn 0.3046 -0.0000 0.9525
vn 0.2695 -0.0000 0.9630
vn 0.2344 -0.0000 0.9721
vn 0.1994 -0.0000 0.9799
vn 0.1648 -0.0000 0.9863
vn 0.1306 -0.0000 0.9914
vn 0.0969 -0.0000 0.9953
vn 0.0639 -0.0000 0.9980
vn 0.0316 -0.0000 0.9995
vt 0.287449 0.000000
vt 0.295547 0.000000
vt 0.291498 0.000000
vt 0.299595 0.000000
vt 0.283401 0.000000
vt 0.303644 0.000000
vt 0.279352 0.000000
vt 0.307692 0.000000
vt 0.275304 0.000000
vt 0.311741 0.000000
vt 0.271255 0.000000
vt 0.315789 0.000000
vt 0.267206 0.000000
vt 0.319838 0.000000
vt 0.263158 0.000000
vt 0.323887 0.000000
vt 0.259109 0.000000
vt 0.327935 0.000000
vt 0.255061 0.000000
vt 0.331984 0.000000
vt 0.251012 0.000000
vt 0.336032 0.000000
vt 0.246964 0.000000
vt 0.340081 0.000000
vt 0.242915 0.000000
vt 0.344130 0.000000
vt 0.238866 0.000000
vt 0.348178 0.000000
vt 0.234818 0.000000
vt 0.352227 0.000000
vt 0.230769 0.000000
vt 0.356275 0.000000
vt 0.226721 0.000000
vt 0.489879 0.000000
vt 0.360324 0.000000
vt 0.493927 0.000000
vt 0.485830 0.000000
vt 0.481781 0.000000
vt 0.497976 0.000000
vt 0.477733 0.000000
vt 0.502024 0.000000
vt 0.473684 0.000000
vt 0.506073 0.000000
vt 0.469636 0.000000
vt 0.364372 0.000000
vt 0.510121 0.000000
vt 0.222672 0.000000
vt 0.465587 0.000000
vt 0.514170 0.000000
vt 0.461538 0.000000
vt 0.518219 0.000000
vt 0.457490 0.000000
vt 0.522267 0.000000
vt 0.368421 0.000000
vt 0.218623 0.000000
vt 0.453441 0.000000
vt 0.526316 0.000000
vt 0.449393 0.000000
vt 0.530364 0.000000
vt 0.445344 0.000000
vt 0.372470 0.000000
vt 0.214575 0.000000
vt 0.534413 0.000000
vt 0.441296 0.000000
vt 0.538462 0.000000
vt 0.437247 0.000000
vt 0.376518 0.000000
vt 0.210526 0.000000
vt 0.542510 0.000000
vt 0.433198 0.000000
vt 0.546559 0.000000
vt 0.380567 0.000000
vt 0.429150 0.000000
vt 0.206478 0.000000
vt 0.550607 0.000000
vt 0.425101 0.000000
vt 0.554656 0.000000
vt 0.384615 0.000000
vt 0.421053 0.000000
vt 0.202429 0.000000
vt 0.558704 0.000000
vt 0.417004 0.000000
vt 0.388664 0.000000
vt 0.198381 0.000000
vt 0.562753 0.000000
vt 0.412955 0.000000
vt 0.566802 0.000000
vt 0.408907 0.000000
vt 0.404858 0.000000
vt 0.400810 0.000000
vt 0.396761 0.000000
vt 0.392713 0.000000
vt 0.194332 0.000000
vt 0.570850 0.000000
vt 0.190283 0.000000
vt 0.574899 0.000000
vt 0.578947 0.000000
vt 0.186235 0.000000
vt 0.582996 0.000000
vt 0.182186 0.000000
vt 0.587045 0.000000
vt 0.591093 0.000000
vt 0.178138 0.000000
vt 0.595142 0.000000
vt 0.174089 0.000000
vt 0.599190 0.000000
vt 0.170040 0.000000
vt 0.603239 0.000000
vt 0.607287 0.000000
vt 0.165992 0.000000
vt 0.611336 0.000000
vt 0.161943 0.000000
vt 0.615385 0.000000
vt 0.157895 0.000000
vt 0.619433 0.000000
vt 0.623482 0.000000
vt 0.153846 0.000000
vt 0.627530 0.000000
vt 0.149798 0.000000
vt 0.631579 0.000000
vt 0.145749 0.000000
vt 0.635628 0.000000
vt 0.886640 0.000000
vt 0.894737 0.000000
vt 0.890688 0.000000
vt 0.882591 0.000000
vt 0.898785 0.000000
vt 0.141700 0.000000
vt 0.639676 0.000000
vt 0.643725 0.000000
vt 0.137652 0.000000
vt 0.647773 0.000000
vt 0.133603 0.000000
vt 0.651822 0.000000
vt 0.655870 0.000000
vt 0.129555 0.000000
vt 0.878542 0.000000
vt 0.659919 0.000000
vt 0.125506 0.000000
vt 0.663968 0.000000
vt 0.121457 0.000000
vt 0.668016 0.000000
vt 0.672065 0.000000
vt 0.117409 0.000000
vt 0.676113 0.000000
vt 0.113360 0.000000
vt 0.680162 0.000000
vt 0.109312 0.000000
vt 0.684211 0.000000
vt 0.688259 0.000000
vt 0.105263 0.000000
vt 0.692308 0.000000
vt 0.101215 0.000000
vt 0.696356 0.000000
vt 0.097166 0.000000
vt 0.700405 0.000000
vt 0.704453 0.000000
vt 0.093117 0.000000
vt 0.874494 0.000000
vt 0.708502 0.000000
vt 0.870445 0.000000
vt 0.089069 0.000000
vt 0.712551 0.000000
vt 0.866397 0.000000
vt 0.862348 0.000000
vt 0.716599 0.000000
vt 0.085020 0.000000
vt 0.858300 0.000000
vt 0.720648 0.000000
vt 0.854251 0.000000
vt 0.906883 0.000000
vt 0.080972 0.000000
vt 0.724696 0.000000
vt 0.850202 0.000000
vt 0.846154 0.000000
vt 0.728745 0.000000
vt 0.076923 0.000000
vt 0.842105 0.000000
vt 0.732794 0.000000
vt 0.838057 0.000000
vt 0.736842 0.000000
vt 0.072874 0.000000
vt 0.834008 0.000000
vt 0.829960 0.000000
vt 0.740891 0.000000
vt 0.825911 0.000000
vt 0.068826 0.000000
vt 0.744939 0.000000
vt 0.910931 0.000000
vt 0.902834 0.000000
vt 0.821862 0.000000
vt 0.748988 0.000000
vt 0.817814 0.000000
vt 0.064777 0.000000
vt 0.753036 0.000000
vt 0.914980 0.000000
vt 0.813765 0.000000
vt 0.757085 0.000000
vt 0.809717 0.000000
vt 0.761134 0.000000
vt 0.805668 0.000000
vt 0.919028 0.000000
vt 0.060729 0.000000
vt 0.801619 0.000000
vt 0.765182 0.000000
vt 0.797571 0.000000
vt 0.769231 0.000000
vt 0.793522 0.000000
vt 0.773279 0.000000
vt 0.923077 0.000000
vt 0.789474 0.000000
vt 0.777328 0.000000
vt 0.785425 0.000000
vt 0.781377 0.000000
vt 0.056680 0.000000
vt 0.927126 0.000000
vt 0.931174 0.000000
vt 0.052632 0.000000
vt 0.935223 0.000000
vt 0.048583 0.000000
vt 0.939271 0.000000
vt 0.044534 0.000000
vt 0.943320 0.000000
vt 0.947368 0.000000
vt 0.040486 0.000000
vt 0.951417 0.000000
vt 0.036437 0.000000
vt 0.955466 0.000000
vt 0.032389 0.000000
vt 0.959514 0.000000
vt 0.963563 0.000000
vt 0.028340 0.000000
vt 0.967611 0.000000
vt 0.024291 0.000000
vt 0.971660 0.000000
vt 0.020243 0.000000
vt 0.975708 0.000000
vt 0.979757 0.000000
vt 0.016194 0.000000
vt 0.983806 0.000000
vt 0.012146 0.000000
vt 0.987854 0.000000
vt 0.008097 0.000000
vt 0.991903 0.000000
vt 0.995951 0.000000
vt 0.004049 0.000000
vt 1.000000 0.000000
vt 0.000000 0.000000
vt 0.000000 1.000000
vt 0.004032 1.000000
vt 0.004032 0.000000
vt 0.008065 1.000000
vt 0.008065 0.000000
vt 0.012097 1.000000
vt 0.012097 0.000000
vt 0.016129 1.000000
vt 0.016129 0.000000
vt 0.020161 1.000000
vt 0.020161 0.000000
vt 0.024194 1.000000
vt 0.024194 0.000000
vt 0.028226 1.000000
vt 0.028226 0.000000
vt 0.032258 1.000000
vt 0.032258 0.000000
vt 0.036290 1.000000
vt 0.036290 0.000000
vt 0.040323 1.000000
vt 0.040323 0.000000
vt 0.044355 1.000000
vt 0.044355 0.000000
vt 0.048387 1.000000
vt 0.048387 0.000000
vt 0.052419 1.000000
vt 0.052419 0.000000
vt 0.056452 1.000000
vt 0.056452 0.000000
vt 0.060484 1.000000
vt 0.060484 0.000000
vt 0.064516 1.000000
vt 0.064516 0.000000
vt 0.068548 1.000000
vt 0.068548 0.000000
vt 0.072581 1.000000
vt 0.072581 0.000000
vt 0.076613 1.000000
vt 0.076613 0.000000
vt 0.080645 1.000000
vt 0.080645 0.000000
vt 0.084677 1.000000
vt 0.084677 0.000000
vt 0.088710 1.000000
vt 0.088710 0.000000
vt 0.092742 1.000000
vt 0.092742 0.000000
vt 0.096774 1.000000
vt 0.096774 0.000000
vt 0.100806 1.000000
vt 0.100806 0.000000
vt 0.104839 1.000000
vt 0.104839 0.000000
vt 0.108871 1.000000
vt 0.108871 0.000000
vt 0.112903 1.000000
vt 0.112903 0.000000
vt 0.116935 1.000000
vt 0.116935 0.000000
vt 0.120968 1.000000
vt 0.120968 0.000000
vt 0.125000 1.000000
vt 0.125000 0.000000
vt 0.129032 1.000000
vt 0.129032 0.000000
vt 0.133065 1.000000
vt 0.133065 0.000000
vt 0.137097 1.000000
vt 0.137097 0.000000
vt 0.141129 1.000000
vt 0.141129 0.000000
vt 0.145161 1.000000
vt 0.145161 0.000000
vt 0.149194 1.000000
vt 0.149194 0.000000
vt 0.153226 1.000000
vt 0.153226 0.000000
vt 0.157258 1.000000
vt 0.157258 0.000000
vt 0.161290 1.000000
vt 0.161290 0.000000
vt 0.165323 1.000000
vt 0.165323 0.000000
vt 0.169355 1.000000
vt 0.169355 0.000000
vt 0.173387 1.000000
vt 0.173387 0.000000
vt 0.177419 1.000000
vt 0.177419 0.000000
vt 0.181452 1.000000
vt 0.181452 0.000000
vt 0.185484 1.000000
vt 0.185484 0.000000
vt 0.189516 1.000000
vt 0.189516 0.000000
vt 0.193548 1.000000
vt 0.193548 0.000000
vt 0.197581 1.000000
vt 0.197581 0.000000
vt 0.201613 1.000000
vt 0.201613 0.000000
vt 0.205645 1.000000
vt 0.205645 0.000000
vt 0.209677 1.000000
vt 0.209677 0.000000
vt 0.213710 1.000000
vt 0.213710 0.000000
vt 0.217742 1.000000
vt 0.217742 0.000000
vt 0.221774 1.000000
vt 0.221774 0.000000
vt 0.225806 1.000000
vt 0.225806 0.000000
vt 0.229839 1.000000
vt 0.229839 0.000000
vt 0.233871 1.000000
vt 0.233871 0.000000
vt 0.237903 1.000000
vt 0.237903 0.000000
vt 0.241935 1.000000
vt 0.241935 0.000000
vt 0.245968 1.000000
vt 0.245968 0.000000
vt 0.250000 1.000000
vt 0.250000 0.000000
vt 0.254032 1.000000
vt 0.254032 0.000000
vt 0.258065 1.000000
vt 0.258065 0.000000
vt 0.262097 1.000000
vt 0.262097 0.000000
vt 0.266129 1.000000
vt 0.266129 0.000000
vt 0.270161 1.000000
vt 0.270161 0.000000
vt 0.274194 1.000000
vt 0.274194 0.000000
vt 0.278226 1.000000
vt 0.278226 0.000000
vt 0.282258 1.000000
vt 0.282258 0.000000
vt 0.286290 1.000000
vt 0.286290 0.000000
vt 0.290323 1.000000
vt 0.290323 0.000000
vt 0.294355 1.000000
vt 0.294355 0.000000
vt 0.298387 1.000000
vt 0.298387 0.000000
vt 0.302419 1.000000
vt 0.302419 0.000000
vt 0.306452 1.000000
vt 0.306452 0.000000
vt 0.310484 1.000000
vt 0.310484 0.000000
vt 0.314516 1.000000
vt 0.314516 0.000000
vt 0.318548 1.000000
vt 0.318548 0.000000
vt 0.322581 1.000000
vt 0.322581 0.000000
vt 0.326613 1.000000
vt 0.326613 0.000000
vt 0.330645 1.000000
vt 0.330645 0.000000
vt 0.334677 1.000000
vt 0.334677 0.000000
vt 0.338710 1.000000
vt 0.338710 0.000000
vt 0.342742 1.000000
vt 0.342742 0.000000
vt 0.346774 1.000000
vt 0.346774 0.000000
vt 0.350806 1.000000
vt 0.350806 0.000000
vt 0.354839 1.000000
vt 0.354839 0.000000
vt 0.358871 1.000000
vt 0.358871 0.000000
vt 0.362903 1.000000
vt 0.362903 0.000000
vt 0.366935 1.000000
vt 0.366935 0.000000
vt 0.370968 1.000000
vt 0.370968 0.000000
vt 0.375000 1.000000
vt 0.375000 0.000000
vt 0.379032 1.000000
vt 0.379032 0.000000
vt 0.383065 1.000000
vt 0.383065 0.000000
vt 0.387097 1.000000
vt 0.387097 0.000000
vt 0.391129 1.000000
vt 0.391129 0.000000
vt 0.395161 1.000000
vt 0.395161 0.000000
vt 0.399194 1.000000
vt 0.399194 0.000000
vt 0.403226 1.000000
vt 0.403226 0.000000
vt 0.407258 1.000000
vt 0.407258 0.000000
vt 0.411290 1.000000
vt 0.411290 0.000000
vt 0.415323 1.000000
vt 0.415323 0.000000
vt 0.419355 1.000000
vt 0.419355 0.000000
vt 0.423387 1.000000
vt 0.423387 0.000000
vt 0.427419 1.000000
vt 0.427419 0.000000
vt 0.431452 1.000000
vt 0.431452 0.000000
vt 0.435484 1.000000
vt 0.435484 0.000000
vt 0.439516 1.000000
vt 0.439516 0.000000
vt 0.443548 1.000000
vt 0.443548 0.000000
vt 0.447581 1.000000
vt 0.447581 0.000000
vt 0.451613 1.000000
vt 0.451613 0.000000
vt 0.455645 1.000000
vt 0.455645 0.000000
vt 0.459677 1.000000
vt 0.459677 0.000000
vt 0.463710 1.000000
vt 0.463710 0.000000
vt 0.467742 1.000000
vt 0.467742 0.000000
vt 0.471774 1.000000
vt 0.471774 0.000000
vt 0.475806 1.000000
vt 0.475806 0.000000
vt 0.479839 1.000000
vt 0.479839 0.000000
vt 0.483871 1.000000
vt 0.483871 0.000000
vt 0.487903 1.000000
vt 0.487903 0.000000
vt 0.491935 1.000000
vt 0.491935 0.000000
vt 0.495968 1.000000
vt 0.495968 0.000000
vt 0.500000 1.000000
vt 0.500000 0.000000
vt 0.504032 1.000000
vt 0.504032 0.000000
vt 0.508065 1.000000
vt 0.508065 0.000000
vt 0.512097 1.000000
vt 0.512097 0.000000
vt 0.516129 1.000000
vt 0.516129 0.000000
vt 0.520161 1.000000
vt 0.520161 0.000000
vt 0.524194 1.000000
vt 0.524194 0.000000
vt 0.528226 1.000000
vt 0.528226 0.000000
vt 0.532258 1.000000
vt 0.532258 0.000000
vt 0.536290 1.000000
vt 0.536290 0.000000
vt 0.540323 1.000000
vt 0.540323 0.000000
vt 0.544355 1.000000
vt 0.544355 0.000000
vt 0.548387 1.000000
vt 0.548387 0.000000
vt 0.552419 1.000000
vt 0.552419 0.000000
vt 0.556452 1.000000
vt 0.556452 0.000000
vt 0.560484 1.000000
vt 0.560484 0.000000
vt 0.564516 1.000000
vt 0.564516 0.000000
vt 0.568548 1.000000
vt 0.568548 0.000000
vt 0.572581 1.000000
vt 0.572581 0.000000
vt 0.576613 1.000000
vt 0.576613 0.000000
vt 0.580645 1.000000
vt 0.580645 0.000000
vt 0.584677 1.000000
vt 0.584677 0.000000
vt 0.588710 1.000000
vt 0.588710 0.000000
vt 0.592742 1.000000
vt 0.592742 0.000000
vt 0.596774 1.000000
vt 0.596774 0.000000
vt 0.600806 1.000000
vt 0.600806 0.000000
vt 0.604839 1.000000
vt 0.604839 0.000000
vt 0.608871 1.000000
vt 0.608871 0.000000
vt 0.612903 1.000000
vt 0.612903 0.000000
vt 0.616935 1.000000
vt 0.616935 0.000000
vt 0.620968 1.000000
vt 0.620968 0.000000
vt 0.625000 1.000000
vt 0.625000 0.000000
vt 0.629032 1.000000
vt 0.629032 0.000000
vt 0.633065 1.000000
vt 0.633065 0.000000
vt 0.637097 1.000000
vt 0.637097 0.000000
vt 0.641129 1.000000
vt 0.641129 0.000000
vt 0.645161 1.000000
vt 0.645161 0.000000
vt 0.649194 1.000000
vt 0.649194 0.000000
vt 0.653226 1.000000
vt 0.653226 0.000000
vt 0.657258 1.000000
vt 0.657258 0.000000
vt 0.661290 1.000000
vt 0.661290 0.000000
vt 0.665323 1.000000
vt 0.665323 0.000000
vt 0.669355 1.000000
vt 0.669355 0.000000
vt 0.673387 1.000000
vt 0.673387 0.000000
vt 0.677419 1.000000
vt 0.677419 0.000000
vt 0.681452 1.000000
vt 0.681452 0.000000
vt 0.685484 1.000000
vt 0.685484 0.000000
vt 0.689516 1.000000
vt 0.689516 0.000000
vt 0.693548 1.000000
vt 0.693548 0.000000
vt 0.697581 1.000000
vt 0.697581 0.000000
vt 0.701613 1.000000
vt 0.701613 0.000000
vt 0.705645 1.000000
vt 0.705645 0.000000
vt 0.709677 1.000000
vt 0.709677 0.000000
vt 0.713710 1.000000
vt 0.713710 0.000000
vt 0.717742 1.000000
vt 0.717742 0.000000
vt 0.721774 1.000000
vt 0.721774 0.000000
vt 0.725806 1.000000
vt 0.725806 0.000000
vt 0.729839 1.000000
vt 0.729839 0.000000
vt 0.733871 1.000000
vt 0.733871 0.000000
vt 0.737903 1.000000
vt 0.737903 0.000000
vt 0.741935 1.000000
vt 0.741935 0.000000
vt 0.745968 1.000000
vt 0.745968 0.000000
vt 0.750000 1.000000
vt 0.750000 0.000000
vt 0.754032 1.000000
vt 0.754032 0.000000
vt 0.758065 1.000000
vt 0.758065 0.000000
vt 0.762097 1.000000
vt 0.762097 0.000000
vt 0.766129 1.000000
vt 0.766129 0.000000
vt 0.770161 1.000000
vt 0.770161 0.000000
vt 0.774194 1.000000
vt 0.774194 0.000000
vt 0.778226 1.000000
vt 0.778226 0.000000
vt 0.782258 1.000000
vt 0.782258 0.000000
vt 0.786290 1.000000
vt 0.786290 0.000000
vt 0.790323 1.000000
vt 0.790323 0.000000
vt 0.794355 1.000000
vt 0.794355 0.000000
vt 0.798387 1.000000
vt 0.798387 0.000000
vt 0.802419 1.000000
vt 0.802419 0.000000
vt 0.806452 1.000000
vt 0.806452 0.000000
vt 0.810484 1.000000
vt 0.810484 0.000000
vt 0.814516 1.000000
vt 0.814516 0.000000
vt 0.818548 1.000000
vt 0.818548 0.000000
vt 0.822581 1.000000
vt 0.822581 0.000000
vt 0.826613 1.000000
vt 0.826613 0.000000
vt 0.830645 1.000000
vt 0.830645 0.000000
vt 0.834677 1.000000
vt 0.834677 0.000000
vt 0.838710 1.000000
vt 0.838710 0.000000
vt 0.842742 1.000000
vt 0.842742 0.000000
vt 0.846774 1.000000
vt 0.846774 0.000000
vt 0.850806 1.000000
vt 0.850806 0.000000
vt 0.854839 1.000000
vt 0.854839 0.000000
vt 0.858871 1.000000
vt 0.858871 0.000000
vt 0.862903 1.000000
vt 0.862903 0.000000
vt 0.866935 1.000000
vt 0.866935 0.000000
vt 0.870968 1.000000
vt 0.870968 0.000000
vt 0.875000 1.000000
vt 0.875000 0.000000
vt 0.879032 1.000000
vt 0.879032 0.000000
vt 0.883065 1.000000
vt 0.883065 0.000000
vt 0.887097 1.000000
vt 0.887097 0.000000
vt 0.891129 1.000000
vt 0.891129 0.000000
vt 0.895161 1.000000
vt 0.895161 0.000000
vt 0.899194 1.000000
vt 0.899194 0.000000
vt 0.903226 1.000000
vt 0.903226 0.000000
vt 0.907258 1.000000
vt 0.907258 0.000000
vt 0.911290 1.000000
vt 0.911290 0.000000
vt 0.915323 1.000000
vt 0.915323 0.000000
vt 0.919355 1.000000
vt 0.919355 0.000000
vt 0.923387 1.000000
vt 0.923387 0.000000
vt 0.927419 1.000000
vt 0.927419 0.000000
vt 0.931452 1.000000
vt 0.931452 0.000000
vt 0.935484 1.000000
vt 0.935484 0.000000
vt 0.939516 1.000000
vt 0.939516 0.000000
vt 0.943548 1.000000
vt 0.943548 0.000000
vt 0.947581 1.000000
vt 0.947581 0.000000
vt 0.951613 1.000000
vt 0.951613 0.000000
vt 0.955645 1.000000
vt 0.955645 0.000000
vt 0.959677 1.000000
vt 0.959677 0.000000
vt 0.963710 1.000000
vt 0.963710 0.000000
vt 0.967742 1.000000
vt 0.967742 0.000000
vt 0.971774 1.000000
vt 0.971774 0.000000
vt 0.975806 1.000000
vt 0.975806 0.000000
vt 0.979839 1.000000
vt 0.979839 0.000000
vt 0.983871 1.000000
vt 0.983871 0.000000
vt 0.987903 1.000000
vt 0.987903 0.000000
vt 0.991935 1.000000
vt 0.991935 0.000000
vt 0.995968 1.000000
vt 0.995968 0.000000
vt 1.000000 1.000000
s 0
usemtl Material.001
f 72/1/1 74/2/1 73/3/1
f 72/1/1 75/4/1 74/2/1
f 71/5/1 75/4/1 72/1/1
f 71/5/1 76/6/1 75/4/1
f 70/7/1 76/6/1 71/5/1
f 70/7/1 77/8/1 76/6/1
f 69/9/1 77/8/1 70/7/1
f 69/9/1 78/10/1 77/8/1
f 68/11/1 78/10/1 69/9/1
f 68/11/1 79/12/1 78/10/1
f 67/13/1 79/12/1 68/11/1
f 67/13/1 80/14/1 79/12/1
f 66/15/1 80/14/1 67/13/1
f 66/15/1 81/16/1 80/14/1
f 65/17/1 81/16/1 66/15/1
f 65/17/1 82/18/1 81/16/1
f 64/19/1 82/18/1 65/17/1
f 64/19/1 83/20/1 82/18/1
f 63/21/1 83/20/1 64/19/1
f 63/21/1 84/22/1 83/20/1
f 62/23/1 84/22/1 63/21/1
f 62/23/1 85/24/1 84/22/1
f 61/25/1 85/24/1 62/23/1
f 61/25/1 86/26/1 85/24/1
f 60/27/1 86/26/1 61/25/1
f 60/27/1 87/28/1 86/26/1
f 59/29/1 87/28/1 60/27/1
f 59/29/1 88/30/1 87/28/1
f 58/31/1 88/30/1 59/29/1
f 58/31/1 89/32/1 88/30/1
f 57/33/1 89/32/1 58/31/1
f 57/33/1 122/34/1 89/32/1
f 122/34/1 90/35/1 89/32/1
f 57/33/1 123/36/1 122/34/1
f 121/37/1 90/35/1 122/34/1
f 120/38/1 90/35/1 121/37/1
f 57/33/1 124/39/1 123/36/1
f 119/40/1 90/35/1 120/38/1
f 57/33/1 125/41/1 124/39/1
f 118/42/1 90/35/1 119/40/1
f 57/33/1 126/43/1 125/41/1
f 117/44/1 90/35/1 118/42/1
f 117/44/1 91/45/1 90/35/1
f 57/33/1 127/46/1 126/43/1
f 56/47/1 127/46/1 57/33/1
f 116/48/1 91/45/1 117/44/1
f 56/47/1 128/49/1 127/46/1
f 115/50/1 91/45/1 116/48/1
f 56/47/1 129/51/1 128/49/1
f 114/52/1 91/45/1 115/50/1
f 56/47/1 130/53/1 129/51/1
f 114/52/1 92/54/1 91/45/1
f 55/55/1 130/53/1 56/47/1
f 113/56/1 92/54/1 114/52/1
f 55/55/1 131/57/1 130/53/1
f 112/58/1 92/54/1 113/56/1
f 55/55/1 132/59/1 131/57/1
f 111/60/1 92/54/1 112/58/1
f 111/60/1 93/61/1 92/54/1
f 54/62/1 132/59/1 55/55/1
f 54/62/1 133/63/1 132/59/1
f 110/64/1 93/61/1 111/60/1
f 54/62/1 134/65/1 133/63/1
f 109/66/1 93/61/1 110/64/1
f 109/66/1 94/67/1 93/61/1
f 53/68/1 134/65/1 54/62/1
f 53/68/1 135/69/1 134/65/1
f 108/70/1 94/67/1 109/66/1
f 53/68/1 136/71/1 135/69/1
f 108/70/1 95/72/1 94/67/1
f 107/73/1 95/72/1 108/70/1
f 52/74/1 136/71/1 53/68/1
f 52/74/1 137/75/1 136/71/1
f 106/76/1 95/72/1 107/73/1
f 52/74/1 138/77/1 137/75/1
f 106/76/1 96/78/1 95/72/1
f 105/79/1 96/78/1 106/76/1
f 51/80/1 138/77/1 52/74/1
f 51/80/1 139/81/1 138/77/1
f 104/82/1 96/78/1 105/79/1
f 104/82/1 97/83/1 96/78/1
f 50/84/1 139/81/1 51/80/1
f 50/84/1 140/85/1 139/81/1
f 103/86/1 97/83/1 104/82/1
f 50/84/1 141/87/1 140/85/1
f 102/88/1 97/83/1 103/86/1
f 102/88/1 101/89/1 97/83/1
f 101/89/1 100/90/1 97/83/1
f 100/90/1 99/91/1 97/83/1
f 99/91/1 98/92/1 97/83/1
f 49/93/1 141/87/1 50/84/1
f 49/93/1 142/94/1 141/87/1
f 48/95/1 142/94/1 49/93/1
f 48/95/1 143/96/1 142/94/1
f 48/95/1 144/97/1 143/96/1
f 47/98/1 144/97/1 48/95/1
f 47/98/1 145/99/1 144/97/1
f 46/100/1 145/99/1 47/98/1
f 46/100/1 146/101/1 145/99/1
f 46/100/1 147/102/1 146/101/1
f 45/103/1 147/102/1 46/100/1
f 45/103/1 148/104/1 147/102/1
f 44/105/1 148/104/1 45/103/1
f 44/105/1 149/106/1 148/104/1
f 43/107/1 149/106/1 44/105/1
f 43/107/1 150/108/1 149/106/1
f 43/107/1 151/109/1 150/108/1
f 42/110/1 151/109/1 43/107/1
f 42/110/1 152/111/1 151/109/1
f 41/112/1 152/111/1 42/110/1
f 41/112/1 153/113/1 152/111/1
f 40/114/1 153/113/1 41/112/1
f 40/114/1 154/115/1 153/113/1
f 40/114/1 155/116/1 154/115/1
f 39/117/1 155/116/1 40/114/1
f 39/117/1 156/118/1 155/116/1
f 38/119/1 156/118/1 39/117/1
f 38/119/1 157/120/1 156/118/1
f 37/121/1 157/120/1 38/119/1
f 37/121/1 158/122/1 157/120/1
f 220/123/1 222/124/1 221/125/1
f 220/123/1 219/126/1 222/124/1
f 219/126/1 223/127/1 222/124/1
f 36/128/1 158/122/1 37/121/1
f 36/128/1 159/129/1 158/122/1
f 36/128/1 160/130/1 159/129/1
f 35/131/1 160/130/1 36/128/1
f 35/131/1 161/132/1 160/130/1
f 34/133/1 161/132/1 35/131/1
f 34/133/1 162/134/1 161/132/1
f 34/133/1 163/135/1 162/134/1
f 33/136/1 163/135/1 34/133/1
f 218/137/1 223/127/1 219/126/1
f 33/136/1 164/138/1 163/135/1
f 32/139/1 164/138/1 33/136/1
f 32/139/1 165/140/1 164/138/1
f 31/141/1 165/140/1 32/139/1
f 31/141/1 166/142/1 165/140/1
f 31/141/1 167/143/1 166/142/1
f 30/144/1 167/143/1 31/141/1
f 30/144/1 168/145/1 167/143/1
f 29/146/1 168/145/1 30/144/1
f 29/146/1 169/147/1 168/145/1
f 28/148/1 169/147/1 29/146/1
f 28/148/1 170/149/1 169/147/1
f 28/148/1 171/150/1 170/149/1
f 27/151/1 171/150/1 28/148/1
f 27/151/1 172/152/1 171/150/1
f 26/153/1 172/152/1 27/151/1
f 26/153/1 173/154/1 172/152/1
f 25/155/1 173/154/1 26/153/1
f 25/155/1 174/156/1 173/154/1
f 25/155/1 175/157/1 174/156/1
f 24/158/1 175/157/1 25/155/1
f 217/159/1 223/127/1 218/137/1
f 24/158/1 176/160/1 175/157/1
f 216/161/1 223/127/1 217/159/1
f 23/162/1 176/160/1 24/158/1
f 23/162/1 177/163/1 176/160/1
f 215/164/1 223/127/1 216/161/1
f 214/165/1 223/127/1 215/164/1
f 23/162/1 178/166/1 177/163/1
f 22/167/1 178/166/1 23/162/1
f 213/168/1 223/127/1 214/165/1
f 22/167/1 179/169/1 178/166/1
f 212/170/1 225/171/1 213/168/1
f 225/171/1 223/127/1 213/168/1
f 21/172/1 179/169/1 22/167/1
f 21/172/1 180/173/1 179/169/1
f 211/174/1 225/171/1 212/170/1
f 210/175/1 225/171/1 211/174/1
f 21/172/1 181/176/1 180/173/1
f 20/177/1 181/176/1 21/172/1
f 209/178/1 225/171/1 210/175/1
f 20/177/1 182/179/1 181/176/1
f 208/180/1 225/171/1 209/178/1
f 20/177/1 183/181/1 182/179/1
f 19/182/1 183/181/1 20/177/1
f 207/183/1 225/171/1 208/180/1
f 206/184/1 225/171/1 207/183/1
f 19/182/1 184/185/1 183/181/1
f 205/186/1 225/171/1 206/184/1
f 18/187/1 184/185/1 19/182/1
f 18/187/1 185/188/1 184/185/1
f 205/186/1 226/189/1 225/171/1
f 224/190/1 223/127/1 225/171/1
f 204/191/1 226/189/1 205/186/1
f 18/187/1 186/192/1 185/188/1
f 203/193/1 226/189/1 204/191/1
f 17/194/1 186/192/1 18/187/1
f 17/194/1 187/195/1 186/192/1
f 203/193/1 227/196/1 226/189/1
f 202/197/1 227/196/1 203/193/1
f 17/194/1 188/198/1 187/195/1
f 201/199/1 227/196/1 202/197/1
f 17/194/1 189/200/1 188/198/1
f 200/201/1 227/196/1 201/199/1
f 200/201/1 228/202/1 227/196/1
f 16/203/1 189/200/1 17/194/1
f 199/204/1 228/202/1 200/201/1
f 16/203/1 190/205/1 189/200/1
f 198/206/1 228/202/1 199/204/1
f 16/203/1 191/207/1 190/205/1
f 197/208/1 228/202/1 198/206/1
f 16/203/1 192/209/1 191/207/1
f 197/208/1 229/210/1 228/202/1
f 196/211/1 229/210/1 197/208/1
f 16/203/1 193/212/1 192/209/1
f 195/213/1 229/210/1 196/211/1
f 16/203/1 194/214/1 193/212/1
f 194/214/1 229/210/1 195/213/1
f 16/203/1 229/210/1 194/214/1
f 15/215/1 229/210/1 16/203/1
f 15/215/1 230/216/1 229/210/1
f 15/215/1 231/217/1 230/216/1
f 14/218/1 231/217/1 15/215/1
f 14/218/1 232/219/1 231/217/1
f 13/220/1 232/219/1 14/218/1
f 13/220/1 233/221/1 232/219/1
f 12/222/1 233/221/1 13/220/1
f 12/222/1 234/223/1 233/221/1
f 12/222/1 235/224/1 234/223/1
f 11/225/1 235/224/1 12/222/1
f 11/225/1 236/226/1 235/224/1
f 10/227/1 236/226/1 11/225/1
f 10/227/1 237/228/1 236/226/1
f 9/229/1 237/228/1 10/227/1
f 9/229/1 238/230/1 237/228/1
f 9/229/1 239/231/1 238/230/1
f 8/232/1 239/231/1 9/229/1
f 8/232/1 240/233/1 239/231/1
f 7/234/1 240/233/1 8/232/1
f 7/234/1 241/235/1 240/233/1
f 6/236/1 241/235/1 7/234/1
f 6/236/1 242/237/1 241/235/1
f 6/236/1 243/238/1 242/237/1
f 5/239/1 243/238/1 6/236/1
f 5/239/1 244/240/1 243/238/1
f 4/241/1 244/240/1 5/239/1
f 4/241/1 245/242/1 244/240/1
f 3/243/1 245/242/1 4/241/1
f 3/243/1 246/244/1 245/242/1
f 3/243/1 247/245/1 246/244/1
f 2/246/1 247/245/1 3/243/1
f 2/246/1 248/247/1 247/245/1
f 1/248/1 248/247/1 2/246/1
f 320/1/2 321/3/2 322/2/2
f 320/1/2 322/2/2 323/4/2
f 319/5/2 320/1/2 323/4/2
f 319/5/2 323/4/2 324/6/2
f 318/7/2 319/5/2 324/6/2
f 318/7/2 324/6/2 325/8/2
f 317/9/2 318/7/2 325/8/2
f 317/9/2 325/8/2 326/10/2
f 316/11/2 317/9/2 326/10/2
f 316/11/2 326/10/2 327/12/2
f 315/13/2 316/11/2 327/12/2
f 315/13/2 327/12/2 328/14/2
f 314/15/2 315/13/2 328/14/2
f 314/15/2 328/14/2 329/16/2
f 313/17/2 314/15/2 329/16/2
f 313/17/2 329/16/2 330/18/2
f 312/19/2 313/17/2 330/18/2
f 312/19/2 330/18/2 331/20/2
f 311/21/2 312/19/2 331/20/2
f 311/21/2 331/20/2 332/22/2
f 310/23/2 311/21/2 332/22/2
f 310/23/2 332/22/2 333/24/2
f 309/25/2 310/23/2 333/24/2
f 309/25/2 333/24/2 334/26/2
f 308/27/2 309/25/2 334/26/2
f 308/27/2 334/26/2 335/28/2
f 307/29/2 308/27/2 335/28/2
f 307/29/2 335/28/2 336/30/2
f 306/31/2 307/29/2 336/30/2
f 306/31/2 336/30/2 337/32/2
f 305/33/2 306/31/2 337/32/2
f 305/33/2 337/32/2 370/34/2
f 370/34/2 337/32/2 338/35/2
f 305/33/2 370/34/2 371/36/2
f 369/37/2 370/34/2 338/35/2
f 368/38/2 369/37/2 338/35/2
f 305/33/2 371/36/2 372/39/2
f 367/40/2 368/38/2 338/35/2
f 305/33/2 372/39/2 373/41/2
f 366/42/2 367/40/2 338/35/2
f 305/33/2 373/41/2 374/43/2
f 365/44/2 366/42/2 338/35/2
f 365/44/2 338/35/2 339/45/2
f 305/33/2 374/43/2 375/46/2
f 304/47/2 305/33/2 375/46/2
f 364/48/2 365/44/2 339/45/2
f 304/47/2 375/46/2 376/49/2
f 363/50/2 364/48/2 339/45/2
f 304/47/2 376/49/2 377/51/2
f 362/52/2 363/50/2 339/45/2
f 304/47/2 377/51/2 378/53/2
f 362/52/2 339/45/2 340/54/2
f 303/55/2 304/47/2 378/53/2
f 361/56/2 362/52/2 340/54/2
f 303/55/2 378/53/2 379/57/2
f 360/58/2 361/56/2 340/54/2
f 303/55/2 379/57/2 380/59/2
f 359/60/2 360/58/2 340/54/2
f 359/60/2 340/54/2 341/61/2
f 302/62/2 303/55/2 380/59/2
f 302/62/2 380/59/2 381/63/2
f 358/64/2 359/60/2 341/61/2
f 302/62/2 381/63/2 382/65/2
f 357/66/2 358/64/2 341/61/2
f 357/66/2 341/61/2 342/67/2
f 301/68/2 302/62/2 382/65/2
f 301/68/2 382/65/2 383/69/2
f 356/70/2 357/66/2 342/67/2
f 301/68/2 383/69/2 384/71/2
f 356/70/2 342/67/2 343/72/2
f 355/73/2 356/70/2 343/72/2
f 300/74/2 301/68/2 384/71/2
f 300/74/2 384/71/2 385/75/2
f 354/76/2 355/73/2 343/72/2
f 300/74/2 385/75/2 386/77/2
f 354/76/2 343/72/2 344/78/2
f 353/79/2 354/76/2 344/78/2
f 299/80/2 300/74/2 386/77/2
f 299/80/2 386/77/2 387/81/2
f 352/82/2 353/79/2 344/78/2
f 352/82/2 344/78/2 345/83/2
f 298/84/2 299/80/2 387/81/2
f 298/84/2 387/81/2 388/85/2
f 351/86/2 352/82/2 345/83/2
f 298/84/2 388/85/2 389/87/2
f 350/88/2 351/86/2 345/83/2
f 350/88/2 345/83/2 349/89/2
f 349/89/2 345/83/2 348/90/2
f 348/90/2 345/83/2 347/91/2
f 347/91/2 345/83/2 346/92/2
f 297/93/2 298/84/2 389/87/2
f 297/93/2 389/87/2 390/94/2
f 296/95/2 297/93/2 390/94/2
f 296/95/2 390/94/2 391/96/2
f 296/95/2 391/96/2 392/97/2
f 295/98/2 296/95/2 392/97/2
f 295/98/2 392/97/2 393/99/2
f 294/100/2 295/98/2 393/99/2
f 294/100/2 393/99/2 394/101/2
f 294/100/2 394/101/2 395/102/2
f 293/103/2 294/100/2 395/102/2
f 293/103/2 395/102/2 396/104/2
f 292/105/2 293/103/2 396/104/2
f 292/105/2 396/104/2 397/106/2
f 291/107/2 292/105/2 397/106/2
f 291/107/2 397/106/2 398/108/2
f 291/107/2 398/108/2 399/109/2
f 290/110/2 291/107/2 399/109/2
f 290/110/2 399/109/2 400/111/2
f 289/112/2 290/110/2 400/111/2
f 289/112/2 400/111/2 401/113/2
f 288/114/2 289/112/2 401/113/2
f 288/114/2 401/113/2 402/115/2
f 288/114/2 402/115/2 403/116/2
f 287/117/2 288/114/2 403/116/2
f 287/117/2 403/116/2 404/118/2
f 286/119/2 287/117/2 404/118/2
f 286/119/2 404/118/2 405/120/2
f 285/121/2 286/119/2 405/120/2
f 285/121/2 405/120/2 406/122/2
f 468/123/2 469/125/2 470/124/2
f 468/123/2 470/124/2 467/126/2
f 467/126/2 470/124/2 471/127/2
f 284/128/2 285/121/2 406/122/2
f 284/128/2 406/122/2 407/129/2
f 284/128/2 407/129/2 408/130/2
f 283/131/2 284/128/2 408/130/2
f 283/131/2 408/130/2 409/132/2
f 282/133/2 283/131/2 409/132/2
f 282/133/2 409/132/2 410/134/2
f 282/133/2 410/134/2 411/135/2
f 281/136/2 282/133/2 411/135/2
f 466/137/2 467/126/2 471/127/2
f 281/136/2 411/135/2 412/138/2
f 280/139/2 281/136/2 412/138/2
f 280/139/2 412/138/2 413/140/2
f 279/141/2 280/139/2 413/140/2
f 279/141/2 413/140/2 414/142/2
f 279/141/2 414/142/2 415/143/2
f 278/144/2 279/141/2 415/143/2
f 278/144/2 415/143/2 416/145/2
f 277/146/2 278/144/2 416/145/2
f 277/146/2 416/145/2 417/147/2
f 276/148/2 277/146/2 417/147/2
f 276/148/2 417/147/2 418/149/2
f 276/148/2 418/149/2 419/150/2
f 275/151/2 276/148/2 419/150/2
f 275/151/2 419/150/2 420/152/2
f 274/153/2 275/151/2 420/152/2
f 274/153/2 420/152/2 421/154/2
f 273/155/2 274/153/2 421/154/2
f 273/155/2 421/154/2 422/156/2
f 273/155/2 422/156/2 423/157/2
f 272/158/2 273/155/2 423/157/2
f 465/159/2 466/137/2 471/127/2
f 272/158/2 423/157/2 424/160/2
f 464/161/2 465/159/2 471/127/2
f 271/162/2 272/158/2 424/160/2
f 271/162/2 424/160/2 425/163/2
f 463/164/2 464/161/2 471/127/2
f 462/165/2 463/164/2 471/127/2
f 271/162/2 425/163/2 426/166/2
f 270/167/2 271/162/2 426/166/2
f 461/168/2 462/165/2 471/127/2
f 270/167/2 426/166/2 427/169/2
f 460/170/2 461/168/2 473/171/2
f 473/171/2 461/168/2 471/127/2
f 269/172/2 270/167/2 427/169/2
f 269/172/2 427/169/2 428/173/2
f 459/174/2 460/170/2 473/171/2
f 458/175/2 459/174/2 473/171/2
f 269/172/2 428/173/2 429/176/2
f 268/177/2 269/172/2 429/176/2
f 457/178/2 458/175/2 473/171/2
f 268/177/2 429/176/2 430/179/2
f 456/180/2 457/178/2 473/171/2
f 268/177/2 430/179/2 431/181/2
f 267/182/2 268/177/2 431/181/2
f 455/183/2 456/180/2 473/171/2
f 454/184/2 455/183/2 473/171/2
f 267/182/2 431/181/2 432/185/2
f 453/186/2 454/184/2 473/171/2
f 266/187/2 267/182/2 432/185/2
f 266/187/2 432/185/2 433/188/2
f 453/186/2 473/171/2 474/189/2
f 472/190/2 473/171/2 471/127/2
f 452/191/2 453/186/2 474/189/2
f 266/187/2 433/188/2 434/192/2
f 451/193/2 452/191/2 474/189/2
f 265/194/2 266/187/2 434/192/2
f 265/194/2 434/192/2 435/195/2
f 451/193/2 474/189/2 475/196/2
f 450/197/2 451/193/2 475/196/2
f 265/194/2 435/195/2 436/198/2
f 449/199/2 450/197/2 475/196/2
f 265/194/2 436/198/2 437/200/2
f 448/201/2 449/199/2 475/196/2
f 448/201/2 475/196/2 476/202/2
f 264/203/2 265/194/2 437/200/2
f 447/204/2 448/201/2 476/202/2
f 264/203/2 437/200/2 438/205/2
f 446/206/2 447/204/2 476/202/2
f 264/203/2 438/205/2 439/207/2
f 445/208/2 446/206/2 476/202/2
f 264/203/2 439/207/2 440/209/2
f 445/208/2 476/202/2 477/210/2
f 444/211/2 445/208/2 477/210/2
f 264/203/2 440/209/2 441/212/2
f 443/213/2 444/211/2 477/210/2
f 264/203/2 441/212/2 442/214/2
f 442/214/2 443/213/2 477/210/2
f 264/203/2 442/214/2 477/210/2
f 263/215/2 264/203/2 477/210/2
f 263/215/2 477/210/2 478/216/2
f 263/215/2 478/216/2 479/217/2
f 262/218/2 263/215/2 479/217/2
f 262/218/2 479/217/2 480/219/2
f 261/220/2 262/218/2 480/219/2
f 261/220/2 480/219/2 481/221/2
f 260/222/2 261/220/2 481/221/2
f 260/222/2 481/221/2 482/223/2
f 260/222/2 482/223/2 483/224/2
f 259/225/2 260/222/2 483/224/2
f 259/225/2 483/224/2 484/226/2
f 258/227/2 259/225/2 484/226/2
f 258/227/2 484/226/2 485/228/2
f 257/229/2 258/227/2 485/228/2
f 257/229/2 485/228/2 486/230/2
f 257/229/2 486/230/2 487/231/2
f 256/232/2 257/229/2 487/231/2
f 256/232/2 487/231/2 488/233/2
f 255/234/2 256/232/2 488/233/2
f 255/234/2 488/233/2 489/235/2
f 254/236/2 255/234/2 489/235/2
f 254/236/2 489/235/2 490/237/2
f 254/236/2 490/237/2 491/238/2
f 253/239/2 254/236/2 491/238/2
f 253/239/2 491/238/2 492/240/2
f 252/241/2 253/239/2 492/240/2
f 252/241/2 492/240/2 493/242/2
f 251/243/2 252/241/2 493/242/2
f 251/243/2 493/242/2 494/244/2
f 251/243/2 494/244/2 495/245/2
f 250/246/2 251/243/2 495/245/2
f 250/246/2 495/245/2 496/247/2
f 249/248/2 250/246/2 496/247/2
s 1
f 498/249/3 500/250/4 499/251/4 497/248/3
f 500/250/4 502/252/5 501/253/5 499/251/4
f 502/252/5 504/254/6 503/255/6 501/253/5
f 504/254/6 506/256/7 505/257/7 503/255/6
f 506/256/7 508/258/8 507/259/8 505/257/7
f 508/258/8 510/260/9 509/261/9 507/259/8
f 510/260/9 512/262/10 511/263/10 509/261/9
f 512/262/10 514/264/11 513/265/11 511/263/10
f 514/264/11 516/266/12 515/267/12 513/265/11
f 516/266/12 518/268/13 517/269/13 515/267/12
f 518/268/13 520/270/14 519/271/14 517/269/13
f 520/270/14 522/272/15 521/273/15 519/271/14
f 522/272/15 524/274/16 523/275/16 521/273/15
f 524/274/16 526/276/17 525/277/17 523/275/16
f 526/276/17 528/278/18 527/279/18 525/277/17
f 528/278/18 530/280/19 529/281/19 527/279/18
f 530/280/19 532/282/20 531/283/20 529/281/19
f 532/282/20 534/284/21 533/285/21 531/283/20
f 534/284/21 536/286/22 535/287/22 533/285/21
f 536/286/22 538/288/23 537/289/23 535/287/22
f 538/288/23 540/290/24 539/291/24 537/289/23
f 540/290/24 542/292/25 541/293/25 539/291/24
f 542/292/25 544/294/26 543/295/26 541/293/25
f 544/294/26 546/296/27 545/297/27 543/295/26
f 546/296/27 548/298/28 547/299/28 545/297/27
f 548/298/28 550/300/29 549/301/29 547/299/28
f 550/300/29 552/302/30 551/303/30 549/301/29
f 552/302/30 554/304/31 553/305/31 551/303/30
f 554/304/31 556/306/32 555/307/32 553/305/31
f 556/306/32 558/308/33 557/309/33 555/307/32
f 558/308/33 560/310/34 559/311/34 557/309/33
f 560/310/34 562/312/35 561/313/35 559/311/34
f 562/312/35 564/314/36 563/315/36 561/313/35
f 564/314/36 566/316/37 565/317/37 563/315/36
f 566/316/37 568/318/38 567/319/38 565/317/37
f 568/318/38 570/320/39 569/321/39 567/319/38
f 570/320/39 572/322/40 571/323/40 569/321/39
f 572/322/40 574/324/41 573/325/41 571/323/40
f 574/324/41 576/326/42 575/327/42 573/325/41
f 576/326/42 578/328/43 577/329/43 575/327/42
f 578/328/43 580/330/44 579/331/44 577/329/43
f 580/330/44 582/332/45 581/333/45 579/331/44
f 582/332/45 584/334/46 583/335/46 581/333/45
f 584/334/46 586/336/47 585/337/47 583/335/46
f 586/336/47 588/338/48 587/339/48 585/337/47
f 588/338/48 590/340/49 589/341/49 587/339/48
f 590/340/49 592/342/50 591/343/50 589/341/49
f 592/342/50 594/344/51 593/345/51 591/343/50
f 594/344/51 596/346/52 595/347/52 593/345/51
f 596/346/52 598/348/53 597/349/53 595/347/52
f 598/348/53 600/350/54 599/351/54 597/349/53
f 600/350/54 602/352/55 601/353/55 599/351/54
f 602/352/55 604/354/56 603/355/56 601/353/55
f 604/354/56 606/356/57 605/357/57 603/355/56
f 606/356/57 608/358/58 607/359/58 605/357/57
f 608/358/58 610/360/59 609/361/59 607/359/58
f 610/360/59 612/362/60 611/363/60 609/361/59
f 612/362/60 614/364/61 613/365/61 611/363/60
f 614/364/61 616/366/62 615/367/62 613/365/61
f 616/366/62 618/368/63 617/369/63 615/367/62
f 618/368/63 620/370/64 619/371/64 617/369/63
f 620/370/64 622/372/65 621/373/65 619/371/64
f 622/372/65 624/374/66 623/375/66 621/373/65
f 624/374/66 626/376/67 625/377/67 623/375/66
f 626/376/67 628/378/68 627/379/68 625/377/67
f 628/378/68 630/380/69 629/381/69 627/379/68
f 630/380/69 632/382/70 631/383/70 629/381/69
f 632/382/70 634/384/71 633/385/71 631/383/70
f 634/384/71 636/386/72 635/387/72 633/385/71
f 636/386/72 638/388/73 637/389/73 635/387/72
f 638/388/73 640/390/74 639/391/74 637/389/73
f 640/390/74 642/392/75 641/393/75 639/391/74
f 642/392/75 644/394/76 643/395/76 641/393/75
f 644/394/76 646/396/77 645/397/77 643/395/76
f 646/396/77 648/398/78 647/399/78 645/397/77
f 648/398/78 650/400/79 649/401/79 647/399/78
f 650/400/79 652/402/80 651/403/80 649/401/79
f 652/402/80 654/404/81 653/405/81 651/403/80
f 654/404/81 656/406/82 655/407/82 653/405/81
f 656/406/82 658/408/83 657/409/83 655/407/82
f 658/408/83 660/410/84 659/411/84 657/409/83
f 660/410/84 662/412/85 661/413/85 659/411/84
f 662/412/85 664/414/86 663/415/86 661/413/85
f 664/414/86 666/416/87 665/417/87 663/415/86
f 666/416/87 668/418/88 667/419/88 665/417/87
f 668/418/88 670/420/89 669/421/89 667/419/88
f 670/420/89 672/422/90 671/423/90 669/421/89
f 672/422/90 674/424/91 673/425/91 671/423/90
f 674/424/91 676/426/92 675/427/92 673/425/91
f 676/426/92 678/428/93 677/429/93 675/427/92
f 678/428/93 680/430/94 679/431/94 677/429/93
f 680/430/94 682/432/95 681/433/95 679/431/94
f 682/432/95 684/434/96 683/435/96 681/433/95
f 684/434/96 686/436/97 685/437/97 683/435/96
f 686/436/97 688/438/98 687/439/98 685/437/97
f 688/438/98 690/440/99 689/441/99 687/439/98
f 690/440/99 692/442/100 691/443/100 689/441/99
f 692/442/100 694/444/101 693/445/101 691/443/100
f 694/444/101 696/446/102 695/447/102 693/445/101
f 696/446/102 698/448/103 697/449/103 695/447/102
f 698/448/103 700/450/104 699/451/104 697/449/103
f 700/450/104 702/452/105 701/453/105 699/451/104
f 702/452/105 704/454/106 703/455/106 701/453/105
f 704/454/106 706/456/107 705/457/107 703/455/106
f 706/456/107 708/458/108 707/459/108 705/457/107
f 708/458/108 710/460/109 709/461/109 707/459/108
f 710/460/109 712/462/110 711/463/110 709/461/109
f 712/462/110 714/464/111 713/465/111 711/463/110
f 714/464/111 716/466/112 715/467/112 713/465/111
f 716/466/112 718/468/113 717/469/113 715/467/112
f 718/468/113 720/470/114 719/471/114 717/469/113
f 720/470/114 722/472/115 721/473/115 719/471/114
f 722/472/115 724/474/116 723/475/116 721/473/115
f 724/474/116 726/476/117 725/477/117 723/475/116
f 726/476/117 728/478/118 727/479/118 725/477/117
f 728/478/118 730/480/119 729/481/119 727/479/118
f 730/480/119 732/482/120 731/483/120 729/481/119
f 732/482/120 734/484/121 733/485/121 731/483/120
f 734/484/121 736/486/122 735/487/122 733/485/121
f 736/486/122 738/488/123 737/489/123 735/487/122
f 738/488/123 740/490/124 739/491/124 737/489/123
f 740/490/124 742/492/125 741/493/125 739/491/124
f 742/492/125 744/494/126 743/495/126 741/493/125
f 744/494/126 746/496/127 745/497/127 743/495/126
f 746/496/127 748/498/128 747/499/128 745/497/127
f 748/498/128 750/500/129 749/501/129 747/499/128
f 750/500/129 752/502/130 751/503/130 749/501/129
f 752/502/130 754/504/131 753/505/131 751/503/130
f 754/504/131 756/506/132 755/507/132 753/505/131
f 756/506/132 758/508/133 757/509/133 755/507/132
f 758/508/133 760/510/134 759/511/134 757/509/133
f 760/510/134 762/512/135 761/513/135 759/511/134
f 762/512/135 764/514/136 763/515/136 761/513/135
f 764/514/136 766/516/137 765/517/137 763/515/136
f 766/516/137 768/518/138 767/519/138 765/517/137
f 768/518/138 770/520/139 769/521/139 767/519/138
f 770/520/139 772/522/140 771/523/140 769/521/139
f 772/522/140 774/524/141 773/525/141 771/523/140
f 774/524/141 776/526/142 775/527/142 773/525/141
f 776/526/142 778/528/143 777/529/143 775/527/142
f 778/528/143 780/530/144 779/531/144 777/529/143
f 780/530/144 782/532/145 781/533/145 779/531/144
f 782/532/145 784/534/146 783/535/146 781/533/145
f 784/534/146 786/536/147 785/537/147 783/535/146
f 786/536/147 788/538/148 787/539/148 785/537/147
f 788/538/148 790/540/149 789/541/149 787/539/148
f 790/540/149 792/542/150 791/543/150 789/541/149
f 792/542/150 794/544/151 793/545/151 791/543/150
f 794/544/151 796/546/152 795/547/152 793/545/151
f 796/546/152 798/548/153 797/549/153 795/547/152
f 798/548/153 800/550/154 799/551/154 797/549/153
f 800/550/154 802/552/155 801/553/155 799/551/154
f 802/552/155 804/554/156 803/555/156 801/553/155
f 804/554/156 806/556/157 805/557/157 803/555/156
f 806/556/157 808/558/158 807/559/158 805/557/157
f 808/558/158 810/560/159 809/561/159 807/559/158
f 810/560/159 812/562/160 811/563/160 809/561/159
f 812/562/160 814/564/161 813/565/161 811/563/160
f 814/564/161 816/566/162 815/567/162 813/565/161
f 816/566/162 818/568/163 817/569/163 815/567/162
f 818/568/163 820/570/164 819/571/164 817/569/163
f 820/570/164 822/572/165 821/573/165 819/571/164
f 822/572/165 824/574/166 823/575/166 821/573/165
f 824/574/166 826/576/167 825/577/167 823/575/166
f 826/576/167 828/578/168 827/579/168 825/577/167
f 828/578/168 830/580/169 829/581/169 827/579/168
f 830/580/169 832/582/170 831/583/170 829/581/169
f 832/582/170 834/584/171 833/585/171 831/583/170
f 834/584/171 836/586/172 835/587/172 833/585/171
f 836/586/172 838/588/173 837/589/173 835/587/172
f 838/588/173 840/590/174 839/591/174 837/589/173
f 840/590/174 842/592/175 841/593/175 839/591/174
f 842/592/175 844/594/176 843/595/176 841/593/175
f 844/594/176 846/596/177 845/597/177 843/595/176
f 846/596/177 848/598/178 847/599/178 845/597/177
f 848/598/178 850/600/179 849/601/179 847/599/178
f 850/600/179 852/602/180 851/603/180 849/601/179
f 852/602/180 854/604/181 853/605/181 851/603/180
f 854/604/181 856/606/182 855/607/182 853/605/181
f 856/606/182 858/608/183 857/609/183 855/607/182
f 858/608/183 860/610/184 859/611/184 857/609/183
f 860/610/184 862/612/185 861/613/185 859/611/184
f 862/612/185 864/614/186 863/615/186 861/613/185
f 864/614/186 866/616/187 865/617/187 863/615/186
f 866/616/187 868/618/188 867/619/188 865/617/187
f 868/618/188 870/620/189 869/621/189 867/619/188
f 870/620/189 872/622/190 871/623/190 869/621/189
f 872/622/190 874/624/191 873/625/191 871/623/190
f 874/624/191 876/626/192 875/627/192 873/625/191
f 876/626/192 878/628/193 877/629/193 875/627/192
f 878/628/193 880/630/194 879/631/194 877/629/193
f 880/630/194 882/632/195 881/633/195 879/631/194
f 882/632/195 884/634/196 883/635/196 881/633/195
f 884/634/196 886/636/197 885/637/197 883/635/196
f 886/636/197 888/638/198 887/639/198 885/637/197
f 888/638/198 890/640/199 889/641/199 887/639/198
f 890/640/199 892/642/200 891/643/200 889/641/199
f 892/642/200 894/644/201 893/645/201 891/643/200
f 894/644/201 896/646/202 895/647/202 893/645/201
f 896/646/202 898/648/203 897/649/203 895/647/202
f 898/648/203 900/650/204 899/651/204 897/649/203
f 900/650/204 902/652/205 901/653/205 899/651/204
f 902/652/205 904/654/206 903/655/206 901/653/205
f 904/654/206 906/656/207 905/657/207 903/655/206
f 906/656/207 908/658/208 907/659/208 905/657/207
f 908/658/208 910/660/209 909/661/209 907/659/208
f 910/660/209 912/662/210 911/663/210 909/661/209
f 912/662/210 914/664/211 913/665/211 911/663/210
f 914/664/211 916/666/212 915/667/212 913/665/211
f 916/666/212 918/668/213 917/669/213 915/667/212
f 918/668/213 920/670/214 919/671/214 917/669/213
f 920/670/214 922/672/215 921/673/215 919/671/214
f 922/672/215 924/674/216 923/675/216 921/673/215
f 924/674/216 926/676/217 925/677/217 923/675/216
f 926/676/217 928/678/218 927/679/218 925/677/217
f 928/678/218 930/680/219 929/681/219 927/679/218
f 930/680/219 932/682/220 931/683/220 929/681/219
f 932/682/220 934/684/221 933/685/221 931/683/220
f 934/684/221 936/686/221 935/687/221 933/685/221
f 936/686/221 938/688/222 937/689/222 935/687/221
f 938/688/222 940/690/223 939/691/223 937/689/222
f 940/690/223 942/692/224 941/693/224 939/691/223
f 942/692/224 944/694/225 943/695/225 941/693/224
f 944/694/225 946/696/226 945/697/226 943/695/225
f 946/696/226 948/698/227 947/699/227 945/697/226
f 948/698/227 950/700/228 949/701/228 947/699/227
f 950/700/228 952/702/229 951/703/229 949/701/228
f 952/702/229 954/704/230 953/705/230 951/703/229
f 954/704/230 956/706/231 955/707/231 953/705/230
f 956/706/231 958/708/232 957/709/232 955/707/231
f 958/708/232 960/710/233 959/711/233 957/709/232
f 960/710/233 962/712/234 961/713/234 959/711/233
f 962/712/234 964/714/235 963/715/235 961/713/234
f 964/714/235 966/716/236 965/717/236 963/715/235
f 966/716/236 968/718/237 967/719/237 965/717/236
f 968/718/237 970/720/238 969/721/238 967/719/237
f 970/720/238 972/722/239 971/723/239 969/721/238
f 972/722/239 974/724/240 973/725/240 971/723/239
f 974/724/240 976/726/241 975/727/241 973/725/240
f 976/726/241 978/728/242 977/729/242 975/727/241
f 978/728/242 980/730/243 979/731/243 977/729/242
f 980/730/243 982/732/244 981/733/244 979/731/243
f 982/732/244 984/734/245 983/735/245 981/733/244
f 984/734/245 986/736/246 985/737/246 983/735/245
f 986/736/246 988/738/247 987/739/247 985/737/246
f 988/738/247 990/740/248 989/741/248 987/739/247
f 990/740/248 992/742/249 991/743/249 989/741/248
f 992/742/249 498/744/3 497/247/3 991/743/249
