# Blender 4.0.2
# www.blender.org
mtllib H_regular.mtl
o Text
v -0.684615 0.600000 0.100000
v -0.684615 0.600000 1.350000
v -0.961538 0.600000 1.350000
v -0.961538 0.600000 -1.303846
v -0.684615 0.600000 -1.303846
v -0.684615 0.600000 -0.153846
v 0.684615 0.600000 -0.153846
v 0.684615 0.600000 -1.303846
v 0.961538 0.600000 -1.303846
v 0.961538 0.600000 1.350000
v 0.684615 0.600000 1.350000
v 0.684615 0.600000 0.100000
v -0.684615 0.000000 0.100000
v -0.684615 0.000000 1.350000
v -0.961538 0.000000 1.350000
v -0.961538 0.000000 -1.303846
v -0.684615 0.000000 -1.303846
v -0.684615 0.000000 -0.153846
v 0.684615 0.000000 -0.153846
v 0.684615 0.000000 -1.303846
v 0.961538 0.000000 -1.303846
v 0.961538 0.000000 1.350000
v 0.684615 0.000000 1.350000
v 0.684615 0.000000 0.100000
v -0.684615 0.000000 0.100000
v -0.684615 0.600000 0.100000
v -0.684615 0.000000 1.350000
v -0.684615 0.600000 1.350000
v -0.961538 0.000000 1.350000
v -0.961538 0.600000 1.350000
v -0.961538 0.000000 -1.303846
v -0.961538 0.600000 -1.303846
v -0.684615 0.000000 -1.303846
v -0.684615 0.600000 -1.303846
v -0.684615 0.000000 -0.153846
v -0.684615 0.600000 -0.153846
v 0.684615 0.000000 -0.153846
v 0.684615 0.600000 -0.153846
v 0.684615 0.000000 -1.303846
v 0.684615 0.600000 -1.303846
v 0.961538 0.000000 -1.303846
v 0.961538 0.600000 -1.303846
v 0.961538 0.000000 1.350000
v 0.961538 0.600000 1.350000
v 0.684615 0.000000 1.350000
v 0.684615 0.600000 1.350000
v 0.684615 0.000000 0.100000
v 0.684615 0.600000 0.100000
vn -0.0000 1.0000 -0.0000
vn -0.0000 -1.0000 -0.0000
vn 0.7071 -0.0000 0.7071
vn -0.7071 -0.0000 0.7071
vn -0.7071 -0.0000 -0.7071
vn 0.7071 -0.0000 -0.7071
vt 0.181818 0.000000
vt 0.363636 0.000000
vt 0.272727 0.000000
vt 0.454545 0.000000
vt 0.545455 0.000000
vt 0.727273 0.000000
vt 0.636364 0.000000
vt 0.818182 0.000000
vt 0.000000 0.000000
vt 1.000000 0.000000
vt 0.090909 0.000000
vt 0.909091 0.000000
vt 0.000000 1.000000
vt 0.083333 1.000000
vt 0.083333 0.000000
vt 0.166667 1.000000
vt 0.166667 0.000000
vt 0.250000 1.000000
vt 0.250000 0.000000
vt 0.333333 1.000000
vt 0.333333 0.000000
vt 0.416667 1.000000
vt 0.416667 0.000000
vt 0.500000 1.000000
vt 0.500000 0.000000
vt 0.583333 1.000000
vt 0.583333 0.000000
vt 0.666667 1.000000
vt 0.666667 0.000000
vt 0.750000 1.000000
vt 0.750000 0.000000
vt 0.833333 1.000000
vt 0.833333 0.000000
vt 0.916667 1.000000
vt 0.916667 0.000000
vt 1.000000 1.000000
s 0
usemtl Material.001
f 3/1/1 5/2/1 4/3/1
f 3/1/1 6/4/1 5/2/1
f 7/5/1 9/6/1 8/7/1
f 7/5/1 10/8/1 9/6/1
f 3/1/1 1/9/1 6/4/1
f 1/9/1 7/5/1 6/4/1
f 1/9/1 12/10/1 7/5/1
f 12/10/1 10/8/1 7/5/1
f 3/1/1 2/11/1 1/9/1
f 11/12/1 10/8/1 12/10/1
f 15/1/2 16/3/2 17/2/2
f 15/1/2 17/2/2 18/4/2
f 19/5/2 20/7/2 21/6/2
f 19/5/2 21/6/2 22/8/2
f 15/1/2 18/4/2 13/9/2
f 13/9/2 18/4/2 19/5/2
f 13/9/2 19/5/2 24/10/2
f 24/10/2 19/5/2 22/8/2
f 15/1/2 13/9/2 14/11/2
f 23/12/2 24/10/2 22/8/2
s 1
f 26/13/3 28/14/3 27/15/3 25/9/3
f 28/14/3 30/16/4 29/17/4 27/15/3
f 30/16/4 32/18/5 31/19/5 29/17/4
f 32/18/5 34/20/6 33/21/6 31/19/5
f 34/20/6 36/22/6 35/23/6 33/21/6
f 36/22/6 38/24/5 37/25/5 35/23/6
f 38/24/5 40/26/5 39/27/5 37/25/5
f 40/26/5 42/28/6 41/29/6 39/27/5
f 42/28/6 44/30/3 43/31/3 41/29/6
f 44/30/3 46/32/4 45/33/4 43/31/3
f 46/32/4 48/34/4 47/35/4 45/33/4
f 48/34/4 26/36/3 25/10/3 47/35/4
