# Blender 4.0.2
# www.blender.org
mtllib I_regular.mtl
o Text
v 0.138462 0.600000 -1.303846
v 0.138462 0.600000 1.350000
v -0.138462 0.600000 1.350000
v -0.138462 0.600000 -1.303846
v 0.138462 0.000000 -1.303846
v 0.138462 0.000000 1.350000
v -0.138462 0.000000 1.350000
v -0.138462 0.000000 -1.303846
v 0.138462 0.000000 -1.303846
v 0.138462 0.600000 -1.303846
v 0.138462 0.000000 1.350000
v 0.138462 0.600000 1.350000
v -0.138462 0.000000 1.350000
v -0.138462 0.600000 1.350000
v -0.138462 0.000000 -1.303846
v -0.138462 0.600000 -1.303846
vn -0.0000 1.0000 -0.0000
vn -0.0000 -1.0000 -0.0000
vn 0.7071 -0.0000 -0.7071
vn 0.7071 -0.0000 0.7071
vn -0.7071 -0.0000 0.7071
vn -0.7071 -0.0000 -0.7071
vt 0.666667 0.000000
vt 0.000000 0.000000
vt 1.000000 0.000000
vt 0.333333 0.000000
vt 0.000000 1.000000
vt 0.250000 1.000000
vt 0.250000 0.000000
vt 0.500000 1.000000
vt 0.500000 0.000000
vt 0.750000 1.000000
vt 0.750000 0.000000
vt 1.000000 1.000000
s 0
usemtl Material.001
f 3/1/1 1/2/1 4/3/1
f 3/1/1 2/4/1 1/2/1
f 7/1/2 8/3/2 5/2/2
f 7/1/2 5/2/2 6/4/2
s 1
f 10/5/3 12/6/4 11/7/4 9/2/3
f 12/6/4 14/8/5 13/9/5 11/7/4
f 14/8/5 16/10/6 15/11/6 13/9/5
f 16/10/6 10/12/3 9/3/3 15/11/6
