# Blender 4.0.2
# www.blender.org
mtllib J_regular.mtl
o Text
v -0.082692 0.600000 1.403846
v -0.123985 0.600000 1.403005
v -0.164530 0.600000 1.400481
v -0.204327 0.600000 1.396274
v -0.243376 0.600000 1.390384
v -0.281677 0.600000 1.382812
v -0.319231 0.600000 1.373558
v -0.356036 0.600000 1.362620
v -0.392094 0.600000 1.350000
v -0.427404 0.600000 1.335697
v -0.461966 0.600000 1.319711
v -0.495780 0.600000 1.302043
v -0.528846 0.600000 1.282692
v -0.560951 0.600000 1.261765
v -0.591880 0.600000 1.239370
v -0.621635 0.600000 1.215505
v -0.650214 0.600000 1.190171
v -0.677618 0.600000 1.163368
v -0.703846 0.600000 1.135096
v -0.728900 0.600000 1.105355
v -0.752778 0.600000 1.074145
v -0.775481 0.600000 1.041466
v -0.797009 0.600000 1.007318
v -0.817361 0.600000 0.971701
v -0.836538 0.600000 0.934615
v -0.628846 0.600000 0.761538
v -0.610711 0.600000 0.792308
v -0.592201 0.600000 0.821795
v -0.573317 0.600000 0.850000
v -0.554060 0.600000 0.876923
v -0.534428 0.600000 0.902564
v -0.514423 0.600000 0.926923
v -0.494044 0.600000 0.950000
v -0.473291 0.600000 0.971795
v -0.452164 0.600000 0.992308
v -0.430662 0.600000 1.011538
v -0.408787 0.600000 1.029487
v -0.386538 0.600000 1.046154
v -0.363809 0.600000 1.061512
v -0.340491 0.600000 1.075534
v -0.316587 0.600000 1.088221
v -0.292094 0.600000 1.099573
v -0.267014 0.600000 1.109589
v -0.241346 0.600000 1.118269
v -0.215091 0.600000 1.125614
v -0.188248 0.600000 1.131624
v -0.160817 0.600000 1.136298
v -0.132799 0.600000 1.139637
v -0.104193 0.600000 1.141640
v -0.075000 0.600000 1.142308
v -0.039156 0.600000 1.141266
v -0.004701 0.600000 1.138141
v 0.028365 0.600000 1.132933
v 0.060043 0.600000 1.125641
v 0.090331 0.600000 1.116266
v 0.119231 0.600000 1.104808
v 0.146741 0.600000 1.091266
v 0.172863 0.600000 1.075641
v 0.197596 0.600000 1.057933
v 0.220940 0.600000 1.038141
v 0.242895 0.600000 1.016266
v 0.263462 0.600000 0.992308
v 0.282505 0.600000 0.966186
v 0.299893 0.600000 0.937820
v 0.315625 0.600000 0.907211
v 0.329701 0.600000 0.874359
v 0.342121 0.600000 0.839263
v 0.352885 0.600000 0.801923
v 0.361993 0.600000 0.762340
v 0.369444 0.600000 0.720513
v 0.375240 0.600000 0.676442
v 0.379380 0.600000 0.630128
v 0.381864 0.600000 0.581570
v 0.382692 0.600000 0.530769
v 0.382692 0.600000 -1.303846
v 0.659615 0.600000 -1.303846
v 0.659615 0.600000 0.500000
v 0.658200 0.600000 0.574052
v 0.653953 0.600000 0.644925
v 0.646875 0.600000 0.712620
v 0.636966 0.600000 0.777137
v 0.624225 0.600000 0.838475
v 0.608654 0.600000 0.896634
v 0.590251 0.600000 0.951616
v 0.569017 0.600000 1.003419
v 0.544952 0.600000 1.052043
v 0.518056 0.600000 1.097489
v 0.488328 0.600000 1.139757
v 0.455769 0.600000 1.178846
v 0.420887 0.600000 1.214784
v 0.384188 0.600000 1.247596
v 0.345673 0.600000 1.277284
v 0.305342 0.600000 1.303846
v 0.263194 0.600000 1.327284
v 0.219231 0.600000 1.347596
v 0.173451 0.600000 1.364784
v 0.125855 0.600000 1.378846
v 0.076442 0.600000 1.389784
v 0.025214 0.600000 1.397596
v -0.027831 0.600000 1.402284
v -0.082692 0.000000 1.403846
v -0.123985 0.000000 1.403005
v -0.164530 0.000000 1.400481
v -0.204327 0.000000 1.396274
v -0.243376 0.000000 1.390384
v -0.281677 0.000000 1.382812
v -0.319231 0.000000 1.373558
v -0.356036 0.000000 1.362620
v -0.392094 0.000000 1.350000
v -0.427404 0.000000 1.335697
v -0.461966 0.000000 1.319711
v -0.495780 0.000000 1.302043
v -0.528846 0.000000 1.282692
v -0.560951 0.000000 1.261765
v -0.591880 0.000000 1.239370
v -0.621635 0.000000 1.215505
v -0.650214 0.000000 1.190171
v -0.677618 0.000000 1.163368
v -0.703846 0.000000 1.135096
v -0.728900 0.000000 1.105355
v -0.752778 0.000000 1.074145
v -0.775481 0.000000 1.041466
v -0.797009 0.000000 1.007318
v -0.817361 0.000000 0.971701
v -0.836538 0.000000 0.934615
v -0.628846 0.000000 0.761538
v -0.610711 0.000000 0.792308
v -0.592201 0.000000 0.821795
v -0.573317 0.000000 0.850000
v -0.554060 0.000000 0.876923
v -0.534428 0.000000 0.902564
v -0.514423 0.000000 0.926923
v -0.494044 0.000000 0.950000
v -0.473291 0.000000 0.971795
v -0.452164 0.000000 0.992308
v -0.430662 0.000000 1.011538
v -0.408787 0.000000 1.029487
v -0.386538 0.000000 1.046154
v -0.363809 0.000000 1.061512
v -0.340491 0.000000 1.075534
v -0.316587 0.000000 1.088221
v -0.292094 0.000000 1.099573
v -0.267014 0.000000 1.109589
v -0.241346 0.000000 1.118269
v -0.215091 0.000000 1.125614
v -0.188248 0.000000 1.131624
v -0.160817 0.000000 1.136298
v -0.132799 0.000000 1.139637
v -0.104193 0.000000 1.141640
v -0.075000 0.000000 1.142308
v -0.039156 0.000000 1.141266
v -0.004701 0.000000 1.138141
v 0.028365 0.000000 1.132933
v 0.060043 0.000000 1.125641
v 0.090331 0.000000 1.116266
v 0.119231 0.000000 1.104808
v 0.146741 0.000000 1.091266
v 0.172863 0.000000 1.075641
v 0.197596 0.000000 1.057933
v 0.220940 0.000000 1.038141
v 0.242895 0.000000 1.016266
v 0.263462 0.000000 0.992308
v 0.282505 0.000000 0.966186
v 0.299893 0.000000 0.937820
v 0.315625 0.000000 0.907211
v 0.329701 0.000000 0.874359
v 0.342121 0.000000 0.839263
v 0.352885 0.000000 0.801923
v 0.361993 0.000000 0.762340
v 0.369444 0.000000 0.720513
v 0.375240 0.000000 0.676442
v 0.379380 0.000000 0.630128
v 0.381864 0.000000 0.581570
v 0.382692 0.000000 0.530769
v 0.382692 0.000000 -1.303846
v 0.659615 0.000000 -1.303846
v 0.659615 0.000000 0.500000
v 0.658200 0.000000 0.574052
v 0.653953 0.000000 0.644925
v 0.646875 0.000000 0.712620
v 0.636966 0.000000 0.777137
v 0.624225 0.000000 0.838475
v 0.608654 0.000000 0.896634
v 0.590251 0.000000 0.951616
v 0.569017 0.000000 1.003419
v 0.544952 0.000000 1.052043
v 0.518056 0.000000 1.097489
v 0.488328 0.000000 1.139757
v 0.455769 0.000000 1.178846
v 0.420887 0.000000 1.214784
v 0.384188 0.000000 1.247596
v 0.345673 0.000000 1.277284
v 0.305342 0.000000 1.303846
v 0.263194 0.000000 1.327284
v 0.219231 0.000000 1.347596
v 0.173451 0.000000 1.364784
v 0.125855 0.000000 1.378846
v 0.076442 0.000000 1.389784
v 0.025214 0.000000 1.397596
v -0.027831 0.000000 1.402284
v -0.082692 0.000000 1.403846
v -0.082692 0.600000 1.403846
v -0.123985 0.000000 1.403005
v -0.123985 0.600000 1.403005
v -0.164530 0.000000 1.400481
v -0.164530 0.600000 1.400481
v -0.204327 0.000000 1.396274
v -0.204327 0.600000 1.396274
v -0.243376 0.000000 1.390384
v -0.243376 0.600000 1.390384
v -0.281677 0.000000 1.382812
v -0.281677 0.600000 1.382812
v -0.319231 0.000000 1.373558
v -0.319231 0.600000 1.373558
v -0.356036 0.000000 1.362620
v -0.356036 0.600000 1.362620
v -0.392094 0.000000 1.350000
v -0.392094 0.600000 1.350000
v -0.427404 0.000000 1.335697
v -0.427404 0.600000 1.335697
v -0.461966 0.000000 1.319711
v -0.461966 0.600000 1.319711
v -0.495780 0.000000 1.302043
v -0.495780 0.600000 1.302043
v -0.528846 0.000000 1.282692
v -0.528846 0.600000 1.282692
v -0.560951 0.000000 1.261765
v -0.560951 0.600000 1.261765
v -0.591880 0.000000 1.239370
v -0.591880 0.600000 1.239370
v -0.621635 0.000000 1.215505
v -0.621635 0.600000 1.215505
v -0.650214 0.000000 1.190171
v -0.650214 0.600000 1.190171
v -0.677618 0.000000 1.163368
v -0.677618 0.600000 1.163368
v -0.703846 0.000000 1.135096
v -0.703846 0.600000 1.135096
v -0.728900 0.000000 1.105355
v -0.728900 0.600000 1.105355
v -0.752778 0.000000 1.074145
v -0.752778 0.600000 1.074145
v -0.775481 0.000000 1.041466
v -0.775481 0.600000 1.041466
v -0.797009 0.000000 1.007318
v -0.797009 0.600000 1.007318
v -0.817361 0.000000 0.971701
v -0.817361 0.600000 0.971701
v -0.836538 0.000000 0.934615
v -0.836538 0.600000 0.934615
v -0.628846 0.000000 0.761538
v -0.628846 0.600000 0.761538
v -0.610711 0.000000 0.792308
v -0.610711 0.600000 0.792308
v -0.592201 0.000000 0.821795
v -0.592201 0.600000 0.821795
v -0.573317 0.000000 0.850000
v -0.573317 0.600000 0.850000
v -0.554060 0.000000 0.876923
v -0.554060 0.600000 0.876923
v -0.534428 0.000000 0.902564
v -0.534428 0.600000 0.902564
v -0.514423 0.000000 0.926923
v -0.514423 0.600000 0.926923
v -0.494044 0.000000 0.950000
v -0.494044 0.600000 0.950000
v -0.473291 0.000000 0.971795
v -0.473291 0.600000 0.971795
v -0.452164 0.000000 0.992308
v -0.452164 0.600000 0.992308
v -0.430662 0.000000 1.011538
v -0.430662 0.600000 1.011538
v -0.408787 0.000000 1.029487
v -0.408787 0.600000 1.029487
v -0.386538 0.000000 1.046154
v -0.386538 0.600000 1.046154
v -0.363809 0.000000 1.061512
v -0.363809 0.600000 1.061512
v -0.340491 0.000000 1.075534
v -0.340491 0.600000 1.075534
v -0.316587 0.000000 1.088221
v -0.316587 0.600000 1.088221
v -0.292094 0.000000 1.099573
v -0.292094 0.600000 1.099573
v -0.267014 0.000000 1.109589
v -0.267014 0.600000 1.109589
v -0.241346 0.000000 1.118269
v -0.241346 0.600000 1.118269
v -0.215091 0.000000 1.125614
v -0.215091 0.600000 1.125614
v -0.188248 0.000000 1.131624
v -0.188248 0.600000 1.131624
v -0.160817 0.000000 1.136298
v -0.160817 0.600000 1.136298
v -0.132799 0.000000 1.139637
v -0.132799 0.600000 1.139637
v -0.104193 0.000000 1.141640
v -0.104193 0.600000 1.141640
v -0.075000 0.000000 1.142308
v -0.075000 0.600000 1.142308
v -0.039156 0.000000 1.141266
v -0.039156 0.600000 1.141266
v -0.004701 0.000000 1.138141
v -0.004701 0.600000 1.138141
v 0.028365 0.000000 1.132933
v 0.028365 0.600000 1.132933
v 0.060043 0.000000 1.125641
v 0.060043 0.600000 1.125641
v 0.090331 0.000000 1.116266
v 0.090331 0.600000 1.116266
v 0.119231 0.000000 1.104808
v 0.119231 0.600000 1.104808
v 0.146741 0.000000 1.091266
v 0.146741 0.600000 1.091266
v 0.172863 0.000000 1.075641
v 0.172863 0.600000 1.075641
v 0.197596 0.000000 1.057933
v 0.197596 0.600000 1.057933
v 0.220940 0.000000 1.038141
v 0.220940 0.600000 1.038141
v 0.242895 0.000000 1.016266
v 0.242895 0.600000 1.016266
v 0.263462 0.000000 0.992308
v 0.263462 0.600000 0.992308
v 0.282505 0.000000 0.966186
v 0.282505 0.600000 0.966186
v 0.299893 0.000000 0.937820
v 0.299893 0.600000 0.937820
v 0.315625 0.000000 0.907211
v 0.315625 0.600000 0.907211
v 0.329701 0.000000 0.874359
v 0.329701 0.600000 0.874359
v 0.342121 0.000000 0.839263
v 0.342121 0.600000 0.839263
v 0.352885 0.000000 0.801923
v 0.352885 0.600000 0.801923
v 0.361993 0.000000 0.762340
v 0.361993 0.600000 0.762340
v 0.369444 0.000000 0.720513
v 0.369444 0.600000 0.720513
v 0.375240 0.000000 0.676442
v 0.375240 0.600000 0.676442
v 0.379380 0.000000 0.630128
v 0.379380 0.600000 0.630128
v 0.381864 0.000000 0.581570
v 0.381864 0.600000 0.581570
v 0.382692 0.000000 0.530769
v 0.382692 0.600000 0.530769
v 0.382692 0.000000 -1.303846
v 0.382692 0.600000 -1.303846
v 0.659615 0.000000 -1.303846
v 0.659615 0.600000 -1.303846
v 0.659615 0.000000 0.500000
v 0.659615 0.600000 0.500000
v 0.658200 0.000000 0.574052
v 0.658200 0.600000 0.574052
v 0.653953 0.000000 0.644925
v 0.653953 0.600000 0.644925
v 0.646875 0.000000 0.712620
v 0.646875 0.600000 0.712620
v 0.636966 0.000000 0.777137
v 0.636966 0.600000 0.777137
v 0.624225 0.000000 0.838475
v 0.624225 0.600000 0.838475
v 0.608654 0.000000 0.896634
v 0.608654 0.600000 0.896634
v 0.590251 0.000000 0.951616
v 0.590251 0.600000 0.951616
v 0.569017 0.000000 1.003419
v 0.569017 0.600000 1.003419
v 0.544952 0.000000 1.052043
v 0.544952 0.600000 1.052043
v 0.518056 0.000000 1.097489
v 0.518056 0.600000 1.097489
v 0.488328 0.000000 1.139757
v 0.488328 0.600000 1.139757
v 0.455769 0.000000 1.178846
v 0.455769 0.600000 1.178846
v 0.420887 0.000000 1.214784
v 0.420887 0.600000 1.214784
v 0.384188 0.000000 1.247596
v 0.384188 0.600000 1.247596
v 0.345673 0.000000 1.277284
v 0.345673 0.600000 1.277284
v 0.305342 0.000000 1.303846
v 0.305342 0.600000 1.303846
v 0.263194 0.000000 1.327284
v 0.263194 0.600000 1.327284
v 0.219231 0.000000 1.347596
v 0.219231 0.600000 1.347596
v 0.173451 0.000000 1.364784
v 0.173451 0.600000 1.364784
v 0.125855 0.000000 1.378846
v 0.125855 0.600000 1.378846
v 0.076442 0.000000 1.389784
v 0.076442 0.600000 1.389784
v 0.025214 0.000000 1.397596
v 0.025214 0.600000 1.397596
v -0.027831 0.000000 1.402284
v -0.027831 0.600000 1.402284
vn -0.0000 1.0000 -0.0000
vn -0.0000 -1.0000 -0.0000
vn 0.0040 -0.0000 1.0000
vn -0.0413 -0.0000 0.9991
vn -0.0836 -0.0000 0.9965
vn -0.1272 -0.0000 0.9919
vn -0.1716 -0.0000 0.9852
vn -0.2167 -0.0000 0.9762
vn -0.2621 -0.0000 0.9650
vn -0.3077 -0.0000 0.9515
vn -0.3530 -0.0000 0.9356
vn -0.3977 -0.0000 0.9175
vn -0.4416 -0.0000 0.8972
vn -0.4842 -0.0000 0.8749
vn -0.5257 -0.0000 0.8507
vn -0.5664 -0.0000 0.8241
vn -0.6063 -0.0000 0.7953
vn -0.6447 -0.0000 0.7644
vn -0.6815 -0.0000 0.7318
vn -0.7164 -0.0000 0.6977
vn -0.7492 -0.0000 0.6624
vn -0.7797 -0.0000 0.6261
vn -0.8080 -0.0000 0.5893
vn -0.8338 -0.0000 0.5521
vn -0.8573 -0.0000 0.5148
vn -0.8784 -0.0000 0.4778
vn -0.9802 -0.0000 -0.1981
vn 0.1709 -0.0000 -0.9853
vn 0.8543 -0.0000 -0.5198
vn 0.8391 -0.0000 -0.5441
vn 0.8223 -0.0000 -0.5691
vn 0.8038 -0.0000 -0.5949
vn 0.7835 -0.0000 -0.6214
vn 0.7613 -0.0000 -0.6484
vn 0.7370 -0.0000 -0.6759
vn 0.7105 -0.0000 -0.7037
vn 0.6818 -0.0000 -0.7316
vn 0.6506 -0.0000 -0.7594
vn 0.6171 -0.0000 -0.7869
vn 0.5799 -0.0000 -0.8147
vn 0.5378 -0.0000 -0.8431
vn 0.4923 -0.0000 -0.8705
vn 0.4448 -0.0000 -0.8956
vn 0.3958 -0.0000 -0.9183
vn 0.3457 -0.0000 -0.9383
vn 0.2950 -0.0000 -0.9555
vn 0.2440 -0.0000 -0.9698
vn 0.1933 -0.0000 -0.9811
vn 0.1432 -0.0000 -0.9897
vn 0.0941 -0.0000 -0.9956
vn 0.0464 -0.0000 -0.9989
vn -0.0031 -0.0000 -1.0000
vn -0.0597 -0.0000 -0.9982
vn -0.1230 -0.0000 -0.9924
vn -0.1901 -0.0000 -0.9818
vn -0.2602 -0.0000 -0.9656
vn -0.3324 -0.0000 -0.9431
vn -0.4054 -0.0000 -0.9141
vn -0.4779 -0.0000 -0.8784
vn -0.5482 -0.0000 -0.8363
vn -0.6149 -0.0000 -0.7886
vn -0.6768 -0.0000 -0.7362
vn -0.7329 -0.0000 -0.6804
vn -0.7840 -0.0000 -0.6207
vn -0.8310 -0.0000 -0.5563
vn -0.8716 -0.0000 -0.4902
vn -0.9048 -0.0000 -0.4257
vn -0.9314 -0.0000 -0.3639
vn -0.9522 -0.0000 -0.3054
vn -0.9681 -0.0000 -0.2507
vn -0.9798 -0.0000 -0.1999
vn -0.9882 -0.0000 -0.1529
vn -0.9940 -0.0000 -0.1097
vn -0.9975 -0.0000 -0.0701
vn -0.9994 -0.0000 -0.0337
vn -1.0000 -0.0000 -0.0081
vn -0.7071 -0.0000 -0.7071
vn 0.7071 -0.0000 -0.7071
vn 1.0000 -0.0000 0.0096
vn 0.9992 -0.0000 0.0395
vn 0.9966 -0.0000 0.0819
vn 0.9918 -0.0000 0.1279
vn 0.9841 -0.0000 0.1777
vn 0.9729 -0.0000 0.2311
vn 0.9576 -0.0000 0.2882
vn 0.9373 -0.0000 0.3485
vn 0.9113 -0.0000 0.4117
vn 0.8790 -0.0000 0.4768
vn 0.8399 -0.0000 0.5427
vn 0.7938 -0.0000 0.6081
vn 0.7435 -0.0000 0.6687
vn 0.6925 -0.0000 0.7214
vn 0.6389 -0.0000 0.7693
vn 0.5807 -0.0000 0.8141
vn 0.5184 -0.0000 0.8552
vn 0.4530 -0.0000 0.8915
vn 0.3857 -0.0000 0.9226
vn 0.3176 -0.0000 0.9482
vn 0.2499 -0.0000 0.9683
vn 0.1835 -0.0000 0.9830
vn 0.1195 -0.0000 0.9928
vn 0.0583 -0.0000 0.9983
vt 0.737374 0.000000
vt 0.757576 0.000000
vt 0.747475 0.000000
vt 0.767677 0.000000
vt 0.777778 0.000000
vt 0.727273 0.000000
vt 0.787879 0.000000
vt 0.717172 0.000000
vt 0.707071 0.000000
vt 0.797980 0.000000
vt 0.696970 0.000000
vt 0.808081 0.000000
vt 0.686869 0.000000
vt 0.242424 0.000000
vt 0.262626 0.000000
vt 0.252525 0.000000
vt 0.676768 0.000000
vt 0.818182 0.000000
vt 0.272727 0.000000
vt 0.666667 0.000000
vt 0.282828 0.000000
vt 0.828283 0.000000
vt 0.656566 0.000000
vt 0.292929 0.000000
vt 0.646465 0.000000
vt 0.303030 0.000000
vt 0.838384 0.000000
vt 0.313131 0.000000
vt 0.636364 0.000000
vt 0.323232 0.000000
vt 0.232323 0.000000
vt 0.626263 0.000000
vt 0.333333 0.000000
vt 0.848485 0.000000
vt 0.616162 0.000000
vt 0.222222 0.000000
vt 0.343434 0.000000
vt 0.353535 0.000000
vt 0.606061 0.000000
vt 0.858586 0.000000
vt 0.212121 0.000000
vt 0.363636 0.000000
vt 0.595960 0.000000
vt 0.373737 0.000000
vt 0.585859 0.000000
vt 0.202020 0.000000
vt 0.383838 0.000000
vt 0.868687 0.000000
vt 0.575758 0.000000
vt 0.393939 0.000000
vt 0.191919 0.000000
vt 0.404040 0.000000
vt 0.565657 0.000000
vt 0.414141 0.000000
vt 0.555556 0.000000
vt 0.878788 0.000000
vt 0.424242 0.000000
vt 0.545455 0.000000
vt 0.181818 0.000000
vt 0.434343 0.000000
vt 0.535354 0.000000
vt 0.444444 0.000000
vt 0.454545 0.000000
vt 0.525253 0.000000
vt 0.464646 0.000000
vt 0.515152 0.000000
vt 0.171717 0.000000
vt 0.474747 0.000000
vt 0.505050 0.000000
vt 0.484848 0.000000
vt 0.888889 0.000000
vt 0.494949 0.000000
vt 0.161616 0.000000
vt 0.898990 0.000000
vt 0.151515 0.000000
vt 0.909091 0.000000
vt 0.141414 0.000000
vt 0.131313 0.000000
vt 0.919192 0.000000
vt 0.121212 0.000000
vt 0.929293 0.000000
vt 0.111111 0.000000
vt 0.101010 0.000000
vt 0.939394 0.000000
vt 0.090909 0.000000
vt 0.949495 0.000000
vt 0.080808 0.000000
vt 0.959596 0.000000
vt 0.070707 0.000000
vt 0.060606 0.000000
vt 0.969697 0.000000
vt 0.050505 0.000000
vt 0.979798 0.000000
vt 0.040404 0.000000
vt 0.989899 0.000000
vt 0.030303 0.000000
vt 0.020202 0.000000
vt 1.000000 0.000000
vt 0.010101 0.000000
vt 0.000000 0.000000
vt 0.000000 1.000000
vt 0.010000 1.000000
vt 0.010000 0.000000
vt 0.020000 1.000000
vt 0.020000 0.000000
vt 0.030000 1.000000
vt 0.030000 0.000000
vt 0.040000 1.000000
vt 0.040000 0.000000
vt 0.050000 1.000000
vt 0.050000 0.000000
vt 0.060000 1.000000
vt 0.060000 0.000000
vt 0.070000 1.000000
vt 0.070000 0.000000
vt 0.080000 1.000000
vt 0.080000 0.000000
vt 0.090000 1.000000
vt 0.090000 0.000000
vt 0.100000 1.000000
vt 0.100000 0.000000
vt 0.110000 1.000000
vt 0.110000 0.000000
vt 0.120000 1.000000
vt 0.120000 0.000000
vt 0.130000 1.000000
vt 0.130000 0.000000
vt 0.140000 1.000000
vt 0.140000 0.000000
vt 0.150000 1.000000
vt 0.150000 0.000000
vt 0.160000 1.000000
vt 0.160000 0.000000
vt 0.170000 1.000000
vt 0.170000 0.000000
vt 0.180000 1.000000
vt 0.180000 0.000000
vt 0.190000 1.000000
vt 0.190000 0.000000
vt 0.200000 1.000000
vt 0.200000 0.000000
vt 0.210000 1.000000
vt 0.210000 0.000000
vt 0.220000 1.000000
vt 0.220000 0.000000
vt 0.230000 1.000000
vt 0.230000 0.000000
vt 0.240000 1.000000
vt 0.240000 0.000000
vt 0.250000 1.000000
vt 0.250000 0.000000
vt 0.260000 1.000000
vt 0.260000 0.000000
vt 0.270000 1.000000
vt 0.270000 0.000000
vt 0.280000 1.000000
vt 0.280000 0.000000
vt 0.290000 1.000000
vt 0.290000 0.000000
vt 0.300000 1.000000
vt 0.300000 0.000000
vt 0.310000 1.000000
vt 0.310000 0.000000
vt 0.320000 1.000000
vt 0.320000 0.000000
vt 0.330000 1.000000
vt 0.330000 0.000000
vt 0.340000 1.000000
vt 0.340000 0.000000
vt 0.350000 1.000000
vt 0.350000 0.000000
vt 0.360000 1.000000
vt 0.360000 0.000000
vt 0.370000 1.000000
vt 0.370000 0.000000
vt 0.380000 1.000000
vt 0.380000 0.000000
vt 0.390000 1.000000
vt 0.390000 0.000000
vt 0.400000 1.000000
vt 0.400000 0.000000
vt 0.410000 1.000000
vt 0.410000 0.000000
vt 0.420000 1.000000
vt 0.420000 0.000000
vt 0.430000 1.000000
vt 0.430000 0.000000
vt 0.440000 1.000000
vt 0.440000 0.000000
vt 0.450000 1.000000
vt 0.450000 0.000000
vt 0.460000 1.000000
vt 0.460000 0.000000
vt 0.470000 1.000000
vt 0.470000 0.000000
vt 0.480000 1.000000
vt 0.480000 0.000000
vt 0.490000 1.000000
vt 0.490000 0.000000
vt 0.500000 1.000000
vt 0.500000 0.000000
vt 0.510000 1.000000
vt 0.510000 0.000000
vt 0.520000 1.000000
vt 0.520000 0.000000
vt 0.530000 1.000000
vt 0.530000 0.000000
vt 0.540000 1.000000
vt 0.540000 0.000000
vt 0.550000 1.000000
vt 0.550000 0.000000
vt 0.560000 1.000000
vt 0.560000 0.000000
vt 0.570000 1.000000
vt 0.570000 0.000000
vt 0.580000 1.000000
vt 0.580000 0.000000
vt 0.590000 1.000000
vt 0.590000 0.000000
vt 0.600000 1.000000
vt 0.600000 0.000000
vt 0.610000 1.000000
vt 0.610000 0.000000
vt 0.620000 1.000000
vt 0.620000 0.000000
vt 0.630000 1.000000
vt 0.630000 0.000000
vt 0.640000 1.000000
vt 0.640000 0.000000
vt 0.650000 1.000000
vt 0.650000 0.000000
vt 0.660000 1.000000
vt 0.660000 0.000000
vt 0.670000 1.000000
vt 0.670000 0.000000
vt 0.680000 1.000000
vt 0.680000 0.000000
vt 0.690000 1.000000
vt 0.690000 0.000000
vt 0.700000 1.000000
vt 0.700000 0.000000
vt 0.710000 1.000000
vt 0.710000 0.000000
vt 0.720000 1.000000
vt 0.720000 0.000000
vt 0.730000 1.000000
vt 0.730000 0.000000
vt 0.740000 1.000000
vt 0.740000 0.000000
vt 0.750000 1.000000
vt 0.750000 0.000000
vt 0.760000 1.000000
vt 0.760000 0.000000
vt 0.770000 1.000000
vt 0.770000 0.000000
vt 0.780000 1.000000
vt 0.780000 0.000000
vt 0.790000 1.000000
vt 0.790000 0.000000
vt 0.800000 1.000000
vt 0.800000 0.000000
vt 0.810000 1.000000
vt 0.810000 0.000000
vt 0.820000 1.000000
vt 0.820000 0.000000
vt 0.830000 1.000000
vt 0.830000 0.000000
vt 0.840000 1.000000
vt 0.840000 0.000000
vt 0.850000 1.000000
vt 0.850000 0.000000
vt 0.860000 1.000000
vt 0.860000 0.000000
vt 0.870000 1.000000
vt 0.870000 0.000000
vt 0.880000 1.000000
vt 0.880000 0.000000
vt 0.890000 1.000000
vt 0.890000 0.000000
vt 0.900000 1.000000
vt 0.900000 0.000000
vt 0.910000 1.000000
vt 0.910000 0.000000
vt 0.920000 1.000000
vt 0.920000 0.000000
vt 0.930000 1.000000
vt 0.930000 0.000000
vt 0.940000 1.000000
vt 0.940000 0.000000
vt 0.950000 1.000000
vt 0.950000 0.000000
vt 0.960000 1.000000
vt 0.960000 0.000000
vt 0.970000 1.000000
vt 0.970000 0.000000
vt 0.980000 1.000000
vt 0.980000 0.000000
vt 0.990000 1.000000
vt 0.990000 0.000000
vt 1.000000 1.000000
s 0
usemtl Material.001
f 74/1/1 76/2/1 75/3/1
f 74/1/1 77/4/1 76/2/1
f 74/1/1 78/5/1 77/4/1
f 73/6/1 78/5/1 74/1/1
f 73/6/1 79/7/1 78/5/1
f 72/8/1 79/7/1 73/6/1
f 71/9/1 79/7/1 72/8/1
f 71/9/1 80/10/1 79/7/1
f 70/11/1 80/10/1 71/9/1
f 70/11/1 81/12/1 80/10/1
f 69/13/1 81/12/1 70/11/1
f 25/14/1 27/15/1 26/16/1
f 68/17/1 81/12/1 69/13/1
f 68/17/1 82/18/1 81/12/1
f 25/14/1 28/19/1 27/15/1
f 67/20/1 82/18/1 68/17/1
f 25/14/1 29/21/1 28/19/1
f 67/20/1 83/22/1 82/18/1
f 66/23/1 83/22/1 67/20/1
f 25/14/1 30/24/1 29/21/1
f 65/25/1 83/22/1 66/23/1
f 25/14/1 31/26/1 30/24/1
f 65/25/1 84/27/1 83/22/1
f 25/14/1 32/28/1 31/26/1
f 64/29/1 84/27/1 65/25/1
f 25/14/1 33/30/1 32/28/1
f 24/31/1 33/30/1 25/14/1
f 63/32/1 84/27/1 64/29/1
f 24/31/1 34/33/1 33/30/1
f 63/32/1 85/34/1 84/27/1
f 62/35/1 85/34/1 63/32/1
f 23/36/1 34/33/1 24/31/1
f 23/36/1 35/37/1 34/33/1
f 23/36/1 36/38/1 35/37/1
f 61/39/1 85/34/1 62/35/1
f 61/39/1 86/40/1 85/34/1
f 22/41/1 36/38/1 23/36/1
f 22/41/1 37/42/1 36/38/1
f 60/43/1 86/40/1 61/39/1
f 22/41/1 38/44/1 37/42/1
f 59/45/1 86/40/1 60/43/1
f 21/46/1 38/44/1 22/41/1
f 21/46/1 39/47/1 38/44/1
f 59/45/1 87/48/1 86/40/1
f 58/49/1 87/48/1 59/45/1
f 21/46/1 40/50/1 39/47/1
f 20/51/1 40/50/1 21/46/1
f 20/51/1 41/52/1 40/50/1
f 57/53/1 87/48/1 58/49/1
f 20/51/1 42/54/1 41/52/1
f 56/55/1 87/48/1 57/53/1
f 56/55/1 88/56/1 87/48/1
f 20/51/1 43/57/1 42/54/1
f 55/58/1 88/56/1 56/55/1
f 19/59/1 43/57/1 20/51/1
f 19/59/1 44/60/1 43/57/1
f 54/61/1 88/56/1 55/58/1
f 19/59/1 45/62/1 44/60/1
f 19/59/1 46/63/1 45/62/1
f 53/64/1 88/56/1 54/61/1
f 19/59/1 47/65/1 46/63/1
f 52/66/1 88/56/1 53/64/1
f 18/67/1 47/65/1 19/59/1
f 18/67/1 48/68/1 47/65/1
f 51/69/1 88/56/1 52/66/1
f 18/67/1 49/70/1 48/68/1
f 51/69/1 89/71/1 88/56/1
f 50/72/1 89/71/1 51/69/1
f 18/67/1 50/72/1 49/70/1
f 18/67/1 89/71/1 50/72/1
f 17/73/1 89/71/1 18/67/1
f 17/73/1 90/74/1 89/71/1
f 16/75/1 90/74/1 17/73/1
f 16/75/1 91/76/1 90/74/1
f 15/77/1 91/76/1 16/75/1
f 14/78/1 91/76/1 15/77/1
f 14/78/1 92/79/1 91/76/1
f 13/80/1 92/79/1 14/78/1
f 13/80/1 93/81/1 92/79/1
f 12/82/1 93/81/1 13/80/1
f 11/83/1 93/81/1 12/82/1
f 11/83/1 94/84/1 93/81/1
f 10/85/1 94/84/1 11/83/1
f 10/85/1 95/86/1 94/84/1
f 9/87/1 95/86/1 10/85/1
f 9/87/1 96/88/1 95/86/1
f 8/89/1 96/88/1 9/87/1
f 7/90/1 96/88/1 8/89/1
f 7/90/1 97/91/1 96/88/1
f 6/92/1 97/91/1 7/90/1
f 6/92/1 98/93/1 97/91/1
f 5/94/1 98/93/1 6/92/1
f 5/94/1 99/95/1 98/93/1
f 4/96/1 99/95/1 5/94/1
f 3/97/1 99/95/1 4/96/1
f 3/97/1 100/98/1 99/95/1
f 2/99/1 100/98/1 3/97/1
f 2/99/1 1/100/1 100/98/1
f 174/1/2 175/3/2 176/2/2
f 174/1/2 176/2/2 177/4/2
f 174/1/2 177/4/2 178/5/2
f 173/6/2 174/1/2 178/5/2
f 173/6/2 178/5/2 179/7/2
f 172/8/2 173/6/2 179/7/2
f 171/9/2 172/8/2 179/7/2
f 171/9/2 179/7/2 180/10/2
f 170/11/2 171/9/2 180/10/2
f 170/11/2 180/10/2 181/12/2
f 169/13/2 170/11/2 181/12/2
f 125/14/2 126/16/2 127/15/2
f 168/17/2 169/13/2 181/12/2
f 168/17/2 181/12/2 182/18/2
f 125/14/2 127/15/2 128/19/2
f 167/20/2 168/17/2 182/18/2
f 125/14/2 128/19/2 129/21/2
f 167/20/2 182/18/2 183/22/2
f 166/23/2 167/20/2 183/22/2
f 125/14/2 129/21/2 130/24/2
f 165/25/2 166/23/2 183/22/2
f 125/14/2 130/24/2 131/26/2
f 165/25/2 183/22/2 184/27/2
f 125/14/2 131/26/2 132/28/2
f 164/29/2 165/25/2 184/27/2
f 125/14/2 132/28/2 133/30/2
f 124/31/2 125/14/2 133/30/2
f 163/32/2 164/29/2 184/27/2
f 124/31/2 133/30/2 134/33/2
f 163/32/2 184/27/2 185/34/2
f 162/35/2 163/32/2 185/34/2
f 123/36/2 124/31/2 134/33/2
f 123/36/2 134/33/2 135/37/2
f 123/36/2 135/37/2 136/38/2
f 161/39/2 162/35/2 185/34/2
f 161/39/2 185/34/2 186/40/2
f 122/41/2 123/36/2 136/38/2
f 122/41/2 136/38/2 137/42/2
f 160/43/2 161/39/2 186/40/2
f 122/41/2 137/42/2 138/44/2
f 159/45/2 160/43/2 186/40/2
f 121/46/2 122/41/2 138/44/2
f 121/46/2 138/44/2 139/47/2
f 159/45/2 186/40/2 187/48/2
f 158/49/2 159/45/2 187/48/2
f 121/46/2 139/47/2 140/50/2
f 120/51/2 121/46/2 140/50/2
f 120/51/2 140/50/2 141/52/2
f 157/53/2 158/49/2 187/48/2
f 120/51/2 141/52/2 142/54/2
f 156/55/2 157/53/2 187/48/2
f 156/55/2 187/48/2 188/56/2
f 120/51/2 142/54/2 143/57/2
f 155/58/2 156/55/2 188/56/2
f 119/59/2 120/51/2 143/57/2
f 119/59/2 143/57/2 144/60/2
f 154/61/2 155/58/2 188/56/2
f 119/59/2 144/60/2 145/62/2
f 119/59/2 145/62/2 146/63/2
f 153/64/2 154/61/2 188/56/2
f 119/59/2 146/63/2 147/65/2
f 152/66/2 153/64/2 188/56/2
f 118/67/2 119/59/2 147/65/2
f 118/67/2 147/65/2 148/68/2
f 151/69/2 152/66/2 188/56/2
f 118/67/2 148/68/2 149/70/2
f 151/69/2 188/56/2 189/71/2
f 150/72/2 151/69/2 189/71/2
f 118/67/2 149/70/2 150/72/2
f 118/67/2 150/72/2 189/71/2
f 117/73/2 118/67/2 189/71/2
f 117/73/2 189/71/2 190/74/2
f 116/75/2 117/73/2 190/74/2
f 116/75/2 190/74/2 191/76/2
f 115/77/2 116/75/2 191/76/2
f 114/78/2 115/77/2 191/76/2
f 114/78/2 191/76/2 192/79/2
f 113/80/2 114/78/2 192/79/2
f 113/80/2 192/79/2 193/81/2
f 112/82/2 113/80/2 193/81/2
f 111/83/2 112/82/2 193/81/2
f 111/83/2 193/81/2 194/84/2
f 110/85/2 111/83/2 194/84/2
f 110/85/2 194/84/2 195/86/2
f 109/87/2 110/85/2 195/86/2
f 109/87/2 195/86/2 196/88/2
f 108/89/2 109/87/2 196/88/2
f 107/90/2 108/89/2 196/88/2
f 107/90/2 196/88/2 197/91/2
f 106/92/2 107/90/2 197/91/2
f 106/92/2 197/91/2 198/93/2
f 105/94/2 106/92/2 198/93/2
f 105/94/2 198/93/2 199/95/2
f 104/96/2 105/94/2 199/95/2
f 103/97/2 104/96/2 199/95/2
f 103/97/2 199/95/2 200/98/2
f 102/99/2 103/97/2 200/98/2
f 102/99/2 200/98/2 101/100/2
s 1
f 202/101/3 204/102/4 203/103/4 201/100/3
f 204/102/4 206/104/5 205/105/5 203/103/4
f 206/104/5 208/106/6 207/107/6 205/105/5
f 208/106/6 210/108/7 209/109/7 207/107/6
f 210/108/7 212/110/8 211/111/8 209/109/7
f 212/110/8 214/112/9 213/113/9 211/111/8
f 214/112/9 216/114/10 215/115/10 213/113/9
f 216/114/10 218/116/11 217/117/11 215/115/10
f 218/116/11 220/118/12 219/119/12 217/117/11
f 220/118/12 222/120/13 221/121/13 219/119/12
f 222/120/13 224/122/14 223/123/14 221/121/13
f 224/122/14 226/124/15 225/125/15 223/123/14
f 226/124/15 228/126/16 227/127/16 225/125/15
f 228/126/16 230/128/17 229/129/17 227/127/16
f 230/128/17 232/130/18 231/131/18 229/129/17
f 232/130/18 234/132/19 233/133/19 231/131/18
f 234/132/19 236/134/20 235/135/20 233/133/19
f 236/134/20 238/136/21 237/137/21 235/135/20
f 238/136/21 240/138/22 239/139/22 237/137/21
f 240/138/22 242/140/23 241/141/23 239/139/22
f 242/140/23 244/142/24 243/143/24 241/141/23
f 244/142/24 246/144/25 245/145/25 243/143/24
f 246/144/25 248/146/26 247/147/26 245/145/25
f 248/146/26 250/148/27 249/149/27 247/147/26
f 250/148/27 252/150/28 251/151/28 249/149/27
f 252/150/28 254/152/29 253/153/29 251/151/28
f 254/152/29 256/154/30 255/155/30 253/153/29
f 256/154/30 258/156/31 257/157/31 255/155/30
f 258/156/31 260/158/32 259/159/32 257/157/31
f 260/158/32 262/160/33 261/161/33 259/159/32
f 262/160/33 264/162/34 263/163/34 261/161/33
f 264/162/34 266/164/35 265/165/35 263/163/34
f 266/164/35 268/166/36 267/167/36 265/165/35
f 268/166/36 270/168/37 269/169/37 267/167/36
f 270/168/37 272/170/38 271/171/38 269/169/37
f 272/170/38 274/172/39 273/173/39 271/171/38
f 274/172/39 276/174/40 275/175/40 273/173/39
f 276/174/40 278/176/41 277/177/41 275/175/40
f 278/176/41 280/178/42 279/179/42 277/177/41
f 280/178/42 282/180/43 281/181/43 279/179/42
f 282/180/43 284/182/44 283/183/44 281/181/43
f 284/182/44 286/184/45 285/185/45 283/183/44
f 286/184/45 288/186/46 287/187/46 285/185/45
f 288/186/46 290/188/47 289/189/47 287/187/46
f 290/188/47 292/190/48 291/191/48 289/189/47
f 292/190/48 294/192/49 293/193/49 291/191/48
f 294/192/49 296/194/50 295/195/50 293/193/49
f 296/194/50 298/196/51 297/197/51 295/195/50
f 298/196/51 300/198/52 299/199/52 297/197/51
f 300/198/52 302/200/53 301/201/53 299/199/52
f 302/200/53 304/202/54 303/203/54 301/201/53
f 304/202/54 306/204/55 305/205/55 303/203/54
f 306/204/55 308/206/56 307/207/56 305/205/55
f 308/206/56 310/208/57 309/209/57 307/207/56
f 310/208/57 312/210/58 311/211/58 309/209/57
f 312/210/58 314/212/59 313/213/59 311/211/58
f 314/212/59 316/214/60 315/215/60 313/213/59
f 316/214/60 318/216/61 317/217/61 315/215/60
f 318/216/61 320/218/62 319/219/62 317/217/61
f 320/218/62 322/220/63 321/221/63 319/219/62
f 322/220/63 324/222/64 323/223/64 321/221/63
f 324/222/64 326/224/65 325/225/65 323/223/64
f 326/224/65 328/226/66 327/227/66 325/225/65
f 328/226/66 330/228/67 329/229/67 327/227/66
f 330/228/67 332/230/68 331/231/68 329/229/67
f 332/230/68 334/232/69 333/233/69 331/231/68
f 334/232/69 336/234/70 335/235/70 333/233/69
f 336/234/70 338/236/71 337/237/71 335/235/70
f 338/236/71 340/238/72 339/239/72 337/237/71
f 340/238/72 342/240/73 341/241/73 339/239/72
f 342/240/73 344/242/74 343/243/74 341/241/73
f 344/242/74 346/244/75 345/245/75 343/243/74
f 346/244/75 348/246/76 347/247/76 345/245/75
f 348/246/76 350/248/77 349/249/77 347/247/76
f 350/248/77 352/250/78 351/251/78 349/249/77
f 352/250/78 354/252/79 353/253/79 351/251/78
f 354/252/79 356/254/80 355/255/80 353/253/79
f 356/254/80 358/256/81 357/257/81 355/255/80
f 358/256/81 360/258/82 359/259/82 357/257/81
f 360/258/82 362/260/83 361/261/83 359/259/82
f 362/260/83 364/262/84 363/263/84 361/261/83
f 364/262/84 366/264/85 365/265/85 363/263/84
f 366/264/85 368/266/86 367/267/86 365/265/85
f 368/266/86 370/268/87 369/269/87 367/267/86
f 370/268/87 372/270/88 371/271/88 369/269/87
f 372/270/88 374/272/89 373/273/89 371/271/88
f 374/272/89 376/274/90 375/275/90 373/273/89
f 376/274/90 378/276/91 377/277/91 375/275/90
f 378/276/91 380/278/92 379/279/92 377/277/91
f 380/278/92 382/280/93 381/281/93 379/279/92
f 382/280/93 384/282/94 383/283/94 381/281/93
f 384/282/94 386/284/95 385/285/95 383/283/94
f 386/284/95 388/286/96 387/287/96 385/285/95
f 388/286/96 390/288/97 389/289/97 387/287/96
f 390/288/97 392/290/98 391/291/98 389/289/97
f 392/290/98 394/292/99 393/293/99 391/291/98
f 394/292/99 396/294/100 395/295/100 393/293/99
f 396/294/100 398/296/101 397/297/101 395/295/100
f 398/296/101 400/298/102 399/299/102 397/297/101
f 400/298/102 202/300/3 201/98/3 399/299/102
