# Blender 4.0.2
# www.blender.org
mtllib K_regular.mtl
o Text
v -0.559615 0.600000 1.350000
v -0.836538 0.600000 1.350000
v -0.836538 0.600000 -1.303846
v -0.559615 0.600000 -1.303846
v -0.559615 0.600000 -0.003846
v 0.678846 0.600000 -1.303846
v 1.036538 0.600000 -1.303846
v 0.098077 0.600000 -0.311539
v 0.151830 0.600000 -0.246034
v 0.204113 0.600000 -0.180289
v 0.254928 0.600000 -0.114303
v 0.304274 0.600000 -0.048077
v 0.352150 0.600000 0.018389
v 0.398558 0.600000 0.085096
v 0.443496 0.600000 0.152043
v 0.486966 0.600000 0.219231
v 0.528966 0.600000 0.286659
v 0.569498 0.600000 0.354327
v 0.608560 0.600000 0.422236
v 0.646154 0.600000 0.490385
v 0.682465 0.600000 0.558934
v 0.717682 0.600000 0.628045
v 0.751803 0.600000 0.697716
v 0.784829 0.600000 0.767949
v 0.816760 0.600000 0.838742
v 0.847596 0.600000 0.910096
v 0.877337 0.600000 0.982011
v 0.905983 0.600000 1.054487
v 0.933534 0.600000 1.127524
v 0.959989 0.600000 1.201122
v 0.985350 0.600000 1.275280
v 1.009615 0.600000 1.350000
v 0.709615 0.600000 1.350000
v 0.669979 0.600000 1.217628
v 0.625427 0.600000 1.087179
v 0.575962 0.600000 0.958654
v 0.521581 0.600000 0.832051
v 0.462286 0.600000 0.707372
v 0.398077 0.600000 0.584615
v 0.328953 0.600000 0.463782
v 0.254915 0.600000 0.344872
v 0.175962 0.600000 0.227885
v 0.092094 0.600000 0.112820
v 0.003312 0.600000 -0.000321
v -0.090385 0.600000 -0.111539
v -0.559615 0.600000 0.384615
v -0.559615 0.000000 1.350000
v -0.836538 0.000000 1.350000
v -0.836538 0.000000 -1.303846
v -0.559615 0.000000 -1.303846
v -0.559615 0.000000 -0.003846
v 0.678846 0.000000 -1.303846
v 1.036538 0.000000 -1.303846
v 0.098077 0.000000 -0.311539
v 0.151830 0.000000 -0.246034
v 0.204113 0.000000 -0.180289
v 0.254928 0.000000 -0.114303
v 0.304274 0.000000 -0.048077
v 0.352150 0.000000 0.018389
v 0.398558 0.000000 0.085096
v 0.443496 0.000000 0.152043
v 0.486966 0.000000 0.219231
v 0.528966 0.000000 0.286659
v 0.569498 0.000000 0.354327
v 0.608560 0.000000 0.422236
v 0.646154 0.000000 0.490385
v 0.682465 0.000000 0.558934
v 0.717682 0.000000 0.628045
v 0.751803 0.000000 0.697716
v 0.784829 0.000000 0.767949
v 0.816760 0.000000 0.838742
v 0.847596 0.000000 0.910096
v 0.877337 0.000000 0.982011
v 0.905983 0.000000 1.054487
v 0.933534 0.000000 1.127524
v 0.959989 0.000000 1.201122
v 0.985350 0.000000 1.275280
v 1.009615 0.000000 1.350000
v 0.709615 0.000000 1.350000
v 0.669979 0.000000 1.217628
v 0.625427 0.000000 1.087179
v 0.575962 0.000000 0.958654
v 0.521581 0.000000 0.832051
v 0.462286 0.000000 0.707372
v 0.398077 0.000000 0.584615
v 0.328953 0.000000 0.463782
v 0.254915 0.000000 0.344872
v 0.175962 0.000000 0.227885
v 0.092094 0.000000 0.112820
v 0.003312 0.000000 -0.000321
v -0.090385 0.000000 -0.111539
v -0.559615 0.000000 0.384615
v -0.559615 0.000000 1.350000
v -0.559615 0.600000 1.350000
v -0.836538 0.000000 1.350000
v -0.836538 0.600000 1.350000
v -0.836538 0.000000 -1.303846
v -0.836538 0.600000 -1.303846
v -0.559615 0.000000 -1.303846
v -0.559615 0.600000 -1.303846
v -0.559615 0.000000 -0.003846
v -0.559615 0.600000 -0.003846
v 0.678846 0.000000 -1.303846
v 0.678846 0.600000 -1.303846
v 1.036538 0.000000 -1.303846
v 1.036538 0.600000 -1.303846
v 0.098077 0.000000 -0.311539
v 0.098077 0.600000 -0.311539
v 0.151830 0.000000 -0.246034
v 0.151830 0.600000 -0.246034
v 0.204113 0.000000 -0.180289
v 0.204113 0.600000 -0.180289
v 0.254928 0.000000 -0.114303
v 0.254928 0.600000 -0.114303
v 0.304274 0.000000 -0.048077
v 0.304274 0.600000 -0.048077
v 0.352150 0.000000 0.018389
v 0.352150 0.600000 0.018389
v 0.398558 0.000000 0.085096
v 0.398558 0.600000 0.085096
v 0.443496 0.000000 0.152043
v 0.443496 0.600000 0.152043
v 0.486966 0.000000 0.219231
v 0.486966 0.600000 0.219231
v 0.528966 0.000000 0.286659
v 0.528966 0.600000 0.286659
v 0.569498 0.000000 0.354327
v 0.569498 0.600000 0.354327
v 0.608560 0.000000 0.422236
v 0.608560 0.600000 0.422236
v 0.646154 0.000000 0.490385
v 0.646154 0.600000 0.490385
v 0.682465 0.000000 0.558934
v 0.682465 0.600000 0.558934
v 0.717682 0.000000 0.628045
v 0.717682 0.600000 0.628045
v 0.751803 0.000000 0.697716
v 0.751803 0.600000 0.697716
v 0.784829 0.000000 0.767949
v 0.784829 0.600000 0.767949
v 0.816760 0.000000 0.838742
v 0.816760 0.600000 0.838742
v 0.847596 0.000000 0.910096
v 0.847596 0.600000 0.910096
v 0.877337 0.000000 0.982011
v 0.877337 0.600000 0.982011
v 0.905983 0.000000 1.054487
v 0.905983 0.600000 1.054487
v 0.933534 0.000000 1.127524
v 0.933534 0.600000 1.127524
v 0.959989 0.000000 1.201122
v 0.959989 0.600000 1.201122
v 0.985350 0.000000 1.275280
v 0.985350 0.600000 1.275280
v 1.009615 0.000000 1.350000
v 1.009615 0.600000 1.350000
v 0.709615 0.000000 1.350000
v 0.709615 0.600000 1.350000
v 0.669979 0.000000 1.217628
v 0.669979 0.600000 1.217628
v 0.625427 0.000000 1.087179
v 0.625427 0.600000 1.087179
v 0.575962 0.000000 0.958654
v 0.575962 0.600000 0.958654
v 0.521581 0.000000 0.832051
v 0.521581 0.600000 0.832051
v 0.462286 0.000000 0.707372
v 0.462286 0.600000 0.707372
v 0.398077 0.000000 0.584615
v 0.398077 0.600000 0.584615
v 0.328953 0.000000 0.463782
v 0.328953 0.600000 0.463782
v 0.254915 0.000000 0.344872
v 0.254915 0.600000 0.344872
v 0.175962 0.000000 0.227885
v 0.175962 0.600000 0.227885
v 0.092094 0.000000 0.112820
v 0.092094 0.600000 0.112820
v 0.003312 0.000000 -0.000321
v 0.003312 0.600000 -0.000321
v -0.090385 0.000000 -0.111539
v -0.090385 0.600000 -0.111539
v -0.559615 0.000000 0.384615
v -0.559615 0.600000 0.384615
vn -0.0000 1.0000 -0.0000
vn -0.0000 -1.0000 -0.0000
vn 0.7071 -0.0000 0.7071
vn -0.7071 -0.0000 0.7071
vn -0.7071 -0.0000 -0.7071
vn 0.7071 -0.0000 -0.7071
vn 0.3715 -0.0000 -0.9284
vn -0.3939 -0.0000 -0.9192
vn 0.9185 -0.0000 -0.3955
vn 0.9994 -0.0000 0.0352
vn 0.7779 -0.0000 -0.6284
vn 0.7875 -0.0000 -0.6163
vn 0.7971 -0.0000 -0.6038
vn 0.8067 -0.0000 -0.5910
vn 0.8162 -0.0000 -0.5778
vn 0.8256 -0.0000 -0.5642
vn 0.8350 -0.0000 -0.5503
vn 0.8442 -0.0000 -0.5360
vn 0.8534 -0.0000 -0.5213
vn 0.8624 -0.0000 -0.5063
vn 0.8713 -0.0000 -0.4908
vn 0.8797 -0.0000 -0.4756
vn 0.8874 -0.0000 -0.4611
vn 0.8946 -0.0000 -0.4469
vn 0.9015 -0.0000 -0.4327
vn 0.9083 -0.0000 -0.4184
vn 0.9148 -0.0000 -0.4039
vn 0.9211 -0.0000 -0.3894
vn 0.9271 -0.0000 -0.3749
vn 0.9328 -0.0000 -0.3603
vn 0.9384 -0.0000 -0.3456
vn 0.9437 -0.0000 -0.3309
vn 0.9487 -0.0000 -0.3162
vn 0.8090 -0.0000 0.5878
vn -0.5971 -0.0000 0.8021
vn -0.9523 -0.0000 0.3051
vn -0.9400 -0.0000 0.3413
vn -0.9262 -0.0000 0.3770
vn -0.9111 -0.0000 0.4122
vn -0.8948 -0.0000 0.4466
vn -0.8772 -0.0000 0.4801
vn -0.8586 -0.0000 0.5126
vn -0.8390 -0.0000 0.5441
vn -0.8186 -0.0000 0.5743
vn -0.7975 -0.0000 0.6033
vn -0.7759 -0.0000 0.6309
vn -0.0287 -0.0000 0.9996
vn 0.9291 -0.0000 0.3698
vt 0.022222 0.000000
vt 0.066667 0.000000
vt 0.044444 0.000000
vt 0.088889 0.000000
vt 0.133333 0.000000
vt 0.111111 0.000000
vt 0.155556 0.000000
vt 0.177778 0.000000
vt 0.200000 0.000000
vt 0.977778 0.000000
vt 0.222222 0.000000
vt 0.244444 0.000000
vt 1.000000 0.000000
vt 0.955556 0.000000
vt 0.266667 0.000000
vt 0.933333 0.000000
vt 0.288889 0.000000
vt 0.311111 0.000000
vt 0.911111 0.000000
vt 0.333333 0.000000
vt 0.355556 0.000000
vt 0.888889 0.000000
vt 0.377778 0.000000
vt 0.866667 0.000000
vt 0.400000 0.000000
vt 0.000000 0.000000
vt 0.422222 0.000000
vt 0.844444 0.000000
vt 0.444444 0.000000
vt 0.466667 0.000000
vt 0.822222 0.000000
vt 0.488889 0.000000
vt 0.511111 0.000000
vt 0.800000 0.000000
vt 0.533333 0.000000
vt 0.777778 0.000000
vt 0.555556 0.000000
vt 0.577778 0.000000
vt 0.755556 0.000000
vt 0.600000 0.000000
vt 0.622222 0.000000
vt 0.733333 0.000000
vt 0.644444 0.000000
vt 0.666667 0.000000
vt 0.711111 0.000000
vt 0.688889 0.000000
vt 0.000000 1.000000
vt 0.021739 1.000000
vt 0.021739 0.000000
vt 0.043478 1.000000
vt 0.043478 0.000000
vt 0.065217 1.000000
vt 0.065217 0.000000
vt 0.086957 1.000000
vt 0.086957 0.000000
vt 0.108696 1.000000
vt 0.108696 0.000000
vt 0.130435 1.000000
vt 0.130435 0.000000
vt 0.152174 1.000000
vt 0.152174 0.000000
vt 0.173913 1.000000
vt 0.173913 0.000000
vt 0.195652 1.000000
vt 0.195652 0.000000
vt 0.217391 1.000000
vt 0.217391 0.000000
vt 0.239130 1.000000
vt 0.239130 0.000000
vt 0.260870 1.000000
vt 0.260870 0.000000
vt 0.282609 1.000000
vt 0.282609 0.000000
vt 0.304348 1.000000
vt 0.304348 0.000000
vt 0.326087 1.000000
vt 0.326087 0.000000
vt 0.347826 1.000000
vt 0.347826 0.000000
vt 0.369565 1.000000
vt 0.369565 0.000000
vt 0.391304 1.000000
vt 0.391304 0.000000
vt 0.413043 1.000000
vt 0.413043 0.000000
vt 0.434783 1.000000
vt 0.434783 0.000000
vt 0.456522 1.000000
vt 0.456522 0.000000
vt 0.478261 1.000000
vt 0.478261 0.000000
vt 0.500000 1.000000
vt 0.500000 0.000000
vt 0.521739 1.000000
vt 0.521739 0.000000
vt 0.543478 1.000000
vt 0.543478 0.000000
vt 0.565217 1.000000
vt 0.565217 0.000000
vt 0.586957 1.000000
vt 0.586957 0.000000
vt 0.608696 1.000000
vt 0.608696 0.000000
vt 0.630435 1.000000
vt 0.630435 0.000000
vt 0.652174 1.000000
vt 0.652174 0.000000
vt 0.673913 1.000000
vt 0.673913 0.000000
vt 0.695652 1.000000
vt 0.695652 0.000000
vt 0.717391 1.000000
vt 0.717391 0.000000
vt 0.739130 1.000000
vt 0.739130 0.000000
vt 0.760870 1.000000
vt 0.760870 0.000000
vt 0.782609 1.000000
vt 0.782609 0.000000
vt 0.804348 1.000000
vt 0.804348 0.000000
vt 0.826087 1.000000
vt 0.826087 0.000000
vt 0.847826 1.000000
vt 0.847826 0.000000
vt 0.869565 1.000000
vt 0.869565 0.000000
vt 0.891304 1.000000
vt 0.891304 0.000000
vt 0.913043 1.000000
vt 0.913043 0.000000
vt 0.934783 1.000000
vt 0.934783 0.000000
vt 0.956522 1.000000
vt 0.956522 0.000000
vt 0.978261 1.000000
vt 0.978261 0.000000
vt 1.000000 1.000000
s 0
usemtl Material.001
f 2/1/1 4/2/1 3/3/1
f 2/1/1 5/4/1 4/2/1
f 5/4/1 7/5/1 6/6/1
f 5/4/1 8/7/1 7/5/1
f 5/4/1 9/8/1 8/7/1
f 5/4/1 10/9/1 9/8/1
f 5/4/1 45/10/1 10/9/1
f 45/10/1 11/11/1 10/9/1
f 45/10/1 12/12/1 11/11/1
f 5/4/1 46/13/1 45/10/1
f 44/14/1 12/12/1 45/10/1
f 44/14/1 13/15/1 12/12/1
f 2/1/1 46/13/1 5/4/1
f 43/16/1 13/15/1 44/14/1
f 43/16/1 14/17/1 13/15/1
f 43/16/1 15/18/1 14/17/1
f 42/19/1 15/18/1 43/16/1
f 42/19/1 16/20/1 15/18/1
f 42/19/1 17/21/1 16/20/1
f 41/22/1 17/21/1 42/19/1
f 41/22/1 18/23/1 17/21/1
f 40/24/1 18/23/1 41/22/1
f 40/24/1 19/25/1 18/23/1
f 2/1/1 1/26/1 46/13/1
f 40/24/1 20/27/1 19/25/1
f 39/28/1 20/27/1 40/24/1
f 39/28/1 21/29/1 20/27/1
f 39/28/1 22/30/1 21/29/1
f 38/31/1 22/30/1 39/28/1
f 38/31/1 23/32/1 22/30/1
f 38/31/1 24/33/1 23/32/1
f 37/34/1 24/33/1 38/31/1
f 37/34/1 25/35/1 24/33/1
f 36/36/1 25/35/1 37/34/1
f 36/36/1 26/37/1 25/35/1
f 36/36/1 27/38/1 26/37/1
f 35/39/1 27/38/1 36/36/1
f 35/39/1 28/40/1 27/38/1
f 35/39/1 29/41/1 28/40/1
f 34/42/1 29/41/1 35/39/1
f 34/42/1 30/43/1 29/41/1
f 34/42/1 31/44/1 30/43/1
f 33/45/1 31/44/1 34/42/1
f 33/45/1 32/46/1 31/44/1
f 48/1/2 49/3/2 50/2/2
f 48/1/2 50/2/2 51/4/2
f 51/4/2 52/6/2 53/5/2
f 51/4/2 53/5/2 54/7/2
f 51/4/2 54/7/2 55/8/2
f 51/4/2 55/8/2 56/9/2
f 51/4/2 56/9/2 91/10/2
f 91/10/2 56/9/2 57/11/2
f 91/10/2 57/11/2 58/12/2
f 51/4/2 91/10/2 92/13/2
f 90/14/2 91/10/2 58/12/2
f 90/14/2 58/12/2 59/15/2
f 48/1/2 51/4/2 92/13/2
f 89/16/2 90/14/2 59/15/2
f 89/16/2 59/15/2 60/17/2
f 89/16/2 60/17/2 61/18/2
f 88/19/2 89/16/2 61/18/2
f 88/19/2 61/18/2 62/20/2
f 88/19/2 62/20/2 63/21/2
f 87/22/2 88/19/2 63/21/2
f 87/22/2 63/21/2 64/23/2
f 86/24/2 87/22/2 64/23/2
f 86/24/2 64/23/2 65/25/2
f 48/1/2 92/13/2 47/26/2
f 86/24/2 65/25/2 66/27/2
f 85/28/2 86/24/2 66/27/2
f 85/28/2 66/27/2 67/29/2
f 85/28/2 67/29/2 68/30/2
f 84/31/2 85/28/2 68/30/2
f 84/31/2 68/30/2 69/32/2
f 84/31/2 69/32/2 70/33/2
f 83/34/2 84/31/2 70/33/2
f 83/34/2 70/33/2 71/35/2
f 82/36/2 83/34/2 71/35/2
f 82/36/2 71/35/2 72/37/2
f 82/36/2 72/37/2 73/38/2
f 81/39/2 82/36/2 73/38/2
f 81/39/2 73/38/2 74/40/2
f 81/39/2 74/40/2 75/41/2
f 80/42/2 81/39/2 75/41/2
f 80/42/2 75/41/2 76/43/2
f 80/42/2 76/43/2 77/44/2
f 79/45/2 80/42/2 77/44/2
f 79/45/2 77/44/2 78/46/2
s 1
f 94/47/3 96/48/4 95/49/4 93/26/3
f 96/48/4 98/50/5 97/51/5 95/49/4
f 98/50/5 100/52/6 99/53/6 97/51/5
f 100/52/6 102/54/7 101/55/7 99/53/6
f 102/54/7 104/56/8 103/57/8 101/55/7
f 104/56/8 106/58/9 105/59/9 103/57/8
f 106/58/9 108/60/10 107/61/10 105/59/9
f 108/60/10 110/62/11 109/63/11 107/61/10
f 110/62/11 112/64/12 111/65/12 109/63/11
f 112/64/12 114/66/13 113/67/13 111/65/12
f 114/66/13 116/68/14 115/69/14 113/67/13
f 116/68/14 118/70/15 117/71/15 115/69/14
f 118/70/15 120/72/16 119/73/16 117/71/15
f 120/72/16 122/74/17 121/75/17 119/73/16
f 122/74/17 124/76/18 123/77/18 121/75/17
f 124/76/18 126/78/19 125/79/19 123/77/18
f 126/78/19 128/80/20 127/81/20 125/79/19
f 128/80/20 130/82/21 129/83/21 127/81/20
f 130/82/21 132/84/22 131/85/22 129/83/21
f 132/84/22 134/86/23 133/87/23 131/85/22
f 134/86/23 136/88/24 135/89/24 133/87/23
f 136/88/24 138/90/25 137/91/25 135/89/24
f 138/90/25 140/92/26 139/93/26 137/91/25
f 140/92/26 142/94/27 141/95/27 139/93/26
f 142/94/27 144/96/28 143/97/28 141/95/27
f 144/96/28 146/98/29 145/99/29 143/97/28
f 146/98/29 148/100/30 147/101/30 145/99/29
f 148/100/30 150/102/31 149/103/31 147/101/30
f 150/102/31 152/104/32 151/105/32 149/103/31
f 152/104/32 154/106/33 153/107/33 151/105/32
f 154/106/33 156/108/34 155/109/34 153/107/33
f 156/108/34 158/110/35 157/111/35 155/109/34
f 158/110/35 160/112/36 159/113/36 157/111/35
f 160/112/36 162/114/37 161/115/37 159/113/36
f 162/114/37 164/116/38 163/117/38 161/115/37
f 164/116/38 166/118/39 165/119/39 163/117/38
f 166/118/39 168/120/40 167/121/40 165/119/39
f 168/120/40 170/122/41 169/123/41 167/121/40
f 170/122/41 172/124/42 171/125/42 169/123/41
f 172/124/42 174/126/43 173/127/43 171/125/42
f 174/126/43 176/128/44 175/129/44 173/127/43
f 176/128/44 178/130/45 177/131/45 175/129/44
f 178/130/45 180/132/46 179/133/46 177/131/45
f 180/132/46 182/134/47 181/135/47 179/133/46
f 182/134/47 184/136/48 183/137/48 181/135/47
f 184/136/48 94/138/3 93/13/3 183/137/48
