# Blender 4.0.2
# www.blender.org
mtllib N_regular.mtl
o Text
v -0.705769 0.600000 -0.896154
v -0.705769 0.600000 1.350000
v -0.982692 0.600000 1.350000
v -0.982692 0.600000 -1.303846
v -0.644231 0.600000 -1.303846
v 0.705769 0.600000 0.930769
v 0.705769 0.600000 -1.303846
v 0.982692 0.600000 -1.303846
v 0.982692 0.600000 1.350000
v 0.675000 0.600000 1.350000
v -0.705769 0.000000 -0.896154
v -0.705769 0.000000 1.350000
v -0.982692 0.000000 1.350000
v -0.982692 0.000000 -1.303846
v -0.644231 0.000000 -1.303846
v 0.705769 0.000000 0.930769
v 0.705769 0.000000 -1.303846
v 0.982692 0.000000 -1.303846
v 0.982692 0.000000 1.350000
v 0.675000 0.000000 1.350000
v -0.705769 0.000000 -0.896154
v -0.705769 0.600000 -0.896154
v -0.705769 0.000000 1.350000
v -0.705769 0.600000 1.350000
v -0.982692 0.000000 1.350000
v -0.982692 0.600000 1.350000
v -0.982692 0.000000 -1.303846
v -0.982692 0.600000 -1.303846
v -0.644231 0.000000 -1.303846
v -0.644231 0.600000 -1.303846
v 0.705769 0.000000 0.930769
v 0.705769 0.600000 0.930769
v 0.705769 0.000000 -1.303846
v 0.705769 0.600000 -1.303846
v 0.982692 0.000000 -1.303846
v 0.982692 0.600000 -1.303846
v 0.982692 0.000000 1.350000
v 0.982692 0.600000 1.350000
v 0.675000 0.000000 1.350000
v 0.675000 0.600000 1.350000
vn -0.0000 1.0000 -0.0000
vn -0.0000 -1.0000 -0.0000
vn 0.2721 -0.0000 0.9623
vn 0.7071 -0.0000 0.7071
vn -0.7071 -0.0000 0.7071
vn -0.7071 -0.0000 -0.7071
vn 0.4914 -0.0000 -0.8709
vn -0.2684 -0.0000 -0.9633
vn 0.7071 -0.0000 -0.7071
vn -0.4880 -0.0000 0.8728
vt 0.222222 0.000000
vt 0.000000 0.000000
vt 0.333333 0.000000
vt 0.444444 0.000000
vt 0.555556 0.000000
vt 0.777778 0.000000
vt 0.666667 0.000000
vt 0.888889 0.000000
vt 0.111111 0.000000
vt 1.000000 0.000000
vt 0.000000 1.000000
vt 0.100000 1.000000
vt 0.100000 0.000000
vt 0.200000 1.000000
vt 0.200000 0.000000
vt 0.300000 1.000000
vt 0.300000 0.000000
vt 0.400000 1.000000
vt 0.400000 0.000000
vt 0.500000 1.000000
vt 0.500000 0.000000
vt 0.600000 1.000000
vt 0.600000 0.000000
vt 0.700000 1.000000
vt 0.700000 0.000000
vt 0.800000 1.000000
vt 0.800000 0.000000
vt 0.900000 1.000000
vt 0.900000 0.000000
vt 1.000000 1.000000
s 0
usemtl Material.001
f 3/1/1 1/2/1 4/3/1
f 1/2/1 5/4/1 4/3/1
f 1/2/1 6/5/1 5/4/1
f 6/5/1 8/6/1 7/7/1
f 6/5/1 9/8/1 8/6/1
f 3/1/1 2/9/1 1/2/1
f 10/10/1 6/5/1 1/2/1
f 10/10/1 9/8/1 6/5/1
f 13/1/2 14/3/2 11/2/2
f 11/2/2 14/3/2 15/4/2
f 11/2/2 15/4/2 16/5/2
f 16/5/2 17/7/2 18/6/2
f 16/5/2 18/6/2 19/8/2
f 13/1/2 11/2/2 12/9/2
f 20/10/2 11/2/2 16/5/2
f 20/10/2 16/5/2 19/8/2
s 1
f 22/11/3 24/12/4 23/13/4 21/2/3
f 24/12/4 26/14/5 25/15/5 23/13/4
f 26/14/5 28/16/6 27/17/6 25/15/5
f 28/16/6 30/18/7 29/19/7 27/17/6
f 30/18/7 32/20/8 31/21/8 29/19/7
f 32/20/8 34/22/6 33/23/6 31/21/8
f 34/22/6 36/24/9 35/25/9 33/23/6
f 36/24/9 38/26/4 37/27/4 35/25/9
f 38/26/4 40/28/10 39/29/10 37/27/4
f 40/28/10 22/30/3 21/10/3 39/29/10
