# Blender 4.0.2
# www.blender.org
mtllib O_regular.mtl
o Text
v 0.000000 0.600000 1.403846
v -0.055235 0.600000 1.402738
v -0.109402 0.600000 1.399412
v -0.162500 0.600000 1.393870
v -0.214530 0.600000 1.386111
v -0.265492 0.600000 1.376135
v -0.315385 0.600000 1.363942
v -0.364209 0.600000 1.349533
v -0.411966 0.600000 1.332906
v -0.458654 0.600000 1.314062
v -0.504274 0.600000 1.293002
v -0.548825 0.600000 1.269725
v -0.592308 0.600000 1.244231
v -0.634469 0.600000 1.216586
v -0.675053 0.600000 1.186859
v -0.714063 0.600000 1.155048
v -0.751496 0.600000 1.121154
v -0.787353 0.600000 1.085176
v -0.821635 0.600000 1.047115
v -0.854340 0.600000 1.006971
v -0.885470 0.600000 0.964743
v -0.915024 0.600000 0.920433
v -0.943002 0.600000 0.874038
v -0.969404 0.600000 0.825561
v -0.994231 0.600000 0.775000
v -1.017268 0.600000 0.722476
v -1.038301 0.600000 0.668109
v -1.057332 0.600000 0.611899
v -1.074359 0.600000 0.553846
v -1.089383 0.600000 0.493950
v -1.102404 0.600000 0.432211
v -1.113422 0.600000 0.368630
v -1.122436 0.600000 0.303205
v -1.129447 0.600000 0.235937
v -1.134455 0.600000 0.166827
v -1.137460 0.600000 0.095873
v -1.138462 0.600000 0.023077
v -1.137460 0.600000 -0.049720
v -1.134455 0.600000 -0.120673
v -1.129447 0.600000 -0.189784
v -1.122436 0.600000 -0.257051
v -1.113422 0.600000 -0.322476
v -1.102404 0.600000 -0.386058
v -1.089383 0.600000 -0.447797
v -1.074359 0.600000 -0.507692
v -1.057332 0.600000 -0.565745
v -1.038301 0.600000 -0.621955
v -1.017268 0.600000 -0.676322
v -0.994231 0.600000 -0.728846
v -0.969404 0.600000 -0.779407
v -0.943002 0.600000 -0.827885
v -0.915024 0.600000 -0.874279
v -0.885470 0.600000 -0.918590
v -0.854340 0.600000 -0.960817
v -0.821635 0.600000 -1.000962
v -0.787353 0.600000 -1.039023
v -0.751496 0.600000 -1.075000
v -0.714063 0.600000 -1.108894
v -0.675053 0.600000 -1.140705
v -0.634469 0.600000 -1.170433
v -0.592308 0.600000 -1.198077
v -0.548825 0.600000 -1.223571
v -0.504274 0.600000 -1.246848
v -0.458654 0.600000 -1.267909
v -0.411966 0.600000 -1.286752
v -0.364210 0.600000 -1.303379
v -0.315385 0.600000 -1.317789
v -0.265492 0.600000 -1.329981
v -0.214530 0.600000 -1.339957
v -0.162500 0.600000 -1.347717
v -0.109402 0.600000 -1.353259
v -0.055235 0.600000 -1.356584
v 0.000000 0.600000 -1.357692
v 0.055836 0.600000 -1.356597
v 0.110523 0.600000 -1.353312
v 0.164062 0.600000 -1.347837
v 0.216453 0.600000 -1.340171
v 0.267695 0.600000 -1.330315
v 0.317788 0.600000 -1.318269
v 0.366733 0.600000 -1.304033
v 0.414530 0.600000 -1.287607
v 0.461178 0.600000 -1.268991
v 0.506677 0.600000 -1.248184
v 0.551028 0.600000 -1.225187
v 0.594231 0.600000 -1.200000
v 0.636084 0.600000 -1.172650
v 0.676389 0.600000 -1.143162
v 0.715144 0.600000 -1.111539
v 0.752350 0.600000 -1.077778
v 0.788007 0.600000 -1.041880
v 0.822115 0.600000 -1.003846
v 0.854674 0.600000 -0.963675
v 0.885684 0.600000 -0.921368
v 0.915144 0.600000 -0.876923
v 0.943055 0.600000 -0.830342
v 0.969418 0.600000 -0.781624
v 0.994231 0.600000 -0.730769
v 1.017267 0.600000 -0.677938
v 1.038301 0.600000 -0.623291
v 1.057332 0.600000 -0.566827
v 1.074359 0.600000 -0.508547
v 1.089383 0.600000 -0.448451
v 1.102404 0.600000 -0.386539
v 1.113421 0.600000 -0.322810
v 1.122436 0.600000 -0.257265
v 1.129447 0.600000 -0.189904
v 1.134455 0.600000 -0.120727
v 1.137460 0.600000 -0.049733
v 1.138462 0.600000 0.023077
v 1.137460 0.600000 0.095887
v 1.134455 0.600000 0.166880
v 1.129447 0.600000 0.236058
v 1.122436 0.600000 0.303419
v 1.113422 0.600000 0.368964
v 1.102404 0.600000 0.432692
v 1.089383 0.600000 0.494605
v 1.074359 0.600000 0.554701
v 1.057332 0.600000 0.612981
v 1.038301 0.600000 0.669444
v 1.017268 0.600000 0.724092
v 0.994231 0.600000 0.776923
v 0.969418 0.600000 0.827778
v 0.943055 0.600000 0.876496
v 0.915144 0.600000 0.923077
v 0.885684 0.600000 0.967521
v 0.854674 0.600000 1.009829
v 0.822115 0.600000 1.050000
v 0.788007 0.600000 1.088034
v 0.752350 0.600000 1.123931
v 0.715144 0.600000 1.157692
v 0.676389 0.600000 1.189316
v 0.636084 0.600000 1.218803
v 0.594231 0.600000 1.246154
v 0.551028 0.600000 1.271341
v 0.506677 0.600000 1.294338
v 0.461178 0.600000 1.315144
v 0.414530 0.600000 1.333761
v 0.366733 0.600000 1.350187
v 0.317788 0.600000 1.364423
v 0.267695 0.600000 1.376469
v 0.216453 0.600000 1.386325
v 0.164062 0.600000 1.393990
v 0.110523 0.600000 1.399466
v 0.055836 0.600000 1.402751
v 0.000000 0.600000 1.150000
v 0.065491 0.600000 1.147957
v 0.128632 0.600000 1.141827
v 0.189423 0.600000 1.131611
v 0.247863 0.600000 1.117308
v 0.303953 0.600000 1.098918
v 0.357692 0.600000 1.076442
v 0.409081 0.600000 1.049880
v 0.458120 0.600000 1.019231
v 0.504808 0.600000 0.984495
v 0.549145 0.600000 0.945673
v 0.591132 0.600000 0.902764
v 0.630769 0.600000 0.855769
v 0.667628 0.600000 0.805035
v 0.701282 0.600000 0.750908
v 0.731731 0.600000 0.693389
v 0.758974 0.600000 0.632478
v 0.783013 0.600000 0.568176
v 0.803846 0.600000 0.500481
v 0.821474 0.600000 0.429394
v 0.835897 0.600000 0.354914
v 0.847115 0.600000 0.277043
v 0.855128 0.600000 0.195780
v 0.859936 0.600000 0.111124
v 0.861538 0.600000 0.023077
v 0.859936 0.600000 -0.064971
v 0.855128 0.600000 -0.149626
v 0.847115 0.600000 -0.230890
v 0.835897 0.600000 -0.308761
v 0.821474 0.600000 -0.383240
v 0.803846 0.600000 -0.454327
v 0.783013 0.600000 -0.522022
v 0.758974 0.600000 -0.586325
v 0.731731 0.600000 -0.647236
v 0.701282 0.600000 -0.704754
v 0.667628 0.600000 -0.758881
v 0.630769 0.600000 -0.809616
v 0.591132 0.600000 -0.856611
v 0.549145 0.600000 -0.899519
v 0.504808 0.600000 -0.938341
v 0.458120 0.600000 -0.973077
v 0.409081 0.600000 -1.003726
v 0.357692 0.600000 -1.030289
v 0.303953 0.600000 -1.052765
v 0.247863 0.600000 -1.071154
v 0.189423 0.600000 -1.085457
v 0.128633 0.600000 -1.095673
v 0.065492 0.600000 -1.101803
v 0.000000 0.600000 -1.103846
v -0.065491 0.600000 -1.101803
v -0.128632 0.600000 -1.095673
v -0.189423 0.600000 -1.085457
v -0.247863 0.600000 -1.071154
v -0.303953 0.600000 -1.052765
v -0.357692 0.600000 -1.030289
v -0.409081 0.600000 -1.003726
v -0.458120 0.600000 -0.973077
v -0.504808 0.600000 -0.938341
v -0.549145 0.600000 -0.899519
v -0.591132 0.600000 -0.856611
v -0.630769 0.600000 -0.809616
v -0.667628 0.600000 -0.758881
v -0.701282 0.600000 -0.704754
v -0.731731 0.600000 -0.647236
v -0.758974 0.600000 -0.586325
v -0.783013 0.600000 -0.522022
v -0.803846 0.600000 -0.454327
v -0.821474 0.600000 -0.383240
v -0.835898 0.600000 -0.308761
v -0.847115 0.600000 -0.230890
v -0.855128 0.600000 -0.149626
v -0.859936 0.600000 -0.064971
v -0.861539 0.600000 0.023077
v -0.859936 0.600000 0.111124
v -0.855128 0.600000 0.195780
v -0.847115 0.600000 0.277043
v -0.835897 0.600000 0.354914
v -0.821474 0.600000 0.429394
v -0.803846 0.600000 0.500481
v -0.783013 0.600000 0.568176
v -0.758974 0.600000 0.632479
v -0.731731 0.600000 0.693389
v -0.701282 0.600000 0.750908
v -0.667628 0.600000 0.805035
v -0.630769 0.600000 0.855769
v -0.591133 0.600000 0.902764
v -0.549145 0.600000 0.945673
v -0.504808 0.600000 0.984495
v -0.458120 0.600000 1.019231
v -0.409081 0.600000 1.049880
v -0.357692 0.600000 1.076442
v -0.303953 0.600000 1.098918
v -0.247863 0.600000 1.117308
v -0.189423 0.600000 1.131611
v -0.128632 0.600000 1.141827
v -0.065491 0.600000 1.147957
v 0.000000 0.000000 1.403846
v -0.055235 0.000000 1.402738
v -0.109402 0.000000 1.399412
v -0.162500 0.000000 1.393870
v -0.214530 0.000000 1.386111
v -0.265492 0.000000 1.376135
v -0.315385 0.000000 1.363942
v -0.364209 0.000000 1.349533
v -0.411966 0.000000 1.332906
v -0.458654 0.000000 1.314062
v -0.504274 0.000000 1.293002
v -0.548825 0.000000 1.269725
v -0.592308 0.000000 1.244231
v -0.634469 0.000000 1.216586
v -0.675053 0.000000 1.186859
v -0.714063 0.000000 1.155048
v -0.751496 0.000000 1.121154
v -0.787353 0.000000 1.085176
v -0.821635 0.000000 1.047115
v -0.854340 0.000000 1.006971
v -0.885470 0.000000 0.964743
v -0.915024 0.000000 0.920433
v -0.943002 0.000000 0.874038
v -0.969404 0.000000 0.825561
v -0.994231 0.000000 0.775000
v -1.017268 0.000000 0.722476
v -1.038301 0.000000 0.668109
v -1.057332 0.000000 0.611899
v -1.074359 0.000000 0.553846
v -1.089383 0.000000 0.493950
v -1.102404 0.000000 0.432211
v -1.113422 0.000000 0.368630
v -1.122436 0.000000 0.303205
v -1.129447 0.000000 0.235937
v -1.134455 0.000000 0.166827
v -1.137460 0.000000 0.095873
v -1.138462 0.000000 0.023077
v -1.137460 0.000000 -0.049720
v -1.134455 0.000000 -0.120673
v -1.129447 0.000000 -0.189784
v -1.122436 0.000000 -0.257051
v -1.113422 0.000000 -0.322476
v -1.102404 0.000000 -0.386058
v -1.089383 0.000000 -0.447797
v -1.074359 0.000000 -0.507692
v -1.057332 0.000000 -0.565745
v -1.038301 0.000000 -0.621955
v -1.017268 0.000000 -0.676322
v -0.994231 0.000000 -0.728846
v -0.969404 0.000000 -0.779407
v -0.943002 0.000000 -0.827885
v -0.915024 0.000000 -0.874279
v -0.885470 0.000000 -0.918590
v -0.854340 0.000000 -0.960817
v -0.821635 0.000000 -1.000962
v -0.787353 0.000000 -1.039023
v -0.751496 0.000000 -1.075000
v -0.714063 0.000000 -1.108894
v -0.675053 0.000000 -1.140705
v -0.634469 0.000000 -1.170433
v -0.592308 0.000000 -1.198077
v -0.548825 0.000000 -1.223571
v -0.504274 0.000000 -1.246848
v -0.458654 0.000000 -1.267909
v -0.411966 0.000000 -1.286752
v -0.364210 0.000000 -1.303379
v -0.315385 0.000000 -1.317789
v -0.265492 0.000000 -1.329981
v -0.214530 0.000000 -1.339957
v -0.162500 0.000000 -1.347717
v -0.109402 0.000000 -1.353259
v -0.055235 0.000000 -1.356584
v 0.000000 0.000000 -1.357692
v 0.055836 0.000000 -1.356597
v 0.110523 0.000000 -1.353312
v 0.164062 0.000000 -1.347837
v 0.216453 0.000000 -1.340171
v 0.267695 0.000000 -1.330315
v 0.317788 0.000000 -1.318269
v 0.366733 0.000000 -1.304033
v 0.414530 0.000000 -1.287607
v 0.461178 0.000000 -1.268991
v 0.506677 0.000000 -1.248184
v 0.551028 0.000000 -1.225187
v 0.594231 0.000000 -1.200000
v 0.636084 0.000000 -1.172650
v 0.676389 0.000000 -1.143162
v 0.715144 0.000000 -1.111539
v 0.752350 0.000000 -1.077778
v 0.788007 0.000000 -1.041880
v 0.822115 0.000000 -1.003846
v 0.854674 0.000000 -0.963675
v 0.885684 0.000000 -0.921368
v 0.915144 0.000000 -0.876923
v 0.943055 0.000000 -0.830342
v 0.969418 0.000000 -0.781624
v 0.994231 0.000000 -0.730769
v 1.017267 0.000000 -0.677938
v 1.038301 0.000000 -0.623291
v 1.057332 0.000000 -0.566827
v 1.074359 0.000000 -0.508547
v 1.089383 0.000000 -0.448451
v 1.102404 0.000000 -0.386539
v 1.113421 0.000000 -0.322810
v 1.122436 0.000000 -0.257265
v 1.129447 0.000000 -0.189904
v 1.134455 0.000000 -0.120727
v 1.137460 0.000000 -0.049733
v 1.138462 0.000000 0.023077
v 1.137460 0.000000 0.095887
v 1.134455 0.000000 0.166880
v 1.129447 0.000000 0.236058
v 1.122436 0.000000 0.303419
v 1.113422 0.000000 0.368964
v 1.102404 0.000000 0.432692
v 1.089383 0.000000 0.494605
v 1.074359 0.000000 0.554701
v 1.057332 0.000000 0.612981
v 1.038301 0.000000 0.669444
v 1.017268 0.000000 0.724092
v 0.994231 0.000000 0.776923
v 0.969418 0.000000 0.827778
v 0.943055 0.000000 0.876496
v 0.915144 0.000000 0.923077
v 0.885684 0.000000 0.967521
v 0.854674 0.000000 1.009829
v 0.822115 0.000000 1.050000
v 0.788007 0.000000 1.088034
v 0.752350 0.000000 1.123931
v 0.715144 0.000000 1.157692
v 0.676389 0.000000 1.189316
v 0.636084 0.000000 1.218803
v 0.594231 0.000000 1.246154
v 0.551028 0.000000 1.271341
v 0.506677 0.000000 1.294338
v 0.461178 0.000000 1.315144
v 0.414530 0.000000 1.333761
v 0.366733 0.000000 1.350187
v 0.317788 0.000000 1.364423
v 0.267695 0.000000 1.376469
v 0.216453 0.000000 1.386325
v 0.164062 0.000000 1.393990
v 0.110523 0.000000 1.399466
v 0.055836 0.000000 1.402751
v 0.000000 0.000000 1.150000
v 0.065491 0.000000 1.147957
v 0.128632 0.000000 1.141827
v 0.189423 0.000000 1.131611
v 0.247863 0.000000 1.117308
v 0.303953 0.000000 1.098918
v 0.357692 0.000000 1.076442
v 0.409081 0.000000 1.049880
v 0.458120 0.000000 1.019231
v 0.504808 0.000000 0.984495
v 0.549145 0.000000 0.945673
v 0.591132 0.000000 0.902764
v 0.630769 0.000000 0.855769
v 0.667628 0.000000 0.805035
v 0.701282 0.000000 0.750908
v 0.731731 0.000000 0.693389
v 0.758974 0.000000 0.632478
v 0.783013 0.000000 0.568176
v 0.803846 0.000000 0.500481
v 0.821474 0.000000 0.429394
v 0.835897 0.000000 0.354914
v 0.847115 0.000000 0.277043
v 0.855128 0.000000 0.195780
v 0.859936 0.000000 0.111124
v 0.861538 0.000000 0.023077
v 0.859936 0.000000 -0.064971
v 0.855128 0.000000 -0.149626
v 0.847115 0.000000 -0.230890
v 0.835897 0.000000 -0.308761
v 0.821474 0.000000 -0.383240
v 0.803846 0.000000 -0.454327
v 0.783013 0.000000 -0.522022
v 0.758974 0.000000 -0.586325
v 0.731731 0.000000 -0.647236
v 0.701282 0.000000 -0.704754
v 0.667628 0.000000 -0.758881
v 0.630769 0.000000 -0.809616
v 0.591132 0.000000 -0.856611
v 0.549145 0.000000 -0.899519
v 0.504808 0.000000 -0.938341
v 0.458120 0.000000 -0.973077
v 0.409081 0.000000 -1.003726
v 0.357692 0.000000 -1.030289
v 0.303953 0.000000 -1.052765
v 0.247863 0.000000 -1.071154
v 0.189423 0.000000 -1.085457
v 0.128633 0.000000 -1.095673
v 0.065492 0.000000 -1.101803
v 0.000000 0.000000 -1.103846
v -0.065491 0.000000 -1.101803
v -0.128632 0.000000 -1.095673
v -0.189423 0.000000 -1.085457
v -0.247863 0.000000 -1.071154
v -0.303953 0.000000 -1.052765
v -0.357692 0.000000 -1.030289
v -0.409081 0.000000 -1.003726
v -0.458120 0.000000 -0.973077
v -0.504808 0.000000 -0.938341
v -0.549145 0.000000 -0.899519
v -0.591132 0.000000 -0.856611
v -0.630769 0.000000 -0.809616
v -0.667628 0.000000 -0.758881
v -0.701282 0.000000 -0.704754
v -0.731731 0.000000 -0.647236
v -0.758974 0.000000 -0.586325
v -0.783013 0.000000 -0.522022
v -0.803846 0.000000 -0.454327
v -0.821474 0.000000 -0.383240
v -0.835898 0.000000 -0.308761
v -0.847115 0.000000 -0.230890
v -0.855128 0.000000 -0.149626
v -0.859936 0.000000 -0.064971
v -0.861539 0.000000 0.023077
v -0.859936 0.000000 0.111124
v -0.855128 0.000000 0.195780
v -0.847115 0.000000 0.277043
v -0.835897 0.000000 0.354914
v -0.821474 0.000000 0.429394
v -0.803846 0.000000 0.500481
v -0.783013 0.000000 0.568176
v -0.758974 0.000000 0.632479
v -0.731731 0.000000 0.693389
v -0.701282 0.000000 0.750908
v -0.667628 0.000000 0.805035
v -0.630769 0.000000 0.855769
v -0.591133 0.000000 0.902764
v -0.549145 0.000000 0.945673
v -0.504808 0.000000 0.984495
v -0.458120 0.000000 1.019231
v -0.409081 0.000000 1.049880
v -0.357692 0.000000 1.076442
v -0.303953 0.000000 1.098918
v -0.247863 0.000000 1.117308
v -0.189423 0.000000 1.131611
v -0.128632 0.000000 1.141827
v -0.065491 0.000000 1.147957
v 0.000000 0.000000 1.403846
v 0.000000 0.600000 1.403846
v -0.055235 0.000000 1.402738
v -0.055235 0.600000 1.402738
v -0.109402 0.000000 1.399412
v -0.109402 0.600000 1.399412
v -0.162500 0.000000 1.393870
v -0.162500 0.600000 1.393870
v -0.214530 0.000000 1.386111
v -0.214530 0.600000 1.386111
v -0.265492 0.000000 1.376135
v -0.265492 0.600000 1.376135
v -0.315385 0.000000 1.363942
v -0.315385 0.600000 1.363942
v -0.364209 0.000000 1.349533
v -0.364209 0.600000 1.349533
v -0.411966 0.000000 1.332906
v -0.411966 0.600000 1.332906
v -0.458654 0.000000 1.314062
v -0.458654 0.600000 1.314062
v -0.504274 0.000000 1.293002
v -0.504274 0.600000 1.293002
v -0.548825 0.000000 1.269725
v -0.548825 0.600000 1.269725
v -0.592308 0.000000 1.244231
v -0.592308 0.600000 1.244231
v -0.634469 0.000000 1.216586
v -0.634469 0.600000 1.216586
v -0.675053 0.000000 1.186859
v -0.675053 0.600000 1.186859
v -0.714063 0.000000 1.155048
v -0.714063 0.600000 1.155048
v -0.751496 0.000000 1.121154
v -0.751496 0.600000 1.121154
v -0.787353 0.000000 1.085176
v -0.787353 0.600000 1.085176
v -0.821635 0.000000 1.047115
v -0.821635 0.600000 1.047115
v -0.854340 0.000000 1.006971
v -0.854340 0.600000 1.006971
v -0.885470 0.000000 0.964743
v -0.885470 0.600000 0.964743
v -0.915024 0.000000 0.920433
v -0.915024 0.600000 0.920433
v -0.943002 0.000000 0.874038
v -0.943002 0.600000 0.874038
v -0.969404 0.000000 0.825561
v -0.969404 0.600000 0.825561
v -0.994231 0.000000 0.775000
v -0.994231 0.600000 0.775000
v -1.017268 0.000000 0.722476
v -1.017268 0.600000 0.722476
v -1.038301 0.000000 0.668109
v -1.038301 0.600000 0.668109
v -1.057332 0.000000 0.611899
v -1.057332 0.600000 0.611899
v -1.074359 0.000000 0.553846
v -1.074359 0.600000 0.553846
v -1.089383 0.000000 0.493950
v -1.089383 0.600000 0.493950
v -1.102404 0.000000 0.432211
v -1.102404 0.600000 0.432211
v -1.113422 0.000000 0.368630
v -1.113422 0.600000 0.368630
v -1.122436 0.000000 0.303205
v -1.122436 0.600000 0.303205
v -1.129447 0.000000 0.235937
v -1.129447 0.600000 0.235937
v -1.134455 0.000000 0.166827
v -1.134455 0.600000 0.166827
v -1.137460 0.000000 0.095873
v -1.137460 0.600000 0.095873
v -1.138462 0.000000 0.023077
v -1.138462 0.600000 0.023077
v -1.137460 0.000000 -0.049720
v -1.137460 0.600000 -0.049720
v -1.134455 0.000000 -0.120673
v -1.134455 0.600000 -0.120673
v -1.129447 0.000000 -0.189784
v -1.129447 0.600000 -0.189784
v -1.122436 0.000000 -0.257051
v -1.122436 0.600000 -0.257051
v -1.113422 0.000000 -0.322476
v -1.113422 0.600000 -0.322476
v -1.102404 0.000000 -0.386058
v -1.102404 0.600000 -0.386058
v -1.089383 0.000000 -0.447797
v -1.089383 0.600000 -0.447797
v -1.074359 0.000000 -0.507692
v -1.074359 0.600000 -0.507692
v -1.057332 0.000000 -0.565745
v -1.057332 0.600000 -0.565745
v -1.038301 0.000000 -0.621955
v -1.038301 0.600000 -0.621955
v -1.017268 0.000000 -0.676322
v -1.017268 0.600000 -0.676322
v -0.994231 0.000000 -0.728846
v -0.994231 0.600000 -0.728846
v -0.969404 0.000000 -0.779407
v -0.969404 0.600000 -0.779407
v -0.943002 0.000000 -0.827885
v -0.943002 0.600000 -0.827885
v -0.915024 0.000000 -0.874279
v -0.915024 0.600000 -0.874279
v -0.885470 0.000000 -0.918590
v -0.885470 0.600000 -0.918590
v -0.854340 0.000000 -0.960817
v -0.854340 0.600000 -0.960817
v -0.821635 0.000000 -1.000962
v -0.821635 0.600000 -1.000962
v -0.787353 0.000000 -1.039023
v -0.787353 0.600000 -1.039023
v -0.751496 0.000000 -1.075000
v -0.751496 0.600000 -1.075000
v -0.714063 0.000000 -1.108894
v -0.714063 0.600000 -1.108894
v -0.675053 0.000000 -1.140705
v -0.675053 0.600000 -1.140705
v -0.634469 0.000000 -1.170433
v -0.634469 0.600000 -1.170433
v -0.592308 0.000000 -1.198077
v -0.592308 0.600000 -1.198077
v -0.548825 0.000000 -1.223571
v -0.548825 0.600000 -1.223571
v -0.504274 0.000000 -1.246848
v -0.504274 0.600000 -1.246848
v -0.458654 0.000000 -1.267909
v -0.458654 0.600000 -1.267909
v -0.411966 0.000000 -1.286752
v -0.411966 0.600000 -1.286752
v -0.364210 0.000000 -1.303379
v -0.364210 0.600000 -1.303379
v -0.315385 0.000000 -1.317789
v -0.315385 0.600000 -1.317789
v -0.265492 0.000000 -1.329981
v -0.265492 0.600000 -1.329981
v -0.214530 0.000000 -1.339957
v -0.214530 0.600000 -1.339957
v -0.162500 0.000000 -1.347717
v -0.162500 0.600000 -1.347717
v -0.109402 0.000000 -1.353259
v -0.109402 0.600000 -1.353259
v -0.055235 0.000000 -1.356584
v -0.055235 0.600000 -1.356584
v 0.000000 0.000000 -1.357692
v 0.000000 0.600000 -1.357692
v 0.055836 0.000000 -1.356597
v 0.055836 0.600000 -1.356597
v 0.110523 0.000000 -1.353312
v 0.110523 0.600000 -1.353312
v 0.164062 0.000000 -1.347837
v 0.164062 0.600000 -1.347837
v 0.216453 0.000000 -1.340171
v 0.216453 0.600000 -1.340171
v 0.267695 0.000000 -1.330315
v 0.267695 0.600000 -1.330315
v 0.317788 0.000000 -1.318269
v 0.317788 0.600000 -1.318269
v 0.366733 0.000000 -1.304033
v 0.366733 0.600000 -1.304033
v 0.414530 0.000000 -1.287607
v 0.414530 0.600000 -1.287607
v 0.461178 0.000000 -1.268991
v 0.461178 0.600000 -1.268991
v 0.506677 0.000000 -1.248184
v 0.506677 0.600000 -1.248184
v 0.551028 0.000000 -1.225187
v 0.551028 0.600000 -1.225187
v 0.594231 0.000000 -1.200000
v 0.594231 0.600000 -1.200000
v 0.636084 0.000000 -1.172650
v 0.636084 0.600000 -1.172650
v 0.676389 0.000000 -1.143162
v 0.676389 0.600000 -1.143162
v 0.715144 0.000000 -1.111539
v 0.715144 0.600000 -1.111539
v 0.752350 0.000000 -1.077778
v 0.752350 0.600000 -1.077778
v 0.788007 0.000000 -1.041880
v 0.788007 0.600000 -1.041880
v 0.822115 0.000000 -1.003846
v 0.822115 0.600000 -1.003846
v 0.854674 0.000000 -0.963675
v 0.854674 0.600000 -0.963675
v 0.885684 0.000000 -0.921368
v 0.885684 0.600000 -0.921368
v 0.915144 0.000000 -0.876923
v 0.915144 0.600000 -0.876923
v 0.943055 0.000000 -0.830342
v 0.943055 0.600000 -0.830342
v 0.969418 0.000000 -0.781624
v 0.969418 0.600000 -0.781624
v 0.994231 0.000000 -0.730769
v 0.994231 0.600000 -0.730769
v 1.017267 0.000000 -0.677938
v 1.017267 0.600000 -0.677938
v 1.038301 0.000000 -0.623291
v 1.038301 0.600000 -0.623291
v 1.057332 0.000000 -0.566827
v 1.057332 0.600000 -0.566827
v 1.074359 0.000000 -0.508547
v 1.074359 0.600000 -0.508547
v 1.089383 0.000000 -0.448451
v 1.089383 0.600000 -0.448451
v 1.102404 0.000000 -0.386539
v 1.102404 0.600000 -0.386539
v 1.113421 0.000000 -0.322810
v 1.113421 0.600000 -0.322810
v 1.122436 0.000000 -0.257265
v 1.122436 0.600000 -0.257265
v 1.129447 0.000000 -0.189904
v 1.129447 0.600000 -0.189904
v 1.134455 0.000000 -0.120727
v 1.134455 0.600000 -0.120727
v 1.137460 0.000000 -0.049733
v 1.137460 0.600000 -0.049733
v 1.138462 0.000000 0.023077
v 1.138462 0.600000 0.023077
v 1.137460 0.000000 0.095887
v 1.137460 0.600000 0.095887
v 1.134455 0.000000 0.166880
v 1.134455 0.600000 0.166880
v 1.129447 0.000000 0.236058
v 1.129447 0.600000 0.236058
v 1.122436 0.000000 0.303419
v 1.122436 0.600000 0.303419
v 1.113422 0.000000 0.368964
v 1.113422 0.600000 0.368964
v 1.102404 0.000000 0.432692
v 1.102404 0.600000 0.432692
v 1.089383 0.000000 0.494605
v 1.089383 0.600000 0.494605
v 1.074359 0.000000 0.554701
v 1.074359 0.600000 0.554701
v 1.057332 0.000000 0.612981
v 1.057332 0.600000 0.612981
v 1.038301 0.000000 0.669444
v 1.038301 0.600000 0.669444
v 1.017268 0.000000 0.724092
v 1.017268 0.600000 0.724092
v 0.994231 0.000000 0.776923
v 0.994231 0.600000 0.776923
v 0.969418 0.000000 0.827778
v 0.969418 0.600000 0.827778
v 0.943055 0.000000 0.876496
v 0.943055 0.600000 0.876496
v 0.915144 0.000000 0.923077
v 0.915144 0.600000 0.923077
v 0.885684 0.000000 0.967521
v 0.885684 0.600000 0.967521
v 0.854674 0.000000 1.009829
v 0.854674 0.600000 1.009829
v 0.822115 0.000000 1.050000
v 0.822115 0.600000 1.050000
v 0.788007 0.000000 1.088034
v 0.788007 0.600000 1.088034
v 0.752350 0.000000 1.123931
v 0.752350 0.600000 1.123931
v 0.715144 0.000000 1.157692
v 0.715144 0.600000 1.157692
v 0.676389 0.000000 1.189316
v 0.676389 0.600000 1.189316
v 0.636084 0.000000 1.218803
v 0.636084 0.600000 1.218803
v 0.594231 0.000000 1.246154
v 0.594231 0.600000 1.246154
v 0.551028 0.000000 1.271341
v 0.551028 0.600000 1.271341
v 0.506677 0.000000 1.294338
v 0.506677 0.600000 1.294338
v 0.461178 0.000000 1.315144
v 0.461178 0.600000 1.315144
v 0.414530 0.000000 1.333761
v 0.414530 0.600000 1.333761
v 0.366733 0.000000 1.350187
v 0.366733 0.600000 1.350187
v 0.317788 0.000000 1.364423
v 0.317788 0.600000 1.364423
v 0.267695 0.000000 1.376469
v 0.267695 0.600000 1.376469
v 0.216453 0.000000 1.386325
v 0.216453 0.600000 1.386325
v 0.164062 0.000000 1.393990
v 0.164062 0.600000 1.393990
v 0.110523 0.000000 1.399466
v 0.110523 0.600000 1.399466
v 0.055836 0.000000 1.402751
v 0.055836 0.600000 1.402751
v 0.000000 0.000000 1.150000
v 0.000000 0.600000 1.150000
v 0.065491 0.000000 1.147957
v 0.065491 0.600000 1.147957
v 0.128632 0.000000 1.141827
v 0.128632 0.600000 1.141827
v 0.189423 0.000000 1.131611
v 0.189423 0.600000 1.131611
v 0.247863 0.000000 1.117308
v 0.247863 0.600000 1.117308
v 0.303953 0.000000 1.098918
v 0.303953 0.600000 1.098918
v 0.357692 0.000000 1.076442
v 0.357692 0.600000 1.076442
v 0.409081 0.000000 1.049880
v 0.409081 0.600000 1.049880
v 0.458120 0.000000 1.019231
v 0.458120 0.600000 1.019231
v 0.504808 0.000000 0.984495
v 0.504808 0.600000 0.984495
v 0.549145 0.000000 0.945673
v 0.549145 0.600000 0.945673
v 0.591132 0.000000 0.902764
v 0.591132 0.600000 0.902764
v 0.630769 0.000000 0.855769
v 0.630769 0.600000 0.855769
v 0.667628 0.000000 0.805035
v 0.667628 0.600000 0.805035
v 0.701282 0.000000 0.750908
v 0.701282 0.600000 0.750908
v 0.731731 0.000000 0.693389
v 0.731731 0.600000 0.693389
v 0.758974 0.000000 0.632478
v 0.758974 0.600000 0.632478
v 0.783013 0.000000 0.568176
v 0.783013 0.600000 0.568176
v 0.803846 0.000000 0.500481
v 0.803846 0.600000 0.500481
v 0.821474 0.000000 0.429394
v 0.821474 0.600000 0.429394
v 0.835897 0.000000 0.354914
v 0.835897 0.600000 0.354914
v 0.847115 0.000000 0.277043
v 0.847115 0.600000 0.277043
v 0.855128 0.000000 0.195780
v 0.855128 0.600000 0.195780
v 0.859936 0.000000 0.111124
v 0.859936 0.600000 0.111124
v 0.861538 0.000000 0.023077
v 0.861538 0.600000 0.023077
v 0.859936 0.000000 -0.064971
v 0.859936 0.600000 -0.064971
v 0.855128 0.000000 -0.149626
v 0.855128 0.600000 -0.149626
v 0.847115 0.000000 -0.230890
v 0.847115 0.600000 -0.230890
v 0.835897 0.000000 -0.308761
v 0.835897 0.600000 -0.308761
v 0.821474 0.000000 -0.383240
v 0.821474 0.600000 -0.383240
v 0.803846 0.000000 -0.454327
v 0.803846 0.600000 -0.454327
v 0.783013 0.000000 -0.522022
v 0.783013 0.600000 -0.522022
v 0.758974 0.000000 -0.586325
v 0.758974 0.600000 -0.586325
v 0.731731 0.000000 -0.647236
v 0.731731 0.600000 -0.647236
v 0.701282 0.000000 -0.704754
v 0.701282 0.600000 -0.704754
v 0.667628 0.000000 -0.758881
v 0.667628 0.600000 -0.758881
v 0.630769 0.000000 -0.809616
v 0.630769 0.600000 -0.809616
v 0.591132 0.000000 -0.856611
v 0.591132 0.600000 -0.856611
v 0.549145 0.000000 -0.899519
v 0.549145 0.600000 -0.899519
v 0.504808 0.000000 -0.938341
v 0.504808 0.600000 -0.938341
v 0.458120 0.000000 -0.973077
v 0.458120 0.600000 -0.973077
v 0.409081 0.000000 -1.003726
v 0.409081 0.600000 -1.003726
v 0.357692 0.000000 -1.030289
v 0.357692 0.600000 -1.030289
v 0.303953 0.000000 -1.052765
v 0.303953 0.600000 -1.052765
v 0.247863 0.000000 -1.071154
v 0.247863 0.600000 -1.071154
v 0.189423 0.000000 -1.085457
v 0.189423 0.600000 -1.085457
v 0.128633 0.000000 -1.095673
v 0.128633 0.600000 -1.095673
v 0.065492 0.000000 -1.101803
v 0.065492 0.600000 -1.101803
v 0.000000 0.000000 -1.103846
v 0.000000 0.600000 -1.103846
v -0.065491 0.000000 -1.101803
v -0.065491 0.600000 -1.101803
v -0.128632 0.000000 -1.095673
v -0.128632 0.600000 -1.095673
v -0.189423 0.000000 -1.085457
v -0.189423 0.600000 -1.085457
v -0.247863 0.000000 -1.071154
v -0.247863 0.600000 -1.071154
v -0.303953 0.000000 -1.052765
v -0.303953 0.600000 -1.052765
v -0.357692 0.000000 -1.030289
v -0.357692 0.600000 -1.030289
v -0.409081 0.000000 -1.003726
v -0.409081 0.600000 -1.003726
v -0.458120 0.000000 -0.973077
v -0.458120 0.600000 -0.973077
v -0.504808 0.000000 -0.938341
v -0.504808 0.600000 -0.938341
v -0.549145 0.000000 -0.899519
v -0.549145 0.600000 -0.899519
v -0.591132 0.000000 -0.856611
v -0.591132 0.600000 -0.856611
v -0.630769 0.000000 -0.809616
v -0.630769 0.600000 -0.809616
v -0.667628 0.000000 -0.758881
v -0.667628 0.600000 -0.758881
v -0.701282 0.000000 -0.704754
v -0.701282 0.600000 -0.704754
v -0.731731 0.000000 -0.647236
v -0.731731 0.600000 -0.647236
v -0.758974 0.000000 -0.586325
v -0.758974 0.600000 -0.586325
v -0.783013 0.000000 -0.522022
v -0.783013 0.600000 -0.522022
v -0.803846 0.000000 -0.454327
v -0.803846 0.600000 -0.454327
v -0.821474 0.000000 -0.383240
v -0.821474 0.600000 -0.383240
v -0.835898 0.000000 -0.308761
v -0.835898 0.600000 -0.308761
v -0.847115 0.000000 -0.230890
v -0.847115 0.600000 -0.230890
v -0.855128 0.000000 -0.149626
v -0.855128 0.600000 -0.149626
v -0.859936 0.000000 -0.064971
v -0.859936 0.600000 -0.064971
v -0.861539 0.000000 0.023077
v -0.861539 0.600000 0.023077
v -0.859936 0.000000 0.111124
v -0.859936 0.600000 0.111124
v -0.855128 0.000000 0.195780
v -0.855128 0.600000 0.195780
v -0.847115 0.000000 0.277043
v -0.847115 0.600000 0.277043
v -0.835897 0.000000 0.354914
v -0.835897 0.600000 0.354914
v -0.821474 0.000000 0.429394
v -0.821474 0.600000 0.429394
v -0.803846 0.000000 0.500481
v -0.803846 0.600000 0.500481
v -0.783013 0.000000 0.568176
v -0.783013 0.600000 0.568176
v -0.758974 0.000000 0.632479
v -0.758974 0.600000 0.632479
v -0.731731 0.000000 0.693389
v -0.731731 0.600000 0.693389
v -0.701282 0.000000 0.750908
v -0.701282 0.600000 0.750908
v -0.667628 0.000000 0.805035
v -0.667628 0.600000 0.805035
v -0.630769 0.000000 0.855769
v -0.630769 0.600000 0.855769
v -0.591133 0.000000 0.902764
v -0.591133 0.600000 0.902764
v -0.549145 0.000000 0.945673
v -0.549145 0.600000 0.945673
v -0.504808 0.000000 0.984495
v -0.504808 0.600000 0.984495
v -0.458120 0.000000 1.019231
v -0.458120 0.600000 1.019231
v -0.409081 0.000000 1.049880
v -0.409081 0.600000 1.049880
v -0.357692 0.000000 1.076442
v -0.357692 0.600000 1.076442
v -0.303953 0.000000 1.098918
v -0.303953 0.600000 1.098918
v -0.247863 0.000000 1.117308
v -0.247863 0.600000 1.117308
v -0.189423 0.000000 1.131611
v -0.189423 0.600000 1.131611
v -0.128632 0.000000 1.141827
v -0.128632 0.600000 1.141827
v -0.065491 0.000000 1.147957
v -0.065491 0.600000 1.147957
vn -0.0000 1.0000 -0.0000
vn -0.0000 -1.0000 -0.0000
vn -0.0002 -0.0000 1.0000
vn -0.0407 -0.0000 0.9992
vn -0.0826 -0.0000 0.9966
vn -0.1257 -0.0000 0.9921
vn -0.1698 -0.0000 0.9855
vn -0.2148 -0.0000 0.9767
vn -0.2603 -0.0000 0.9655
vn -0.3060 -0.0000 0.9520
vn -0.3516 -0.0000 0.9361
vn -0.3968 -0.0000 0.9179
vn -0.4412 -0.0000 0.8974
vn -0.4846 -0.0000 0.8747
vn -0.5272 -0.0000 0.8497
vn -0.5698 -0.0000 0.8218
vn -0.6117 -0.0000 0.7911
vn -0.6518 -0.0000 0.7584
vn -0.6900 -0.0000 0.7238
vn -0.7259 -0.0000 0.6878
vn -0.7594 -0.0000 0.6506
vn -0.7903 -0.0000 0.6127
vn -0.8187 -0.0000 0.5743
vn -0.8444 -0.0000 0.5358
vn -0.8675 -0.0000 0.4975
vn -0.8881 -0.0000 0.4596
vn -0.9069 -0.0000 0.4213
vn -0.9244 -0.0000 0.3813
vn -0.9401 -0.0000 0.3408
vn -0.9536 -0.0000 0.3011
vn -0.9650 -0.0000 0.2624
vn -0.9744 -0.0000 0.2249
vn -0.9821 -0.0000 0.1886
vn -0.9881 -0.0000 0.1536
vn -0.9928 -0.0000 0.1201
vn -0.9961 -0.0000 0.0880
vn -0.9984 -0.0000 0.0573
vn -0.9996 -0.0000 0.0280
vn -1.0000 -0.0000 -0.0000
vn -0.9996 -0.0000 -0.0280
vn -0.9984 -0.0000 -0.0573
vn -0.9961 -0.0000 -0.0880
vn -0.9928 -0.0000 -0.1201
vn -0.9881 -0.0000 -0.1536
vn -0.9821 -0.0000 -0.1886
vn -0.9744 -0.0000 -0.2249
vn -0.9650 -0.0000 -0.2624
vn -0.9536 -0.0000 -0.3011
vn -0.9401 -0.0000 -0.3408
vn -0.9244 -0.0000 -0.3813
vn -0.9069 -0.0000 -0.4213
vn -0.8881 -0.0000 -0.4596
vn -0.8675 -0.0000 -0.4975
vn -0.8444 -0.0000 -0.5358
vn -0.8187 -0.0000 -0.5743
vn -0.7903 -0.0000 -0.6127
vn -0.7594 -0.0000 -0.6506
vn -0.7259 -0.0000 -0.6878
vn -0.6900 -0.0000 -0.7238
vn -0.6518 -0.0000 -0.7584
vn -0.6117 -0.0000 -0.7911
vn -0.5698 -0.0000 -0.8218
vn -0.5272 -0.0000 -0.8497
vn -0.4846 -0.0000 -0.8747
vn -0.4412 -0.0000 -0.8974
vn -0.3968 -0.0000 -0.9179
vn -0.3516 -0.0000 -0.9361
vn -0.3060 -0.0000 -0.9520
vn -0.2603 -0.0000 -0.9655
vn -0.2148 -0.0000 -0.9767
vn -0.1698 -0.0000 -0.9855
vn -0.1257 -0.0000 -0.9921
vn -0.0826 -0.0000 -0.9966
vn -0.0407 -0.0000 -0.9992
vn -0.0002 -0.0000 -1.0000
vn 0.0398 -0.0000 -0.9992
vn 0.0809 -0.0000 -0.9967
vn 0.1233 -0.0000 -0.9924
vn 0.1669 -0.0000 -0.9860
vn 0.2114 -0.0000 -0.9774
vn 0.2566 -0.0000 -0.9665
vn 0.3022 -0.0000 -0.9532
vn 0.3479 -0.0000 -0.9375
vn 0.3934 -0.0000 -0.9194
vn 0.4382 -0.0000 -0.8989
vn 0.4821 -0.0000 -0.8761
vn 0.5255 -0.0000 -0.8508
vn 0.5689 -0.0000 -0.8224
vn 0.6116 -0.0000 -0.7912
vn 0.6523 -0.0000 -0.7579
vn 0.6910 -0.0000 -0.7229
vn 0.7272 -0.0000 -0.6864
vn 0.7609 -0.0000 -0.6488
vn 0.7919 -0.0000 -0.6106
vn 0.8203 -0.0000 -0.5720
vn 0.8459 -0.0000 -0.5334
vn 0.8689 -0.0000 -0.4951
vn 0.8893 -0.0000 -0.4573
vn 0.9079 -0.0000 -0.4192
vn 0.9252 -0.0000 -0.3795
vn 0.9407 -0.0000 -0.3394
vn 0.9539 -0.0000 -0.3000
vn 0.9652 -0.0000 -0.2615
vn 0.9745 -0.0000 -0.2242
vn 0.9821 -0.0000 -0.1881
vn 0.9882 -0.0000 -0.1533
vn 0.9928 -0.0000 -0.1199
vn 0.9961 -0.0000 -0.0879
vn 0.9984 -0.0000 -0.0573
vn 0.9996 -0.0000 -0.0280
vn 1.0000 -0.0000 -0.0000
vn 0.9996 -0.0000 0.0280
vn 0.9984 -0.0000 0.0573
vn 0.9961 -0.0000 0.0879
vn 0.9928 -0.0000 0.1199
vn 0.9882 -0.0000 0.1533
vn 0.9821 -0.0000 0.1881
vn 0.9745 -0.0000 0.2242
vn 0.9652 -0.0000 0.2615
vn 0.9539 -0.0000 0.3000
vn 0.9407 -0.0000 0.3394
vn 0.9252 -0.0000 0.3795
vn 0.9079 -0.0000 0.4192
vn 0.8893 -0.0000 0.4573
vn 0.8689 -0.0000 0.4951
vn 0.8459 -0.0000 0.5334
vn 0.8203 -0.0000 0.5720
vn 0.7919 -0.0000 0.6106
vn 0.7609 -0.0000 0.6488
vn 0.7272 -0.0000 0.6864
vn 0.6910 -0.0000 0.7229
vn 0.6523 -0.0000 0.7579
vn 0.6116 -0.0000 0.7912
vn 0.5689 -0.0000 0.8224
vn 0.5255 -0.0000 0.8508
vn 0.4821 -0.0000 0.8761
vn 0.4382 -0.0000 0.8989
vn 0.3934 -0.0000 0.9194
vn 0.3479 -0.0000 0.9375
vn 0.3022 -0.0000 0.9532
vn 0.2566 -0.0000 0.9665
vn 0.2114 -0.0000 0.9774
vn 0.1669 -0.0000 0.9860
vn 0.1233 -0.0000 0.9924
vn 0.0809 -0.0000 0.9967
vn 0.0398 -0.0000 0.9992
vn -0.0000 -0.0000 -1.0000
vn -0.0639 -0.0000 -0.9980
vn -0.1313 -0.0000 -0.9913
vn -0.2019 -0.0000 -0.9794
vn -0.2748 -0.0000 -0.9615
vn -0.3490 -0.0000 -0.9371
vn -0.4229 -0.0000 -0.9062
vn -0.4950 -0.0000 -0.8689
vn -0.5639 -0.0000 -0.8258
vn -0.6283 -0.0000 -0.7779
vn -0.6873 -0.0000 -0.7264
vn -0.7401 -0.0000 -0.6725
vn -0.7872 -0.0000 -0.6166
vn -0.8297 -0.0000 -0.5583
vn -0.8670 -0.0000 -0.4982
vn -0.8988 -0.0000 -0.4383
vn -0.9252 -0.0000 -0.3794
vn -0.9466 -0.0000 -0.3223
vn -0.9636 -0.0000 -0.2675
vn -0.9765 -0.0000 -0.2155
vn -0.9861 -0.0000 -0.1664
vn -0.9927 -0.0000 -0.1204
vn -0.9970 -0.0000 -0.0774
vn -0.9993 -0.0000 -0.0375
vn -0.9993 -0.0000 0.0375
vn -0.9970 -0.0000 0.0774
vn -0.9927 -0.0000 0.1204
vn -0.9861 -0.0000 0.1664
vn -0.9765 -0.0000 0.2155
vn -0.9636 -0.0000 0.2675
vn -0.9466 -0.0000 0.3223
vn -0.9252 -0.0000 0.3794
vn -0.8988 -0.0000 0.4383
vn -0.8670 -0.0000 0.4982
vn -0.8297 -0.0000 0.5583
vn -0.7872 -0.0000 0.6166
vn -0.7401 -0.0000 0.6725
vn -0.6873 -0.0000 0.7264
vn -0.6283 -0.0000 0.7779
vn -0.5639 -0.0000 0.8258
vn -0.4950 -0.0000 0.8689
vn -0.4229 -0.0000 0.9062
vn -0.3490 -0.0000 0.9371
vn -0.2748 -0.0000 0.9615
vn -0.2019 -0.0000 0.9794
vn -0.1313 -0.0000 0.9913
vn -0.0639 -0.0000 0.9980
vn -0.0000 -0.0000 1.0000
vn 0.0639 -0.0000 0.9980
vn 0.1313 -0.0000 0.9913
vn 0.2019 -0.0000 0.9794
vn 0.2748 -0.0000 0.9615
vn 0.3490 -0.0000 0.9371
vn 0.4229 -0.0000 0.9062
vn 0.4950 -0.0000 0.8689
vn 0.5639 -0.0000 0.8258
vn 0.6283 -0.0000 0.7779
vn 0.6873 -0.0000 0.7264
vn 0.7401 -0.0000 0.6725
vn 0.7872 -0.0000 0.6166
vn 0.8297 -0.0000 0.5583
vn 0.8670 -0.0000 0.4982
vn 0.8988 -0.0000 0.4383
vn 0.9252 -0.0000 0.3794
vn 0.9466 -0.0000 0.3223
vn 0.9636 -0.0000 0.2675
vn 0.9765 -0.0000 0.2155
vn 0.9861 -0.0000 0.1664
vn 0.9927 -0.0000 0.1204
vn 0.9970 -0.0000 0.0774
vn 0.9993 -0.0000 0.0375
vn 0.9993 -0.0000 -0.0375
vn 0.9970 -0.0000 -0.0774
vn 0.9927 -0.0000 -0.1204
vn 0.9861 -0.0000 -0.1664
vn 0.9765 -0.0000 -0.2155
vn 0.9636 -0.0000 -0.2675
vn 0.9466 -0.0000 -0.3223
vn 0.9252 -0.0000 -0.3794
vn 0.8988 -0.0000 -0.4383
vn 0.8670 -0.0000 -0.4982
vn 0.8297 -0.0000 -0.5583
vn 0.7872 -0.0000 -0.6166
vn 0.7401 -0.0000 -0.6725
vn 0.6873 -0.0000 -0.7264
vn 0.6283 -0.0000 -0.7779
vn 0.5639 -0.0000 -0.8258
vn 0.4950 -0.0000 -0.8689
vn 0.4229 -0.0000 -0.9062
vn 0.3490 -0.0000 -0.9371
vn 0.2748 -0.0000 -0.9615
vn 0.2019 -0.0000 -0.9794
vn 0.1313 -0.0000 -0.9913
vn 0.0639 -0.0000 -0.9980
vt 0.297071 0.000000
vt 0.305439 0.000000
vt 0.301255 0.000000
vt 0.309623 0.000000
vt 0.292887 0.000000
vt 0.313808 0.000000
vt 0.288703 0.000000
vt 0.317992 0.000000
vt 0.284519 0.000000
vt 0.322176 0.000000
vt 0.280335 0.000000
vt 0.326360 0.000000
vt 0.276151 0.000000
vt 0.330544 0.000000
vt 0.271967 0.000000
vt 0.334728 0.000000
vt 0.267782 0.000000
vt 0.338912 0.000000
vt 0.263598 0.000000
vt 0.343096 0.000000
vt 0.259414 0.000000
vt 0.347280 0.000000
vt 0.255230 0.000000
vt 0.351464 0.000000
vt 0.251046 0.000000
vt 0.355649 0.000000
vt 0.246862 0.000000
vt 0.359833 0.000000
vt 0.242678 0.000000
vt 0.364017 0.000000
vt 0.238494 0.000000
vt 0.803347 0.000000
vt 0.799163 0.000000
vt 0.368201 0.000000
vt 0.234310 0.000000
vt 0.807531 0.000000
vt 0.794979 0.000000
vt 0.811715 0.000000
vt 0.790795 0.000000
vt 0.815900 0.000000
vt 0.786611 0.000000
vt 0.820084 0.000000
vt 0.372385 0.000000
vt 0.230126 0.000000
vt 0.782427 0.000000
vt 0.824268 0.000000
vt 0.778243 0.000000
vt 0.828452 0.000000
vt 0.376569 0.000000
vt 0.225941 0.000000
vt 0.774059 0.000000
vt 0.832636 0.000000
vt 0.380753 0.000000
vt 0.836820 0.000000
vt 0.769874 0.000000
vt 0.221757 0.000000
vt 0.841004 0.000000
vt 0.765690 0.000000
vt 0.384937 0.000000
vt 0.217573 0.000000
vt 0.845188 0.000000
vt 0.761506 0.000000
vt 0.389121 0.000000
vt 0.213389 0.000000
vt 0.849372 0.000000
vt 0.757322 0.000000
vt 0.393305 0.000000
vt 0.209205 0.000000
vt 0.853557 0.000000
vt 0.753138 0.000000
vt 0.397490 0.000000
vt 0.205021 0.000000
vt 0.857741 0.000000
vt 0.748954 0.000000
vt 0.401674 0.000000
vt 0.200837 0.000000
vt 0.861925 0.000000
vt 0.744770 0.000000
vt 0.405858 0.000000
vt 0.196653 0.000000
vt 0.866109 0.000000
vt 0.740586 0.000000
vt 0.410042 0.000000
vt 0.192469 0.000000
vt 0.870293 0.000000
vt 0.736402 0.000000
vt 0.414226 0.000000
vt 0.188285 0.000000
vt 0.874477 0.000000
vt 0.732218 0.000000
vt 0.418410 0.000000
vt 0.184100 0.000000
vt 0.878661 0.000000
vt 0.728033 0.000000
vt 0.422594 0.000000
vt 0.179916 0.000000
vt 0.882845 0.000000
vt 0.723849 0.000000
vt 0.426778 0.000000
vt 0.175732 0.000000
vt 0.430962 0.000000
vt 0.171548 0.000000
vt 0.887029 0.000000
vt 0.719665 0.000000
vt 0.435146 0.000000
vt 0.167364 0.000000
vt 0.891213 0.000000
vt 0.715481 0.000000
vt 0.439331 0.000000
vt 0.163180 0.000000
vt 0.895397 0.000000
vt 0.711297 0.000000
vt 0.443515 0.000000
vt 0.158996 0.000000
vt 0.899582 0.000000
vt 0.707113 0.000000
vt 0.447699 0.000000
vt 0.154812 0.000000
vt 0.903766 0.000000
vt 0.702929 0.000000
vt 0.451883 0.000000
vt 0.150628 0.000000
vt 0.146444 0.000000
vt 0.907950 0.000000
vt 0.698745 0.000000
vt 0.456067 0.000000
vt 0.142259 0.000000
vt 0.460251 0.000000
vt 0.694561 0.000000
vt 0.912134 0.000000
vt 0.138075 0.000000
vt 0.464435 0.000000
vt 0.690377 0.000000
vt 0.916318 0.000000
vt 0.133891 0.000000
vt 0.468619 0.000000
vt 0.686192 0.000000
vt 0.920502 0.000000
vt 0.129707 0.000000
vt 0.472803 0.000000
vt 0.682008 0.000000
vt 0.924686 0.000000
vt 0.125523 0.000000
vt 0.476987 0.000000
vt 0.677824 0.000000
vt 0.928870 0.000000
vt 0.121339 0.000000
vt 0.481172 0.000000
vt 0.117155 0.000000
vt 0.485356 0.000000
vt 0.673640 0.000000
vt 0.933054 0.000000
vt 0.112971 0.000000
vt 0.489540 0.000000
vt 0.669456 0.000000
vt 0.937239 0.000000
vt 0.108787 0.000000
vt 0.493724 0.000000
vt 0.665272 0.000000
vt 0.941423 0.000000
vt 0.104603 0.000000
vt 0.497908 0.000000
vt 0.661088 0.000000
vt 0.945607 0.000000
vt 0.100418 0.000000
vt 0.502092 0.000000
vt 0.656904 0.000000
vt 0.949791 0.000000
vt 0.096234 0.000000
vt 0.506276 0.000000
vt 0.652720 0.000000
vt 0.953975 0.000000
vt 0.092050 0.000000
vt 0.510460 0.000000
vt 0.958159 0.000000
vt 0.648536 0.000000
vt 0.087866 0.000000
vt 0.514644 0.000000
vt 0.962343 0.000000
vt 0.644351 0.000000
vt 0.083682 0.000000
vt 0.518828 0.000000
vt 0.966527 0.000000
vt 0.640167 0.000000
vt 0.079498 0.000000
vt 0.523013 0.000000
vt 0.970711 0.000000
vt 0.635983 0.000000
vt 0.075314 0.000000
vt 0.527197 0.000000
vt 0.974895 0.000000
vt 0.631799 0.000000
vt 0.071130 0.000000
vt 0.979079 0.000000
vt 0.627615 0.000000
vt 0.531381 0.000000
vt 0.983264 0.000000
vt 0.623431 0.000000
vt 0.066946 0.000000
vt 0.535565 0.000000
vt 0.987448 0.000000
vt 0.619247 0.000000
vt 0.991632 0.000000
vt 0.615063 0.000000
vt 0.062762 0.000000
vt 0.539749 0.000000
vt 0.995816 0.000000
vt 0.610879 0.000000
vt 1.000000 0.000000
vt 0.606695 0.000000
vt 0.602510 0.000000
vt 0.058577 0.000000
vt 0.543933 0.000000
vt 0.054393 0.000000
vt 0.548117 0.000000
vt 0.050209 0.000000
vt 0.552301 0.000000
vt 0.046025 0.000000
vt 0.556485 0.000000
vt 0.041841 0.000000
vt 0.560669 0.000000
vt 0.037657 0.000000
vt 0.564854 0.000000
vt 0.033473 0.000000
vt 0.569038 0.000000
vt 0.029289 0.000000
vt 0.573222 0.000000
vt 0.025105 0.000000
vt 0.577406 0.000000
vt 0.020921 0.000000
vt 0.581590 0.000000
vt 0.016736 0.000000
vt 0.585774 0.000000
vt 0.012552 0.000000
vt 0.589958 0.000000
vt 0.008368 0.000000
vt 0.594142 0.000000
vt 0.004184 0.000000
vt 0.598326 0.000000
vt 0.000000 0.000000
vt 0.000000 1.000000
vt 0.006944 1.000000
vt 0.006944 0.000000
vt 0.013889 1.000000
vt 0.013889 0.000000
vt 0.020833 1.000000
vt 0.020833 0.000000
vt 0.027778 1.000000
vt 0.027778 0.000000
vt 0.034722 1.000000
vt 0.034722 0.000000
vt 0.041667 1.000000
vt 0.041667 0.000000
vt 0.048611 1.000000
vt 0.048611 0.000000
vt 0.055556 1.000000
vt 0.055556 0.000000
vt 0.062500 1.000000
vt 0.062500 0.000000
vt 0.069444 1.000000
vt 0.069444 0.000000
vt 0.076389 1.000000
vt 0.076389 0.000000
vt 0.083333 1.000000
vt 0.083333 0.000000
vt 0.090278 1.000000
vt 0.090278 0.000000
vt 0.097222 1.000000
vt 0.097222 0.000000
vt 0.104167 1.000000
vt 0.104167 0.000000
vt 0.111111 1.000000
vt 0.111111 0.000000
vt 0.118056 1.000000
vt 0.118056 0.000000
vt 0.125000 1.000000
vt 0.125000 0.000000
vt 0.131944 1.000000
vt 0.131944 0.000000
vt 0.138889 1.000000
vt 0.138889 0.000000
vt 0.145833 1.000000
vt 0.145833 0.000000
vt 0.152778 1.000000
vt 0.152778 0.000000
vt 0.159722 1.000000
vt 0.159722 0.000000
vt 0.166667 1.000000
vt 0.166667 0.000000
vt 0.173611 1.000000
vt 0.173611 0.000000
vt 0.180556 1.000000
vt 0.180556 0.000000
vt 0.187500 1.000000
vt 0.187500 0.000000
vt 0.194444 1.000000
vt 0.194444 0.000000
vt 0.201389 1.000000
vt 0.201389 0.000000
vt 0.208333 1.000000
vt 0.208333 0.000000
vt 0.215278 1.000000
vt 0.215278 0.000000
vt 0.222222 1.000000
vt 0.222222 0.000000
vt 0.229167 1.000000
vt 0.229167 0.000000
vt 0.236111 1.000000
vt 0.236111 0.000000
vt 0.243056 1.000000
vt 0.243056 0.000000
vt 0.250000 1.000000
vt 0.250000 0.000000
vt 0.256944 1.000000
vt 0.256944 0.000000
vt 0.263889 1.000000
vt 0.263889 0.000000
vt 0.270833 1.000000
vt 0.270833 0.000000
vt 0.277778 1.000000
vt 0.277778 0.000000
vt 0.284722 1.000000
vt 0.284722 0.000000
vt 0.291667 1.000000
vt 0.291667 0.000000
vt 0.298611 1.000000
vt 0.298611 0.000000
vt 0.305556 1.000000
vt 0.305556 0.000000
vt 0.312500 1.000000
vt 0.312500 0.000000
vt 0.319444 1.000000
vt 0.319444 0.000000
vt 0.326389 1.000000
vt 0.326389 0.000000
vt 0.333333 1.000000
vt 0.333333 0.000000
vt 0.340278 1.000000
vt 0.340278 0.000000
vt 0.347222 1.000000
vt 0.347222 0.000000
vt 0.354167 1.000000
vt 0.354167 0.000000
vt 0.361111 1.000000
vt 0.361111 0.000000
vt 0.368056 1.000000
vt 0.368056 0.000000
vt 0.375000 1.000000
vt 0.375000 0.000000
vt 0.381944 1.000000
vt 0.381944 0.000000
vt 0.388889 1.000000
vt 0.388889 0.000000
vt 0.395833 1.000000
vt 0.395833 0.000000
vt 0.402778 1.000000
vt 0.402778 0.000000
vt 0.409722 1.000000
vt 0.409722 0.000000
vt 0.416667 1.000000
vt 0.416667 0.000000
vt 0.423611 1.000000
vt 0.423611 0.000000
vt 0.430556 1.000000
vt 0.430556 0.000000
vt 0.437500 1.000000
vt 0.437500 0.000000
vt 0.444444 1.000000
vt 0.444444 0.000000
vt 0.451389 1.000000
vt 0.451389 0.000000
vt 0.458333 1.000000
vt 0.458333 0.000000
vt 0.465278 1.000000
vt 0.465278 0.000000
vt 0.472222 1.000000
vt 0.472222 0.000000
vt 0.479167 1.000000
vt 0.479167 0.000000
vt 0.486111 1.000000
vt 0.486111 0.000000
vt 0.493056 1.000000
vt 0.493056 0.000000
vt 0.500000 1.000000
vt 0.500000 0.000000
vt 0.506944 1.000000
vt 0.506944 0.000000
vt 0.513889 1.000000
vt 0.513889 0.000000
vt 0.520833 1.000000
vt 0.520833 0.000000
vt 0.527778 1.000000
vt 0.527778 0.000000
vt 0.534722 1.000000
vt 0.534722 0.000000
vt 0.541667 1.000000
vt 0.541667 0.000000
vt 0.548611 1.000000
vt 0.548611 0.000000
vt 0.555556 1.000000
vt 0.555556 0.000000
vt 0.562500 1.000000
vt 0.562500 0.000000
vt 0.569444 1.000000
vt 0.569444 0.000000
vt 0.576389 1.000000
vt 0.576389 0.000000
vt 0.583333 1.000000
vt 0.583333 0.000000
vt 0.590278 1.000000
vt 0.590278 0.000000
vt 0.597222 1.000000
vt 0.597222 0.000000
vt 0.604167 1.000000
vt 0.604167 0.000000
vt 0.611111 1.000000
vt 0.611111 0.000000
vt 0.618056 1.000000
vt 0.618056 0.000000
vt 0.625000 1.000000
vt 0.625000 0.000000
vt 0.631944 1.000000
vt 0.631944 0.000000
vt 0.638889 1.000000
vt 0.638889 0.000000
vt 0.645833 1.000000
vt 0.645833 0.000000
vt 0.652778 1.000000
vt 0.652778 0.000000
vt 0.659722 1.000000
vt 0.659722 0.000000
vt 0.666667 1.000000
vt 0.666667 0.000000
vt 0.673611 1.000000
vt 0.673611 0.000000
vt 0.680556 1.000000
vt 0.680556 0.000000
vt 0.687500 1.000000
vt 0.687500 0.000000
vt 0.694444 1.000000
vt 0.694444 0.000000
vt 0.701389 1.000000
vt 0.701389 0.000000
vt 0.708333 1.000000
vt 0.708333 0.000000
vt 0.715278 1.000000
vt 0.715278 0.000000
vt 0.722222 1.000000
vt 0.722222 0.000000
vt 0.729167 1.000000
vt 0.729167 0.000000
vt 0.736111 1.000000
vt 0.736111 0.000000
vt 0.743056 1.000000
vt 0.743056 0.000000
vt 0.750000 1.000000
vt 0.750000 0.000000
vt 0.756944 1.000000
vt 0.756944 0.000000
vt 0.763889 1.000000
vt 0.763889 0.000000
vt 0.770833 1.000000
vt 0.770833 0.000000
vt 0.777778 1.000000
vt 0.777778 0.000000
vt 0.784722 1.000000
vt 0.784722 0.000000
vt 0.791667 1.000000
vt 0.791667 0.000000
vt 0.798611 1.000000
vt 0.798611 0.000000
vt 0.805556 1.000000
vt 0.805556 0.000000
vt 0.812500 1.000000
vt 0.812500 0.000000
vt 0.819444 1.000000
vt 0.819444 0.000000
vt 0.826389 1.000000
vt 0.826389 0.000000
vt 0.833333 1.000000
vt 0.833333 0.000000
vt 0.840278 1.000000
vt 0.840278 0.000000
vt 0.847222 1.000000
vt 0.847222 0.000000
vt 0.854167 1.000000
vt 0.854167 0.000000
vt 0.861111 1.000000
vt 0.861111 0.000000
vt 0.868056 1.000000
vt 0.868056 0.000000
vt 0.875000 1.000000
vt 0.875000 0.000000
vt 0.881944 1.000000
vt 0.881944 0.000000
vt 0.888889 1.000000
vt 0.888889 0.000000
vt 0.895833 1.000000
vt 0.895833 0.000000
vt 0.902778 1.000000
vt 0.902778 0.000000
vt 0.909722 1.000000
vt 0.909722 0.000000
vt 0.916667 1.000000
vt 0.916667 0.000000
vt 0.923611 1.000000
vt 0.923611 0.000000
vt 0.930556 1.000000
vt 0.930556 0.000000
vt 0.937500 1.000000
vt 0.937500 0.000000
vt 0.944444 1.000000
vt 0.944444 0.000000
vt 0.951389 1.000000
vt 0.951389 0.000000
vt 0.958333 1.000000
vt 0.958333 0.000000
vt 0.965278 1.000000
vt 0.965278 0.000000
vt 0.972222 1.000000
vt 0.972222 0.000000
vt 0.979167 1.000000
vt 0.979167 0.000000
vt 0.986111 1.000000
vt 0.986111 0.000000
vt 0.993056 1.000000
vt 0.993056 0.000000
vt 1.000000 1.000000
vt 0.010417 1.000000
vt 0.010417 0.000000
vt 0.031250 1.000000
vt 0.031250 0.000000
vt 0.052083 1.000000
vt 0.052083 0.000000
vt 0.072917 1.000000
vt 0.072917 0.000000
vt 0.093750 1.000000
vt 0.093750 0.000000
vt 0.114583 1.000000
vt 0.114583 0.000000
vt 0.135417 1.000000
vt 0.135417 0.000000
vt 0.156250 1.000000
vt 0.156250 0.000000
vt 0.177083 1.000000
vt 0.177083 0.000000
vt 0.197917 1.000000
vt 0.197917 0.000000
vt 0.218750 1.000000
vt 0.218750 0.000000
vt 0.239583 1.000000
vt 0.239583 0.000000
vt 0.260417 1.000000
vt 0.260417 0.000000
vt 0.281250 1.000000
vt 0.281250 0.000000
vt 0.302083 1.000000
vt 0.302083 0.000000
vt 0.322917 1.000000
vt 0.322917 0.000000
vt 0.343750 1.000000
vt 0.343750 0.000000
vt 0.364583 1.000000
vt 0.364583 0.000000
vt 0.385417 1.000000
vt 0.385417 0.000000
vt 0.406250 1.000000
vt 0.406250 0.000000
vt 0.427083 1.000000
vt 0.427083 0.000000
vt 0.447917 1.000000
vt 0.447917 0.000000
vt 0.468750 1.000000
vt 0.468750 0.000000
vt 0.489583 1.000000
vt 0.489583 0.000000
vt 0.510417 1.000000
vt 0.510417 0.000000
vt 0.531250 1.000000
vt 0.531250 0.000000
vt 0.552083 1.000000
vt 0.552083 0.000000
vt 0.572917 1.000000
vt 0.572917 0.000000
vt 0.593750 1.000000
vt 0.593750 0.000000
vt 0.614583 1.000000
vt 0.614583 0.000000
vt 0.635417 1.000000
vt 0.635417 0.000000
vt 0.656250 1.000000
vt 0.656250 0.000000
vt 0.677083 1.000000
vt 0.677083 0.000000
vt 0.697917 1.000000
vt 0.697917 0.000000
vt 0.718750 1.000000
vt 0.718750 0.000000
vt 0.739583 1.000000
vt 0.739583 0.000000
vt 0.760417 1.000000
vt 0.760417 0.000000
vt 0.781250 1.000000
vt 0.781250 0.000000
vt 0.802083 1.000000
vt 0.802083 0.000000
vt 0.822917 1.000000
vt 0.822917 0.000000
vt 0.843750 1.000000
vt 0.843750 0.000000
vt 0.864583 1.000000
vt 0.864583 0.000000
vt 0.885417 1.000000
vt 0.885417 0.000000
vt 0.906250 1.000000
vt 0.906250 0.000000
vt 0.927083 1.000000
vt 0.927083 0.000000
vt 0.947917 1.000000
vt 0.947917 0.000000
vt 0.968750 1.000000
vt 0.968750 0.000000
vt 0.989583 1.000000
vt 0.989583 0.000000
s 0
usemtl Material.001
f 72/1/1 74/2/1 73/3/1
f 72/1/1 75/4/1 74/2/1
f 71/5/1 75/4/1 72/1/1
f 71/5/1 76/6/1 75/4/1
f 70/7/1 76/6/1 71/5/1
f 70/7/1 77/8/1 76/6/1
f 69/9/1 77/8/1 70/7/1
f 69/9/1 78/10/1 77/8/1
f 68/11/1 78/10/1 69/9/1
f 68/11/1 79/12/1 78/10/1
f 67/13/1 79/12/1 68/11/1
f 67/13/1 80/14/1 79/12/1
f 66/15/1 80/14/1 67/13/1
f 66/15/1 81/16/1 80/14/1
f 65/17/1 81/16/1 66/15/1
f 65/17/1 82/18/1 81/16/1
f 64/19/1 82/18/1 65/17/1
f 64/19/1 83/20/1 82/18/1
f 63/21/1 83/20/1 64/19/1
f 63/21/1 84/22/1 83/20/1
f 62/23/1 84/22/1 63/21/1
f 62/23/1 85/24/1 84/22/1
f 61/25/1 85/24/1 62/23/1
f 61/25/1 86/26/1 85/24/1
f 60/27/1 86/26/1 61/25/1
f 60/27/1 87/28/1 86/26/1
f 59/29/1 87/28/1 60/27/1
f 59/29/1 88/30/1 87/28/1
f 58/31/1 88/30/1 59/29/1
f 58/31/1 193/32/1 88/30/1
f 193/32/1 192/33/1 88/30/1
f 192/33/1 89/34/1 88/30/1
f 57/35/1 194/36/1 58/31/1
f 194/36/1 193/32/1 58/31/1
f 191/37/1 89/34/1 192/33/1
f 57/35/1 195/38/1 194/36/1
f 190/39/1 89/34/1 191/37/1
f 57/35/1 196/40/1 195/38/1
f 189/41/1 89/34/1 190/39/1
f 57/35/1 197/42/1 196/40/1
f 189/41/1 90/43/1 89/34/1
f 56/44/1 197/42/1 57/35/1
f 188/45/1 90/43/1 189/41/1
f 56/44/1 198/46/1 197/42/1
f 187/47/1 90/43/1 188/45/1
f 56/44/1 199/48/1 198/46/1
f 187/47/1 91/49/1 90/43/1
f 55/50/1 199/48/1 56/44/1
f 186/51/1 91/49/1 187/47/1
f 55/50/1 200/52/1 199/48/1
f 186/51/1 92/53/1 91/49/1
f 55/50/1 201/54/1 200/52/1
f 185/55/1 92/53/1 186/51/1
f 54/56/1 201/54/1 55/50/1
f 54/56/1 202/57/1 201/54/1
f 184/58/1 92/53/1 185/55/1
f 184/58/1 93/59/1 92/53/1
f 53/60/1 202/57/1 54/56/1
f 53/60/1 203/61/1 202/57/1
f 183/62/1 93/59/1 184/58/1
f 183/62/1 94/63/1 93/59/1
f 52/64/1 203/61/1 53/60/1
f 52/64/1 204/65/1 203/61/1
f 182/66/1 94/63/1 183/62/1
f 182/66/1 95/67/1 94/63/1
f 51/68/1 204/65/1 52/64/1
f 51/68/1 205/69/1 204/65/1
f 181/70/1 95/67/1 182/66/1
f 181/70/1 96/71/1 95/67/1
f 50/72/1 205/69/1 51/68/1
f 50/72/1 206/73/1 205/69/1
f 180/74/1 96/71/1 181/70/1
f 180/74/1 97/75/1 96/71/1
f 49/76/1 206/73/1 50/72/1
f 49/76/1 207/77/1 206/73/1
f 179/78/1 97/75/1 180/74/1
f 179/78/1 98/79/1 97/75/1
f 48/80/1 207/77/1 49/76/1
f 48/80/1 208/81/1 207/77/1
f 178/82/1 98/79/1 179/78/1
f 178/82/1 99/83/1 98/79/1
f 47/84/1 208/81/1 48/80/1
f 47/84/1 209/85/1 208/81/1
f 177/86/1 99/83/1 178/82/1
f 177/86/1 100/87/1 99/83/1
f 46/88/1 209/85/1 47/84/1
f 46/88/1 210/89/1 209/85/1
f 176/90/1 100/87/1 177/86/1
f 176/90/1 101/91/1 100/87/1
f 45/92/1 210/89/1 46/88/1
f 45/92/1 211/93/1 210/89/1
f 175/94/1 101/91/1 176/90/1
f 175/94/1 102/95/1 101/91/1
f 44/96/1 211/93/1 45/92/1
f 44/96/1 212/97/1 211/93/1
f 174/98/1 102/95/1 175/94/1
f 174/98/1 103/99/1 102/95/1
f 43/100/1 212/97/1 44/96/1
f 174/98/1 104/101/1 103/99/1
f 42/102/1 212/97/1 43/100/1
f 42/102/1 213/103/1 212/97/1
f 173/104/1 104/101/1 174/98/1
f 173/104/1 105/105/1 104/101/1
f 41/106/1 213/103/1 42/102/1
f 41/106/1 214/107/1 213/103/1
f 172/108/1 105/105/1 173/104/1
f 172/108/1 106/109/1 105/105/1
f 40/110/1 214/107/1 41/106/1
f 40/110/1 215/111/1 214/107/1
f 171/112/1 106/109/1 172/108/1
f 171/112/1 107/113/1 106/109/1
f 39/114/1 215/111/1 40/110/1
f 39/114/1 216/115/1 215/111/1
f 170/116/1 107/113/1 171/112/1
f 170/116/1 108/117/1 107/113/1
f 38/118/1 216/115/1 39/114/1
f 38/118/1 217/119/1 216/115/1
f 169/120/1 108/117/1 170/116/1
f 169/120/1 109/121/1 108/117/1
f 37/122/1 217/119/1 38/118/1
f 36/123/1 217/119/1 37/122/1
f 36/123/1 218/124/1 217/119/1
f 168/125/1 109/121/1 169/120/1
f 168/125/1 110/126/1 109/121/1
f 35/127/1 218/124/1 36/123/1
f 168/125/1 111/128/1 110/126/1
f 167/129/1 111/128/1 168/125/1
f 35/127/1 219/130/1 218/124/1
f 34/131/1 219/130/1 35/127/1
f 167/129/1 112/132/1 111/128/1
f 166/133/1 112/132/1 167/129/1
f 34/131/1 220/134/1 219/130/1
f 33/135/1 220/134/1 34/131/1
f 166/133/1 113/136/1 112/132/1
f 165/137/1 113/136/1 166/133/1
f 33/135/1 221/138/1 220/134/1
f 32/139/1 221/138/1 33/135/1
f 165/137/1 114/140/1 113/136/1
f 164/141/1 114/140/1 165/137/1
f 32/139/1 222/142/1 221/138/1
f 31/143/1 222/142/1 32/139/1
f 164/141/1 115/144/1 114/140/1
f 163/145/1 115/144/1 164/141/1
f 31/143/1 223/146/1 222/142/1
f 30/147/1 223/146/1 31/143/1
f 163/145/1 116/148/1 115/144/1
f 29/149/1 223/146/1 30/147/1
f 163/145/1 117/150/1 116/148/1
f 162/151/1 117/150/1 163/145/1
f 29/149/1 224/152/1 223/146/1
f 28/153/1 224/152/1 29/149/1
f 162/151/1 118/154/1 117/150/1
f 161/155/1 118/154/1 162/151/1
f 28/153/1 225/156/1 224/152/1
f 27/157/1 225/156/1 28/153/1
f 161/155/1 119/158/1 118/154/1
f 160/159/1 119/158/1 161/155/1
f 27/157/1 226/160/1 225/156/1
f 26/161/1 226/160/1 27/157/1
f 160/159/1 120/162/1 119/158/1
f 159/163/1 120/162/1 160/159/1
f 26/161/1 227/164/1 226/160/1
f 25/165/1 227/164/1 26/161/1
f 159/163/1 121/166/1 120/162/1
f 158/167/1 121/166/1 159/163/1
f 25/165/1 228/168/1 227/164/1
f 24/169/1 228/168/1 25/165/1
f 158/167/1 122/170/1 121/166/1
f 157/171/1 122/170/1 158/167/1
f 24/169/1 229/172/1 228/168/1
f 23/173/1 229/172/1 24/169/1
f 157/171/1 123/174/1 122/170/1
f 23/173/1 230/175/1 229/172/1
f 156/176/1 123/174/1 157/171/1
f 22/177/1 230/175/1 23/173/1
f 156/176/1 124/178/1 123/174/1
f 22/177/1 231/179/1 230/175/1
f 155/180/1 124/178/1 156/176/1
f 21/181/1 231/179/1 22/177/1
f 155/180/1 125/182/1 124/178/1
f 21/181/1 232/183/1 231/179/1
f 154/184/1 125/182/1 155/180/1
f 20/185/1 232/183/1 21/181/1
f 154/184/1 126/186/1 125/182/1
f 20/185/1 233/187/1 232/183/1
f 153/188/1 126/186/1 154/184/1
f 19/189/1 233/187/1 20/185/1
f 153/188/1 127/190/1 126/186/1
f 19/189/1 234/191/1 233/187/1
f 152/192/1 127/190/1 153/188/1
f 18/193/1 234/191/1 19/189/1
f 18/193/1 235/194/1 234/191/1
f 151/195/1 127/190/1 152/192/1
f 151/195/1 128/196/1 127/190/1
f 18/193/1 236/197/1 235/194/1
f 150/198/1 128/196/1 151/195/1
f 17/199/1 236/197/1 18/193/1
f 150/198/1 129/200/1 128/196/1
f 17/199/1 237/201/1 236/197/1
f 149/202/1 129/200/1 150/198/1
f 17/199/1 238/203/1 237/201/1
f 148/204/1 129/200/1 149/202/1
f 16/205/1 238/203/1 17/199/1
f 148/204/1 130/206/1 129/200/1
f 16/205/1 239/207/1 238/203/1
f 147/208/1 130/206/1 148/204/1
f 16/205/1 240/209/1 239/207/1
f 146/210/1 130/206/1 147/208/1
f 16/205/1 145/211/1 240/209/1
f 145/211/1 130/206/1 146/210/1
f 16/205/1 130/206/1 145/211/1
f 15/212/1 130/206/1 16/205/1
f 15/212/1 131/213/1 130/206/1
f 14/214/1 131/213/1 15/212/1
f 14/214/1 132/215/1 131/213/1
f 13/216/1 132/215/1 14/214/1
f 13/216/1 133/217/1 132/215/1
f 12/218/1 133/217/1 13/216/1
f 12/218/1 134/219/1 133/217/1
f 11/220/1 134/219/1 12/218/1
f 11/220/1 135/221/1 134/219/1
f 10/222/1 135/221/1 11/220/1
f 10/222/1 136/223/1 135/221/1
f 9/224/1 136/223/1 10/222/1
f 9/224/1 137/225/1 136/223/1
f 8/226/1 137/225/1 9/224/1
f 8/226/1 138/227/1 137/225/1
f 7/228/1 138/227/1 8/226/1
f 7/228/1 139/229/1 138/227/1
f 6/230/1 139/229/1 7/228/1
f 6/230/1 140/231/1 139/229/1
f 5/232/1 140/231/1 6/230/1
f 5/232/1 141/233/1 140/231/1
f 4/234/1 141/233/1 5/232/1
f 4/234/1 142/235/1 141/233/1
f 3/236/1 142/235/1 4/234/1
f 3/236/1 143/237/1 142/235/1
f 2/238/1 143/237/1 3/236/1
f 2/238/1 144/239/1 143/237/1
f 1/240/1 144/239/1 2/238/1
f 312/1/2 313/3/2 314/2/2
f 312/1/2 314/2/2 315/4/2
f 311/5/2 312/1/2 315/4/2
f 311/5/2 315/4/2 316/6/2
f 310/7/2 311/5/2 316/6/2
f 310/7/2 316/6/2 317/8/2
f 309/9/2 310/7/2 317/8/2
f 309/9/2 317/8/2 318/10/2
f 308/11/2 309/9/2 318/10/2
f 308/11/2 318/10/2 319/12/2
f 307/13/2 308/11/2 319/12/2
f 307/13/2 319/12/2 320/14/2
f 306/15/2 307/13/2 320/14/2
f 306/15/2 320/14/2 321/16/2
f 305/17/2 306/15/2 321/16/2
f 305/17/2 321/16/2 322/18/2
f 304/19/2 305/17/2 322/18/2
f 304/19/2 322/18/2 323/20/2
f 303/21/2 304/19/2 323/20/2
f 303/21/2 323/20/2 324/22/2
f 302/23/2 303/21/2 324/22/2
f 302/23/2 324/22/2 325/24/2
f 301/25/2 302/23/2 325/24/2
f 301/25/2 325/24/2 326/26/2
f 300/27/2 301/25/2 326/26/2
f 300/27/2 326/26/2 327/28/2
f 299/29/2 300/27/2 327/28/2
f 299/29/2 327/28/2 328/30/2
f 298/31/2 299/29/2 328/30/2
f 298/31/2 328/30/2 433/32/2
f 433/32/2 328/30/2 432/33/2
f 432/33/2 328/30/2 329/34/2
f 297/35/2 298/31/2 434/36/2
f 434/36/2 298/31/2 433/32/2
f 431/37/2 432/33/2 329/34/2
f 297/35/2 434/36/2 435/38/2
f 430/39/2 431/37/2 329/34/2
f 297/35/2 435/38/2 436/40/2
f 429/41/2 430/39/2 329/34/2
f 297/35/2 436/40/2 437/42/2
f 429/41/2 329/34/2 330/43/2
f 296/44/2 297/35/2 437/42/2
f 428/45/2 429/41/2 330/43/2
f 296/44/2 437/42/2 438/46/2
f 427/47/2 428/45/2 330/43/2
f 296/44/2 438/46/2 439/48/2
f 427/47/2 330/43/2 331/49/2
f 295/50/2 296/44/2 439/48/2
f 426/51/2 427/47/2 331/49/2
f 295/50/2 439/48/2 440/52/2
f 426/51/2 331/49/2 332/53/2
f 295/50/2 440/52/2 441/54/2
f 425/55/2 426/51/2 332/53/2
f 294/56/2 295/50/2 441/54/2
f 294/56/2 441/54/2 442/57/2
f 424/58/2 425/55/2 332/53/2
f 424/58/2 332/53/2 333/59/2
f 293/60/2 294/56/2 442/57/2
f 293/60/2 442/57/2 443/61/2
f 423/62/2 424/58/2 333/59/2
f 423/62/2 333/59/2 334/63/2
f 292/64/2 293/60/2 443/61/2
f 292/64/2 443/61/2 444/65/2
f 422/66/2 423/62/2 334/63/2
f 422/66/2 334/63/2 335/67/2
f 291/68/2 292/64/2 444/65/2
f 291/68/2 444/65/2 445/69/2
f 421/70/2 422/66/2 335/67/2
f 421/70/2 335/67/2 336/71/2
f 290/72/2 291/68/2 445/69/2
f 290/72/2 445/69/2 446/73/2
f 420/74/2 421/70/2 336/71/2
f 420/74/2 336/71/2 337/75/2
f 289/76/2 290/72/2 446/73/2
f 289/76/2 446/73/2 447/77/2
f 419/78/2 420/74/2 337/75/2
f 419/78/2 337/75/2 338/79/2
f 288/80/2 289/76/2 447/77/2
f 288/80/2 447/77/2 448/81/2
f 418/82/2 419/78/2 338/79/2
f 418/82/2 338/79/2 339/83/2
f 287/84/2 288/80/2 448/81/2
f 287/84/2 448/81/2 449/85/2
f 417/86/2 418/82/2 339/83/2
f 417/86/2 339/83/2 340/87/2
f 286/88/2 287/84/2 449/85/2
f 286/88/2 449/85/2 450/89/2
f 416/90/2 417/86/2 340/87/2
f 416/90/2 340/87/2 341/91/2
f 285/92/2 286/88/2 450/89/2
f 285/92/2 450/89/2 451/93/2
f 415/94/2 416/90/2 341/91/2
f 415/94/2 341/91/2 342/95/2
f 284/96/2 285/92/2 451/93/2
f 284/96/2 451/93/2 452/97/2
f 414/98/2 415/94/2 342/95/2
f 414/98/2 342/95/2 343/99/2
f 283/100/2 284/96/2 452/97/2
f 414/98/2 343/99/2 344/101/2
f 282/102/2 283/100/2 452/97/2
f 282/102/2 452/97/2 453/103/2
f 413/104/2 414/98/2 344/101/2
f 413/104/2 344/101/2 345/105/2
f 281/106/2 282/102/2 453/103/2
f 281/106/2 453/103/2 454/107/2
f 412/108/2 413/104/2 345/105/2
f 412/108/2 345/105/2 346/109/2
f 280/110/2 281/106/2 454/107/2
f 280/110/2 454/107/2 455/111/2
f 411/112/2 412/108/2 346/109/2
f 411/112/2 346/109/2 347/113/2
f 279/114/2 280/110/2 455/111/2
f 279/114/2 455/111/2 456/115/2
f 410/116/2 411/112/2 347/113/2
f 410/116/2 347/113/2 348/117/2
f 278/118/2 279/114/2 456/115/2
f 278/118/2 456/115/2 457/119/2
f 409/120/2 410/116/2 348/117/2
f 409/120/2 348/117/2 349/121/2
f 277/122/2 278/118/2 457/119/2
f 276/123/2 277/122/2 457/119/2
f 276/123/2 457/119/2 458/124/2
f 408/125/2 409/120/2 349/121/2
f 408/125/2 349/121/2 350/126/2
f 275/127/2 276/123/2 458/124/2
f 408/125/2 350/126/2 351/128/2
f 407/129/2 408/125/2 351/128/2
f 275/127/2 458/124/2 459/130/2
f 274/131/2 275/127/2 459/130/2
f 407/129/2 351/128/2 352/132/2
f 406/133/2 407/129/2 352/132/2
f 274/131/2 459/130/2 460/134/2
f 273/135/2 274/131/2 460/134/2
f 406/133/2 352/132/2 353/136/2
f 405/137/2 406/133/2 353/136/2
f 273/135/2 460/134/2 461/138/2
f 272/139/2 273/135/2 461/138/2
f 405/137/2 353/136/2 354/140/2
f 404/141/2 405/137/2 354/140/2
f 272/139/2 461/138/2 462/142/2
f 271/143/2 272/139/2 462/142/2
f 404/141/2 354/140/2 355/144/2
f 403/145/2 404/141/2 355/144/2
f 271/143/2 462/142/2 463/146/2
f 270/147/2 271/143/2 463/146/2
f 403/145/2 355/144/2 356/148/2
f 269/149/2 270/147/2 463/146/2
f 403/145/2 356/148/2 357/150/2
f 402/151/2 403/145/2 357/150/2
f 269/149/2 463/146/2 464/152/2
f 268/153/2 269/149/2 464/152/2
f 402/151/2 357/150/2 358/154/2
f 401/155/2 402/151/2 358/154/2
f 268/153/2 464/152/2 465/156/2
f 267/157/2 268/153/2 465/156/2
f 401/155/2 358/154/2 359/158/2
f 400/159/2 401/155/2 359/158/2
f 267/157/2 465/156/2 466/160/2
f 266/161/2 267/157/2 466/160/2
f 400/159/2 359/158/2 360/162/2
f 399/163/2 400/159/2 360/162/2
f 266/161/2 466/160/2 467/164/2
f 265/165/2 266/161/2 467/164/2
f 399/163/2 360/162/2 361/166/2
f 398/167/2 399/163/2 361/166/2
f 265/165/2 467/164/2 468/168/2
f 264/169/2 265/165/2 468/168/2
f 398/167/2 361/166/2 362/170/2
f 397/171/2 398/167/2 362/170/2
f 264/169/2 468/168/2 469/172/2
f 263/173/2 264/169/2 469/172/2
f 397/171/2 362/170/2 363/174/2
f 263/173/2 469/172/2 470/175/2
f 396/176/2 397/171/2 363/174/2
f 262/177/2 263/173/2 470/175/2
f 396/176/2 363/174/2 364/178/2
f 262/177/2 470/175/2 471/179/2
f 395/180/2 396/176/2 364/178/2
f 261/181/2 262/177/2 471/179/2
f 395/180/2 364/178/2 365/182/2
f 261/181/2 471/179/2 472/183/2
f 394/184/2 395/180/2 365/182/2
f 260/185/2 261/181/2 472/183/2
f 394/184/2 365/182/2 366/186/2
f 260/185/2 472/183/2 473/187/2
f 393/188/2 394/184/2 366/186/2
f 259/189/2 260/185/2 473/187/2
f 393/188/2 366/186/2 367/190/2
f 259/189/2 473/187/2 474/191/2
f 392/192/2 393/188/2 367/190/2
f 258/193/2 259/189/2 474/191/2
f 258/193/2 474/191/2 475/194/2
f 391/195/2 392/192/2 367/190/2
f 391/195/2 367/190/2 368/196/2
f 258/193/2 475/194/2 476/197/2
f 390/198/2 391/195/2 368/196/2
f 257/199/2 258/193/2 476/197/2
f 390/198/2 368/196/2 369/200/2
f 257/199/2 476/197/2 477/201/2
f 389/202/2 390/198/2 369/200/2
f 257/199/2 477/201/2 478/203/2
f 388/204/2 389/202/2 369/200/2
f 256/205/2 257/199/2 478/203/2
f 388/204/2 369/200/2 370/206/2
f 256/205/2 478/203/2 479/207/2
f 387/208/2 388/204/2 370/206/2
f 256/205/2 479/207/2 480/209/2
f 386/210/2 387/208/2 370/206/2
f 256/205/2 480/209/2 385/211/2
f 385/211/2 386/210/2 370/206/2
f 256/205/2 385/211/2 370/206/2
f 255/212/2 256/205/2 370/206/2
f 255/212/2 370/206/2 371/213/2
f 254/214/2 255/212/2 371/213/2
f 254/214/2 371/213/2 372/215/2
f 253/216/2 254/214/2 372/215/2
f 253/216/2 372/215/2 373/217/2
f 252/218/2 253/216/2 373/217/2
f 252/218/2 373/217/2 374/219/2
f 251/220/2 252/218/2 374/219/2
f 251/220/2 374/219/2 375/221/2
f 250/222/2 251/220/2 375/221/2
f 250/222/2 375/221/2 376/223/2
f 249/224/2 250/222/2 376/223/2
f 249/224/2 376/223/2 377/225/2
f 248/226/2 249/224/2 377/225/2
f 248/226/2 377/225/2 378/227/2
f 247/228/2 248/226/2 378/227/2
f 247/228/2 378/227/2 379/229/2
f 246/230/2 247/228/2 379/229/2
f 246/230/2 379/229/2 380/231/2
f 245/232/2 246/230/2 380/231/2
f 245/232/2 380/231/2 381/233/2
f 244/234/2 245/232/2 381/233/2
f 244/234/2 381/233/2 382/235/2
f 243/236/2 244/234/2 382/235/2
f 243/236/2 382/235/2 383/237/2
f 242/238/2 243/236/2 383/237/2
f 242/238/2 383/237/2 384/239/2
f 241/240/2 242/238/2 384/239/2
s 1
f 482/241/3 484/242/4 483/243/4 481/240/3
f 484/242/4 486/244/5 485/245/5 483/243/4
f 486/244/5 488/246/6 487/247/6 485/245/5
f 488/246/6 490/248/7 489/249/7 487/247/6
f 490/248/7 492/250/8 491/251/8 489/249/7
f 492/250/8 494/252/9 493/253/9 491/251/8
f 494/252/9 496/254/10 495/255/10 493/253/9
f 496/254/10 498/256/11 497/257/11 495/255/10
f 498/256/11 500/258/12 499/259/12 497/257/11
f 500/258/12 502/260/13 501/261/13 499/259/12
f 502/260/13 504/262/14 503/263/14 501/261/13
f 504/262/14 506/264/15 505/265/15 503/263/14
f 506/264/15 508/266/16 507/267/16 505/265/15
f 508/266/16 510/268/17 509/269/17 507/267/16
f 510/268/17 512/270/18 511/271/18 509/269/17
f 512/270/18 514/272/19 513/273/19 511/271/18
f 514/272/19 516/274/20 515/275/20 513/273/19
f 516/274/20 518/276/21 517/277/21 515/275/20
f 518/276/21 520/278/22 519/279/22 517/277/21
f 520/278/22 522/280/23 521/281/23 519/279/22
f 522/280/23 524/282/24 523/283/24 521/281/23
f 524/282/24 526/284/25 525/285/25 523/283/24
f 526/284/25 528/286/26 527/287/26 525/285/25
f 528/286/26 530/288/27 529/289/27 527/287/26
f 530/288/27 532/290/28 531/291/28 529/289/27
f 532/290/28 534/292/29 533/293/29 531/291/28
f 534/292/29 536/294/30 535/295/30 533/293/29
f 536/294/30 538/296/31 537/297/31 535/295/30
f 538/296/31 540/298/32 539/299/32 537/297/31
f 540/298/32 542/300/33 541/301/33 539/299/32
f 542/300/33 544/302/34 543/303/34 541/301/33
f 544/302/34 546/304/35 545/305/35 543/303/34
f 546/304/35 548/306/36 547/307/36 545/305/35
f 548/306/36 550/308/37 549/309/37 547/307/36
f 550/308/37 552/310/38 551/311/38 549/309/37
f 552/310/38 554/312/39 553/313/39 551/311/38
f 554/312/39 556/314/40 555/315/40 553/313/39
f 556/314/40 558/316/41 557/317/41 555/315/40
f 558/316/41 560/318/42 559/319/42 557/317/41
f 560/318/42 562/320/43 561/321/43 559/319/42
f 562/320/43 564/322/44 563/323/44 561/321/43
f 564/322/44 566/324/45 565/325/45 563/323/44
f 566/324/45 568/326/46 567/327/46 565/325/45
f 568/326/46 570/328/47 569/329/47 567/327/46
f 570/328/47 572/330/48 571/331/48 569/329/47
f 572/330/48 574/332/49 573/333/49 571/331/48
f 574/332/49 576/334/50 575/335/50 573/333/49
f 576/334/50 578/336/51 577/337/51 575/335/50
f 578/336/51 580/338/52 579/339/52 577/337/51
f 580/338/52 582/340/53 581/341/53 579/339/52
f 582/340/53 584/342/54 583/343/54 581/341/53
f 584/342/54 586/344/55 585/345/55 583/343/54
f 586/344/55 588/346/56 587/347/56 585/345/55
f 588/346/56 590/348/57 589/349/57 587/347/56
f 590/348/57 592/350/58 591/351/58 589/349/57
f 592/350/58 594/352/59 593/353/59 591/351/58
f 594/352/59 596/354/60 595/355/60 593/353/59
f 596/354/60 598/356/61 597/357/61 595/355/60
f 598/356/61 600/358/62 599/359/62 597/357/61
f 600/358/62 602/360/63 601/361/63 599/359/62
f 602/360/63 604/362/64 603/363/64 601/361/63
f 604/362/64 606/364/65 605/365/65 603/363/64
f 606/364/65 608/366/66 607/367/66 605/365/65
f 608/366/66 610/368/67 609/369/67 607/367/66
f 610/368/67 612/370/68 611/371/68 609/369/67
f 612/370/68 614/372/69 613/373/69 611/371/68
f 614/372/69 616/374/70 615/375/70 613/373/69
f 616/374/70 618/376/71 617/377/71 615/375/70
f 618/376/71 620/378/72 619/379/72 617/377/71
f 620/378/72 622/380/73 621/381/73 619/379/72
f 622/380/73 624/382/74 623/383/74 621/381/73
f 624/382/74 626/384/75 625/385/75 623/383/74
f 626/384/75 628/386/76 627/387/76 625/385/75
f 628/386/76 630/388/77 629/389/77 627/387/76
f 630/388/77 632/390/78 631/391/78 629/389/77
f 632/390/78 634/392/79 633/393/79 631/391/78
f 634/392/79 636/394/80 635/395/80 633/393/79
f 636/394/80 638/396/81 637/397/81 635/395/80
f 638/396/81 640/398/82 639/399/82 637/397/81
f 640/398/82 642/400/83 641/401/83 639/399/82
f 642/400/83 644/402/84 643/403/84 641/401/83
f 644/402/84 646/404/85 645/405/85 643/403/84
f 646/404/85 648/406/86 647/407/86 645/405/85
f 648/406/86 650/408/87 649/409/87 647/407/86
f 650/408/87 652/410/88 651/411/88 649/409/87
f 652/410/88 654/412/89 653/413/89 651/411/88
f 654/412/89 656/414/90 655/415/90 653/413/89
f 656/414/90 658/416/91 657/417/91 655/415/90
f 658/416/91 660/418/92 659/419/92 657/417/91
f 660/418/92 662/420/93 661/421/93 659/419/92
f 662/420/93 664/422/94 663/423/94 661/421/93
f 664/422/94 666/424/95 665/425/95 663/423/94
f 666/424/95 668/426/96 667/427/96 665/425/95
f 668/426/96 670/428/97 669/429/97 667/427/96
f 670/428/97 672/430/98 671/431/98 669/429/97
f 672/430/98 674/432/99 673/433/99 671/431/98
f 674/432/99 676/434/100 675/435/100 673/433/99
f 676/434/100 678/436/101 677/437/101 675/435/100
f 678/436/101 680/438/102 679/439/102 677/437/101
f 680/438/102 682/440/103 681/441/103 679/439/102
f 682/440/103 684/442/104 683/443/104 681/441/103
f 684/442/104 686/444/105 685/445/105 683/443/104
f 686/444/105 688/446/106 687/447/106 685/445/105
f 688/446/106 690/448/107 689/449/107 687/447/106
f 690/448/107 692/450/108 691/451/108 689/449/107
f 692/450/108 694/452/109 693/453/109 691/451/108
f 694/452/109 696/454/110 695/455/110 693/453/109
f 696/454/110 698/456/111 697/457/111 695/455/110
f 698/456/111 700/458/112 699/459/112 697/457/111
f 700/458/112 702/460/113 701/461/113 699/459/112
f 702/460/113 704/462/114 703/463/114 701/461/113
f 704/462/114 706/464/115 705/465/115 703/463/114
f 706/464/115 708/466/116 707/467/116 705/465/115
f 708/466/116 710/468/117 709/469/117 707/467/116
f 710/468/117 712/470/118 711/471/118 709/469/117
f 712/470/118 714/472/119 713/473/119 711/471/118
f 714/472/119 716/474/120 715/475/120 713/473/119
f 716/474/120 718/476/121 717/477/121 715/475/120
f 718/476/121 720/478/122 719/479/122 717/477/121
f 720/478/122 722/480/123 721/481/123 719/479/122
f 722/480/123 724/482/124 723/483/124 721/481/123
f 724/482/124 726/484/125 725/485/125 723/483/124
f 726/484/125 728/486/126 727/487/126 725/485/125
f 728/486/126 730/488/127 729/489/127 727/487/126
f 730/488/127 732/490/128 731/491/128 729/489/127
f 732/490/128 734/492/129 733/493/129 731/491/128
f 734/492/129 736/494/130 735/495/130 733/493/129
f 736/494/130 738/496/131 737/497/131 735/495/130
f 738/496/131 740/498/132 739/499/132 737/497/131
f 740/498/132 742/500/133 741/501/133 739/499/132
f 742/500/133 744/502/134 743/503/134 741/501/133
f 744/502/134 746/504/135 745/505/135 743/503/134
f 746/504/135 748/506/136 747/507/136 745/505/135
f 748/506/136 750/508/137 749/509/137 747/507/136
f 750/508/137 752/510/138 751/511/138 749/509/137
f 752/510/138 754/512/139 753/513/139 751/511/138
f 754/512/139 756/514/140 755/515/140 753/513/139
f 756/514/140 758/516/141 757/517/141 755/515/140
f 758/516/141 760/518/142 759/519/142 757/517/141
f 760/518/142 762/520/143 761/521/143 759/519/142
f 762/520/143 764/522/144 763/523/144 761/521/143
f 764/522/144 766/524/145 765/525/145 763/523/144
f 766/524/145 768/526/146 767/527/146 765/525/145
f 768/526/146 482/528/3 481/209/3 767/527/146
f 770/241/147 772/529/148 771/530/148 769/240/147
f 772/529/148 774/246/149 773/247/149 771/530/148
f 774/246/149 776/531/150 775/532/150 773/247/149
f 776/531/150 778/252/151 777/253/151 775/532/150
f 778/252/151 780/533/152 779/534/152 777/253/151
f 780/533/152 782/258/153 781/259/153 779/534/152
f 782/258/153 784/535/154 783/536/154 781/259/153
f 784/535/154 786/264/155 785/265/155 783/536/154
f 786/264/155 788/537/156 787/538/156 785/265/155
f 788/537/156 790/270/157 789/271/157 787/538/156
f 790/270/157 792/539/158 791/540/158 789/271/157
f 792/539/158 794/276/159 793/277/159 791/540/158
f 794/276/159 796/541/160 795/542/160 793/277/159
f 796/541/160 798/282/161 797/283/161 795/542/160
f 798/282/161 800/543/162 799/544/162 797/283/161
f 800/543/162 802/288/163 801/289/163 799/544/162
f 802/288/163 804/545/164 803/546/164 801/289/163
f 804/545/164 806/294/165 805/295/165 803/546/164
f 806/294/165 808/547/166 807/548/166 805/295/165
f 808/547/166 810/300/167 809/301/167 807/548/166
f 810/300/167 812/549/168 811/550/168 809/301/167
f 812/549/168 814/306/169 813/307/169 811/550/168
f 814/306/169 816/551/170 815/552/170 813/307/169
f 816/551/170 818/312/39 817/313/39 815/552/170
f 818/312/39 820/553/171 819/554/171 817/313/39
f 820/553/171 822/318/172 821/319/172 819/554/171
f 822/318/172 824/555/173 823/556/173 821/319/172
f 824/555/173 826/324/174 825/325/174 823/556/173
f 826/324/174 828/557/175 827/558/175 825/325/174
f 828/557/175 830/330/176 829/331/176 827/558/175
f 830/330/176 832/559/177 831/560/177 829/331/176
f 832/559/177 834/336/178 833/337/178 831/560/177
f 834/336/178 836/561/179 835/562/179 833/337/178
f 836/561/179 838/342/180 837/343/180 835/562/179
f 838/342/180 840/563/181 839/564/181 837/343/180
f 840/563/181 842/348/182 841/349/182 839/564/181
f 842/348/182 844/565/183 843/566/183 841/349/182
f 844/565/183 846/354/184 845/355/184 843/566/183
f 846/354/184 848/567/185 847/568/185 845/355/184
f 848/567/185 850/360/186 849/361/186 847/568/185
f 850/360/186 852/569/187 851/570/187 849/361/186
f 852/569/187 854/366/188 853/367/188 851/570/187
f 854/366/188 856/571/189 855/572/189 853/367/188
f 856/571/189 858/372/190 857/373/190 855/572/189
f 858/372/190 860/573/191 859/574/191 857/373/190
f 860/573/191 862/378/192 861/379/192 859/574/191
f 862/378/192 864/575/193 863/576/193 861/379/192
f 864/575/193 866/384/194 865/385/194 863/576/193
f 866/384/194 868/577/195 867/578/195 865/385/194
f 868/577/195 870/390/196 869/391/196 867/578/195
f 870/390/196 872/579/197 871/580/197 869/391/196
f 872/579/197 874/396/198 873/397/198 871/580/197
f 874/396/198 876/581/199 875/582/199 873/397/198
f 876/581/199 878/402/200 877/403/200 875/582/199
f 878/402/200 880/583/201 879/584/201 877/403/200
f 880/583/201 882/408/202 881/409/202 879/584/201
f 882/408/202 884/585/203 883/586/203 881/409/202
f 884/585/203 886/414/204 885/415/204 883/586/203
f 886/414/204 888/587/205 887/588/205 885/415/204
f 888/587/205 890/420/206 889/421/206 887/588/205
f 890/420/206 892/589/207 891/590/207 889/421/206
f 892/589/207 894/426/208 893/427/208 891/590/207
f 894/426/208 896/591/209 895/592/209 893/427/208
f 896/591/209 898/432/210 897/433/210 895/592/209
f 898/432/210 900/593/211 899/594/211 897/433/210
f 900/593/211 902/438/212 901/439/212 899/594/211
f 902/438/212 904/595/213 903/596/213 901/439/212
f 904/595/213 906/444/214 905/445/214 903/596/213
f 906/444/214 908/597/215 907/598/215 905/445/214
f 908/597/215 910/450/216 909/451/216 907/598/215
f 910/450/216 912/599/217 911/600/217 909/451/216
f 912/599/217 914/456/111 913/457/111 911/600/217
f 914/456/111 916/601/218 915/602/218 913/457/111
f 916/601/218 918/462/219 917/463/219 915/602/218
f 918/462/219 920/603/220 919/604/220 917/463/219
f 920/603/220 922/468/221 921/469/221 919/604/220
f 922/468/221 924/605/222 923/606/222 921/469/221
f 924/605/222 926/474/223 925/475/223 923/606/222
f 926/474/223 928/607/224 927/608/224 925/475/223
f 928/607/224 930/480/225 929/481/225 927/608/224
f 930/480/225 932/609/226 931/610/226 929/481/225
f 932/609/226 934/486/227 933/487/227 931/610/226
f 934/486/227 936/611/228 935/612/228 933/487/227
f 936/611/228 938/492/229 937/493/229 935/612/228
f 938/492/229 940/613/230 939/614/230 937/493/229
f 940/613/230 942/498/231 941/499/231 939/614/230
f 942/498/231 944/615/232 943/616/232 941/499/231
f 944/615/232 946/504/233 945/505/233 943/616/232
f 946/504/233 948/617/234 947/618/234 945/505/233
f 948/617/234 950/510/235 949/511/235 947/618/234
f 950/510/235 952/619/236 951/620/236 949/511/235
f 952/619/236 954/516/237 953/517/237 951/620/236
f 954/516/237 956/621/238 955/622/238 953/517/237
f 956/621/238 958/522/239 957/523/239 955/622/238
f 958/522/239 960/623/240 959/624/240 957/523/239
f 960/623/240 770/528/147 769/209/147 959/624/240
