# Blender 4.0.2
# www.blender.org
mtllib P_regular.mtl
o Text
v -0.563462 0.600000 1.350000
v -0.840385 0.600000 1.350000
v -0.840385 0.600000 -1.303846
v 0.194231 0.600000 -1.303846
v 0.255275 0.600000 -1.302284
v 0.314049 0.600000 -1.297596
v 0.370553 0.600000 -1.289784
v 0.424786 0.600000 -1.278846
v 0.476749 0.600000 -1.264784
v 0.526442 0.600000 -1.247596
v 0.573865 0.600000 -1.227284
v 0.619017 0.600000 -1.203846
v 0.661899 0.600000 -1.177284
v 0.702511 0.600000 -1.147596
v 0.740852 0.600000 -1.114784
v 0.776923 0.600000 -1.078846
v 0.810403 0.600000 -1.040238
v 0.840972 0.600000 -0.999413
v 0.868630 0.600000 -0.956370
v 0.893376 0.600000 -0.911111
v 0.915211 0.600000 -0.863635
v 0.934135 0.600000 -0.813942
v 0.950147 0.600000 -0.762033
v 0.963248 0.600000 -0.707906
v 0.973438 0.600000 -0.651563
v 0.980716 0.600000 -0.593002
v 0.985083 0.600000 -0.532225
v 0.986538 0.600000 -0.469231
v 0.985083 0.600000 -0.406237
v 0.980716 0.600000 -0.345459
v 0.973437 0.600000 -0.286899
v 0.963248 0.600000 -0.230556
v 0.950147 0.600000 -0.176429
v 0.934135 0.600000 -0.124519
v 0.915211 0.600000 -0.074827
v 0.893376 0.600000 -0.027351
v 0.868630 0.600000 0.017909
v 0.840972 0.600000 0.060951
v 0.810403 0.600000 0.101776
v 0.776923 0.600000 0.140385
v 0.740852 0.600000 0.176322
v 0.702511 0.600000 0.209135
v 0.661899 0.600000 0.238822
v 0.619017 0.600000 0.265385
v 0.573865 0.600000 0.288822
v 0.526442 0.600000 0.309135
v 0.476750 0.600000 0.326322
v 0.424786 0.600000 0.340385
v 0.370553 0.600000 0.351322
v 0.314049 0.600000 0.359135
v 0.255275 0.600000 0.363822
v 0.194231 0.600000 0.365385
v -0.563462 0.600000 0.365385
v -0.563462 0.600000 0.103846
v 0.182692 0.600000 0.103846
v 0.223584 0.600000 0.102871
v 0.262927 0.600000 0.099946
v 0.300721 0.600000 0.095072
v 0.336966 0.600000 0.088248
v 0.371661 0.600000 0.079474
v 0.404808 0.600000 0.068750
v 0.436405 0.600000 0.056076
v 0.466453 0.600000 0.041453
v 0.494952 0.600000 0.024880
v 0.521902 0.600000 0.006357
v 0.547302 0.600000 -0.014116
v 0.571154 0.600000 -0.036539
v 0.593269 0.600000 -0.060991
v 0.613462 0.600000 -0.087554
v 0.631731 0.600000 -0.116226
v 0.648077 0.600000 -0.147009
v 0.662500 0.600000 -0.179901
v 0.675000 0.600000 -0.214904
v 0.685577 0.600000 -0.252017
v 0.694231 0.600000 -0.291239
v 0.700962 0.600000 -0.332572
v 0.705769 0.600000 -0.376015
v 0.708654 0.600000 -0.421568
v 0.709615 0.600000 -0.469231
v 0.708654 0.600000 -0.516894
v 0.705769 0.600000 -0.562447
v 0.700962 0.600000 -0.605889
v 0.694231 0.600000 -0.647222
v 0.685577 0.600000 -0.686445
v 0.675000 0.600000 -0.723558
v 0.662500 0.600000 -0.758561
v 0.648077 0.600000 -0.791453
v 0.631731 0.600000 -0.822236
v 0.613462 0.600000 -0.850908
v 0.593269 0.600000 -0.877471
v 0.571154 0.600000 -0.901923
v 0.547302 0.600000 -0.924346
v 0.521902 0.600000 -0.944818
v 0.494952 0.600000 -0.963341
v 0.466453 0.600000 -0.979915
v 0.436405 0.600000 -0.994538
v 0.404808 0.600000 -1.007212
v 0.371661 0.600000 -1.017935
v 0.336966 0.600000 -1.026709
v 0.300721 0.600000 -1.033534
v 0.262927 0.600000 -1.038408
v 0.223584 0.600000 -1.041333
v 0.182692 0.600000 -1.042308
v -0.563462 0.600000 -1.042308
v -0.563462 0.000000 1.350000
v -0.840385 0.000000 1.350000
v -0.840385 0.000000 -1.303846
v 0.194231 0.000000 -1.303846
v 0.255275 0.000000 -1.302284
v 0.314049 0.000000 -1.297596
v 0.370553 0.000000 -1.289784
v 0.424786 0.000000 -1.278846
v 0.476749 0.000000 -1.264784
v 0.526442 0.000000 -1.247596
v 0.573865 0.000000 -1.227284
v 0.619017 0.000000 -1.203846
v 0.661899 0.000000 -1.177284
v 0.702511 0.000000 -1.147596
v 0.740852 0.000000 -1.114784
v 0.776923 0.000000 -1.078846
v 0.810403 0.000000 -1.040238
v 0.840972 0.000000 -0.999413
v 0.868630 0.000000 -0.956370
v 0.893376 0.000000 -0.911111
v 0.915211 0.000000 -0.863635
v 0.934135 0.000000 -0.813942
v 0.950147 0.000000 -0.762033
v 0.963248 0.000000 -0.707906
v 0.973438 0.000000 -0.651563
v 0.980716 0.000000 -0.593002
v 0.985083 0.000000 -0.532225
v 0.986538 0.000000 -0.469231
v 0.985083 0.000000 -0.406237
v 0.980716 0.000000 -0.345459
v 0.973437 0.000000 -0.286899
v 0.963248 0.000000 -0.230556
v 0.950147 0.000000 -0.176429
v 0.934135 0.000000 -0.124519
v 0.915211 0.000000 -0.074827
v 0.893376 0.000000 -0.027351
v 0.868630 0.000000 0.017909
v 0.840972 0.000000 0.060951
v 0.810403 0.000000 0.101776
v 0.776923 0.000000 0.140385
v 0.740852 0.000000 0.176322
v 0.702511 0.000000 0.209135
v 0.661899 0.000000 0.238822
v 0.619017 0.000000 0.265385
v 0.573865 0.000000 0.288822
v 0.526442 0.000000 0.309135
v 0.476750 0.000000 0.326322
v 0.424786 0.000000 0.340385
v 0.370553 0.000000 0.351322
v 0.314049 0.000000 0.359135
v 0.255275 0.000000 0.363822
v 0.194231 0.000000 0.365385
v -0.563462 0.000000 0.365385
v -0.563462 0.000000 0.103846
v 0.182692 0.000000 0.103846
v 0.223584 0.000000 0.102871
v 0.262927 0.000000 0.099946
v 0.300721 0.000000 0.095072
v 0.336966 0.000000 0.088248
v 0.371661 0.000000 0.079474
v 0.404808 0.000000 0.068750
v 0.436405 0.000000 0.056076
v 0.466453 0.000000 0.041453
v 0.494952 0.000000 0.024880
v 0.521902 0.000000 0.006357
v 0.547302 0.000000 -0.014116
v 0.571154 0.000000 -0.036539
v 0.593269 0.000000 -0.060991
v 0.613462 0.000000 -0.087554
v 0.631731 0.000000 -0.116226
v 0.648077 0.000000 -0.147009
v 0.662500 0.000000 -0.179901
v 0.675000 0.000000 -0.214904
v 0.685577 0.000000 -0.252017
v 0.694231 0.000000 -0.291239
v 0.700962 0.000000 -0.332572
v 0.705769 0.000000 -0.376015
v 0.708654 0.000000 -0.421568
v 0.709615 0.000000 -0.469231
v 0.708654 0.000000 -0.516894
v 0.705769 0.000000 -0.562447
v 0.700962 0.000000 -0.605889
v 0.694231 0.000000 -0.647222
v 0.685577 0.000000 -0.686445
v 0.675000 0.000000 -0.723558
v 0.662500 0.000000 -0.758561
v 0.648077 0.000000 -0.791453
v 0.631731 0.000000 -0.822236
v 0.613462 0.000000 -0.850908
v 0.593269 0.000000 -0.877471
v 0.571154 0.000000 -0.901923
v 0.547302 0.000000 -0.924346
v 0.521902 0.000000 -0.944818
v 0.494952 0.000000 -0.963341
v 0.466453 0.000000 -0.979915
v 0.436405 0.000000 -0.994538
v 0.404808 0.000000 -1.007212
v 0.371661 0.000000 -1.017935
v 0.336966 0.000000 -1.026709
v 0.300721 0.000000 -1.033534
v 0.262927 0.000000 -1.038408
v 0.223584 0.000000 -1.041333
v 0.182692 0.000000 -1.042308
v -0.563462 0.000000 -1.042308
v -0.563462 0.000000 1.350000
v -0.563462 0.600000 1.350000
v -0.840385 0.000000 1.350000
v -0.840385 0.600000 1.350000
v -0.840385 0.000000 -1.303846
v -0.840385 0.600000 -1.303846
v 0.194231 0.000000 -1.303846
v 0.194231 0.600000 -1.303846
v 0.255275 0.000000 -1.302284
v 0.255275 0.600000 -1.302284
v 0.314049 0.000000 -1.297596
v 0.314049 0.600000 -1.297596
v 0.370553 0.000000 -1.289784
v 0.370553 0.600000 -1.289784
v 0.424786 0.000000 -1.278846
v 0.424786 0.600000 -1.278846
v 0.476749 0.000000 -1.264784
v 0.476749 0.600000 -1.264784
v 0.526442 0.000000 -1.247596
v 0.526442 0.600000 -1.247596
v 0.573865 0.000000 -1.227284
v 0.573865 0.600000 -1.227284
v 0.619017 0.000000 -1.203846
v 0.619017 0.600000 -1.203846
v 0.661899 0.000000 -1.177284
v 0.661899 0.600000 -1.177284
v 0.702511 0.000000 -1.147596
v 0.702511 0.600000 -1.147596
v 0.740852 0.000000 -1.114784
v 0.740852 0.600000 -1.114784
v 0.776923 0.000000 -1.078846
v 0.776923 0.600000 -1.078846
v 0.810403 0.000000 -1.040238
v 0.810403 0.600000 -1.040238
v 0.840972 0.000000 -0.999413
v 0.840972 0.600000 -0.999413
v 0.868630 0.000000 -0.956370
v 0.868630 0.600000 -0.956370
v 0.893376 0.000000 -0.911111
v 0.893376 0.600000 -0.911111
v 0.915211 0.000000 -0.863635
v 0.915211 0.600000 -0.863635
v 0.934135 0.000000 -0.813942
v 0.934135 0.600000 -0.813942
v 0.950147 0.000000 -0.762033
v 0.950147 0.600000 -0.762033
v 0.963248 0.000000 -0.707906
v 0.963248 0.600000 -0.707906
v 0.973438 0.000000 -0.651563
v 0.973438 0.600000 -0.651563
v 0.980716 0.000000 -0.593002
v 0.980716 0.600000 -0.593002
v 0.985083 0.000000 -0.532225
v 0.985083 0.600000 -0.532225
v 0.986538 0.000000 -0.469231
v 0.986538 0.600000 -0.469231
v 0.985083 0.000000 -0.406237
v 0.985083 0.600000 -0.406237
v 0.980716 0.000000 -0.345459
v 0.980716 0.600000 -0.345459
v 0.973437 0.000000 -0.286899
v 0.973437 0.600000 -0.286899
v 0.963248 0.000000 -0.230556
v 0.963248 0.600000 -0.230556
v 0.950147 0.000000 -0.176429
v 0.950147 0.600000 -0.176429
v 0.934135 0.000000 -0.124519
v 0.934135 0.600000 -0.124519
v 0.915211 0.000000 -0.074827
v 0.915211 0.600000 -0.074827
v 0.893376 0.000000 -0.027351
v 0.893376 0.600000 -0.027351
v 0.868630 0.000000 0.017909
v 0.868630 0.600000 0.017909
v 0.840972 0.000000 0.060951
v 0.840972 0.600000 0.060951
v 0.810403 0.000000 0.101776
v 0.810403 0.600000 0.101776
v 0.776923 0.000000 0.140385
v 0.776923 0.600000 0.140385
v 0.740852 0.000000 0.176322
v 0.740852 0.600000 0.176322
v 0.702511 0.000000 0.209135
v 0.702511 0.600000 0.209135
v 0.661899 0.000000 0.238822
v 0.661899 0.600000 0.238822
v 0.619017 0.000000 0.265385
v 0.619017 0.600000 0.265385
v 0.573865 0.000000 0.288822
v 0.573865 0.600000 0.288822
v 0.526442 0.000000 0.309135
v 0.526442 0.600000 0.309135
v 0.476750 0.000000 0.326322
v 0.476750 0.600000 0.326322
v 0.424786 0.000000 0.340385
v 0.424786 0.600000 0.340385
v 0.370553 0.000000 0.351322
v 0.370553 0.600000 0.351322
v 0.314049 0.000000 0.359135
v 0.314049 0.600000 0.359135
v 0.255275 0.000000 0.363822
v 0.255275 0.600000 0.363822
v 0.194231 0.000000 0.365385
v 0.194231 0.600000 0.365385
v -0.563462 0.000000 0.365385
v -0.563462 0.600000 0.365385
v -0.563462 0.000000 0.103846
v -0.563462 0.600000 0.103846
v 0.182692 0.000000 0.103846
v 0.182692 0.600000 0.103846
v 0.223584 0.000000 0.102871
v 0.223584 0.600000 0.102871
v 0.262927 0.000000 0.099946
v 0.262927 0.600000 0.099946
v 0.300721 0.000000 0.095072
v 0.300721 0.600000 0.095072
v 0.336966 0.000000 0.088248
v 0.336966 0.600000 0.088248
v 0.371661 0.000000 0.079474
v 0.371661 0.600000 0.079474
v 0.404808 0.000000 0.068750
v 0.404808 0.600000 0.068750
v 0.436405 0.000000 0.056076
v 0.436405 0.600000 0.056076
v 0.466453 0.000000 0.041453
v 0.466453 0.600000 0.041453
v 0.494952 0.000000 0.024880
v 0.494952 0.600000 0.024880
v 0.521902 0.000000 0.006357
v 0.521902 0.600000 0.006357
v 0.547302 0.000000 -0.014116
v 0.547302 0.600000 -0.014116
v 0.571154 0.000000 -0.036539
v 0.571154 0.600000 -0.036539
v 0.593269 0.000000 -0.060991
v 0.593269 0.600000 -0.060991
v 0.613462 0.000000 -0.087554
v 0.613462 0.600000 -0.087554
v 0.631731 0.000000 -0.116226
v 0.631731 0.600000 -0.116226
v 0.648077 0.000000 -0.147009
v 0.648077 0.600000 -0.147009
v 0.662500 0.000000 -0.179901
v 0.662500 0.600000 -0.179901
v 0.675000 0.000000 -0.214904
v 0.675000 0.600000 -0.214904
v 0.685577 0.000000 -0.252017
v 0.685577 0.600000 -0.252017
v 0.694231 0.000000 -0.291239
v 0.694231 0.600000 -0.291239
v 0.700962 0.000000 -0.332572
v 0.700962 0.600000 -0.332572
v 0.705769 0.000000 -0.376015
v 0.705769 0.600000 -0.376015
v 0.708654 0.000000 -0.421568
v 0.708654 0.600000 -0.421568
v 0.709615 0.000000 -0.469231
v 0.709615 0.600000 -0.469231
v 0.708654 0.000000 -0.516894
v 0.708654 0.600000 -0.516894
v 0.705769 0.000000 -0.562447
v 0.705769 0.600000 -0.562447
v 0.700962 0.000000 -0.605889
v 0.700962 0.600000 -0.605889
v 0.694231 0.000000 -0.647222
v 0.694231 0.600000 -0.647222
v 0.685577 0.000000 -0.686445
v 0.685577 0.600000 -0.686445
v 0.675000 0.000000 -0.723558
v 0.675000 0.600000 -0.723558
v 0.662500 0.000000 -0.758561
v 0.662500 0.600000 -0.758561
v 0.648077 0.000000 -0.791453
v 0.648077 0.600000 -0.791453
v 0.631731 0.000000 -0.822236
v 0.631731 0.600000 -0.822236
v 0.613462 0.000000 -0.850908
v 0.613462 0.600000 -0.850908
v 0.593269 0.000000 -0.877471
v 0.593269 0.600000 -0.877471
v 0.571154 0.000000 -0.901923
v 0.571154 0.600000 -0.901923
v 0.547302 0.000000 -0.924346
v 0.547302 0.600000 -0.924346
v 0.521902 0.000000 -0.944818
v 0.521902 0.600000 -0.944818
v 0.494952 0.000000 -0.963341
v 0.494952 0.600000 -0.963341
v 0.466453 0.000000 -0.979915
v 0.466453 0.600000 -0.979915
v 0.436405 0.000000 -0.994538
v 0.436405 0.600000 -0.994538
v 0.404808 0.000000 -1.007212
v 0.404808 0.600000 -1.007212
v 0.371661 0.000000 -1.017935
v 0.371661 0.600000 -1.017935
v 0.336966 0.000000 -1.026709
v 0.336966 0.600000 -1.026709
v 0.300721 0.000000 -1.033534
v 0.300721 0.600000 -1.033534
v 0.262927 0.000000 -1.038408
v 0.262927 0.600000 -1.038408
v 0.223584 0.000000 -1.041333
v 0.223584 0.600000 -1.041333
v 0.182692 0.000000 -1.042308
v 0.182692 0.600000 -1.042308
v -0.563462 0.000000 -1.042308
v -0.563462 0.600000 -1.042308
vn -0.0000 1.0000 -0.0000
vn -0.0000 -1.0000 -0.0000
vn 0.7071 -0.0000 0.7071
vn -0.7071 -0.0000 0.7071
vn -0.7071 -0.0000 -0.7071
vn 0.0128 -0.0000 -0.9999
vn 0.0526 -0.0000 -0.9986
vn 0.1083 -0.0000 -0.9941
vn 0.1674 -0.0000 -0.9859
vn 0.2296 -0.0000 -0.9733
vn 0.2942 -0.0000 -0.9557
vn 0.3605 -0.0000 -0.9327
vn 0.4275 -0.0000 -0.9040
vn 0.4940 -0.0000 -0.8695
vn 0.5588 -0.0000 -0.8293
vn 0.6206 -0.0000 -0.7841
vn 0.6785 -0.0000 -0.7346
vn 0.7311 -0.0000 -0.6822
vn 0.7785 -0.0000 -0.6277
vn 0.8214 -0.0000 -0.5703
vn 0.8599 -0.0000 -0.5105
vn 0.8935 -0.0000 -0.4491
vn 0.9220 -0.0000 -0.3871
vn 0.9455 -0.0000 -0.3255
vn 0.9642 -0.0000 -0.2651
vn 0.9784 -0.0000 -0.2067
vn 0.9886 -0.0000 -0.1507
vn 0.9952 -0.0000 -0.0975
vn 0.9989 -0.0000 -0.0474
vn 1.0000 -0.0000 -0.0000
vn 0.9989 -0.0000 0.0474
vn 0.9952 -0.0000 0.0975
vn 0.9886 -0.0000 0.1507
vn 0.9784 -0.0000 0.2067
vn 0.9642 -0.0000 0.2651
vn 0.9455 -0.0000 0.3255
vn 0.9220 -0.0000 0.3871
vn 0.8935 -0.0000 0.4491
vn 0.8599 -0.0000 0.5105
vn 0.8214 -0.0000 0.5703
vn 0.7785 -0.0000 0.6277
vn 0.7311 -0.0000 0.6822
vn 0.6785 -0.0000 0.7346
vn 0.6206 -0.0000 0.7841
vn 0.5588 -0.0000 0.8293
vn 0.4940 -0.0000 0.8695
vn 0.4275 -0.0000 0.9040
vn 0.3605 -0.0000 0.9327
vn 0.2942 -0.0000 0.9557
vn 0.2296 -0.0000 0.9733
vn 0.1674 -0.0000 0.9859
vn 0.1083 -0.0000 0.9941
vn 0.0526 -0.0000 0.9986
vn 0.0128 -0.0000 0.9999
vn 0.7071 -0.0000 -0.7071
vn -0.0119 -0.0000 -0.9999
vn -0.0490 -0.0000 -0.9988
vn -0.1011 -0.0000 -0.9949
vn -0.1565 -0.0000 -0.9877
vn -0.2152 -0.0000 -0.9766
vn -0.2766 -0.0000 -0.9610
vn -0.3402 -0.0000 -0.9403
vn -0.4052 -0.0000 -0.9142
vn -0.4705 -0.0000 -0.8824
vn -0.5349 -0.0000 -0.8449
vn -0.5974 -0.0000 -0.8019
vn -0.6567 -0.0000 -0.7541
vn -0.7139 -0.0000 -0.7003
vn -0.7696 -0.0000 -0.6386
vn -0.8204 -0.0000 -0.5718
vn -0.8640 -0.0000 -0.5036
vn -0.9001 -0.0000 -0.4356
vn -0.9294 -0.0000 -0.3692
vn -0.9522 -0.0000 -0.3054
vn -0.9696 -0.0000 -0.2449
vn -0.9821 -0.0000 -0.1882
vn -0.9908 -0.0000 -0.1354
vn -0.9962 -0.0000 -0.0866
vn -0.9991 -0.0000 -0.0417
vn -1.0000 -0.0000 -0.0000
vn -0.9991 -0.0000 0.0417
vn -0.9962 -0.0000 0.0866
vn -0.9908 -0.0000 0.1354
vn -0.9821 -0.0000 0.1882
vn -0.9696 -0.0000 0.2449
vn -0.9522 -0.0000 0.3054
vn -0.9294 -0.0000 0.3692
vn -0.9001 -0.0000 0.4356
vn -0.8640 -0.0000 0.5036
vn -0.8204 -0.0000 0.5718
vn -0.7696 -0.0000 0.6386
vn -0.7139 -0.0000 0.7003
vn -0.6567 -0.0000 0.7541
vn -0.5974 -0.0000 0.8019
vn -0.5349 -0.0000 0.8449
vn -0.4705 -0.0000 0.8824
vn -0.4052 -0.0000 0.9142
vn -0.3402 -0.0000 0.9403
vn -0.2766 -0.0000 0.9610
vn -0.2152 -0.0000 0.9766
vn -0.1565 -0.0000 0.9877
vn -0.1011 -0.0000 0.9949
vn -0.0490 -0.0000 0.9988
vn -0.0119 -0.0000 0.9999
vt 0.009709 0.000000
vt 1.000000 0.000000
vt 0.019417 0.000000
vt 0.029126 0.000000
vt 0.038835 0.000000
vt 0.048544 0.000000
vt 0.058252 0.000000
vt 0.067961 0.000000
vt 0.077670 0.000000
vt 0.087379 0.000000
vt 0.097087 0.000000
vt 0.106796 0.000000
vt 0.116505 0.000000
vt 0.126214 0.000000
vt 0.135922 0.000000
vt 0.145631 0.000000
vt 0.990291 0.000000
vt 0.155340 0.000000
vt 0.514563 0.000000
vt 0.980583 0.000000
vt 0.970874 0.000000
vt 0.165049 0.000000
vt 0.961165 0.000000
vt 0.951456 0.000000
vt 0.941748 0.000000
vt 0.932039 0.000000
vt 0.922330 0.000000
vt 0.174757 0.000000
vt 0.912621 0.000000
vt 0.902913 0.000000
vt 0.893204 0.000000
vt 0.184466 0.000000
vt 0.883495 0.000000
vt 0.873786 0.000000
vt 0.194175 0.000000
vt 0.864078 0.000000
vt 0.854369 0.000000
vt 0.203883 0.000000
vt 0.844660 0.000000
vt 0.834951 0.000000
vt 0.213592 0.000000
vt 0.825243 0.000000
vt 0.223301 0.000000
vt 0.815534 0.000000
vt 0.805825 0.000000
vt 0.233010 0.000000
vt 0.796117 0.000000
vt 0.242718 0.000000
vt 0.786408 0.000000
vt 0.776699 0.000000
vt 0.252427 0.000000
vt 0.766990 0.000000
vt 0.262136 0.000000
vt 0.757282 0.000000
vt 0.747573 0.000000
vt 0.271845 0.000000
vt 0.737864 0.000000
vt 0.281553 0.000000
vt 0.728155 0.000000
vt 0.291262 0.000000
vt 0.718447 0.000000
vt 0.708738 0.000000
vt 0.300971 0.000000
vt 0.699029 0.000000
vt 0.310680 0.000000
vt 0.689320 0.000000
vt 0.679612 0.000000
vt 0.320388 0.000000
vt 0.669903 0.000000
vt 0.330097 0.000000
vt 0.660194 0.000000
vt 0.650485 0.000000
vt 0.339806 0.000000
vt 0.640777 0.000000
vt 0.631068 0.000000
vt 0.349515 0.000000
vt 0.621359 0.000000
vt 0.611650 0.000000
vt 0.359223 0.000000
vt 0.601942 0.000000
vt 0.592233 0.000000
vt 0.582524 0.000000
vt 0.368932 0.000000
vt 0.572816 0.000000
vt 0.563107 0.000000
vt 0.553398 0.000000
vt 0.543689 0.000000
vt 0.533981 0.000000
vt 0.378641 0.000000
vt 0.524272 0.000000
vt 0.504854 0.000000
vt 0.388350 0.000000
vt 0.398058 0.000000
vt 0.407767 0.000000
vt 0.417476 0.000000
vt 0.427184 0.000000
vt 0.436893 0.000000
vt 0.446602 0.000000
vt 0.456311 0.000000
vt 0.466019 0.000000
vt 0.475728 0.000000
vt 0.485437 0.000000
vt 0.495146 0.000000
vt 0.000000 0.000000
vt 0.000000 1.000000
vt 0.018868 1.000000
vt 0.018868 0.000000
vt 0.037736 1.000000
vt 0.037736 0.000000
vt 0.056604 1.000000
vt 0.056604 0.000000
vt 0.075472 1.000000
vt 0.075472 0.000000
vt 0.094340 1.000000
vt 0.094340 0.000000
vt 0.113208 1.000000
vt 0.113208 0.000000
vt 0.132075 1.000000
vt 0.132075 0.000000
vt 0.150943 1.000000
vt 0.150943 0.000000
vt 0.169811 1.000000
vt 0.169811 0.000000
vt 0.188679 1.000000
vt 0.188679 0.000000
vt 0.207547 1.000000
vt 0.207547 0.000000
vt 0.226415 1.000000
vt 0.226415 0.000000
vt 0.245283 1.000000
vt 0.245283 0.000000
vt 0.264151 1.000000
vt 0.264151 0.000000
vt 0.283019 1.000000
vt 0.283019 0.000000
vt 0.301887 1.000000
vt 0.301887 0.000000
vt 0.320755 1.000000
vt 0.320755 0.000000
vt 0.339623 1.000000
vt 0.339623 0.000000
vt 0.358491 1.000000
vt 0.358491 0.000000
vt 0.377358 1.000000
vt 0.377358 0.000000
vt 0.396226 1.000000
vt 0.396226 0.000000
vt 0.415094 1.000000
vt 0.415094 0.000000
vt 0.433962 1.000000
vt 0.433962 0.000000
vt 0.452830 1.000000
vt 0.452830 0.000000
vt 0.471698 1.000000
vt 0.471698 0.000000
vt 0.490566 1.000000
vt 0.490566 0.000000
vt 0.509434 1.000000
vt 0.509434 0.000000
vt 0.528302 1.000000
vt 0.528302 0.000000
vt 0.547170 1.000000
vt 0.547170 0.000000
vt 0.566038 1.000000
vt 0.566038 0.000000
vt 0.584906 1.000000
vt 0.584906 0.000000
vt 0.603774 1.000000
vt 0.603774 0.000000
vt 0.622642 1.000000
vt 0.622642 0.000000
vt 0.641509 1.000000
vt 0.641509 0.000000
vt 0.660377 1.000000
vt 0.660377 0.000000
vt 0.679245 1.000000
vt 0.679245 0.000000
vt 0.698113 1.000000
vt 0.698113 0.000000
vt 0.716981 1.000000
vt 0.716981 0.000000
vt 0.735849 1.000000
vt 0.735849 0.000000
vt 0.754717 1.000000
vt 0.754717 0.000000
vt 0.773585 1.000000
vt 0.773585 0.000000
vt 0.792453 1.000000
vt 0.792453 0.000000
vt 0.811321 1.000000
vt 0.811321 0.000000
vt 0.830189 1.000000
vt 0.830189 0.000000
vt 0.849057 1.000000
vt 0.849057 0.000000
vt 0.867925 1.000000
vt 0.867925 0.000000
vt 0.886792 1.000000
vt 0.886792 0.000000
vt 0.905660 1.000000
vt 0.905660 0.000000
vt 0.924528 1.000000
vt 0.924528 0.000000
vt 0.943396 1.000000
vt 0.943396 0.000000
vt 0.962264 1.000000
vt 0.962264 0.000000
vt 0.981132 1.000000
vt 0.981132 0.000000
vt 1.000000 1.000000
vt 0.019608 1.000000
vt 0.019608 0.000000
vt 0.039216 1.000000
vt 0.039216 0.000000
vt 0.058824 1.000000
vt 0.058824 0.000000
vt 0.078431 1.000000
vt 0.078431 0.000000
vt 0.098039 1.000000
vt 0.098039 0.000000
vt 0.117647 1.000000
vt 0.117647 0.000000
vt 0.137255 1.000000
vt 0.137255 0.000000
vt 0.156863 1.000000
vt 0.156863 0.000000
vt 0.176471 1.000000
vt 0.176471 0.000000
vt 0.196078 1.000000
vt 0.196078 0.000000
vt 0.215686 1.000000
vt 0.215686 0.000000
vt 0.235294 1.000000
vt 0.235294 0.000000
vt 0.254902 1.000000
vt 0.254902 0.000000
vt 0.274510 1.000000
vt 0.274510 0.000000
vt 0.294118 1.000000
vt 0.294118 0.000000
vt 0.313726 1.000000
vt 0.313726 0.000000
vt 0.333333 1.000000
vt 0.333333 0.000000
vt 0.352941 1.000000
vt 0.352941 0.000000
vt 0.372549 1.000000
vt 0.372549 0.000000
vt 0.392157 1.000000
vt 0.392157 0.000000
vt 0.411765 1.000000
vt 0.411765 0.000000
vt 0.431373 1.000000
vt 0.431373 0.000000
vt 0.450980 1.000000
vt 0.450980 0.000000
vt 0.470588 1.000000
vt 0.470588 0.000000
vt 0.490196 1.000000
vt 0.490196 0.000000
vt 0.509804 1.000000
vt 0.509804 0.000000
vt 0.529412 1.000000
vt 0.529412 0.000000
vt 0.549020 1.000000
vt 0.549020 0.000000
vt 0.568627 1.000000
vt 0.568627 0.000000
vt 0.588235 1.000000
vt 0.588235 0.000000
vt 0.607843 1.000000
vt 0.607843 0.000000
vt 0.627451 1.000000
vt 0.627451 0.000000
vt 0.647059 1.000000
vt 0.647059 0.000000
vt 0.666667 1.000000
vt 0.666667 0.000000
vt 0.686275 1.000000
vt 0.686275 0.000000
vt 0.705882 1.000000
vt 0.705882 0.000000
vt 0.725490 1.000000
vt 0.725490 0.000000
vt 0.745098 1.000000
vt 0.745098 0.000000
vt 0.764706 1.000000
vt 0.764706 0.000000
vt 0.784314 1.000000
vt 0.784314 0.000000
vt 0.803922 1.000000
vt 0.803922 0.000000
vt 0.823529 1.000000
vt 0.823529 0.000000
vt 0.843137 1.000000
vt 0.843137 0.000000
vt 0.862745 1.000000
vt 0.862745 0.000000
vt 0.882353 1.000000
vt 0.882353 0.000000
vt 0.901961 1.000000
vt 0.901961 0.000000
vt 0.921569 1.000000
vt 0.921569 0.000000
vt 0.941176 1.000000
vt 0.941176 0.000000
vt 0.960784 1.000000
vt 0.960784 0.000000
vt 0.980392 1.000000
vt 0.980392 0.000000
s 0
usemtl Material.001
f 2/1/1 104/2/1 3/3/1
f 104/2/1 4/4/1 3/3/1
f 104/2/1 5/5/1 4/4/1
f 104/2/1 6/6/1 5/5/1
f 104/2/1 7/7/1 6/6/1
f 104/2/1 8/8/1 7/7/1
f 104/2/1 9/9/1 8/8/1
f 104/2/1 10/10/1 9/9/1
f 104/2/1 11/11/1 10/10/1
f 104/2/1 12/12/1 11/11/1
f 104/2/1 13/13/1 12/12/1
f 104/2/1 14/14/1 13/13/1
f 104/2/1 15/15/1 14/14/1
f 104/2/1 16/16/1 15/15/1
f 104/2/1 103/17/1 16/16/1
f 103/17/1 17/18/1 16/16/1
f 2/1/1 54/19/1 104/2/1
f 102/20/1 17/18/1 103/17/1
f 101/21/1 17/18/1 102/20/1
f 101/21/1 18/22/1 17/18/1
f 100/23/1 18/22/1 101/21/1
f 99/24/1 18/22/1 100/23/1
f 98/25/1 18/22/1 99/24/1
f 97/26/1 18/22/1 98/25/1
f 96/27/1 18/22/1 97/26/1
f 96/27/1 19/28/1 18/22/1
f 95/29/1 19/28/1 96/27/1
f 94/30/1 19/28/1 95/29/1
f 93/31/1 19/28/1 94/30/1
f 93/31/1 20/32/1 19/28/1
f 92/33/1 20/32/1 93/31/1
f 91/34/1 20/32/1 92/33/1
f 91/34/1 21/35/1 20/32/1
f 90/36/1 21/35/1 91/34/1
f 89/37/1 21/35/1 90/36/1
f 89/37/1 22/38/1 21/35/1
f 88/39/1 22/38/1 89/37/1
f 87/40/1 22/38/1 88/39/1
f 87/40/1 23/41/1 22/38/1
f 86/42/1 23/41/1 87/40/1
f 86/42/1 24/43/1 23/41/1
f 85/44/1 24/43/1 86/42/1
f 84/45/1 24/43/1 85/44/1
f 84/45/1 25/46/1 24/43/1
f 83/47/1 25/46/1 84/45/1
f 83/47/1 26/48/1 25/46/1
f 82/49/1 26/48/1 83/47/1
f 81/50/1 26/48/1 82/49/1
f 81/50/1 27/51/1 26/48/1
f 80/52/1 27/51/1 81/50/1
f 80/52/1 28/53/1 27/51/1
f 79/54/1 28/53/1 80/52/1
f 78/55/1 28/53/1 79/54/1
f 78/55/1 29/56/1 28/53/1
f 77/57/1 29/56/1 78/55/1
f 77/57/1 30/58/1 29/56/1
f 76/59/1 30/58/1 77/57/1
f 76/59/1 31/60/1 30/58/1
f 75/61/1 31/60/1 76/59/1
f 74/62/1 31/60/1 75/61/1
f 74/62/1 32/63/1 31/60/1
f 73/64/1 32/63/1 74/62/1
f 73/64/1 33/65/1 32/63/1
f 72/66/1 33/65/1 73/64/1
f 71/67/1 33/65/1 72/66/1
f 71/67/1 34/68/1 33/65/1
f 70/69/1 34/68/1 71/67/1
f 70/69/1 35/70/1 34/68/1
f 69/71/1 35/70/1 70/69/1
f 68/72/1 35/70/1 69/71/1
f 68/72/1 36/73/1 35/70/1
f 67/74/1 36/73/1 68/72/1
f 66/75/1 36/73/1 67/74/1
f 66/75/1 37/76/1 36/73/1
f 65/77/1 37/76/1 66/75/1
f 64/78/1 37/76/1 65/77/1
f 64/78/1 38/79/1 37/76/1
f 63/80/1 38/79/1 64/78/1
f 62/81/1 38/79/1 63/80/1
f 61/82/1 38/79/1 62/81/1
f 61/82/1 39/83/1 38/79/1
f 60/84/1 39/83/1 61/82/1
f 59/85/1 39/83/1 60/84/1
f 58/86/1 39/83/1 59/85/1
f 57/87/1 39/83/1 58/86/1
f 56/88/1 39/83/1 57/87/1
f 56/88/1 40/89/1 39/83/1
f 55/90/1 40/89/1 56/88/1
f 2/1/1 53/91/1 54/19/1
f 53/91/1 55/90/1 54/19/1
f 53/91/1 40/89/1 55/90/1
f 53/91/1 41/92/1 40/89/1
f 53/91/1 42/93/1 41/92/1
f 53/91/1 43/94/1 42/93/1
f 53/91/1 44/95/1 43/94/1
f 53/91/1 45/96/1 44/95/1
f 53/91/1 46/97/1 45/96/1
f 53/91/1 47/98/1 46/97/1
f 53/91/1 48/99/1 47/98/1
f 53/91/1 49/100/1 48/99/1
f 53/91/1 50/101/1 49/100/1
f 53/91/1 51/102/1 50/101/1
f 53/91/1 52/103/1 51/102/1
f 2/1/1 1/104/1 53/91/1
f 106/1/2 107/3/2 208/2/2
f 208/2/2 107/3/2 108/4/2
f 208/2/2 108/4/2 109/5/2
f 208/2/2 109/5/2 110/6/2
f 208/2/2 110/6/2 111/7/2
f 208/2/2 111/7/2 112/8/2
f 208/2/2 112/8/2 113/9/2
f 208/2/2 113/9/2 114/10/2
f 208/2/2 114/10/2 115/11/2
f 208/2/2 115/11/2 116/12/2
f 208/2/2 116/12/2 117/13/2
f 208/2/2 117/13/2 118/14/2
f 208/2/2 118/14/2 119/15/2
f 208/2/2 119/15/2 120/16/2
f 208/2/2 120/16/2 207/17/2
f 207/17/2 120/16/2 121/18/2
f 106/1/2 208/2/2 158/19/2
f 206/20/2 207/17/2 121/18/2
f 205/21/2 206/20/2 121/18/2
f 205/21/2 121/18/2 122/22/2
f 204/23/2 205/21/2 122/22/2
f 203/24/2 204/23/2 122/22/2
f 202/25/2 203/24/2 122/22/2
f 201/26/2 202/25/2 122/22/2
f 200/27/2 201/26/2 122/22/2
f 200/27/2 122/22/2 123/28/2
f 199/29/2 200/27/2 123/28/2
f 198/30/2 199/29/2 123/28/2
f 197/31/2 198/30/2 123/28/2
f 197/31/2 123/28/2 124/32/2
f 196/33/2 197/31/2 124/32/2
f 195/34/2 196/33/2 124/32/2
f 195/34/2 124/32/2 125/35/2
f 194/36/2 195/34/2 125/35/2
f 193/37/2 194/36/2 125/35/2
f 193/37/2 125/35/2 126/38/2
f 192/39/2 193/37/2 126/38/2
f 191/40/2 192/39/2 126/38/2
f 191/40/2 126/38/2 127/41/2
f 190/42/2 191/40/2 127/41/2
f 190/42/2 127/41/2 128/43/2
f 189/44/2 190/42/2 128/43/2
f 188/45/2 189/44/2 128/43/2
f 188/45/2 128/43/2 129/46/2
f 187/47/2 188/45/2 129/46/2
f 187/47/2 129/46/2 130/48/2
f 186/49/2 187/47/2 130/48/2
f 185/50/2 186/49/2 130/48/2
f 185/50/2 130/48/2 131/51/2
f 184/52/2 185/50/2 131/51/2
f 184/52/2 131/51/2 132/53/2
f 183/54/2 184/52/2 132/53/2
f 182/55/2 183/54/2 132/53/2
f 182/55/2 132/53/2 133/56/2
f 181/57/2 182/55/2 133/56/2
f 181/57/2 133/56/2 134/58/2
f 180/59/2 181/57/2 134/58/2
f 180/59/2 134/58/2 135/60/2
f 179/61/2 180/59/2 135/60/2
f 178/62/2 179/61/2 135/60/2
f 178/62/2 135/60/2 136/63/2
f 177/64/2 178/62/2 136/63/2
f 177/64/2 136/63/2 137/65/2
f 176/66/2 177/64/2 137/65/2
f 175/67/2 176/66/2 137/65/2
f 175/67/2 137/65/2 138/68/2
f 174/69/2 175/67/2 138/68/2
f 174/69/2 138/68/2 139/70/2
f 173/71/2 174/69/2 139/70/2
f 172/72/2 173/71/2 139/70/2
f 172/72/2 139/70/2 140/73/2
f 171/74/2 172/72/2 140/73/2
f 170/75/2 171/74/2 140/73/2
f 170/75/2 140/73/2 141/76/2
f 169/77/2 170/75/2 141/76/2
f 168/78/2 169/77/2 141/76/2
f 168/78/2 141/76/2 142/79/2
f 167/80/2 168/78/2 142/79/2
f 166/81/2 167/80/2 142/79/2
f 165/82/2 166/81/2 142/79/2
f 165/82/2 142/79/2 143/83/2
f 164/84/2 165/82/2 143/83/2
f 163/85/2 164/84/2 143/83/2
f 162/86/2 163/85/2 143/83/2
f 161/87/2 162/86/2 143/83/2
f 160/88/2 161/87/2 143/83/2
f 160/88/2 143/83/2 144/89/2
f 159/90/2 160/88/2 144/89/2
f 106/1/2 158/19/2 157/91/2
f 157/91/2 158/19/2 159/90/2
f 157/91/2 159/90/2 144/89/2
f 157/91/2 144/89/2 145/92/2
f 157/91/2 145/92/2 146/93/2
f 157/91/2 146/93/2 147/94/2
f 157/91/2 147/94/2 148/95/2
f 157/91/2 148/95/2 149/96/2
f 157/91/2 149/96/2 150/97/2
f 157/91/2 150/97/2 151/98/2
f 157/91/2 151/98/2 152/99/2
f 157/91/2 152/99/2 153/100/2
f 157/91/2 153/100/2 154/101/2
f 157/91/2 154/101/2 155/102/2
f 157/91/2 155/102/2 156/103/2
f 106/1/2 157/91/2 105/104/2
s 1
f 210/105/3 212/106/4 211/107/4 209/104/3
f 212/106/4 214/108/5 213/109/5 211/107/4
f 214/108/5 216/110/6 215/111/6 213/109/5
f 216/110/6 218/112/7 217/113/7 215/111/6
f 218/112/7 220/114/8 219/115/8 217/113/7
f 220/114/8 222/116/9 221/117/9 219/115/8
f 222/116/9 224/118/10 223/119/10 221/117/9
f 224/118/10 226/120/11 225/121/11 223/119/10
f 226/120/11 228/122/12 227/123/12 225/121/11
f 228/122/12 230/124/13 229/125/13 227/123/12
f 230/124/13 232/126/14 231/127/14 229/125/13
f 232/126/14 234/128/15 233/129/15 231/127/14
f 234/128/15 236/130/16 235/131/16 233/129/15
f 236/130/16 238/132/17 237/133/17 235/131/16
f 238/132/17 240/134/18 239/135/18 237/133/17
f 240/134/18 242/136/19 241/137/19 239/135/18
f 242/136/19 244/138/20 243/139/20 241/137/19
f 244/138/20 246/140/21 245/141/21 243/139/20
f 246/140/21 248/142/22 247/143/22 245/141/21
f 248/142/22 250/144/23 249/145/23 247/143/22
f 250/144/23 252/146/24 251/147/24 249/145/23
f 252/146/24 254/148/25 253/149/25 251/147/24
f 254/148/25 256/150/26 255/151/26 253/149/25
f 256/150/26 258/152/27 257/153/27 255/151/26
f 258/152/27 260/154/28 259/155/28 257/153/27
f 260/154/28 262/156/29 261/157/29 259/155/28
f 262/156/29 264/158/30 263/159/30 261/157/29
f 264/158/30 266/160/31 265/161/31 263/159/30
f 266/160/31 268/162/32 267/163/32 265/161/31
f 268/162/32 270/164/33 269/165/33 267/163/32
f 270/164/33 272/166/34 271/167/34 269/165/33
f 272/166/34 274/168/35 273/169/35 271/167/34
f 274/168/35 276/170/36 275/171/36 273/169/35
f 276/170/36 278/172/37 277/173/37 275/171/36
f 278/172/37 280/174/38 279/175/38 277/173/37
f 280/174/38 282/176/39 281/177/39 279/175/38
f 282/176/39 284/178/40 283/179/40 281/177/39
f 284/178/40 286/180/41 285/181/41 283/179/40
f 286/180/41 288/182/42 287/183/42 285/181/41
f 288/182/42 290/184/43 289/185/43 287/183/42
f 290/184/43 292/186/44 291/187/44 289/185/43
f 292/186/44 294/188/45 293/189/45 291/187/44
f 294/188/45 296/190/46 295/191/46 293/189/45
f 296/190/46 298/192/47 297/193/47 295/191/46
f 298/192/47 300/194/48 299/195/48 297/193/47
f 300/194/48 302/196/49 301/197/49 299/195/48
f 302/196/49 304/198/50 303/199/50 301/197/49
f 304/198/50 306/200/51 305/201/51 303/199/50
f 306/200/51 308/202/52 307/203/52 305/201/51
f 308/202/52 310/204/53 309/205/53 307/203/52
f 310/204/53 312/206/54 311/207/54 309/205/53
f 312/206/54 314/208/3 313/209/3 311/207/54
f 314/208/3 210/210/3 209/2/3 313/209/3
f 316/105/55 318/211/56 317/212/56 315/104/55
f 318/211/56 320/213/57 319/214/57 317/212/56
f 320/213/57 322/215/58 321/216/58 319/214/57
f 322/215/58 324/217/59 323/218/59 321/216/58
f 324/217/59 326/219/60 325/220/60 323/218/59
f 326/219/60 328/221/61 327/222/61 325/220/60
f 328/221/61 330/223/62 329/224/62 327/222/61
f 330/223/62 332/225/63 331/226/63 329/224/62
f 332/225/63 334/227/64 333/228/64 331/226/63
f 334/227/64 336/229/65 335/230/65 333/228/64
f 336/229/65 338/231/66 337/232/66 335/230/65
f 338/231/66 340/233/67 339/234/67 337/232/66
f 340/233/67 342/235/68 341/236/68 339/234/67
f 342/235/68 344/237/69 343/238/69 341/236/68
f 344/237/69 346/239/70 345/240/70 343/238/69
f 346/239/70 348/241/71 347/242/71 345/240/70
f 348/241/71 350/243/72 349/244/72 347/242/71
f 350/243/72 352/245/73 351/246/73 349/244/72
f 352/245/73 354/247/74 353/248/74 351/246/73
f 354/247/74 356/249/75 355/250/75 353/248/74
f 356/249/75 358/251/76 357/252/76 355/250/75
f 358/251/76 360/253/77 359/254/77 357/252/76
f 360/253/77 362/255/78 361/256/78 359/254/77
f 362/255/78 364/257/79 363/258/79 361/256/78
f 364/257/79 366/259/80 365/260/80 363/258/79
f 366/259/80 368/261/81 367/262/81 365/260/80
f 368/261/81 370/263/82 369/264/82 367/262/81
f 370/263/82 372/265/83 371/266/83 369/264/82
f 372/265/83 374/267/84 373/268/84 371/266/83
f 374/267/84 376/269/85 375/270/85 373/268/84
f 376/269/85 378/271/86 377/272/86 375/270/85
f 378/271/86 380/273/87 379/274/87 377/272/86
f 380/273/87 382/275/88 381/276/88 379/274/87
f 382/275/88 384/277/89 383/278/89 381/276/88
f 384/277/89 386/279/90 385/280/90 383/278/89
f 386/279/90 388/281/91 387/282/91 385/280/90
f 388/281/91 390/283/92 389/284/92 387/282/91
f 390/283/92 392/285/93 391/286/93 389/284/92
f 392/285/93 394/287/94 393/288/94 391/286/93
f 394/287/94 396/289/95 395/290/95 393/288/94
f 396/289/95 398/291/96 397/292/96 395/290/95
f 398/291/96 400/293/97 399/294/97 397/292/96
f 400/293/97 402/295/98 401/296/98 399/294/97
f 402/295/98 404/297/99 403/298/99 401/296/98
f 404/297/99 406/299/100 405/300/100 403/298/99
f 406/299/100 408/301/101 407/302/101 405/300/100
f 408/301/101 410/303/102 409/304/102 407/302/101
f 410/303/102 412/305/103 411/306/103 409/304/102
f 412/305/103 414/307/104 413/308/104 411/306/103
f 414/307/104 416/309/3 415/310/3 413/308/104
f 416/309/3 316/210/55 315/2/55 415/310/3
