# Blender 4.0.2
# www.blender.org
mtllib Q_regular.mtl
o Text
v 1.015385 0.600000 1.826923
v -0.303846 0.600000 1.365384
v -0.367441 0.600000 1.340972
v -0.428739 0.600000 1.313889
v -0.487740 0.600000 1.284135
v -0.544445 0.600000 1.251709
v -0.598852 0.600000 1.216613
v -0.650962 0.600000 1.178846
v -0.700775 0.600000 1.138408
v -0.748291 0.600000 1.095299
v -0.793510 0.600000 1.049519
v -0.836432 0.600000 1.001068
v -0.877057 0.600000 0.949947
v -0.915385 0.600000 0.896154
v -0.951015 0.600000 0.839557
v -0.983547 0.600000 0.780021
v -1.012981 0.600000 0.717548
v -1.039316 0.600000 0.652137
v -1.062554 0.600000 0.583787
v -1.082692 0.600000 0.512500
v -1.099733 0.600000 0.438274
v -1.113675 0.600000 0.361111
v -1.124519 0.600000 0.281009
v -1.132265 0.600000 0.197970
v -1.136912 0.600000 0.111992
v -1.138462 0.600000 0.023077
v -1.137460 0.600000 -0.049720
v -1.134455 0.600000 -0.120673
v -1.129447 0.600000 -0.189784
v -1.122436 0.600000 -0.257051
v -1.113422 0.600000 -0.322476
v -1.102404 0.600000 -0.386058
v -1.089383 0.600000 -0.447797
v -1.074359 0.600000 -0.507692
v -1.057332 0.600000 -0.565745
v -1.038301 0.600000 -0.621955
v -1.017268 0.600000 -0.676322
v -0.994231 0.600000 -0.728846
v -0.969404 0.600000 -0.779407
v -0.943002 0.600000 -0.827885
v -0.915024 0.600000 -0.874279
v -0.885470 0.600000 -0.918590
v -0.854340 0.600000 -0.960817
v -0.821635 0.600000 -1.000962
v -0.787353 0.600000 -1.039023
v -0.751496 0.600000 -1.075000
v -0.714063 0.600000 -1.108894
v -0.675053 0.600000 -1.140705
v -0.634469 0.600000 -1.170433
v -0.592308 0.600000 -1.198077
v -0.548825 0.600000 -1.223571
v -0.504274 0.600000 -1.246848
v -0.458654 0.600000 -1.267909
v -0.411966 0.600000 -1.286752
v -0.364210 0.600000 -1.303379
v -0.315385 0.600000 -1.317789
v -0.265492 0.600000 -1.329981
v -0.214530 0.600000 -1.339957
v -0.162500 0.600000 -1.347717
v -0.109402 0.600000 -1.353259
v -0.055235 0.600000 -1.356584
v 0.000000 0.600000 -1.357692
v 0.055836 0.600000 -1.356597
v 0.110523 0.600000 -1.353312
v 0.164062 0.600000 -1.347837
v 0.216453 0.600000 -1.340171
v 0.267695 0.600000 -1.330315
v 0.317788 0.600000 -1.318269
v 0.366733 0.600000 -1.304033
v 0.414530 0.600000 -1.287607
v 0.461178 0.600000 -1.268991
v 0.506677 0.600000 -1.248184
v 0.551028 0.600000 -1.225187
v 0.594231 0.600000 -1.200000
v 0.636084 0.600000 -1.172650
v 0.676389 0.600000 -1.143162
v 0.715144 0.600000 -1.111539
v 0.752350 0.600000 -1.077778
v 0.788007 0.600000 -1.041880
v 0.822115 0.600000 -1.003846
v 0.854674 0.600000 -0.963675
v 0.885684 0.600000 -0.921368
v 0.915144 0.600000 -0.876923
v 0.943055 0.600000 -0.830342
v 0.969418 0.600000 -0.781624
v 0.994231 0.600000 -0.730769
v 1.017267 0.600000 -0.677938
v 1.038301 0.600000 -0.623291
v 1.057332 0.600000 -0.566827
v 1.074359 0.600000 -0.508547
v 1.089383 0.600000 -0.448451
v 1.102404 0.600000 -0.386539
v 1.113421 0.600000 -0.322810
v 1.122436 0.600000 -0.257265
v 1.129447 0.600000 -0.189904
v 1.134455 0.600000 -0.120727
v 1.137460 0.600000 -0.049733
v 1.138462 0.600000 0.023077
v 1.136939 0.600000 0.112073
v 1.132372 0.600000 0.198291
v 1.124760 0.600000 0.281731
v 1.114103 0.600000 0.362393
v 1.100401 0.600000 0.440278
v 1.083654 0.600000 0.515385
v 1.063862 0.600000 0.587714
v 1.041026 0.600000 0.657265
v 1.015144 0.600000 0.724038
v 0.986218 0.600000 0.788034
v 0.954247 0.600000 0.849252
v 0.919231 0.600000 0.907692
v 0.881597 0.600000 0.963114
v 0.841773 0.600000 1.015278
v 0.799760 0.600000 1.064183
v 0.755556 0.600000 1.109829
v 0.709161 0.600000 1.152217
v 0.660577 0.600000 1.191346
v 0.609802 0.600000 1.227217
v 0.556838 0.600000 1.259829
v 0.501683 0.600000 1.289183
v 0.444338 0.600000 1.315278
v 0.384802 0.600000 1.338114
v 0.323077 0.600000 1.357692
v 1.015385 0.600000 1.553846
v 0.000000 0.600000 1.150000
v 0.065491 0.600000 1.147957
v 0.128632 0.600000 1.141827
v 0.189423 0.600000 1.131611
v 0.247863 0.600000 1.117308
v 0.303953 0.600000 1.098918
v 0.357692 0.600000 1.076442
v 0.409081 0.600000 1.049880
v 0.458120 0.600000 1.019231
v 0.504808 0.600000 0.984495
v 0.549145 0.600000 0.945673
v 0.591132 0.600000 0.902764
v 0.630769 0.600000 0.855769
v 0.667628 0.600000 0.805035
v 0.701282 0.600000 0.750908
v 0.731731 0.600000 0.693389
v 0.758974 0.600000 0.632478
v 0.783013 0.600000 0.568176
v 0.803846 0.600000 0.500481
v 0.821474 0.600000 0.429394
v 0.835897 0.600000 0.354914
v 0.847115 0.600000 0.277043
v 0.855128 0.600000 0.195780
v 0.859936 0.600000 0.111124
v 0.861538 0.600000 0.023077
v 0.859936 0.600000 -0.064971
v 0.855128 0.600000 -0.149626
v 0.847115 0.600000 -0.230890
v 0.835897 0.600000 -0.308761
v 0.821474 0.600000 -0.383240
v 0.803846 0.600000 -0.454327
v 0.783013 0.600000 -0.522022
v 0.758974 0.600000 -0.586325
v 0.731731 0.600000 -0.647236
v 0.701282 0.600000 -0.704754
v 0.667628 0.600000 -0.758881
v 0.630769 0.600000 -0.809616
v 0.591132 0.600000 -0.856611
v 0.549145 0.600000 -0.899519
v 0.504808 0.600000 -0.938341
v 0.458120 0.600000 -0.973077
v 0.409081 0.600000 -1.003726
v 0.357692 0.600000 -1.030289
v 0.303953 0.600000 -1.052765
v 0.247863 0.600000 -1.071154
v 0.189423 0.600000 -1.085457
v 0.128633 0.600000 -1.095673
v 0.065492 0.600000 -1.101803
v 0.000000 0.600000 -1.103846
v -0.065491 0.600000 -1.101803
v -0.128632 0.600000 -1.095673
v -0.189423 0.600000 -1.085457
v -0.247863 0.600000 -1.071154
v -0.303953 0.600000 -1.052765
v -0.357692 0.600000 -1.030289
v -0.409081 0.600000 -1.003726
v -0.458120 0.600000 -0.973077
v -0.504808 0.600000 -0.938341
v -0.549145 0.600000 -0.899519
v -0.591132 0.600000 -0.856611
v -0.630769 0.600000 -0.809616
v -0.667628 0.600000 -0.758881
v -0.701282 0.600000 -0.704754
v -0.731731 0.600000 -0.647236
v -0.758974 0.600000 -0.586325
v -0.783013 0.600000 -0.522022
v -0.803846 0.600000 -0.454327
v -0.821474 0.600000 -0.383240
v -0.835898 0.600000 -0.308761
v -0.847115 0.600000 -0.230890
v -0.855128 0.600000 -0.149626
v -0.859936 0.600000 -0.064971
v -0.861539 0.600000 0.023077
v -0.859936 0.600000 0.111124
v -0.855128 0.600000 0.195780
v -0.847115 0.600000 0.277043
v -0.835897 0.600000 0.354914
v -0.821474 0.600000 0.429394
v -0.803846 0.600000 0.500481
v -0.783013 0.600000 0.568176
v -0.758974 0.600000 0.632479
v -0.731731 0.600000 0.693389
v -0.701282 0.600000 0.750908
v -0.667628 0.600000 0.805035
v -0.630769 0.600000 0.855769
v -0.591133 0.600000 0.902764
v -0.549145 0.600000 0.945673
v -0.504808 0.600000 0.984495
v -0.458120 0.600000 1.019231
v -0.409081 0.600000 1.049880
v -0.357692 0.600000 1.076442
v -0.303953 0.600000 1.098918
v -0.247863 0.600000 1.117308
v -0.189423 0.600000 1.131611
v -0.128632 0.600000 1.141827
v -0.065491 0.600000 1.147957
v 1.015385 0.000000 1.826923
v -0.303846 0.000000 1.365384
v -0.367441 0.000000 1.340972
v -0.428739 0.000000 1.313889
v -0.487740 0.000000 1.284135
v -0.544445 0.000000 1.251709
v -0.598852 0.000000 1.216613
v -0.650962 0.000000 1.178846
v -0.700775 0.000000 1.138408
v -0.748291 0.000000 1.095299
v -0.793510 0.000000 1.049519
v -0.836432 0.000000 1.001068
v -0.877057 0.000000 0.949947
v -0.915385 0.000000 0.896154
v -0.951015 0.000000 0.839557
v -0.983547 0.000000 0.780021
v -1.012981 0.000000 0.717548
v -1.039316 0.000000 0.652137
v -1.062554 0.000000 0.583787
v -1.082692 0.000000 0.512500
v -1.099733 0.000000 0.438274
v -1.113675 0.000000 0.361111
v -1.124519 0.000000 0.281009
v -1.132265 0.000000 0.197970
v -1.136912 0.000000 0.111992
v -1.138462 0.000000 0.023077
v -1.137460 0.000000 -0.049720
v -1.134455 0.000000 -0.120673
v -1.129447 0.000000 -0.189784
v -1.122436 0.000000 -0.257051
v -1.113422 0.000000 -0.322476
v -1.102404 0.000000 -0.386058
v -1.089383 0.000000 -0.447797
v -1.074359 0.000000 -0.507692
v -1.057332 0.000000 -0.565745
v -1.038301 0.000000 -0.621955
v -1.017268 0.000000 -0.676322
v -0.994231 0.000000 -0.728846
v -0.969404 0.000000 -0.779407
v -0.943002 0.000000 -0.827885
v -0.915024 0.000000 -0.874279
v -0.885470 0.000000 -0.918590
v -0.854340 0.000000 -0.960817
v -0.821635 0.000000 -1.000962
v -0.787353 0.000000 -1.039023
v -0.751496 0.000000 -1.075000
v -0.714063 0.000000 -1.108894
v -0.675053 0.000000 -1.140705
v -0.634469 0.000000 -1.170433
v -0.592308 0.000000 -1.198077
v -0.548825 0.000000 -1.223571
v -0.504274 0.000000 -1.246848
v -0.458654 0.000000 -1.267909
v -0.411966 0.000000 -1.286752
v -0.364210 0.000000 -1.303379
v -0.315385 0.000000 -1.317789
v -0.265492 0.000000 -1.329981
v -0.214530 0.000000 -1.339957
v -0.162500 0.000000 -1.347717
v -0.109402 0.000000 -1.353259
v -0.055235 0.000000 -1.356584
v 0.000000 0.000000 -1.357692
v 0.055836 0.000000 -1.356597
v 0.110523 0.000000 -1.353312
v 0.164062 0.000000 -1.347837
v 0.216453 0.000000 -1.340171
v 0.267695 0.000000 -1.330315
v 0.317788 0.000000 -1.318269
v 0.366733 0.000000 -1.304033
v 0.414530 0.000000 -1.287607
v 0.461178 0.000000 -1.268991
v 0.506677 0.000000 -1.248184
v 0.551028 0.000000 -1.225187
v 0.594231 0.000000 -1.200000
v 0.636084 0.000000 -1.172650
v 0.676389 0.000000 -1.143162
v 0.715144 0.000000 -1.111539
v 0.752350 0.000000 -1.077778
v 0.788007 0.000000 -1.041880
v 0.822115 0.000000 -1.003846
v 0.854674 0.000000 -0.963675
v 0.885684 0.000000 -0.921368
v 0.915144 0.000000 -0.876923
v 0.943055 0.000000 -0.830342
v 0.969418 0.000000 -0.781624
v 0.994231 0.000000 -0.730769
v 1.017267 0.000000 -0.677938
v 1.038301 0.000000 -0.623291
v 1.057332 0.000000 -0.566827
v 1.074359 0.000000 -0.508547
v 1.089383 0.000000 -0.448451
v 1.102404 0.000000 -0.386539
v 1.113421 0.000000 -0.322810
v 1.122436 0.000000 -0.257265
v 1.129447 0.000000 -0.189904
v 1.134455 0.000000 -0.120727
v 1.137460 0.000000 -0.049733
v 1.138462 0.000000 0.023077
v 1.136939 0.000000 0.112073
v 1.132372 0.000000 0.198291
v 1.124760 0.000000 0.281731
v 1.114103 0.000000 0.362393
v 1.100401 0.000000 0.440278
v 1.083654 0.000000 0.515385
v 1.063862 0.000000 0.587714
v 1.041026 0.000000 0.657265
v 1.015144 0.000000 0.724038
v 0.986218 0.000000 0.788034
v 0.954247 0.000000 0.849252
v 0.919231 0.000000 0.907692
v 0.881597 0.000000 0.963114
v 0.841773 0.000000 1.015278
v 0.799760 0.000000 1.064183
v 0.755556 0.000000 1.109829
v 0.709161 0.000000 1.152217
v 0.660577 0.000000 1.191346
v 0.609802 0.000000 1.227217
v 0.556838 0.000000 1.259829
v 0.501683 0.000000 1.289183
v 0.444338 0.000000 1.315278
v 0.384802 0.000000 1.338114
v 0.323077 0.000000 1.357692
v 1.015385 0.000000 1.553846
v 0.000000 0.000000 1.150000
v 0.065491 0.000000 1.147957
v 0.128632 0.000000 1.141827
v 0.189423 0.000000 1.131611
v 0.247863 0.000000 1.117308
v 0.303953 0.000000 1.098918
v 0.357692 0.000000 1.076442
v 0.409081 0.000000 1.049880
v 0.458120 0.000000 1.019231
v 0.504808 0.000000 0.984495
v 0.549145 0.000000 0.945673
v 0.591132 0.000000 0.902764
v 0.630769 0.000000 0.855769
v 0.667628 0.000000 0.805035
v 0.701282 0.000000 0.750908
v 0.731731 0.000000 0.693389
v 0.758974 0.000000 0.632478
v 0.783013 0.000000 0.568176
v 0.803846 0.000000 0.500481
v 0.821474 0.000000 0.429394
v 0.835897 0.000000 0.354914
v 0.847115 0.000000 0.277043
v 0.855128 0.000000 0.195780
v 0.859936 0.000000 0.111124
v 0.861538 0.000000 0.023077
v 0.859936 0.000000 -0.064971
v 0.855128 0.000000 -0.149626
v 0.847115 0.000000 -0.230890
v 0.835897 0.000000 -0.308761
v 0.821474 0.000000 -0.383240
v 0.803846 0.000000 -0.454327
v 0.783013 0.000000 -0.522022
v 0.758974 0.000000 -0.586325
v 0.731731 0.000000 -0.647236
v 0.701282 0.000000 -0.704754
v 0.667628 0.000000 -0.758881
v 0.630769 0.000000 -0.809616
v 0.591132 0.000000 -0.856611
v 0.549145 0.000000 -0.899519
v 0.504808 0.000000 -0.938341
v 0.458120 0.000000 -0.973077
v 0.409081 0.000000 -1.003726
v 0.357692 0.000000 -1.030289
v 0.303953 0.000000 -1.052765
v 0.247863 0.000000 -1.071154
v 0.189423 0.000000 -1.085457
v 0.128633 0.000000 -1.095673
v 0.065492 0.000000 -1.101803
v 0.000000 0.000000 -1.103846
v -0.065491 0.000000 -1.101803
v -0.128632 0.000000 -1.095673
v -0.189423 0.000000 -1.085457
v -0.247863 0.000000 -1.071154
v -0.303953 0.000000 -1.052765
v -0.357692 0.000000 -1.030289
v -0.409081 0.000000 -1.003726
v -0.458120 0.000000 -0.973077
v -0.504808 0.000000 -0.938341
v -0.549145 0.000000 -0.899519
v -0.591132 0.000000 -0.856611
v -0.630769 0.000000 -0.809616
v -0.667628 0.000000 -0.758881
v -0.701282 0.000000 -0.704754
v -0.731731 0.000000 -0.647236
v -0.758974 0.000000 -0.586325
v -0.783013 0.000000 -0.522022
v -0.803846 0.000000 -0.454327
v -0.821474 0.000000 -0.383240
v -0.835898 0.000000 -0.308761
v -0.847115 0.000000 -0.230890
v -0.855128 0.000000 -0.149626
v -0.859936 0.000000 -0.064971
v -0.861539 0.000000 0.023077
v -0.859936 0.000000 0.111124
v -0.855128 0.000000 0.195780
v -0.847115 0.000000 0.277043
v -0.835897 0.000000 0.354914
v -0.821474 0.000000 0.429394
v -0.803846 0.000000 0.500481
v -0.783013 0.000000 0.568176
v -0.758974 0.000000 0.632479
v -0.731731 0.000000 0.693389
v -0.701282 0.000000 0.750908
v -0.667628 0.000000 0.805035
v -0.630769 0.000000 0.855769
v -0.591133 0.000000 0.902764
v -0.549145 0.000000 0.945673
v -0.504808 0.000000 0.984495
v -0.458120 0.000000 1.019231
v -0.409081 0.000000 1.049880
v -0.357692 0.000000 1.076442
v -0.303953 0.000000 1.098918
v -0.247863 0.000000 1.117308
v -0.189423 0.000000 1.131611
v -0.128632 0.000000 1.141827
v -0.065491 0.000000 1.147957
v 1.015385 0.000000 1.826923
v 1.015385 0.600000 1.826923
v -0.303846 0.000000 1.365384
v -0.303846 0.600000 1.365384
v -0.367441 0.000000 1.340972
v -0.367441 0.600000 1.340972
v -0.428739 0.000000 1.313889
v -0.428739 0.600000 1.313889
v -0.487740 0.000000 1.284135
v -0.487740 0.600000 1.284135
v -0.544445 0.000000 1.251709
v -0.544445 0.600000 1.251709
v -0.598852 0.000000 1.216613
v -0.598852 0.600000 1.216613
v -0.650962 0.000000 1.178846
v -0.650962 0.600000 1.178846
v -0.700775 0.000000 1.138408
v -0.700775 0.600000 1.138408
v -0.748291 0.000000 1.095299
v -0.748291 0.600000 1.095299
v -0.793510 0.000000 1.049519
v -0.793510 0.600000 1.049519
v -0.836432 0.000000 1.001068
v -0.836432 0.600000 1.001068
v -0.877057 0.000000 0.949947
v -0.877057 0.600000 0.949947
v -0.915385 0.000000 0.896154
v -0.915385 0.600000 0.896154
v -0.951015 0.000000 0.839557
v -0.951015 0.600000 0.839557
v -0.983547 0.000000 0.780021
v -0.983547 0.600000 0.780021
v -1.012981 0.000000 0.717548
v -1.012981 0.600000 0.717548
v -1.039316 0.000000 0.652137
v -1.039316 0.600000 0.652137
v -1.062554 0.000000 0.583787
v -1.062554 0.600000 0.583787
v -1.082692 0.000000 0.512500
v -1.082692 0.600000 0.512500
v -1.099733 0.000000 0.438274
v -1.099733 0.600000 0.438274
v -1.113675 0.000000 0.361111
v -1.113675 0.600000 0.361111
v -1.124519 0.000000 0.281009
v -1.124519 0.600000 0.281009
v -1.132265 0.000000 0.197970
v -1.132265 0.600000 0.197970
v -1.136912 0.000000 0.111992
v -1.136912 0.600000 0.111992
v -1.138462 0.000000 0.023077
v -1.138462 0.600000 0.023077
v -1.137460 0.000000 -0.049720
v -1.137460 0.600000 -0.049720
v -1.134455 0.000000 -0.120673
v -1.134455 0.600000 -0.120673
v -1.129447 0.000000 -0.189784
v -1.129447 0.600000 -0.189784
v -1.122436 0.000000 -0.257051
v -1.122436 0.600000 -0.257051
v -1.113422 0.000000 -0.322476
v -1.113422 0.600000 -0.322476
v -1.102404 0.000000 -0.386058
v -1.102404 0.600000 -0.386058
v -1.089383 0.000000 -0.447797
v -1.089383 0.600000 -0.447797
v -1.074359 0.000000 -0.507692
v -1.074359 0.600000 -0.507692
v -1.057332 0.000000 -0.565745
v -1.057332 0.600000 -0.565745
v -1.038301 0.000000 -0.621955
v -1.038301 0.600000 -0.621955
v -1.017268 0.000000 -0.676322
v -1.017268 0.600000 -0.676322
v -0.994231 0.000000 -0.728846
v -0.994231 0.600000 -0.728846
v -0.969404 0.000000 -0.779407
v -0.969404 0.600000 -0.779407
v -0.943002 0.000000 -0.827885
v -0.943002 0.600000 -0.827885
v -0.915024 0.000000 -0.874279
v -0.915024 0.600000 -0.874279
v -0.885470 0.000000 -0.918590
v -0.885470 0.600000 -0.918590
v -0.854340 0.000000 -0.960817
v -0.854340 0.600000 -0.960817
v -0.821635 0.000000 -1.000962
v -0.821635 0.600000 -1.000962
v -0.787353 0.000000 -1.039023
v -0.787353 0.600000 -1.039023
v -0.751496 0.000000 -1.075000
v -0.751496 0.600000 -1.075000
v -0.714063 0.000000 -1.108894
v -0.714063 0.600000 -1.108894
v -0.675053 0.000000 -1.140705
v -0.675053 0.600000 -1.140705
v -0.634469 0.000000 -1.170433
v -0.634469 0.600000 -1.170433
v -0.592308 0.000000 -1.198077
v -0.592308 0.600000 -1.198077
v -0.548825 0.000000 -1.223571
v -0.548825 0.600000 -1.223571
v -0.504274 0.000000 -1.246848
v -0.504274 0.600000 -1.246848
v -0.458654 0.000000 -1.267909
v -0.458654 0.600000 -1.267909
v -0.411966 0.000000 -1.286752
v -0.411966 0.600000 -1.286752
v -0.364210 0.000000 -1.303379
v -0.364210 0.600000 -1.303379
v -0.315385 0.000000 -1.317789
v -0.315385 0.600000 -1.317789
v -0.265492 0.000000 -1.329981
v -0.265492 0.600000 -1.329981
v -0.214530 0.000000 -1.339957
v -0.214530 0.600000 -1.339957
v -0.162500 0.000000 -1.347717
v -0.162500 0.600000 -1.347717
v -0.109402 0.000000 -1.353259
v -0.109402 0.600000 -1.353259
v -0.055235 0.000000 -1.356584
v -0.055235 0.600000 -1.356584
v 0.000000 0.000000 -1.357692
v 0.000000 0.600000 -1.357692
v 0.055836 0.000000 -1.356597
v 0.055836 0.600000 -1.356597
v 0.110523 0.000000 -1.353312
v 0.110523 0.600000 -1.353312
v 0.164062 0.000000 -1.347837
v 0.164062 0.600000 -1.347837
v 0.216453 0.000000 -1.340171
v 0.216453 0.600000 -1.340171
v 0.267695 0.000000 -1.330315
v 0.267695 0.600000 -1.330315
v 0.317788 0.000000 -1.318269
v 0.317788 0.600000 -1.318269
v 0.366733 0.000000 -1.304033
v 0.366733 0.600000 -1.304033
v 0.414530 0.000000 -1.287607
v 0.414530 0.600000 -1.287607
v 0.461178 0.000000 -1.268991
v 0.461178 0.600000 -1.268991
v 0.506677 0.000000 -1.248184
v 0.506677 0.600000 -1.248184
v 0.551028 0.000000 -1.225187
v 0.551028 0.600000 -1.225187
v 0.594231 0.000000 -1.200000
v 0.594231 0.600000 -1.200000
v 0.636084 0.000000 -1.172650
v 0.636084 0.600000 -1.172650
v 0.676389 0.000000 -1.143162
v 0.676389 0.600000 -1.143162
v 0.715144 0.000000 -1.111539
v 0.715144 0.600000 -1.111539
v 0.752350 0.000000 -1.077778
v 0.752350 0.600000 -1.077778
v 0.788007 0.000000 -1.041880
v 0.788007 0.600000 -1.041880
v 0.822115 0.000000 -1.003846
v 0.822115 0.600000 -1.003846
v 0.854674 0.000000 -0.963675
v 0.854674 0.600000 -0.963675
v 0.885684 0.000000 -0.921368
v 0.885684 0.600000 -0.921368
v 0.915144 0.000000 -0.876923
v 0.915144 0.600000 -0.876923
v 0.943055 0.000000 -0.830342
v 0.943055 0.600000 -0.830342
v 0.969418 0.000000 -0.781624
v 0.969418 0.600000 -0.781624
v 0.994231 0.000000 -0.730769
v 0.994231 0.600000 -0.730769
v 1.017267 0.000000 -0.677938
v 1.017267 0.600000 -0.677938
v 1.038301 0.000000 -0.623291
v 1.038301 0.600000 -0.623291
v 1.057332 0.000000 -0.566827
v 1.057332 0.600000 -0.566827
v 1.074359 0.000000 -0.508547
v 1.074359 0.600000 -0.508547
v 1.089383 0.000000 -0.448451
v 1.089383 0.600000 -0.448451
v 1.102404 0.000000 -0.386539
v 1.102404 0.600000 -0.386539
v 1.113421 0.000000 -0.322810
v 1.113421 0.600000 -0.322810
v 1.122436 0.000000 -0.257265
v 1.122436 0.600000 -0.257265
v 1.129447 0.000000 -0.189904
v 1.129447 0.600000 -0.189904
v 1.134455 0.000000 -0.120727
v 1.134455 0.600000 -0.120727
v 1.137460 0.000000 -0.049733
v 1.137460 0.600000 -0.049733
v 1.138462 0.000000 0.023077
v 1.138462 0.600000 0.023077
v 1.136939 0.000000 0.112073
v 1.136939 0.600000 0.112073
v 1.132372 0.000000 0.198291
v 1.132372 0.600000 0.198291
v 1.124760 0.000000 0.281731
v 1.124760 0.600000 0.281731
v 1.114103 0.000000 0.362393
v 1.114103 0.600000 0.362393
v 1.100401 0.000000 0.440278
v 1.100401 0.600000 0.440278
v 1.083654 0.000000 0.515385
v 1.083654 0.600000 0.515385
v 1.063862 0.000000 0.587714
v 1.063862 0.600000 0.587714
v 1.041026 0.000000 0.657265
v 1.041026 0.600000 0.657265
v 1.015144 0.000000 0.724038
v 1.015144 0.600000 0.724038
v 0.986218 0.000000 0.788034
v 0.986218 0.600000 0.788034
v 0.954247 0.000000 0.849252
v 0.954247 0.600000 0.849252
v 0.919231 0.000000 0.907692
v 0.919231 0.600000 0.907692
v 0.881597 0.000000 0.963114
v 0.881597 0.600000 0.963114
v 0.841773 0.000000 1.015278
v 0.841773 0.600000 1.015278
v 0.799760 0.000000 1.064183
v 0.799760 0.600000 1.064183
v 0.755556 0.000000 1.109829
v 0.755556 0.600000 1.109829
v 0.709161 0.000000 1.152217
v 0.709161 0.600000 1.152217
v 0.660577 0.000000 1.191346
v 0.660577 0.600000 1.191346
v 0.609802 0.000000 1.227217
v 0.609802 0.600000 1.227217
v 0.556838 0.000000 1.259829
v 0.556838 0.600000 1.259829
v 0.501683 0.000000 1.289183
v 0.501683 0.600000 1.289183
v 0.444338 0.000000 1.315278
v 0.444338 0.600000 1.315278
v 0.384802 0.000000 1.338114
v 0.384802 0.600000 1.338114
v 0.323077 0.000000 1.357692
v 0.323077 0.600000 1.357692
v 1.015385 0.000000 1.553846
v 1.015385 0.600000 1.553846
v 0.000000 0.000000 1.150000
v 0.000000 0.600000 1.150000
v 0.065491 0.000000 1.147957
v 0.065491 0.600000 1.147957
v 0.128632 0.000000 1.141827
v 0.128632 0.600000 1.141827
v 0.189423 0.000000 1.131611
v 0.189423 0.600000 1.131611
v 0.247863 0.000000 1.117308
v 0.247863 0.600000 1.117308
v 0.303953 0.000000 1.098918
v 0.303953 0.600000 1.098918
v 0.357692 0.000000 1.076442
v 0.357692 0.600000 1.076442
v 0.409081 0.000000 1.049880
v 0.409081 0.600000 1.049880
v 0.458120 0.000000 1.019231
v 0.458120 0.600000 1.019231
v 0.504808 0.000000 0.984495
v 0.504808 0.600000 0.984495
v 0.549145 0.000000 0.945673
v 0.549145 0.600000 0.945673
v 0.591132 0.000000 0.902764
v 0.591132 0.600000 0.902764
v 0.630769 0.000000 0.855769
v 0.630769 0.600000 0.855769
v 0.667628 0.000000 0.805035
v 0.667628 0.600000 0.805035
v 0.701282 0.000000 0.750908
v 0.701282 0.600000 0.750908
v 0.731731 0.000000 0.693389
v 0.731731 0.600000 0.693389
v 0.758974 0.000000 0.632478
v 0.758974 0.600000 0.632478
v 0.783013 0.000000 0.568176
v 0.783013 0.600000 0.568176
v 0.803846 0.000000 0.500481
v 0.803846 0.600000 0.500481
v 0.821474 0.000000 0.429394
v 0.821474 0.600000 0.429394
v 0.835897 0.000000 0.354914
v 0.835897 0.600000 0.354914
v 0.847115 0.000000 0.277043
v 0.847115 0.600000 0.277043
v 0.855128 0.000000 0.195780
v 0.855128 0.600000 0.195780
v 0.859936 0.000000 0.111124
v 0.859936 0.600000 0.111124
v 0.861538 0.000000 0.023077
v 0.861538 0.600000 0.023077
v 0.859936 0.000000 -0.064971
v 0.859936 0.600000 -0.064971
v 0.855128 0.000000 -0.149626
v 0.855128 0.600000 -0.149626
v 0.847115 0.000000 -0.230890
v 0.847115 0.600000 -0.230890
v 0.835897 0.000000 -0.308761
v 0.835897 0.600000 -0.308761
v 0.821474 0.000000 -0.383240
v 0.821474 0.600000 -0.383240
v 0.803846 0.000000 -0.454327
v 0.803846 0.600000 -0.454327
v 0.783013 0.000000 -0.522022
v 0.783013 0.600000 -0.522022
v 0.758974 0.000000 -0.586325
v 0.758974 0.600000 -0.586325
v 0.731731 0.000000 -0.647236
v 0.731731 0.600000 -0.647236
v 0.701282 0.000000 -0.704754
v 0.701282 0.600000 -0.704754
v 0.667628 0.000000 -0.758881
v 0.667628 0.600000 -0.758881
v 0.630769 0.000000 -0.809616
v 0.630769 0.600000 -0.809616
v 0.591132 0.000000 -0.856611
v 0.591132 0.600000 -0.856611
v 0.549145 0.000000 -0.899519
v 0.549145 0.600000 -0.899519
v 0.504808 0.000000 -0.938341
v 0.504808 0.600000 -0.938341
v 0.458120 0.000000 -0.973077
v 0.458120 0.600000 -0.973077
v 0.409081 0.000000 -1.003726
v 0.409081 0.600000 -1.003726
v 0.357692 0.000000 -1.030289
v 0.357692 0.600000 -1.030289
v 0.303953 0.000000 -1.052765
v 0.303953 0.600000 -1.052765
v 0.247863 0.000000 -1.071154
v 0.247863 0.600000 -1.071154
v 0.189423 0.000000 -1.085457
v 0.189423 0.600000 -1.085457
v 0.128633 0.000000 -1.095673
v 0.128633 0.600000 -1.095673
v 0.065492 0.000000 -1.101803
v 0.065492 0.600000 -1.101803
v 0.000000 0.000000 -1.103846
v 0.000000 0.600000 -1.103846
v -0.065491 0.000000 -1.101803
v -0.065491 0.600000 -1.101803
v -0.128632 0.000000 -1.095673
v -0.128632 0.600000 -1.095673
v -0.189423 0.000000 -1.085457
v -0.189423 0.600000 -1.085457
v -0.247863 0.000000 -1.071154
v -0.247863 0.600000 -1.071154
v -0.303953 0.000000 -1.052765
v -0.303953 0.600000 -1.052765
v -0.357692 0.000000 -1.030289
v -0.357692 0.600000 -1.030289
v -0.409081 0.000000 -1.003726
v -0.409081 0.600000 -1.003726
v -0.458120 0.000000 -0.973077
v -0.458120 0.600000 -0.973077
v -0.504808 0.000000 -0.938341
v -0.504808 0.600000 -0.938341
v -0.549145 0.000000 -0.899519
v -0.549145 0.600000 -0.899519
v -0.591132 0.000000 -0.856611
v -0.591132 0.600000 -0.856611
v -0.630769 0.000000 -0.809616
v -0.630769 0.600000 -0.809616
v -0.667628 0.000000 -0.758881
v -0.667628 0.600000 -0.758881
v -0.701282 0.000000 -0.704754
v -0.701282 0.600000 -0.704754
v -0.731731 0.000000 -0.647236
v -0.731731 0.600000 -0.647236
v -0.758974 0.000000 -0.586325
v -0.758974 0.600000 -0.586325
v -0.783013 0.000000 -0.522022
v -0.783013 0.600000 -0.522022
v -0.803846 0.000000 -0.454327
v -0.803846 0.600000 -0.454327
v -0.821474 0.000000 -0.383240
v -0.821474 0.600000 -0.383240
v -0.835898 0.000000 -0.308761
v -0.835898 0.600000 -0.308761
v -0.847115 0.000000 -0.230890
v -0.847115 0.600000 -0.230890
v -0.855128 0.000000 -0.149626
v -0.855128 0.600000 -0.149626
v -0.859936 0.000000 -0.064971
v -0.859936 0.600000 -0.064971
v -0.861539 0.000000 0.023077
v -0.861539 0.600000 0.023077
v -0.859936 0.000000 0.111124
v -0.859936 0.600000 0.111124
v -0.855128 0.000000 0.195780
v -0.855128 0.600000 0.195780
v -0.847115 0.000000 0.277043
v -0.847115 0.600000 0.277043
v -0.835897 0.000000 0.354914
v -0.835897 0.600000 0.354914
v -0.821474 0.000000 0.429394
v -0.821474 0.600000 0.429394
v -0.803846 0.000000 0.500481
v -0.803846 0.600000 0.500481
v -0.783013 0.000000 0.568176
v -0.783013 0.600000 0.568176
v -0.758974 0.000000 0.632479
v -0.758974 0.600000 0.632479
v -0.731731 0.000000 0.693389
v -0.731731 0.600000 0.693389
v -0.701282 0.000000 0.750908
v -0.701282 0.600000 0.750908
v -0.667628 0.000000 0.805035
v -0.667628 0.600000 0.805035
v -0.630769 0.000000 0.855769
v -0.630769 0.600000 0.855769
v -0.591133 0.000000 0.902764
v -0.591133 0.600000 0.902764
v -0.549145 0.000000 0.945673
v -0.549145 0.600000 0.945673
v -0.504808 0.000000 0.984495
v -0.504808 0.600000 0.984495
v -0.458120 0.000000 1.019231
v -0.458120 0.600000 1.019231
v -0.409081 0.000000 1.049880
v -0.409081 0.600000 1.049880
v -0.357692 0.000000 1.076442
v -0.357692 0.600000 1.076442
v -0.303953 0.000000 1.098918
v -0.303953 0.600000 1.098918
v -0.247863 0.000000 1.117308
v -0.247863 0.600000 1.117308
v -0.189423 0.000000 1.131611
v -0.189423 0.600000 1.131611
v -0.128632 0.000000 1.141827
v -0.128632 0.600000 1.141827
v -0.065491 0.000000 1.147957
v -0.065491 0.600000 1.147957
vn -0.0000 1.0000 -0.0000
vn -0.0000 -1.0000 -0.0000
vn 0.5787 -0.0000 0.8155
vn -0.3443 -0.0000 0.9388
vn -0.3814 -0.0000 0.9244
vn -0.4274 -0.0000 0.9041
vn -0.4735 -0.0000 0.8808
vn -0.5194 -0.0000 0.8545
vn -0.5647 -0.0000 0.8253
vn -0.6088 -0.0000 0.7933
vn -0.6513 -0.0000 0.7588
vn -0.6919 -0.0000 0.7219
vn -0.7303 -0.0000 0.6832
vn -0.7660 -0.0000 0.6429
vn -0.7989 -0.0000 0.6014
vn -0.8307 -0.0000 0.5567
vn -0.8623 -0.0000 0.5064
vn -0.8915 -0.0000 0.4531
vn -0.9165 -0.0000 0.4000
vn -0.9376 -0.0000 0.3478
vn -0.9549 -0.0000 0.2970
vn -0.9688 -0.0000 0.2479
vn -0.9796 -0.0000 0.2008
vn -0.9878 -0.0000 0.1560
vn -0.9935 -0.0000 0.1135
vn -0.9973 -0.0000 0.0734
vn -0.9994 -0.0000 0.0357
vn -1.0000 -0.0000 0.0018
vn -0.9996 -0.0000 -0.0280
vn -0.9984 -0.0000 -0.0573
vn -0.9961 -0.0000 -0.0880
vn -0.9928 -0.0000 -0.1201
vn -0.9881 -0.0000 -0.1536
vn -0.9821 -0.0000 -0.1886
vn -0.9744 -0.0000 -0.2249
vn -0.9650 -0.0000 -0.2624
vn -0.9536 -0.0000 -0.3011
vn -0.9401 -0.0000 -0.3408
vn -0.9244 -0.0000 -0.3813
vn -0.9069 -0.0000 -0.4213
vn -0.8881 -0.0000 -0.4596
vn -0.8675 -0.0000 -0.4975
vn -0.8444 -0.0000 -0.5358
vn -0.8187 -0.0000 -0.5743
vn -0.7903 -0.0000 -0.6127
vn -0.7594 -0.0000 -0.6506
vn -0.7259 -0.0000 -0.6878
vn -0.6900 -0.0000 -0.7238
vn -0.6518 -0.0000 -0.7584
vn -0.6117 -0.0000 -0.7911
vn -0.5698 -0.0000 -0.8218
vn -0.5272 -0.0000 -0.8497
vn -0.4846 -0.0000 -0.8747
vn -0.4412 -0.0000 -0.8974
vn -0.3968 -0.0000 -0.9179
vn -0.3516 -0.0000 -0.9361
vn -0.3060 -0.0000 -0.9520
vn -0.2603 -0.0000 -0.9655
vn -0.2148 -0.0000 -0.9767
vn -0.1698 -0.0000 -0.9855
vn -0.1257 -0.0000 -0.9921
vn -0.0826 -0.0000 -0.9966
vn -0.0407 -0.0000 -0.9992
vn -0.0002 -0.0000 -1.0000
vn 0.0398 -0.0000 -0.9992
vn 0.0809 -0.0000 -0.9967
vn 0.1233 -0.0000 -0.9924
vn 0.1669 -0.0000 -0.9860
vn 0.2114 -0.0000 -0.9774
vn 0.2566 -0.0000 -0.9665
vn 0.3022 -0.0000 -0.9532
vn 0.3479 -0.0000 -0.9375
vn 0.3934 -0.0000 -0.9194
vn 0.4382 -0.0000 -0.8989
vn 0.4821 -0.0000 -0.8761
vn 0.5255 -0.0000 -0.8508
vn 0.5689 -0.0000 -0.8224
vn 0.6116 -0.0000 -0.7912
vn 0.6523 -0.0000 -0.7579
vn 0.6910 -0.0000 -0.7229
vn 0.7272 -0.0000 -0.6864
vn 0.7609 -0.0000 -0.6488
vn 0.7919 -0.0000 -0.6106
vn 0.8203 -0.0000 -0.5720
vn 0.8459 -0.0000 -0.5334
vn 0.8689 -0.0000 -0.4951
vn 0.8893 -0.0000 -0.4573
vn 0.9079 -0.0000 -0.4192
vn 0.9252 -0.0000 -0.3795
vn 0.9407 -0.0000 -0.3394
vn 0.9539 -0.0000 -0.3000
vn 0.9652 -0.0000 -0.2615
vn 0.9745 -0.0000 -0.2242
vn 0.9821 -0.0000 -0.1881
vn 0.9882 -0.0000 -0.1533
vn 0.9928 -0.0000 -0.1199
vn 0.9961 -0.0000 -0.0879
vn 0.9984 -0.0000 -0.0573
vn 0.9996 -0.0000 -0.0280
vn 1.0000 -0.0000 0.0017
vn 0.9994 -0.0000 0.0350
vn 0.9974 -0.0000 0.0719
vn 0.9938 -0.0000 0.1109
vn 0.9884 -0.0000 0.1522
vn 0.9807 -0.0000 0.1955
vn 0.9706 -0.0000 0.2408
vn 0.9576 -0.0000 0.2880
vn 0.9416 -0.0000 0.3368
vn 0.9222 -0.0000 0.3868
vn 0.8992 -0.0000 0.4376
vn 0.8725 -0.0000 0.4887
vn 0.8429 -0.0000 0.5381
vn 0.8114 -0.0000 0.5845
vn 0.7770 -0.0000 0.6295
vn 0.7388 -0.0000 0.6740
vn 0.6968 -0.0000 0.7173
vn 0.6512 -0.0000 0.7589
vn 0.6024 -0.0000 0.7982
vn 0.5509 -0.0000 0.8345
vn 0.4973 -0.0000 0.8676
vn 0.4422 -0.0000 0.8969
vn 0.3863 -0.0000 0.9224
vn 0.3304 -0.0000 0.9438
vn 0.9999 -0.0000 -0.0155
vn 0.7977 -0.0000 -0.6031
vn -0.0000 -0.0000 -1.0000
vn -0.0639 -0.0000 -0.9980
vn -0.1313 -0.0000 -0.9913
vn -0.2019 -0.0000 -0.9794
vn -0.2748 -0.0000 -0.9615
vn -0.3490 -0.0000 -0.9371
vn -0.4229 -0.0000 -0.9062
vn -0.4950 -0.0000 -0.8689
vn -0.5639 -0.0000 -0.8258
vn -0.6283 -0.0000 -0.7779
vn -0.6873 -0.0000 -0.7264
vn -0.7401 -0.0000 -0.6725
vn -0.7872 -0.0000 -0.6166
vn -0.8297 -0.0000 -0.5583
vn -0.8670 -0.0000 -0.4982
vn -0.8988 -0.0000 -0.4383
vn -0.9252 -0.0000 -0.3794
vn -0.9466 -0.0000 -0.3223
vn -0.9636 -0.0000 -0.2675
vn -0.9765 -0.0000 -0.2155
vn -0.9861 -0.0000 -0.1664
vn -0.9927 -0.0000 -0.1204
vn -0.9970 -0.0000 -0.0774
vn -0.9993 -0.0000 -0.0375
vn -1.0000 -0.0000 -0.0000
vn -0.9993 -0.0000 0.0375
vn -0.9970 -0.0000 0.0774
vn -0.9927 -0.0000 0.1204
vn -0.9861 -0.0000 0.1664
vn -0.9765 -0.0000 0.2155
vn -0.9636 -0.0000 0.2675
vn -0.9466 -0.0000 0.3223
vn -0.9252 -0.0000 0.3794
vn -0.8988 -0.0000 0.4383
vn -0.8670 -0.0000 0.4982
vn -0.8297 -0.0000 0.5583
vn -0.7872 -0.0000 0.6166
vn -0.7401 -0.0000 0.6725
vn -0.6873 -0.0000 0.7264
vn -0.6283 -0.0000 0.7779
vn -0.5639 -0.0000 0.8258
vn -0.4950 -0.0000 0.8689
vn -0.4229 -0.0000 0.9062
vn -0.3490 -0.0000 0.9371
vn -0.2748 -0.0000 0.9615
vn -0.2019 -0.0000 0.9794
vn -0.1313 -0.0000 0.9913
vn -0.0639 -0.0000 0.9980
vn -0.0000 -0.0000 1.0000
vn 0.0639 -0.0000 0.9980
vn 0.1313 -0.0000 0.9913
vn 0.2019 -0.0000 0.9794
vn 0.2748 -0.0000 0.9615
vn 0.3490 -0.0000 0.9371
vn 0.4229 -0.0000 0.9062
vn 0.4950 -0.0000 0.8689
vn 0.5639 -0.0000 0.8258
vn 0.6283 -0.0000 0.7779
vn 0.6873 -0.0000 0.7264
vn 0.7401 -0.0000 0.6725
vn 0.7872 -0.0000 0.6166
vn 0.8297 -0.0000 0.5583
vn 0.8670 -0.0000 0.4982
vn 0.8988 -0.0000 0.4383
vn 0.9252 -0.0000 0.3794
vn 0.9466 -0.0000 0.3223
vn 0.9636 -0.0000 0.2675
vn 0.9765 -0.0000 0.2155
vn 0.9861 -0.0000 0.1664
vn 0.9927 -0.0000 0.1204
vn 0.9970 -0.0000 0.0774
vn 0.9993 -0.0000 0.0375
vn 1.0000 -0.0000 -0.0000
vn 0.9993 -0.0000 -0.0375
vn 0.9970 -0.0000 -0.0774
vn 0.9927 -0.0000 -0.1204
vn 0.9861 -0.0000 -0.1664
vn 0.9765 -0.0000 -0.2155
vn 0.9636 -0.0000 -0.2675
vn 0.9466 -0.0000 -0.3223
vn 0.9252 -0.0000 -0.3794
vn 0.8988 -0.0000 -0.4383
vn 0.8670 -0.0000 -0.4982
vn 0.8297 -0.0000 -0.5583
vn 0.7872 -0.0000 -0.6166
vn 0.7401 -0.0000 -0.6725
vn 0.6873 -0.0000 -0.7264
vn 0.6283 -0.0000 -0.7779
vn 0.5639 -0.0000 -0.8258
vn 0.4950 -0.0000 -0.8689
vn 0.4229 -0.0000 -0.9062
vn 0.3490 -0.0000 -0.9371
vn 0.2748 -0.0000 -0.9615
vn 0.2019 -0.0000 -0.9794
vn 0.1313 -0.0000 -0.9913
vn 0.0639 -0.0000 -0.9980
vt 0.275229 0.000000
vt 0.284404 0.000000
vt 0.279817 0.000000
vt 0.288991 0.000000
vt 0.270642 0.000000
vt 0.293578 0.000000
vt 0.266055 0.000000
vt 0.298165 0.000000
vt 0.261468 0.000000
vt 0.302752 0.000000
vt 0.256881 0.000000
vt 0.307339 0.000000
vt 0.252294 0.000000
vt 0.311927 0.000000
vt 0.247706 0.000000
vt 0.316514 0.000000
vt 0.243119 0.000000
vt 0.321101 0.000000
vt 0.238532 0.000000
vt 0.325688 0.000000
vt 0.233945 0.000000
vt 0.330275 0.000000
vt 0.229358 0.000000
vt 0.334862 0.000000
vt 0.224771 0.000000
vt 0.339450 0.000000
vt 0.220183 0.000000
vt 0.344037 0.000000
vt 0.215596 0.000000
vt 0.348624 0.000000
vt 0.211009 0.000000
vt 0.784404 0.000000
vt 0.779817 0.000000
vt 0.353211 0.000000
vt 0.206422 0.000000
vt 0.788991 0.000000
vt 0.775229 0.000000
vt 0.793578 0.000000
vt 0.770642 0.000000
vt 0.798165 0.000000
vt 0.766055 0.000000
vt 0.802752 0.000000
vt 0.357798 0.000000
vt 0.201835 0.000000
vt 0.761468 0.000000
vt 0.807339 0.000000
vt 0.756881 0.000000
vt 0.811927 0.000000
vt 0.362385 0.000000
vt 0.197248 0.000000
vt 0.752294 0.000000
vt 0.816514 0.000000
vt 0.366972 0.000000
vt 0.821101 0.000000
vt 0.747706 0.000000
vt 0.192661 0.000000
vt 0.825688 0.000000
vt 0.743119 0.000000
vt 0.371560 0.000000
vt 0.188073 0.000000
vt 0.830275 0.000000
vt 0.738532 0.000000
vt 0.376147 0.000000
vt 0.183486 0.000000
vt 0.834862 0.000000
vt 0.733945 0.000000
vt 0.380734 0.000000
vt 0.178899 0.000000
vt 0.839450 0.000000
vt 0.729358 0.000000
vt 0.385321 0.000000
vt 0.174312 0.000000
vt 0.844037 0.000000
vt 0.724771 0.000000
vt 0.389908 0.000000
vt 0.169725 0.000000
vt 0.848624 0.000000
vt 0.720183 0.000000
vt 0.394495 0.000000
vt 0.165138 0.000000
vt 0.853211 0.000000
vt 0.715596 0.000000
vt 0.399083 0.000000
vt 0.160550 0.000000
vt 0.857798 0.000000
vt 0.711009 0.000000
vt 0.403670 0.000000
vt 0.155963 0.000000
vt 0.862385 0.000000
vt 0.706422 0.000000
vt 0.408257 0.000000
vt 0.151376 0.000000
vt 0.866973 0.000000
vt 0.701835 0.000000
vt 0.412844 0.000000
vt 0.146789 0.000000
vt 0.871560 0.000000
vt 0.697248 0.000000
vt 0.417431 0.000000
vt 0.142202 0.000000
vt 0.422018 0.000000
vt 0.137615 0.000000
vt 0.876147 0.000000
vt 0.692661 0.000000
vt 0.426605 0.000000
vt 0.133028 0.000000
vt 0.880734 0.000000
vt 0.688073 0.000000
vt 0.431193 0.000000
vt 0.128440 0.000000
vt 0.885321 0.000000
vt 0.683486 0.000000
vt 0.435780 0.000000
vt 0.123853 0.000000
vt 0.889908 0.000000
vt 0.678899 0.000000
vt 0.440367 0.000000
vt 0.119266 0.000000
vt 0.894495 0.000000
vt 0.674312 0.000000
vt 0.444954 0.000000
vt 0.114679 0.000000
vt 0.110092 0.000000
vt 0.899083 0.000000
vt 0.669725 0.000000
vt 0.449541 0.000000
vt 0.665138 0.000000
vt 0.903670 0.000000
vt 0.105505 0.000000
vt 0.454128 0.000000
vt 0.660550 0.000000
vt 0.908257 0.000000
vt 0.100917 0.000000
vt 0.458716 0.000000
vt 0.655963 0.000000
vt 0.912844 0.000000
vt 0.096330 0.000000
vt 0.463303 0.000000
vt 0.651376 0.000000
vt 0.917431 0.000000
vt 0.091743 0.000000
vt 0.467890 0.000000
vt 0.646789 0.000000
vt 0.922018 0.000000
vt 0.087156 0.000000
vt 0.472477 0.000000
vt 0.642202 0.000000
vt 0.926606 0.000000
vt 0.082569 0.000000
vt 0.477064 0.000000
vt 0.637615 0.000000
vt 0.931193 0.000000
vt 0.077982 0.000000
vt 0.481651 0.000000
vt 0.633027 0.000000
vt 0.935780 0.000000
vt 0.073394 0.000000
vt 0.486239 0.000000
vt 0.628440 0.000000
vt 0.940367 0.000000
vt 0.068807 0.000000
vt 0.490826 0.000000
vt 0.623853 0.000000
vt 0.944954 0.000000
vt 0.064220 0.000000
vt 0.495413 0.000000
vt 0.619266 0.000000
vt 0.949541 0.000000
vt 0.059633 0.000000
vt 0.500000 0.000000
vt 0.954128 0.000000
vt 0.614679 0.000000
vt 0.055046 0.000000
vt 0.958716 0.000000
vt 0.610092 0.000000
vt 0.504587 0.000000
vt 0.963303 0.000000
vt 0.605505 0.000000
vt 0.050459 0.000000
vt 0.509174 0.000000
vt 0.967890 0.000000
vt 0.600917 0.000000
vt 0.045872 0.000000
vt 0.513761 0.000000
vt 0.972477 0.000000
vt 0.596330 0.000000
vt 0.041284 0.000000
vt 0.977064 0.000000
vt 0.591743 0.000000
vt 0.518349 0.000000
vt 0.981651 0.000000
vt 0.587156 0.000000
vt 0.036697 0.000000
vt 0.986239 0.000000
vt 0.582569 0.000000
vt 0.522936 0.000000
vt 0.990826 0.000000
vt 0.577982 0.000000
vt 0.995413 0.000000
vt 0.573394 0.000000
vt 0.032110 0.000000
vt 1.000000 0.000000
vt 0.568807 0.000000
vt 0.564220 0.000000
vt 0.527523 0.000000
vt 0.027523 0.000000
vt 0.532110 0.000000
vt 0.022936 0.000000
vt 0.536697 0.000000
vt 0.018349 0.000000
vt 0.541284 0.000000
vt 0.013761 0.000000
vt 0.545872 0.000000
vt 0.009174 0.000000
vt 0.550459 0.000000
vt 0.555046 0.000000
vt 0.004587 0.000000
vt 0.559633 0.000000
vt 0.000000 0.000000
vt 0.000000 1.000000
vt 0.008130 1.000000
vt 0.008130 0.000000
vt 0.016260 1.000000
vt 0.016260 0.000000
vt 0.024390 1.000000
vt 0.024390 0.000000
vt 0.032520 1.000000
vt 0.032520 0.000000
vt 0.040650 1.000000
vt 0.040650 0.000000
vt 0.048780 1.000000
vt 0.048780 0.000000
vt 0.056911 1.000000
vt 0.056911 0.000000
vt 0.065041 1.000000
vt 0.065041 0.000000
vt 0.073171 1.000000
vt 0.073171 0.000000
vt 0.081301 1.000000
vt 0.081301 0.000000
vt 0.089431 1.000000
vt 0.089431 0.000000
vt 0.097561 1.000000
vt 0.097561 0.000000
vt 0.105691 1.000000
vt 0.105691 0.000000
vt 0.113821 1.000000
vt 0.113821 0.000000
vt 0.121951 1.000000
vt 0.121951 0.000000
vt 0.130081 1.000000
vt 0.130081 0.000000
vt 0.138211 1.000000
vt 0.138211 0.000000
vt 0.146341 1.000000
vt 0.146341 0.000000
vt 0.154472 1.000000
vt 0.154472 0.000000
vt 0.162602 1.000000
vt 0.162602 0.000000
vt 0.170732 1.000000
vt 0.170732 0.000000
vt 0.178862 1.000000
vt 0.178862 0.000000
vt 0.186992 1.000000
vt 0.186992 0.000000
vt 0.195122 1.000000
vt 0.195122 0.000000
vt 0.203252 1.000000
vt 0.203252 0.000000
vt 0.211382 1.000000
vt 0.211382 0.000000
vt 0.219512 1.000000
vt 0.219512 0.000000
vt 0.227642 1.000000
vt 0.227642 0.000000
vt 0.235772 1.000000
vt 0.235772 0.000000
vt 0.243902 1.000000
vt 0.243902 0.000000
vt 0.252033 1.000000
vt 0.252033 0.000000
vt 0.260163 1.000000
vt 0.260163 0.000000
vt 0.268293 1.000000
vt 0.268293 0.000000
vt 0.276423 1.000000
vt 0.276423 0.000000
vt 0.284553 1.000000
vt 0.284553 0.000000
vt 0.292683 1.000000
vt 0.292683 0.000000
vt 0.300813 1.000000
vt 0.300813 0.000000
vt 0.308943 1.000000
vt 0.308943 0.000000
vt 0.317073 1.000000
vt 0.317073 0.000000
vt 0.325203 1.000000
vt 0.325203 0.000000
vt 0.333333 1.000000
vt 0.333333 0.000000
vt 0.341463 1.000000
vt 0.341463 0.000000
vt 0.349593 1.000000
vt 0.349593 0.000000
vt 0.357724 1.000000
vt 0.357724 0.000000
vt 0.365854 1.000000
vt 0.365854 0.000000
vt 0.373984 1.000000
vt 0.373984 0.000000
vt 0.382114 1.000000
vt 0.382114 0.000000
vt 0.390244 1.000000
vt 0.390244 0.000000
vt 0.398374 1.000000
vt 0.398374 0.000000
vt 0.406504 1.000000
vt 0.406504 0.000000
vt 0.414634 1.000000
vt 0.414634 0.000000
vt 0.422764 1.000000
vt 0.422764 0.000000
vt 0.430894 1.000000
vt 0.430894 0.000000
vt 0.439024 1.000000
vt 0.439024 0.000000
vt 0.447154 1.000000
vt 0.447154 0.000000
vt 0.455285 1.000000
vt 0.455285 0.000000
vt 0.463415 1.000000
vt 0.463415 0.000000
vt 0.471545 1.000000
vt 0.471545 0.000000
vt 0.479675 1.000000
vt 0.479675 0.000000
vt 0.487805 1.000000
vt 0.487805 0.000000
vt 0.495935 1.000000
vt 0.495935 0.000000
vt 0.504065 1.000000
vt 0.504065 0.000000
vt 0.512195 1.000000
vt 0.512195 0.000000
vt 0.520325 1.000000
vt 0.520325 0.000000
vt 0.528455 1.000000
vt 0.528455 0.000000
vt 0.536585 1.000000
vt 0.536585 0.000000
vt 0.544715 1.000000
vt 0.544715 0.000000
vt 0.552846 1.000000
vt 0.552846 0.000000
vt 0.560976 1.000000
vt 0.560976 0.000000
vt 0.569106 1.000000
vt 0.569106 0.000000
vt 0.577236 1.000000
vt 0.577236 0.000000
vt 0.585366 1.000000
vt 0.585366 0.000000
vt 0.593496 1.000000
vt 0.593496 0.000000
vt 0.601626 1.000000
vt 0.601626 0.000000
vt 0.609756 1.000000
vt 0.609756 0.000000
vt 0.617886 1.000000
vt 0.617886 0.000000
vt 0.626016 1.000000
vt 0.626016 0.000000
vt 0.634146 1.000000
vt 0.634146 0.000000
vt 0.642276 1.000000
vt 0.642276 0.000000
vt 0.650406 1.000000
vt 0.650406 0.000000
vt 0.658537 1.000000
vt 0.658537 0.000000
vt 0.666667 1.000000
vt 0.666667 0.000000
vt 0.674797 1.000000
vt 0.674797 0.000000
vt 0.682927 1.000000
vt 0.682927 0.000000
vt 0.691057 1.000000
vt 0.691057 0.000000
vt 0.699187 1.000000
vt 0.699187 0.000000
vt 0.707317 1.000000
vt 0.707317 0.000000
vt 0.715447 1.000000
vt 0.715447 0.000000
vt 0.723577 1.000000
vt 0.723577 0.000000
vt 0.731707 1.000000
vt 0.731707 0.000000
vt 0.739837 1.000000
vt 0.739837 0.000000
vt 0.747967 1.000000
vt 0.747967 0.000000
vt 0.756098 1.000000
vt 0.756098 0.000000
vt 0.764228 1.000000
vt 0.764228 0.000000
vt 0.772358 1.000000
vt 0.772358 0.000000
vt 0.780488 1.000000
vt 0.780488 0.000000
vt 0.788618 1.000000
vt 0.788618 0.000000
vt 0.796748 1.000000
vt 0.796748 0.000000
vt 0.804878 1.000000
vt 0.804878 0.000000
vt 0.813008 1.000000
vt 0.813008 0.000000
vt 0.821138 1.000000
vt 0.821138 0.000000
vt 0.829268 1.000000
vt 0.829268 0.000000
vt 0.837398 1.000000
vt 0.837398 0.000000
vt 0.845528 1.000000
vt 0.845528 0.000000
vt 0.853659 1.000000
vt 0.853659 0.000000
vt 0.861789 1.000000
vt 0.861789 0.000000
vt 0.869919 1.000000
vt 0.869919 0.000000
vt 0.878049 1.000000
vt 0.878049 0.000000
vt 0.886179 1.000000
vt 0.886179 0.000000
vt 0.894309 1.000000
vt 0.894309 0.000000
vt 0.902439 1.000000
vt 0.902439 0.000000
vt 0.910569 1.000000
vt 0.910569 0.000000
vt 0.918699 1.000000
vt 0.918699 0.000000
vt 0.926829 1.000000
vt 0.926829 0.000000
vt 0.934959 1.000000
vt 0.934959 0.000000
vt 0.943089 1.000000
vt 0.943089 0.000000
vt 0.951219 1.000000
vt 0.951219 0.000000
vt 0.959350 1.000000
vt 0.959350 0.000000
vt 0.967480 1.000000
vt 0.967480 0.000000
vt 0.975610 1.000000
vt 0.975610 0.000000
vt 0.983740 1.000000
vt 0.983740 0.000000
vt 0.991870 1.000000
vt 0.991870 0.000000
vt 1.000000 1.000000
vt 0.010417 1.000000
vt 0.010417 0.000000
vt 0.020833 1.000000
vt 0.020833 0.000000
vt 0.031250 1.000000
vt 0.031250 0.000000
vt 0.041667 1.000000
vt 0.041667 0.000000
vt 0.052083 1.000000
vt 0.052083 0.000000
vt 0.062500 1.000000
vt 0.062500 0.000000
vt 0.072917 1.000000
vt 0.072917 0.000000
vt 0.083333 1.000000
vt 0.083333 0.000000
vt 0.093750 1.000000
vt 0.093750 0.000000
vt 0.104167 1.000000
vt 0.104167 0.000000
vt 0.114583 1.000000
vt 0.114583 0.000000
vt 0.125000 1.000000
vt 0.125000 0.000000
vt 0.135417 1.000000
vt 0.135417 0.000000
vt 0.145833 1.000000
vt 0.145833 0.000000
vt 0.156250 1.000000
vt 0.156250 0.000000
vt 0.166667 1.000000
vt 0.166667 0.000000
vt 0.177083 1.000000
vt 0.177083 0.000000
vt 0.187500 1.000000
vt 0.187500 0.000000
vt 0.197917 1.000000
vt 0.197917 0.000000
vt 0.208333 1.000000
vt 0.208333 0.000000
vt 0.218750 1.000000
vt 0.218750 0.000000
vt 0.229167 1.000000
vt 0.229167 0.000000
vt 0.239583 1.000000
vt 0.239583 0.000000
vt 0.250000 1.000000
vt 0.250000 0.000000
vt 0.260417 1.000000
vt 0.260417 0.000000
vt 0.270833 1.000000
vt 0.270833 0.000000
vt 0.281250 1.000000
vt 0.281250 0.000000
vt 0.291667 1.000000
vt 0.291667 0.000000
vt 0.302083 1.000000
vt 0.302083 0.000000
vt 0.312500 1.000000
vt 0.312500 0.000000
vt 0.322917 1.000000
vt 0.322917 0.000000
vt 0.343750 1.000000
vt 0.343750 0.000000
vt 0.354167 1.000000
vt 0.354167 0.000000
vt 0.364583 1.000000
vt 0.364583 0.000000
vt 0.375000 1.000000
vt 0.375000 0.000000
vt 0.385417 1.000000
vt 0.385417 0.000000
vt 0.395833 1.000000
vt 0.395833 0.000000
vt 0.406250 1.000000
vt 0.406250 0.000000
vt 0.416667 1.000000
vt 0.416667 0.000000
vt 0.427083 1.000000
vt 0.427083 0.000000
vt 0.437500 1.000000
vt 0.437500 0.000000
vt 0.447917 1.000000
vt 0.447917 0.000000
vt 0.458333 1.000000
vt 0.458333 0.000000
vt 0.468750 1.000000
vt 0.468750 0.000000
vt 0.479167 1.000000
vt 0.479167 0.000000
vt 0.489583 1.000000
vt 0.489583 0.000000
vt 0.500000 1.000000
vt 0.510417 1.000000
vt 0.510417 0.000000
vt 0.520833 1.000000
vt 0.520833 0.000000
vt 0.531250 1.000000
vt 0.531250 0.000000
vt 0.541667 1.000000
vt 0.541667 0.000000
vt 0.552083 1.000000
vt 0.552083 0.000000
vt 0.562500 1.000000
vt 0.562500 0.000000
vt 0.572917 1.000000
vt 0.572917 0.000000
vt 0.583333 1.000000
vt 0.583333 0.000000
vt 0.593750 1.000000
vt 0.593750 0.000000
vt 0.604167 1.000000
vt 0.604167 0.000000
vt 0.614583 1.000000
vt 0.614583 0.000000
vt 0.625000 1.000000
vt 0.625000 0.000000
vt 0.635417 1.000000
vt 0.635417 0.000000
vt 0.645833 1.000000
vt 0.645833 0.000000
vt 0.656250 1.000000
vt 0.656250 0.000000
vt 0.677083 1.000000
vt 0.677083 0.000000
vt 0.687500 1.000000
vt 0.687500 0.000000
vt 0.697917 1.000000
vt 0.697917 0.000000
vt 0.708333 1.000000
vt 0.708333 0.000000
vt 0.718750 1.000000
vt 0.718750 0.000000
vt 0.729167 1.000000
vt 0.729167 0.000000
vt 0.739583 1.000000
vt 0.739583 0.000000
vt 0.750000 1.000000
vt 0.750000 0.000000
vt 0.760417 1.000000
vt 0.760417 0.000000
vt 0.770833 1.000000
vt 0.770833 0.000000
vt 0.781250 1.000000
vt 0.781250 0.000000
vt 0.791667 1.000000
vt 0.791667 0.000000
vt 0.802083 1.000000
vt 0.802083 0.000000
vt 0.812500 1.000000
vt 0.812500 0.000000
vt 0.822917 1.000000
vt 0.822917 0.000000
vt 0.833333 1.000000
vt 0.833333 0.000000
vt 0.843750 1.000000
vt 0.843750 0.000000
vt 0.854167 1.000000
vt 0.854167 0.000000
vt 0.864583 1.000000
vt 0.864583 0.000000
vt 0.875000 1.000000
vt 0.875000 0.000000
vt 0.885417 1.000000
vt 0.885417 0.000000
vt 0.895833 1.000000
vt 0.895833 0.000000
vt 0.906250 1.000000
vt 0.906250 0.000000
vt 0.916667 1.000000
vt 0.916667 0.000000
vt 0.927083 1.000000
vt 0.927083 0.000000
vt 0.937500 1.000000
vt 0.937500 0.000000
vt 0.947917 1.000000
vt 0.947917 0.000000
vt 0.958333 1.000000
vt 0.958333 0.000000
vt 0.968750 1.000000
vt 0.968750 0.000000
vt 0.979167 1.000000
vt 0.979167 0.000000
vt 0.989583 1.000000
vt 0.989583 0.000000
s 0
usemtl Material.001
f 61/1/1 63/2/1 62/3/1
f 61/1/1 64/4/1 63/2/1
f 60/5/1 64/4/1 61/1/1
f 60/5/1 65/6/1 64/4/1
f 59/7/1 65/6/1 60/5/1
f 59/7/1 66/8/1 65/6/1
f 58/9/1 66/8/1 59/7/1
f 58/9/1 67/10/1 66/8/1
f 57/11/1 67/10/1 58/9/1
f 57/11/1 68/12/1 67/10/1
f 56/13/1 68/12/1 57/11/1
f 56/13/1 69/14/1 68/12/1
f 55/15/1 69/14/1 56/13/1
f 55/15/1 70/16/1 69/14/1
f 54/17/1 70/16/1 55/15/1
f 54/17/1 71/18/1 70/16/1
f 53/19/1 71/18/1 54/17/1
f 53/19/1 72/20/1 71/18/1
f 52/21/1 72/20/1 53/19/1
f 52/21/1 73/22/1 72/20/1
f 51/23/1 73/22/1 52/21/1
f 51/23/1 74/24/1 73/22/1
f 50/25/1 74/24/1 51/23/1
f 50/25/1 75/26/1 74/24/1
f 49/27/1 75/26/1 50/25/1
f 49/27/1 76/28/1 75/26/1
f 48/29/1 76/28/1 49/27/1
f 48/29/1 77/30/1 76/28/1
f 47/31/1 77/30/1 48/29/1
f 47/31/1 172/32/1 77/30/1
f 172/32/1 171/33/1 77/30/1
f 171/33/1 78/34/1 77/30/1
f 46/35/1 173/36/1 47/31/1
f 173/36/1 172/32/1 47/31/1
f 170/37/1 78/34/1 171/33/1
f 46/35/1 174/38/1 173/36/1
f 169/39/1 78/34/1 170/37/1
f 46/35/1 175/40/1 174/38/1
f 168/41/1 78/34/1 169/39/1
f 46/35/1 176/42/1 175/40/1
f 168/41/1 79/43/1 78/34/1
f 45/44/1 176/42/1 46/35/1
f 167/45/1 79/43/1 168/41/1
f 45/44/1 177/46/1 176/42/1
f 166/47/1 79/43/1 167/45/1
f 45/44/1 178/48/1 177/46/1
f 166/47/1 80/49/1 79/43/1
f 44/50/1 178/48/1 45/44/1
f 165/51/1 80/49/1 166/47/1
f 44/50/1 179/52/1 178/48/1
f 165/51/1 81/53/1 80/49/1
f 44/50/1 180/54/1 179/52/1
f 164/55/1 81/53/1 165/51/1
f 43/56/1 180/54/1 44/50/1
f 43/56/1 181/57/1 180/54/1
f 163/58/1 81/53/1 164/55/1
f 163/58/1 82/59/1 81/53/1
f 42/60/1 181/57/1 43/56/1
f 42/60/1 182/61/1 181/57/1
f 162/62/1 82/59/1 163/58/1
f 162/62/1 83/63/1 82/59/1
f 41/64/1 182/61/1 42/60/1
f 41/64/1 183/65/1 182/61/1
f 161/66/1 83/63/1 162/62/1
f 161/66/1 84/67/1 83/63/1
f 40/68/1 183/65/1 41/64/1
f 40/68/1 184/69/1 183/65/1
f 160/70/1 84/67/1 161/66/1
f 160/70/1 85/71/1 84/67/1
f 39/72/1 184/69/1 40/68/1
f 39/72/1 185/73/1 184/69/1
f 159/74/1 85/71/1 160/70/1
f 159/74/1 86/75/1 85/71/1
f 38/76/1 185/73/1 39/72/1
f 38/76/1 186/77/1 185/73/1
f 158/78/1 86/75/1 159/74/1
f 158/78/1 87/79/1 86/75/1
f 37/80/1 186/77/1 38/76/1
f 37/80/1 187/81/1 186/77/1
f 157/82/1 87/79/1 158/78/1
f 157/82/1 88/83/1 87/79/1
f 36/84/1 187/81/1 37/80/1
f 36/84/1 188/85/1 187/81/1
f 156/86/1 88/83/1 157/82/1
f 156/86/1 89/87/1 88/83/1
f 35/88/1 188/85/1 36/84/1
f 35/88/1 189/89/1 188/85/1
f 155/90/1 89/87/1 156/86/1
f 155/90/1 90/91/1 89/87/1
f 34/92/1 189/89/1 35/88/1
f 34/92/1 190/93/1 189/89/1
f 154/94/1 90/91/1 155/90/1
f 154/94/1 91/95/1 90/91/1
f 33/96/1 190/93/1 34/92/1
f 33/96/1 191/97/1 190/93/1
f 153/98/1 91/95/1 154/94/1
f 153/98/1 92/99/1 91/95/1
f 32/100/1 191/97/1 33/96/1
f 153/98/1 93/101/1 92/99/1
f 31/102/1 191/97/1 32/100/1
f 31/102/1 192/103/1 191/97/1
f 152/104/1 93/101/1 153/98/1
f 152/104/1 94/105/1 93/101/1
f 30/106/1 192/103/1 31/102/1
f 30/106/1 193/107/1 192/103/1
f 151/108/1 94/105/1 152/104/1
f 151/108/1 95/109/1 94/105/1
f 29/110/1 193/107/1 30/106/1
f 29/110/1 194/111/1 193/107/1
f 150/112/1 95/109/1 151/108/1
f 150/112/1 96/113/1 95/109/1
f 28/114/1 194/111/1 29/110/1
f 28/114/1 195/115/1 194/111/1
f 149/116/1 96/113/1 150/112/1
f 149/116/1 97/117/1 96/113/1
f 27/118/1 195/115/1 28/114/1
f 27/118/1 196/119/1 195/115/1
f 148/120/1 97/117/1 149/116/1
f 148/120/1 98/121/1 97/117/1
f 26/122/1 196/119/1 27/118/1
f 25/123/1 196/119/1 26/122/1
f 25/123/1 197/124/1 196/119/1
f 147/125/1 98/121/1 148/120/1
f 147/125/1 99/126/1 98/121/1
f 146/127/1 99/126/1 147/125/1
f 25/123/1 198/128/1 197/124/1
f 24/129/1 198/128/1 25/123/1
f 146/127/1 100/130/1 99/126/1
f 145/131/1 100/130/1 146/127/1
f 24/129/1 199/132/1 198/128/1
f 23/133/1 199/132/1 24/129/1
f 145/131/1 101/134/1 100/130/1
f 144/135/1 101/134/1 145/131/1
f 23/133/1 200/136/1 199/132/1
f 22/137/1 200/136/1 23/133/1
f 144/135/1 102/138/1 101/134/1
f 143/139/1 102/138/1 144/135/1
f 22/137/1 201/140/1 200/136/1
f 21/141/1 201/140/1 22/137/1
f 143/139/1 103/142/1 102/138/1
f 142/143/1 103/142/1 143/139/1
f 21/141/1 202/144/1 201/140/1
f 20/145/1 202/144/1 21/141/1
f 142/143/1 104/146/1 103/142/1
f 141/147/1 104/146/1 142/143/1
f 20/145/1 203/148/1 202/144/1
f 19/149/1 203/148/1 20/145/1
f 141/147/1 105/150/1 104/146/1
f 140/151/1 105/150/1 141/147/1
f 19/149/1 204/152/1 203/148/1
f 18/153/1 204/152/1 19/149/1
f 140/151/1 106/154/1 105/150/1
f 139/155/1 106/154/1 140/151/1
f 18/153/1 205/156/1 204/152/1
f 17/157/1 205/156/1 18/153/1
f 139/155/1 107/158/1 106/154/1
f 138/159/1 107/158/1 139/155/1
f 17/157/1 206/160/1 205/156/1
f 16/161/1 206/160/1 17/157/1
f 138/159/1 108/162/1 107/158/1
f 137/163/1 108/162/1 138/159/1
f 16/161/1 207/164/1 206/160/1
f 15/165/1 207/164/1 16/161/1
f 137/163/1 109/166/1 108/162/1
f 136/167/1 109/166/1 137/163/1
f 15/165/1 208/168/1 207/164/1
f 14/169/1 208/168/1 15/165/1
f 136/167/1 110/170/1 109/166/1
f 14/169/1 209/171/1 208/168/1
f 135/172/1 110/170/1 136/167/1
f 13/173/1 209/171/1 14/169/1
f 13/173/1 210/174/1 209/171/1
f 134/175/1 110/170/1 135/172/1
f 134/175/1 111/176/1 110/170/1
f 13/173/1 211/177/1 210/174/1
f 133/178/1 111/176/1 134/175/1
f 12/179/1 211/177/1 13/173/1
f 133/178/1 112/180/1 111/176/1
f 12/179/1 212/181/1 211/177/1
f 132/182/1 112/180/1 133/178/1
f 11/183/1 212/181/1 12/179/1
f 132/182/1 113/184/1 112/180/1
f 11/183/1 213/185/1 212/181/1
f 131/186/1 113/184/1 132/182/1
f 10/187/1 213/185/1 11/183/1
f 10/187/1 214/188/1 213/185/1
f 130/189/1 113/184/1 131/186/1
f 130/189/1 114/190/1 113/184/1
f 10/187/1 215/191/1 214/188/1
f 129/192/1 114/190/1 130/189/1
f 9/193/1 215/191/1 10/187/1
f 9/193/1 216/194/1 215/191/1
f 128/195/1 114/190/1 129/192/1
f 128/195/1 115/196/1 114/190/1
f 9/193/1 217/197/1 216/194/1
f 127/198/1 115/196/1 128/195/1
f 9/193/1 218/199/1 217/197/1
f 126/200/1 115/196/1 127/198/1
f 8/201/1 218/199/1 9/193/1
f 8/201/1 219/202/1 218/199/1
f 125/203/1 115/196/1 126/200/1
f 8/201/1 124/204/1 219/202/1
f 124/204/1 115/196/1 125/203/1
f 8/201/1 115/196/1 124/204/1
f 8/201/1 116/205/1 115/196/1
f 7/206/1 116/205/1 8/201/1
f 7/206/1 117/207/1 116/205/1
f 6/208/1 117/207/1 7/206/1
f 6/208/1 118/209/1 117/207/1
f 5/210/1 118/209/1 6/208/1
f 5/210/1 119/211/1 118/209/1
f 4/212/1 119/211/1 5/210/1
f 4/212/1 120/213/1 119/211/1
f 3/214/1 120/213/1 4/212/1
f 3/214/1 121/215/1 120/213/1
f 3/214/1 122/216/1 121/215/1
f 2/217/1 122/216/1 3/214/1
f 2/217/1 123/218/1 122/216/1
f 1/219/1 123/218/1 2/217/1
f 280/1/2 281/3/2 282/2/2
f 280/1/2 282/2/2 283/4/2
f 279/5/2 280/1/2 283/4/2
f 279/5/2 283/4/2 284/6/2
f 278/7/2 279/5/2 284/6/2
f 278/7/2 284/6/2 285/8/2
f 277/9/2 278/7/2 285/8/2
f 277/9/2 285/8/2 286/10/2
f 276/11/2 277/9/2 286/10/2
f 276/11/2 286/10/2 287/12/2
f 275/13/2 276/11/2 287/12/2
f 275/13/2 287/12/2 288/14/2
f 274/15/2 275/13/2 288/14/2
f 274/15/2 288/14/2 289/16/2
f 273/17/2 274/15/2 289/16/2
f 273/17/2 289/16/2 290/18/2
f 272/19/2 273/17/2 290/18/2
f 272/19/2 290/18/2 291/20/2
f 271/21/2 272/19/2 291/20/2
f 271/21/2 291/20/2 292/22/2
f 270/23/2 271/21/2 292/22/2
f 270/23/2 292/22/2 293/24/2
f 269/25/2 270/23/2 293/24/2
f 269/25/2 293/24/2 294/26/2
f 268/27/2 269/25/2 294/26/2
f 268/27/2 294/26/2 295/28/2
f 267/29/2 268/27/2 295/28/2
f 267/29/2 295/28/2 296/30/2
f 266/31/2 267/29/2 296/30/2
f 266/31/2 296/30/2 391/32/2
f 391/32/2 296/30/2 390/33/2
f 390/33/2 296/30/2 297/34/2
f 265/35/2 266/31/2 392/36/2
f 392/36/2 266/31/2 391/32/2
f 389/37/2 390/33/2 297/34/2
f 265/35/2 392/36/2 393/38/2
f 388/39/2 389/37/2 297/34/2
f 265/35/2 393/38/2 394/40/2
f 387/41/2 388/39/2 297/34/2
f 265/35/2 394/40/2 395/42/2
f 387/41/2 297/34/2 298/43/2
f 264/44/2 265/35/2 395/42/2
f 386/45/2 387/41/2 298/43/2
f 264/44/2 395/42/2 396/46/2
f 385/47/2 386/45/2 298/43/2
f 264/44/2 396/46/2 397/48/2
f 385/47/2 298/43/2 299/49/2
f 263/50/2 264/44/2 397/48/2
f 384/51/2 385/47/2 299/49/2
f 263/50/2 397/48/2 398/52/2
f 384/51/2 299/49/2 300/53/2
f 263/50/2 398/52/2 399/54/2
f 383/55/2 384/51/2 300/53/2
f 262/56/2 263/50/2 399/54/2
f 262/56/2 399/54/2 400/57/2
f 382/58/2 383/55/2 300/53/2
f 382/58/2 300/53/2 301/59/2
f 261/60/2 262/56/2 400/57/2
f 261/60/2 400/57/2 401/61/2
f 381/62/2 382/58/2 301/59/2
f 381/62/2 301/59/2 302/63/2
f 260/64/2 261/60/2 401/61/2
f 260/64/2 401/61/2 402/65/2
f 380/66/2 381/62/2 302/63/2
f 380/66/2 302/63/2 303/67/2
f 259/68/2 260/64/2 402/65/2
f 259/68/2 402/65/2 403/69/2
f 379/70/2 380/66/2 303/67/2
f 379/70/2 303/67/2 304/71/2
f 258/72/2 259/68/2 403/69/2
f 258/72/2 403/69/2 404/73/2
f 378/74/2 379/70/2 304/71/2
f 378/74/2 304/71/2 305/75/2
f 257/76/2 258/72/2 404/73/2
f 257/76/2 404/73/2 405/77/2
f 377/78/2 378/74/2 305/75/2
f 377/78/2 305/75/2 306/79/2
f 256/80/2 257/76/2 405/77/2
f 256/80/2 405/77/2 406/81/2
f 376/82/2 377/78/2 306/79/2
f 376/82/2 306/79/2 307/83/2
f 255/84/2 256/80/2 406/81/2
f 255/84/2 406/81/2 407/85/2
f 375/86/2 376/82/2 307/83/2
f 375/86/2 307/83/2 308/87/2
f 254/88/2 255/84/2 407/85/2
f 254/88/2 407/85/2 408/89/2
f 374/90/2 375/86/2 308/87/2
f 374/90/2 308/87/2 309/91/2
f 253/92/2 254/88/2 408/89/2
f 253/92/2 408/89/2 409/93/2
f 373/94/2 374/90/2 309/91/2
f 373/94/2 309/91/2 310/95/2
f 252/96/2 253/92/2 409/93/2
f 252/96/2 409/93/2 410/97/2
f 372/98/2 373/94/2 310/95/2
f 372/98/2 310/95/2 311/99/2
f 251/100/2 252/96/2 410/97/2
f 372/98/2 311/99/2 312/101/2
f 250/102/2 251/100/2 410/97/2
f 250/102/2 410/97/2 411/103/2
f 371/104/2 372/98/2 312/101/2
f 371/104/2 312/101/2 313/105/2
f 249/106/2 250/102/2 411/103/2
f 249/106/2 411/103/2 412/107/2
f 370/108/2 371/104/2 313/105/2
f 370/108/2 313/105/2 314/109/2
f 248/110/2 249/106/2 412/107/2
f 248/110/2 412/107/2 413/111/2
f 369/112/2 370/108/2 314/109/2
f 369/112/2 314/109/2 315/113/2
f 247/114/2 248/110/2 413/111/2
f 247/114/2 413/111/2 414/115/2
f 368/116/2 369/112/2 315/113/2
f 368/116/2 315/113/2 316/117/2
f 246/118/2 247/114/2 414/115/2
f 246/118/2 414/115/2 415/119/2
f 367/120/2 368/116/2 316/117/2
f 367/120/2 316/117/2 317/121/2
f 245/122/2 246/118/2 415/119/2
f 244/123/2 245/122/2 415/119/2
f 244/123/2 415/119/2 416/124/2
f 366/125/2 367/120/2 317/121/2
f 366/125/2 317/121/2 318/126/2
f 365/127/2 366/125/2 318/126/2
f 244/123/2 416/124/2 417/128/2
f 243/129/2 244/123/2 417/128/2
f 365/127/2 318/126/2 319/130/2
f 364/131/2 365/127/2 319/130/2
f 243/129/2 417/128/2 418/132/2
f 242/133/2 243/129/2 418/132/2
f 364/131/2 319/130/2 320/134/2
f 363/135/2 364/131/2 320/134/2
f 242/133/2 418/132/2 419/136/2
f 241/137/2 242/133/2 419/136/2
f 363/135/2 320/134/2 321/138/2
f 362/139/2 363/135/2 321/138/2
f 241/137/2 419/136/2 420/140/2
f 240/141/2 241/137/2 420/140/2
f 362/139/2 321/138/2 322/142/2
f 361/143/2 362/139/2 322/142/2
f 240/141/2 420/140/2 421/144/2
f 239/145/2 240/141/2 421/144/2
f 361/143/2 322/142/2 323/146/2
f 360/147/2 361/143/2 323/146/2
f 239/145/2 421/144/2 422/148/2
f 238/149/2 239/145/2 422/148/2
f 360/147/2 323/146/2 324/150/2
f 359/151/2 360/147/2 324/150/2
f 238/149/2 422/148/2 423/152/2
f 237/153/2 238/149/2 423/152/2
f 359/151/2 324/150/2 325/154/2
f 358/155/2 359/151/2 325/154/2
f 237/153/2 423/152/2 424/156/2
f 236/157/2 237/153/2 424/156/2
f 358/155/2 325/154/2 326/158/2
f 357/159/2 358/155/2 326/158/2
f 236/157/2 424/156/2 425/160/2
f 235/161/2 236/157/2 425/160/2
f 357/159/2 326/158/2 327/162/2
f 356/163/2 357/159/2 327/162/2
f 235/161/2 425/160/2 426/164/2
f 234/165/2 235/161/2 426/164/2
f 356/163/2 327/162/2 328/166/2
f 355/167/2 356/163/2 328/166/2
f 234/165/2 426/164/2 427/168/2
f 233/169/2 234/165/2 427/168/2
f 355/167/2 328/166/2 329/170/2
f 233/169/2 427/168/2 428/171/2
f 354/172/2 355/167/2 329/170/2
f 232/173/2 233/169/2 428/171/2
f 232/173/2 428/171/2 429/174/2
f 353/175/2 354/172/2 329/170/2
f 353/175/2 329/170/2 330/176/2
f 232/173/2 429/174/2 430/177/2
f 352/178/2 353/175/2 330/176/2
f 231/179/2 232/173/2 430/177/2
f 352/178/2 330/176/2 331/180/2
f 231/179/2 430/177/2 431/181/2
f 351/182/2 352/178/2 331/180/2
f 230/183/2 231/179/2 431/181/2
f 351/182/2 331/180/2 332/184/2
f 230/183/2 431/181/2 432/185/2
f 350/186/2 351/182/2 332/184/2
f 229/187/2 230/183/2 432/185/2
f 229/187/2 432/185/2 433/188/2
f 349/189/2 350/186/2 332/184/2
f 349/189/2 332/184/2 333/190/2
f 229/187/2 433/188/2 434/191/2
f 348/192/2 349/189/2 333/190/2
f 228/193/2 229/187/2 434/191/2
f 228/193/2 434/191/2 435/194/2
f 347/195/2 348/192/2 333/190/2
f 347/195/2 333/190/2 334/196/2
f 228/193/2 435/194/2 436/197/2
f 346/198/2 347/195/2 334/196/2
f 228/193/2 436/197/2 437/199/2
f 345/200/2 346/198/2 334/196/2
f 227/201/2 228/193/2 437/199/2
f 227/201/2 437/199/2 438/202/2
f 344/203/2 345/200/2 334/196/2
f 227/201/2 438/202/2 343/204/2
f 343/204/2 344/203/2 334/196/2
f 227/201/2 343/204/2 334/196/2
f 227/201/2 334/196/2 335/205/2
f 226/206/2 227/201/2 335/205/2
f 226/206/2 335/205/2 336/207/2
f 225/208/2 226/206/2 336/207/2
f 225/208/2 336/207/2 337/209/2
f 224/210/2 225/208/2 337/209/2
f 224/210/2 337/209/2 338/211/2
f 223/212/2 224/210/2 338/211/2
f 223/212/2 338/211/2 339/213/2
f 222/214/2 223/212/2 339/213/2
f 222/214/2 339/213/2 340/215/2
f 222/214/2 340/215/2 341/216/2
f 221/217/2 222/214/2 341/216/2
f 221/217/2 341/216/2 342/218/2
f 220/219/2 221/217/2 342/218/2
s 1
f 440/220/3 442/221/4 441/222/4 439/219/3
f 442/221/4 444/223/5 443/224/5 441/222/4
f 444/223/5 446/225/6 445/226/6 443/224/5
f 446/225/6 448/227/7 447/228/7 445/226/6
f 448/227/7 450/229/8 449/230/8 447/228/7
f 450/229/8 452/231/9 451/232/9 449/230/8
f 452/231/9 454/233/10 453/234/10 451/232/9
f 454/233/10 456/235/11 455/236/11 453/234/10
f 456/235/11 458/237/12 457/238/12 455/236/11
f 458/237/12 460/239/13 459/240/13 457/238/12
f 460/239/13 462/241/14 461/242/14 459/240/13
f 462/241/14 464/243/15 463/244/15 461/242/14
f 464/243/15 466/245/16 465/246/16 463/244/15
f 466/245/16 468/247/17 467/248/17 465/246/16
f 468/247/17 470/249/18 469/250/18 467/248/17
f 470/249/18 472/251/19 471/252/19 469/250/18
f 472/251/19 474/253/20 473/254/20 471/252/19
f 474/253/20 476/255/21 475/256/21 473/254/20
f 476/255/21 478/257/22 477/258/22 475/256/21
f 478/257/22 480/259/23 479/260/23 477/258/22
f 480/259/23 482/261/24 481/262/24 479/260/23
f 482/261/24 484/263/25 483/264/25 481/262/24
f 484/263/25 486/265/26 485/266/26 483/264/25
f 486/265/26 488/267/27 487/268/27 485/266/26
f 488/267/27 490/269/28 489/270/28 487/268/27
f 490/269/28 492/271/29 491/272/29 489/270/28
f 492/271/29 494/273/30 493/274/30 491/272/29
f 494/273/30 496/275/31 495/276/31 493/274/30
f 496/275/31 498/277/32 497/278/32 495/276/31
f 498/277/32 500/279/33 499/280/33 497/278/32
f 500/279/33 502/281/34 501/282/34 499/280/33
f 502/281/34 504/283/35 503/284/35 501/282/34
f 504/283/35 506/285/36 505/286/36 503/284/35
f 506/285/36 508/287/37 507/288/37 505/286/36
f 508/287/37 510/289/38 509/290/38 507/288/37
f 510/289/38 512/291/39 511/292/39 509/290/38
f 512/291/39 514/293/40 513/294/40 511/292/39
f 514/293/40 516/295/41 515/296/41 513/294/40
f 516/295/41 518/297/42 517/298/42 515/296/41
f 518/297/42 520/299/43 519/300/43 517/298/42
f 520/299/43 522/301/44 521/302/44 519/300/43
f 522/301/44 524/303/45 523/304/45 521/302/44
f 524/303/45 526/305/46 525/306/46 523/304/45
f 526/305/46 528/307/47 527/308/47 525/306/46
f 528/307/47 530/309/48 529/310/48 527/308/47
f 530/309/48 532/311/49 531/312/49 529/310/48
f 532/311/49 534/313/50 533/314/50 531/312/49
f 534/313/50 536/315/51 535/316/51 533/314/50
f 536/315/51 538/317/52 537/318/52 535/316/51
f 538/317/52 540/319/53 539/320/53 537/318/52
f 540/319/53 542/321/54 541/322/54 539/320/53
f 542/321/54 544/323/55 543/324/55 541/322/54
f 544/323/55 546/325/56 545/326/56 543/324/55
f 546/325/56 548/327/57 547/328/57 545/326/56
f 548/327/57 550/329/58 549/330/58 547/328/57
f 550/329/58 552/331/59 551/332/59 549/330/58
f 552/331/59 554/333/60 553/334/60 551/332/59
f 554/333/60 556/335/61 555/336/61 553/334/60
f 556/335/61 558/337/62 557/338/62 555/336/61
f 558/337/62 560/339/63 559/340/63 557/338/62
f 560/339/63 562/341/64 561/342/64 559/340/63
f 562/341/64 564/343/65 563/344/65 561/342/64
f 564/343/65 566/345/66 565/346/66 563/344/65
f 566/345/66 568/347/67 567/348/67 565/346/66
f 568/347/67 570/349/68 569/350/68 567/348/67
f 570/349/68 572/351/69 571/352/69 569/350/68
f 572/351/69 574/353/70 573/354/70 571/352/69
f 574/353/70 576/355/71 575/356/71 573/354/70
f 576/355/71 578/357/72 577/358/72 575/356/71
f 578/357/72 580/359/73 579/360/73 577/358/72
f 580/359/73 582/361/74 581/362/74 579/360/73
f 582/361/74 584/363/75 583/364/75 581/362/74
f 584/363/75 586/365/76 585/366/76 583/364/75
f 586/365/76 588/367/77 587/368/77 585/366/76
f 588/367/77 590/369/78 589/370/78 587/368/77
f 590/369/78 592/371/79 591/372/79 589/370/78
f 592/371/79 594/373/80 593/374/80 591/372/79
f 594/373/80 596/375/81 595/376/81 593/374/80
f 596/375/81 598/377/82 597/378/82 595/376/81
f 598/377/82 600/379/83 599/380/83 597/378/82
f 600/379/83 602/381/84 601/382/84 599/380/83
f 602/381/84 604/383/85 603/384/85 601/382/84
f 604/383/85 606/385/86 605/386/86 603/384/85
f 606/385/86 608/387/87 607/388/87 605/386/86
f 608/387/87 610/389/88 609/390/88 607/388/87
f 610/389/88 612/391/89 611/392/89 609/390/88
f 612/391/89 614/393/90 613/394/90 611/392/89
f 614/393/90 616/395/91 615/396/91 613/394/90
f 616/395/91 618/397/92 617/398/92 615/396/91
f 618/397/92 620/399/93 619/400/93 617/398/92
f 620/399/93 622/401/94 621/402/94 619/400/93
f 622/401/94 624/403/95 623/404/95 621/402/94
f 624/403/95 626/405/96 625/406/96 623/404/95
f 626/405/96 628/407/97 627/408/97 625/406/96
f 628/407/97 630/409/98 629/410/98 627/408/97
f 630/409/98 632/411/99 631/412/99 629/410/98
f 632/411/99 634/413/100 633/414/100 631/412/99
f 634/413/100 636/415/101 635/416/101 633/414/100
f 636/415/101 638/417/102 637/418/102 635/416/101
f 638/417/102 640/419/103 639/420/103 637/418/102
f 640/419/103 642/421/104 641/422/104 639/420/103
f 642/421/104 644/423/105 643/424/105 641/422/104
f 644/423/105 646/425/106 645/426/106 643/424/105
f 646/425/106 648/427/107 647/428/107 645/426/106
f 648/427/107 650/429/108 649/430/108 647/428/107
f 650/429/108 652/431/109 651/432/109 649/430/108
f 652/431/109 654/433/110 653/434/110 651/432/109
f 654/433/110 656/435/111 655/436/111 653/434/110
f 656/435/111 658/437/112 657/438/112 655/436/111
f 658/437/112 660/439/113 659/440/113 657/438/112
f 660/439/113 662/441/114 661/442/114 659/440/113
f 662/441/114 664/443/115 663/444/115 661/442/114
f 664/443/115 666/445/116 665/446/116 663/444/115
f 666/445/116 668/447/117 667/448/117 665/446/116
f 668/447/117 670/449/118 669/450/118 667/448/117
f 670/449/118 672/451/119 671/452/119 669/450/118
f 672/451/119 674/453/120 673/454/120 671/452/119
f 674/453/120 676/455/121 675/456/121 673/454/120
f 676/455/121 678/457/122 677/458/122 675/456/121
f 678/457/122 680/459/123 679/460/123 677/458/122
f 680/459/123 682/461/124 681/462/124 679/460/123
f 682/461/124 684/463/125 683/464/125 681/462/124
f 684/463/125 440/465/3 439/202/3 683/464/125
f 686/220/126 688/466/127 687/467/127 685/219/126
f 688/466/127 690/468/128 689/469/128 687/467/127
f 690/468/128 692/470/129 691/471/129 689/469/128
f 692/470/129 694/472/130 693/473/130 691/471/129
f 694/472/130 696/474/131 695/475/131 693/473/130
f 696/474/131 698/476/132 697/477/132 695/475/131
f 698/476/132 700/478/133 699/479/133 697/477/132
f 700/478/133 702/480/134 701/481/134 699/479/133
f 702/480/134 704/482/135 703/483/135 701/481/134
f 704/482/135 706/484/136 705/485/136 703/483/135
f 706/484/136 708/486/137 707/487/137 705/485/136
f 708/486/137 710/488/138 709/489/138 707/487/137
f 710/488/138 712/490/139 711/491/139 709/489/138
f 712/490/139 714/492/140 713/493/140 711/491/139
f 714/492/140 716/494/141 715/495/141 713/493/140
f 716/494/141 718/496/142 717/497/142 715/495/141
f 718/496/142 720/498/143 719/499/143 717/497/142
f 720/498/143 722/500/144 721/501/144 719/499/143
f 722/500/144 724/502/145 723/503/145 721/501/144
f 724/502/145 726/504/146 725/505/146 723/503/145
f 726/504/146 728/506/147 727/507/147 725/505/146
f 728/506/147 730/508/148 729/509/148 727/507/147
f 730/508/148 732/510/149 731/511/149 729/509/148
f 732/510/149 734/512/150 733/513/150 731/511/149
f 734/512/150 736/514/151 735/515/151 733/513/150
f 736/514/151 738/516/152 737/517/152 735/515/151
f 738/516/152 740/518/153 739/519/153 737/517/152
f 740/518/153 742/520/154 741/521/154 739/519/153
f 742/520/154 744/522/155 743/523/155 741/521/154
f 744/522/155 746/524/156 745/525/156 743/523/155
f 746/524/156 748/526/157 747/527/157 745/525/156
f 748/526/157 750/301/158 749/302/158 747/527/157
f 750/301/158 752/528/159 751/529/159 749/302/158
f 752/528/159 754/530/160 753/531/160 751/529/159
f 754/530/160 756/532/161 755/533/161 753/531/160
f 756/532/161 758/534/162 757/535/162 755/533/161
f 758/534/162 760/536/163 759/537/163 757/535/162
f 760/536/163 762/538/164 761/539/164 759/537/163
f 762/538/164 764/540/165 763/541/165 761/539/164
f 764/540/165 766/542/166 765/543/166 763/541/165
f 766/542/166 768/544/167 767/545/167 765/543/166
f 768/544/167 770/546/168 769/547/168 767/545/167
f 770/546/168 772/548/169 771/549/169 769/547/168
f 772/548/169 774/550/170 773/551/170 771/549/169
f 774/550/170 776/552/171 775/553/171 773/551/170
f 776/552/171 778/554/172 777/555/172 775/553/171
f 778/554/172 780/556/173 779/557/173 777/555/172
f 780/556/173 782/558/174 781/170/174 779/557/173
f 782/558/174 784/559/175 783/560/175 781/170/174
f 784/559/175 786/561/176 785/562/176 783/560/175
f 786/561/176 788/563/177 787/564/177 785/562/176
f 788/563/177 790/565/178 789/566/178 787/564/177
f 790/565/178 792/567/179 791/568/179 789/566/178
f 792/567/179 794/569/180 793/570/180 791/568/179
f 794/569/180 796/571/181 795/572/181 793/570/180
f 796/571/181 798/573/182 797/574/182 795/572/181
f 798/573/182 800/575/183 799/576/183 797/574/182
f 800/575/183 802/577/184 801/578/184 799/576/183
f 802/577/184 804/579/185 803/580/185 801/578/184
f 804/579/185 806/581/186 805/582/186 803/580/185
f 806/581/186 808/583/187 807/584/187 805/582/186
f 808/583/187 810/585/188 809/586/188 807/584/187
f 810/585/188 812/587/189 811/588/189 809/586/188
f 812/587/189 814/383/190 813/384/190 811/588/189
f 814/383/190 816/589/191 815/590/191 813/384/190
f 816/589/191 818/591/192 817/592/192 815/590/191
f 818/591/192 820/593/193 819/594/193 817/592/192
f 820/593/193 822/595/194 821/596/194 819/594/193
f 822/595/194 824/597/195 823/598/195 821/596/194
f 824/597/195 826/599/196 825/600/196 823/598/195
f 826/599/196 828/601/197 827/602/197 825/600/196
f 828/601/197 830/603/198 829/604/198 827/602/197
f 830/603/198 832/605/199 831/606/199 829/604/198
f 832/605/199 834/607/200 833/608/200 831/606/199
f 834/607/200 836/609/201 835/610/201 833/608/200
f 836/609/201 838/611/202 837/612/202 835/610/201
f 838/611/202 840/613/203 839/614/203 837/612/202
f 840/613/203 842/615/204 841/616/204 839/614/203
f 842/615/204 844/617/205 843/618/205 841/616/204
f 844/617/205 846/619/206 845/620/206 843/618/205
f 846/619/206 848/621/207 847/622/207 845/620/206
f 848/621/207 850/623/208 849/624/208 847/622/207
f 850/623/208 852/625/209 851/626/209 849/624/208
f 852/625/209 854/627/210 853/628/210 851/626/209
f 854/627/210 856/629/211 855/630/211 853/628/210
f 856/629/211 858/631/212 857/632/212 855/630/211
f 858/631/212 860/633/213 859/634/213 857/632/212
f 860/633/213 862/635/214 861/636/214 859/634/213
f 862/635/214 864/637/215 863/638/215 861/636/214
f 864/637/215 866/639/216 865/640/216 863/638/215
f 866/639/216 868/641/217 867/642/217 865/640/216
f 868/641/217 870/643/218 869/644/218 867/642/217
f 870/643/218 872/645/219 871/646/219 869/644/218
f 872/645/219 874/647/220 873/648/220 871/646/219
f 874/647/220 876/649/221 875/650/221 873/648/220
f 876/649/221 686/465/126 685/202/126 875/650/221
