# Blender 4.0.2
# www.blender.org
mtllib R_regular.mtl
o Text
v -0.594231 0.600000 1.350000
v -0.871154 0.600000 1.350000
v -0.871154 0.600000 -1.303846
v 0.251923 0.600000 -1.303846
v 0.308040 0.600000 -1.302431
v 0.362286 0.600000 -1.298184
v 0.414663 0.600000 -1.291106
v 0.465171 0.600000 -1.281197
v 0.513809 0.600000 -1.268456
v 0.560577 0.600000 -1.252885
v 0.605475 0.600000 -1.234482
v 0.648504 0.600000 -1.213248
v 0.689664 0.600000 -1.189183
v 0.728953 0.600000 -1.162287
v 0.766373 0.600000 -1.132559
v 0.801923 0.600000 -1.100000
v 0.835096 0.600000 -1.065064
v 0.865385 0.600000 -1.028205
v 0.892788 0.600000 -0.989423
v 0.917308 0.600000 -0.948718
v 0.938942 0.600000 -0.906090
v 0.957692 0.600000 -0.861538
v 0.973558 0.600000 -0.815064
v 0.986538 0.600000 -0.766667
v 0.996635 0.600000 -0.716346
v 1.003846 0.600000 -0.664102
v 1.008173 0.600000 -0.609936
v 1.009615 0.600000 -0.553846
v 1.008641 0.600000 -0.507078
v 1.005716 0.600000 -0.461645
v 1.000841 0.600000 -0.417548
v 0.994017 0.600000 -0.374786
v 0.985243 0.600000 -0.333360
v 0.974519 0.600000 -0.293269
v 0.961846 0.600000 -0.254514
v 0.947222 0.600000 -0.217094
v 0.930649 0.600000 -0.181010
v 0.912126 0.600000 -0.146261
v 0.891653 0.600000 -0.112847
v 0.869231 0.600000 -0.080769
v 0.845099 0.600000 -0.050241
v 0.819498 0.600000 -0.021474
v 0.792428 0.600000 0.005529
v 0.763889 0.600000 0.030769
v 0.733881 0.600000 0.054247
v 0.702404 0.600000 0.075961
v 0.669458 0.600000 0.095913
v 0.635043 0.600000 0.114102
v 0.599159 0.600000 0.130529
v 0.561805 0.600000 0.145192
v 0.522983 0.600000 0.158093
v 0.482692 0.600000 0.169231
v 0.549492 0.600000 0.274386
v 0.612714 0.600000 0.378312
v 0.672356 0.600000 0.481010
v 0.728419 0.600000 0.582479
v 0.780903 0.600000 0.682719
v 0.829808 0.600000 0.781731
v 0.875133 0.600000 0.879514
v 0.916880 0.600000 0.976068
v 0.955048 0.600000 1.071394
v 0.989637 0.600000 1.165491
v 1.020646 0.600000 1.258360
v 1.048077 0.600000 1.350000
v 0.744231 0.600000 1.350000
v 0.709856 0.600000 1.242094
v 0.673397 0.600000 1.136325
v 0.634856 0.600000 1.032692
v 0.594231 0.600000 0.931196
v 0.551522 0.600000 0.831837
v 0.506731 0.600000 0.734615
v 0.459856 0.600000 0.639530
v 0.410897 0.600000 0.546581
v 0.359856 0.600000 0.455769
v 0.306731 0.600000 0.367094
v 0.251522 0.600000 0.280555
v 0.194231 0.600000 0.196154
v -0.594231 0.600000 0.196154
v -0.594231 0.600000 -0.065385
v 0.240385 0.600000 -0.065385
v 0.278753 0.600000 -0.066226
v 0.315652 0.600000 -0.068750
v 0.351082 0.600000 -0.072957
v 0.385043 0.600000 -0.078846
v 0.417535 0.600000 -0.086418
v 0.448558 0.600000 -0.095673
v 0.478112 0.600000 -0.106611
v 0.506197 0.600000 -0.119231
v 0.532812 0.600000 -0.133534
v 0.557959 0.600000 -0.149519
v 0.581637 0.600000 -0.167188
v 0.603846 0.600000 -0.186539
v 0.624426 0.600000 -0.207626
v 0.643216 0.600000 -0.230502
v 0.660216 0.600000 -0.255168
v 0.675427 0.600000 -0.281624
v 0.688849 0.600000 -0.309869
v 0.700481 0.600000 -0.339904
v 0.710323 0.600000 -0.371728
v 0.718376 0.600000 -0.405342
v 0.724639 0.600000 -0.440745
v 0.729113 0.600000 -0.477938
v 0.731798 0.600000 -0.516921
v 0.732692 0.600000 -0.557692
v 0.729274 0.600000 -0.635096
v 0.719017 0.600000 -0.705769
v 0.701923 0.600000 -0.769712
v 0.677992 0.600000 -0.826923
v 0.647222 0.600000 -0.877404
v 0.609615 0.600000 -0.921154
v 0.565171 0.600000 -0.958173
v 0.513889 0.600000 -0.988461
v 0.455769 0.600000 -1.012019
v 0.390812 0.600000 -1.028846
v 0.319017 0.600000 -1.038942
v 0.240385 0.600000 -1.042308
v -0.594231 0.600000 -1.042308
v -0.594231 0.000000 1.350000
v -0.871154 0.000000 1.350000
v -0.871154 0.000000 -1.303846
v 0.251923 0.000000 -1.303846
v 0.308040 0.000000 -1.302431
v 0.362286 0.000000 -1.298184
v 0.414663 0.000000 -1.291106
v 0.465171 0.000000 -1.281197
v 0.513809 0.000000 -1.268456
v 0.560577 0.000000 -1.252885
v 0.605475 0.000000 -1.234482
v 0.648504 0.000000 -1.213248
v 0.689664 0.000000 -1.189183
v 0.728953 0.000000 -1.162287
v 0.766373 0.000000 -1.132559
v 0.801923 0.000000 -1.100000
v 0.835096 0.000000 -1.065064
v 0.865385 0.000000 -1.028205
v 0.892788 0.000000 -0.989423
v 0.917308 0.000000 -0.948718
v 0.938942 0.000000 -0.906090
v 0.957692 0.000000 -0.861538
v 0.973558 0.000000 -0.815064
v 0.986538 0.000000 -0.766667
v 0.996635 0.000000 -0.716346
v 1.003846 0.000000 -0.664102
v 1.008173 0.000000 -0.609936
v 1.009615 0.000000 -0.553846
v 1.008641 0.000000 -0.507078
v 1.005716 0.000000 -0.461645
v 1.000841 0.000000 -0.417548
v 0.994017 0.000000 -0.374786
v 0.985243 0.000000 -0.333360
v 0.974519 0.000000 -0.293269
v 0.961846 0.000000 -0.254514
v 0.947222 0.000000 -0.217094
v 0.930649 0.000000 -0.181010
v 0.912126 0.000000 -0.146261
v 0.891653 0.000000 -0.112847
v 0.869231 0.000000 -0.080769
v 0.845099 0.000000 -0.050241
v 0.819498 0.000000 -0.021474
v 0.792428 0.000000 0.005529
v 0.763889 0.000000 0.030769
v 0.733881 0.000000 0.054247
v 0.702404 0.000000 0.075961
v 0.669458 0.000000 0.095913
v 0.635043 0.000000 0.114102
v 0.599159 0.000000 0.130529
v 0.561805 0.000000 0.145192
v 0.522983 0.000000 0.158093
v 0.482692 0.000000 0.169231
v 0.549492 0.000000 0.274386
v 0.612714 0.000000 0.378312
v 0.672356 0.000000 0.481010
v 0.728419 0.000000 0.582479
v 0.780903 0.000000 0.682719
v 0.829808 0.000000 0.781731
v 0.875133 0.000000 0.879514
v 0.916880 0.000000 0.976068
v 0.955048 0.000000 1.071394
v 0.989637 0.000000 1.165491
v 1.020646 0.000000 1.258360
v 1.048077 0.000000 1.350000
v 0.744231 0.000000 1.350000
v 0.709856 0.000000 1.242094
v 0.673397 0.000000 1.136325
v 0.634856 0.000000 1.032692
v 0.594231 0.000000 0.931196
v 0.551522 0.000000 0.831837
v 0.506731 0.000000 0.734615
v 0.459856 0.000000 0.639530
v 0.410897 0.000000 0.546581
v 0.359856 0.000000 0.455769
v 0.306731 0.000000 0.367094
v 0.251522 0.000000 0.280555
v 0.194231 0.000000 0.196154
v -0.594231 0.000000 0.196154
v -0.594231 0.000000 -0.065385
v 0.240385 0.000000 -0.065385
v 0.278753 0.000000 -0.066226
v 0.315652 0.000000 -0.068750
v 0.351082 0.000000 -0.072957
v 0.385043 0.000000 -0.078846
v 0.417535 0.000000 -0.086418
v 0.448558 0.000000 -0.095673
v 0.478112 0.000000 -0.106611
v 0.506197 0.000000 -0.119231
v 0.532812 0.000000 -0.133534
v 0.557959 0.000000 -0.149519
v 0.581637 0.000000 -0.167188
v 0.603846 0.000000 -0.186539
v 0.624426 0.000000 -0.207626
v 0.643216 0.000000 -0.230502
v 0.660216 0.000000 -0.255168
v 0.675427 0.000000 -0.281624
v 0.688849 0.000000 -0.309869
v 0.700481 0.000000 -0.339904
v 0.710323 0.000000 -0.371728
v 0.718376 0.000000 -0.405342
v 0.724639 0.000000 -0.440745
v 0.729113 0.000000 -0.477938
v 0.731798 0.000000 -0.516921
v 0.732692 0.000000 -0.557692
v 0.729274 0.000000 -0.635096
v 0.719017 0.000000 -0.705769
v 0.701923 0.000000 -0.769712
v 0.677992 0.000000 -0.826923
v 0.647222 0.000000 -0.877404
v 0.609615 0.000000 -0.921154
v 0.565171 0.000000 -0.958173
v 0.513889 0.000000 -0.988461
v 0.455769 0.000000 -1.012019
v 0.390812 0.000000 -1.028846
v 0.319017 0.000000 -1.038942
v 0.240385 0.000000 -1.042308
v -0.594231 0.000000 -1.042308
v -0.594231 0.000000 1.350000
v -0.594231 0.600000 1.350000
v -0.871154 0.000000 1.350000
v -0.871154 0.600000 1.350000
v -0.871154 0.000000 -1.303846
v -0.871154 0.600000 -1.303846
v 0.251923 0.000000 -1.303846
v 0.251923 0.600000 -1.303846
v 0.308040 0.000000 -1.302431
v 0.308040 0.600000 -1.302431
v 0.362286 0.000000 -1.298184
v 0.362286 0.600000 -1.298184
v 0.414663 0.000000 -1.291106
v 0.414663 0.600000 -1.291106
v 0.465171 0.000000 -1.281197
v 0.465171 0.600000 -1.281197
v 0.513809 0.000000 -1.268456
v 0.513809 0.600000 -1.268456
v 0.560577 0.000000 -1.252885
v 0.560577 0.600000 -1.252885
v 0.605475 0.000000 -1.234482
v 0.605475 0.600000 -1.234482
v 0.648504 0.000000 -1.213248
v 0.648504 0.600000 -1.213248
v 0.689664 0.000000 -1.189183
v 0.689664 0.600000 -1.189183
v 0.728953 0.000000 -1.162287
v 0.728953 0.600000 -1.162287
v 0.766373 0.000000 -1.132559
v 0.766373 0.600000 -1.132559
v 0.801923 0.000000 -1.100000
v 0.801923 0.600000 -1.100000
v 0.835096 0.000000 -1.065064
v 0.835096 0.600000 -1.065064
v 0.865385 0.000000 -1.028205
v 0.865385 0.600000 -1.028205
v 0.892788 0.000000 -0.989423
v 0.892788 0.600000 -0.989423
v 0.917308 0.000000 -0.948718
v 0.917308 0.600000 -0.948718
v 0.938942 0.000000 -0.906090
v 0.938942 0.600000 -0.906090
v 0.957692 0.000000 -0.861538
v 0.957692 0.600000 -0.861538
v 0.973558 0.000000 -0.815064
v 0.973558 0.600000 -0.815064
v 0.986538 0.000000 -0.766667
v 0.986538 0.600000 -0.766667
v 0.996635 0.000000 -0.716346
v 0.996635 0.600000 -0.716346
v 1.003846 0.000000 -0.664102
v 1.003846 0.600000 -0.664102
v 1.008173 0.000000 -0.609936
v 1.008173 0.600000 -0.609936
v 1.009615 0.000000 -0.553846
v 1.009615 0.600000 -0.553846
v 1.008641 0.000000 -0.507078
v 1.008641 0.600000 -0.507078
v 1.005716 0.000000 -0.461645
v 1.005716 0.600000 -0.461645
v 1.000841 0.000000 -0.417548
v 1.000841 0.600000 -0.417548
v 0.994017 0.000000 -0.374786
v 0.994017 0.600000 -0.374786
v 0.985243 0.000000 -0.333360
v 0.985243 0.600000 -0.333360
v 0.974519 0.000000 -0.293269
v 0.974519 0.600000 -0.293269
v 0.961846 0.000000 -0.254514
v 0.961846 0.600000 -0.254514
v 0.947222 0.000000 -0.217094
v 0.947222 0.600000 -0.217094
v 0.930649 0.000000 -0.181010
v 0.930649 0.600000 -0.181010
v 0.912126 0.000000 -0.146261
v 0.912126 0.600000 -0.146261
v 0.891653 0.000000 -0.112847
v 0.891653 0.600000 -0.112847
v 0.869231 0.000000 -0.080769
v 0.869231 0.600000 -0.080769
v 0.845099 0.000000 -0.050241
v 0.845099 0.600000 -0.050241
v 0.819498 0.000000 -0.021474
v 0.819498 0.600000 -0.021474
v 0.792428 0.000000 0.005529
v 0.792428 0.600000 0.005529
v 0.763889 0.000000 0.030769
v 0.763889 0.600000 0.030769
v 0.733881 0.000000 0.054247
v 0.733881 0.600000 0.054247
v 0.702404 0.000000 0.075961
v 0.702404 0.600000 0.075961
v 0.669458 0.000000 0.095913
v 0.669458 0.600000 0.095913
v 0.635043 0.000000 0.114102
v 0.635043 0.600000 0.114102
v 0.599159 0.000000 0.130529
v 0.599159 0.600000 0.130529
v 0.561805 0.000000 0.145192
v 0.561805 0.600000 0.145192
v 0.522983 0.000000 0.158093
v 0.522983 0.600000 0.158093
v 0.482692 0.000000 0.169231
v 0.482692 0.600000 0.169231
v 0.549492 0.000000 0.274386
v 0.549492 0.600000 0.274386
v 0.612714 0.000000 0.378312
v 0.612714 0.600000 0.378312
v 0.672356 0.000000 0.481010
v 0.672356 0.600000 0.481010
v 0.728419 0.000000 0.582479
v 0.728419 0.600000 0.582479
v 0.780903 0.000000 0.682719
v 0.780903 0.600000 0.682719
v 0.829808 0.000000 0.781731
v 0.829808 0.600000 0.781731
v 0.875133 0.000000 0.879514
v 0.875133 0.600000 0.879514
v 0.916880 0.000000 0.976068
v 0.916880 0.600000 0.976068
v 0.955048 0.000000 1.071394
v 0.955048 0.600000 1.071394
v 0.989637 0.000000 1.165491
v 0.989637 0.600000 1.165491
v 1.020646 0.000000 1.258360
v 1.020646 0.600000 1.258360
v 1.048077 0.000000 1.350000
v 1.048077 0.600000 1.350000
v 0.744231 0.000000 1.350000
v 0.744231 0.600000 1.350000
v 0.709856 0.000000 1.242094
v 0.709856 0.600000 1.242094
v 0.673397 0.000000 1.136325
v 0.673397 0.600000 1.136325
v 0.634856 0.000000 1.032692
v 0.634856 0.600000 1.032692
v 0.594231 0.000000 0.931196
v 0.594231 0.600000 0.931196
v 0.551522 0.000000 0.831837
v 0.551522 0.600000 0.831837
v 0.506731 0.000000 0.734615
v 0.506731 0.600000 0.734615
v 0.459856 0.000000 0.639530
v 0.459856 0.600000 0.639530
v 0.410897 0.000000 0.546581
v 0.410897 0.600000 0.546581
v 0.359856 0.000000 0.455769
v 0.359856 0.600000 0.455769
v 0.306731 0.000000 0.367094
v 0.306731 0.600000 0.367094
v 0.251522 0.000000 0.280555
v 0.251522 0.600000 0.280555
v 0.194231 0.000000 0.196154
v 0.194231 0.600000 0.196154
v -0.594231 0.000000 0.196154
v -0.594231 0.600000 0.196154
v -0.594231 0.000000 -0.065385
v -0.594231 0.600000 -0.065385
v 0.240385 0.000000 -0.065385
v 0.240385 0.600000 -0.065385
v 0.278753 0.000000 -0.066226
v 0.278753 0.600000 -0.066226
v 0.315652 0.000000 -0.068750
v 0.315652 0.600000 -0.068750
v 0.351082 0.000000 -0.072957
v 0.351082 0.600000 -0.072957
v 0.385043 0.000000 -0.078846
v 0.385043 0.600000 -0.078846
v 0.417535 0.000000 -0.086418
v 0.417535 0.600000 -0.086418
v 0.448558 0.000000 -0.095673
v 0.448558 0.600000 -0.095673
v 0.478112 0.000000 -0.106611
v 0.478112 0.600000 -0.106611
v 0.506197 0.000000 -0.119231
v 0.506197 0.600000 -0.119231
v 0.532812 0.000000 -0.133534
v 0.532812 0.600000 -0.133534
v 0.557959 0.000000 -0.149519
v 0.557959 0.600000 -0.149519
v 0.581637 0.000000 -0.167188
v 0.581637 0.600000 -0.167188
v 0.603846 0.000000 -0.186539
v 0.603846 0.600000 -0.186539
v 0.624426 0.000000 -0.207626
v 0.624426 0.600000 -0.207626
v 0.643216 0.000000 -0.230502
v 0.643216 0.600000 -0.230502
v 0.660216 0.000000 -0.255168
v 0.660216 0.600000 -0.255168
v 0.675427 0.000000 -0.281624
v 0.675427 0.600000 -0.281624
v 0.688849 0.000000 -0.309869
v 0.688849 0.600000 -0.309869
v 0.700481 0.000000 -0.339904
v 0.700481 0.600000 -0.339904
v 0.710323 0.000000 -0.371728
v 0.710323 0.600000 -0.371728
v 0.718376 0.000000 -0.405342
v 0.718376 0.600000 -0.405342
v 0.724639 0.000000 -0.440745
v 0.724639 0.600000 -0.440745
v 0.729113 0.000000 -0.477938
v 0.729113 0.600000 -0.477938
v 0.731798 0.000000 -0.516921
v 0.731798 0.600000 -0.516921
v 0.732692 0.000000 -0.557692
v 0.732692 0.600000 -0.557692
v 0.729274 0.000000 -0.635096
v 0.729274 0.600000 -0.635096
v 0.719017 0.000000 -0.705769
v 0.719017 0.600000 -0.705769
v 0.701923 0.000000 -0.769712
v 0.701923 0.600000 -0.769712
v 0.677992 0.000000 -0.826923
v 0.677992 0.600000 -0.826923
v 0.647222 0.000000 -0.877404
v 0.647222 0.600000 -0.877404
v 0.609615 0.000000 -0.921154
v 0.609615 0.600000 -0.921154
v 0.565171 0.000000 -0.958173
v 0.565171 0.600000 -0.958173
v 0.513889 0.000000 -0.988461
v 0.513889 0.600000 -0.988461
v 0.455769 0.000000 -1.012019
v 0.455769 0.600000 -1.012019
v 0.390812 0.000000 -1.028846
v 0.390812 0.600000 -1.028846
v 0.319017 0.000000 -1.038942
v 0.319017 0.600000 -1.038942
v 0.240385 0.000000 -1.042308
v 0.240385 0.600000 -1.042308
v -0.594231 0.000000 -1.042308
v -0.594231 0.600000 -1.042308
vn -0.0000 1.0000 -0.0000
vn -0.0000 -1.0000 -0.0000
vn 0.7071 -0.0000 0.7071
vn -0.7071 -0.0000 0.7071
vn -0.7071 -0.0000 -0.7071
vn 0.0126 -0.0000 -0.9999
vn 0.0517 -0.0000 -0.9987
vn 0.1060 -0.0000 -0.9944
vn 0.1633 -0.0000 -0.9866
vn 0.2231 -0.0000 -0.9748
vn 0.2848 -0.0000 -0.9586
vn 0.3478 -0.0000 -0.9376
vn 0.4111 -0.0000 -0.9116
vn 0.4739 -0.0000 -0.8806
vn 0.5352 -0.0000 -0.8448
vn 0.5938 -0.0000 -0.8046
vn 0.6491 -0.0000 -0.7607
vn 0.7007 -0.0000 -0.7134
vn 0.7494 -0.0000 -0.6622
vn 0.7952 -0.0000 -0.6064
vn 0.8372 -0.0000 -0.5469
vn 0.8747 -0.0000 -0.4846
vn 0.9073 -0.0000 -0.4205
vn 0.9346 -0.0000 -0.3557
vn 0.9567 -0.0000 -0.2912
vn 0.9737 -0.0000 -0.2280
vn 0.9860 -0.0000 -0.1668
vn 0.9941 -0.0000 -0.1082
vn 0.9986 -0.0000 -0.0527
vn 1.0000 -0.0000 -0.0024
vn 0.9991 -0.0000 0.0426
vn 0.9962 -0.0000 0.0871
vn 0.9910 -0.0000 0.1338
vn 0.9832 -0.0000 0.1825
vn 0.9725 -0.0000 0.2329
vn 0.9586 -0.0000 0.2847
vn 0.9413 -0.0000 0.3375
vn 0.9205 -0.0000 0.3908
vn 0.8960 -0.0000 0.4441
vn 0.8680 -0.0000 0.4966
vn 0.8365 -0.0000 0.5479
vn 0.8024 -0.0000 0.5968
vn 0.7661 -0.0000 0.6427
vn 0.7269 -0.0000 0.6867
vn 0.6847 -0.0000 0.7289
vn 0.6396 -0.0000 0.7687
vn 0.5923 -0.0000 0.8057
vn 0.5432 -0.0000 0.8396
vn 0.4929 -0.0000 0.8701
vn 0.4419 -0.0000 0.8971
vn 0.3910 -0.0000 0.9204
vn 0.3405 -0.0000 0.9402
vn 0.2910 -0.0000 0.9567
vn 0.9332 -0.0000 0.3594
vn 0.8493 -0.0000 -0.5280
vn 0.8596 -0.0000 -0.5110
vn 0.8701 -0.0000 -0.4929
vn 0.8807 -0.0000 -0.4738
vn 0.8913 -0.0000 -0.4534
vn 0.9020 -0.0000 -0.4317
vn 0.9127 -0.0000 -0.4087
vn 0.9232 -0.0000 -0.3843
vn 0.9336 -0.0000 -0.3584
vn 0.9437 -0.0000 -0.3309
vn 0.9534 -0.0000 -0.3018
vn 0.8021 -0.0000 0.5972
vn -0.5901 -0.0000 0.8073
vn -0.9492 -0.0000 0.3147
vn -0.9414 -0.0000 0.3373
vn -0.9329 -0.0000 0.3601
vn -0.9236 -0.0000 0.3833
vn -0.9136 -0.0000 0.4067
vn -0.9027 -0.0000 0.4303
vn -0.8909 -0.0000 0.4541
vn -0.8783 -0.0000 0.4780
vn -0.8649 -0.0000 0.5020
vn -0.8505 -0.0000 0.5259
vn -0.8353 -0.0000 0.5498
vn -0.4682 -0.0000 0.8836
vn 0.7071 -0.0000 -0.7071
vn -0.0110 -0.0000 -0.9999
vn -0.0451 -0.0000 -0.9990
vn -0.0931 -0.0000 -0.9957
vn -0.1444 -0.0000 -0.9895
vn -0.1990 -0.0000 -0.9800
vn -0.2565 -0.0000 -0.9665
vn -0.3166 -0.0000 -0.9485
vn -0.3787 -0.0000 -0.9255
vn -0.4419 -0.0000 -0.8971
vn -0.5053 -0.0000 -0.8630
vn -0.5677 -0.0000 -0.8233
vn -0.6279 -0.0000 -0.7783
vn -0.6869 -0.0000 -0.7268
vn -0.7449 -0.0000 -0.6672
vn -0.7988 -0.0000 -0.6016
vn -0.8459 -0.0000 -0.5334
vn -0.8857 -0.0000 -0.4642
vn -0.9185 -0.0000 -0.3954
vn -0.9445 -0.0000 -0.3285
vn -0.9644 -0.0000 -0.2644
vn -0.9790 -0.0000 -0.2037
vn -0.9892 -0.0000 -0.1469
vn -0.9956 -0.0000 -0.0941
vn -0.9990 -0.0000 -0.0453
vn -0.9999 -0.0000 0.0111
vn -0.9956 -0.0000 0.0940
vn -0.9795 -0.0000 0.2013
vn -0.9465 -0.0000 0.3228
vn -0.8908 -0.0000 0.4545
vn -0.8088 -0.0000 0.5881
vn -0.7016 -0.0000 0.7126
vn -0.5761 -0.0000 0.8174
vn -0.4433 -0.0000 0.8964
vn -0.3139 -0.0000 0.9495
vn -0.1953 -0.0000 0.9807
vn -0.0911 -0.0000 0.9958
vn -0.0214 -0.0000 0.9998
vt 0.008621 0.000000
vt 1.000000 0.000000
vt 0.017241 0.000000
vt 0.025862 0.000000
vt 0.034483 0.000000
vt 0.043103 0.000000
vt 0.051724 0.000000
vt 0.060345 0.000000
vt 0.068966 0.000000
vt 0.077586 0.000000
vt 0.086207 0.000000
vt 0.094828 0.000000
vt 0.103448 0.000000
vt 0.112069 0.000000
vt 0.120690 0.000000
vt 0.129310 0.000000
vt 0.137931 0.000000
vt 0.991379 0.000000
vt 0.146552 0.000000
vt 0.672414 0.000000
vt 0.982759 0.000000
vt 0.974138 0.000000
vt 0.965517 0.000000
vt 0.155172 0.000000
vt 0.956897 0.000000
vt 0.163793 0.000000
vt 0.948276 0.000000
vt 0.939655 0.000000
vt 0.172414 0.000000
vt 0.931035 0.000000
vt 0.181034 0.000000
vt 0.922414 0.000000
vt 0.189655 0.000000
vt 0.913793 0.000000
vt 0.198276 0.000000
vt 0.905172 0.000000
vt 0.206897 0.000000
vt 0.215517 0.000000
vt 0.896552 0.000000
vt 0.224138 0.000000
vt 0.887931 0.000000
vt 0.232759 0.000000
vt 0.879310 0.000000
vt 0.241379 0.000000
vt 0.870690 0.000000
vt 0.250000 0.000000
vt 0.862069 0.000000
vt 0.258621 0.000000
vt 0.853448 0.000000
vt 0.267241 0.000000
vt 0.844828 0.000000
vt 0.275862 0.000000
vt 0.836207 0.000000
vt 0.827586 0.000000
vt 0.284483 0.000000
vt 0.818965 0.000000
vt 0.293103 0.000000
vt 0.810345 0.000000
vt 0.801724 0.000000
vt 0.301724 0.000000
vt 0.793103 0.000000
vt 0.310345 0.000000
vt 0.784483 0.000000
vt 0.775862 0.000000
vt 0.318966 0.000000
vt 0.767241 0.000000
vt 0.758621 0.000000
vt 0.327586 0.000000
vt 0.750000 0.000000
vt 0.741379 0.000000
vt 0.336207 0.000000
vt 0.732759 0.000000
vt 0.724138 0.000000
vt 0.715517 0.000000
vt 0.344828 0.000000
vt 0.706897 0.000000
vt 0.698276 0.000000
vt 0.689655 0.000000
vt 0.681035 0.000000
vt 0.663793 0.000000
vt 0.353448 0.000000
vt 0.362069 0.000000
vt 0.370690 0.000000
vt 0.379310 0.000000
vt 0.387931 0.000000
vt 0.396552 0.000000
vt 0.405172 0.000000
vt 0.413793 0.000000
vt 0.422414 0.000000
vt 0.431034 0.000000
vt 0.439655 0.000000
vt 0.655172 0.000000
vt 0.448276 0.000000
vt 0.000000 0.000000
vt 0.646552 0.000000
vt 0.456897 0.000000
vt 0.637931 0.000000
vt 0.629310 0.000000
vt 0.465517 0.000000
vt 0.620690 0.000000
vt 0.474138 0.000000
vt 0.612069 0.000000
vt 0.482759 0.000000
vt 0.603448 0.000000
vt 0.491379 0.000000
vt 0.594828 0.000000
vt 0.500000 0.000000
vt 0.586207 0.000000
vt 0.508621 0.000000
vt 0.577586 0.000000
vt 0.517241 0.000000
vt 0.568965 0.000000
vt 0.525862 0.000000
vt 0.560345 0.000000
vt 0.534483 0.000000
vt 0.551724 0.000000
vt 0.543103 0.000000
vt 0.000000 1.000000
vt 0.012821 1.000000
vt 0.012821 0.000000
vt 0.025641 1.000000
vt 0.025641 0.000000
vt 0.038462 1.000000
vt 0.038462 0.000000
vt 0.051282 1.000000
vt 0.051282 0.000000
vt 0.064103 1.000000
vt 0.064103 0.000000
vt 0.076923 1.000000
vt 0.076923 0.000000
vt 0.089744 1.000000
vt 0.089744 0.000000
vt 0.102564 1.000000
vt 0.102564 0.000000
vt 0.115385 1.000000
vt 0.115385 0.000000
vt 0.128205 1.000000
vt 0.128205 0.000000
vt 0.141026 1.000000
vt 0.141026 0.000000
vt 0.153846 1.000000
vt 0.153846 0.000000
vt 0.166667 1.000000
vt 0.166667 0.000000
vt 0.179487 1.000000
vt 0.179487 0.000000
vt 0.192308 1.000000
vt 0.192308 0.000000
vt 0.205128 1.000000
vt 0.205128 0.000000
vt 0.217949 1.000000
vt 0.217949 0.000000
vt 0.230769 1.000000
vt 0.230769 0.000000
vt 0.243590 1.000000
vt 0.243590 0.000000
vt 0.256410 1.000000
vt 0.256410 0.000000
vt 0.269231 1.000000
vt 0.269231 0.000000
vt 0.282051 1.000000
vt 0.282051 0.000000
vt 0.294872 1.000000
vt 0.294872 0.000000
vt 0.307692 1.000000
vt 0.307692 0.000000
vt 0.320513 1.000000
vt 0.320513 0.000000
vt 0.333333 1.000000
vt 0.333333 0.000000
vt 0.346154 1.000000
vt 0.346154 0.000000
vt 0.358974 1.000000
vt 0.358974 0.000000
vt 0.371795 1.000000
vt 0.371795 0.000000
vt 0.384615 1.000000
vt 0.384615 0.000000
vt 0.397436 1.000000
vt 0.397436 0.000000
vt 0.410256 1.000000
vt 0.410256 0.000000
vt 0.423077 1.000000
vt 0.423077 0.000000
vt 0.435897 1.000000
vt 0.435897 0.000000
vt 0.448718 1.000000
vt 0.448718 0.000000
vt 0.461538 1.000000
vt 0.461538 0.000000
vt 0.474359 1.000000
vt 0.474359 0.000000
vt 0.487179 1.000000
vt 0.487179 0.000000
vt 0.500000 1.000000
vt 0.512821 1.000000
vt 0.512821 0.000000
vt 0.525641 1.000000
vt 0.525641 0.000000
vt 0.538462 1.000000
vt 0.538462 0.000000
vt 0.551282 1.000000
vt 0.551282 0.000000
vt 0.564103 1.000000
vt 0.564103 0.000000
vt 0.576923 1.000000
vt 0.576923 0.000000
vt 0.589744 1.000000
vt 0.589744 0.000000
vt 0.602564 1.000000
vt 0.602564 0.000000
vt 0.615385 1.000000
vt 0.615385 0.000000
vt 0.628205 1.000000
vt 0.628205 0.000000
vt 0.641026 1.000000
vt 0.641026 0.000000
vt 0.653846 1.000000
vt 0.653846 0.000000
vt 0.666667 1.000000
vt 0.666667 0.000000
vt 0.679487 1.000000
vt 0.679487 0.000000
vt 0.692308 1.000000
vt 0.692308 0.000000
vt 0.705128 1.000000
vt 0.705128 0.000000
vt 0.717949 1.000000
vt 0.717949 0.000000
vt 0.730769 1.000000
vt 0.730769 0.000000
vt 0.743590 1.000000
vt 0.743590 0.000000
vt 0.756410 1.000000
vt 0.756410 0.000000
vt 0.769231 1.000000
vt 0.769231 0.000000
vt 0.782051 1.000000
vt 0.782051 0.000000
vt 0.794872 1.000000
vt 0.794872 0.000000
vt 0.807692 1.000000
vt 0.807692 0.000000
vt 0.820513 1.000000
vt 0.820513 0.000000
vt 0.833333 1.000000
vt 0.833333 0.000000
vt 0.846154 1.000000
vt 0.846154 0.000000
vt 0.858974 1.000000
vt 0.858974 0.000000
vt 0.871795 1.000000
vt 0.871795 0.000000
vt 0.884615 1.000000
vt 0.884615 0.000000
vt 0.897436 1.000000
vt 0.897436 0.000000
vt 0.910256 1.000000
vt 0.910256 0.000000
vt 0.923077 1.000000
vt 0.923077 0.000000
vt 0.935897 1.000000
vt 0.935897 0.000000
vt 0.948718 1.000000
vt 0.948718 0.000000
vt 0.961538 1.000000
vt 0.961538 0.000000
vt 0.974359 1.000000
vt 0.974359 0.000000
vt 0.987179 1.000000
vt 0.987179 0.000000
vt 1.000000 1.000000
s 0
usemtl Material.001
f 2/1/1 117/2/1 3/3/1
f 117/2/1 4/4/1 3/3/1
f 117/2/1 5/5/1 4/4/1
f 117/2/1 6/6/1 5/5/1
f 117/2/1 7/7/1 6/6/1
f 117/2/1 8/8/1 7/7/1
f 117/2/1 9/9/1 8/8/1
f 117/2/1 10/10/1 9/9/1
f 117/2/1 11/11/1 10/10/1
f 117/2/1 12/12/1 11/11/1
f 117/2/1 13/13/1 12/12/1
f 117/2/1 14/14/1 13/13/1
f 117/2/1 15/15/1 14/14/1
f 117/2/1 16/16/1 15/15/1
f 117/2/1 17/17/1 16/16/1
f 117/2/1 116/18/1 17/17/1
f 116/18/1 18/19/1 17/17/1
f 2/1/1 79/20/1 117/2/1
f 115/21/1 18/19/1 116/18/1
f 114/22/1 18/19/1 115/21/1
f 113/23/1 18/19/1 114/22/1
f 113/23/1 19/24/1 18/19/1
f 112/25/1 19/24/1 113/23/1
f 112/25/1 20/26/1 19/24/1
f 111/27/1 20/26/1 112/25/1
f 110/28/1 20/26/1 111/27/1
f 110/28/1 21/29/1 20/26/1
f 109/30/1 21/29/1 110/28/1
f 109/30/1 22/31/1 21/29/1
f 108/32/1 22/31/1 109/30/1
f 108/32/1 23/33/1 22/31/1
f 107/34/1 23/33/1 108/32/1
f 107/34/1 24/35/1 23/33/1
f 106/36/1 24/35/1 107/34/1
f 106/36/1 25/37/1 24/35/1
f 106/36/1 26/38/1 25/37/1
f 105/39/1 26/38/1 106/36/1
f 105/39/1 27/40/1 26/38/1
f 104/41/1 27/40/1 105/39/1
f 104/41/1 28/42/1 27/40/1
f 103/43/1 28/42/1 104/41/1
f 103/43/1 29/44/1 28/42/1
f 102/45/1 29/44/1 103/43/1
f 102/45/1 30/46/1 29/44/1
f 101/47/1 30/46/1 102/45/1
f 101/47/1 31/48/1 30/46/1
f 100/49/1 31/48/1 101/47/1
f 100/49/1 32/50/1 31/48/1
f 99/51/1 32/50/1 100/49/1
f 99/51/1 33/52/1 32/50/1
f 98/53/1 33/52/1 99/51/1
f 97/54/1 33/52/1 98/53/1
f 97/54/1 34/55/1 33/52/1
f 96/56/1 34/55/1 97/54/1
f 96/56/1 35/57/1 34/55/1
f 95/58/1 35/57/1 96/56/1
f 94/59/1 35/57/1 95/58/1
f 94/59/1 36/60/1 35/57/1
f 93/61/1 36/60/1 94/59/1
f 93/61/1 37/62/1 36/60/1
f 92/63/1 37/62/1 93/61/1
f 91/64/1 37/62/1 92/63/1
f 91/64/1 38/65/1 37/62/1
f 90/66/1 38/65/1 91/64/1
f 89/67/1 38/65/1 90/66/1
f 89/67/1 39/68/1 38/65/1
f 88/69/1 39/68/1 89/67/1
f 87/70/1 39/68/1 88/69/1
f 87/70/1 40/71/1 39/68/1
f 86/72/1 40/71/1 87/70/1
f 85/73/1 40/71/1 86/72/1
f 84/74/1 40/71/1 85/73/1
f 84/74/1 41/75/1 40/71/1
f 83/76/1 41/75/1 84/74/1
f 82/77/1 41/75/1 83/76/1
f 81/78/1 41/75/1 82/77/1
f 80/79/1 41/75/1 81/78/1
f 2/1/1 78/80/1 79/20/1
f 78/80/1 80/79/1 79/20/1
f 78/80/1 41/75/1 80/79/1
f 78/80/1 42/81/1 41/75/1
f 78/80/1 43/82/1 42/81/1
f 78/80/1 44/83/1 43/82/1
f 78/80/1 45/84/1 44/83/1
f 78/80/1 46/85/1 45/84/1
f 78/80/1 47/86/1 46/85/1
f 78/80/1 48/87/1 47/86/1
f 78/80/1 49/88/1 48/87/1
f 78/80/1 50/89/1 49/88/1
f 78/80/1 51/90/1 50/89/1
f 78/80/1 52/91/1 51/90/1
f 78/80/1 77/92/1 52/91/1
f 77/92/1 53/93/1 52/91/1
f 2/1/1 1/94/1 78/80/1
f 76/95/1 53/93/1 77/92/1
f 76/95/1 54/96/1 53/93/1
f 75/97/1 54/96/1 76/95/1
f 74/98/1 54/96/1 75/97/1
f 74/98/1 55/99/1 54/96/1
f 73/100/1 55/99/1 74/98/1
f 73/100/1 56/101/1 55/99/1
f 72/102/1 56/101/1 73/100/1
f 72/102/1 57/103/1 56/101/1
f 71/104/1 57/103/1 72/102/1
f 71/104/1 58/105/1 57/103/1
f 70/106/1 58/105/1 71/104/1
f 70/106/1 59/107/1 58/105/1
f 69/108/1 59/107/1 70/106/1
f 69/108/1 60/109/1 59/107/1
f 68/110/1 60/109/1 69/108/1
f 68/110/1 61/111/1 60/109/1
f 67/112/1 61/111/1 68/110/1
f 67/112/1 62/113/1 61/111/1
f 66/114/1 62/113/1 67/112/1
f 66/114/1 63/115/1 62/113/1
f 65/116/1 63/115/1 66/114/1
f 65/116/1 64/117/1 63/115/1
f 119/1/2 120/3/2 234/2/2
f 234/2/2 120/3/2 121/4/2
f 234/2/2 121/4/2 122/5/2
f 234/2/2 122/5/2 123/6/2
f 234/2/2 123/6/2 124/7/2
f 234/2/2 124/7/2 125/8/2
f 234/2/2 125/8/2 126/9/2
f 234/2/2 126/9/2 127/10/2
f 234/2/2 127/10/2 128/11/2
f 234/2/2 128/11/2 129/12/2
f 234/2/2 129/12/2 130/13/2
f 234/2/2 130/13/2 131/14/2
f 234/2/2 131/14/2 132/15/2
f 234/2/2 132/15/2 133/16/2
f 234/2/2 133/16/2 134/17/2
f 234/2/2 134/17/2 233/18/2
f 233/18/2 134/17/2 135/19/2
f 119/1/2 234/2/2 196/20/2
f 232/21/2 233/18/2 135/19/2
f 231/22/2 232/21/2 135/19/2
f 230/23/2 231/22/2 135/19/2
f 230/23/2 135/19/2 136/24/2
f 229/25/2 230/23/2 136/24/2
f 229/25/2 136/24/2 137/26/2
f 228/27/2 229/25/2 137/26/2
f 227/28/2 228/27/2 137/26/2
f 227/28/2 137/26/2 138/29/2
f 226/30/2 227/28/2 138/29/2
f 226/30/2 138/29/2 139/31/2
f 225/32/2 226/30/2 139/31/2
f 225/32/2 139/31/2 140/33/2
f 224/34/2 225/32/2 140/33/2
f 224/34/2 140/33/2 141/35/2
f 223/36/2 224/34/2 141/35/2
f 223/36/2 141/35/2 142/37/2
f 223/36/2 142/37/2 143/38/2
f 222/39/2 223/36/2 143/38/2
f 222/39/2 143/38/2 144/40/2
f 221/41/2 222/39/2 144/40/2
f 221/41/2 144/40/2 145/42/2
f 220/43/2 221/41/2 145/42/2
f 220/43/2 145/42/2 146/44/2
f 219/45/2 220/43/2 146/44/2
f 219/45/2 146/44/2 147/46/2
f 218/47/2 219/45/2 147/46/2
f 218/47/2 147/46/2 148/48/2
f 217/49/2 218/47/2 148/48/2
f 217/49/2 148/48/2 149/50/2
f 216/51/2 217/49/2 149/50/2
f 216/51/2 149/50/2 150/52/2
f 215/53/2 216/51/2 150/52/2
f 214/54/2 215/53/2 150/52/2
f 214/54/2 150/52/2 151/55/2
f 213/56/2 214/54/2 151/55/2
f 213/56/2 151/55/2 152/57/2
f 212/58/2 213/56/2 152/57/2
f 211/59/2 212/58/2 152/57/2
f 211/59/2 152/57/2 153/60/2
f 210/61/2 211/59/2 153/60/2
f 210/61/2 153/60/2 154/62/2
f 209/63/2 210/61/2 154/62/2
f 208/64/2 209/63/2 154/62/2
f 208/64/2 154/62/2 155/65/2
f 207/66/2 208/64/2 155/65/2
f 206/67/2 207/66/2 155/65/2
f 206/67/2 155/65/2 156/68/2
f 205/69/2 206/67/2 156/68/2
f 204/70/2 205/69/2 156/68/2
f 204/70/2 156/68/2 157/71/2
f 203/72/2 204/70/2 157/71/2
f 202/73/2 203/72/2 157/71/2
f 201/74/2 202/73/2 157/71/2
f 201/74/2 157/71/2 158/75/2
f 200/76/2 201/74/2 158/75/2
f 199/77/2 200/76/2 158/75/2
f 198/78/2 199/77/2 158/75/2
f 197/79/2 198/78/2 158/75/2
f 119/1/2 196/20/2 195/80/2
f 195/80/2 196/20/2 197/79/2
f 195/80/2 197/79/2 158/75/2
f 195/80/2 158/75/2 159/81/2
f 195/80/2 159/81/2 160/82/2
f 195/80/2 160/82/2 161/83/2
f 195/80/2 161/83/2 162/84/2
f 195/80/2 162/84/2 163/85/2
f 195/80/2 163/85/2 164/86/2
f 195/80/2 164/86/2 165/87/2
f 195/80/2 165/87/2 166/88/2
f 195/80/2 166/88/2 167/89/2
f 195/80/2 167/89/2 168/90/2
f 195/80/2 168/90/2 169/91/2
f 195/80/2 169/91/2 194/92/2
f 194/92/2 169/91/2 170/93/2
f 119/1/2 195/80/2 118/94/2
f 193/95/2 194/92/2 170/93/2
f 193/95/2 170/93/2 171/96/2
f 192/97/2 193/95/2 171/96/2
f 191/98/2 192/97/2 171/96/2
f 191/98/2 171/96/2 172/99/2
f 190/100/2 191/98/2 172/99/2
f 190/100/2 172/99/2 173/101/2
f 189/102/2 190/100/2 173/101/2
f 189/102/2 173/101/2 174/103/2
f 188/104/2 189/102/2 174/103/2
f 188/104/2 174/103/2 175/105/2
f 187/106/2 188/104/2 175/105/2
f 187/106/2 175/105/2 176/107/2
f 186/108/2 187/106/2 176/107/2
f 186/108/2 176/107/2 177/109/2
f 185/110/2 186/108/2 177/109/2
f 185/110/2 177/109/2 178/111/2
f 184/112/2 185/110/2 178/111/2
f 184/112/2 178/111/2 179/113/2
f 183/114/2 184/112/2 179/113/2
f 183/114/2 179/113/2 180/115/2
f 182/116/2 183/114/2 180/115/2
f 182/116/2 180/115/2 181/117/2
s 1
f 236/118/3 238/119/4 237/120/4 235/94/3
f 238/119/4 240/121/5 239/122/5 237/120/4
f 240/121/5 242/123/6 241/124/6 239/122/5
f 242/123/6 244/125/7 243/126/7 241/124/6
f 244/125/7 246/127/8 245/128/8 243/126/7
f 246/127/8 248/129/9 247/130/9 245/128/8
f 248/129/9 250/131/10 249/132/10 247/130/9
f 250/131/10 252/133/11 251/134/11 249/132/10
f 252/133/11 254/135/12 253/136/12 251/134/11
f 254/135/12 256/137/13 255/138/13 253/136/12
f 256/137/13 258/139/14 257/140/14 255/138/13
f 258/139/14 260/141/15 259/142/15 257/140/14
f 260/141/15 262/143/16 261/144/16 259/142/15
f 262/143/16 264/145/17 263/146/17 261/144/16
f 264/145/17 266/147/18 265/148/18 263/146/17
f 266/147/18 268/149/19 267/150/19 265/148/18
f 268/149/19 270/151/20 269/152/20 267/150/19
f 270/151/20 272/153/21 271/154/21 269/152/20
f 272/153/21 274/155/22 273/156/22 271/154/21
f 274/155/22 276/157/23 275/158/23 273/156/22
f 276/157/23 278/159/24 277/160/24 275/158/23
f 278/159/24 280/161/25 279/162/25 277/160/24
f 280/161/25 282/163/26 281/164/26 279/162/25
f 282/163/26 284/165/27 283/166/27 281/164/26
f 284/165/27 286/167/28 285/168/28 283/166/27
f 286/167/28 288/169/29 287/170/29 285/168/28
f 288/169/29 290/171/30 289/172/30 287/170/29
f 290/171/30 292/173/31 291/174/31 289/172/30
f 292/173/31 294/175/32 293/176/32 291/174/31
f 294/175/32 296/177/33 295/178/33 293/176/32
f 296/177/33 298/179/34 297/180/34 295/178/33
f 298/179/34 300/181/35 299/182/35 297/180/34
f 300/181/35 302/183/36 301/184/36 299/182/35
f 302/183/36 304/185/37 303/186/37 301/184/36
f 304/185/37 306/187/38 305/188/38 303/186/37
f 306/187/38 308/189/39 307/190/39 305/188/38
f 308/189/39 310/191/40 309/192/40 307/190/39
f 310/191/40 312/193/41 311/194/41 309/192/40
f 312/193/41 314/195/42 313/107/42 311/194/41
f 314/195/42 316/196/43 315/197/43 313/107/42
f 316/196/43 318/198/44 317/199/44 315/197/43
f 318/198/44 320/200/45 319/201/45 317/199/44
f 320/200/45 322/202/46 321/203/46 319/201/45
f 322/202/46 324/204/47 323/205/47 321/203/46
f 324/204/47 326/206/48 325/207/48 323/205/47
f 326/206/48 328/208/49 327/209/49 325/207/48
f 328/208/49 330/210/50 329/211/50 327/209/49
f 330/210/50 332/212/51 331/213/51 329/211/50
f 332/212/51 334/214/52 333/215/52 331/213/51
f 334/214/52 336/216/53 335/217/53 333/215/52
f 336/216/53 338/218/54 337/219/54 335/217/53
f 338/218/54 340/220/55 339/221/55 337/219/54
f 340/220/55 342/222/56 341/223/56 339/221/55
f 342/222/56 344/224/57 343/225/57 341/223/56
f 344/224/57 346/226/58 345/227/58 343/225/57
f 346/226/58 348/228/59 347/229/59 345/227/58
f 348/228/59 350/230/60 349/231/60 347/229/59
f 350/230/60 352/232/61 351/233/61 349/231/60
f 352/232/61 354/234/62 353/235/62 351/233/61
f 354/234/62 356/236/63 355/237/63 353/235/62
f 356/236/63 358/238/64 357/239/64 355/237/63
f 358/238/64 360/240/65 359/241/65 357/239/64
f 360/240/65 362/242/66 361/243/66 359/241/65
f 362/242/66 364/244/67 363/245/67 361/243/66
f 364/244/67 366/246/68 365/247/68 363/245/67
f 366/246/68 368/248/69 367/249/69 365/247/68
f 368/248/69 370/250/70 369/251/70 367/249/69
f 370/250/70 372/252/71 371/253/71 369/251/70
f 372/252/71 374/254/72 373/255/72 371/253/71
f 374/254/72 376/256/73 375/257/73 373/255/72
f 376/256/73 378/258/74 377/259/74 375/257/73
f 378/258/74 380/260/75 379/261/75 377/259/74
f 380/260/75 382/262/76 381/263/76 379/261/75
f 382/262/76 384/264/77 383/265/77 381/263/76
f 384/264/77 386/266/78 385/267/78 383/265/77
f 386/266/78 388/268/79 387/269/79 385/267/78
f 388/268/79 390/270/3 389/271/3 387/269/79
f 390/270/3 236/272/3 235/2/3 389/271/3
f 392/118/80 394/121/81 393/122/81 391/94/80
f 394/121/81 396/125/82 395/126/82 393/122/81
f 396/125/82 398/129/83 397/130/83 395/126/82
f 398/129/83 400/133/84 399/134/84 397/130/83
f 400/133/84 402/137/85 401/138/85 399/134/84
f 402/137/85 404/141/86 403/142/86 401/138/85
f 404/141/86 406/145/87 405/146/87 403/142/86
f 406/145/87 408/149/88 407/150/88 405/146/87
f 408/149/88 410/153/89 409/154/89 407/150/88
f 410/153/89 412/157/90 411/158/90 409/154/89
f 412/157/90 414/161/91 413/162/91 411/158/90
f 414/161/91 416/165/92 415/166/92 413/162/91
f 416/165/92 418/169/93 417/170/93 415/166/92
f 418/169/93 420/173/94 419/174/94 417/170/93
f 420/173/94 422/177/95 421/178/95 419/174/94
f 422/177/95 424/181/96 423/182/96 421/178/95
f 424/181/96 426/185/97 425/186/97 423/182/96
f 426/185/97 428/189/98 427/190/98 425/186/97
f 428/189/98 430/193/99 429/194/99 427/190/98
f 430/193/99 432/196/100 431/197/100 429/194/99
f 432/196/100 434/200/101 433/201/101 431/197/100
f 434/200/101 436/204/102 435/205/102 433/201/101
f 436/204/102 438/208/103 437/209/103 435/205/102
f 438/208/103 440/212/104 439/213/104 437/209/103
f 440/212/104 442/216/105 441/217/105 439/213/104
f 442/216/105 444/220/106 443/221/106 441/217/105
f 444/220/106 446/224/107 445/225/107 443/221/106
f 446/224/107 448/228/108 447/229/108 445/225/107
f 448/228/108 450/232/109 449/233/109 447/229/108
f 450/232/109 452/236/110 451/237/110 449/233/109
f 452/236/110 454/240/111 453/241/111 451/237/110
f 454/240/111 456/244/112 455/245/112 453/241/111
f 456/244/112 458/248/113 457/249/113 455/245/112
f 458/248/113 460/252/114 459/253/114 457/249/113
f 460/252/114 462/256/115 461/257/115 459/253/114
f 462/256/115 464/260/116 463/261/116 461/257/115
f 464/260/116 466/264/117 465/265/117 463/261/116
f 466/264/117 468/268/3 467/269/3 465/265/117
f 468/268/3 392/272/80 391/2/80 467/269/3
