# Blender 4.0.2
# www.blender.org
mtllib U_regular.mtl
o Text
v 0.000000 0.600000 1.403846
v -0.074840 0.600000 1.402030
v -0.146795 0.600000 1.396581
v -0.215865 0.600000 1.387500
v -0.282051 0.600000 1.374786
v -0.345353 0.600000 1.358440
v -0.405769 0.600000 1.338461
v -0.463301 0.600000 1.314850
v -0.517949 0.600000 1.287607
v -0.569712 0.600000 1.256731
v -0.618590 0.600000 1.222222
v -0.664583 0.600000 1.184081
v -0.707692 0.600000 1.142308
v -0.747623 0.600000 1.096741
v -0.784081 0.600000 1.047222
v -0.817067 0.600000 0.993750
v -0.846581 0.600000 0.936325
v -0.872623 0.600000 0.874946
v -0.895192 0.600000 0.809615
v -0.914289 0.600000 0.740331
v -0.929914 0.600000 0.667094
v -0.942067 0.600000 0.589904
v -0.950748 0.600000 0.508760
v -0.955956 0.600000 0.423664
v -0.957692 0.600000 0.334615
v -0.957692 0.600000 -1.303846
v -0.680769 0.600000 -1.303846
v -0.680769 0.600000 0.384615
v -0.679527 0.600000 0.447342
v -0.675801 0.600000 0.507318
v -0.669591 0.600000 0.564543
v -0.660897 0.600000 0.619017
v -0.649720 0.600000 0.670740
v -0.636058 0.600000 0.719711
v -0.619912 0.600000 0.765932
v -0.601282 0.600000 0.809402
v -0.580168 0.600000 0.850120
v -0.556571 0.600000 0.888088
v -0.530489 0.600000 0.923304
v -0.501923 0.600000 0.955769
v -0.471114 0.600000 0.985563
v -0.438301 0.600000 1.012767
v -0.403486 0.600000 1.037380
v -0.366667 0.600000 1.059402
v -0.327845 0.600000 1.078833
v -0.287019 0.600000 1.095673
v -0.244191 0.600000 1.109922
v -0.199359 0.600000 1.121581
v -0.152524 0.600000 1.130649
v -0.103686 0.600000 1.137126
v -0.052845 0.600000 1.141012
v 0.000000 0.600000 1.142308
v 0.052845 0.600000 1.141012
v 0.103686 0.600000 1.137126
v 0.152524 0.600000 1.130649
v 0.199359 0.600000 1.121581
v 0.244191 0.600000 1.109922
v 0.287019 0.600000 1.095673
v 0.327845 0.600000 1.078833
v 0.366667 0.600000 1.059402
v 0.403486 0.600000 1.037380
v 0.438301 0.600000 1.012767
v 0.471114 0.600000 0.985563
v 0.501923 0.600000 0.955769
v 0.530489 0.600000 0.923304
v 0.556571 0.600000 0.888088
v 0.580168 0.600000 0.850120
v 0.601282 0.600000 0.809402
v 0.619912 0.600000 0.765932
v 0.636058 0.600000 0.719711
v 0.649720 0.600000 0.670740
v 0.660897 0.600000 0.619017
v 0.669591 0.600000 0.564543
v 0.675801 0.600000 0.507318
v 0.679527 0.600000 0.447342
v 0.680769 0.600000 0.384615
v 0.680769 0.600000 -1.303846
v 0.957692 0.600000 -1.303846
v 0.957692 0.600000 0.334615
v 0.955956 0.600000 0.423664
v 0.950748 0.600000 0.508761
v 0.942067 0.600000 0.589904
v 0.929915 0.600000 0.667094
v 0.914290 0.600000 0.740331
v 0.895192 0.600000 0.809615
v 0.872623 0.600000 0.874946
v 0.846581 0.600000 0.936325
v 0.817067 0.600000 0.993750
v 0.784081 0.600000 1.047222
v 0.747623 0.600000 1.096741
v 0.707692 0.600000 1.142308
v 0.664583 0.600000 1.184081
v 0.618590 0.600000 1.222222
v 0.569712 0.600000 1.256731
v 0.517949 0.600000 1.287607
v 0.463301 0.600000 1.314850
v 0.405769 0.600000 1.338462
v 0.345353 0.600000 1.358440
v 0.282051 0.600000 1.374786
v 0.215865 0.600000 1.387500
v 0.146795 0.600000 1.396581
v 0.074840 0.600000 1.402030
v 0.000000 0.000000 1.403846
v -0.074840 0.000000 1.402030
v -0.146795 0.000000 1.396581
v -0.215865 0.000000 1.387500
v -0.282051 0.000000 1.374786
v -0.345353 0.000000 1.358440
v -0.405769 0.000000 1.338461
v -0.463301 0.000000 1.314850
v -0.517949 0.000000 1.287607
v -0.569712 0.000000 1.256731
v -0.618590 0.000000 1.222222
v -0.664583 0.000000 1.184081
v -0.707692 0.000000 1.142308
v -0.747623 0.000000 1.096741
v -0.784081 0.000000 1.047222
v -0.817067 0.000000 0.993750
v -0.846581 0.000000 0.936325
v -0.872623 0.000000 0.874946
v -0.895192 0.000000 0.809615
v -0.914289 0.000000 0.740331
v -0.929914 0.000000 0.667094
v -0.942067 0.000000 0.589904
v -0.950748 0.000000 0.508760
v -0.955956 0.000000 0.423664
v -0.957692 0.000000 0.334615
v -0.957692 0.000000 -1.303846
v -0.680769 0.000000 -1.303846
v -0.680769 0.000000 0.384615
v -0.679527 0.000000 0.447342
v -0.675801 0.000000 0.507318
v -0.669591 0.000000 0.564543
v -0.660897 0.000000 0.619017
v -0.649720 0.000000 0.670740
v -0.636058 0.000000 0.719711
v -0.619912 0.000000 0.765932
v -0.601282 0.000000 0.809402
v -0.580168 0.000000 0.850120
v -0.556571 0.000000 0.888088
v -0.530489 0.000000 0.923304
v -0.501923 0.000000 0.955769
v -0.471114 0.000000 0.985563
v -0.438301 0.000000 1.012767
v -0.403486 0.000000 1.037380
v -0.366667 0.000000 1.059402
v -0.327845 0.000000 1.078833
v -0.287019 0.000000 1.095673
v -0.244191 0.000000 1.109922
v -0.199359 0.000000 1.121581
v -0.152524 0.000000 1.130649
v -0.103686 0.000000 1.137126
v -0.052845 0.000000 1.141012
v 0.000000 0.000000 1.142308
v 0.052845 0.000000 1.141012
v 0.103686 0.000000 1.137126
v 0.152524 0.000000 1.130649
v 0.199359 0.000000 1.121581
v 0.244191 0.000000 1.109922
v 0.287019 0.000000 1.095673
v 0.327845 0.000000 1.078833
v 0.366667 0.000000 1.059402
v 0.403486 0.000000 1.037380
v 0.438301 0.000000 1.012767
v 0.471114 0.000000 0.985563
v 0.501923 0.000000 0.955769
v 0.530489 0.000000 0.923304
v 0.556571 0.000000 0.888088
v 0.580168 0.000000 0.850120
v 0.601282 0.000000 0.809402
v 0.619912 0.000000 0.765932
v 0.636058 0.000000 0.719711
v 0.649720 0.000000 0.670740
v 0.660897 0.000000 0.619017
v 0.669591 0.000000 0.564543
v 0.675801 0.000000 0.507318
v 0.679527 0.000000 0.447342
v 0.680769 0.000000 0.384615
v 0.680769 0.000000 -1.303846
v 0.957692 0.000000 -1.303846
v 0.957692 0.000000 0.334615
v 0.955956 0.000000 0.423664
v 0.950748 0.000000 0.508761
v 0.942067 0.000000 0.589904
v 0.929915 0.000000 0.667094
v 0.914290 0.000000 0.740331
v 0.895192 0.000000 0.809615
v 0.872623 0.000000 0.874946
v 0.846581 0.000000 0.936325
v 0.817067 0.000000 0.993750
v 0.784081 0.000000 1.047222
v 0.747623 0.000000 1.096741
v 0.707692 0.000000 1.142308
v 0.664583 0.000000 1.184081
v 0.618590 0.000000 1.222222
v 0.569712 0.000000 1.256731
v 0.517949 0.000000 1.287607
v 0.463301 0.000000 1.314850
v 0.405769 0.000000 1.338462
v 0.345353 0.000000 1.358440
v 0.282051 0.000000 1.374786
v 0.215865 0.000000 1.387500
v 0.146795 0.000000 1.396581
v 0.074840 0.000000 1.402030
v 0.000000 0.000000 1.403846
v 0.000000 0.600000 1.403846
v -0.074840 0.000000 1.402030
v -0.074840 0.600000 1.402030
v -0.146795 0.000000 1.396581
v -0.146795 0.600000 1.396581
v -0.215865 0.000000 1.387500
v -0.215865 0.600000 1.387500
v -0.282051 0.000000 1.374786
v -0.282051 0.600000 1.374786
v -0.345353 0.000000 1.358440
v -0.345353 0.600000 1.358440
v -0.405769 0.000000 1.338461
v -0.405769 0.600000 1.338461
v -0.463301 0.000000 1.314850
v -0.463301 0.600000 1.314850
v -0.517949 0.000000 1.287607
v -0.517949 0.600000 1.287607
v -0.569712 0.000000 1.256731
v -0.569712 0.600000 1.256731
v -0.618590 0.000000 1.222222
v -0.618590 0.600000 1.222222
v -0.664583 0.000000 1.184081
v -0.664583 0.600000 1.184081
v -0.707692 0.000000 1.142308
v -0.707692 0.600000 1.142308
v -0.747623 0.000000 1.096741
v -0.747623 0.600000 1.096741
v -0.784081 0.000000 1.047222
v -0.784081 0.600000 1.047222
v -0.817067 0.000000 0.993750
v -0.817067 0.600000 0.993750
v -0.846581 0.000000 0.936325
v -0.846581 0.600000 0.936325
v -0.872623 0.000000 0.874946
v -0.872623 0.600000 0.874946
v -0.895192 0.000000 0.809615
v -0.895192 0.600000 0.809615
v -0.914289 0.000000 0.740331
v -0.914289 0.600000 0.740331
v -0.929914 0.000000 0.667094
v -0.929914 0.600000 0.667094
v -0.942067 0.000000 0.589904
v -0.942067 0.600000 0.589904
v -0.950748 0.000000 0.508760
v -0.950748 0.600000 0.508760
v -0.955956 0.000000 0.423664
v -0.955956 0.600000 0.423664
v -0.957692 0.000000 0.334615
v -0.957692 0.600000 0.334615
v -0.957692 0.000000 -1.303846
v -0.957692 0.600000 -1.303846
v -0.680769 0.000000 -1.303846
v -0.680769 0.600000 -1.303846
v -0.680769 0.000000 0.384615
v -0.680769 0.600000 0.384615
v -0.679527 0.000000 0.447342
v -0.679527 0.600000 0.447342
v -0.675801 0.000000 0.507318
v -0.675801 0.600000 0.507318
v -0.669591 0.000000 0.564543
v -0.669591 0.600000 0.564543
v -0.660897 0.000000 0.619017
v -0.660897 0.600000 0.619017
v -0.649720 0.000000 0.670740
v -0.649720 0.600000 0.670740
v -0.636058 0.000000 0.719711
v -0.636058 0.600000 0.719711
v -0.619912 0.000000 0.765932
v -0.619912 0.600000 0.765932
v -0.601282 0.000000 0.809402
v -0.601282 0.600000 0.809402
v -0.580168 0.000000 0.850120
v -0.580168 0.600000 0.850120
v -0.556571 0.000000 0.888088
v -0.556571 0.600000 0.888088
v -0.530489 0.000000 0.923304
v -0.530489 0.600000 0.923304
v -0.501923 0.000000 0.955769
v -0.501923 0.600000 0.955769
v -0.471114 0.000000 0.985563
v -0.471114 0.600000 0.985563
v -0.438301 0.000000 1.012767
v -0.438301 0.600000 1.012767
v -0.403486 0.000000 1.037380
v -0.403486 0.600000 1.037380
v -0.366667 0.000000 1.059402
v -0.366667 0.600000 1.059402
v -0.327845 0.000000 1.078833
v -0.327845 0.600000 1.078833
v -0.287019 0.000000 1.095673
v -0.287019 0.600000 1.095673
v -0.244191 0.000000 1.109922
v -0.244191 0.600000 1.109922
v -0.199359 0.000000 1.121581
v -0.199359 0.600000 1.121581
v -0.152524 0.000000 1.130649
v -0.152524 0.600000 1.130649
v -0.103686 0.000000 1.137126
v -0.103686 0.600000 1.137126
v -0.052845 0.000000 1.141012
v -0.052845 0.600000 1.141012
v 0.000000 0.000000 1.142308
v 0.000000 0.600000 1.142308
v 0.052845 0.000000 1.141012
v 0.052845 0.600000 1.141012
v 0.103686 0.000000 1.137126
v 0.103686 0.600000 1.137126
v 0.152524 0.000000 1.130649
v 0.152524 0.600000 1.130649
v 0.199359 0.000000 1.121581
v 0.199359 0.600000 1.121581
v 0.244191 0.000000 1.109922
v 0.244191 0.600000 1.109922
v 0.287019 0.000000 1.095673
v 0.287019 0.600000 1.095673
v 0.327845 0.000000 1.078833
v 0.327845 0.600000 1.078833
v 0.366667 0.000000 1.059402
v 0.366667 0.600000 1.059402
v 0.403486 0.000000 1.037380
v 0.403486 0.600000 1.037380
v 0.438301 0.000000 1.012767
v 0.438301 0.600000 1.012767
v 0.471114 0.000000 0.985563
v 0.471114 0.600000 0.985563
v 0.501923 0.000000 0.955769
v 0.501923 0.600000 0.955769
v 0.530489 0.000000 0.923304
v 0.530489 0.600000 0.923304
v 0.556571 0.000000 0.888088
v 0.556571 0.600000 0.888088
v 0.580168 0.000000 0.850120
v 0.580168 0.600000 0.850120
v 0.601282 0.000000 0.809402
v 0.601282 0.600000 0.809402
v 0.619912 0.000000 0.765932
v 0.619912 0.600000 0.765932
v 0.636058 0.000000 0.719711
v 0.636058 0.600000 0.719711
v 0.649720 0.000000 0.670740
v 0.649720 0.600000 0.670740
v 0.660897 0.000000 0.619017
v 0.660897 0.600000 0.619017
v 0.669591 0.000000 0.564543
v 0.669591 0.600000 0.564543
v 0.675801 0.000000 0.507318
v 0.675801 0.600000 0.507318
v 0.679527 0.000000 0.447342
v 0.679527 0.600000 0.447342
v 0.680769 0.000000 0.384615
v 0.680769 0.600000 0.384615
v 0.680769 0.000000 -1.303846
v 0.680769 0.600000 -1.303846
v 0.957692 0.000000 -1.303846
v 0.957692 0.600000 -1.303846
v 0.957692 0.000000 0.334615
v 0.957692 0.600000 0.334615
v 0.955956 0.000000 0.423664
v 0.955956 0.600000 0.423664
v 0.950748 0.000000 0.508761
v 0.950748 0.600000 0.508761
v 0.942067 0.000000 0.589904
v 0.942067 0.600000 0.589904
v 0.929915 0.000000 0.667094
v 0.929915 0.600000 0.667094
v 0.914290 0.000000 0.740331
v 0.914290 0.600000 0.740331
v 0.895192 0.000000 0.809615
v 0.895192 0.600000 0.809615
v 0.872623 0.000000 0.874946
v 0.872623 0.600000 0.874946
v 0.846581 0.000000 0.936325
v 0.846581 0.600000 0.936325
v 0.817067 0.000000 0.993750
v 0.817067 0.600000 0.993750
v 0.784081 0.000000 1.047222
v 0.784081 0.600000 1.047222
v 0.747623 0.000000 1.096741
v 0.747623 0.600000 1.096741
v 0.707692 0.000000 1.142308
v 0.707692 0.600000 1.142308
v 0.664583 0.000000 1.184081
v 0.664583 0.600000 1.184081
v 0.618590 0.000000 1.222222
v 0.618590 0.600000 1.222222
v 0.569712 0.000000 1.256731
v 0.569712 0.600000 1.256731
v 0.517949 0.000000 1.287607
v 0.517949 0.600000 1.287607
v 0.463301 0.000000 1.314850
v 0.463301 0.600000 1.314850
v 0.405769 0.000000 1.338462
v 0.405769 0.600000 1.338462
v 0.345353 0.000000 1.358440
v 0.345353 0.600000 1.358440
v 0.282051 0.000000 1.374786
v 0.282051 0.600000 1.374786
v 0.215865 0.000000 1.387500
v 0.215865 0.600000 1.387500
v 0.146795 0.000000 1.396581
v 0.146795 0.600000 1.396581
v 0.074840 0.000000 1.402030
v 0.074840 0.600000 1.402030
vn -0.0000 1.0000 -0.0000
vn -0.0000 -1.0000 -0.0000
vn -0.0000 -0.0000 1.0000
vn -0.0499 -0.0000 0.9988
vn -0.1030 -0.0000 0.9947
vn -0.1596 -0.0000 0.9872
vn -0.2194 -0.0000 0.9756
vn -0.2821 -0.0000 0.9594
vn -0.3470 -0.0000 0.9379
vn -0.4132 -0.0000 0.9106
vn -0.4796 -0.0000 0.8775
vn -0.5449 -0.0000 0.8385
vn -0.6080 -0.0000 0.7939
vn -0.6676 -0.0000 0.7445
vn -0.7246 -0.0000 0.6892
vn -0.7794 -0.0000 0.6265
vn -0.8289 -0.0000 0.5594
vn -0.8709 -0.0000 0.4914
vn -0.9056 -0.0000 0.4241
vn -0.9334 -0.0000 0.3588
vn -0.9551 -0.0000 0.2963
vn -0.9714 -0.0000 0.2373
vn -0.9833 -0.0000 0.1822
vn -0.9914 -0.0000 0.1310
vn -0.9965 -0.0000 0.0838
vn -0.9992 -0.0000 0.0403
vn -1.0000 -0.0000 0.0097
vn -0.7071 -0.0000 -0.7071
vn 0.7071 -0.0000 -0.7071
vn 1.0000 -0.0000 -0.0099
vn 0.9992 -0.0000 -0.0409
vn 0.9964 -0.0000 -0.0850
vn 0.9911 -0.0000 -0.1328
vn 0.9828 -0.0000 -0.1845
vn 0.9708 -0.0000 -0.2401
vn 0.9541 -0.0000 -0.2994
vn 0.9322 -0.0000 -0.3621
vn 0.9041 -0.0000 -0.4274
vn 0.8692 -0.0000 -0.4945
vn 0.8271 -0.0000 -0.5620
vn 0.7779 -0.0000 -0.6284
vn 0.7235 -0.0000 -0.6903
vn 0.6672 -0.0000 -0.7449
vn 0.6082 -0.0000 -0.7938
vn 0.5457 -0.0000 -0.8380
vn 0.4808 -0.0000 -0.8768
vn 0.4147 -0.0000 -0.9099
vn 0.3487 -0.0000 -0.9372
vn 0.2838 -0.0000 -0.9589
vn 0.2210 -0.0000 -0.9753
vn 0.1608 -0.0000 -0.9870
vn 0.1039 -0.0000 -0.9946
vn 0.0504 -0.0000 -0.9987
vn -0.0000 -0.0000 -1.0000
vn -0.0504 -0.0000 -0.9987
vn -0.1039 -0.0000 -0.9946
vn -0.1608 -0.0000 -0.9870
vn -0.2210 -0.0000 -0.9753
vn -0.2838 -0.0000 -0.9589
vn -0.3487 -0.0000 -0.9372
vn -0.4147 -0.0000 -0.9099
vn -0.4808 -0.0000 -0.8768
vn -0.5457 -0.0000 -0.8380
vn -0.6082 -0.0000 -0.7938
vn -0.6672 -0.0000 -0.7449
vn -0.7235 -0.0000 -0.6903
vn -0.7779 -0.0000 -0.6284
vn -0.8271 -0.0000 -0.5620
vn -0.8692 -0.0000 -0.4945
vn -0.9041 -0.0000 -0.4274
vn -0.9322 -0.0000 -0.3621
vn -0.9541 -0.0000 -0.2994
vn -0.9708 -0.0000 -0.2401
vn -0.9828 -0.0000 -0.1845
vn -0.9911 -0.0000 -0.1328
vn -0.9964 -0.0000 -0.0850
vn -0.9992 -0.0000 -0.0409
vn -1.0000 -0.0000 -0.0099
vn 1.0000 -0.0000 0.0097
vn 0.9992 -0.0000 0.0403
vn 0.9965 -0.0000 0.0838
vn 0.9914 -0.0000 0.1310
vn 0.9833 -0.0000 0.1822
vn 0.9714 -0.0000 0.2373
vn 0.9551 -0.0000 0.2963
vn 0.9334 -0.0000 0.3588
vn 0.9056 -0.0000 0.4241
vn 0.8709 -0.0000 0.4914
vn 0.8289 -0.0000 0.5594
vn 0.7794 -0.0000 0.6265
vn 0.7246 -0.0000 0.6892
vn 0.6676 -0.0000 0.7445
vn 0.6080 -0.0000 0.7939
vn 0.5449 -0.0000 0.8385
vn 0.4796 -0.0000 0.8775
vn 0.4132 -0.0000 0.9106
vn 0.3470 -0.0000 0.9379
vn 0.2821 -0.0000 0.9594
vn 0.2194 -0.0000 0.9756
vn 0.1596 -0.0000 0.9872
vn 0.1030 -0.0000 0.9947
vn 0.0499 -0.0000 0.9988
vt 0.237624 0.000000
vt 0.257426 0.000000
vt 0.247525 0.000000
vt 0.267327 0.000000
vt 0.742574 0.000000
vt 0.762376 0.000000
vt 0.752475 0.000000
vt 0.772277 0.000000
vt 0.227723 0.000000
vt 0.782178 0.000000
vt 0.277228 0.000000
vt 0.732673 0.000000
vt 0.217822 0.000000
vt 0.792079 0.000000
vt 0.287129 0.000000
vt 0.722772 0.000000
vt 0.297030 0.000000
vt 0.712871 0.000000
vt 0.207921 0.000000
vt 0.801980 0.000000
vt 0.306931 0.000000
vt 0.702970 0.000000
vt 0.198020 0.000000
vt 0.811881 0.000000
vt 0.316832 0.000000
vt 0.693069 0.000000
vt 0.188119 0.000000
vt 0.821782 0.000000
vt 0.326733 0.000000
vt 0.683168 0.000000
vt 0.673267 0.000000
vt 0.336634 0.000000
vt 0.178218 0.000000
vt 0.831683 0.000000
vt 0.663366 0.000000
vt 0.346535 0.000000
vt 0.653465 0.000000
vt 0.356436 0.000000
vt 0.168317 0.000000
vt 0.841584 0.000000
vt 0.643564 0.000000
vt 0.366337 0.000000
vt 0.158416 0.000000
vt 0.851485 0.000000
vt 0.633663 0.000000
vt 0.376238 0.000000
vt 0.623762 0.000000
vt 0.386139 0.000000
vt 0.148515 0.000000
vt 0.861386 0.000000
vt 0.396040 0.000000
vt 0.613861 0.000000
vt 0.405941 0.000000
vt 0.603960 0.000000
vt 0.138614 0.000000
vt 0.871287 0.000000
vt 0.415842 0.000000
vt 0.594059 0.000000
vt 0.425743 0.000000
vt 0.584158 0.000000
vt 0.128713 0.000000
vt 0.881188 0.000000
vt 0.435644 0.000000
vt 0.574257 0.000000
vt 0.445545 0.000000
vt 0.564356 0.000000
vt 0.455446 0.000000
vt 0.554455 0.000000
vt 0.118812 0.000000
vt 0.891089 0.000000
vt 0.465347 0.000000
vt 0.544554 0.000000
vt 0.475248 0.000000
vt 0.534653 0.000000
vt 0.485149 0.000000
vt 0.524752 0.000000
vt 0.495050 0.000000
vt 0.514852 0.000000
vt 0.504951 0.000000
vt 0.108911 0.000000
vt 0.900990 0.000000
vt 0.099010 0.000000
vt 0.910891 0.000000
vt 0.089109 0.000000
vt 0.920792 0.000000
vt 0.079208 0.000000
vt 0.930693 0.000000
vt 0.069307 0.000000
vt 0.940594 0.000000
vt 0.059406 0.000000
vt 0.950495 0.000000
vt 0.049505 0.000000
vt 0.960396 0.000000
vt 0.039604 0.000000
vt 0.970297 0.000000
vt 0.029703 0.000000
vt 0.980198 0.000000
vt 0.019802 0.000000
vt 0.990099 0.000000
vt 0.009901 0.000000
vt 1.000000 0.000000
vt 0.000000 0.000000
vt 0.000000 1.000000
vt 0.009804 1.000000
vt 0.009804 0.000000
vt 0.019608 1.000000
vt 0.019608 0.000000
vt 0.029412 1.000000
vt 0.029412 0.000000
vt 0.039216 1.000000
vt 0.039216 0.000000
vt 0.049020 1.000000
vt 0.049020 0.000000
vt 0.058824 1.000000
vt 0.058824 0.000000
vt 0.068627 1.000000
vt 0.068627 0.000000
vt 0.078431 1.000000
vt 0.078431 0.000000
vt 0.088235 1.000000
vt 0.088235 0.000000
vt 0.098039 1.000000
vt 0.098039 0.000000
vt 0.107843 1.000000
vt 0.107843 0.000000
vt 0.117647 1.000000
vt 0.117647 0.000000
vt 0.127451 1.000000
vt 0.127451 0.000000
vt 0.137255 1.000000
vt 0.137255 0.000000
vt 0.147059 1.000000
vt 0.147059 0.000000
vt 0.156863 1.000000
vt 0.156863 0.000000
vt 0.166667 1.000000
vt 0.166667 0.000000
vt 0.176471 1.000000
vt 0.176471 0.000000
vt 0.186275 1.000000
vt 0.186275 0.000000
vt 0.196078 1.000000
vt 0.196078 0.000000
vt 0.205882 1.000000
vt 0.205882 0.000000
vt 0.215686 1.000000
vt 0.215686 0.000000
vt 0.225490 1.000000
vt 0.225490 0.000000
vt 0.235294 1.000000
vt 0.235294 0.000000
vt 0.245098 1.000000
vt 0.245098 0.000000
vt 0.254902 1.000000
vt 0.254902 0.000000
vt 0.264706 1.000000
vt 0.264706 0.000000
vt 0.274510 1.000000
vt 0.274510 0.000000
vt 0.284314 1.000000
vt 0.284314 0.000000
vt 0.294118 1.000000
vt 0.294118 0.000000
vt 0.303922 1.000000
vt 0.303922 0.000000
vt 0.313726 1.000000
vt 0.313726 0.000000
vt 0.323529 1.000000
vt 0.323529 0.000000
vt 0.333333 1.000000
vt 0.333333 0.000000
vt 0.343137 1.000000
vt 0.343137 0.000000
vt 0.352941 1.000000
vt 0.352941 0.000000
vt 0.362745 1.000000
vt 0.362745 0.000000
vt 0.372549 1.000000
vt 0.372549 0.000000
vt 0.382353 1.000000
vt 0.382353 0.000000
vt 0.392157 1.000000
vt 0.392157 0.000000
vt 0.401961 1.000000
vt 0.401961 0.000000
vt 0.411765 1.000000
vt 0.411765 0.000000
vt 0.421569 1.000000
vt 0.421569 0.000000
vt 0.431373 1.000000
vt 0.431373 0.000000
vt 0.441176 1.000000
vt 0.441176 0.000000
vt 0.450980 1.000000
vt 0.450980 0.000000
vt 0.460784 1.000000
vt 0.460784 0.000000
vt 0.470588 1.000000
vt 0.470588 0.000000
vt 0.480392 1.000000
vt 0.480392 0.000000
vt 0.490196 1.000000
vt 0.490196 0.000000
vt 0.500000 1.000000
vt 0.500000 0.000000
vt 0.509804 1.000000
vt 0.509804 0.000000
vt 0.519608 1.000000
vt 0.519608 0.000000
vt 0.529412 1.000000
vt 0.529412 0.000000
vt 0.539216 1.000000
vt 0.539216 0.000000
vt 0.549020 1.000000
vt 0.549020 0.000000
vt 0.558824 1.000000
vt 0.558824 0.000000
vt 0.568627 1.000000
vt 0.568627 0.000000
vt 0.578431 1.000000
vt 0.578431 0.000000
vt 0.588235 1.000000
vt 0.588235 0.000000
vt 0.598039 1.000000
vt 0.598039 0.000000
vt 0.607843 1.000000
vt 0.607843 0.000000
vt 0.617647 1.000000
vt 0.617647 0.000000
vt 0.627451 1.000000
vt 0.627451 0.000000
vt 0.637255 1.000000
vt 0.637255 0.000000
vt 0.647059 1.000000
vt 0.647059 0.000000
vt 0.656863 1.000000
vt 0.656863 0.000000
vt 0.666667 1.000000
vt 0.666667 0.000000
vt 0.676471 1.000000
vt 0.676471 0.000000
vt 0.686275 1.000000
vt 0.686275 0.000000
vt 0.696078 1.000000
vt 0.696078 0.000000
vt 0.705882 1.000000
vt 0.705882 0.000000
vt 0.715686 1.000000
vt 0.715686 0.000000
vt 0.725490 1.000000
vt 0.725490 0.000000
vt 0.735294 1.000000
vt 0.735294 0.000000
vt 0.745098 1.000000
vt 0.745098 0.000000
vt 0.754902 1.000000
vt 0.754902 0.000000
vt 0.764706 1.000000
vt 0.764706 0.000000
vt 0.774510 1.000000
vt 0.774510 0.000000
vt 0.784314 1.000000
vt 0.784314 0.000000
vt 0.794118 1.000000
vt 0.794118 0.000000
vt 0.803922 1.000000
vt 0.803922 0.000000
vt 0.813725 1.000000
vt 0.813725 0.000000
vt 0.823529 1.000000
vt 0.823529 0.000000
vt 0.833333 1.000000
vt 0.833333 0.000000
vt 0.843137 1.000000
vt 0.843137 0.000000
vt 0.852941 1.000000
vt 0.852941 0.000000
vt 0.862745 1.000000
vt 0.862745 0.000000
vt 0.872549 1.000000
vt 0.872549 0.000000
vt 0.882353 1.000000
vt 0.882353 0.000000
vt 0.892157 1.000000
vt 0.892157 0.000000
vt 0.901961 1.000000
vt 0.901961 0.000000
vt 0.911765 1.000000
vt 0.911765 0.000000
vt 0.921569 1.000000
vt 0.921569 0.000000
vt 0.931373 1.000000
vt 0.931373 0.000000
vt 0.941176 1.000000
vt 0.941176 0.000000
vt 0.950980 1.000000
vt 0.950980 0.000000
vt 0.960784 1.000000
vt 0.960784 0.000000
vt 0.970588 1.000000
vt 0.970588 0.000000
vt 0.980392 1.000000
vt 0.980392 0.000000
vt 0.990196 1.000000
vt 0.990196 0.000000
vt 1.000000 1.000000
s 0
usemtl Material.001
f 25/1/1 27/2/1 26/3/1
f 25/1/1 28/4/1 27/2/1
f 76/5/1 78/6/1 77/7/1
f 76/5/1 79/8/1 78/6/1
f 24/9/1 28/4/1 25/1/1
f 76/5/1 80/10/1 79/8/1
f 24/9/1 29/11/1 28/4/1
f 75/12/1 80/10/1 76/5/1
f 23/13/1 29/11/1 24/9/1
f 75/12/1 81/14/1 80/10/1
f 23/13/1 30/15/1 29/11/1
f 74/16/1 81/14/1 75/12/1
f 23/13/1 31/17/1 30/15/1
f 73/18/1 81/14/1 74/16/1
f 22/19/1 31/17/1 23/13/1
f 73/18/1 82/20/1 81/14/1
f 22/19/1 32/21/1 31/17/1
f 72/22/1 82/20/1 73/18/1
f 21/23/1 32/21/1 22/19/1
f 72/22/1 83/24/1 82/20/1
f 21/23/1 33/25/1 32/21/1
f 71/26/1 83/24/1 72/22/1
f 20/27/1 33/25/1 21/23/1
f 71/26/1 84/28/1 83/24/1
f 20/27/1 34/29/1 33/25/1
f 70/30/1 84/28/1 71/26/1
f 69/31/1 84/28/1 70/30/1
f 20/27/1 35/32/1 34/29/1
f 19/33/1 35/32/1 20/27/1
f 69/31/1 85/34/1 84/28/1
f 68/35/1 85/34/1 69/31/1
f 19/33/1 36/36/1 35/32/1
f 67/37/1 85/34/1 68/35/1
f 19/33/1 37/38/1 36/36/1
f 18/39/1 37/38/1 19/33/1
f 67/37/1 86/40/1 85/34/1
f 66/41/1 86/40/1 67/37/1
f 18/39/1 38/42/1 37/38/1
f 17/43/1 38/42/1 18/39/1
f 66/41/1 87/44/1 86/40/1
f 65/45/1 87/44/1 66/41/1
f 17/43/1 39/46/1 38/42/1
f 64/47/1 87/44/1 65/45/1
f 17/43/1 40/48/1 39/46/1
f 16/49/1 40/48/1 17/43/1
f 64/47/1 88/50/1 87/44/1
f 16/49/1 41/51/1 40/48/1
f 63/52/1 88/50/1 64/47/1
f 16/49/1 42/53/1 41/51/1
f 62/54/1 88/50/1 63/52/1
f 15/55/1 42/53/1 16/49/1
f 62/54/1 89/56/1 88/50/1
f 15/55/1 43/57/1 42/53/1
f 61/58/1 89/56/1 62/54/1
f 15/55/1 44/59/1 43/57/1
f 60/60/1 89/56/1 61/58/1
f 14/61/1 44/59/1 15/55/1
f 60/60/1 90/62/1 89/56/1
f 14/61/1 45/63/1 44/59/1
f 59/64/1 90/62/1 60/60/1
f 14/61/1 46/65/1 45/63/1
f 58/66/1 90/62/1 59/64/1
f 14/61/1 47/67/1 46/65/1
f 57/68/1 90/62/1 58/66/1
f 13/69/1 47/67/1 14/61/1
f 57/68/1 91/70/1 90/62/1
f 13/69/1 48/71/1 47/67/1
f 56/72/1 91/70/1 57/68/1
f 13/69/1 49/73/1 48/71/1
f 55/74/1 91/70/1 56/72/1
f 13/69/1 50/75/1 49/73/1
f 54/76/1 91/70/1 55/74/1
f 13/69/1 51/77/1 50/75/1
f 53/78/1 91/70/1 54/76/1
f 13/69/1 52/79/1 51/77/1
f 52/79/1 91/70/1 53/78/1
f 12/80/1 52/79/1 13/69/1
f 12/80/1 91/70/1 52/79/1
f 12/80/1 92/81/1 91/70/1
f 11/82/1 92/81/1 12/80/1
f 11/82/1 93/83/1 92/81/1
f 10/84/1 93/83/1 11/82/1
f 10/84/1 94/85/1 93/83/1
f 9/86/1 94/85/1 10/84/1
f 9/86/1 95/87/1 94/85/1
f 8/88/1 95/87/1 9/86/1
f 8/88/1 96/89/1 95/87/1
f 7/90/1 96/89/1 8/88/1
f 7/90/1 97/91/1 96/89/1
f 6/92/1 97/91/1 7/90/1
f 6/92/1 98/93/1 97/91/1
f 5/94/1 98/93/1 6/92/1
f 5/94/1 99/95/1 98/93/1
f 4/96/1 99/95/1 5/94/1
f 4/96/1 100/97/1 99/95/1
f 3/98/1 100/97/1 4/96/1
f 3/98/1 101/99/1 100/97/1
f 2/100/1 101/99/1 3/98/1
f 2/100/1 102/101/1 101/99/1
f 1/102/1 102/101/1 2/100/1
f 127/1/2 128/3/2 129/2/2
f 127/1/2 129/2/2 130/4/2
f 178/5/2 179/7/2 180/6/2
f 178/5/2 180/6/2 181/8/2
f 126/9/2 127/1/2 130/4/2
f 178/5/2 181/8/2 182/10/2
f 126/9/2 130/4/2 131/11/2
f 177/12/2 178/5/2 182/10/2
f 125/13/2 126/9/2 131/11/2
f 177/12/2 182/10/2 183/14/2
f 125/13/2 131/11/2 132/15/2
f 176/16/2 177/12/2 183/14/2
f 125/13/2 132/15/2 133/17/2
f 175/18/2 176/16/2 183/14/2
f 124/19/2 125/13/2 133/17/2
f 175/18/2 183/14/2 184/20/2
f 124/19/2 133/17/2 134/21/2
f 174/22/2 175/18/2 184/20/2
f 123/23/2 124/19/2 134/21/2
f 174/22/2 184/20/2 185/24/2
f 123/23/2 134/21/2 135/25/2
f 173/26/2 174/22/2 185/24/2
f 122/27/2 123/23/2 135/25/2
f 173/26/2 185/24/2 186/28/2
f 122/27/2 135/25/2 136/29/2
f 172/30/2 173/26/2 186/28/2
f 171/31/2 172/30/2 186/28/2
f 122/27/2 136/29/2 137/32/2
f 121/33/2 122/27/2 137/32/2
f 171/31/2 186/28/2 187/34/2
f 170/35/2 171/31/2 187/34/2
f 121/33/2 137/32/2 138/36/2
f 169/37/2 170/35/2 187/34/2
f 121/33/2 138/36/2 139/38/2
f 120/39/2 121/33/2 139/38/2
f 169/37/2 187/34/2 188/40/2
f 168/41/2 169/37/2 188/40/2
f 120/39/2 139/38/2 140/42/2
f 119/43/2 120/39/2 140/42/2
f 168/41/2 188/40/2 189/44/2
f 167/45/2 168/41/2 189/44/2
f 119/43/2 140/42/2 141/46/2
f 166/47/2 167/45/2 189/44/2
f 119/43/2 141/46/2 142/48/2
f 118/49/2 119/43/2 142/48/2
f 166/47/2 189/44/2 190/50/2
f 118/49/2 142/48/2 143/51/2
f 165/52/2 166/47/2 190/50/2
f 118/49/2 143/51/2 144/53/2
f 164/54/2 165/52/2 190/50/2
f 117/55/2 118/49/2 144/53/2
f 164/54/2 190/50/2 191/56/2
f 117/55/2 144/53/2 145/57/2
f 163/58/2 164/54/2 191/56/2
f 117/55/2 145/57/2 146/59/2
f 162/60/2 163/58/2 191/56/2
f 116/61/2 117/55/2 146/59/2
f 162/60/2 191/56/2 192/62/2
f 116/61/2 146/59/2 147/63/2
f 161/64/2 162/60/2 192/62/2
f 116/61/2 147/63/2 148/65/2
f 160/66/2 161/64/2 192/62/2
f 116/61/2 148/65/2 149/67/2
f 159/68/2 160/66/2 192/62/2
f 115/69/2 116/61/2 149/67/2
f 159/68/2 192/62/2 193/70/2
f 115/69/2 149/67/2 150/71/2
f 158/72/2 159/68/2 193/70/2
f 115/69/2 150/71/2 151/73/2
f 157/74/2 158/72/2 193/70/2
f 115/69/2 151/73/2 152/75/2
f 156/76/2 157/74/2 193/70/2
f 115/69/2 152/75/2 153/77/2
f 155/78/2 156/76/2 193/70/2
f 115/69/2 153/77/2 154/79/2
f 154/79/2 155/78/2 193/70/2
f 114/80/2 115/69/2 154/79/2
f 114/80/2 154/79/2 193/70/2
f 114/80/2 193/70/2 194/81/2
f 113/82/2 114/80/2 194/81/2
f 113/82/2 194/81/2 195/83/2
f 112/84/2 113/82/2 195/83/2
f 112/84/2 195/83/2 196/85/2
f 111/86/2 112/84/2 196/85/2
f 111/86/2 196/85/2 197/87/2
f 110/88/2 111/86/2 197/87/2
f 110/88/2 197/87/2 198/89/2
f 109/90/2 110/88/2 198/89/2
f 109/90/2 198/89/2 199/91/2
f 108/92/2 109/90/2 199/91/2
f 108/92/2 199/91/2 200/93/2
f 107/94/2 108/92/2 200/93/2
f 107/94/2 200/93/2 201/95/2
f 106/96/2 107/94/2 201/95/2
f 106/96/2 201/95/2 202/97/2
f 105/98/2 106/96/2 202/97/2
f 105/98/2 202/97/2 203/99/2
f 104/100/2 105/98/2 203/99/2
f 104/100/2 203/99/2 204/101/2
f 103/102/2 104/100/2 204/101/2
s 1
f 206/103/3 208/104/4 207/105/4 205/102/3
f 208/104/4 210/106/5 209/107/5 207/105/4
f 210/106/5 212/108/6 211/109/6 209/107/5
f 212/108/6 214/110/7 213/111/7 211/109/6
f 214/110/7 216/112/8 215/113/8 213/111/7
f 216/112/8 218/114/9 217/115/9 215/113/8
f 218/114/9 220/116/10 219/117/10 217/115/9
f 220/116/10 222/118/11 221/119/11 219/117/10
f 222/118/11 224/120/12 223/121/12 221/119/11
f 224/120/12 226/122/13 225/123/13 223/121/12
f 226/122/13 228/124/14 227/125/14 225/123/13
f 228/124/14 230/126/15 229/127/15 227/125/14
f 230/126/15 232/128/16 231/129/16 229/127/15
f 232/128/16 234/130/17 233/131/17 231/129/16
f 234/130/17 236/132/18 235/133/18 233/131/17
f 236/132/18 238/134/19 237/135/19 235/133/18
f 238/134/19 240/136/20 239/137/20 237/135/19
f 240/136/20 242/138/21 241/139/21 239/137/20
f 242/138/21 244/140/22 243/141/22 241/139/21
f 244/140/22 246/142/23 245/143/23 243/141/22
f 246/142/23 248/144/24 247/145/24 245/143/23
f 248/144/24 250/146/25 249/147/25 247/145/24
f 250/146/25 252/148/26 251/149/26 249/147/25
f 252/148/26 254/150/27 253/151/27 251/149/26
f 254/150/27 256/152/28 255/153/28 253/151/27
f 256/152/28 258/154/29 257/155/29 255/153/28
f 258/154/29 260/156/30 259/157/30 257/155/29
f 260/156/30 262/158/31 261/159/31 259/157/30
f 262/158/31 264/160/32 263/161/32 261/159/31
f 264/160/32 266/162/33 265/163/33 263/161/32
f 266/162/33 268/164/34 267/165/34 265/163/33
f 268/164/34 270/166/35 269/167/35 267/165/34
f 270/166/35 272/168/36 271/169/36 269/167/35
f 272/168/36 274/170/37 273/171/37 271/169/36
f 274/170/37 276/172/38 275/173/38 273/171/37
f 276/172/38 278/174/39 277/175/39 275/173/38
f 278/174/39 280/176/40 279/177/40 277/175/39
f 280/176/40 282/178/41 281/179/41 279/177/40
f 282/178/41 284/180/42 283/181/42 281/179/41
f 284/180/42 286/182/43 285/183/43 283/181/42
f 286/182/43 288/184/44 287/185/44 285/183/43
f 288/184/44 290/186/45 289/187/45 287/185/44
f 290/186/45 292/188/46 291/189/46 289/187/45
f 292/188/46 294/190/47 293/191/47 291/189/46
f 294/190/47 296/192/48 295/193/48 293/191/47
f 296/192/48 298/194/49 297/195/49 295/193/48
f 298/194/49 300/196/50 299/197/50 297/195/49
f 300/196/50 302/198/51 301/199/51 299/197/50
f 302/198/51 304/200/52 303/201/52 301/199/51
f 304/200/52 306/202/53 305/203/53 303/201/52
f 306/202/53 308/204/54 307/205/54 305/203/53
f 308/204/54 310/206/55 309/207/55 307/205/54
f 310/206/55 312/208/56 311/209/56 309/207/55
f 312/208/56 314/210/57 313/211/57 311/209/56
f 314/210/57 316/212/58 315/213/58 313/211/57
f 316/212/58 318/214/59 317/215/59 315/213/58
f 318/214/59 320/216/60 319/217/60 317/215/59
f 320/216/60 322/218/61 321/219/61 319/217/60
f 322/218/61 324/220/62 323/221/62 321/219/61
f 324/220/62 326/222/63 325/223/63 323/221/62
f 326/222/63 328/224/64 327/225/64 325/223/63
f 328/224/64 330/226/65 329/227/65 327/225/64
f 330/226/65 332/228/66 331/229/66 329/227/65
f 332/228/66 334/230/67 333/231/67 331/229/66
f 334/230/67 336/232/68 335/233/68 333/231/67
f 336/232/68 338/234/69 337/235/69 335/233/68
f 338/234/69 340/236/70 339/237/70 337/235/69
f 340/236/70 342/238/71 341/239/71 339/237/70
f 342/238/71 344/240/72 343/241/72 341/239/71
f 344/240/72 346/242/73 345/243/73 343/241/72
f 346/242/73 348/244/74 347/245/74 345/243/73
f 348/244/74 350/246/75 349/247/75 347/245/74
f 350/246/75 352/248/76 351/249/76 349/247/75
f 352/248/76 354/250/77 353/251/77 351/249/76
f 354/250/77 356/252/78 355/253/78 353/251/77
f 356/252/78 358/254/28 357/255/28 355/253/78
f 358/254/28 360/256/29 359/257/29 357/255/28
f 360/256/29 362/258/79 361/259/79 359/257/29
f 362/258/79 364/260/80 363/261/80 361/259/79
f 364/260/80 366/262/81 365/263/81 363/261/80
f 366/262/81 368/264/82 367/265/82 365/263/81
f 368/264/82 370/266/83 369/267/83 367/265/82
f 370/266/83 372/268/84 371/269/84 369/267/83
f 372/268/84 374/270/85 373/271/85 371/269/84
f 374/270/85 376/272/86 375/273/86 373/271/85
f 376/272/86 378/274/87 377/275/87 375/273/86
f 378/274/87 380/276/88 379/277/88 377/275/87
f 380/276/88 382/278/89 381/279/89 379/277/88
f 382/278/89 384/280/90 383/281/90 381/279/89
f 384/280/90 386/282/91 385/283/91 383/281/90
f 386/282/91 388/284/92 387/285/92 385/283/91
f 388/284/92 390/286/93 389/287/93 387/285/92
f 390/286/93 392/288/94 391/289/94 389/287/93
f 392/288/94 394/290/95 393/291/95 391/289/94
f 394/290/95 396/292/96 395/293/96 393/291/95
f 396/292/96 398/294/97 397/295/97 395/293/96
f 398/294/97 400/296/98 399/297/98 397/295/97
f 400/296/98 402/298/99 401/299/99 399/297/98
f 402/298/99 404/300/100 403/301/100 401/299/99
f 404/300/100 406/302/101 405/303/101 403/301/100
f 406/302/101 408/304/102 407/305/102 405/303/101
f 408/304/102 206/306/3 205/101/3 407/305/102
