# Blender 4.0.2
# www.blender.org
mtllib V_regular.mtl
o Text
v 1.080769 0.600000 -1.303846
v 0.165385 0.600000 1.350000
v -0.165385 0.600000 1.350000
v -1.080769 0.600000 -1.303846
v -0.792308 0.600000 -1.303846
v 0.000000 0.600000 1.023077
v 0.792308 0.600000 -1.303846
v 1.080769 0.000000 -1.303846
v 0.165385 0.000000 1.350000
v -0.165385 0.000000 1.350000
v -1.080769 0.000000 -1.303846
v -0.792308 0.000000 -1.303846
v 0.000000 0.000000 1.023077
v 0.792308 0.000000 -1.303846
v 1.080769 0.000000 -1.303846
v 1.080769 0.600000 -1.303846
v 0.165385 0.000000 1.350000
v 0.165385 0.600000 1.350000
v -0.165385 0.000000 1.350000
v -0.165385 0.600000 1.350000
v -1.080769 0.000000 -1.303846
v -1.080769 0.600000 -1.303846
v -0.792308 0.000000 -1.303846
v -0.792308 0.600000 -1.303846
v 0.000000 0.000000 1.023077
v 0.000000 0.600000 1.023077
v 0.792308 0.000000 -1.303846
v 0.792308 0.600000 -1.303846
vn -0.0000 1.0000 -0.0000
vn -0.0000 -1.0000 -0.0000
vn 0.8143 -0.0000 -0.5805
vn 0.5805 -0.0000 0.8143
vn -0.5805 -0.0000 0.8143
vn -0.8143 -0.0000 -0.5805
vn 0.5821 -0.0000 -0.8131
vn -0.0000 -0.0000 -1.0000
vn -0.5821 -0.0000 -0.8131
vt 0.333333 0.000000
vt 0.666667 0.000000
vt 0.500000 0.000000
vt 0.833333 0.000000
vt 0.000000 0.000000
vt 1.000000 0.000000
vt 0.166667 0.000000
vt 0.000000 1.000000
vt 0.142857 1.000000
vt 0.142857 0.000000
vt 0.285714 1.000000
vt 0.285714 0.000000
vt 0.428571 1.000000
vt 0.428571 0.000000
vt 0.571429 1.000000
vt 0.571429 0.000000
vt 0.714286 1.000000
vt 0.714286 0.000000
vt 0.857143 1.000000
vt 0.857143 0.000000
vt 1.000000 1.000000
s 0
usemtl Material.001
f 3/1/1 5/2/1 4/3/1
f 3/1/1 6/4/1 5/2/1
f 6/4/1 1/5/1 7/6/1
f 6/4/1 2/7/1 1/5/1
f 3/1/1 2/7/1 6/4/1
f 10/1/2 11/3/2 12/2/2
f 10/1/2 12/2/2 13/4/2
f 13/4/2 14/6/2 8/5/2
f 13/4/2 8/5/2 9/7/2
f 10/1/2 13/4/2 9/7/2
s 1
f 16/8/3 18/9/4 17/10/4 15/5/3
f 18/9/4 20/11/5 19/12/5 17/10/4
f 20/11/5 22/13/6 21/14/6 19/12/5
f 22/13/6 24/15/7 23/16/7 21/14/6
f 24/15/7 26/17/8 25/18/8 23/16/7
f 26/17/8 28/19/9 27/20/9 25/18/8
f 28/19/9 16/21/3 15/6/3 27/20/9
