# Blender 4.0.2
# www.blender.org
mtllib W_regular.mtl
o Text
v 0.000000 0.600000 -0.638462
v -0.584615 0.600000 1.350000
v -0.934615 0.600000 1.350000
v -1.492308 0.600000 -1.303846
v -1.207692 0.600000 -1.303846
v -0.750000 0.600000 1.011538
v -0.169231 0.600000 -0.919231
v 0.169231 0.600000 -0.919231
v 0.750000 0.600000 1.011538
v 1.207693 0.600000 -1.303846
v 1.492308 0.600000 -1.303846
v 0.934616 0.600000 1.350000
v 0.584615 0.600000 1.350000
v 0.000000 0.000000 -0.638462
v -0.584615 0.000000 1.350000
v -0.934615 0.000000 1.350000
v -1.492308 0.000000 -1.303846
v -1.207692 0.000000 -1.303846
v -0.750000 0.000000 1.011538
v -0.169231 0.000000 -0.919231
v 0.169231 0.000000 -0.919231
v 0.750000 0.000000 1.011538
v 1.207693 0.000000 -1.303846
v 1.492308 0.000000 -1.303846
v 0.934616 0.000000 1.350000
v 0.584615 0.000000 1.350000
v 0.000000 0.000000 -0.638462
v 0.000000 0.600000 -0.638462
v -0.584615 0.000000 1.350000
v -0.584615 0.600000 1.350000
v -0.934615 0.000000 1.350000
v -0.934615 0.600000 1.350000
v -1.492308 0.000000 -1.303846
v -1.492308 0.600000 -1.303846
v -1.207692 0.000000 -1.303846
v -1.207692 0.600000 -1.303846
v -0.750000 0.000000 1.011538
v -0.750000 0.600000 1.011538
v -0.169231 0.000000 -0.919231
v -0.169231 0.600000 -0.919231
v 0.169231 0.000000 -0.919231
v 0.169231 0.600000 -0.919231
v 0.750000 0.000000 1.011538
v 0.750000 0.600000 1.011538
v 1.207693 0.000000 -1.303846
v 1.207693 0.600000 -1.303846
v 1.492308 0.000000 -1.303846
v 1.492308 0.600000 -1.303846
v 0.934616 0.000000 1.350000
v 0.934616 0.600000 1.350000
v 0.584615 0.000000 1.350000
v 0.584615 0.600000 1.350000
vn -0.0000 1.0000 -0.0000
vn -0.0000 -1.0000 -0.0000
vn -0.0000 -0.0000 1.0000
vn 0.5991 -0.0000 0.8006
vn -0.6302 -0.0000 0.7764
vn -0.7764 -0.0000 -0.6302
vn 0.6349 -0.0000 -0.7726
vn 0.0485 -0.0000 -0.9988
vn -0.5966 -0.0000 -0.8025
vn 0.5966 -0.0000 -0.8025
vn -0.0485 -0.0000 -0.9988
vn -0.6349 -0.0000 -0.7726
vn 0.7764 -0.0000 -0.6302
vn 0.6302 -0.0000 0.7764
vn -0.5991 -0.0000 0.8006
vt 0.166667 0.000000
vt 0.333333 0.000000
vt 0.250000 0.000000
vt 0.416667 0.000000
vt 0.666667 0.000000
vt 0.833333 0.000000
vt 0.750000 0.000000
vt 0.916667 0.000000
vt 0.000000 0.000000
vt 0.500000 0.000000
vt 0.583333 0.000000
vt 0.083333 0.000000
vt 1.000000 0.000000
vt 0.000000 1.000000
vt 0.076923 1.000000
vt 0.076923 0.000000
vt 0.153846 1.000000
vt 0.153846 0.000000
vt 0.230769 1.000000
vt 0.230769 0.000000
vt 0.307692 1.000000
vt 0.307692 0.000000
vt 0.384615 1.000000
vt 0.384615 0.000000
vt 0.461538 1.000000
vt 0.461538 0.000000
vt 0.538462 1.000000
vt 0.538462 0.000000
vt 0.615385 1.000000
vt 0.615385 0.000000
vt 0.692308 1.000000
vt 0.692308 0.000000
vt 0.769231 1.000000
vt 0.769231 0.000000
vt 0.846154 1.000000
vt 0.846154 0.000000
vt 0.923077 1.000000
vt 0.923077 0.000000
vt 1.000000 1.000000
s 0
usemtl Material.001
f 3/1/1 5/2/1 4/3/1
f 3/1/1 6/4/1 5/2/1
f 9/5/1 11/6/1 10/7/1
f 9/5/1 12/8/1 11/6/1
f 6/4/1 1/9/1 7/10/1
f 1/9/1 8/11/1 7/10/1
f 1/9/1 9/5/1 8/11/1
f 6/4/1 2/12/1 1/9/1
f 13/13/1 9/5/1 1/9/1
f 3/1/1 2/12/1 6/4/1
f 13/13/1 12/8/1 9/5/1
f 16/1/2 17/3/2 18/2/2
f 16/1/2 18/2/2 19/4/2
f 22/5/2 23/7/2 24/6/2
f 22/5/2 24/6/2 25/8/2
f 19/4/2 20/10/2 14/9/2
f 14/9/2 20/10/2 21/11/2
f 14/9/2 21/11/2 22/5/2
f 19/4/2 14/9/2 15/12/2
f 26/13/2 14/9/2 22/5/2
f 16/1/2 19/4/2 15/12/2
f 26/13/2 22/5/2 25/8/2
s 1
f 28/14/3 30/15/4 29/16/4 27/9/3
f 30/15/4 32/17/5 31/18/5 29/16/4
f 32/17/5 34/19/6 33/20/6 31/18/5
f 34/19/6 36/21/7 35/22/7 33/20/6
f 36/21/7 38/23/8 37/24/8 35/22/7
f 38/23/8 40/25/9 39/26/9 37/24/8
f 40/25/9 42/27/10 41/28/10 39/26/9
f 42/27/10 44/29/11 43/30/11 41/28/10
f 44/29/11 46/31/12 45/32/12 43/30/11
f 46/31/12 48/33/13 47/34/13 45/32/12
f 48/33/13 50/35/14 49/36/14 47/34/13
f 50/35/14 52/37/15 51/38/15 49/36/14
f 52/37/15 28/39/3 27/13/3 51/38/15
