# Blender 4.0.2
# www.blender.org
mtllib X_regular.mtl
o Text
v -0.003846 0.600000 0.188461
v -0.730769 0.600000 1.350000
v -1.053846 0.600000 1.350000
v -0.165385 0.600000 -0.038462
v -0.976923 0.600000 -1.303846
v -0.646154 0.600000 -1.303846
v 0.000000 0.600000 -0.253846
v 0.642308 0.600000 -1.303846
v 0.973077 0.600000 -1.303846
v 0.165385 0.600000 -0.038462
v 1.053846 0.600000 1.350000
v 0.734615 0.600000 1.350000
v -0.003846 0.000000 0.188461
v -0.730769 0.000000 1.350000
v -1.053846 0.000000 1.350000
v -0.165385 0.000000 -0.038462
v -0.976923 0.000000 -1.303846
v -0.646154 0.000000 -1.303846
v 0.000000 0.000000 -0.253846
v 0.642308 0.000000 -1.303846
v 0.973077 0.000000 -1.303846
v 0.165385 0.000000 -0.038462
v 1.053846 0.000000 1.350000
v 0.734615 0.000000 1.350000
v -0.003846 0.000000 0.188461
v -0.003846 0.600000 0.188461
v -0.730769 0.000000 1.350000
v -0.730769 0.600000 1.350000
v -1.053846 0.000000 1.350000
v -1.053846 0.600000 1.350000
v -0.165385 0.000000 -0.038462
v -0.165385 0.600000 -0.038462
v -0.976923 0.000000 -1.303846
v -0.976923 0.600000 -1.303846
v -0.646154 0.000000 -1.303846
v -0.646154 0.600000 -1.303846
v 0.000000 0.000000 -0.253846
v 0.000000 0.600000 -0.253846
v 0.642308 0.000000 -1.303846
v 0.642308 0.600000 -1.303846
v 0.973077 0.000000 -1.303846
v 0.973077 0.600000 -1.303846
v 0.165385 0.000000 -0.038462
v 0.165385 0.600000 -0.038462
v 1.053846 0.000000 1.350000
v 1.053846 0.600000 1.350000
v 0.734615 0.000000 1.350000
v 0.734615 0.600000 1.350000
vn -0.0000 1.0000 -0.0000
vn -0.0000 -1.0000 -0.0000
vn 0.0036 -0.0000 1.0000
vn 0.4845 -0.0000 0.8748
vn -0.8772 -0.0000 0.4801
vn -1.0000 -0.0000 0.0005
vn -0.8775 -0.0000 -0.4797
vn 0.4878 -0.0000 -0.8730
vn -0.0013 -0.0000 -1.0000
vn -0.4890 -0.0000 -0.8723
vn 0.8769 -0.0000 -0.4806
vn 1.0000 -0.0000 -0.0006
vn 0.8772 -0.0000 0.4801
vn -0.4814 -0.0000 0.8765
vt 0.272727 0.000000
vt 0.454545 0.000000
vt 0.363636 0.000000
vt 0.545455 0.000000
vt 0.727273 0.000000
vt 0.636364 0.000000
vt 0.818182 0.000000
vt 0.181818 0.000000
vt 0.000000 0.000000
vt 0.909091 0.000000
vt 0.090909 0.000000
vt 1.000000 0.000000
vt 0.000000 1.000000
vt 0.083333 1.000000
vt 0.083333 0.000000
vt 0.166667 1.000000
vt 0.166667 0.000000
vt 0.250000 1.000000
vt 0.250000 0.000000
vt 0.333333 1.000000
vt 0.333333 0.000000
vt 0.416667 1.000000
vt 0.416667 0.000000
vt 0.500000 1.000000
vt 0.500000 0.000000
vt 0.583333 1.000000
vt 0.583333 0.000000
vt 0.666667 1.000000
vt 0.666667 0.000000
vt 0.750000 1.000000
vt 0.750000 0.000000
vt 0.833333 1.000000
vt 0.833333 0.000000
vt 0.916667 1.000000
vt 0.916667 0.000000
vt 1.000000 1.000000
s 0
usemtl Material.001
f 4/1/1 6/2/1 5/3/1
f 4/1/1 7/4/1 6/2/1
f 7/4/1 9/5/1 8/6/1
f 7/4/1 10/7/1 9/5/1
f 4/1/1 10/7/1 7/4/1
f 3/8/1 10/7/1 4/1/1
f 3/8/1 1/9/1 10/7/1
f 1/9/1 11/10/1 10/7/1
f 3/8/1 2/11/1 1/9/1
f 12/12/1 11/10/1 1/9/1
f 16/1/2 17/3/2 18/2/2
f 16/1/2 18/2/2 19/4/2
f 19/4/2 20/6/2 21/5/2
f 19/4/2 21/5/2 22/7/2
f 16/1/2 19/4/2 22/7/2
f 15/8/2 16/1/2 22/7/2
f 15/8/2 22/7/2 13/9/2
f 13/9/2 22/7/2 23/10/2
f 15/8/2 13/9/2 14/11/2
f 24/12/2 13/9/2 23/10/2
s 1
f 26/13/3 28/14/4 27/15/4 25/9/3
f 28/14/4 30/16/5 29/17/5 27/15/4
f 30/16/5 32/18/6 31/19/6 29/17/5
f 32/18/6 34/20/7 33/21/7 31/19/6
f 34/20/7 36/22/8 35/23/8 33/21/7
f 36/22/8 38/24/9 37/25/9 35/23/8
f 38/24/9 40/26/10 39/27/10 37/25/9
f 40/26/10 42/28/11 41/29/11 39/27/10
f 42/28/11 44/30/12 43/31/12 41/29/11
f 44/30/12 46/32/13 45/33/13 43/31/12
f 46/32/13 48/34/14 47/35/14 45/33/13
f 48/34/14 26/36/3 25/12/3 47/35/14
