# Blender 4.0.2
# www.blender.org
mtllib Y_regular.mtl
o Text
v 0.138462 0.600000 0.300000
v 0.138462 0.600000 1.350000
v -0.138462 0.600000 1.350000
v -0.138462 0.600000 0.300000
v -1.057692 0.600000 -1.303846
v -0.738462 0.600000 -1.303846
v 0.000000 0.600000 0.019231
v 0.734615 0.600000 -1.303846
v 1.057692 0.600000 -1.303846
v 0.138462 0.000000 0.300000
v 0.138462 0.000000 1.350000
v -0.138462 0.000000 1.350000
v -0.138462 0.000000 0.300000
v -1.057692 0.000000 -1.303846
v -0.738462 0.000000 -1.303846
v 0.000000 0.000000 0.019231
v 0.734615 0.000000 -1.303846
v 1.057692 0.000000 -1.303846
v 0.138462 0.000000 0.300000
v 0.138462 0.600000 0.300000
v 0.138462 0.000000 1.350000
v 0.138462 0.600000 1.350000
v -0.138462 0.000000 1.350000
v -0.138462 0.600000 1.350000
v -0.138462 0.000000 0.300000
v -0.138462 0.600000 0.300000
v -1.057692 0.000000 -1.303846
v -1.057692 0.600000 -1.303846
v -0.738462 0.000000 -1.303846
v -0.738462 0.600000 -1.303846
v 0.000000 0.000000 0.019231
v 0.000000 0.600000 0.019231
v 0.734615 0.000000 -1.303846
v 0.734615 0.600000 -1.303846
v 1.057692 0.000000 -1.303846
v 1.057692 0.600000 -1.303846
vn -0.0000 1.0000 -0.0000
vn -0.0000 -1.0000 -0.0000
vn 0.9663 -0.0000 0.2573
vn 0.7071 -0.0000 0.7071
vn -0.7071 -0.0000 0.7071
vn -0.9663 -0.0000 0.2573
vn -0.8652 -0.0000 -0.5014
vn 0.5063 -0.0000 -0.8624
vn -0.0011 -0.0000 -1.0000
vn -0.5072 -0.0000 -0.8618
vn 0.8652 -0.0000 -0.5014
vt 0.375000 0.000000
vt 0.625000 0.000000
vt 0.500000 0.000000
vt 0.750000 0.000000
vt 1.000000 0.000000
vt 0.875000 0.000000
vt 0.000000 0.000000
vt 0.250000 0.000000
vt 0.125000 0.000000
vt 0.000000 1.000000
vt 0.111111 1.000000
vt 0.111111 0.000000
vt 0.222222 1.000000
vt 0.222222 0.000000
vt 0.333333 1.000000
vt 0.333333 0.000000
vt 0.444444 1.000000
vt 0.444444 0.000000
vt 0.555556 1.000000
vt 0.555556 0.000000
vt 0.666667 1.000000
vt 0.666667 0.000000
vt 0.777778 1.000000
vt 0.777778 0.000000
vt 0.888889 1.000000
vt 0.888889 0.000000
vt 1.000000 1.000000
s 0
usemtl Material.001
f 4/1/1 6/2/1 5/3/1
f 4/1/1 7/4/1 6/2/1
f 7/4/1 9/5/1 8/6/1
f 7/4/1 1/7/1 9/5/1
f 4/1/1 1/7/1 7/4/1
f 3/8/1 1/7/1 4/1/1
f 3/8/1 2/9/1 1/7/1
f 13/1/2 14/3/2 15/2/2
f 13/1/2 15/2/2 16/4/2
f 16/4/2 17/6/2 18/5/2
f 16/4/2 18/5/2 10/7/2
f 13/1/2 16/4/2 10/7/2
f 12/8/2 13/1/2 10/7/2
f 12/8/2 10/7/2 11/9/2
s 1
f 20/10/3 22/11/4 21/12/4 19/7/3
f 22/11/4 24/13/5 23/14/5 21/12/4
f 24/13/5 26/15/6 25/16/6 23/14/5
f 26/15/6 28/17/7 27/18/7 25/16/6
f 28/17/7 30/19/8 29/20/8 27/18/7
f 30/19/8 32/21/9 31/22/9 29/20/8
f 32/21/9 34/23/10 33/24/10 31/22/9
f 34/23/10 36/25/11 35/26/11 33/24/10
f 36/25/11 20/27/3 19/5/3 35/26/11
