# Blender 4.0.2
# www.blender.org
mtllib Z_regular.mtl
o Text
v 0.859615 0.600000 1.088461
v 0.859615 0.600000 1.350000
v -0.863462 0.600000 1.350000
v -0.863462 0.600000 1.080769
v 0.517308 0.600000 -1.042308
v -0.821154 0.600000 -1.042308
v -0.821154 0.600000 -1.303846
v 0.821154 0.600000 -1.303846
v 0.821154 0.600000 -1.034616
v -0.567308 0.600000 1.088461
v 0.859615 0.000000 1.088461
v 0.859615 0.000000 1.350000
v -0.863462 0.000000 1.350000
v -0.863462 0.000000 1.080769
v 0.517308 0.000000 -1.042308
v -0.821154 0.000000 -1.042308
v -0.821154 0.000000 -1.303846
v 0.821154 0.000000 -1.303846
v 0.821154 0.000000 -1.034616
v -0.567308 0.000000 1.088461
v 0.859615 0.000000 1.088461
v 0.859615 0.600000 1.088461
v 0.859615 0.000000 1.350000
v 0.859615 0.600000 1.350000
v -0.863462 0.000000 1.350000
v -0.863462 0.600000 1.350000
v -0.863462 0.000000 1.080769
v -0.863462 0.600000 1.080769
v 0.517308 0.000000 -1.042308
v 0.517308 0.600000 -1.042308
v -0.821154 0.000000 -1.042308
v -0.821154 0.600000 -1.042308
v -0.821154 0.000000 -1.303846
v -0.821154 0.600000 -1.303846
v 0.821154 0.000000 -1.303846
v 0.821154 0.600000 -1.303846
v 0.821154 0.000000 -1.034616
v 0.821154 0.600000 -1.034616
v -0.567308 0.000000 1.088461
v -0.567308 0.600000 1.088461
vn -0.0000 1.0000 -0.0000
vn -0.0000 -1.0000 -0.0000
vn 0.7071 -0.0000 -0.7071
vn 0.7071 -0.0000 0.7071
vn -0.7071 -0.0000 0.7071
vn -0.9587 -0.0000 -0.2843
vn -0.8790 -0.0000 0.4769
vn -0.7071 -0.0000 -0.7071
vn 0.9584 -0.0000 0.2856
vn 0.8796 -0.0000 -0.4757
vt 0.555556 0.000000
vt 0.777778 0.000000
vt 0.666667 0.000000
vt 0.444444 0.000000
vt 0.888889 0.000000
vt 0.333333 0.000000
vt 1.000000 0.000000
vt 0.222222 0.000000
vt 0.000000 0.000000
vt 0.111111 0.000000
vt 0.000000 1.000000
vt 0.100000 1.000000
vt 0.100000 0.000000
vt 0.200000 1.000000
vt 0.200000 0.000000
vt 0.300000 1.000000
vt 0.300000 0.000000
vt 0.400000 1.000000
vt 0.400000 0.000000
vt 0.500000 1.000000
vt 0.500000 0.000000
vt 0.600000 1.000000
vt 0.600000 0.000000
vt 0.700000 1.000000
vt 0.700000 0.000000
vt 0.800000 1.000000
vt 0.800000 0.000000
vt 0.900000 1.000000
vt 0.900000 0.000000
vt 1.000000 1.000000
s 0
usemtl Material.001
f 6/1/1 8/2/1 7/3/1
f 6/1/1 5/4/1 8/2/1
f 5/4/1 9/5/1 8/2/1
f 4/6/1 9/5/1 5/4/1
f 4/6/1 10/7/1 9/5/1
f 3/8/1 10/7/1 4/6/1
f 3/8/1 1/9/1 10/7/1
f 3/8/1 2/10/1 1/9/1
f 16/1/2 17/3/2 18/2/2
f 16/1/2 18/2/2 15/4/2
f 15/4/2 18/2/2 19/5/2
f 14/6/2 15/4/2 19/5/2
f 14/6/2 19/5/2 20/7/2
f 13/8/2 14/6/2 20/7/2
f 13/8/2 20/7/2 11/9/2
f 13/8/2 11/9/2 12/10/2
s 1
f 22/11/3 24/12/4 23/13/4 21/9/3
f 24/12/4 26/14/5 25/15/5 23/13/4
f 26/14/5 28/16/6 27/17/6 25/15/5
f 28/16/6 30/18/7 29/19/7 27/17/6
f 30/18/7 32/20/5 31/21/5 29/19/7
f 32/20/5 34/22/8 33/23/8 31/21/5
f 34/22/8 36/24/3 35/25/3 33/23/8
f 36/24/3 38/26/9 37/27/9 35/25/3
f 38/26/9 40/28/10 39/29/10 37/27/9
f 40/28/10 22/30/3 21/7/3 39/29/10
